%TF.GenerationSoftware,KiCad,Pcbnew,10.0.0-rc1.1-4-gef7340bffd*%
%TF.CreationDate,2026-03-04T22:26:47+01:00*%
%TF.ProjectId,chu_controller,6368755f-636f-46e7-9472-6f6c6c65722e,rev?*%
%TF.SameCoordinates,Original*%
%TF.FileFunction,Legend,Top*%
%TF.FilePolarity,Positive*%
%FSLAX46Y46*%
G04 Gerber Fmt 4.6, Leading zero omitted, Abs format (unit mm)*
G04 Created by KiCad (PCBNEW 10.0.0-rc1.1-4-gef7340bffd) date 2026-03-04 22:26:47*
%MOMM*%
%LPD*%
G01*
G04 APERTURE LIST*
%ADD10C,0.250000*%
%ADD11C,0.200000*%
G04 APERTURE END LIST*
D10*
X144448238Y-83283520D02*
X144353000Y-83188282D01*
X144353000Y-83188282D02*
X144257761Y-82902568D01*
X144257761Y-82902568D02*
X144257761Y-82712092D01*
X144257761Y-82712092D02*
X144353000Y-82426377D01*
X144353000Y-82426377D02*
X144543476Y-82235901D01*
X144543476Y-82235901D02*
X144733952Y-82140663D01*
X144733952Y-82140663D02*
X145114904Y-82045425D01*
X145114904Y-82045425D02*
X145400619Y-82045425D01*
X145400619Y-82045425D02*
X145781571Y-82140663D01*
X145781571Y-82140663D02*
X145972047Y-82235901D01*
X145972047Y-82235901D02*
X146162523Y-82426377D01*
X146162523Y-82426377D02*
X146257761Y-82712092D01*
X146257761Y-82712092D02*
X146257761Y-82902568D01*
X146257761Y-82902568D02*
X146162523Y-83188282D01*
X146162523Y-83188282D02*
X146067285Y-83283520D01*
X144257761Y-84140663D02*
X146257761Y-84140663D01*
X144257761Y-84997806D02*
X145305380Y-84997806D01*
X145305380Y-84997806D02*
X145495857Y-84902568D01*
X145495857Y-84902568D02*
X145591095Y-84712092D01*
X145591095Y-84712092D02*
X145591095Y-84426377D01*
X145591095Y-84426377D02*
X145495857Y-84235901D01*
X145495857Y-84235901D02*
X145400619Y-84140663D01*
X145591095Y-86807330D02*
X144257761Y-86807330D01*
X145591095Y-85950187D02*
X144543476Y-85950187D01*
X144543476Y-85950187D02*
X144353000Y-86045425D01*
X144353000Y-86045425D02*
X144257761Y-86235901D01*
X144257761Y-86235901D02*
X144257761Y-86521616D01*
X144257761Y-86521616D02*
X144353000Y-86712092D01*
X144353000Y-86712092D02*
X144448238Y-86807330D01*
X145019666Y-87759711D02*
X145019666Y-89283521D01*
X144448238Y-91378758D02*
X144353000Y-91283520D01*
X144353000Y-91283520D02*
X144257761Y-90997806D01*
X144257761Y-90997806D02*
X144257761Y-90807330D01*
X144257761Y-90807330D02*
X144353000Y-90521615D01*
X144353000Y-90521615D02*
X144543476Y-90331139D01*
X144543476Y-90331139D02*
X144733952Y-90235901D01*
X144733952Y-90235901D02*
X145114904Y-90140663D01*
X145114904Y-90140663D02*
X145400619Y-90140663D01*
X145400619Y-90140663D02*
X145781571Y-90235901D01*
X145781571Y-90235901D02*
X145972047Y-90331139D01*
X145972047Y-90331139D02*
X146162523Y-90521615D01*
X146162523Y-90521615D02*
X146257761Y-90807330D01*
X146257761Y-90807330D02*
X146257761Y-90997806D01*
X146257761Y-90997806D02*
X146162523Y-91283520D01*
X146162523Y-91283520D02*
X146067285Y-91378758D01*
X144257761Y-92521615D02*
X144353000Y-92331139D01*
X144353000Y-92331139D02*
X144448238Y-92235901D01*
X144448238Y-92235901D02*
X144638714Y-92140663D01*
X144638714Y-92140663D02*
X145210142Y-92140663D01*
X145210142Y-92140663D02*
X145400619Y-92235901D01*
X145400619Y-92235901D02*
X145495857Y-92331139D01*
X145495857Y-92331139D02*
X145591095Y-92521615D01*
X145591095Y-92521615D02*
X145591095Y-92807330D01*
X145591095Y-92807330D02*
X145495857Y-92997806D01*
X145495857Y-92997806D02*
X145400619Y-93093044D01*
X145400619Y-93093044D02*
X145210142Y-93188282D01*
X145210142Y-93188282D02*
X144638714Y-93188282D01*
X144638714Y-93188282D02*
X144448238Y-93093044D01*
X144448238Y-93093044D02*
X144353000Y-92997806D01*
X144353000Y-92997806D02*
X144257761Y-92807330D01*
X144257761Y-92807330D02*
X144257761Y-92521615D01*
X145591095Y-94045425D02*
X144257761Y-94045425D01*
X145400619Y-94045425D02*
X145495857Y-94140663D01*
X145495857Y-94140663D02*
X145591095Y-94331139D01*
X145591095Y-94331139D02*
X145591095Y-94616854D01*
X145591095Y-94616854D02*
X145495857Y-94807330D01*
X145495857Y-94807330D02*
X145305380Y-94902568D01*
X145305380Y-94902568D02*
X144257761Y-94902568D01*
X145591095Y-95569235D02*
X145591095Y-96331139D01*
X146257761Y-95854949D02*
X144543476Y-95854949D01*
X144543476Y-95854949D02*
X144353000Y-95950187D01*
X144353000Y-95950187D02*
X144257761Y-96140663D01*
X144257761Y-96140663D02*
X144257761Y-96331139D01*
X144257761Y-96997806D02*
X145591095Y-96997806D01*
X145210142Y-96997806D02*
X145400619Y-97093044D01*
X145400619Y-97093044D02*
X145495857Y-97188282D01*
X145495857Y-97188282D02*
X145591095Y-97378758D01*
X145591095Y-97378758D02*
X145591095Y-97569235D01*
X144257761Y-98521615D02*
X144353000Y-98331139D01*
X144353000Y-98331139D02*
X144448238Y-98235901D01*
X144448238Y-98235901D02*
X144638714Y-98140663D01*
X144638714Y-98140663D02*
X145210142Y-98140663D01*
X145210142Y-98140663D02*
X145400619Y-98235901D01*
X145400619Y-98235901D02*
X145495857Y-98331139D01*
X145495857Y-98331139D02*
X145591095Y-98521615D01*
X145591095Y-98521615D02*
X145591095Y-98807330D01*
X145591095Y-98807330D02*
X145495857Y-98997806D01*
X145495857Y-98997806D02*
X145400619Y-99093044D01*
X145400619Y-99093044D02*
X145210142Y-99188282D01*
X145210142Y-99188282D02*
X144638714Y-99188282D01*
X144638714Y-99188282D02*
X144448238Y-99093044D01*
X144448238Y-99093044D02*
X144353000Y-98997806D01*
X144353000Y-98997806D02*
X144257761Y-98807330D01*
X144257761Y-98807330D02*
X144257761Y-98521615D01*
X144257761Y-100331139D02*
X144353000Y-100140663D01*
X144353000Y-100140663D02*
X144543476Y-100045425D01*
X144543476Y-100045425D02*
X146257761Y-100045425D01*
X144257761Y-101378758D02*
X144353000Y-101188282D01*
X144353000Y-101188282D02*
X144543476Y-101093044D01*
X144543476Y-101093044D02*
X146257761Y-101093044D01*
X144353000Y-102902568D02*
X144257761Y-102712092D01*
X144257761Y-102712092D02*
X144257761Y-102331139D01*
X144257761Y-102331139D02*
X144353000Y-102140663D01*
X144353000Y-102140663D02*
X144543476Y-102045425D01*
X144543476Y-102045425D02*
X145305380Y-102045425D01*
X145305380Y-102045425D02*
X145495857Y-102140663D01*
X145495857Y-102140663D02*
X145591095Y-102331139D01*
X145591095Y-102331139D02*
X145591095Y-102712092D01*
X145591095Y-102712092D02*
X145495857Y-102902568D01*
X145495857Y-102902568D02*
X145305380Y-102997806D01*
X145305380Y-102997806D02*
X145114904Y-102997806D01*
X145114904Y-102997806D02*
X144924428Y-102045425D01*
X144257761Y-103854949D02*
X145591095Y-103854949D01*
X145210142Y-103854949D02*
X145400619Y-103950187D01*
X145400619Y-103950187D02*
X145495857Y-104045425D01*
X145495857Y-104045425D02*
X145591095Y-104235901D01*
X145591095Y-104235901D02*
X145591095Y-104426378D01*
X145305380Y-107283521D02*
X145210142Y-107569235D01*
X145210142Y-107569235D02*
X145114904Y-107664473D01*
X145114904Y-107664473D02*
X144924428Y-107759711D01*
X144924428Y-107759711D02*
X144638714Y-107759711D01*
X144638714Y-107759711D02*
X144448238Y-107664473D01*
X144448238Y-107664473D02*
X144353000Y-107569235D01*
X144353000Y-107569235D02*
X144257761Y-107378759D01*
X144257761Y-107378759D02*
X144257761Y-106616854D01*
X144257761Y-106616854D02*
X146257761Y-106616854D01*
X146257761Y-106616854D02*
X146257761Y-107283521D01*
X146257761Y-107283521D02*
X146162523Y-107473997D01*
X146162523Y-107473997D02*
X146067285Y-107569235D01*
X146067285Y-107569235D02*
X145876809Y-107664473D01*
X145876809Y-107664473D02*
X145686333Y-107664473D01*
X145686333Y-107664473D02*
X145495857Y-107569235D01*
X145495857Y-107569235D02*
X145400619Y-107473997D01*
X145400619Y-107473997D02*
X145305380Y-107283521D01*
X145305380Y-107283521D02*
X145305380Y-106616854D01*
X144257761Y-108902568D02*
X144353000Y-108712092D01*
X144353000Y-108712092D02*
X144448238Y-108616854D01*
X144448238Y-108616854D02*
X144638714Y-108521616D01*
X144638714Y-108521616D02*
X145210142Y-108521616D01*
X145210142Y-108521616D02*
X145400619Y-108616854D01*
X145400619Y-108616854D02*
X145495857Y-108712092D01*
X145495857Y-108712092D02*
X145591095Y-108902568D01*
X145591095Y-108902568D02*
X145591095Y-109188283D01*
X145591095Y-109188283D02*
X145495857Y-109378759D01*
X145495857Y-109378759D02*
X145400619Y-109473997D01*
X145400619Y-109473997D02*
X145210142Y-109569235D01*
X145210142Y-109569235D02*
X144638714Y-109569235D01*
X144638714Y-109569235D02*
X144448238Y-109473997D01*
X144448238Y-109473997D02*
X144353000Y-109378759D01*
X144353000Y-109378759D02*
X144257761Y-109188283D01*
X144257761Y-109188283D02*
X144257761Y-108902568D01*
X144257761Y-111283521D02*
X145305380Y-111283521D01*
X145305380Y-111283521D02*
X145495857Y-111188283D01*
X145495857Y-111188283D02*
X145591095Y-110997807D01*
X145591095Y-110997807D02*
X145591095Y-110616854D01*
X145591095Y-110616854D02*
X145495857Y-110426378D01*
X144353000Y-111283521D02*
X144257761Y-111093045D01*
X144257761Y-111093045D02*
X144257761Y-110616854D01*
X144257761Y-110616854D02*
X144353000Y-110426378D01*
X144353000Y-110426378D02*
X144543476Y-110331140D01*
X144543476Y-110331140D02*
X144733952Y-110331140D01*
X144733952Y-110331140D02*
X144924428Y-110426378D01*
X144924428Y-110426378D02*
X145019666Y-110616854D01*
X145019666Y-110616854D02*
X145019666Y-111093045D01*
X145019666Y-111093045D02*
X145114904Y-111283521D01*
X144257761Y-112235902D02*
X145591095Y-112235902D01*
X145210142Y-112235902D02*
X145400619Y-112331140D01*
X145400619Y-112331140D02*
X145495857Y-112426378D01*
X145495857Y-112426378D02*
X145591095Y-112616854D01*
X145591095Y-112616854D02*
X145591095Y-112807331D01*
X144257761Y-114331140D02*
X146257761Y-114331140D01*
X144353000Y-114331140D02*
X144257761Y-114140664D01*
X144257761Y-114140664D02*
X144257761Y-113759711D01*
X144257761Y-113759711D02*
X144353000Y-113569235D01*
X144353000Y-113569235D02*
X144448238Y-113473997D01*
X144448238Y-113473997D02*
X144638714Y-113378759D01*
X144638714Y-113378759D02*
X145210142Y-113378759D01*
X145210142Y-113378759D02*
X145400619Y-113473997D01*
X145400619Y-113473997D02*
X145495857Y-113569235D01*
X145495857Y-113569235D02*
X145591095Y-113759711D01*
X145591095Y-113759711D02*
X145591095Y-114140664D01*
X145591095Y-114140664D02*
X145495857Y-114331140D01*
X145591095Y-116616855D02*
X144257761Y-117093045D01*
X144257761Y-117093045D02*
X145591095Y-117569236D01*
X144257761Y-119378760D02*
X144257761Y-118235903D01*
X144257761Y-118807331D02*
X146257761Y-118807331D01*
X146257761Y-118807331D02*
X145972047Y-118616855D01*
X145972047Y-118616855D02*
X145781571Y-118426379D01*
X145781571Y-118426379D02*
X145686333Y-118235903D01*
X144448238Y-120235903D02*
X144353000Y-120331141D01*
X144353000Y-120331141D02*
X144257761Y-120235903D01*
X144257761Y-120235903D02*
X144353000Y-120140665D01*
X144353000Y-120140665D02*
X144448238Y-120235903D01*
X144448238Y-120235903D02*
X144257761Y-120235903D01*
X144257761Y-122235903D02*
X144257761Y-121093046D01*
X144257761Y-121664474D02*
X146257761Y-121664474D01*
X146257761Y-121664474D02*
X145972047Y-121473998D01*
X145972047Y-121473998D02*
X145781571Y-121283522D01*
X145781571Y-121283522D02*
X145686333Y-121093046D01*
D11*
X120585838Y-69744855D02*
X120728783Y-69792503D01*
X120728783Y-69792503D02*
X120967024Y-69792503D01*
X120967024Y-69792503D02*
X121062321Y-69744855D01*
X121062321Y-69744855D02*
X121109969Y-69697206D01*
X121109969Y-69697206D02*
X121157617Y-69601910D01*
X121157617Y-69601910D02*
X121157617Y-69506613D01*
X121157617Y-69506613D02*
X121109969Y-69411317D01*
X121109969Y-69411317D02*
X121062321Y-69363668D01*
X121062321Y-69363668D02*
X120967024Y-69316020D01*
X120967024Y-69316020D02*
X120776431Y-69268372D01*
X120776431Y-69268372D02*
X120681134Y-69220723D01*
X120681134Y-69220723D02*
X120633486Y-69173075D01*
X120633486Y-69173075D02*
X120585838Y-69077779D01*
X120585838Y-69077779D02*
X120585838Y-68982482D01*
X120585838Y-68982482D02*
X120633486Y-68887185D01*
X120633486Y-68887185D02*
X120681134Y-68839537D01*
X120681134Y-68839537D02*
X120776431Y-68791889D01*
X120776431Y-68791889D02*
X121014672Y-68791889D01*
X121014672Y-68791889D02*
X121157617Y-68839537D01*
X121491155Y-68791889D02*
X121729397Y-69792503D01*
X121729397Y-69792503D02*
X121919990Y-69077779D01*
X121919990Y-69077779D02*
X122110583Y-69792503D01*
X122110583Y-69792503D02*
X122348825Y-68791889D01*
X123254142Y-69792503D02*
X122682363Y-69792503D01*
X122968252Y-69792503D02*
X122968252Y-68791889D01*
X122968252Y-68791889D02*
X122872956Y-68934834D01*
X122872956Y-68934834D02*
X122777659Y-69030130D01*
X122777659Y-69030130D02*
X122682363Y-69077779D01*
X140849838Y-69744855D02*
X140992783Y-69792503D01*
X140992783Y-69792503D02*
X141231024Y-69792503D01*
X141231024Y-69792503D02*
X141326321Y-69744855D01*
X141326321Y-69744855D02*
X141373969Y-69697206D01*
X141373969Y-69697206D02*
X141421617Y-69601910D01*
X141421617Y-69601910D02*
X141421617Y-69506613D01*
X141421617Y-69506613D02*
X141373969Y-69411317D01*
X141373969Y-69411317D02*
X141326321Y-69363668D01*
X141326321Y-69363668D02*
X141231024Y-69316020D01*
X141231024Y-69316020D02*
X141040431Y-69268372D01*
X141040431Y-69268372D02*
X140945134Y-69220723D01*
X140945134Y-69220723D02*
X140897486Y-69173075D01*
X140897486Y-69173075D02*
X140849838Y-69077779D01*
X140849838Y-69077779D02*
X140849838Y-68982482D01*
X140849838Y-68982482D02*
X140897486Y-68887185D01*
X140897486Y-68887185D02*
X140945134Y-68839537D01*
X140945134Y-68839537D02*
X141040431Y-68791889D01*
X141040431Y-68791889D02*
X141278672Y-68791889D01*
X141278672Y-68791889D02*
X141421617Y-68839537D01*
X141755155Y-68791889D02*
X141993397Y-69792503D01*
X141993397Y-69792503D02*
X142183990Y-69077779D01*
X142183990Y-69077779D02*
X142374583Y-69792503D01*
X142374583Y-69792503D02*
X142612825Y-68791889D01*
X142898714Y-68791889D02*
X143518142Y-68791889D01*
X143518142Y-68791889D02*
X143184604Y-69173075D01*
X143184604Y-69173075D02*
X143327549Y-69173075D01*
X143327549Y-69173075D02*
X143422846Y-69220723D01*
X143422846Y-69220723D02*
X143470494Y-69268372D01*
X143470494Y-69268372D02*
X143518142Y-69363668D01*
X143518142Y-69363668D02*
X143518142Y-69601910D01*
X143518142Y-69601910D02*
X143470494Y-69697206D01*
X143470494Y-69697206D02*
X143422846Y-69744855D01*
X143422846Y-69744855D02*
X143327549Y-69792503D01*
X143327549Y-69792503D02*
X143041659Y-69792503D01*
X143041659Y-69792503D02*
X142946363Y-69744855D01*
X142946363Y-69744855D02*
X142898714Y-69697206D01*
X130689838Y-69744855D02*
X130832783Y-69792503D01*
X130832783Y-69792503D02*
X131071024Y-69792503D01*
X131071024Y-69792503D02*
X131166321Y-69744855D01*
X131166321Y-69744855D02*
X131213969Y-69697206D01*
X131213969Y-69697206D02*
X131261617Y-69601910D01*
X131261617Y-69601910D02*
X131261617Y-69506613D01*
X131261617Y-69506613D02*
X131213969Y-69411317D01*
X131213969Y-69411317D02*
X131166321Y-69363668D01*
X131166321Y-69363668D02*
X131071024Y-69316020D01*
X131071024Y-69316020D02*
X130880431Y-69268372D01*
X130880431Y-69268372D02*
X130785134Y-69220723D01*
X130785134Y-69220723D02*
X130737486Y-69173075D01*
X130737486Y-69173075D02*
X130689838Y-69077779D01*
X130689838Y-69077779D02*
X130689838Y-68982482D01*
X130689838Y-68982482D02*
X130737486Y-68887185D01*
X130737486Y-68887185D02*
X130785134Y-68839537D01*
X130785134Y-68839537D02*
X130880431Y-68791889D01*
X130880431Y-68791889D02*
X131118672Y-68791889D01*
X131118672Y-68791889D02*
X131261617Y-68839537D01*
X131595155Y-68791889D02*
X131833397Y-69792503D01*
X131833397Y-69792503D02*
X132023990Y-69077779D01*
X132023990Y-69077779D02*
X132214583Y-69792503D01*
X132214583Y-69792503D02*
X132452825Y-68791889D01*
X132786363Y-68887185D02*
X132834011Y-68839537D01*
X132834011Y-68839537D02*
X132929308Y-68791889D01*
X132929308Y-68791889D02*
X133167549Y-68791889D01*
X133167549Y-68791889D02*
X133262846Y-68839537D01*
X133262846Y-68839537D02*
X133310494Y-68887185D01*
X133310494Y-68887185D02*
X133358142Y-68982482D01*
X133358142Y-68982482D02*
X133358142Y-69077779D01*
X133358142Y-69077779D02*
X133310494Y-69220723D01*
X133310494Y-69220723D02*
X132738714Y-69792503D01*
X132738714Y-69792503D02*
X133358142Y-69792503D01*
X151304952Y-68180219D02*
X151304952Y-68989742D01*
X151304952Y-68989742D02*
X151352571Y-69084980D01*
X151352571Y-69084980D02*
X151400190Y-69132600D01*
X151400190Y-69132600D02*
X151495428Y-69180219D01*
X151495428Y-69180219D02*
X151685904Y-69180219D01*
X151685904Y-69180219D02*
X151781142Y-69132600D01*
X151781142Y-69132600D02*
X151828761Y-69084980D01*
X151828761Y-69084980D02*
X151876380Y-68989742D01*
X151876380Y-68989742D02*
X151876380Y-68180219D01*
X152304952Y-69132600D02*
X152447809Y-69180219D01*
X152447809Y-69180219D02*
X152685904Y-69180219D01*
X152685904Y-69180219D02*
X152781142Y-69132600D01*
X152781142Y-69132600D02*
X152828761Y-69084980D01*
X152828761Y-69084980D02*
X152876380Y-68989742D01*
X152876380Y-68989742D02*
X152876380Y-68894504D01*
X152876380Y-68894504D02*
X152828761Y-68799266D01*
X152828761Y-68799266D02*
X152781142Y-68751647D01*
X152781142Y-68751647D02*
X152685904Y-68704028D01*
X152685904Y-68704028D02*
X152495428Y-68656409D01*
X152495428Y-68656409D02*
X152400190Y-68608790D01*
X152400190Y-68608790D02*
X152352571Y-68561171D01*
X152352571Y-68561171D02*
X152304952Y-68465933D01*
X152304952Y-68465933D02*
X152304952Y-68370695D01*
X152304952Y-68370695D02*
X152352571Y-68275457D01*
X152352571Y-68275457D02*
X152400190Y-68227838D01*
X152400190Y-68227838D02*
X152495428Y-68180219D01*
X152495428Y-68180219D02*
X152733523Y-68180219D01*
X152733523Y-68180219D02*
X152876380Y-68227838D01*
X153638285Y-68656409D02*
X153781142Y-68704028D01*
X153781142Y-68704028D02*
X153828761Y-68751647D01*
X153828761Y-68751647D02*
X153876380Y-68846885D01*
X153876380Y-68846885D02*
X153876380Y-68989742D01*
X153876380Y-68989742D02*
X153828761Y-69084980D01*
X153828761Y-69084980D02*
X153781142Y-69132600D01*
X153781142Y-69132600D02*
X153685904Y-69180219D01*
X153685904Y-69180219D02*
X153304952Y-69180219D01*
X153304952Y-69180219D02*
X153304952Y-68180219D01*
X153304952Y-68180219D02*
X153638285Y-68180219D01*
X153638285Y-68180219D02*
X153733523Y-68227838D01*
X153733523Y-68227838D02*
X153781142Y-68275457D01*
X153781142Y-68275457D02*
X153828761Y-68370695D01*
X153828761Y-68370695D02*
X153828761Y-68465933D01*
X153828761Y-68465933D02*
X153781142Y-68561171D01*
X153781142Y-68561171D02*
X153733523Y-68608790D01*
X153733523Y-68608790D02*
X153638285Y-68656409D01*
X153638285Y-68656409D02*
X153304952Y-68656409D01*
X154066857Y-69275457D02*
X154828761Y-69275457D01*
X155638285Y-69084980D02*
X155590666Y-69132600D01*
X155590666Y-69132600D02*
X155447809Y-69180219D01*
X155447809Y-69180219D02*
X155352571Y-69180219D01*
X155352571Y-69180219D02*
X155209714Y-69132600D01*
X155209714Y-69132600D02*
X155114476Y-69037361D01*
X155114476Y-69037361D02*
X155066857Y-68942123D01*
X155066857Y-68942123D02*
X155019238Y-68751647D01*
X155019238Y-68751647D02*
X155019238Y-68608790D01*
X155019238Y-68608790D02*
X155066857Y-68418314D01*
X155066857Y-68418314D02*
X155114476Y-68323076D01*
X155114476Y-68323076D02*
X155209714Y-68227838D01*
X155209714Y-68227838D02*
X155352571Y-68180219D01*
X155352571Y-68180219D02*
X155447809Y-68180219D01*
X155447809Y-68180219D02*
X155590666Y-68227838D01*
X155590666Y-68227838D02*
X155638285Y-68275457D01*
X156590666Y-69180219D02*
X156019238Y-69180219D01*
X156304952Y-69180219D02*
X156304952Y-68180219D01*
X156304952Y-68180219D02*
X156209714Y-68323076D01*
X156209714Y-68323076D02*
X156114476Y-68418314D01*
X156114476Y-68418314D02*
X156019238Y-68465933D01*
X151074219Y-78874857D02*
X150598028Y-79208190D01*
X151074219Y-79446285D02*
X150074219Y-79446285D01*
X150074219Y-79446285D02*
X150074219Y-79065333D01*
X150074219Y-79065333D02*
X150121838Y-78970095D01*
X150121838Y-78970095D02*
X150169457Y-78922476D01*
X150169457Y-78922476D02*
X150264695Y-78874857D01*
X150264695Y-78874857D02*
X150407552Y-78874857D01*
X150407552Y-78874857D02*
X150502790Y-78922476D01*
X150502790Y-78922476D02*
X150550409Y-78970095D01*
X150550409Y-78970095D02*
X150598028Y-79065333D01*
X150598028Y-79065333D02*
X150598028Y-79446285D01*
X151074219Y-77922476D02*
X151074219Y-78493904D01*
X151074219Y-78208190D02*
X150074219Y-78208190D01*
X150074219Y-78208190D02*
X150217076Y-78303428D01*
X150217076Y-78303428D02*
X150312314Y-78398666D01*
X150312314Y-78398666D02*
X150359933Y-78493904D01*
X151074219Y-77446285D02*
X151074219Y-77255809D01*
X151074219Y-77255809D02*
X151026600Y-77160571D01*
X151026600Y-77160571D02*
X150978980Y-77112952D01*
X150978980Y-77112952D02*
X150836123Y-77017714D01*
X150836123Y-77017714D02*
X150645647Y-76970095D01*
X150645647Y-76970095D02*
X150264695Y-76970095D01*
X150264695Y-76970095D02*
X150169457Y-77017714D01*
X150169457Y-77017714D02*
X150121838Y-77065333D01*
X150121838Y-77065333D02*
X150074219Y-77160571D01*
X150074219Y-77160571D02*
X150074219Y-77351047D01*
X150074219Y-77351047D02*
X150121838Y-77446285D01*
X150121838Y-77446285D02*
X150169457Y-77493904D01*
X150169457Y-77493904D02*
X150264695Y-77541523D01*
X150264695Y-77541523D02*
X150502790Y-77541523D01*
X150502790Y-77541523D02*
X150598028Y-77493904D01*
X150598028Y-77493904D02*
X150645647Y-77446285D01*
X150645647Y-77446285D02*
X150693266Y-77351047D01*
X150693266Y-77351047D02*
X150693266Y-77160571D01*
X150693266Y-77160571D02*
X150645647Y-77065333D01*
X150645647Y-77065333D02*
X150598028Y-77017714D01*
X150598028Y-77017714D02*
X150502790Y-76970095D01*
X157296219Y-78874857D02*
X156820028Y-79208190D01*
X157296219Y-79446285D02*
X156296219Y-79446285D01*
X156296219Y-79446285D02*
X156296219Y-79065333D01*
X156296219Y-79065333D02*
X156343838Y-78970095D01*
X156343838Y-78970095D02*
X156391457Y-78922476D01*
X156391457Y-78922476D02*
X156486695Y-78874857D01*
X156486695Y-78874857D02*
X156629552Y-78874857D01*
X156629552Y-78874857D02*
X156724790Y-78922476D01*
X156724790Y-78922476D02*
X156772409Y-78970095D01*
X156772409Y-78970095D02*
X156820028Y-79065333D01*
X156820028Y-79065333D02*
X156820028Y-79446285D01*
X156391457Y-78493904D02*
X156343838Y-78446285D01*
X156343838Y-78446285D02*
X156296219Y-78351047D01*
X156296219Y-78351047D02*
X156296219Y-78112952D01*
X156296219Y-78112952D02*
X156343838Y-78017714D01*
X156343838Y-78017714D02*
X156391457Y-77970095D01*
X156391457Y-77970095D02*
X156486695Y-77922476D01*
X156486695Y-77922476D02*
X156581933Y-77922476D01*
X156581933Y-77922476D02*
X156724790Y-77970095D01*
X156724790Y-77970095D02*
X157296219Y-78541523D01*
X157296219Y-78541523D02*
X157296219Y-77922476D01*
X156296219Y-77303428D02*
X156296219Y-77208190D01*
X156296219Y-77208190D02*
X156343838Y-77112952D01*
X156343838Y-77112952D02*
X156391457Y-77065333D01*
X156391457Y-77065333D02*
X156486695Y-77017714D01*
X156486695Y-77017714D02*
X156677171Y-76970095D01*
X156677171Y-76970095D02*
X156915266Y-76970095D01*
X156915266Y-76970095D02*
X157105742Y-77017714D01*
X157105742Y-77017714D02*
X157200980Y-77065333D01*
X157200980Y-77065333D02*
X157248600Y-77112952D01*
X157248600Y-77112952D02*
X157296219Y-77208190D01*
X157296219Y-77208190D02*
X157296219Y-77303428D01*
X157296219Y-77303428D02*
X157248600Y-77398666D01*
X157248600Y-77398666D02*
X157200980Y-77446285D01*
X157200980Y-77446285D02*
X157105742Y-77493904D01*
X157105742Y-77493904D02*
X156915266Y-77541523D01*
X156915266Y-77541523D02*
X156677171Y-77541523D01*
X156677171Y-77541523D02*
X156486695Y-77493904D01*
X156486695Y-77493904D02*
X156391457Y-77446285D01*
X156391457Y-77446285D02*
X156343838Y-77398666D01*
X156343838Y-77398666D02*
X156296219Y-77303428D01*
%TO.C,SW1*%
X118820000Y-66245000D02*
X118820000Y-66595000D01*
X123020000Y-67695000D02*
X120820000Y-67695000D01*
X125020000Y-66245000D02*
X125020000Y-66595000D01*
X118596500Y-67345000D02*
G75*
G02*
X118396500Y-67345000I-100000J0D01*
G01*
X118396500Y-67345000D02*
G75*
G02*
X118596500Y-67345000I100000J0D01*
G01*
%TO.C,SW3*%
X139084000Y-66245000D02*
X139084000Y-66595000D01*
X143284000Y-67695000D02*
X141084000Y-67695000D01*
X145284000Y-66245000D02*
X145284000Y-66595000D01*
X138860500Y-67345000D02*
G75*
G02*
X138660500Y-67345000I-100000J0D01*
G01*
X138660500Y-67345000D02*
G75*
G02*
X138860500Y-67345000I100000J0D01*
G01*
%TO.C,SW2*%
X128924000Y-66245000D02*
X128924000Y-66595000D01*
X133124000Y-67695000D02*
X130924000Y-67695000D01*
X135124000Y-66245000D02*
X135124000Y-66595000D01*
X128700500Y-67345000D02*
G75*
G02*
X128500500Y-67345000I-100000J0D01*
G01*
X128500500Y-67345000D02*
G75*
G02*
X128700500Y-67345000I100000J0D01*
G01*
%TO.C,USB_C1*%
X149224000Y-70508000D02*
X149224000Y-68728000D01*
X156724000Y-73428000D02*
X157524000Y-73428000D01*
X158624000Y-70508000D02*
X158624000Y-68728000D01*
%TO.C,R19*%
X151411000Y-78004936D02*
X151411000Y-78459064D01*
X152881000Y-78004936D02*
X152881000Y-78459064D01*
%TO.C,R20*%
X154459000Y-78004936D02*
X154459000Y-78459064D01*
X155929000Y-78004936D02*
X155929000Y-78459064D01*
%TD*%
M02*
