M48
; DRILL file KiCad 10.0.0-rc1.1-4-gef7340bffd date 2026-03-04T22:26:53
; FORMAT={-:-/ absolute / metric / decimal}
; #@! TF.CreationDate,2026-03-04T22:26:53+01:00
; #@! TF.GenerationSoftware,Kicad,Pcbnew,10.0.0-rc1.1-4-gef7340bffd
; #@! TF.FileFunction,Plated,1,2,PTH
FMAT,2
METRIC
; #@! TA.AperFunction,Plated,PTH,ViaDrill
T1C0.300
; #@! TA.AperFunction,Plated,PTH,ComponentDrill
T2C0.800
; #@! TA.AperFunction,Plated,PTH,ComponentDrill
T3C1.270
; #@! TA.AperFunction,Plated,PTH,ComponentDrill
T4C1.450
; #@! TA.AperFunction,Plated,PTH,ComponentDrill
T5C1.500
%
G90
G05
T1
X111.0Y-104.5
X112.5Y-134.0
X118.5Y-81.5
X118.75Y-89.25
X119.0Y-72.5
X120.0Y-107.0
X120.5Y-117.0
X123.5Y-69.5
X127.5Y-128.5
X129.5Y-133.0
X130.0Y-71.5
X130.0Y-81.0
X133.5Y-91.0
X134.5Y-119.0
X135.5Y-137.0
X139.5Y-72.0
X140.0Y-69.4
X144.0Y-72.0
X147.5Y-133.0
X148.5Y-119.5
X150.7Y-74.0
X155.0Y-103.0
X156.0Y-74.0
X158.0Y-133.5
T3
X116.84Y-130.5
X119.38Y-130.5
X121.92Y-130.5
X124.46Y-130.5
X147.32Y-130.5
X149.86Y-130.5
X152.4Y-130.5
X154.94Y-130.5
T4
X129.54Y-130.644
X132.08Y-130.644
X134.62Y-130.644
X137.16Y-130.644
X139.7Y-130.644
X142.24Y-130.644
T2
X149.604Y-67.853G85X149.604Y-67.453
G05
X149.604Y-72.283G85X149.604Y-71.383
G05
X158.244Y-67.853G85X158.244Y-67.453
G05
X158.244Y-72.283G85X158.244Y-71.383
G05
T5
X134.3Y-76.65G85X134.3Y-75.75
G05
X135.95Y-79.5G85X135.05Y-79.5
G05
X136.7Y-76.65G85X136.7Y-75.75
G05
M30
