%TF.GenerationSoftware,KiCad,Pcbnew,10.0.0-rc1.1-4-gef7340bffd*%
%TF.CreationDate,2026-03-04T22:26:47+01:00*%
%TF.ProjectId,chu_controller,6368755f-636f-46e7-9472-6f6c6c65722e,rev?*%
%TF.SameCoordinates,Original*%
%TF.FileFunction,Copper,L1,Top*%
%TF.FilePolarity,Positive*%
%FSLAX46Y46*%
G04 Gerber Fmt 4.6, Leading zero omitted, Abs format (unit mm)*
G04 Created by KiCad (PCBNEW 10.0.0-rc1.1-4-gef7340bffd) date 2026-03-04 22:26:47*
%MOMM*%
%LPD*%
G01*
G04 APERTURE LIST*
G04 Aperture macros list*
%AMRoundRect*
0 Rectangle with rounded corners*
0 $1 Rounding radius*
0 $2 $3 $4 $5 $6 $7 $8 $9 X,Y pos of 4 corners*
0 Add a 4 corners polygon primitive as box body*
4,1,4,$2,$3,$4,$5,$6,$7,$8,$9,$2,$3,0*
0 Add four circle primitives for the rounded corners*
1,1,$1+$1,$2,$3*
1,1,$1+$1,$4,$5*
1,1,$1+$1,$6,$7*
1,1,$1+$1,$8,$9*
0 Add four rect primitives between the rounded corners*
20,1,$1+$1,$2,$3,$4,$5,0*
20,1,$1+$1,$4,$5,$6,$7,0*
20,1,$1+$1,$6,$7,$8,$9,0*
20,1,$1+$1,$8,$9,$2,$3,0*%
G04 Aperture macros list end*
%TA.AperFunction,ComponentPad*%
%ADD10RoundRect,0.400000X0.600000X1.100000X-0.600000X1.100000X-0.600000X-1.100000X0.600000X-1.100000X0*%
%TD*%
%TA.AperFunction,ComponentPad*%
%ADD11RoundRect,0.500000X1.000000X0.500000X-1.000000X0.500000X-1.000000X-0.500000X1.000000X-0.500000X0*%
%TD*%
%TA.AperFunction,SMDPad,CuDef*%
%ADD12R,1.450000X1.500000*%
%TD*%
%TA.AperFunction,SMDPad,CuDef*%
%ADD13R,1.200000X0.800000*%
%TD*%
%TA.AperFunction,SMDPad,CuDef*%
%ADD14RoundRect,0.150000X0.150000X0.500000X-0.150000X0.500000X-0.150000X-0.500000X0.150000X-0.500000X0*%
%TD*%
%TA.AperFunction,SMDPad,CuDef*%
%ADD15RoundRect,0.075000X0.075000X0.575000X-0.075000X0.575000X-0.075000X-0.575000X0.075000X-0.575000X0*%
%TD*%
%TA.AperFunction,HeatsinkPad*%
%ADD16O,1.200000X2.100000*%
%TD*%
%TA.AperFunction,HeatsinkPad*%
%ADD17O,1.200000X1.600000*%
%TD*%
%TA.AperFunction,SMDPad,CuDef*%
%ADD18RoundRect,0.250000X-0.450000X0.350000X-0.450000X-0.350000X0.450000X-0.350000X0.450000X0.350000X0*%
%TD*%
%TA.AperFunction,ComponentPad*%
%ADD19C,1.905000*%
%TD*%
%TA.AperFunction,ComponentPad*%
%ADD20R,2.175000X2.175000*%
%TD*%
%TA.AperFunction,ComponentPad*%
%ADD21C,2.175000*%
%TD*%
%TA.AperFunction,ViaPad*%
%ADD22C,0.600000*%
%TD*%
%TA.AperFunction,Conductor*%
%ADD23C,0.500000*%
%TD*%
%TA.AperFunction,Conductor*%
%ADD24C,0.200000*%
%TD*%
%TA.AperFunction,Conductor*%
%ADD25C,0.250000*%
%TD*%
%TA.AperFunction,Conductor*%
%ADD26C,1.000000*%
%TD*%
G04 APERTURE END LIST*
D10*
%TO.P,U1,TP3,USB_DP_TP3*%
%TO.N,Net-(U1-USB_DP)*%
X136700000Y-76200000D03*
%TO.P,U1,TP2,USB_DM_TP2*%
%TO.N,Net-(U1-USB_DM)*%
X134300000Y-76200000D03*
D11*
%TO.P,U1,TP1,USB_GND_TP1*%
%TO.N,GND*%
X135500000Y-79500000D03*
%TD*%
D12*
%TO.P,SW1,1,A_1*%
%TO.N,Net-(SW1-A)*%
X119645000Y-67540000D03*
%TO.P,SW1,2,B_2*%
%TO.N,GND*%
X124195000Y-67540000D03*
D13*
%TO.P,SW1,SHIELD*%
X125420000Y-65620000D03*
X118420000Y-65620000D03*
%TD*%
D12*
%TO.P,SW3,1,A_1*%
%TO.N,Net-(SW3-A)*%
X139909000Y-67540000D03*
%TO.P,SW3,2,B_2*%
%TO.N,GND*%
X144459000Y-67540000D03*
D13*
%TO.P,SW3,SHIELD*%
X145684000Y-65620000D03*
X138684000Y-65620000D03*
%TD*%
D12*
%TO.P,SW2,1,A_1*%
%TO.N,Net-(SW2-A)*%
X129749000Y-67540000D03*
%TO.P,SW2,2,B_2*%
%TO.N,GND*%
X134299000Y-67540000D03*
D13*
%TO.P,SW2,SHIELD*%
X135524000Y-65620000D03*
X128524000Y-65620000D03*
%TD*%
D14*
%TO.P,USB_C1,1,GND_1*%
%TO.N,GND*%
X157124000Y-72473000D03*
%TO.P,USB_C1,2,VBUS_2*%
%TO.N,VBUS*%
X156324000Y-72473000D03*
D15*
%TO.P,USB_C1,3,SBU2_3*%
%TO.N,unconnected-(USB_C1-SBU2-Pad3)*%
X155674000Y-72473000D03*
%TO.P,USB_C1,4,CC1_4*%
%TO.N,Net-(USB_C1-CC1)*%
X155174000Y-72473000D03*
%TO.P,USB_C1,5,DN2_5*%
%TO.N,Net-(U1-USB_DM)*%
X154674000Y-72473000D03*
%TO.P,USB_C1,6,DP1_6*%
%TO.N,Net-(U1-USB_DP)*%
X154174000Y-72473000D03*
%TO.P,USB_C1,7,DN1_7*%
%TO.N,Net-(U1-USB_DM)*%
X153674000Y-72473000D03*
%TO.P,USB_C1,8,DP2_8*%
%TO.N,Net-(U1-USB_DP)*%
X153174000Y-72473000D03*
%TO.P,USB_C1,9,SBU1_9*%
%TO.N,unconnected-(USB_C1-SBU1-Pad9)*%
X152674000Y-72473000D03*
%TO.P,USB_C1,10,CC2_10*%
%TO.N,Net-(USB_C1-CC2)*%
X152174000Y-72473000D03*
D14*
%TO.P,USB_C1,11,VBUS_11*%
%TO.N,VBUS*%
X151524000Y-72473000D03*
%TO.P,USB_C1,12,GND_12*%
%TO.N,GND*%
X150724000Y-72473000D03*
D16*
%TO.P,USB_C1,13,SHIELD_13*%
X158244000Y-71833000D03*
D17*
X158244000Y-67653000D03*
D16*
X149604000Y-71833000D03*
D17*
X149604000Y-67653000D03*
%TD*%
D18*
%TO.P,R19,1*%
%TO.N,Net-(USB_C1-CC2)*%
X152146000Y-77232000D03*
%TO.P,R19,2*%
%TO.N,GND*%
X152146000Y-79232000D03*
%TD*%
%TO.P,R20,1*%
%TO.N,Net-(USB_C1-CC1)*%
X155194000Y-77232000D03*
%TO.P,R20,2*%
%TO.N,GND*%
X155194000Y-79232000D03*
%TD*%
D19*
%TO.P,J3,1,Pin_1_1*%
%TO.N,+3V3*%
X147320000Y-130500000D03*
%TO.P,J3,2,Pin_2_2*%
%TO.N,GND*%
X149860000Y-130500000D03*
%TO.P,J3,3,Pin_3_3*%
%TO.N,/SCL*%
X152400000Y-130500000D03*
%TO.P,J3,4,Pin_4_4*%
%TO.N,/SDA*%
X154940000Y-130500000D03*
%TD*%
D20*
%TO.P,J1,1,Pin_1_1*%
%TO.N,GND*%
X142240000Y-130644000D03*
D21*
%TO.P,J1,2,Pin_2_2*%
%TO.N,+5V*%
X139700000Y-130644000D03*
%TO.P,J1,3,Pin_3_3*%
%TO.N,+3V3*%
X137160000Y-130644000D03*
%TO.P,J1,4,Pin_4_4*%
%TO.N,/LED_Data*%
X134620000Y-130644000D03*
%TO.P,J1,5,Pin_5_5*%
%TO.N,/SDA*%
X132080000Y-130644000D03*
%TO.P,J1,6,Pin_6_6*%
%TO.N,/SCL*%
X129540000Y-130644000D03*
%TD*%
D19*
%TO.P,J2,1,Pin_1_1*%
%TO.N,+3V3*%
X116840000Y-130500000D03*
%TO.P,J2,2,Pin_2_2*%
%TO.N,GND*%
X119380000Y-130500000D03*
%TO.P,J2,3,Pin_3_3*%
%TO.N,/SCL*%
X121920000Y-130500000D03*
%TO.P,J2,4,Pin_4_4*%
%TO.N,/SDA*%
X124460000Y-130500000D03*
%TD*%
D22*
%TO.N,Net-(SW1-A)*%
X119000000Y-72500000D03*
%TO.N,GND*%
X148500000Y-119500000D03*
X111000000Y-104500000D03*
X144000000Y-72000000D03*
X133500000Y-91000000D03*
X129500000Y-133000000D03*
X134500000Y-119000000D03*
X112500000Y-134000000D03*
X155000000Y-103000000D03*
X135500000Y-137000000D03*
X130000000Y-71500000D03*
X120000000Y-107000000D03*
X120500000Y-117000000D03*
X127500000Y-128500000D03*
X139500000Y-72000000D03*
X118500000Y-81500000D03*
X158000000Y-133500000D03*
%TO.N,Net-(SW3-A)*%
X140000000Y-69400000D03*
%TO.N,Net-(SW2-A)*%
X123500000Y-69500000D03*
%TO.N,VBUS*%
X156000000Y-74000000D03*
X150699684Y-74000000D03*
%TO.N,+3V3*%
X118750000Y-89250000D03*
%TO.N,/SDA*%
X147500000Y-133000000D03*
%TO.N,+5V*%
X130000000Y-81000000D03*
%TD*%
%TO.N,Net-(SW1-A)*%
D23*
X119645000Y-71855000D02*
X119645000Y-67540000D01*
X119000000Y-72500000D02*
X119645000Y-71855000D01*
%TO.N,GND*%
X149604000Y-71833000D02*
X150084000Y-71833000D01*
X149897000Y-73300000D02*
X149000000Y-73300000D01*
X150084000Y-71833000D02*
X150724000Y-72473000D01*
X150724000Y-72473000D02*
X149897000Y-73300000D01*
%TO.N,Net-(SW3-A)*%
X140000000Y-69400000D02*
X140000000Y-67631000D01*
X140000000Y-67631000D02*
X139909000Y-67540000D01*
%TO.N,Net-(SW2-A)*%
X127789000Y-69500000D02*
X129749000Y-67540000D01*
X123500000Y-69500000D02*
X127789000Y-69500000D01*
%TO.N,VBUS*%
X150699684Y-74000000D02*
X151524000Y-73175684D01*
X151524000Y-73175684D02*
X151524000Y-72473000D01*
X156000000Y-74000000D02*
X156324000Y-73676000D01*
X156324000Y-73676000D02*
X156324000Y-72473000D01*
%TO.N,Net-(USB_C1-CC1)*%
D24*
X155174000Y-72473000D02*
X155174000Y-77212000D01*
X155174000Y-77212000D02*
X155194000Y-77232000D01*
%TO.N,Net-(U1-USB_DM)*%
D25*
X154416764Y-71498000D02*
X153931236Y-71498000D01*
X154674000Y-71755236D02*
X154416764Y-71498000D01*
X153931236Y-71498000D02*
X153674000Y-71755236D01*
X153931236Y-71498000D02*
X152433236Y-70000000D01*
X153674000Y-71755236D02*
X153674000Y-72473000D01*
X154674000Y-72473000D02*
X154674000Y-71755236D01*
X134300000Y-75874694D02*
X134300000Y-76200000D01*
X140174694Y-70000000D02*
X134300000Y-75874694D01*
X152433236Y-70000000D02*
X140174694Y-70000000D01*
%TO.N,Net-(U1-USB_DP)*%
X153174000Y-72473000D02*
X153174000Y-71755236D01*
X154149000Y-73215764D02*
X153916764Y-73448000D01*
X153916764Y-73448000D02*
X153431236Y-73448000D01*
X153199000Y-73215764D02*
X153199000Y-72473000D01*
X154174000Y-72473000D02*
X154149000Y-72473000D01*
X153174000Y-71755236D02*
X151876764Y-70458000D01*
X142442000Y-70458000D02*
X136700000Y-76200000D01*
X151876764Y-70458000D02*
X142442000Y-70458000D01*
X153199000Y-72473000D02*
X153174000Y-72473000D01*
X153431236Y-73448000D02*
X153199000Y-73215764D01*
X154149000Y-72473000D02*
X154149000Y-73215764D01*
%TO.N,Net-(USB_C1-CC2)*%
D24*
X152174000Y-77204000D02*
X152146000Y-77232000D01*
X152174000Y-72473000D02*
X152174000Y-77204000D01*
%TO.N,+3V3*%
D26*
X116840000Y-130500000D02*
X120840000Y-134500000D01*
X120840000Y-134500000D02*
X133304000Y-134500000D01*
X141016000Y-134500000D02*
X143320000Y-134500000D01*
X137160000Y-130644000D02*
X141016000Y-134500000D01*
X143320000Y-134500000D02*
X147320000Y-130500000D01*
X137160000Y-130644000D02*
X133304000Y-134500000D01*
X133304000Y-134500000D02*
X143320000Y-134500000D01*
X116840000Y-91160000D02*
X118750000Y-89250000D01*
X116840000Y-91160000D02*
X116840000Y-130500000D01*
%TO.N,/SDA*%
D23*
X152440000Y-133000000D02*
X154940000Y-130500000D01*
X147500000Y-133000000D02*
X152440000Y-133000000D01*
%TO.N,+5V*%
D26*
X139700000Y-90700000D02*
X130000000Y-81000000D01*
X139700000Y-90700000D02*
X139700000Y-130644000D01*
%TD*%
%TA.AperFunction,Conductor*%
%TO.N,GND*%
G36*
X117579191Y-65289407D02*
G01*
X117615155Y-65338907D01*
X117620000Y-65369500D01*
X117620000Y-65369999D01*
X117620001Y-65370000D01*
X118321000Y-65370000D01*
X118379191Y-65388907D01*
X118415155Y-65438407D01*
X118420000Y-65469000D01*
X118420000Y-65619999D01*
X118420001Y-65620000D01*
X118571000Y-65620000D01*
X118629191Y-65638907D01*
X118665155Y-65688407D01*
X118670000Y-65719000D01*
X118670000Y-66219999D01*
X118670001Y-66220000D01*
X118768636Y-66220000D01*
X118826827Y-66238907D01*
X118861085Y-66283584D01*
X118861768Y-66285367D01*
X118909073Y-66424847D01*
X118928134Y-66458607D01*
X118930761Y-66465465D01*
X118931980Y-66489038D01*
X118936666Y-66512176D01*
X118933531Y-66519037D01*
X118933921Y-66526569D01*
X118921052Y-66546355D01*
X118911243Y-66567829D01*
X118904674Y-66571537D01*
X118900562Y-66577861D01*
X118878517Y-66586306D01*
X118857963Y-66597911D01*
X118857628Y-66597978D01*
X118841772Y-66601132D01*
X118841766Y-66601134D01*
X118775451Y-66645445D01*
X118775445Y-66645451D01*
X118731134Y-66711766D01*
X118731132Y-66711772D01*
X118719501Y-66770241D01*
X118719500Y-66770253D01*
X118719500Y-68309746D01*
X118719501Y-68309758D01*
X118730086Y-68362969D01*
X118731133Y-68368231D01*
X118775448Y-68434552D01*
X118841769Y-68478867D01*
X118886231Y-68487711D01*
X118900241Y-68490498D01*
X118900246Y-68490498D01*
X118900252Y-68490500D01*
X119095500Y-68490500D01*
X119153691Y-68509407D01*
X119189655Y-68558907D01*
X119194500Y-68589500D01*
X119194500Y-71627388D01*
X119175593Y-71685579D01*
X119165503Y-71697392D01*
X118856269Y-72006625D01*
X118811898Y-72032245D01*
X118806818Y-72033606D01*
X118806806Y-72033611D01*
X118692690Y-72099496D01*
X118599496Y-72192690D01*
X118533609Y-72306809D01*
X118518877Y-72361792D01*
X118499500Y-72434108D01*
X118499500Y-72565892D01*
X118518878Y-72638211D01*
X118533609Y-72693190D01*
X118599496Y-72807309D01*
X118599498Y-72807311D01*
X118599500Y-72807314D01*
X118692686Y-72900500D01*
X118692688Y-72900501D01*
X118692690Y-72900503D01*
X118806810Y-72966390D01*
X118806808Y-72966390D01*
X118806812Y-72966391D01*
X118806814Y-72966392D01*
X118934108Y-73000500D01*
X118934110Y-73000500D01*
X119065890Y-73000500D01*
X119065892Y-73000500D01*
X119193186Y-72966392D01*
X119193188Y-72966390D01*
X119193190Y-72966390D01*
X119307309Y-72900503D01*
X119307309Y-72900502D01*
X119307314Y-72900500D01*
X119400500Y-72807314D01*
X119466392Y-72693186D01*
X119467751Y-72688110D01*
X119493372Y-72643730D01*
X120005490Y-72131614D01*
X120064799Y-72028887D01*
X120080655Y-71969711D01*
X120095500Y-71914309D01*
X120095500Y-68589500D01*
X120114407Y-68531309D01*
X120163907Y-68495345D01*
X120194500Y-68490500D01*
X120389747Y-68490500D01*
X120389748Y-68490500D01*
X120448231Y-68478867D01*
X120514552Y-68434552D01*
X120558867Y-68368231D01*
X120570500Y-68309748D01*
X120570500Y-67790001D01*
X123270000Y-67790001D01*
X123270000Y-68309700D01*
X123281603Y-68368036D01*
X123325806Y-68434189D01*
X123325810Y-68434193D01*
X123391963Y-68478396D01*
X123450299Y-68489999D01*
X123450303Y-68490000D01*
X123944999Y-68490000D01*
X123945000Y-68489999D01*
X123945000Y-67790001D01*
X124445000Y-67790001D01*
X124445000Y-68489999D01*
X124445001Y-68490000D01*
X124939697Y-68490000D01*
X124939700Y-68489999D01*
X124998036Y-68478396D01*
X125064189Y-68434193D01*
X125064193Y-68434189D01*
X125108396Y-68368036D01*
X125119999Y-68309700D01*
X125120000Y-68309697D01*
X125120000Y-67790001D01*
X125119999Y-67790000D01*
X124445001Y-67790000D01*
X124445000Y-67790001D01*
X123945000Y-67790001D01*
X123944999Y-67790000D01*
X123270001Y-67790000D01*
X123270000Y-67790001D01*
X120570500Y-67790001D01*
X120570500Y-67019500D01*
X120589407Y-66961309D01*
X120638907Y-66925345D01*
X120669500Y-66920500D01*
X123171000Y-66920500D01*
X123229191Y-66939407D01*
X123265155Y-66988907D01*
X123270000Y-67019500D01*
X123270000Y-67289999D01*
X123270001Y-67290000D01*
X125119999Y-67290000D01*
X125120000Y-67289999D01*
X125120000Y-66770302D01*
X125119999Y-66770299D01*
X125108396Y-66711963D01*
X125064193Y-66645810D01*
X125064189Y-66645806D01*
X124998036Y-66601603D01*
X124998032Y-66601602D01*
X124982111Y-66598435D01*
X124928728Y-66568538D01*
X124903113Y-66512972D01*
X124908993Y-66465885D01*
X124911615Y-66459047D01*
X124930927Y-66424843D01*
X124978235Y-66285352D01*
X124978928Y-66283547D01*
X124997007Y-66261208D01*
X125014203Y-66238168D01*
X125016157Y-66237546D01*
X125017420Y-66235987D01*
X125040780Y-66229720D01*
X125071362Y-66220000D01*
X125169999Y-66220000D01*
X125170000Y-66219999D01*
X125170000Y-65870001D01*
X125670000Y-65870001D01*
X125670000Y-66219999D01*
X125670001Y-66220000D01*
X126039697Y-66220000D01*
X126039700Y-66219999D01*
X126098036Y-66208396D01*
X126164189Y-66164193D01*
X126164193Y-66164189D01*
X126208396Y-66098036D01*
X126219999Y-66039700D01*
X126220000Y-66039697D01*
X126220000Y-65870001D01*
X127724000Y-65870001D01*
X127724000Y-66039700D01*
X127735603Y-66098036D01*
X127779806Y-66164189D01*
X127779810Y-66164193D01*
X127845963Y-66208396D01*
X127904299Y-66219999D01*
X127904303Y-66220000D01*
X128273999Y-66220000D01*
X128274000Y-66219999D01*
X128274000Y-65870001D01*
X128273999Y-65870000D01*
X127724001Y-65870000D01*
X127724000Y-65870001D01*
X126220000Y-65870001D01*
X126219999Y-65870000D01*
X125670001Y-65870000D01*
X125670000Y-65870001D01*
X125170000Y-65870001D01*
X125170000Y-65719000D01*
X125188907Y-65660809D01*
X125238407Y-65624845D01*
X125269000Y-65620000D01*
X125419999Y-65620000D01*
X125420000Y-65619999D01*
X125420000Y-65469000D01*
X125438907Y-65410809D01*
X125488407Y-65374845D01*
X125519000Y-65370000D01*
X126219999Y-65370000D01*
X126220000Y-65369999D01*
X126220000Y-65369500D01*
X126238907Y-65311309D01*
X126288407Y-65275345D01*
X126319000Y-65270500D01*
X127625000Y-65270500D01*
X127683191Y-65289407D01*
X127719155Y-65338907D01*
X127724000Y-65369500D01*
X127724000Y-65369999D01*
X127724001Y-65370000D01*
X128425000Y-65370000D01*
X128483191Y-65388907D01*
X128519155Y-65438407D01*
X128524000Y-65469000D01*
X128524000Y-65619999D01*
X128524001Y-65620000D01*
X128675000Y-65620000D01*
X128733191Y-65638907D01*
X128769155Y-65688407D01*
X128774000Y-65719000D01*
X128774000Y-66219999D01*
X128774001Y-66220000D01*
X128872636Y-66220000D01*
X128930827Y-66238907D01*
X128965085Y-66283584D01*
X128965768Y-66285367D01*
X129013073Y-66424847D01*
X129032134Y-66458607D01*
X129034761Y-66465465D01*
X129035980Y-66489038D01*
X129040666Y-66512176D01*
X129037531Y-66519037D01*
X129037921Y-66526569D01*
X129025052Y-66546355D01*
X129015243Y-66567829D01*
X129008674Y-66571537D01*
X129004562Y-66577861D01*
X128982517Y-66586306D01*
X128961963Y-66597911D01*
X128961628Y-66597978D01*
X128945772Y-66601132D01*
X128945766Y-66601134D01*
X128879451Y-66645445D01*
X128879445Y-66645451D01*
X128835134Y-66711766D01*
X128835132Y-66711772D01*
X128823501Y-66770241D01*
X128823500Y-66770253D01*
X128823500Y-67787388D01*
X128804593Y-67845579D01*
X128794504Y-67857392D01*
X127631393Y-69020504D01*
X127576876Y-69048281D01*
X127561389Y-69049500D01*
X123747239Y-69049500D01*
X123697741Y-69036238D01*
X123693186Y-69033608D01*
X123565892Y-68999500D01*
X123434108Y-68999500D01*
X123356200Y-69020375D01*
X123306809Y-69033609D01*
X123192690Y-69099496D01*
X123099496Y-69192690D01*
X123033609Y-69306809D01*
X123026294Y-69334109D01*
X122999500Y-69434108D01*
X122999500Y-69565892D01*
X123010272Y-69606093D01*
X123033609Y-69693190D01*
X123099496Y-69807309D01*
X123099498Y-69807311D01*
X123099500Y-69807314D01*
X123192686Y-69900500D01*
X123192688Y-69900501D01*
X123192690Y-69900503D01*
X123306810Y-69966390D01*
X123306808Y-69966390D01*
X123306812Y-69966391D01*
X123306814Y-69966392D01*
X123434108Y-70000500D01*
X123434110Y-70000500D01*
X123565890Y-70000500D01*
X123565892Y-70000500D01*
X123693186Y-69966392D01*
X123697741Y-69963761D01*
X123747239Y-69950500D01*
X127848309Y-69950500D01*
X127938669Y-69926287D01*
X127938672Y-69926287D01*
X127951903Y-69922741D01*
X127962887Y-69919799D01*
X128065614Y-69860489D01*
X129406608Y-68519496D01*
X129461125Y-68491719D01*
X129476612Y-68490500D01*
X130493747Y-68490500D01*
X130493748Y-68490500D01*
X130552231Y-68478867D01*
X130618552Y-68434552D01*
X130662867Y-68368231D01*
X130674500Y-68309748D01*
X130674500Y-67790001D01*
X133374000Y-67790001D01*
X133374000Y-68309700D01*
X133385603Y-68368036D01*
X133429806Y-68434189D01*
X133429810Y-68434193D01*
X133495963Y-68478396D01*
X133554299Y-68489999D01*
X133554303Y-68490000D01*
X134048999Y-68490000D01*
X134049000Y-68489999D01*
X134049000Y-67790001D01*
X134549000Y-67790001D01*
X134549000Y-68489999D01*
X134549001Y-68490000D01*
X135043697Y-68490000D01*
X135043700Y-68489999D01*
X135102036Y-68478396D01*
X135168189Y-68434193D01*
X135168193Y-68434189D01*
X135212396Y-68368036D01*
X135223999Y-68309700D01*
X135224000Y-68309697D01*
X135224000Y-67790001D01*
X135223999Y-67790000D01*
X134549001Y-67790000D01*
X134549000Y-67790001D01*
X134049000Y-67790001D01*
X134048999Y-67790000D01*
X133374001Y-67790000D01*
X133374000Y-67790001D01*
X130674500Y-67790001D01*
X130674500Y-67019500D01*
X130693407Y-66961309D01*
X130742907Y-66925345D01*
X130773500Y-66920500D01*
X133275000Y-66920500D01*
X133333191Y-66939407D01*
X133369155Y-66988907D01*
X133374000Y-67019500D01*
X133374000Y-67289999D01*
X133374001Y-67290000D01*
X135223999Y-67290000D01*
X135224000Y-67289999D01*
X135224000Y-66770302D01*
X135223999Y-66770299D01*
X135212396Y-66711963D01*
X135168193Y-66645810D01*
X135168189Y-66645806D01*
X135102036Y-66601603D01*
X135102032Y-66601602D01*
X135086111Y-66598435D01*
X135032728Y-66568538D01*
X135007113Y-66512972D01*
X135012993Y-66465885D01*
X135015615Y-66459047D01*
X135034927Y-66424843D01*
X135082235Y-66285352D01*
X135082928Y-66283547D01*
X135101007Y-66261208D01*
X135118203Y-66238168D01*
X135120157Y-66237546D01*
X135121420Y-66235987D01*
X135144780Y-66229720D01*
X135175362Y-66220000D01*
X135273999Y-66220000D01*
X135274000Y-66219999D01*
X135274000Y-65870001D01*
X135774000Y-65870001D01*
X135774000Y-66219999D01*
X135774001Y-66220000D01*
X136143697Y-66220000D01*
X136143700Y-66219999D01*
X136202036Y-66208396D01*
X136268189Y-66164193D01*
X136268193Y-66164189D01*
X136312396Y-66098036D01*
X136323999Y-66039700D01*
X136324000Y-66039697D01*
X136324000Y-65870001D01*
X137884000Y-65870001D01*
X137884000Y-66039700D01*
X137895603Y-66098036D01*
X137939806Y-66164189D01*
X137939810Y-66164193D01*
X138005963Y-66208396D01*
X138064299Y-66219999D01*
X138064303Y-66220000D01*
X138433999Y-66220000D01*
X138434000Y-66219999D01*
X138434000Y-65870001D01*
X138433999Y-65870000D01*
X137884001Y-65870000D01*
X137884000Y-65870001D01*
X136324000Y-65870001D01*
X136323999Y-65870000D01*
X135774001Y-65870000D01*
X135774000Y-65870001D01*
X135274000Y-65870001D01*
X135274000Y-65719000D01*
X135292907Y-65660809D01*
X135342407Y-65624845D01*
X135373000Y-65620000D01*
X135523999Y-65620000D01*
X135524000Y-65619999D01*
X135524000Y-65469000D01*
X135542907Y-65410809D01*
X135592407Y-65374845D01*
X135623000Y-65370000D01*
X136323999Y-65370000D01*
X136324000Y-65369999D01*
X136324000Y-65369500D01*
X136342907Y-65311309D01*
X136392407Y-65275345D01*
X136423000Y-65270500D01*
X137785000Y-65270500D01*
X137843191Y-65289407D01*
X137879155Y-65338907D01*
X137884000Y-65369500D01*
X137884000Y-65369999D01*
X137884001Y-65370000D01*
X138585000Y-65370000D01*
X138643191Y-65388907D01*
X138679155Y-65438407D01*
X138684000Y-65469000D01*
X138684000Y-65619999D01*
X138684001Y-65620000D01*
X138835000Y-65620000D01*
X138893191Y-65638907D01*
X138929155Y-65688407D01*
X138934000Y-65719000D01*
X138934000Y-66219999D01*
X138934001Y-66220000D01*
X139032636Y-66220000D01*
X139090827Y-66238907D01*
X139125085Y-66283584D01*
X139125768Y-66285367D01*
X139173073Y-66424847D01*
X139192134Y-66458607D01*
X139194761Y-66465465D01*
X139195980Y-66489038D01*
X139200666Y-66512176D01*
X139197531Y-66519037D01*
X139197921Y-66526569D01*
X139185052Y-66546355D01*
X139175243Y-66567829D01*
X139168674Y-66571537D01*
X139164562Y-66577861D01*
X139142517Y-66586306D01*
X139121963Y-66597911D01*
X139121628Y-66597978D01*
X139105772Y-66601132D01*
X139105766Y-66601134D01*
X139039451Y-66645445D01*
X139039445Y-66645451D01*
X138995134Y-66711766D01*
X138995132Y-66711772D01*
X138983501Y-66770241D01*
X138983500Y-66770253D01*
X138983500Y-68309746D01*
X138983501Y-68309758D01*
X138994086Y-68362969D01*
X138995133Y-68368231D01*
X139039448Y-68434552D01*
X139105769Y-68478867D01*
X139150231Y-68487711D01*
X139164241Y-68490498D01*
X139164246Y-68490498D01*
X139164252Y-68490500D01*
X139450500Y-68490500D01*
X139508691Y-68509407D01*
X139544655Y-68558907D01*
X139549500Y-68589500D01*
X139549500Y-69152761D01*
X139536238Y-69202259D01*
X139533608Y-69206813D01*
X139533608Y-69206814D01*
X139499500Y-69334108D01*
X139499500Y-69465892D01*
X139526294Y-69565890D01*
X139533609Y-69593190D01*
X139599496Y-69707309D01*
X139599498Y-69707311D01*
X139599500Y-69707314D01*
X139692686Y-69800500D01*
X139692688Y-69800501D01*
X139721174Y-69816948D01*
X139762114Y-69862418D01*
X139768509Y-69923268D01*
X139741677Y-69972688D01*
X135204404Y-74509961D01*
X135149887Y-74537738D01*
X135096517Y-74531422D01*
X135071435Y-74521033D01*
X135056762Y-74514956D01*
X135056761Y-74514955D01*
X134939361Y-74499500D01*
X133660642Y-74499500D01*
X133660637Y-74499501D01*
X133543241Y-74514955D01*
X133543233Y-74514957D01*
X133397161Y-74575462D01*
X133397160Y-74575462D01*
X133271723Y-74671713D01*
X133271713Y-74671723D01*
X133175462Y-74797160D01*
X133175462Y-74797161D01*
X133114957Y-74943233D01*
X133114955Y-74943241D01*
X133099500Y-75060637D01*
X133099500Y-77339357D01*
X133099501Y-77339362D01*
X133114955Y-77456758D01*
X133114957Y-77456766D01*
X133175462Y-77602838D01*
X133175462Y-77602839D01*
X133271713Y-77728276D01*
X133271718Y-77728282D01*
X133397159Y-77824536D01*
X133543238Y-77885044D01*
X133660639Y-77900500D01*
X134939360Y-77900499D01*
X135056762Y-77885044D01*
X135202841Y-77824536D01*
X135328282Y-77728282D01*
X135421458Y-77606851D01*
X135471882Y-77572196D01*
X135533047Y-77573797D01*
X135578541Y-77606851D01*
X135671718Y-77728282D01*
X135797159Y-77824536D01*
X135943238Y-77885044D01*
X136060639Y-77900500D01*
X137339360Y-77900499D01*
X137456762Y-77885044D01*
X137602841Y-77824536D01*
X137728282Y-77728282D01*
X137824536Y-77602841D01*
X137885044Y-77456762D01*
X137900500Y-77339361D01*
X137900499Y-75500833D01*
X137919406Y-75442643D01*
X137929489Y-75430836D01*
X142547831Y-70812496D01*
X142602348Y-70784719D01*
X142617835Y-70783500D01*
X148857205Y-70783500D01*
X148915396Y-70802407D01*
X148951360Y-70851907D01*
X148951360Y-70913093D01*
X148939520Y-70937502D01*
X148895052Y-71004050D01*
X148895048Y-71004059D01*
X148834742Y-71149650D01*
X148804000Y-71304204D01*
X148804000Y-71582999D01*
X148804001Y-71583000D01*
X149204000Y-71583000D01*
X149204000Y-72083000D01*
X148804001Y-72083000D01*
X148804000Y-72083001D01*
X148804000Y-72361795D01*
X148834742Y-72516349D01*
X148895048Y-72661940D01*
X148895052Y-72661949D01*
X148982599Y-72792969D01*
X148982602Y-72792973D01*
X149094026Y-72904397D01*
X149094030Y-72904400D01*
X149225058Y-72991951D01*
X149353999Y-73045360D01*
X149354000Y-73045359D01*
X149354000Y-72598686D01*
X149358394Y-72603080D01*
X149449606Y-72655741D01*
X149551339Y-72683000D01*
X149656661Y-72683000D01*
X149758394Y-72655741D01*
X149849606Y-72603080D01*
X149854000Y-72598686D01*
X149854000Y-73045360D01*
X149982940Y-72991951D01*
X150070434Y-72933490D01*
X150129322Y-72916881D01*
X150186726Y-72938058D01*
X150220719Y-72988932D01*
X150223139Y-73002724D01*
X150223485Y-73002674D01*
X150233912Y-73074249D01*
X150285214Y-73179188D01*
X150367812Y-73261786D01*
X150472751Y-73313087D01*
X150519045Y-73319832D01*
X150573902Y-73346931D01*
X150602354Y-73401099D01*
X150593534Y-73461645D01*
X150574778Y-73487800D01*
X150555957Y-73506622D01*
X150511582Y-73532245D01*
X150506499Y-73533607D01*
X150506494Y-73533609D01*
X150392374Y-73599496D01*
X150299180Y-73692690D01*
X150233293Y-73806809D01*
X150233292Y-73806814D01*
X150199184Y-73934108D01*
X150199184Y-74065892D01*
X150225066Y-74162484D01*
X150233293Y-74193190D01*
X150299180Y-74307309D01*
X150299182Y-74307311D01*
X150299184Y-74307314D01*
X150392370Y-74400500D01*
X150392372Y-74400501D01*
X150392374Y-74400503D01*
X150506494Y-74466390D01*
X150506492Y-74466390D01*
X150506496Y-74466391D01*
X150506498Y-74466392D01*
X150633792Y-74500500D01*
X150633794Y-74500500D01*
X150765574Y-74500500D01*
X150765576Y-74500500D01*
X150892870Y-74466392D01*
X150892872Y-74466390D01*
X150892874Y-74466390D01*
X151006993Y-74400503D01*
X151006993Y-74400502D01*
X151006998Y-74400500D01*
X151100184Y-74307314D01*
X151166076Y-74193186D01*
X151167434Y-74188114D01*
X151193057Y-74143728D01*
X151704497Y-73632289D01*
X151759013Y-73604513D01*
X151819445Y-73614084D01*
X151862710Y-73657349D01*
X151873500Y-73702294D01*
X151873500Y-76332500D01*
X151854593Y-76390691D01*
X151805093Y-76426655D01*
X151774500Y-76431500D01*
X151641725Y-76431500D01*
X151611305Y-76434353D01*
X151611296Y-76434355D01*
X151483116Y-76479207D01*
X151373855Y-76559845D01*
X151373845Y-76559855D01*
X151293207Y-76669116D01*
X151248355Y-76797296D01*
X151248353Y-76797305D01*
X151245500Y-76827725D01*
X151245500Y-77636274D01*
X151248353Y-77666694D01*
X151248355Y-77666703D01*
X151293207Y-77794883D01*
X151373845Y-77904144D01*
X151373847Y-77904146D01*
X151373850Y-77904150D01*
X151373853Y-77904152D01*
X151373855Y-77904154D01*
X151483116Y-77984792D01*
X151483117Y-77984792D01*
X151483118Y-77984793D01*
X151611301Y-78029646D01*
X151641725Y-78032499D01*
X151641727Y-78032500D01*
X151641734Y-78032500D01*
X152650273Y-78032500D01*
X152650273Y-78032499D01*
X152680699Y-78029646D01*
X152808882Y-77984793D01*
X152918150Y-77904150D01*
X152998793Y-77794882D01*
X153043646Y-77666699D01*
X153046499Y-77636273D01*
X153046500Y-77636273D01*
X153046500Y-76827727D01*
X153046499Y-76827725D01*
X153043646Y-76797305D01*
X153043646Y-76797301D01*
X152998793Y-76669118D01*
X152918150Y-76559850D01*
X152918146Y-76559847D01*
X152918144Y-76559845D01*
X152808883Y-76479207D01*
X152680703Y-76434355D01*
X152680694Y-76434353D01*
X152650274Y-76431500D01*
X152650266Y-76431500D01*
X152573500Y-76431500D01*
X152515309Y-76412593D01*
X152479345Y-76363093D01*
X152474500Y-76332500D01*
X152474500Y-73422499D01*
X152493407Y-73364308D01*
X152542907Y-73328344D01*
X152573493Y-73323499D01*
X152776132Y-73323499D01*
X152804516Y-73317853D01*
X152865276Y-73325045D01*
X152909565Y-73365450D01*
X152938533Y-73415624D01*
X152938535Y-73415626D01*
X153170769Y-73647861D01*
X153170770Y-73647861D01*
X153170771Y-73647862D01*
X153170770Y-73647862D01*
X153215595Y-73692686D01*
X153231374Y-73708465D01*
X153305598Y-73751318D01*
X153388383Y-73773500D01*
X153388385Y-73773500D01*
X153959615Y-73773500D01*
X153959617Y-73773500D01*
X154042403Y-73751318D01*
X154042405Y-73751316D01*
X154042407Y-73751316D01*
X154116621Y-73708468D01*
X154116621Y-73708467D01*
X154116626Y-73708465D01*
X154409465Y-73415626D01*
X154418841Y-73399386D01*
X154438433Y-73365450D01*
X154463500Y-73342880D01*
X154483899Y-73324511D01*
X154483901Y-73324510D01*
X154483902Y-73324510D01*
X154484002Y-73324499D01*
X154543483Y-73317854D01*
X154571867Y-73323500D01*
X154774500Y-73323499D01*
X154832690Y-73342406D01*
X154868654Y-73391906D01*
X154873500Y-73422499D01*
X154873500Y-76332500D01*
X154854593Y-76390691D01*
X154805093Y-76426655D01*
X154774500Y-76431500D01*
X154689725Y-76431500D01*
X154659305Y-76434353D01*
X154659296Y-76434355D01*
X154531116Y-76479207D01*
X154421855Y-76559845D01*
X154421845Y-76559855D01*
X154341207Y-76669116D01*
X154296355Y-76797296D01*
X154296353Y-76797305D01*
X154293500Y-76827725D01*
X154293500Y-77636274D01*
X154296353Y-77666694D01*
X154296355Y-77666703D01*
X154341207Y-77794883D01*
X154421845Y-77904144D01*
X154421847Y-77904146D01*
X154421850Y-77904150D01*
X154421853Y-77904152D01*
X154421855Y-77904154D01*
X154531116Y-77984792D01*
X154531117Y-77984792D01*
X154531118Y-77984793D01*
X154659301Y-78029646D01*
X154689725Y-78032499D01*
X154689727Y-78032500D01*
X154689734Y-78032500D01*
X155698273Y-78032500D01*
X155698273Y-78032499D01*
X155728699Y-78029646D01*
X155856882Y-77984793D01*
X155966150Y-77904150D01*
X156046793Y-77794882D01*
X156091646Y-77666699D01*
X156094499Y-77636273D01*
X156094500Y-77636273D01*
X156094500Y-76827727D01*
X156094499Y-76827725D01*
X156091646Y-76797305D01*
X156091646Y-76797301D01*
X156046793Y-76669118D01*
X155966150Y-76559850D01*
X155966146Y-76559847D01*
X155966144Y-76559845D01*
X155856883Y-76479207D01*
X155728703Y-76434355D01*
X155728694Y-76434353D01*
X155698274Y-76431500D01*
X155698266Y-76431500D01*
X155573500Y-76431500D01*
X155515309Y-76412593D01*
X155479345Y-76363093D01*
X155474500Y-76332500D01*
X155474500Y-74421321D01*
X155493407Y-74363130D01*
X155542907Y-74327166D01*
X155604093Y-74327166D01*
X155643501Y-74351315D01*
X155692686Y-74400500D01*
X155692688Y-74400501D01*
X155692690Y-74400503D01*
X155806810Y-74466390D01*
X155806808Y-74466390D01*
X155806812Y-74466391D01*
X155806814Y-74466392D01*
X155934108Y-74500500D01*
X155934110Y-74500500D01*
X156065890Y-74500500D01*
X156065892Y-74500500D01*
X156193186Y-74466392D01*
X156193188Y-74466390D01*
X156193190Y-74466390D01*
X156307309Y-74400503D01*
X156307309Y-74400502D01*
X156307314Y-74400500D01*
X156400500Y-74307314D01*
X156466392Y-74193186D01*
X156467751Y-74188113D01*
X156493374Y-74143727D01*
X156684489Y-73952614D01*
X156743799Y-73849887D01*
X156755340Y-73806814D01*
X156774500Y-73735309D01*
X156774500Y-73413230D01*
X156793407Y-73355039D01*
X156842907Y-73319075D01*
X156869958Y-73316767D01*
X156874000Y-73313269D01*
X156874000Y-73312808D01*
X157375820Y-73312808D01*
X157480187Y-73261786D01*
X157562786Y-73179187D01*
X157614087Y-73074248D01*
X157624516Y-73002674D01*
X157626173Y-73002915D01*
X157646845Y-72952027D01*
X157698793Y-72919701D01*
X157759821Y-72924083D01*
X157777566Y-72933490D01*
X157865059Y-72991951D01*
X157993999Y-73045360D01*
X157994000Y-73045359D01*
X157994000Y-72598686D01*
X157998394Y-72603080D01*
X158089606Y-72655741D01*
X158191339Y-72683000D01*
X158296661Y-72683000D01*
X158398394Y-72655741D01*
X158489606Y-72603080D01*
X158494000Y-72598686D01*
X158494000Y-73045360D01*
X158622941Y-72991951D01*
X158753969Y-72904400D01*
X158753973Y-72904397D01*
X158865397Y-72792973D01*
X158865400Y-72792969D01*
X158952947Y-72661949D01*
X158952951Y-72661940D01*
X159013257Y-72516349D01*
X159043999Y-72361795D01*
X159044000Y-72361792D01*
X159044000Y-72083001D01*
X159043999Y-72083000D01*
X158644000Y-72083000D01*
X158644000Y-71583000D01*
X159043999Y-71583000D01*
X159044000Y-71582999D01*
X159044000Y-71304207D01*
X159043999Y-71304204D01*
X159013257Y-71149650D01*
X158952951Y-71004059D01*
X158952947Y-71004050D01*
X158865400Y-70873030D01*
X158865397Y-70873026D01*
X158753973Y-70761602D01*
X158753969Y-70761599D01*
X158622949Y-70674052D01*
X158622940Y-70674048D01*
X158494000Y-70620639D01*
X158494000Y-71067314D01*
X158489606Y-71062920D01*
X158398394Y-71010259D01*
X158296661Y-70983000D01*
X158191339Y-70983000D01*
X158089606Y-71010259D01*
X157998394Y-71062920D01*
X157994000Y-71067314D01*
X157994000Y-70620639D01*
X157865059Y-70674048D01*
X157865050Y-70674052D01*
X157734030Y-70761599D01*
X157734026Y-70761602D01*
X157622602Y-70873026D01*
X157622599Y-70873030D01*
X157535052Y-71004050D01*
X157535048Y-71004059D01*
X157474742Y-71149650D01*
X157444000Y-71304204D01*
X157444000Y-71528458D01*
X157443521Y-71529930D01*
X157443928Y-71532242D01*
X157375820Y-73312808D01*
X156874000Y-73312808D01*
X156874000Y-71632730D01*
X156873999Y-71632729D01*
X156872752Y-71632911D01*
X156768048Y-71684097D01*
X156707465Y-71692668D01*
X156681088Y-71684097D01*
X156575395Y-71632427D01*
X156540808Y-71627388D01*
X156507260Y-71622500D01*
X156140740Y-71622500D01*
X156114927Y-71626261D01*
X156072604Y-71632427D01*
X155993714Y-71670994D01*
X155933131Y-71679565D01*
X155895232Y-71664368D01*
X155856498Y-71638487D01*
X155856496Y-71638486D01*
X155856495Y-71638485D01*
X155776133Y-71622500D01*
X155776132Y-71622500D01*
X155571870Y-71622500D01*
X155571862Y-71622501D01*
X155491505Y-71638484D01*
X155491501Y-71638486D01*
X155478999Y-71646840D01*
X155420111Y-71663447D01*
X155369001Y-71646840D01*
X155356496Y-71638485D01*
X155356495Y-71638484D01*
X155276134Y-71622500D01*
X155071870Y-71622500D01*
X155071858Y-71622502D01*
X155052959Y-71626261D01*
X154992198Y-71619068D01*
X154947921Y-71578680D01*
X154947761Y-71578403D01*
X154947753Y-71578388D01*
X154934465Y-71555374D01*
X154873862Y-71494770D01*
X154873862Y-71494771D01*
X154873860Y-71494769D01*
X154873860Y-71494768D01*
X154616626Y-71237535D01*
X154616621Y-71237531D01*
X154542406Y-71194683D01*
X154542408Y-71194683D01*
X154510285Y-71186076D01*
X154459617Y-71172500D01*
X154459615Y-71172500D01*
X154107071Y-71172500D01*
X154048880Y-71153593D01*
X154037067Y-71143504D01*
X153348656Y-70455093D01*
X152633098Y-69739535D01*
X152633095Y-69739533D01*
X152633094Y-69739532D01*
X152633093Y-69739531D01*
X152558878Y-69696683D01*
X152558880Y-69696683D01*
X152526757Y-69688076D01*
X152476089Y-69674500D01*
X152476087Y-69674500D01*
X140573623Y-69674500D01*
X140515432Y-69655593D01*
X140479468Y-69606093D01*
X140477996Y-69549878D01*
X140500500Y-69465892D01*
X140500500Y-69334108D01*
X140466392Y-69206814D01*
X140463761Y-69202258D01*
X140450500Y-69152761D01*
X140450500Y-68589500D01*
X140469407Y-68531309D01*
X140518907Y-68495345D01*
X140549500Y-68490500D01*
X140653747Y-68490500D01*
X140653748Y-68490500D01*
X140712231Y-68478867D01*
X140778552Y-68434552D01*
X140822867Y-68368231D01*
X140834500Y-68309748D01*
X140834500Y-67790001D01*
X143534000Y-67790001D01*
X143534000Y-68309700D01*
X143545603Y-68368036D01*
X143589806Y-68434189D01*
X143589810Y-68434193D01*
X143655963Y-68478396D01*
X143714299Y-68489999D01*
X143714303Y-68490000D01*
X144208999Y-68490000D01*
X144209000Y-68489999D01*
X144209000Y-67790001D01*
X144709000Y-67790001D01*
X144709000Y-68489999D01*
X144709001Y-68490000D01*
X145203697Y-68490000D01*
X145203700Y-68489999D01*
X145262036Y-68478396D01*
X145328189Y-68434193D01*
X145328193Y-68434189D01*
X145372396Y-68368036D01*
X145383999Y-68309700D01*
X145384000Y-68309697D01*
X145384000Y-67790001D01*
X145383999Y-67790000D01*
X144709001Y-67790000D01*
X144709000Y-67790001D01*
X144209000Y-67790001D01*
X144208999Y-67790000D01*
X143534001Y-67790000D01*
X143534000Y-67790001D01*
X140834500Y-67790001D01*
X140834500Y-67374204D01*
X148804000Y-67374204D01*
X148804000Y-67402999D01*
X148804001Y-67403000D01*
X149204000Y-67403000D01*
X149204000Y-67903000D01*
X148804001Y-67903000D01*
X148804000Y-67903001D01*
X148804000Y-67931795D01*
X148834742Y-68086349D01*
X148895048Y-68231940D01*
X148895052Y-68231949D01*
X148982599Y-68362969D01*
X148982602Y-68362973D01*
X149094026Y-68474397D01*
X149094030Y-68474400D01*
X149225058Y-68561951D01*
X149353999Y-68615360D01*
X149354000Y-68615359D01*
X149354000Y-68168686D01*
X149358394Y-68173080D01*
X149449606Y-68225741D01*
X149551339Y-68253000D01*
X149656661Y-68253000D01*
X149758394Y-68225741D01*
X149849606Y-68173080D01*
X149854000Y-68168686D01*
X149854000Y-68615360D01*
X149982941Y-68561951D01*
X150113969Y-68474400D01*
X150113973Y-68474397D01*
X150225397Y-68362973D01*
X150225400Y-68362969D01*
X150312947Y-68231949D01*
X150312951Y-68231940D01*
X150373257Y-68086349D01*
X150403999Y-67931795D01*
X150404000Y-67931792D01*
X150404000Y-67903001D01*
X150403999Y-67903000D01*
X150004000Y-67903000D01*
X150004000Y-67403000D01*
X150403999Y-67403000D01*
X150404000Y-67402999D01*
X150404000Y-67374207D01*
X150403999Y-67374204D01*
X157444000Y-67374204D01*
X157444000Y-67402999D01*
X157444001Y-67403000D01*
X157844000Y-67403000D01*
X157844000Y-67903000D01*
X157444001Y-67903000D01*
X157444000Y-67903001D01*
X157444000Y-67931795D01*
X157474742Y-68086349D01*
X157535048Y-68231940D01*
X157535052Y-68231949D01*
X157622599Y-68362969D01*
X157622602Y-68362973D01*
X157734026Y-68474397D01*
X157734030Y-68474400D01*
X157865058Y-68561951D01*
X157993999Y-68615360D01*
X157994000Y-68615359D01*
X157994000Y-68168686D01*
X157998394Y-68173080D01*
X158089606Y-68225741D01*
X158191339Y-68253000D01*
X158296661Y-68253000D01*
X158398394Y-68225741D01*
X158489606Y-68173080D01*
X158494000Y-68168686D01*
X158494000Y-68615360D01*
X158622941Y-68561951D01*
X158753969Y-68474400D01*
X158753973Y-68474397D01*
X158865397Y-68362973D01*
X158865400Y-68362969D01*
X158952947Y-68231949D01*
X158952951Y-68231940D01*
X159013257Y-68086349D01*
X159043999Y-67931795D01*
X159044000Y-67931792D01*
X159044000Y-67903001D01*
X159043999Y-67903000D01*
X158644000Y-67903000D01*
X158644000Y-67403000D01*
X159043999Y-67403000D01*
X159044000Y-67402999D01*
X159044000Y-67374207D01*
X159043999Y-67374204D01*
X159013257Y-67219650D01*
X158952951Y-67074059D01*
X158952947Y-67074050D01*
X158865400Y-66943030D01*
X158865397Y-66943026D01*
X158753973Y-66831602D01*
X158753969Y-66831599D01*
X158622949Y-66744052D01*
X158622940Y-66744048D01*
X158494000Y-66690639D01*
X158494000Y-67137314D01*
X158489606Y-67132920D01*
X158398394Y-67080259D01*
X158296661Y-67053000D01*
X158191339Y-67053000D01*
X158089606Y-67080259D01*
X157998394Y-67132920D01*
X157994000Y-67137314D01*
X157994000Y-66690639D01*
X157865059Y-66744048D01*
X157865050Y-66744052D01*
X157734030Y-66831599D01*
X157734026Y-66831602D01*
X157622602Y-66943026D01*
X157622599Y-66943030D01*
X157535052Y-67074050D01*
X157535048Y-67074059D01*
X157474742Y-67219650D01*
X157444000Y-67374204D01*
X150403999Y-67374204D01*
X150373257Y-67219650D01*
X150312951Y-67074059D01*
X150312947Y-67074050D01*
X150225400Y-66943030D01*
X150225397Y-66943026D01*
X150113973Y-66831602D01*
X150113969Y-66831599D01*
X149982949Y-66744052D01*
X149982940Y-66744048D01*
X149854000Y-66690639D01*
X149854000Y-67137314D01*
X149849606Y-67132920D01*
X149758394Y-67080259D01*
X149656661Y-67053000D01*
X149551339Y-67053000D01*
X149449606Y-67080259D01*
X149358394Y-67132920D01*
X149354000Y-67137314D01*
X149354000Y-66690639D01*
X149225059Y-66744048D01*
X149225050Y-66744052D01*
X149094030Y-66831599D01*
X149094026Y-66831602D01*
X148982602Y-66943026D01*
X148982599Y-66943030D01*
X148895052Y-67074050D01*
X148895048Y-67074059D01*
X148834742Y-67219650D01*
X148804000Y-67374204D01*
X140834500Y-67374204D01*
X140834500Y-67019500D01*
X140853407Y-66961309D01*
X140902907Y-66925345D01*
X140933500Y-66920500D01*
X143435000Y-66920500D01*
X143493191Y-66939407D01*
X143529155Y-66988907D01*
X143534000Y-67019500D01*
X143534000Y-67289999D01*
X143534001Y-67290000D01*
X145383999Y-67290000D01*
X145384000Y-67289999D01*
X145384000Y-66770302D01*
X145383999Y-66770299D01*
X145372396Y-66711963D01*
X145328193Y-66645810D01*
X145328189Y-66645806D01*
X145262036Y-66601603D01*
X145262032Y-66601602D01*
X145246111Y-66598435D01*
X145192728Y-66568538D01*
X145167113Y-66512972D01*
X145172993Y-66465885D01*
X145175615Y-66459047D01*
X145194927Y-66424843D01*
X145242235Y-66285352D01*
X145242928Y-66283547D01*
X145261007Y-66261208D01*
X145278203Y-66238168D01*
X145280157Y-66237546D01*
X145281420Y-66235987D01*
X145304780Y-66229720D01*
X145335362Y-66220000D01*
X145433999Y-66220000D01*
X145434000Y-66219999D01*
X145434000Y-65870001D01*
X145934000Y-65870001D01*
X145934000Y-66219999D01*
X145934001Y-66220000D01*
X146303697Y-66220000D01*
X146303700Y-66219999D01*
X146362036Y-66208396D01*
X146428189Y-66164193D01*
X146428193Y-66164189D01*
X146472396Y-66098036D01*
X146483999Y-66039700D01*
X146484000Y-66039697D01*
X146484000Y-65870001D01*
X146483999Y-65870000D01*
X145934001Y-65870000D01*
X145934000Y-65870001D01*
X145434000Y-65870001D01*
X145434000Y-65719000D01*
X145452907Y-65660809D01*
X145502407Y-65624845D01*
X145533000Y-65620000D01*
X145683999Y-65620000D01*
X145684000Y-65619999D01*
X145684000Y-65469000D01*
X145702907Y-65410809D01*
X145752407Y-65374845D01*
X145783000Y-65370000D01*
X146483999Y-65370000D01*
X146484000Y-65369999D01*
X146484000Y-65369500D01*
X146502907Y-65311309D01*
X146552407Y-65275345D01*
X146583000Y-65270500D01*
X160900500Y-65270500D01*
X160958691Y-65289407D01*
X160994655Y-65338907D01*
X160999500Y-65369500D01*
X160999500Y-138900500D01*
X160980593Y-138958691D01*
X160931093Y-138994655D01*
X160900500Y-138999500D01*
X108599500Y-138999500D01*
X108541309Y-138980593D01*
X108505345Y-138931093D01*
X108500500Y-138900500D01*
X108500500Y-130409253D01*
X115687000Y-130409253D01*
X115687000Y-130590746D01*
X115715389Y-130769990D01*
X115771473Y-130942598D01*
X115853732Y-131104042D01*
X115853866Y-131104304D01*
X115960541Y-131251129D01*
X116088871Y-131379459D01*
X116235696Y-131486134D01*
X116397402Y-131568527D01*
X116570005Y-131624609D01*
X116570006Y-131624609D01*
X116570009Y-131624610D01*
X116749254Y-131653000D01*
X116749257Y-131653000D01*
X116930745Y-131653000D01*
X116936469Y-131652092D01*
X116942725Y-131651102D01*
X117003157Y-131660670D01*
X117028221Y-131678878D01*
X120393457Y-135044114D01*
X120508189Y-135120775D01*
X120635671Y-135173580D01*
X120662587Y-135178933D01*
X120662590Y-135178935D01*
X120662591Y-135178934D01*
X120771007Y-135200500D01*
X120771008Y-135200500D01*
X143388993Y-135200500D01*
X143388994Y-135200500D01*
X143524328Y-135173580D01*
X143651811Y-135120775D01*
X143766543Y-135044114D01*
X145876548Y-132934108D01*
X146999500Y-132934108D01*
X146999500Y-133065892D01*
X147029579Y-133178151D01*
X147033609Y-133193190D01*
X147099496Y-133307309D01*
X147099498Y-133307311D01*
X147099500Y-133307314D01*
X147192686Y-133400500D01*
X147192688Y-133400501D01*
X147192690Y-133400503D01*
X147306810Y-133466390D01*
X147306808Y-133466390D01*
X147306812Y-133466391D01*
X147306814Y-133466392D01*
X147434108Y-133500500D01*
X147434110Y-133500500D01*
X147565890Y-133500500D01*
X147565892Y-133500500D01*
X147693186Y-133466392D01*
X147697741Y-133463761D01*
X147747239Y-133450500D01*
X152499309Y-133450500D01*
X152589669Y-133426287D01*
X152589672Y-133426287D01*
X152602903Y-133422741D01*
X152613887Y-133419799D01*
X152716614Y-133360489D01*
X154462938Y-131614163D01*
X154517453Y-131586388D01*
X154563532Y-131590013D01*
X154670005Y-131624609D01*
X154670006Y-131624609D01*
X154670009Y-131624610D01*
X154849254Y-131653000D01*
X154849257Y-131653000D01*
X155030746Y-131653000D01*
X155209990Y-131624610D01*
X155209991Y-131624609D01*
X155209995Y-131624609D01*
X155382598Y-131568527D01*
X155544304Y-131486134D01*
X155691129Y-131379459D01*
X155819459Y-131251129D01*
X155926134Y-131104304D01*
X156008527Y-130942598D01*
X156064609Y-130769995D01*
X156064610Y-130769990D01*
X156093000Y-130590746D01*
X156093000Y-130409253D01*
X156064610Y-130230009D01*
X156064609Y-130230005D01*
X156008527Y-130057402D01*
X155926134Y-129895696D01*
X155819459Y-129748871D01*
X155691129Y-129620541D01*
X155544304Y-129513866D01*
X155544303Y-129513865D01*
X155544301Y-129513864D01*
X155382598Y-129431473D01*
X155209990Y-129375389D01*
X155030746Y-129347000D01*
X155030743Y-129347000D01*
X154849257Y-129347000D01*
X154849254Y-129347000D01*
X154670009Y-129375389D01*
X154497401Y-129431473D01*
X154335698Y-129513864D01*
X154188872Y-129620540D01*
X154060540Y-129748872D01*
X153953864Y-129895698D01*
X153871473Y-130057401D01*
X153815389Y-130230009D01*
X153787000Y-130409253D01*
X153787000Y-130590746D01*
X153815390Y-130769992D01*
X153849985Y-130876466D01*
X153849984Y-130937651D01*
X153825833Y-130977062D01*
X153445451Y-131357443D01*
X153390935Y-131385220D01*
X153330503Y-131375649D01*
X153287238Y-131332384D01*
X153277667Y-131271952D01*
X153295355Y-131229249D01*
X153386134Y-131104304D01*
X153468527Y-130942598D01*
X153524609Y-130769995D01*
X153524610Y-130769990D01*
X153553000Y-130590746D01*
X153553000Y-130409253D01*
X153524610Y-130230009D01*
X153524609Y-130230005D01*
X153468527Y-130057402D01*
X153386134Y-129895696D01*
X153279459Y-129748871D01*
X153151129Y-129620541D01*
X153004304Y-129513866D01*
X153004303Y-129513865D01*
X153004301Y-129513864D01*
X152842598Y-129431473D01*
X152669990Y-129375389D01*
X152490746Y-129347000D01*
X152490743Y-129347000D01*
X152309257Y-129347000D01*
X152309254Y-129347000D01*
X152130009Y-129375389D01*
X151957401Y-129431473D01*
X151795698Y-129513864D01*
X151648872Y-129620540D01*
X151520540Y-129748872D01*
X151413864Y-129895698D01*
X151331473Y-130057401D01*
X151275389Y-130230009D01*
X151247000Y-130409253D01*
X151247000Y-130590746D01*
X151275389Y-130769990D01*
X151331473Y-130942598D01*
X151413732Y-131104042D01*
X151413866Y-131104304D01*
X151520541Y-131251129D01*
X151648871Y-131379459D01*
X151795696Y-131486134D01*
X151957402Y-131568527D01*
X152130005Y-131624609D01*
X152130006Y-131624609D01*
X152130009Y-131624610D01*
X152309254Y-131653000D01*
X152309257Y-131653000D01*
X152490746Y-131653000D01*
X152669990Y-131624610D01*
X152669991Y-131624609D01*
X152669995Y-131624609D01*
X152842598Y-131568527D01*
X153004304Y-131486134D01*
X153129251Y-131395354D01*
X153187439Y-131376447D01*
X153245630Y-131395354D01*
X153281594Y-131444853D01*
X153281595Y-131506039D01*
X153257444Y-131545450D01*
X152282393Y-132520503D01*
X152227876Y-132548281D01*
X152212389Y-132549500D01*
X147747239Y-132549500D01*
X147697741Y-132536238D01*
X147693186Y-132533608D01*
X147565892Y-132499500D01*
X147434108Y-132499500D01*
X147356200Y-132520375D01*
X147306809Y-132533609D01*
X147192690Y-132599496D01*
X147099496Y-132692690D01*
X147033609Y-132806809D01*
X147033608Y-132806814D01*
X146999500Y-132934108D01*
X145876548Y-132934108D01*
X147131779Y-131678876D01*
X147186294Y-131651101D01*
X147217267Y-131651101D01*
X147229257Y-131653000D01*
X147229259Y-131653000D01*
X147410746Y-131653000D01*
X147589990Y-131624610D01*
X147589991Y-131624609D01*
X147589995Y-131624609D01*
X147762598Y-131568527D01*
X147924304Y-131486134D01*
X148071129Y-131379459D01*
X148199459Y-131251129D01*
X148306134Y-131104304D01*
X148388527Y-130942598D01*
X148444609Y-130769995D01*
X148444610Y-130769990D01*
X148473000Y-130590746D01*
X148473000Y-130409292D01*
X148707500Y-130409292D01*
X148707500Y-130590707D01*
X148735876Y-130769873D01*
X148791936Y-130942407D01*
X148874293Y-131104042D01*
X148886121Y-131120323D01*
X149270438Y-130736005D01*
X149297271Y-130800785D01*
X149366764Y-130904789D01*
X149455211Y-130993236D01*
X149559215Y-131062729D01*
X149623991Y-131089560D01*
X149239675Y-131473877D01*
X149255960Y-131485708D01*
X149417592Y-131568063D01*
X149590126Y-131624123D01*
X149769293Y-131652500D01*
X149950707Y-131652500D01*
X150129873Y-131624123D01*
X150302407Y-131568063D01*
X150464035Y-131485710D01*
X150464043Y-131485705D01*
X150480323Y-131473877D01*
X150096007Y-131089561D01*
X150160785Y-131062729D01*
X150264789Y-130993236D01*
X150353236Y-130904789D01*
X150422729Y-130800785D01*
X150449561Y-130736007D01*
X150833877Y-131120323D01*
X150845705Y-131104043D01*
X150845710Y-131104035D01*
X150928063Y-130942407D01*
X150984123Y-130769873D01*
X151012500Y-130590707D01*
X151012500Y-130409292D01*
X150984123Y-130230126D01*
X150928063Y-130057592D01*
X150845708Y-129895960D01*
X150833877Y-129879675D01*
X150449560Y-130263991D01*
X150422729Y-130199215D01*
X150353236Y-130095211D01*
X150264789Y-130006764D01*
X150160785Y-129937271D01*
X150096005Y-129910438D01*
X150480323Y-129526121D01*
X150464042Y-129514293D01*
X150302407Y-129431936D01*
X150129873Y-129375876D01*
X149950707Y-129347500D01*
X149769293Y-129347500D01*
X149590126Y-129375876D01*
X149417592Y-129431936D01*
X149255953Y-129514295D01*
X149239675Y-129526121D01*
X149623992Y-129910438D01*
X149559215Y-129937271D01*
X149455211Y-130006764D01*
X149366764Y-130095211D01*
X149297271Y-130199215D01*
X149270438Y-130263992D01*
X148886121Y-129879675D01*
X148874295Y-129895953D01*
X148791936Y-130057592D01*
X148735876Y-130230126D01*
X148707500Y-130409292D01*
X148473000Y-130409292D01*
X148473000Y-130409253D01*
X148444610Y-130230009D01*
X148444609Y-130230005D01*
X148388527Y-130057402D01*
X148306134Y-129895696D01*
X148199459Y-129748871D01*
X148071129Y-129620541D01*
X147924304Y-129513866D01*
X147924303Y-129513865D01*
X147924301Y-129513864D01*
X147762598Y-129431473D01*
X147589990Y-129375389D01*
X147410746Y-129347000D01*
X147410743Y-129347000D01*
X147229257Y-129347000D01*
X147229254Y-129347000D01*
X147050009Y-129375389D01*
X146877401Y-129431473D01*
X146715698Y-129513864D01*
X146568872Y-129620540D01*
X146440540Y-129748872D01*
X146333864Y-129895698D01*
X146251473Y-130057401D01*
X146195389Y-130230009D01*
X146167000Y-130409253D01*
X146167000Y-130590745D01*
X146168898Y-130602729D01*
X146159326Y-130663161D01*
X146141121Y-130688220D01*
X143058839Y-133770504D01*
X143004322Y-133798281D01*
X142988835Y-133799500D01*
X141347164Y-133799500D01*
X141288973Y-133780593D01*
X141277160Y-133770504D01*
X139607661Y-132101004D01*
X139579884Y-132046487D01*
X139589455Y-131986055D01*
X139632720Y-131942790D01*
X139677665Y-131932000D01*
X139801371Y-131932000D01*
X139901487Y-131916142D01*
X140001607Y-131900285D01*
X140194420Y-131837637D01*
X140375059Y-131745597D01*
X140539076Y-131626432D01*
X140682432Y-131483076D01*
X140773407Y-131357858D01*
X140822907Y-131321895D01*
X140884092Y-131321894D01*
X140933592Y-131357858D01*
X140952500Y-131416049D01*
X140952500Y-131751200D01*
X140964103Y-131809536D01*
X141008306Y-131875689D01*
X141008310Y-131875693D01*
X141074463Y-131919896D01*
X141132799Y-131931499D01*
X141132803Y-131931500D01*
X141989999Y-131931500D01*
X141990000Y-131931499D01*
X141990000Y-131325181D01*
X142028525Y-131341139D01*
X142168594Y-131369000D01*
X142311406Y-131369000D01*
X142451475Y-131341139D01*
X142490000Y-131325181D01*
X142490000Y-131931499D01*
X142490001Y-131931500D01*
X143347197Y-131931500D01*
X143347200Y-131931499D01*
X143405536Y-131919896D01*
X143471689Y-131875693D01*
X143471693Y-131875689D01*
X143515896Y-131809536D01*
X143527499Y-131751200D01*
X143527500Y-131751197D01*
X143527500Y-130894001D01*
X143527499Y-130894000D01*
X142921181Y-130894000D01*
X142937139Y-130855475D01*
X142965000Y-130715406D01*
X142965000Y-130572594D01*
X142937139Y-130432525D01*
X142921181Y-130394000D01*
X143527499Y-130394000D01*
X143527500Y-130393999D01*
X143527500Y-129536802D01*
X143527499Y-129536799D01*
X143515896Y-129478463D01*
X143471693Y-129412310D01*
X143471689Y-129412306D01*
X143405536Y-129368103D01*
X143347200Y-129356500D01*
X142490001Y-129356500D01*
X142490000Y-129356501D01*
X142490000Y-129962818D01*
X142451475Y-129946861D01*
X142311406Y-129919000D01*
X142168594Y-129919000D01*
X142028525Y-129946861D01*
X141990000Y-129962818D01*
X141990000Y-129356501D01*
X141989999Y-129356500D01*
X141132799Y-129356500D01*
X141074463Y-129368103D01*
X141008310Y-129412306D01*
X141008306Y-129412310D01*
X140964103Y-129478463D01*
X140952500Y-129536799D01*
X140952500Y-129871950D01*
X140933593Y-129930141D01*
X140884093Y-129966105D01*
X140822907Y-129966105D01*
X140773407Y-129930141D01*
X140748383Y-129895698D01*
X140682432Y-129804924D01*
X140539076Y-129661568D01*
X140482608Y-129620541D01*
X140441308Y-129590534D01*
X140405345Y-129541034D01*
X140400500Y-129510442D01*
X140400500Y-124878710D01*
X152649500Y-124878710D01*
X152649500Y-125121289D01*
X152681161Y-125361781D01*
X152681161Y-125361786D01*
X152743944Y-125596092D01*
X152743948Y-125596105D01*
X152836772Y-125820204D01*
X152836774Y-125820208D01*
X152836776Y-125820212D01*
X152958064Y-126030289D01*
X152958066Y-126030292D01*
X153105729Y-126222731D01*
X153105731Y-126222733D01*
X153105735Y-126222738D01*
X153277262Y-126394265D01*
X153277266Y-126394268D01*
X153277268Y-126394270D01*
X153469707Y-126541933D01*
X153469711Y-126541936D01*
X153679788Y-126663224D01*
X153903900Y-126756054D01*
X154138211Y-126818838D01*
X154378712Y-126850500D01*
X154378713Y-126850500D01*
X154621287Y-126850500D01*
X154621288Y-126850500D01*
X154861789Y-126818838D01*
X155096100Y-126756054D01*
X155320212Y-126663224D01*
X155530289Y-126541936D01*
X155722738Y-126394265D01*
X155894265Y-126222738D01*
X156041936Y-126030289D01*
X156163224Y-125820212D01*
X156256054Y-125596100D01*
X156318838Y-125361789D01*
X156350500Y-125121288D01*
X156350500Y-124878712D01*
X156318838Y-124638211D01*
X156256054Y-124403900D01*
X156163224Y-124179788D01*
X156041936Y-123969711D01*
X155894265Y-123777262D01*
X155722738Y-123605735D01*
X155722733Y-123605731D01*
X155722731Y-123605729D01*
X155530292Y-123458066D01*
X155530289Y-123458064D01*
X155320212Y-123336776D01*
X155320208Y-123336774D01*
X155320204Y-123336772D01*
X155096105Y-123243948D01*
X155096104Y-123243947D01*
X155096100Y-123243946D01*
X154861789Y-123181162D01*
X154861786Y-123181161D01*
X154861784Y-123181161D01*
X154621289Y-123149500D01*
X154621288Y-123149500D01*
X154378712Y-123149500D01*
X154378710Y-123149500D01*
X154138218Y-123181161D01*
X154138213Y-123181161D01*
X153903907Y-123243944D01*
X153903894Y-123243948D01*
X153679795Y-123336772D01*
X153469707Y-123458066D01*
X153277268Y-123605729D01*
X153105729Y-123777268D01*
X152958066Y-123969707D01*
X152836772Y-124179795D01*
X152743948Y-124403894D01*
X152743944Y-124403907D01*
X152681161Y-124638213D01*
X152681161Y-124638218D01*
X152649500Y-124878710D01*
X140400500Y-124878710D01*
X140400500Y-90631008D01*
X140400499Y-90631004D01*
X140373580Y-90495672D01*
X140320775Y-90368189D01*
X140244114Y-90253457D01*
X134369367Y-84378710D01*
X152649500Y-84378710D01*
X152649500Y-84621289D01*
X152681161Y-84861781D01*
X152681161Y-84861786D01*
X152743944Y-85096092D01*
X152743948Y-85096105D01*
X152836772Y-85320204D01*
X152836774Y-85320208D01*
X152836776Y-85320212D01*
X152958064Y-85530289D01*
X152958066Y-85530292D01*
X153105729Y-85722731D01*
X153105731Y-85722733D01*
X153105735Y-85722738D01*
X153277262Y-85894265D01*
X153277266Y-85894268D01*
X153277268Y-85894270D01*
X153469707Y-86041933D01*
X153469711Y-86041936D01*
X153679788Y-86163224D01*
X153903900Y-86256054D01*
X154138211Y-86318838D01*
X154378712Y-86350500D01*
X154378713Y-86350500D01*
X154621287Y-86350500D01*
X154621288Y-86350500D01*
X154861789Y-86318838D01*
X155096100Y-86256054D01*
X155320212Y-86163224D01*
X155530289Y-86041936D01*
X155722738Y-85894265D01*
X155894265Y-85722738D01*
X156041936Y-85530289D01*
X156163224Y-85320212D01*
X156256054Y-85096100D01*
X156318838Y-84861789D01*
X156350500Y-84621288D01*
X156350500Y-84378712D01*
X156318838Y-84138211D01*
X156256054Y-83903900D01*
X156163224Y-83679788D01*
X156041936Y-83469711D01*
X155894265Y-83277262D01*
X155722738Y-83105735D01*
X155722733Y-83105731D01*
X155722731Y-83105729D01*
X155530292Y-82958066D01*
X155530289Y-82958064D01*
X155320212Y-82836776D01*
X155320208Y-82836774D01*
X155320204Y-82836772D01*
X155096105Y-82743948D01*
X155096104Y-82743947D01*
X155096100Y-82743946D01*
X154861789Y-82681162D01*
X154861786Y-82681161D01*
X154861784Y-82681161D01*
X154621289Y-82649500D01*
X154621288Y-82649500D01*
X154378712Y-82649500D01*
X154378710Y-82649500D01*
X154138218Y-82681161D01*
X154138213Y-82681161D01*
X153903907Y-82743944D01*
X153903894Y-82743948D01*
X153679795Y-82836772D01*
X153469707Y-82958066D01*
X153277268Y-83105729D01*
X153105729Y-83277268D01*
X152958066Y-83469707D01*
X152836772Y-83679795D01*
X152743948Y-83903894D01*
X152743944Y-83903907D01*
X152681161Y-84138213D01*
X152681161Y-84138218D01*
X152649500Y-84378710D01*
X134369367Y-84378710D01*
X130446543Y-80455886D01*
X130331811Y-80379225D01*
X130331810Y-80379224D01*
X130331808Y-80379223D01*
X130204328Y-80326420D01*
X130068996Y-80299500D01*
X130068994Y-80299500D01*
X129931006Y-80299500D01*
X129931003Y-80299500D01*
X129795672Y-80326420D01*
X129795670Y-80326420D01*
X129668191Y-80379223D01*
X129553460Y-80455883D01*
X129455883Y-80553460D01*
X129379223Y-80668191D01*
X129326420Y-80795670D01*
X129326420Y-80795672D01*
X129299500Y-80931003D01*
X129299500Y-81068996D01*
X129326420Y-81204327D01*
X129326420Y-81204329D01*
X129379223Y-81331808D01*
X129379224Y-81331810D01*
X129379225Y-81331811D01*
X129455886Y-81446543D01*
X138970505Y-90961162D01*
X138998281Y-91015677D01*
X138999500Y-91031164D01*
X138999500Y-129510442D01*
X138980593Y-129568633D01*
X138958692Y-129590534D01*
X138860926Y-129661566D01*
X138717567Y-129804925D01*
X138598401Y-129968943D01*
X138518210Y-130126328D01*
X138474945Y-130169593D01*
X138414513Y-130179164D01*
X138359996Y-130151386D01*
X138341790Y-130126328D01*
X138261598Y-129968943D01*
X138261597Y-129968941D01*
X138142432Y-129804924D01*
X137999076Y-129661568D01*
X137835059Y-129542403D01*
X137835058Y-129542402D01*
X137835056Y-129542401D01*
X137654418Y-129450362D01*
X137461604Y-129387714D01*
X137261371Y-129356000D01*
X137261368Y-129356000D01*
X137058632Y-129356000D01*
X137058629Y-129356000D01*
X136858395Y-129387714D01*
X136665581Y-129450362D01*
X136484943Y-129542401D01*
X136320925Y-129661567D01*
X136177567Y-129804925D01*
X136058401Y-129968943D01*
X135978210Y-130126328D01*
X135934945Y-130169593D01*
X135874513Y-130179164D01*
X135819996Y-130151386D01*
X135801790Y-130126328D01*
X135721598Y-129968943D01*
X135721597Y-129968941D01*
X135602432Y-129804924D01*
X135459076Y-129661568D01*
X135295059Y-129542403D01*
X135295058Y-129542402D01*
X135295056Y-129542401D01*
X135114418Y-129450362D01*
X134921604Y-129387714D01*
X134721371Y-129356000D01*
X134721368Y-129356000D01*
X134518632Y-129356000D01*
X134518629Y-129356000D01*
X134318395Y-129387714D01*
X134125581Y-129450362D01*
X133944943Y-129542401D01*
X133780925Y-129661567D01*
X133637567Y-129804925D01*
X133518401Y-129968943D01*
X133438210Y-130126328D01*
X133394945Y-130169593D01*
X133334513Y-130179164D01*
X133279996Y-130151386D01*
X133261790Y-130126328D01*
X133181598Y-129968943D01*
X133181597Y-129968941D01*
X133062432Y-129804924D01*
X132919076Y-129661568D01*
X132755059Y-129542403D01*
X132755058Y-129542402D01*
X132755056Y-129542401D01*
X132574418Y-129450362D01*
X132381604Y-129387714D01*
X132181371Y-129356000D01*
X132181368Y-129356000D01*
X131978632Y-129356000D01*
X131978629Y-129356000D01*
X131778395Y-129387714D01*
X131585581Y-129450362D01*
X131404943Y-129542401D01*
X131240925Y-129661567D01*
X131097567Y-129804925D01*
X130978401Y-129968943D01*
X130898210Y-130126328D01*
X130854945Y-130169593D01*
X130794513Y-130179164D01*
X130739996Y-130151386D01*
X130721790Y-130126328D01*
X130641598Y-129968943D01*
X130641597Y-129968941D01*
X130522432Y-129804924D01*
X130379076Y-129661568D01*
X130215059Y-129542403D01*
X130215058Y-129542402D01*
X130215056Y-129542401D01*
X130034418Y-129450362D01*
X129841604Y-129387714D01*
X129641371Y-129356000D01*
X129641368Y-129356000D01*
X129438632Y-129356000D01*
X129438629Y-129356000D01*
X129238395Y-129387714D01*
X129045581Y-129450362D01*
X128864943Y-129542401D01*
X128700925Y-129661567D01*
X128557567Y-129804925D01*
X128438401Y-129968943D01*
X128346362Y-130149581D01*
X128283714Y-130342395D01*
X128252000Y-130542628D01*
X128252000Y-130745371D01*
X128283714Y-130945604D01*
X128346362Y-131138418D01*
X128421806Y-131286487D01*
X128438403Y-131319059D01*
X128557568Y-131483076D01*
X128700924Y-131626432D01*
X128864941Y-131745597D01*
X129045580Y-131837637D01*
X129238393Y-131900285D01*
X129318488Y-131912971D01*
X129438629Y-131932000D01*
X129438632Y-131932000D01*
X129641371Y-131932000D01*
X129741487Y-131916142D01*
X129841607Y-131900285D01*
X130034420Y-131837637D01*
X130215059Y-131745597D01*
X130379076Y-131626432D01*
X130522432Y-131483076D01*
X130641597Y-131319059D01*
X130721790Y-131161670D01*
X130765055Y-131118406D01*
X130825487Y-131108835D01*
X130880003Y-131136612D01*
X130898210Y-131161671D01*
X130961806Y-131286487D01*
X130978403Y-131319059D01*
X131097568Y-131483076D01*
X131240924Y-131626432D01*
X131404941Y-131745597D01*
X131585580Y-131837637D01*
X131778393Y-131900285D01*
X131858488Y-131912971D01*
X131978629Y-131932000D01*
X131978632Y-131932000D01*
X132181371Y-131932000D01*
X132281487Y-131916142D01*
X132381607Y-131900285D01*
X132574420Y-131837637D01*
X132755059Y-131745597D01*
X132919076Y-131626432D01*
X133062432Y-131483076D01*
X133181597Y-131319059D01*
X133261790Y-131161670D01*
X133305055Y-131118406D01*
X133365487Y-131108835D01*
X133420003Y-131136612D01*
X133438210Y-131161671D01*
X133501806Y-131286487D01*
X133518403Y-131319059D01*
X133637568Y-131483076D01*
X133780924Y-131626432D01*
X133944941Y-131745597D01*
X134125580Y-131837637D01*
X134318393Y-131900285D01*
X134398488Y-131912971D01*
X134518629Y-131932000D01*
X134642334Y-131932000D01*
X134700525Y-131950907D01*
X134736489Y-132000407D01*
X134736489Y-132061593D01*
X134712338Y-132101004D01*
X133042839Y-133770504D01*
X132988322Y-133798281D01*
X132972835Y-133799500D01*
X121171165Y-133799500D01*
X121112974Y-133780593D01*
X121101161Y-133770504D01*
X119140994Y-131810337D01*
X119113217Y-131755820D01*
X119122788Y-131695388D01*
X119166053Y-131652123D01*
X119226485Y-131642552D01*
X119289293Y-131652500D01*
X119470707Y-131652500D01*
X119649873Y-131624123D01*
X119822407Y-131568063D01*
X119984035Y-131485710D01*
X119984043Y-131485705D01*
X120000323Y-131473877D01*
X119616007Y-131089561D01*
X119680785Y-131062729D01*
X119784789Y-130993236D01*
X119873236Y-130904789D01*
X119942729Y-130800785D01*
X119969561Y-130736007D01*
X120353877Y-131120323D01*
X120365705Y-131104043D01*
X120365710Y-131104035D01*
X120448063Y-130942407D01*
X120504123Y-130769873D01*
X120532500Y-130590707D01*
X120532500Y-130409292D01*
X120532494Y-130409253D01*
X120767000Y-130409253D01*
X120767000Y-130590746D01*
X120795389Y-130769990D01*
X120851473Y-130942598D01*
X120933732Y-131104042D01*
X120933866Y-131104304D01*
X121040541Y-131251129D01*
X121168871Y-131379459D01*
X121315696Y-131486134D01*
X121477402Y-131568527D01*
X121650005Y-131624609D01*
X121650006Y-131624609D01*
X121650009Y-131624610D01*
X121829254Y-131653000D01*
X121829257Y-131653000D01*
X122010746Y-131653000D01*
X122189990Y-131624610D01*
X122189991Y-131624609D01*
X122189995Y-131624609D01*
X122362598Y-131568527D01*
X122524304Y-131486134D01*
X122671129Y-131379459D01*
X122799459Y-131251129D01*
X122906134Y-131104304D01*
X122988527Y-130942598D01*
X123044609Y-130769995D01*
X123044610Y-130769990D01*
X123073000Y-130590746D01*
X123073000Y-130409253D01*
X123307000Y-130409253D01*
X123307000Y-130590746D01*
X123335389Y-130769990D01*
X123391473Y-130942598D01*
X123473732Y-131104042D01*
X123473866Y-131104304D01*
X123580541Y-131251129D01*
X123708871Y-131379459D01*
X123855696Y-131486134D01*
X124017402Y-131568527D01*
X124190005Y-131624609D01*
X124190006Y-131624609D01*
X124190009Y-131624610D01*
X124369254Y-131653000D01*
X124369257Y-131653000D01*
X124550746Y-131653000D01*
X124729990Y-131624610D01*
X124729991Y-131624609D01*
X124729995Y-131624609D01*
X124902598Y-131568527D01*
X125064304Y-131486134D01*
X125211129Y-131379459D01*
X125339459Y-131251129D01*
X125446134Y-131104304D01*
X125528527Y-130942598D01*
X125584609Y-130769995D01*
X125584610Y-130769990D01*
X125613000Y-130590746D01*
X125613000Y-130409253D01*
X125584610Y-130230009D01*
X125584609Y-130230005D01*
X125528527Y-130057402D01*
X125446134Y-129895696D01*
X125339459Y-129748871D01*
X125211129Y-129620541D01*
X125064304Y-129513866D01*
X125064303Y-129513865D01*
X125064301Y-129513864D01*
X124902598Y-129431473D01*
X124729990Y-129375389D01*
X124550746Y-129347000D01*
X124550743Y-129347000D01*
X124369257Y-129347000D01*
X124369254Y-129347000D01*
X124190009Y-129375389D01*
X124017401Y-129431473D01*
X123855698Y-129513864D01*
X123708872Y-129620540D01*
X123580540Y-129748872D01*
X123473864Y-129895698D01*
X123391473Y-130057401D01*
X123335389Y-130230009D01*
X123307000Y-130409253D01*
X123073000Y-130409253D01*
X123044610Y-130230009D01*
X123044609Y-130230005D01*
X122988527Y-130057402D01*
X122906134Y-129895696D01*
X122799459Y-129748871D01*
X122671129Y-129620541D01*
X122524304Y-129513866D01*
X122524303Y-129513865D01*
X122524301Y-129513864D01*
X122362598Y-129431473D01*
X122189990Y-129375389D01*
X122010746Y-129347000D01*
X122010743Y-129347000D01*
X121829257Y-129347000D01*
X121829254Y-129347000D01*
X121650009Y-129375389D01*
X121477401Y-129431473D01*
X121315698Y-129513864D01*
X121168872Y-129620540D01*
X121040540Y-129748872D01*
X120933864Y-129895698D01*
X120851473Y-130057401D01*
X120795389Y-130230009D01*
X120767000Y-130409253D01*
X120532494Y-130409253D01*
X120504123Y-130230126D01*
X120448063Y-130057592D01*
X120365708Y-129895960D01*
X120353877Y-129879675D01*
X119969560Y-130263991D01*
X119942729Y-130199215D01*
X119873236Y-130095211D01*
X119784789Y-130006764D01*
X119680785Y-129937271D01*
X119616005Y-129910438D01*
X120000323Y-129526121D01*
X119984042Y-129514293D01*
X119822407Y-129431936D01*
X119649873Y-129375876D01*
X119470707Y-129347500D01*
X119289293Y-129347500D01*
X119110126Y-129375876D01*
X118937592Y-129431936D01*
X118775953Y-129514295D01*
X118759675Y-129526121D01*
X119143992Y-129910438D01*
X119079215Y-129937271D01*
X118975211Y-130006764D01*
X118886764Y-130095211D01*
X118817271Y-130199215D01*
X118790438Y-130263992D01*
X118406121Y-129879675D01*
X118394295Y-129895953D01*
X118311936Y-130057592D01*
X118255876Y-130230126D01*
X118227500Y-130409292D01*
X118227500Y-130590708D01*
X118227499Y-130590708D01*
X118237447Y-130653515D01*
X118227875Y-130713947D01*
X118184610Y-130757211D01*
X118124178Y-130766782D01*
X118069662Y-130739005D01*
X118018878Y-130688221D01*
X117991101Y-130633704D01*
X117991102Y-130602724D01*
X117993000Y-130590744D01*
X117993000Y-130409253D01*
X117964610Y-130230009D01*
X117964609Y-130230005D01*
X117908527Y-130057402D01*
X117826134Y-129895696D01*
X117719459Y-129748871D01*
X117591129Y-129620541D01*
X117577712Y-129610793D01*
X117574356Y-129607860D01*
X117560837Y-129585227D01*
X117545344Y-129563901D01*
X117544350Y-129557626D01*
X117542980Y-129555332D01*
X117543345Y-129551279D01*
X117540500Y-129533313D01*
X117540500Y-91491164D01*
X117559407Y-91432973D01*
X117569490Y-91421166D01*
X119294114Y-89696543D01*
X119370775Y-89581811D01*
X119423580Y-89454328D01*
X119450500Y-89318994D01*
X119450500Y-89181006D01*
X119423580Y-89045672D01*
X119370775Y-88918189D01*
X119294114Y-88803457D01*
X119196543Y-88705886D01*
X119081811Y-88629225D01*
X119081810Y-88629224D01*
X119081808Y-88629223D01*
X118954328Y-88576420D01*
X118818996Y-88549500D01*
X118818994Y-88549500D01*
X118681006Y-88549500D01*
X118681003Y-88549500D01*
X118545672Y-88576420D01*
X118545670Y-88576420D01*
X118418191Y-88629223D01*
X118303460Y-88705883D01*
X116295881Y-90713462D01*
X116258779Y-90768992D01*
X116258778Y-90768993D01*
X116219226Y-90828185D01*
X116219223Y-90828191D01*
X116166420Y-90955670D01*
X116166420Y-90955672D01*
X116139500Y-91091004D01*
X116139500Y-129533313D01*
X116120593Y-129591504D01*
X116098694Y-129613403D01*
X116088876Y-129620536D01*
X115960540Y-129748872D01*
X115853864Y-129895698D01*
X115771473Y-130057401D01*
X115715389Y-130230009D01*
X115687000Y-130409253D01*
X108500500Y-130409253D01*
X108500500Y-124878710D01*
X110649500Y-124878710D01*
X110649500Y-125121289D01*
X110681161Y-125361781D01*
X110681161Y-125361786D01*
X110743944Y-125596092D01*
X110743948Y-125596105D01*
X110836772Y-125820204D01*
X110836774Y-125820208D01*
X110836776Y-125820212D01*
X110958064Y-126030289D01*
X110958066Y-126030292D01*
X111105729Y-126222731D01*
X111105731Y-126222733D01*
X111105735Y-126222738D01*
X111277262Y-126394265D01*
X111277266Y-126394268D01*
X111277268Y-126394270D01*
X111469707Y-126541933D01*
X111469711Y-126541936D01*
X111679788Y-126663224D01*
X111903900Y-126756054D01*
X112138211Y-126818838D01*
X112378712Y-126850500D01*
X112378713Y-126850500D01*
X112621287Y-126850500D01*
X112621288Y-126850500D01*
X112861789Y-126818838D01*
X113096100Y-126756054D01*
X113320212Y-126663224D01*
X113530289Y-126541936D01*
X113722738Y-126394265D01*
X113894265Y-126222738D01*
X114041936Y-126030289D01*
X114163224Y-125820212D01*
X114256054Y-125596100D01*
X114318838Y-125361789D01*
X114350500Y-125121288D01*
X114350500Y-124878712D01*
X114318838Y-124638211D01*
X114256054Y-124403900D01*
X114163224Y-124179788D01*
X114041936Y-123969711D01*
X113894265Y-123777262D01*
X113722738Y-123605735D01*
X113722733Y-123605731D01*
X113722731Y-123605729D01*
X113530292Y-123458066D01*
X113530289Y-123458064D01*
X113320212Y-123336776D01*
X113320208Y-123336774D01*
X113320204Y-123336772D01*
X113096105Y-123243948D01*
X113096104Y-123243947D01*
X113096100Y-123243946D01*
X112861789Y-123181162D01*
X112861786Y-123181161D01*
X112861784Y-123181161D01*
X112621289Y-123149500D01*
X112621288Y-123149500D01*
X112378712Y-123149500D01*
X112378710Y-123149500D01*
X112138218Y-123181161D01*
X112138213Y-123181161D01*
X111903907Y-123243944D01*
X111903894Y-123243948D01*
X111679795Y-123336772D01*
X111469707Y-123458066D01*
X111277268Y-123605729D01*
X111105729Y-123777268D01*
X110958066Y-123969707D01*
X110836772Y-124179795D01*
X110743948Y-124403894D01*
X110743944Y-124403907D01*
X110681161Y-124638213D01*
X110681161Y-124638218D01*
X110649500Y-124878710D01*
X108500500Y-124878710D01*
X108500500Y-78943418D01*
X133800000Y-78943418D01*
X133800000Y-79249999D01*
X133800001Y-79250000D01*
X134341759Y-79250000D01*
X134328822Y-79281233D01*
X134300000Y-79426131D01*
X134300000Y-79573869D01*
X134328822Y-79718767D01*
X134341759Y-79750000D01*
X133800002Y-79750000D01*
X133800001Y-79750001D01*
X133800001Y-80056582D01*
X133806408Y-80127103D01*
X133806410Y-80127109D01*
X133856979Y-80289392D01*
X133856982Y-80289400D01*
X133944924Y-80434872D01*
X134065127Y-80555075D01*
X134210599Y-80643017D01*
X134210607Y-80643020D01*
X134372889Y-80693589D01*
X134372895Y-80693591D01*
X134443424Y-80699999D01*
X135249998Y-80699999D01*
X135250000Y-80699998D01*
X135250000Y-80250000D01*
X135750000Y-80250000D01*
X135750000Y-80699998D01*
X135750001Y-80699999D01*
X136556566Y-80699999D01*
X136556582Y-80699998D01*
X136627103Y-80693591D01*
X136627109Y-80693589D01*
X136789392Y-80643020D01*
X136789400Y-80643017D01*
X136934872Y-80555075D01*
X137055075Y-80434872D01*
X137143017Y-80289400D01*
X137143020Y-80289392D01*
X137193589Y-80127110D01*
X137193591Y-80127104D01*
X137199999Y-80056581D01*
X137200000Y-80056568D01*
X137200000Y-79750001D01*
X137199999Y-79750000D01*
X136658241Y-79750000D01*
X136671178Y-79718767D01*
X136700000Y-79573869D01*
X136700000Y-79482001D01*
X151246001Y-79482001D01*
X151246001Y-79636203D01*
X151248850Y-79666600D01*
X151248850Y-79666602D01*
X151293654Y-79794647D01*
X151374207Y-79903790D01*
X151374209Y-79903792D01*
X151483352Y-79984345D01*
X151611398Y-80029149D01*
X151641789Y-80031999D01*
X151895998Y-80031999D01*
X151896000Y-80031998D01*
X151896000Y-79482001D01*
X152396000Y-79482001D01*
X152396000Y-80031998D01*
X152396001Y-80031999D01*
X152650203Y-80031999D01*
X152680600Y-80029149D01*
X152680602Y-80029149D01*
X152808647Y-79984345D01*
X152917790Y-79903792D01*
X152917792Y-79903790D01*
X152998345Y-79794647D01*
X153043149Y-79666601D01*
X153045999Y-79636211D01*
X153046000Y-79636210D01*
X153046000Y-79482001D01*
X154294001Y-79482001D01*
X154294001Y-79636203D01*
X154296850Y-79666600D01*
X154296850Y-79666602D01*
X154341654Y-79794647D01*
X154422207Y-79903790D01*
X154422209Y-79903792D01*
X154531352Y-79984345D01*
X154659398Y-80029149D01*
X154689789Y-80031999D01*
X154943998Y-80031999D01*
X154944000Y-80031998D01*
X154944000Y-79482001D01*
X155444000Y-79482001D01*
X155444000Y-80031998D01*
X155444001Y-80031999D01*
X155698203Y-80031999D01*
X155728600Y-80029149D01*
X155728602Y-80029149D01*
X155856647Y-79984345D01*
X155965790Y-79903792D01*
X155965792Y-79903790D01*
X156046345Y-79794647D01*
X156091149Y-79666601D01*
X156093999Y-79636211D01*
X156094000Y-79636210D01*
X156094000Y-79482001D01*
X156093999Y-79482000D01*
X155444001Y-79482000D01*
X155444000Y-79482001D01*
X154944000Y-79482001D01*
X154943999Y-79482000D01*
X154294002Y-79482000D01*
X154294001Y-79482001D01*
X153046000Y-79482001D01*
X153045999Y-79482000D01*
X152396001Y-79482000D01*
X152396000Y-79482001D01*
X151896000Y-79482001D01*
X151895999Y-79482000D01*
X151246002Y-79482000D01*
X151246001Y-79482001D01*
X136700000Y-79482001D01*
X136700000Y-79426131D01*
X136671178Y-79281233D01*
X136658241Y-79250000D01*
X137199998Y-79250000D01*
X137199999Y-79249999D01*
X137199999Y-78943433D01*
X137199998Y-78943417D01*
X137193591Y-78872896D01*
X137187994Y-78854934D01*
X137187994Y-78854931D01*
X137179536Y-78827788D01*
X151246000Y-78827788D01*
X151246000Y-78981999D01*
X151246001Y-78982000D01*
X151895999Y-78982000D01*
X151896000Y-78981999D01*
X151896000Y-78432001D01*
X152396000Y-78432001D01*
X152396000Y-78981999D01*
X152396001Y-78982000D01*
X153045998Y-78982000D01*
X153045999Y-78981999D01*
X153045999Y-78827796D01*
X153045998Y-78827788D01*
X154294000Y-78827788D01*
X154294000Y-78981999D01*
X154294001Y-78982000D01*
X154943999Y-78982000D01*
X154944000Y-78981999D01*
X154944000Y-78432001D01*
X155444000Y-78432001D01*
X155444000Y-78981999D01*
X155444001Y-78982000D01*
X156093998Y-78982000D01*
X156093999Y-78981999D01*
X156093999Y-78827796D01*
X156091149Y-78797399D01*
X156091149Y-78797397D01*
X156046345Y-78669352D01*
X155965792Y-78560209D01*
X155965790Y-78560207D01*
X155856647Y-78479654D01*
X155728601Y-78434850D01*
X155698211Y-78432000D01*
X155444001Y-78432000D01*
X155444000Y-78432001D01*
X154944000Y-78432001D01*
X154943999Y-78432000D01*
X154689796Y-78432000D01*
X154659399Y-78434850D01*
X154659397Y-78434850D01*
X154531352Y-78479654D01*
X154422209Y-78560207D01*
X154422207Y-78560209D01*
X154341654Y-78669352D01*
X154296850Y-78797398D01*
X154294000Y-78827788D01*
X153045998Y-78827788D01*
X153043149Y-78797399D01*
X153043149Y-78797397D01*
X152998345Y-78669352D01*
X152917792Y-78560209D01*
X152917790Y-78560207D01*
X152808647Y-78479654D01*
X152680601Y-78434850D01*
X152650211Y-78432000D01*
X152396001Y-78432000D01*
X152396000Y-78432001D01*
X151896000Y-78432001D01*
X151895999Y-78432000D01*
X151641796Y-78432000D01*
X151611399Y-78434850D01*
X151611397Y-78434850D01*
X151483352Y-78479654D01*
X151374209Y-78560207D01*
X151374207Y-78560209D01*
X151293654Y-78669352D01*
X151248850Y-78797398D01*
X151246000Y-78827788D01*
X137179536Y-78827788D01*
X137143020Y-78710607D01*
X137143017Y-78710599D01*
X137055075Y-78565127D01*
X136934872Y-78444924D01*
X136789400Y-78356982D01*
X136789392Y-78356979D01*
X136627110Y-78306410D01*
X136627104Y-78306408D01*
X136556581Y-78300000D01*
X135750001Y-78300000D01*
X135750000Y-78300001D01*
X135750000Y-78750000D01*
X135250000Y-78750000D01*
X135250000Y-78300001D01*
X135249999Y-78300000D01*
X134443433Y-78300000D01*
X134443417Y-78300001D01*
X134372896Y-78306408D01*
X134372890Y-78306410D01*
X134210607Y-78356979D01*
X134210599Y-78356982D01*
X134065127Y-78444924D01*
X133944924Y-78565127D01*
X133856982Y-78710599D01*
X133856979Y-78710607D01*
X133806410Y-78872889D01*
X133806408Y-78872895D01*
X133800000Y-78943418D01*
X108500500Y-78943418D01*
X108500500Y-72878710D01*
X110649500Y-72878710D01*
X110649500Y-73121289D01*
X110681161Y-73361781D01*
X110681161Y-73361786D01*
X110743944Y-73596092D01*
X110743948Y-73596105D01*
X110836772Y-73820204D01*
X110836774Y-73820208D01*
X110836776Y-73820212D01*
X110958064Y-74030289D01*
X110958066Y-74030292D01*
X111105729Y-74222731D01*
X111105731Y-74222733D01*
X111105735Y-74222738D01*
X111277262Y-74394265D01*
X111277266Y-74394268D01*
X111277268Y-74394270D01*
X111434550Y-74514956D01*
X111469711Y-74541936D01*
X111679788Y-74663224D01*
X111903900Y-74756054D01*
X112138211Y-74818838D01*
X112378712Y-74850500D01*
X112378713Y-74850500D01*
X112621287Y-74850500D01*
X112621288Y-74850500D01*
X112861789Y-74818838D01*
X113096100Y-74756054D01*
X113320212Y-74663224D01*
X113530289Y-74541936D01*
X113722738Y-74394265D01*
X113894265Y-74222738D01*
X114041936Y-74030289D01*
X114163224Y-73820212D01*
X114256054Y-73596100D01*
X114318838Y-73361789D01*
X114350500Y-73121288D01*
X114350500Y-72878712D01*
X114318838Y-72638211D01*
X114256054Y-72403900D01*
X114163224Y-72179788D01*
X114041936Y-71969711D01*
X114041933Y-71969707D01*
X113894270Y-71777268D01*
X113894268Y-71777266D01*
X113894265Y-71777262D01*
X113722738Y-71605735D01*
X113722733Y-71605731D01*
X113722731Y-71605729D01*
X113530292Y-71458066D01*
X113530289Y-71458064D01*
X113320212Y-71336776D01*
X113320208Y-71336774D01*
X113320204Y-71336772D01*
X113096105Y-71243948D01*
X113096104Y-71243947D01*
X113096100Y-71243946D01*
X112861789Y-71181162D01*
X112861786Y-71181161D01*
X112861784Y-71181161D01*
X112621289Y-71149500D01*
X112621288Y-71149500D01*
X112378712Y-71149500D01*
X112378710Y-71149500D01*
X112138218Y-71181161D01*
X112138213Y-71181161D01*
X111903907Y-71243944D01*
X111903894Y-71243948D01*
X111679795Y-71336772D01*
X111469707Y-71458066D01*
X111277268Y-71605729D01*
X111105729Y-71777268D01*
X110958066Y-71969707D01*
X110836772Y-72179795D01*
X110743948Y-72403894D01*
X110743944Y-72403907D01*
X110681161Y-72638213D01*
X110681161Y-72638218D01*
X110649500Y-72878710D01*
X108500500Y-72878710D01*
X108500500Y-65870001D01*
X117620000Y-65870001D01*
X117620000Y-66039700D01*
X117631603Y-66098036D01*
X117675806Y-66164189D01*
X117675810Y-66164193D01*
X117741963Y-66208396D01*
X117800299Y-66219999D01*
X117800303Y-66220000D01*
X118169999Y-66220000D01*
X118170000Y-66219999D01*
X118170000Y-65870001D01*
X118169999Y-65870000D01*
X117620001Y-65870000D01*
X117620000Y-65870001D01*
X108500500Y-65870001D01*
X108500500Y-65369500D01*
X108519407Y-65311309D01*
X108568907Y-65275345D01*
X108599500Y-65270500D01*
X117521000Y-65270500D01*
X117579191Y-65289407D01*
G37*
%TD.AperFunction*%
%TA.AperFunction,Conductor*%
G36*
X141933356Y-70344407D02*
G01*
X141969320Y-70393907D01*
X141969320Y-70455093D01*
X141945169Y-70494504D01*
X137812120Y-74627551D01*
X137757603Y-74655328D01*
X137697171Y-74645757D01*
X137681849Y-74636089D01*
X137602838Y-74575462D01*
X137456766Y-74514957D01*
X137456758Y-74514955D01*
X137339362Y-74499500D01*
X137339361Y-74499500D01*
X136374528Y-74499500D01*
X136316337Y-74480593D01*
X136280373Y-74431093D01*
X136280373Y-74369907D01*
X136304524Y-74330496D01*
X138230428Y-72404593D01*
X140280525Y-70354496D01*
X140335042Y-70326719D01*
X140350529Y-70325500D01*
X141875165Y-70325500D01*
X141933356Y-70344407D01*
G37*
%TD.AperFunction*%
%TA.AperFunction,Conductor*%
G36*
X151759120Y-70802407D02*
G01*
X151770933Y-70812496D01*
X152153120Y-71194683D01*
X152425849Y-71467411D01*
X152453626Y-71521928D01*
X152444055Y-71582360D01*
X152400790Y-71625625D01*
X152340358Y-71635196D01*
X152336532Y-71634513D01*
X152276135Y-71622500D01*
X152071870Y-71622500D01*
X152071862Y-71622501D01*
X151991505Y-71638484D01*
X151991504Y-71638485D01*
X151952766Y-71664369D01*
X151893878Y-71680977D01*
X151854285Y-71670994D01*
X151775395Y-71632427D01*
X151740808Y-71627388D01*
X151707260Y-71622500D01*
X151340740Y-71622500D01*
X151314927Y-71626261D01*
X151272604Y-71632427D01*
X151166911Y-71684097D01*
X151106329Y-71692668D01*
X151079951Y-71684097D01*
X150975246Y-71632911D01*
X150974000Y-71632729D01*
X150974000Y-72374000D01*
X150955093Y-72432191D01*
X150905593Y-72468155D01*
X150875000Y-72473000D01*
X150573000Y-72473000D01*
X150514809Y-72454093D01*
X150478845Y-72404593D01*
X150474000Y-72374000D01*
X150474000Y-71632730D01*
X150439760Y-71603118D01*
X150441890Y-71600654D01*
X150414227Y-71572280D01*
X150404000Y-71528458D01*
X150404000Y-71304207D01*
X150403999Y-71304204D01*
X150373257Y-71149650D01*
X150312951Y-71004059D01*
X150312947Y-71004050D01*
X150268480Y-70937502D01*
X150251871Y-70878614D01*
X150273048Y-70821210D01*
X150323922Y-70787217D01*
X150350795Y-70783500D01*
X151700929Y-70783500D01*
X151759120Y-70802407D01*
G37*
%TD.AperFunction*%
%TD*%
M02*
