%TF.GenerationSoftware,KiCad,Pcbnew,10.0.0-rc1.1-4-gef7340bffd*%
%TF.CreationDate,2026-03-04T22:26:47+01:00*%
%TF.ProjectId,chu_controller,6368755f-636f-46e7-9472-6f6c6c65722e,rev?*%
%TF.SameCoordinates,Original*%
%TF.FileFunction,Soldermask,Top*%
%TF.FilePolarity,Negative*%
%FSLAX46Y46*%
G04 Gerber Fmt 4.6, Leading zero omitted, Abs format (unit mm)*
G04 Created by KiCad (PCBNEW 10.0.0-rc1.1-4-gef7340bffd) date 2026-03-04 22:26:47*
%MOMM*%
%LPD*%
G01*
G04 APERTURE LIST*
G04 Aperture macros list*
%AMRoundRect*
0 Rectangle with rounded corners*
0 $1 Rounding radius*
0 $2 $3 $4 $5 $6 $7 $8 $9 X,Y pos of 4 corners*
0 Add a 4 corners polygon primitive as box body*
4,1,4,$2,$3,$4,$5,$6,$7,$8,$9,$2,$3,0*
0 Add four circle primitives for the rounded corners*
1,1,$1+$1,$2,$3*
1,1,$1+$1,$4,$5*
1,1,$1+$1,$6,$7*
1,1,$1+$1,$8,$9*
0 Add four rect primitives between the rounded corners*
20,1,$1+$1,$2,$3,$4,$5,0*
20,1,$1+$1,$4,$5,$6,$7,0*
20,1,$1+$1,$6,$7,$8,$9,0*
20,1,$1+$1,$8,$9,$2,$3,0*%
G04 Aperture macros list end*
%ADD10RoundRect,0.400000X0.600000X1.100000X-0.600000X1.100000X-0.600000X-1.100000X0.600000X-1.100000X0*%
%ADD11RoundRect,0.500000X1.000000X0.500000X-1.000000X0.500000X-1.000000X-0.500000X1.000000X-0.500000X0*%
%ADD12RoundRect,0.102000X0.725000X0.750000X-0.725000X0.750000X-0.725000X-0.750000X0.725000X-0.750000X0*%
%ADD13RoundRect,0.102000X0.600000X0.400000X-0.600000X0.400000X-0.600000X-0.400000X0.600000X-0.400000X0*%
%ADD14C,3.200000*%
%ADD15C,0.650000*%
%ADD16RoundRect,0.150000X0.150000X0.500000X-0.150000X0.500000X-0.150000X-0.500000X0.150000X-0.500000X0*%
%ADD17RoundRect,0.075000X0.075000X0.575000X-0.075000X0.575000X-0.075000X-0.575000X0.075000X-0.575000X0*%
%ADD18O,1.200000X2.100000*%
%ADD19O,1.200000X1.600000*%
%ADD20RoundRect,0.250000X-0.450000X0.350000X-0.450000X-0.350000X0.450000X-0.350000X0.450000X0.350000X0*%
%ADD21C,1.905000*%
%ADD22R,2.175000X2.175000*%
%ADD23C,2.175000*%
G04 APERTURE END LIST*
D10*
%TO.C,U1*%
X136700000Y-76200000D03*
X134300000Y-76200000D03*
D11*
X135500000Y-79500000D03*
%TD*%
D12*
%TO.C,SW1*%
X119645000Y-67540000D03*
X124195000Y-67540000D03*
D13*
X125420000Y-65620000D03*
X118420000Y-65620000D03*
%TD*%
D12*
%TO.C,SW3*%
X139909000Y-67540000D03*
X144459000Y-67540000D03*
D13*
X145684000Y-65620000D03*
X138684000Y-65620000D03*
%TD*%
D12*
%TO.C,SW2*%
X129749000Y-67540000D03*
X134299000Y-67540000D03*
D13*
X135524000Y-65620000D03*
X128524000Y-65620000D03*
%TD*%
D14*
%TO.C,SCR2*%
X154500000Y-125000000D03*
%TD*%
D15*
%TO.C,USB_C1*%
X156814000Y-71333000D03*
X151034000Y-71333000D03*
D16*
X157124000Y-72473000D03*
X156324000Y-72473000D03*
D17*
X155674000Y-72473000D03*
X155174000Y-72473000D03*
X154674000Y-72473000D03*
X154174000Y-72473000D03*
X153674000Y-72473000D03*
X153174000Y-72473000D03*
X152674000Y-72473000D03*
X152174000Y-72473000D03*
D16*
X151524000Y-72473000D03*
X150724000Y-72473000D03*
D18*
X158244000Y-71833000D03*
D19*
X158244000Y-67653000D03*
D18*
X149604000Y-71833000D03*
D19*
X149604000Y-67653000D03*
%TD*%
D14*
%TO.C,SCR3*%
X112500000Y-125000000D03*
%TD*%
D20*
%TO.C,R19*%
X152146000Y-77232000D03*
X152146000Y-79232000D03*
%TD*%
D14*
%TO.C,SCR1*%
X112500000Y-73000000D03*
%TD*%
%TO.C,SCR4*%
X154500000Y-84500000D03*
%TD*%
D20*
%TO.C,R20*%
X155194000Y-77232000D03*
X155194000Y-79232000D03*
%TD*%
D21*
%TO.C,J3*%
X147320000Y-130500000D03*
X149860000Y-130500000D03*
X152400000Y-130500000D03*
X154940000Y-130500000D03*
%TD*%
D22*
%TO.C,J1*%
X142240000Y-130644000D03*
D23*
X139700000Y-130644000D03*
X137160000Y-130644000D03*
X134620000Y-130644000D03*
X132080000Y-130644000D03*
X129540000Y-130644000D03*
%TD*%
D21*
%TO.C,J2*%
X116840000Y-130500000D03*
X119380000Y-130500000D03*
X121920000Y-130500000D03*
X124460000Y-130500000D03*
%TD*%
M02*
