%TF.GenerationSoftware,KiCad,Pcbnew,10.0.0-rc1.1-4-gef7340bffd*%
%TF.CreationDate,2026-02-13T00:34:44+01:00*%
%TF.ProjectId,chu_controller,6368755f-636f-46e7-9472-6f6c6c65722e,rev?*%
%TF.SameCoordinates,Original*%
%TF.FileFunction,Legend,Top*%
%TF.FilePolarity,Positive*%
%FSLAX46Y46*%
G04 Gerber Fmt 4.6, Leading zero omitted, Abs format (unit mm)*
G04 Created by KiCad (PCBNEW 10.0.0-rc1.1-4-gef7340bffd) date 2026-02-13 00:34:44*
%MOMM*%
%LPD*%
G01*
G04 APERTURE LIST*
%ADD10C,0.150000*%
%ADD11C,0.127000*%
%ADD12C,0.200000*%
%ADD13C,0.120000*%
G04 APERTURE END LIST*
D10*
X120585838Y-69747455D02*
X120728783Y-69795103D01*
X120728783Y-69795103D02*
X120967024Y-69795103D01*
X120967024Y-69795103D02*
X121062321Y-69747455D01*
X121062321Y-69747455D02*
X121109969Y-69699806D01*
X121109969Y-69699806D02*
X121157617Y-69604510D01*
X121157617Y-69604510D02*
X121157617Y-69509213D01*
X121157617Y-69509213D02*
X121109969Y-69413917D01*
X121109969Y-69413917D02*
X121062321Y-69366268D01*
X121062321Y-69366268D02*
X120967024Y-69318620D01*
X120967024Y-69318620D02*
X120776431Y-69270972D01*
X120776431Y-69270972D02*
X120681134Y-69223323D01*
X120681134Y-69223323D02*
X120633486Y-69175675D01*
X120633486Y-69175675D02*
X120585838Y-69080379D01*
X120585838Y-69080379D02*
X120585838Y-68985082D01*
X120585838Y-68985082D02*
X120633486Y-68889785D01*
X120633486Y-68889785D02*
X120681134Y-68842137D01*
X120681134Y-68842137D02*
X120776431Y-68794489D01*
X120776431Y-68794489D02*
X121014672Y-68794489D01*
X121014672Y-68794489D02*
X121157617Y-68842137D01*
X121491155Y-68794489D02*
X121729397Y-69795103D01*
X121729397Y-69795103D02*
X121919990Y-69080379D01*
X121919990Y-69080379D02*
X122110583Y-69795103D01*
X122110583Y-69795103D02*
X122348825Y-68794489D01*
X123254142Y-69795103D02*
X122682363Y-69795103D01*
X122968252Y-69795103D02*
X122968252Y-68794489D01*
X122968252Y-68794489D02*
X122872956Y-68937434D01*
X122872956Y-68937434D02*
X122777659Y-69032730D01*
X122777659Y-69032730D02*
X122682363Y-69080379D01*
X140849838Y-69747455D02*
X140992783Y-69795103D01*
X140992783Y-69795103D02*
X141231024Y-69795103D01*
X141231024Y-69795103D02*
X141326321Y-69747455D01*
X141326321Y-69747455D02*
X141373969Y-69699806D01*
X141373969Y-69699806D02*
X141421617Y-69604510D01*
X141421617Y-69604510D02*
X141421617Y-69509213D01*
X141421617Y-69509213D02*
X141373969Y-69413917D01*
X141373969Y-69413917D02*
X141326321Y-69366268D01*
X141326321Y-69366268D02*
X141231024Y-69318620D01*
X141231024Y-69318620D02*
X141040431Y-69270972D01*
X141040431Y-69270972D02*
X140945134Y-69223323D01*
X140945134Y-69223323D02*
X140897486Y-69175675D01*
X140897486Y-69175675D02*
X140849838Y-69080379D01*
X140849838Y-69080379D02*
X140849838Y-68985082D01*
X140849838Y-68985082D02*
X140897486Y-68889785D01*
X140897486Y-68889785D02*
X140945134Y-68842137D01*
X140945134Y-68842137D02*
X141040431Y-68794489D01*
X141040431Y-68794489D02*
X141278672Y-68794489D01*
X141278672Y-68794489D02*
X141421617Y-68842137D01*
X141755155Y-68794489D02*
X141993397Y-69795103D01*
X141993397Y-69795103D02*
X142183990Y-69080379D01*
X142183990Y-69080379D02*
X142374583Y-69795103D01*
X142374583Y-69795103D02*
X142612825Y-68794489D01*
X142898714Y-68794489D02*
X143518142Y-68794489D01*
X143518142Y-68794489D02*
X143184604Y-69175675D01*
X143184604Y-69175675D02*
X143327549Y-69175675D01*
X143327549Y-69175675D02*
X143422846Y-69223323D01*
X143422846Y-69223323D02*
X143470494Y-69270972D01*
X143470494Y-69270972D02*
X143518142Y-69366268D01*
X143518142Y-69366268D02*
X143518142Y-69604510D01*
X143518142Y-69604510D02*
X143470494Y-69699806D01*
X143470494Y-69699806D02*
X143422846Y-69747455D01*
X143422846Y-69747455D02*
X143327549Y-69795103D01*
X143327549Y-69795103D02*
X143041659Y-69795103D01*
X143041659Y-69795103D02*
X142946363Y-69747455D01*
X142946363Y-69747455D02*
X142898714Y-69699806D01*
X130689838Y-69747455D02*
X130832783Y-69795103D01*
X130832783Y-69795103D02*
X131071024Y-69795103D01*
X131071024Y-69795103D02*
X131166321Y-69747455D01*
X131166321Y-69747455D02*
X131213969Y-69699806D01*
X131213969Y-69699806D02*
X131261617Y-69604510D01*
X131261617Y-69604510D02*
X131261617Y-69509213D01*
X131261617Y-69509213D02*
X131213969Y-69413917D01*
X131213969Y-69413917D02*
X131166321Y-69366268D01*
X131166321Y-69366268D02*
X131071024Y-69318620D01*
X131071024Y-69318620D02*
X130880431Y-69270972D01*
X130880431Y-69270972D02*
X130785134Y-69223323D01*
X130785134Y-69223323D02*
X130737486Y-69175675D01*
X130737486Y-69175675D02*
X130689838Y-69080379D01*
X130689838Y-69080379D02*
X130689838Y-68985082D01*
X130689838Y-68985082D02*
X130737486Y-68889785D01*
X130737486Y-68889785D02*
X130785134Y-68842137D01*
X130785134Y-68842137D02*
X130880431Y-68794489D01*
X130880431Y-68794489D02*
X131118672Y-68794489D01*
X131118672Y-68794489D02*
X131261617Y-68842137D01*
X131595155Y-68794489D02*
X131833397Y-69795103D01*
X131833397Y-69795103D02*
X132023990Y-69080379D01*
X132023990Y-69080379D02*
X132214583Y-69795103D01*
X132214583Y-69795103D02*
X132452825Y-68794489D01*
X132786363Y-68889785D02*
X132834011Y-68842137D01*
X132834011Y-68842137D02*
X132929308Y-68794489D01*
X132929308Y-68794489D02*
X133167549Y-68794489D01*
X133167549Y-68794489D02*
X133262846Y-68842137D01*
X133262846Y-68842137D02*
X133310494Y-68889785D01*
X133310494Y-68889785D02*
X133358142Y-68985082D01*
X133358142Y-68985082D02*
X133358142Y-69080379D01*
X133358142Y-69080379D02*
X133310494Y-69223323D01*
X133310494Y-69223323D02*
X132738714Y-69795103D01*
X132738714Y-69795103D02*
X133358142Y-69795103D01*
X151304952Y-73827819D02*
X151304952Y-74637342D01*
X151304952Y-74637342D02*
X151352571Y-74732580D01*
X151352571Y-74732580D02*
X151400190Y-74780200D01*
X151400190Y-74780200D02*
X151495428Y-74827819D01*
X151495428Y-74827819D02*
X151685904Y-74827819D01*
X151685904Y-74827819D02*
X151781142Y-74780200D01*
X151781142Y-74780200D02*
X151828761Y-74732580D01*
X151828761Y-74732580D02*
X151876380Y-74637342D01*
X151876380Y-74637342D02*
X151876380Y-73827819D01*
X152304952Y-74780200D02*
X152447809Y-74827819D01*
X152447809Y-74827819D02*
X152685904Y-74827819D01*
X152685904Y-74827819D02*
X152781142Y-74780200D01*
X152781142Y-74780200D02*
X152828761Y-74732580D01*
X152828761Y-74732580D02*
X152876380Y-74637342D01*
X152876380Y-74637342D02*
X152876380Y-74542104D01*
X152876380Y-74542104D02*
X152828761Y-74446866D01*
X152828761Y-74446866D02*
X152781142Y-74399247D01*
X152781142Y-74399247D02*
X152685904Y-74351628D01*
X152685904Y-74351628D02*
X152495428Y-74304009D01*
X152495428Y-74304009D02*
X152400190Y-74256390D01*
X152400190Y-74256390D02*
X152352571Y-74208771D01*
X152352571Y-74208771D02*
X152304952Y-74113533D01*
X152304952Y-74113533D02*
X152304952Y-74018295D01*
X152304952Y-74018295D02*
X152352571Y-73923057D01*
X152352571Y-73923057D02*
X152400190Y-73875438D01*
X152400190Y-73875438D02*
X152495428Y-73827819D01*
X152495428Y-73827819D02*
X152733523Y-73827819D01*
X152733523Y-73827819D02*
X152876380Y-73875438D01*
X153638285Y-74304009D02*
X153781142Y-74351628D01*
X153781142Y-74351628D02*
X153828761Y-74399247D01*
X153828761Y-74399247D02*
X153876380Y-74494485D01*
X153876380Y-74494485D02*
X153876380Y-74637342D01*
X153876380Y-74637342D02*
X153828761Y-74732580D01*
X153828761Y-74732580D02*
X153781142Y-74780200D01*
X153781142Y-74780200D02*
X153685904Y-74827819D01*
X153685904Y-74827819D02*
X153304952Y-74827819D01*
X153304952Y-74827819D02*
X153304952Y-73827819D01*
X153304952Y-73827819D02*
X153638285Y-73827819D01*
X153638285Y-73827819D02*
X153733523Y-73875438D01*
X153733523Y-73875438D02*
X153781142Y-73923057D01*
X153781142Y-73923057D02*
X153828761Y-74018295D01*
X153828761Y-74018295D02*
X153828761Y-74113533D01*
X153828761Y-74113533D02*
X153781142Y-74208771D01*
X153781142Y-74208771D02*
X153733523Y-74256390D01*
X153733523Y-74256390D02*
X153638285Y-74304009D01*
X153638285Y-74304009D02*
X153304952Y-74304009D01*
X154066857Y-74923057D02*
X154828761Y-74923057D01*
X155638285Y-74732580D02*
X155590666Y-74780200D01*
X155590666Y-74780200D02*
X155447809Y-74827819D01*
X155447809Y-74827819D02*
X155352571Y-74827819D01*
X155352571Y-74827819D02*
X155209714Y-74780200D01*
X155209714Y-74780200D02*
X155114476Y-74684961D01*
X155114476Y-74684961D02*
X155066857Y-74589723D01*
X155066857Y-74589723D02*
X155019238Y-74399247D01*
X155019238Y-74399247D02*
X155019238Y-74256390D01*
X155019238Y-74256390D02*
X155066857Y-74065914D01*
X155066857Y-74065914D02*
X155114476Y-73970676D01*
X155114476Y-73970676D02*
X155209714Y-73875438D01*
X155209714Y-73875438D02*
X155352571Y-73827819D01*
X155352571Y-73827819D02*
X155447809Y-73827819D01*
X155447809Y-73827819D02*
X155590666Y-73875438D01*
X155590666Y-73875438D02*
X155638285Y-73923057D01*
X156590666Y-74827819D02*
X156019238Y-74827819D01*
X156304952Y-74827819D02*
X156304952Y-73827819D01*
X156304952Y-73827819D02*
X156209714Y-73970676D01*
X156209714Y-73970676D02*
X156114476Y-74065914D01*
X156114476Y-74065914D02*
X156019238Y-74113533D01*
X151076819Y-78874857D02*
X150600628Y-79208190D01*
X151076819Y-79446285D02*
X150076819Y-79446285D01*
X150076819Y-79446285D02*
X150076819Y-79065333D01*
X150076819Y-79065333D02*
X150124438Y-78970095D01*
X150124438Y-78970095D02*
X150172057Y-78922476D01*
X150172057Y-78922476D02*
X150267295Y-78874857D01*
X150267295Y-78874857D02*
X150410152Y-78874857D01*
X150410152Y-78874857D02*
X150505390Y-78922476D01*
X150505390Y-78922476D02*
X150553009Y-78970095D01*
X150553009Y-78970095D02*
X150600628Y-79065333D01*
X150600628Y-79065333D02*
X150600628Y-79446285D01*
X151076819Y-77922476D02*
X151076819Y-78493904D01*
X151076819Y-78208190D02*
X150076819Y-78208190D01*
X150076819Y-78208190D02*
X150219676Y-78303428D01*
X150219676Y-78303428D02*
X150314914Y-78398666D01*
X150314914Y-78398666D02*
X150362533Y-78493904D01*
X151076819Y-77446285D02*
X151076819Y-77255809D01*
X151076819Y-77255809D02*
X151029200Y-77160571D01*
X151029200Y-77160571D02*
X150981580Y-77112952D01*
X150981580Y-77112952D02*
X150838723Y-77017714D01*
X150838723Y-77017714D02*
X150648247Y-76970095D01*
X150648247Y-76970095D02*
X150267295Y-76970095D01*
X150267295Y-76970095D02*
X150172057Y-77017714D01*
X150172057Y-77017714D02*
X150124438Y-77065333D01*
X150124438Y-77065333D02*
X150076819Y-77160571D01*
X150076819Y-77160571D02*
X150076819Y-77351047D01*
X150076819Y-77351047D02*
X150124438Y-77446285D01*
X150124438Y-77446285D02*
X150172057Y-77493904D01*
X150172057Y-77493904D02*
X150267295Y-77541523D01*
X150267295Y-77541523D02*
X150505390Y-77541523D01*
X150505390Y-77541523D02*
X150600628Y-77493904D01*
X150600628Y-77493904D02*
X150648247Y-77446285D01*
X150648247Y-77446285D02*
X150695866Y-77351047D01*
X150695866Y-77351047D02*
X150695866Y-77160571D01*
X150695866Y-77160571D02*
X150648247Y-77065333D01*
X150648247Y-77065333D02*
X150600628Y-77017714D01*
X150600628Y-77017714D02*
X150505390Y-76970095D01*
X157298819Y-78874857D02*
X156822628Y-79208190D01*
X157298819Y-79446285D02*
X156298819Y-79446285D01*
X156298819Y-79446285D02*
X156298819Y-79065333D01*
X156298819Y-79065333D02*
X156346438Y-78970095D01*
X156346438Y-78970095D02*
X156394057Y-78922476D01*
X156394057Y-78922476D02*
X156489295Y-78874857D01*
X156489295Y-78874857D02*
X156632152Y-78874857D01*
X156632152Y-78874857D02*
X156727390Y-78922476D01*
X156727390Y-78922476D02*
X156775009Y-78970095D01*
X156775009Y-78970095D02*
X156822628Y-79065333D01*
X156822628Y-79065333D02*
X156822628Y-79446285D01*
X156394057Y-78493904D02*
X156346438Y-78446285D01*
X156346438Y-78446285D02*
X156298819Y-78351047D01*
X156298819Y-78351047D02*
X156298819Y-78112952D01*
X156298819Y-78112952D02*
X156346438Y-78017714D01*
X156346438Y-78017714D02*
X156394057Y-77970095D01*
X156394057Y-77970095D02*
X156489295Y-77922476D01*
X156489295Y-77922476D02*
X156584533Y-77922476D01*
X156584533Y-77922476D02*
X156727390Y-77970095D01*
X156727390Y-77970095D02*
X157298819Y-78541523D01*
X157298819Y-78541523D02*
X157298819Y-77922476D01*
X156298819Y-77303428D02*
X156298819Y-77208190D01*
X156298819Y-77208190D02*
X156346438Y-77112952D01*
X156346438Y-77112952D02*
X156394057Y-77065333D01*
X156394057Y-77065333D02*
X156489295Y-77017714D01*
X156489295Y-77017714D02*
X156679771Y-76970095D01*
X156679771Y-76970095D02*
X156917866Y-76970095D01*
X156917866Y-76970095D02*
X157108342Y-77017714D01*
X157108342Y-77017714D02*
X157203580Y-77065333D01*
X157203580Y-77065333D02*
X157251200Y-77112952D01*
X157251200Y-77112952D02*
X157298819Y-77208190D01*
X157298819Y-77208190D02*
X157298819Y-77303428D01*
X157298819Y-77303428D02*
X157251200Y-77398666D01*
X157251200Y-77398666D02*
X157203580Y-77446285D01*
X157203580Y-77446285D02*
X157108342Y-77493904D01*
X157108342Y-77493904D02*
X156917866Y-77541523D01*
X156917866Y-77541523D02*
X156679771Y-77541523D01*
X156679771Y-77541523D02*
X156489295Y-77493904D01*
X156489295Y-77493904D02*
X156394057Y-77446285D01*
X156394057Y-77446285D02*
X156346438Y-77398666D01*
X156346438Y-77398666D02*
X156298819Y-77303428D01*
%TO.C,SW1*%
D11*
X118820000Y-66245000D02*
X118820000Y-66595000D01*
X120570000Y-64320000D02*
X120570000Y-65095000D01*
X123020000Y-67695000D02*
X120820000Y-67695000D01*
X123270000Y-64320000D02*
X120570000Y-64320000D01*
X123270000Y-65095000D02*
X123270000Y-64320000D01*
X124320000Y-65145000D02*
X119520000Y-65145000D01*
X125020000Y-66245000D02*
X125020000Y-66595000D01*
D12*
X118596500Y-67345000D02*
G75*
G02*
X118396500Y-67345000I-100000J0D01*
G01*
X118396500Y-67345000D02*
G75*
G02*
X118596500Y-67345000I100000J0D01*
G01*
%TO.C,SW3*%
D11*
X139084000Y-66245000D02*
X139084000Y-66595000D01*
X140834000Y-64320000D02*
X140834000Y-65095000D01*
X143284000Y-67695000D02*
X141084000Y-67695000D01*
X143534000Y-64320000D02*
X140834000Y-64320000D01*
X143534000Y-65095000D02*
X143534000Y-64320000D01*
X144584000Y-65145000D02*
X139784000Y-65145000D01*
X145284000Y-66245000D02*
X145284000Y-66595000D01*
D12*
X138860500Y-67345000D02*
G75*
G02*
X138660500Y-67345000I-100000J0D01*
G01*
X138660500Y-67345000D02*
G75*
G02*
X138860500Y-67345000I100000J0D01*
G01*
%TO.C,SW2*%
D11*
X128924000Y-66245000D02*
X128924000Y-66595000D01*
X130674000Y-64320000D02*
X130674000Y-65095000D01*
X133124000Y-67695000D02*
X130924000Y-67695000D01*
X133374000Y-64320000D02*
X130674000Y-64320000D01*
X133374000Y-65095000D02*
X133374000Y-64320000D01*
X134424000Y-65145000D02*
X129624000Y-65145000D01*
X135124000Y-66245000D02*
X135124000Y-66595000D01*
D12*
X128700500Y-67345000D02*
G75*
G02*
X128500500Y-67345000I-100000J0D01*
G01*
X128500500Y-67345000D02*
G75*
G02*
X128700500Y-67345000I100000J0D01*
G01*
%TO.C,USB_C1*%
D13*
X149224000Y-70508000D02*
X149224000Y-68728000D01*
X156724000Y-73428000D02*
X157524000Y-73428000D01*
X158624000Y-70508000D02*
X158624000Y-68728000D01*
%TO.C,R19*%
X151411000Y-78004936D02*
X151411000Y-78459064D01*
X152881000Y-78004936D02*
X152881000Y-78459064D01*
%TO.C,R20*%
X154459000Y-78004936D02*
X154459000Y-78459064D01*
X155929000Y-78004936D02*
X155929000Y-78459064D01*
%TD*%
M02*
