%TF.GenerationSoftware,KiCad,Pcbnew,10.0.0-rc1.1-4-gef7340bffd*%
%TF.CreationDate,2026-02-13T00:34:44+01:00*%
%TF.ProjectId,chu_controller,6368755f-636f-46e7-9472-6f6c6c65722e,rev?*%
%TF.SameCoordinates,Original*%
%TF.FileFunction,Copper,L1,Top*%
%TF.FilePolarity,Positive*%
%FSLAX46Y46*%
G04 Gerber Fmt 4.6, Leading zero omitted, Abs format (unit mm)*
G04 Created by KiCad (PCBNEW 10.0.0-rc1.1-4-gef7340bffd) date 2026-02-13 00:34:44*
%MOMM*%
%LPD*%
G01*
G04 APERTURE LIST*
G04 Aperture macros list*
%AMRoundRect*
0 Rectangle with rounded corners*
0 $1 Rounding radius*
0 $2 $3 $4 $5 $6 $7 $8 $9 X,Y pos of 4 corners*
0 Add a 4 corners polygon primitive as box body*
4,1,4,$2,$3,$4,$5,$6,$7,$8,$9,$2,$3,0*
0 Add four circle primitives for the rounded corners*
1,1,$1+$1,$2,$3*
1,1,$1+$1,$4,$5*
1,1,$1+$1,$6,$7*
1,1,$1+$1,$8,$9*
0 Add four rect primitives between the rounded corners*
20,1,$1+$1,$2,$3,$4,$5,0*
20,1,$1+$1,$4,$5,$6,$7,0*
20,1,$1+$1,$6,$7,$8,$9,0*
20,1,$1+$1,$8,$9,$2,$3,0*%
G04 Aperture macros list end*
%TA.AperFunction,SMDPad,CuDef*%
%ADD10R,1.450000X1.500000*%
%TD*%
%TA.AperFunction,SMDPad,CuDef*%
%ADD11R,1.200000X0.800000*%
%TD*%
%TA.AperFunction,SMDPad,CuDef*%
%ADD12RoundRect,0.150000X0.150000X0.500000X-0.150000X0.500000X-0.150000X-0.500000X0.150000X-0.500000X0*%
%TD*%
%TA.AperFunction,SMDPad,CuDef*%
%ADD13RoundRect,0.075000X0.075000X0.575000X-0.075000X0.575000X-0.075000X-0.575000X0.075000X-0.575000X0*%
%TD*%
%TA.AperFunction,HeatsinkPad*%
%ADD14O,1.000000X2.100000*%
%TD*%
%TA.AperFunction,HeatsinkPad*%
%ADD15O,1.000000X1.600000*%
%TD*%
%TA.AperFunction,SMDPad,CuDef*%
%ADD16RoundRect,0.250000X-0.450000X0.350000X-0.450000X-0.350000X0.450000X-0.350000X0.450000X0.350000X0*%
%TD*%
%TA.AperFunction,ComponentPad*%
%ADD17C,1.905000*%
%TD*%
%TA.AperFunction,ComponentPad*%
%ADD18R,2.175000X2.175000*%
%TD*%
%TA.AperFunction,ComponentPad*%
%ADD19C,2.175000*%
%TD*%
%TA.AperFunction,ViaPad*%
%ADD20C,0.600000*%
%TD*%
%TA.AperFunction,Conductor*%
%ADD21C,0.500000*%
%TD*%
%TA.AperFunction,Conductor*%
%ADD22C,0.200000*%
%TD*%
%TA.AperFunction,Conductor*%
%ADD23C,1.000000*%
%TD*%
G04 APERTURE END LIST*
D10*
%TO.P,SW1,1,A_1*%
%TO.N,Net-(SW1-A)*%
X119645000Y-67540000D03*
%TO.P,SW1,2,B_2*%
%TO.N,GND*%
X124195000Y-67540000D03*
D11*
%TO.P,SW1,SHIELD*%
X125420000Y-65620000D03*
X118420000Y-65620000D03*
%TD*%
D10*
%TO.P,SW3,1,A_1*%
%TO.N,Net-(SW3-A)*%
X139909000Y-67540000D03*
%TO.P,SW3,2,B_2*%
%TO.N,GND*%
X144459000Y-67540000D03*
D11*
%TO.P,SW3,SHIELD*%
X145684000Y-65620000D03*
X138684000Y-65620000D03*
%TD*%
D10*
%TO.P,SW2,1,A_1*%
%TO.N,Net-(SW2-A)*%
X129749000Y-67540000D03*
%TO.P,SW2,2,B_2*%
%TO.N,GND*%
X134299000Y-67540000D03*
D11*
%TO.P,SW2,SHIELD*%
X135524000Y-65620000D03*
X128524000Y-65620000D03*
%TD*%
D12*
%TO.P,USB_C1,1,GND_1*%
%TO.N,GND*%
X157124000Y-72473000D03*
%TO.P,USB_C1,2,VBUS_2*%
%TO.N,VBUS*%
X156324000Y-72473000D03*
D13*
%TO.P,USB_C1,3,SBU2_3*%
%TO.N,unconnected-(USB_C1-SBU2-Pad3)*%
X155674000Y-72473000D03*
%TO.P,USB_C1,4,CC1_4*%
%TO.N,Net-(USB_C1-CC1)*%
X155174000Y-72473000D03*
%TO.P,USB_C1,5,DN2_5*%
%TO.N,Net-(U1-USB_DM)*%
X154674000Y-72473000D03*
%TO.P,USB_C1,6,DP1_6*%
%TO.N,Net-(U1-USB_DP)*%
X154174000Y-72473000D03*
%TO.P,USB_C1,7,DN1_7*%
%TO.N,Net-(U1-USB_DM)*%
X153674000Y-72473000D03*
%TO.P,USB_C1,8,DP2_8*%
%TO.N,Net-(U1-USB_DP)*%
X153174000Y-72473000D03*
%TO.P,USB_C1,9,SBU1_9*%
%TO.N,unconnected-(USB_C1-SBU1-Pad9)*%
X152674000Y-72473000D03*
%TO.P,USB_C1,10,CC2_10*%
%TO.N,Net-(USB_C1-CC2)*%
X152174000Y-72473000D03*
D12*
%TO.P,USB_C1,11,VBUS_11*%
%TO.N,VBUS*%
X151524000Y-72473000D03*
%TO.P,USB_C1,12,GND_12*%
%TO.N,GND*%
X150724000Y-72473000D03*
D14*
%TO.P,USB_C1,13,SHIELD_13*%
X158244000Y-71833000D03*
D15*
X158244000Y-67653000D03*
D14*
X149604000Y-71833000D03*
D15*
X149604000Y-67653000D03*
%TD*%
D16*
%TO.P,R19,1*%
%TO.N,Net-(USB_C1-CC2)*%
X152146000Y-77232000D03*
%TO.P,R19,2*%
%TO.N,GND*%
X152146000Y-79232000D03*
%TD*%
%TO.P,R20,1*%
%TO.N,Net-(USB_C1-CC1)*%
X155194000Y-77232000D03*
%TO.P,R20,2*%
%TO.N,GND*%
X155194000Y-79232000D03*
%TD*%
D17*
%TO.P,J3,1,Pin_1_1*%
%TO.N,+3V3*%
X147320000Y-130500000D03*
%TO.P,J3,2,Pin_2_2*%
%TO.N,GND*%
X149860000Y-130500000D03*
%TO.P,J3,3,Pin_3_3*%
%TO.N,/SCL*%
X152400000Y-130500000D03*
%TO.P,J3,4,Pin_4_4*%
%TO.N,/SDA*%
X154940000Y-130500000D03*
%TD*%
D18*
%TO.P,J1,1,Pin_1_1*%
%TO.N,GND*%
X142240000Y-130644000D03*
D19*
%TO.P,J1,2,Pin_2_2*%
%TO.N,+5V*%
X139700000Y-130644000D03*
%TO.P,J1,3,Pin_3_3*%
%TO.N,+3V3*%
X137160000Y-130644000D03*
%TO.P,J1,4,Pin_4_4*%
%TO.N,/LED_Data*%
X134620000Y-130644000D03*
%TO.P,J1,5,Pin_5_5*%
%TO.N,/SDA*%
X132080000Y-130644000D03*
%TO.P,J1,6,Pin_6_6*%
%TO.N,/SCL*%
X129540000Y-130644000D03*
%TD*%
D17*
%TO.P,J2,1,Pin_1_1*%
%TO.N,+3V3*%
X116840000Y-130500000D03*
%TO.P,J2,2,Pin_2_2*%
%TO.N,GND*%
X119380000Y-130500000D03*
%TO.P,J2,3,Pin_3_3*%
%TO.N,/SCL*%
X121920000Y-130500000D03*
%TO.P,J2,4,Pin_4_4*%
%TO.N,/SDA*%
X124460000Y-130500000D03*
%TD*%
D20*
%TO.N,Net-(SW1-A)*%
X119000000Y-72500000D03*
%TO.N,GND*%
X148500000Y-119500000D03*
X111000000Y-104500000D03*
X144000000Y-72000000D03*
X133500000Y-91000000D03*
X129500000Y-133000000D03*
X134500000Y-119000000D03*
X112500000Y-134000000D03*
X155000000Y-103000000D03*
X135500000Y-137000000D03*
X130000000Y-71500000D03*
X120000000Y-107000000D03*
X120500000Y-117000000D03*
X127500000Y-128500000D03*
X118500000Y-81500000D03*
X158000000Y-133500000D03*
%TO.N,Net-(SW3-A)*%
X140000000Y-69400000D03*
%TO.N,Net-(SW2-A)*%
X123500000Y-69500000D03*
%TO.N,VBUS*%
X156000000Y-74000000D03*
X128500000Y-74000000D03*
X150699684Y-74000000D03*
%TO.N,Net-(U1-USB_DM)*%
X135000000Y-73000000D03*
%TO.N,Net-(U1-USB_DP)*%
X137000000Y-73000000D03*
%TO.N,+3V3*%
X118750000Y-89250000D03*
%TO.N,/SDA*%
X147500000Y-133000000D03*
%TO.N,+5V*%
X130000000Y-81000000D03*
%TD*%
%TO.N,Net-(SW1-A)*%
D21*
X119645000Y-71855000D02*
X119645000Y-67540000D01*
X119000000Y-72500000D02*
X119645000Y-71855000D01*
%TO.N,GND*%
X150084000Y-71833000D02*
X150724000Y-72473000D01*
X150724000Y-72473000D02*
X149897000Y-73300000D01*
X149897000Y-73300000D02*
X149500000Y-73300000D01*
X149604000Y-71833000D02*
X150084000Y-71833000D01*
%TO.N,Net-(SW3-A)*%
X140000000Y-69400000D02*
X140000000Y-67631000D01*
X140000000Y-67631000D02*
X139909000Y-67540000D01*
%TO.N,Net-(SW2-A)*%
X127789000Y-69500000D02*
X129749000Y-67540000D01*
X123500000Y-69500000D02*
X127789000Y-69500000D01*
%TO.N,VBUS*%
X150699684Y-74000000D02*
X151524000Y-73175684D01*
X151524000Y-73175684D02*
X151524000Y-72473000D01*
X156000000Y-74000000D02*
X156324000Y-73676000D01*
X128500000Y-74000000D02*
X150699684Y-74000000D01*
X156324000Y-73676000D02*
X156324000Y-72473000D01*
%TO.N,Net-(USB_C1-CC1)*%
D22*
X155174000Y-72473000D02*
X155174000Y-77212000D01*
X155174000Y-77212000D02*
X155194000Y-77232000D01*
%TO.N,Net-(U1-USB_DM)*%
X154138820Y-71255410D02*
X153674000Y-71255410D01*
X153674000Y-72473000D02*
X153674000Y-71255410D01*
X154674000Y-72473000D02*
X154674000Y-71790590D01*
X152418590Y-70000000D02*
X138000000Y-70000000D01*
X138000000Y-70000000D02*
X135000000Y-73000000D01*
X154674000Y-71790590D02*
X154138820Y-71255410D01*
X153674000Y-71255410D02*
X152418590Y-70000000D01*
%TO.N,Net-(U1-USB_DP)*%
X153441590Y-73423000D02*
X153174000Y-73155410D01*
X153174000Y-71790590D02*
X151866410Y-70483000D01*
X154174000Y-73155410D02*
X153906410Y-73423000D01*
X153174000Y-73155410D02*
X153174000Y-72473000D01*
X153174000Y-72473000D02*
X153174000Y-71790590D01*
X151866410Y-70483000D02*
X139517000Y-70483000D01*
X139517000Y-70483000D02*
X137000000Y-73000000D01*
X154174000Y-72473000D02*
X154174000Y-73155410D01*
X153906410Y-73423000D02*
X153441590Y-73423000D01*
%TO.N,Net-(USB_C1-CC2)*%
X152174000Y-77204000D02*
X152146000Y-77232000D01*
X152174000Y-72473000D02*
X152174000Y-77204000D01*
%TO.N,+3V3*%
D23*
X116840000Y-130500000D02*
X120840000Y-134500000D01*
X120840000Y-134500000D02*
X133304000Y-134500000D01*
X141016000Y-134500000D02*
X143320000Y-134500000D01*
X137160000Y-130644000D02*
X141016000Y-134500000D01*
X143320000Y-134500000D02*
X147320000Y-130500000D01*
X137160000Y-130644000D02*
X133304000Y-134500000D01*
X133304000Y-134500000D02*
X143320000Y-134500000D01*
X116840000Y-91160000D02*
X118750000Y-89250000D01*
X116840000Y-91160000D02*
X116840000Y-130500000D01*
%TO.N,/SDA*%
D21*
X152440000Y-133000000D02*
X154940000Y-130500000D01*
X147500000Y-133000000D02*
X152440000Y-133000000D01*
%TO.N,+5V*%
D23*
X139700000Y-90700000D02*
X130000000Y-81000000D01*
X139700000Y-90700000D02*
X139700000Y-130644000D01*
%TD*%
%TA.AperFunction,Conductor*%
%TO.N,GND*%
G36*
X117513039Y-65290185D02*
G01*
X117558794Y-65342989D01*
X117563188Y-65363188D01*
X117570000Y-65370000D01*
X118296000Y-65370000D01*
X118363039Y-65389685D01*
X118408794Y-65442489D01*
X118420000Y-65494000D01*
X118420000Y-65620000D01*
X118546000Y-65620000D01*
X118613039Y-65639685D01*
X118658794Y-65692489D01*
X118670000Y-65744000D01*
X118670000Y-66270000D01*
X118767673Y-66270000D01*
X118834712Y-66289685D01*
X118880467Y-66342489D01*
X118885103Y-66354174D01*
X118899504Y-66396636D01*
X118902394Y-66466445D01*
X118867084Y-66526736D01*
X118829531Y-66551021D01*
X118822264Y-66554031D01*
X118739399Y-66609399D01*
X118684033Y-66692260D01*
X118684032Y-66692264D01*
X118669500Y-66765321D01*
X118669500Y-68314678D01*
X118684032Y-68387735D01*
X118684033Y-68387739D01*
X118684034Y-68387740D01*
X118739399Y-68470601D01*
X118821554Y-68525494D01*
X118822260Y-68525966D01*
X118822264Y-68525967D01*
X118895321Y-68540499D01*
X118895324Y-68540500D01*
X118895326Y-68540500D01*
X119020500Y-68540500D01*
X119087539Y-68560185D01*
X119133294Y-68612989D01*
X119144500Y-68664500D01*
X119144500Y-71596323D01*
X119124815Y-71663362D01*
X119108181Y-71684004D01*
X118835093Y-71957091D01*
X118794873Y-71983968D01*
X118787515Y-71987016D01*
X118661988Y-72059489D01*
X118661982Y-72059493D01*
X118559493Y-72161982D01*
X118559488Y-72161988D01*
X118487017Y-72287511D01*
X118487016Y-72287515D01*
X118449500Y-72427525D01*
X118449500Y-72572475D01*
X118480554Y-72688367D01*
X118487017Y-72712488D01*
X118559488Y-72838011D01*
X118559490Y-72838013D01*
X118559491Y-72838015D01*
X118661985Y-72940509D01*
X118661986Y-72940510D01*
X118661988Y-72940511D01*
X118787511Y-73012982D01*
X118787512Y-73012982D01*
X118787515Y-73012984D01*
X118927525Y-73050500D01*
X118927528Y-73050500D01*
X119072472Y-73050500D01*
X119072475Y-73050500D01*
X119212485Y-73012984D01*
X119338015Y-72940509D01*
X119440509Y-72838015D01*
X119512984Y-72712485D01*
X119512985Y-72712478D01*
X119516029Y-72705133D01*
X119542907Y-72664905D01*
X120045500Y-72162314D01*
X120111392Y-72048186D01*
X120145500Y-71920892D01*
X120145500Y-71789107D01*
X120145500Y-68664500D01*
X120165185Y-68597461D01*
X120217989Y-68551706D01*
X120269500Y-68540500D01*
X120394676Y-68540500D01*
X120394677Y-68540499D01*
X120467740Y-68525966D01*
X120550601Y-68470601D01*
X120605966Y-68387740D01*
X120620500Y-68314674D01*
X120620500Y-68314628D01*
X123220000Y-68314628D01*
X123234503Y-68387540D01*
X123234505Y-68387544D01*
X123289760Y-68470239D01*
X123372455Y-68525494D01*
X123372459Y-68525496D01*
X123445371Y-68539999D01*
X123445374Y-68540000D01*
X123945000Y-68540000D01*
X124445000Y-68540000D01*
X124944626Y-68540000D01*
X124944628Y-68539999D01*
X125017540Y-68525496D01*
X125017544Y-68525494D01*
X125100239Y-68470239D01*
X125155494Y-68387544D01*
X125155496Y-68387540D01*
X125169999Y-68314628D01*
X125170000Y-68314626D01*
X125170000Y-67790000D01*
X124445000Y-67790000D01*
X124445000Y-68540000D01*
X123945000Y-68540000D01*
X123945000Y-67790000D01*
X123220000Y-67790000D01*
X123220000Y-68314628D01*
X120620500Y-68314628D01*
X120620500Y-67044500D01*
X120640185Y-66977461D01*
X120692989Y-66931706D01*
X120744500Y-66920500D01*
X123096000Y-66920500D01*
X123163039Y-66940185D01*
X123208794Y-66992989D01*
X123220000Y-67044500D01*
X123220000Y-67290000D01*
X125170000Y-67290000D01*
X125170000Y-66765373D01*
X125169999Y-66765371D01*
X125155496Y-66692459D01*
X125155494Y-66692455D01*
X125100239Y-66609760D01*
X125017543Y-66554504D01*
X125010301Y-66551504D01*
X124955900Y-66507661D01*
X124933838Y-66441366D01*
X124940329Y-66397119D01*
X124954896Y-66354171D01*
X124995071Y-66297006D01*
X125059773Y-66270637D01*
X125072325Y-66270000D01*
X125170000Y-66270000D01*
X125670000Y-66270000D01*
X126044626Y-66270000D01*
X126044628Y-66269999D01*
X126117540Y-66255496D01*
X126117544Y-66255494D01*
X126200239Y-66200239D01*
X126255494Y-66117544D01*
X126255496Y-66117540D01*
X126269999Y-66044628D01*
X127674000Y-66044628D01*
X127688503Y-66117540D01*
X127688505Y-66117544D01*
X127743760Y-66200239D01*
X127826455Y-66255494D01*
X127826459Y-66255496D01*
X127899371Y-66269999D01*
X127899374Y-66270000D01*
X128274000Y-66270000D01*
X128274000Y-65870000D01*
X127674000Y-65870000D01*
X127674000Y-66044628D01*
X126269999Y-66044628D01*
X126270000Y-66044626D01*
X126270000Y-65870000D01*
X125670000Y-65870000D01*
X125670000Y-66270000D01*
X125170000Y-66270000D01*
X125170000Y-65744000D01*
X125189685Y-65676961D01*
X125242489Y-65631206D01*
X125294000Y-65620000D01*
X125420000Y-65620000D01*
X125420000Y-65494000D01*
X125439685Y-65426961D01*
X125492489Y-65381206D01*
X125544000Y-65370000D01*
X126270000Y-65370000D01*
X126280184Y-65359815D01*
X126289685Y-65327461D01*
X126342489Y-65281706D01*
X126394000Y-65270500D01*
X127550000Y-65270500D01*
X127617039Y-65290185D01*
X127662794Y-65342989D01*
X127667188Y-65363188D01*
X127674000Y-65370000D01*
X128400000Y-65370000D01*
X128467039Y-65389685D01*
X128512794Y-65442489D01*
X128524000Y-65494000D01*
X128524000Y-65620000D01*
X128650000Y-65620000D01*
X128717039Y-65639685D01*
X128762794Y-65692489D01*
X128774000Y-65744000D01*
X128774000Y-66270000D01*
X128871673Y-66270000D01*
X128938712Y-66289685D01*
X128984467Y-66342489D01*
X128989103Y-66354174D01*
X129003504Y-66396636D01*
X129006394Y-66466445D01*
X128971084Y-66526736D01*
X128933531Y-66551021D01*
X128926264Y-66554031D01*
X128843399Y-66609399D01*
X128788033Y-66692260D01*
X128788032Y-66692264D01*
X128773500Y-66765321D01*
X128773500Y-67756324D01*
X128753815Y-67823363D01*
X128737181Y-67844005D01*
X127618005Y-68963181D01*
X127556682Y-68996666D01*
X127530324Y-68999500D01*
X123767289Y-68999500D01*
X123719838Y-68990062D01*
X123712486Y-68987016D01*
X123677482Y-68977637D01*
X123572475Y-68949500D01*
X123427525Y-68949500D01*
X123298993Y-68983940D01*
X123287511Y-68987017D01*
X123161988Y-69059488D01*
X123161982Y-69059493D01*
X123059493Y-69161982D01*
X123059488Y-69161988D01*
X122987017Y-69287511D01*
X122987016Y-69287515D01*
X122949500Y-69427525D01*
X122949500Y-69572475D01*
X122976540Y-69673387D01*
X122987017Y-69712488D01*
X123059488Y-69838011D01*
X123059490Y-69838013D01*
X123059491Y-69838015D01*
X123161985Y-69940509D01*
X123161986Y-69940510D01*
X123161988Y-69940511D01*
X123287511Y-70012982D01*
X123287512Y-70012982D01*
X123287515Y-70012984D01*
X123427525Y-70050500D01*
X123427528Y-70050500D01*
X123572472Y-70050500D01*
X123572475Y-70050500D01*
X123712485Y-70012984D01*
X123712488Y-70012981D01*
X123719838Y-70009938D01*
X123767289Y-70000500D01*
X127854890Y-70000500D01*
X127854892Y-70000500D01*
X127982186Y-69966392D01*
X128096314Y-69900500D01*
X129419995Y-68576819D01*
X129481318Y-68543334D01*
X129507676Y-68540500D01*
X130498676Y-68540500D01*
X130498677Y-68540499D01*
X130571740Y-68525966D01*
X130654601Y-68470601D01*
X130709966Y-68387740D01*
X130724500Y-68314674D01*
X130724500Y-68314628D01*
X133324000Y-68314628D01*
X133338503Y-68387540D01*
X133338505Y-68387544D01*
X133393760Y-68470239D01*
X133476455Y-68525494D01*
X133476459Y-68525496D01*
X133549371Y-68539999D01*
X133549374Y-68540000D01*
X134049000Y-68540000D01*
X134549000Y-68540000D01*
X135048626Y-68540000D01*
X135048628Y-68539999D01*
X135121540Y-68525496D01*
X135121544Y-68525494D01*
X135204239Y-68470239D01*
X135259494Y-68387544D01*
X135259496Y-68387540D01*
X135273999Y-68314628D01*
X135274000Y-68314626D01*
X135274000Y-67790000D01*
X134549000Y-67790000D01*
X134549000Y-68540000D01*
X134049000Y-68540000D01*
X134049000Y-67790000D01*
X133324000Y-67790000D01*
X133324000Y-68314628D01*
X130724500Y-68314628D01*
X130724500Y-67044500D01*
X130744185Y-66977461D01*
X130796989Y-66931706D01*
X130848500Y-66920500D01*
X133200000Y-66920500D01*
X133267039Y-66940185D01*
X133312794Y-66992989D01*
X133324000Y-67044500D01*
X133324000Y-67290000D01*
X135274000Y-67290000D01*
X135274000Y-66765373D01*
X135273999Y-66765371D01*
X135259496Y-66692459D01*
X135259494Y-66692455D01*
X135204239Y-66609760D01*
X135121543Y-66554504D01*
X135114301Y-66551504D01*
X135059900Y-66507661D01*
X135037838Y-66441366D01*
X135044329Y-66397119D01*
X135058896Y-66354171D01*
X135099071Y-66297006D01*
X135163773Y-66270637D01*
X135176325Y-66270000D01*
X135274000Y-66270000D01*
X135774000Y-66270000D01*
X136148626Y-66270000D01*
X136148628Y-66269999D01*
X136221540Y-66255496D01*
X136221544Y-66255494D01*
X136304239Y-66200239D01*
X136359494Y-66117544D01*
X136359496Y-66117540D01*
X136373999Y-66044628D01*
X137834000Y-66044628D01*
X137848503Y-66117540D01*
X137848505Y-66117544D01*
X137903760Y-66200239D01*
X137986455Y-66255494D01*
X137986459Y-66255496D01*
X138059371Y-66269999D01*
X138059374Y-66270000D01*
X138434000Y-66270000D01*
X138434000Y-65870000D01*
X137834000Y-65870000D01*
X137834000Y-66044628D01*
X136373999Y-66044628D01*
X136374000Y-66044626D01*
X136374000Y-65870000D01*
X135774000Y-65870000D01*
X135774000Y-66270000D01*
X135274000Y-66270000D01*
X135274000Y-65744000D01*
X135293685Y-65676961D01*
X135346489Y-65631206D01*
X135398000Y-65620000D01*
X135524000Y-65620000D01*
X135524000Y-65494000D01*
X135543685Y-65426961D01*
X135596489Y-65381206D01*
X135648000Y-65370000D01*
X136374000Y-65370000D01*
X136384184Y-65359815D01*
X136393685Y-65327461D01*
X136446489Y-65281706D01*
X136498000Y-65270500D01*
X137710000Y-65270500D01*
X137777039Y-65290185D01*
X137822794Y-65342989D01*
X137827188Y-65363188D01*
X137834000Y-65370000D01*
X138560000Y-65370000D01*
X138627039Y-65389685D01*
X138672794Y-65442489D01*
X138684000Y-65494000D01*
X138684000Y-65620000D01*
X138810000Y-65620000D01*
X138877039Y-65639685D01*
X138922794Y-65692489D01*
X138934000Y-65744000D01*
X138934000Y-66270000D01*
X139031673Y-66270000D01*
X139098712Y-66289685D01*
X139144467Y-66342489D01*
X139149103Y-66354174D01*
X139163504Y-66396636D01*
X139166394Y-66466445D01*
X139131084Y-66526736D01*
X139093531Y-66551021D01*
X139086264Y-66554031D01*
X139003399Y-66609399D01*
X138948033Y-66692260D01*
X138948032Y-66692264D01*
X138933500Y-66765321D01*
X138933500Y-68314678D01*
X138948032Y-68387735D01*
X138948033Y-68387739D01*
X138948034Y-68387740D01*
X139003399Y-68470601D01*
X139085554Y-68525494D01*
X139086260Y-68525966D01*
X139086264Y-68525967D01*
X139159321Y-68540499D01*
X139159324Y-68540500D01*
X139159326Y-68540500D01*
X139375500Y-68540500D01*
X139442539Y-68560185D01*
X139488294Y-68612989D01*
X139499500Y-68664500D01*
X139499500Y-69132710D01*
X139490063Y-69180159D01*
X139487016Y-69187513D01*
X139468258Y-69257520D01*
X139449500Y-69327525D01*
X139449500Y-69327527D01*
X139449500Y-69472474D01*
X139455109Y-69493407D01*
X139453446Y-69563257D01*
X139414283Y-69621119D01*
X139350055Y-69648623D01*
X139335334Y-69649500D01*
X137953856Y-69649500D01*
X137864712Y-69673386D01*
X137864709Y-69673387D01*
X137784791Y-69719527D01*
X137784786Y-69719531D01*
X135091137Y-72413181D01*
X135029814Y-72446666D01*
X135003456Y-72449500D01*
X134927525Y-72449500D01*
X134798993Y-72483940D01*
X134787511Y-72487017D01*
X134661988Y-72559488D01*
X134661982Y-72559493D01*
X134559493Y-72661982D01*
X134559488Y-72661988D01*
X134487017Y-72787511D01*
X134487016Y-72787515D01*
X134449500Y-72927525D01*
X134449500Y-73072475D01*
X134487016Y-73212485D01*
X134487017Y-73212488D01*
X134545337Y-73313500D01*
X134561810Y-73381400D01*
X134538958Y-73447427D01*
X134484037Y-73490617D01*
X134437950Y-73499500D01*
X128767289Y-73499500D01*
X128719838Y-73490062D01*
X128712486Y-73487016D01*
X128677482Y-73477637D01*
X128572475Y-73449500D01*
X128427525Y-73449500D01*
X128311635Y-73480553D01*
X128287511Y-73487017D01*
X128161988Y-73559488D01*
X128161982Y-73559493D01*
X128059493Y-73661982D01*
X128059488Y-73661988D01*
X127987017Y-73787511D01*
X127987016Y-73787515D01*
X127949500Y-73927525D01*
X127949500Y-74072475D01*
X127974266Y-74164902D01*
X127987017Y-74212488D01*
X128059488Y-74338011D01*
X128059490Y-74338013D01*
X128059491Y-74338015D01*
X128161985Y-74440509D01*
X128161986Y-74440510D01*
X128161988Y-74440511D01*
X128287511Y-74512982D01*
X128287512Y-74512982D01*
X128287515Y-74512984D01*
X128427525Y-74550500D01*
X128427528Y-74550500D01*
X128572472Y-74550500D01*
X128572475Y-74550500D01*
X128712485Y-74512984D01*
X128712488Y-74512981D01*
X128719838Y-74509938D01*
X128767289Y-74500500D01*
X150432395Y-74500500D01*
X150479846Y-74509938D01*
X150487197Y-74512983D01*
X150487199Y-74512984D01*
X150627209Y-74550500D01*
X150627212Y-74550500D01*
X150772156Y-74550500D01*
X150772159Y-74550500D01*
X150912169Y-74512984D01*
X151037699Y-74440509D01*
X151140193Y-74338015D01*
X151212668Y-74212485D01*
X151212669Y-74212478D01*
X151215713Y-74205133D01*
X151242591Y-74164905D01*
X151611820Y-73795677D01*
X151673142Y-73762193D01*
X151742834Y-73767177D01*
X151798767Y-73809049D01*
X151823184Y-73874513D01*
X151823500Y-73883359D01*
X151823500Y-76257500D01*
X151803815Y-76324539D01*
X151751011Y-76370294D01*
X151699502Y-76381500D01*
X151648130Y-76381500D01*
X151648123Y-76381501D01*
X151588516Y-76387908D01*
X151453671Y-76438202D01*
X151453664Y-76438206D01*
X151338455Y-76524452D01*
X151338452Y-76524455D01*
X151252206Y-76639664D01*
X151252202Y-76639671D01*
X151201908Y-76774517D01*
X151195501Y-76834116D01*
X151195501Y-76834123D01*
X151195500Y-76834135D01*
X151195500Y-77629870D01*
X151195501Y-77629876D01*
X151201908Y-77689483D01*
X151252202Y-77824328D01*
X151252206Y-77824335D01*
X151338452Y-77939544D01*
X151338455Y-77939547D01*
X151453664Y-78025793D01*
X151453671Y-78025797D01*
X151588517Y-78076091D01*
X151588516Y-78076091D01*
X151595444Y-78076835D01*
X151648127Y-78082500D01*
X152643872Y-78082499D01*
X152703483Y-78076091D01*
X152838331Y-78025796D01*
X152953546Y-77939546D01*
X153039796Y-77824331D01*
X153090091Y-77689483D01*
X153096500Y-77629873D01*
X153096499Y-76834128D01*
X153090091Y-76774517D01*
X153039796Y-76639669D01*
X153039795Y-76639668D01*
X153039793Y-76639664D01*
X152953547Y-76524455D01*
X152953544Y-76524452D01*
X152838335Y-76438206D01*
X152838328Y-76438202D01*
X152703482Y-76387908D01*
X152703483Y-76387908D01*
X152643884Y-76381501D01*
X152643880Y-76381500D01*
X152643873Y-76381500D01*
X152643865Y-76381500D01*
X152641852Y-76381392D01*
X152641406Y-76381234D01*
X152640572Y-76381145D01*
X152640593Y-76380947D01*
X152575964Y-76358141D01*
X152533106Y-76302960D01*
X152524500Y-76257570D01*
X152524500Y-73497499D01*
X152544185Y-73430460D01*
X152596989Y-73384705D01*
X152644737Y-73373556D01*
X152646594Y-73373499D01*
X152787138Y-73373499D01*
X152829265Y-73367953D01*
X152835490Y-73367765D01*
X152863503Y-73375074D01*
X152892104Y-73379535D01*
X152898894Y-73384309D01*
X152903096Y-73385406D01*
X152907953Y-73390679D01*
X152926934Y-73404026D01*
X153161121Y-73638212D01*
X153226378Y-73703469D01*
X153226381Y-73703470D01*
X153226384Y-73703473D01*
X153306296Y-73749611D01*
X153306297Y-73749611D01*
X153306302Y-73749614D01*
X153395446Y-73773500D01*
X153395448Y-73773500D01*
X153952552Y-73773500D01*
X153952554Y-73773500D01*
X154041698Y-73749614D01*
X154055073Y-73741892D01*
X154121622Y-73703470D01*
X154421064Y-73404026D01*
X154482387Y-73370542D01*
X154512508Y-73367765D01*
X154518734Y-73367954D01*
X154560861Y-73373500D01*
X154701397Y-73373499D01*
X154703263Y-73373556D01*
X154734750Y-73383849D01*
X154766539Y-73393183D01*
X154767818Y-73394659D01*
X154769674Y-73395266D01*
X154790601Y-73420952D01*
X154812294Y-73445987D01*
X154812766Y-73448157D01*
X154813806Y-73449434D01*
X154814628Y-73456718D01*
X154823500Y-73497499D01*
X154823500Y-76257500D01*
X154803815Y-76324539D01*
X154751011Y-76370294D01*
X154699519Y-76381500D01*
X154696139Y-76381500D01*
X154696123Y-76381501D01*
X154636516Y-76387908D01*
X154501671Y-76438202D01*
X154501664Y-76438206D01*
X154386455Y-76524452D01*
X154386452Y-76524455D01*
X154300206Y-76639664D01*
X154300202Y-76639671D01*
X154249908Y-76774517D01*
X154243501Y-76834116D01*
X154243501Y-76834123D01*
X154243500Y-76834135D01*
X154243500Y-77629870D01*
X154243501Y-77629876D01*
X154249908Y-77689483D01*
X154300202Y-77824328D01*
X154300206Y-77824335D01*
X154386452Y-77939544D01*
X154386455Y-77939547D01*
X154501664Y-78025793D01*
X154501671Y-78025797D01*
X154636517Y-78076091D01*
X154636516Y-78076091D01*
X154643444Y-78076835D01*
X154696127Y-78082500D01*
X155691872Y-78082499D01*
X155751483Y-78076091D01*
X155886331Y-78025796D01*
X156001546Y-77939546D01*
X156087796Y-77824331D01*
X156138091Y-77689483D01*
X156144500Y-77629873D01*
X156144499Y-76834128D01*
X156138091Y-76774517D01*
X156087796Y-76639669D01*
X156087795Y-76639668D01*
X156087793Y-76639664D01*
X156001547Y-76524455D01*
X156001544Y-76524452D01*
X155886335Y-76438206D01*
X155886328Y-76438202D01*
X155751482Y-76387908D01*
X155751483Y-76387908D01*
X155691883Y-76381501D01*
X155691881Y-76381500D01*
X155691873Y-76381500D01*
X155691865Y-76381500D01*
X155648500Y-76381500D01*
X155581461Y-76361815D01*
X155535706Y-76309011D01*
X155524500Y-76257500D01*
X155524500Y-74575906D01*
X155544185Y-74508867D01*
X155596989Y-74463112D01*
X155666147Y-74453168D01*
X155710497Y-74468517D01*
X155787515Y-74512984D01*
X155927525Y-74550500D01*
X155927528Y-74550500D01*
X156072472Y-74550500D01*
X156072475Y-74550500D01*
X156212485Y-74512984D01*
X156338015Y-74440509D01*
X156440509Y-74338015D01*
X156512984Y-74212485D01*
X156512985Y-74212478D01*
X156516029Y-74205133D01*
X156542907Y-74164905D01*
X156631312Y-74076501D01*
X156631314Y-74076500D01*
X156724500Y-73983314D01*
X156790392Y-73869186D01*
X156796762Y-73845413D01*
X156824500Y-73741893D01*
X156824500Y-73610108D01*
X156824500Y-73461588D01*
X156844185Y-73394549D01*
X156867967Y-73367299D01*
X156874000Y-73362146D01*
X156874000Y-73361551D01*
X157377765Y-73361551D01*
X157399145Y-73358165D01*
X157512045Y-73300639D01*
X157512050Y-73300636D01*
X157601636Y-73211050D01*
X157601639Y-73211046D01*
X157659166Y-73098144D01*
X157662182Y-73088863D01*
X157665282Y-73089870D01*
X157687969Y-73041974D01*
X157747269Y-73005023D01*
X157817132Y-73005998D01*
X157849431Y-73021374D01*
X157888744Y-73047642D01*
X157993999Y-73091240D01*
X157994000Y-73091240D01*
X157994000Y-72549988D01*
X158003940Y-72567205D01*
X158059795Y-72623060D01*
X158128204Y-72662556D01*
X158204504Y-72683000D01*
X158283496Y-72683000D01*
X158359796Y-72662556D01*
X158428205Y-72623060D01*
X158484060Y-72567205D01*
X158494000Y-72549988D01*
X158494000Y-73091240D01*
X158599256Y-73047642D01*
X158599260Y-73047640D01*
X158722092Y-72965566D01*
X158722100Y-72965560D01*
X158826560Y-72861100D01*
X158826563Y-72861096D01*
X158908637Y-72738264D01*
X158908642Y-72738254D01*
X158965177Y-72601767D01*
X158965179Y-72601759D01*
X158993999Y-72456873D01*
X158994000Y-72456871D01*
X158994000Y-72083000D01*
X158544000Y-72083000D01*
X158544000Y-71583000D01*
X158994000Y-71583000D01*
X158994000Y-71209128D01*
X158993999Y-71209126D01*
X158965179Y-71064240D01*
X158965177Y-71064232D01*
X158908642Y-70927745D01*
X158908637Y-70927735D01*
X158826563Y-70804903D01*
X158826560Y-70804899D01*
X158722100Y-70700439D01*
X158722096Y-70700436D01*
X158599264Y-70618362D01*
X158599254Y-70618357D01*
X158494000Y-70574759D01*
X158494000Y-71116011D01*
X158484060Y-71098795D01*
X158428205Y-71042940D01*
X158359796Y-71003444D01*
X158283496Y-70983000D01*
X158204504Y-70983000D01*
X158128204Y-71003444D01*
X158059795Y-71042940D01*
X158003940Y-71098795D01*
X157994000Y-71116011D01*
X157994000Y-70574759D01*
X157993999Y-70574759D01*
X157888745Y-70618357D01*
X157888735Y-70618362D01*
X157765903Y-70700436D01*
X157765899Y-70700439D01*
X157661439Y-70804899D01*
X157661436Y-70804903D01*
X157579362Y-70927735D01*
X157579357Y-70927745D01*
X157522822Y-71064232D01*
X157522820Y-71064240D01*
X157494000Y-71209126D01*
X157494000Y-71457672D01*
X157493065Y-71460855D01*
X157493769Y-71465243D01*
X157377765Y-73361551D01*
X156874000Y-73361551D01*
X156874000Y-73015742D01*
X156874383Y-73006008D01*
X156874498Y-73004528D01*
X156874500Y-73004519D01*
X156874499Y-71941482D01*
X156874499Y-71941481D01*
X156874499Y-71941477D01*
X156874382Y-71939990D01*
X156874000Y-71930267D01*
X156874000Y-71583851D01*
X156848856Y-71587833D01*
X156780845Y-71622487D01*
X156712175Y-71635383D01*
X156668257Y-71622487D01*
X156599304Y-71587354D01*
X156599303Y-71587353D01*
X156599300Y-71587352D01*
X156599301Y-71587352D01*
X156505524Y-71572500D01*
X156142482Y-71572500D01*
X156048693Y-71587354D01*
X156048687Y-71587356D01*
X156009073Y-71607541D01*
X155940404Y-71620437D01*
X155900376Y-71609438D01*
X155834544Y-71578740D01*
X155787140Y-71572500D01*
X155560868Y-71572500D01*
X155550341Y-71573885D01*
X155513455Y-71578741D01*
X155513453Y-71578742D01*
X155513451Y-71578742D01*
X155476403Y-71596018D01*
X155407325Y-71606509D01*
X155371596Y-71596018D01*
X155334545Y-71578741D01*
X155334541Y-71578740D01*
X155287140Y-71572500D01*
X155060864Y-71572500D01*
X155024925Y-71577231D01*
X154955890Y-71566462D01*
X154921064Y-71541972D01*
X154354033Y-70974941D01*
X154354028Y-70974937D01*
X154274110Y-70928797D01*
X154274109Y-70928796D01*
X154274108Y-70928796D01*
X154184964Y-70904910D01*
X154184963Y-70904910D01*
X153870544Y-70904910D01*
X153803505Y-70885225D01*
X153782863Y-70868591D01*
X152633803Y-69719531D01*
X152633798Y-69719527D01*
X152553880Y-69673387D01*
X152553879Y-69673386D01*
X152553878Y-69673386D01*
X152464734Y-69649500D01*
X152464733Y-69649500D01*
X140664666Y-69649500D01*
X140597627Y-69629815D01*
X140551872Y-69577011D01*
X140541928Y-69507853D01*
X140544891Y-69493407D01*
X140550500Y-69472475D01*
X140550500Y-69327525D01*
X140512984Y-69187515D01*
X140512983Y-69187513D01*
X140509937Y-69180159D01*
X140500500Y-69132710D01*
X140500500Y-68664500D01*
X140520185Y-68597461D01*
X140572989Y-68551706D01*
X140624500Y-68540500D01*
X140658676Y-68540500D01*
X140658677Y-68540499D01*
X140731740Y-68525966D01*
X140814601Y-68470601D01*
X140869966Y-68387740D01*
X140884500Y-68314674D01*
X140884500Y-68314628D01*
X143484000Y-68314628D01*
X143498503Y-68387540D01*
X143498505Y-68387544D01*
X143553760Y-68470239D01*
X143636455Y-68525494D01*
X143636459Y-68525496D01*
X143709371Y-68539999D01*
X143709374Y-68540000D01*
X144209000Y-68540000D01*
X144709000Y-68540000D01*
X145208626Y-68540000D01*
X145208628Y-68539999D01*
X145281540Y-68525496D01*
X145281544Y-68525494D01*
X145364239Y-68470239D01*
X145419494Y-68387544D01*
X145419496Y-68387540D01*
X145433999Y-68314628D01*
X145434000Y-68314626D01*
X145434000Y-67790000D01*
X144709000Y-67790000D01*
X144709000Y-68540000D01*
X144209000Y-68540000D01*
X144209000Y-67790000D01*
X143484000Y-67790000D01*
X143484000Y-68314628D01*
X140884500Y-68314628D01*
X140884500Y-67044500D01*
X140904185Y-66977461D01*
X140956989Y-66931706D01*
X141008500Y-66920500D01*
X143360000Y-66920500D01*
X143427039Y-66940185D01*
X143472794Y-66992989D01*
X143484000Y-67044500D01*
X143484000Y-67290000D01*
X145434000Y-67290000D01*
X145434000Y-67279126D01*
X148854000Y-67279126D01*
X148854000Y-67403000D01*
X149304000Y-67403000D01*
X149304000Y-67903000D01*
X148854000Y-67903000D01*
X148854000Y-68026873D01*
X148882820Y-68171759D01*
X148882822Y-68171767D01*
X148939357Y-68308254D01*
X148939362Y-68308264D01*
X149021436Y-68431096D01*
X149021439Y-68431100D01*
X149125899Y-68535560D01*
X149125907Y-68535566D01*
X149248739Y-68617640D01*
X149248743Y-68617642D01*
X149353999Y-68661240D01*
X149354000Y-68661240D01*
X149354000Y-68119988D01*
X149363940Y-68137205D01*
X149419795Y-68193060D01*
X149488204Y-68232556D01*
X149564504Y-68253000D01*
X149643496Y-68253000D01*
X149719796Y-68232556D01*
X149788205Y-68193060D01*
X149844060Y-68137205D01*
X149854000Y-68119988D01*
X149854000Y-68661240D01*
X149959256Y-68617642D01*
X149959260Y-68617640D01*
X150082092Y-68535566D01*
X150082100Y-68535560D01*
X150186560Y-68431100D01*
X150186563Y-68431096D01*
X150268637Y-68308264D01*
X150268642Y-68308254D01*
X150325177Y-68171767D01*
X150325179Y-68171759D01*
X150353999Y-68026873D01*
X150354000Y-68026871D01*
X150354000Y-67903000D01*
X149904000Y-67903000D01*
X149904000Y-67403000D01*
X150354000Y-67403000D01*
X150354000Y-67279128D01*
X150353999Y-67279126D01*
X157494000Y-67279126D01*
X157494000Y-67403000D01*
X157944000Y-67403000D01*
X157944000Y-67903000D01*
X157494000Y-67903000D01*
X157494000Y-68026873D01*
X157522820Y-68171759D01*
X157522822Y-68171767D01*
X157579357Y-68308254D01*
X157579362Y-68308264D01*
X157661436Y-68431096D01*
X157661439Y-68431100D01*
X157765899Y-68535560D01*
X157765907Y-68535566D01*
X157888739Y-68617640D01*
X157888743Y-68617642D01*
X157993999Y-68661240D01*
X157994000Y-68661240D01*
X157994000Y-68119988D01*
X158003940Y-68137205D01*
X158059795Y-68193060D01*
X158128204Y-68232556D01*
X158204504Y-68253000D01*
X158283496Y-68253000D01*
X158359796Y-68232556D01*
X158428205Y-68193060D01*
X158484060Y-68137205D01*
X158494000Y-68119988D01*
X158494000Y-68661240D01*
X158599256Y-68617642D01*
X158599260Y-68617640D01*
X158722092Y-68535566D01*
X158722100Y-68535560D01*
X158826560Y-68431100D01*
X158826563Y-68431096D01*
X158908637Y-68308264D01*
X158908642Y-68308254D01*
X158965177Y-68171767D01*
X158965179Y-68171759D01*
X158993999Y-68026873D01*
X158994000Y-68026871D01*
X158994000Y-67903000D01*
X158544000Y-67903000D01*
X158544000Y-67403000D01*
X158994000Y-67403000D01*
X158994000Y-67279128D01*
X158993999Y-67279126D01*
X158965179Y-67134240D01*
X158965177Y-67134232D01*
X158908642Y-66997745D01*
X158908637Y-66997735D01*
X158826563Y-66874903D01*
X158826560Y-66874899D01*
X158722100Y-66770439D01*
X158722096Y-66770436D01*
X158599264Y-66688362D01*
X158599254Y-66688357D01*
X158494000Y-66644759D01*
X158494000Y-67186011D01*
X158484060Y-67168795D01*
X158428205Y-67112940D01*
X158359796Y-67073444D01*
X158283496Y-67053000D01*
X158204504Y-67053000D01*
X158128204Y-67073444D01*
X158059795Y-67112940D01*
X158003940Y-67168795D01*
X157994000Y-67186011D01*
X157994000Y-66644759D01*
X157993999Y-66644759D01*
X157888745Y-66688357D01*
X157888735Y-66688362D01*
X157765903Y-66770436D01*
X157765899Y-66770439D01*
X157661439Y-66874899D01*
X157661436Y-66874903D01*
X157579362Y-66997735D01*
X157579357Y-66997745D01*
X157522822Y-67134232D01*
X157522820Y-67134240D01*
X157494000Y-67279126D01*
X150353999Y-67279126D01*
X150325179Y-67134240D01*
X150325177Y-67134232D01*
X150268642Y-66997745D01*
X150268637Y-66997735D01*
X150186563Y-66874903D01*
X150186560Y-66874899D01*
X150082100Y-66770439D01*
X150082096Y-66770436D01*
X149959264Y-66688362D01*
X149959254Y-66688357D01*
X149854000Y-66644759D01*
X149854000Y-67186011D01*
X149844060Y-67168795D01*
X149788205Y-67112940D01*
X149719796Y-67073444D01*
X149643496Y-67053000D01*
X149564504Y-67053000D01*
X149488204Y-67073444D01*
X149419795Y-67112940D01*
X149363940Y-67168795D01*
X149354000Y-67186011D01*
X149354000Y-66644759D01*
X149353999Y-66644759D01*
X149248745Y-66688357D01*
X149248735Y-66688362D01*
X149125903Y-66770436D01*
X149125899Y-66770439D01*
X149021439Y-66874899D01*
X149021436Y-66874903D01*
X148939362Y-66997735D01*
X148939357Y-66997745D01*
X148882822Y-67134232D01*
X148882820Y-67134240D01*
X148854000Y-67279126D01*
X145434000Y-67279126D01*
X145434000Y-66765373D01*
X145433999Y-66765371D01*
X145419496Y-66692459D01*
X145419494Y-66692455D01*
X145364239Y-66609760D01*
X145281543Y-66554504D01*
X145274301Y-66551504D01*
X145219900Y-66507661D01*
X145197838Y-66441366D01*
X145204329Y-66397119D01*
X145218896Y-66354171D01*
X145259071Y-66297006D01*
X145323773Y-66270637D01*
X145336325Y-66270000D01*
X145434000Y-66270000D01*
X145934000Y-66270000D01*
X146308626Y-66270000D01*
X146308628Y-66269999D01*
X146381540Y-66255496D01*
X146381544Y-66255494D01*
X146464239Y-66200239D01*
X146519494Y-66117544D01*
X146519496Y-66117540D01*
X146533999Y-66044628D01*
X146534000Y-66044626D01*
X146534000Y-65870000D01*
X145934000Y-65870000D01*
X145934000Y-66270000D01*
X145434000Y-66270000D01*
X145434000Y-65744000D01*
X145453685Y-65676961D01*
X145506489Y-65631206D01*
X145558000Y-65620000D01*
X145684000Y-65620000D01*
X145684000Y-65494000D01*
X145703685Y-65426961D01*
X145756489Y-65381206D01*
X145808000Y-65370000D01*
X146534000Y-65370000D01*
X146544184Y-65359815D01*
X146553685Y-65327461D01*
X146606489Y-65281706D01*
X146658000Y-65270500D01*
X160875500Y-65270500D01*
X160942539Y-65290185D01*
X160988294Y-65342989D01*
X160999500Y-65394500D01*
X160999500Y-138875500D01*
X160979815Y-138942539D01*
X160927011Y-138988294D01*
X160875500Y-138999500D01*
X108624500Y-138999500D01*
X108557461Y-138979815D01*
X108511706Y-138927011D01*
X108500500Y-138875500D01*
X108500500Y-130405322D01*
X115637000Y-130405322D01*
X115637000Y-130594677D01*
X115666622Y-130781704D01*
X115725134Y-130961789D01*
X115725135Y-130961792D01*
X115776566Y-131062729D01*
X115811102Y-131130509D01*
X115922403Y-131283702D01*
X116056298Y-131417597D01*
X116209491Y-131528898D01*
X116268116Y-131558769D01*
X116378207Y-131614864D01*
X116378210Y-131614865D01*
X116419523Y-131628288D01*
X116558297Y-131673378D01*
X116745322Y-131703000D01*
X116745323Y-131703000D01*
X116930271Y-131703000D01*
X116997310Y-131722685D01*
X117017952Y-131739319D01*
X120257048Y-134978415D01*
X120257049Y-134978416D01*
X120361583Y-135082950D01*
X120361585Y-135082952D01*
X120484498Y-135165080D01*
X120484511Y-135165087D01*
X120621082Y-135221656D01*
X120621087Y-135221658D01*
X120621091Y-135221658D01*
X120621092Y-135221659D01*
X120766079Y-135250500D01*
X120766082Y-135250500D01*
X143393920Y-135250500D01*
X143491462Y-135231096D01*
X143538913Y-135221658D01*
X143675495Y-135165084D01*
X143724729Y-135132186D01*
X143798416Y-135082952D01*
X146381867Y-132499500D01*
X147142047Y-131739319D01*
X147203370Y-131705834D01*
X147229728Y-131703000D01*
X147414677Y-131703000D01*
X147414678Y-131703000D01*
X147601703Y-131673378D01*
X147781792Y-131614864D01*
X147950509Y-131528898D01*
X148103702Y-131417597D01*
X148237597Y-131283702D01*
X148348898Y-131130509D01*
X148434864Y-130961792D01*
X148472332Y-130846477D01*
X148511769Y-130788802D01*
X148576128Y-130761603D01*
X148644974Y-130773517D01*
X148696450Y-130820761D01*
X148708194Y-130846476D01*
X148745601Y-130961604D01*
X148831532Y-131130250D01*
X148850326Y-131156118D01*
X148850327Y-131156119D01*
X149270438Y-130736007D01*
X149297271Y-130800785D01*
X149366764Y-130904789D01*
X149455211Y-130993236D01*
X149559215Y-131062729D01*
X149623991Y-131089560D01*
X149203879Y-131509671D01*
X149229752Y-131528469D01*
X149398395Y-131614398D01*
X149578413Y-131672890D01*
X149765362Y-131702500D01*
X149954638Y-131702500D01*
X150141586Y-131672890D01*
X150321604Y-131614398D01*
X150490247Y-131528469D01*
X150516118Y-131509671D01*
X150096008Y-131089560D01*
X150160785Y-131062729D01*
X150264789Y-130993236D01*
X150353236Y-130904789D01*
X150422729Y-130800785D01*
X150449560Y-130736007D01*
X150869671Y-131156118D01*
X150888469Y-131130247D01*
X150974398Y-130961602D01*
X151011805Y-130846477D01*
X151051242Y-130788802D01*
X151115601Y-130761603D01*
X151184447Y-130773517D01*
X151235923Y-130820761D01*
X151247667Y-130846476D01*
X151285136Y-130961792D01*
X151285135Y-130961792D01*
X151336566Y-131062729D01*
X151371102Y-131130509D01*
X151482403Y-131283702D01*
X151616298Y-131417597D01*
X151769491Y-131528898D01*
X151828116Y-131558769D01*
X151938207Y-131614864D01*
X151938210Y-131614865D01*
X151979523Y-131628288D01*
X152118297Y-131673378D01*
X152305322Y-131703000D01*
X152305323Y-131703000D01*
X152494677Y-131703000D01*
X152494678Y-131703000D01*
X152681703Y-131673378D01*
X152749092Y-131651481D01*
X152818933Y-131649487D01*
X152878766Y-131685567D01*
X152909594Y-131748268D01*
X152901630Y-131817682D01*
X152875091Y-131857094D01*
X152269005Y-132463181D01*
X152207682Y-132496666D01*
X152181324Y-132499500D01*
X147767289Y-132499500D01*
X147719838Y-132490062D01*
X147712486Y-132487016D01*
X147677482Y-132477637D01*
X147572475Y-132449500D01*
X147427525Y-132449500D01*
X147298993Y-132483940D01*
X147287511Y-132487017D01*
X147161988Y-132559488D01*
X147161982Y-132559493D01*
X147059493Y-132661982D01*
X147059488Y-132661988D01*
X146987017Y-132787511D01*
X146987016Y-132787515D01*
X146949500Y-132927525D01*
X146949500Y-133072475D01*
X146987016Y-133212485D01*
X146987017Y-133212488D01*
X147059488Y-133338011D01*
X147059490Y-133338013D01*
X147059491Y-133338015D01*
X147161985Y-133440509D01*
X147161986Y-133440510D01*
X147161988Y-133440511D01*
X147287511Y-133512982D01*
X147287512Y-133512982D01*
X147287515Y-133512984D01*
X147427525Y-133550500D01*
X147427528Y-133550500D01*
X147572472Y-133550500D01*
X147572475Y-133550500D01*
X147712485Y-133512984D01*
X147712488Y-133512981D01*
X147719838Y-133509938D01*
X147767289Y-133500500D01*
X152505890Y-133500500D01*
X152505892Y-133500500D01*
X152633186Y-133466392D01*
X152747314Y-133400500D01*
X154465795Y-131682017D01*
X154527116Y-131648534D01*
X154591791Y-131651768D01*
X154658297Y-131673378D01*
X154845322Y-131703000D01*
X154845323Y-131703000D01*
X155034677Y-131703000D01*
X155034678Y-131703000D01*
X155221703Y-131673378D01*
X155401792Y-131614864D01*
X155570509Y-131528898D01*
X155723702Y-131417597D01*
X155857597Y-131283702D01*
X155968898Y-131130509D01*
X156054864Y-130961792D01*
X156113378Y-130781703D01*
X156143000Y-130594678D01*
X156143000Y-130405322D01*
X156113378Y-130218297D01*
X156055469Y-130040069D01*
X156054865Y-130038210D01*
X156054864Y-130038207D01*
X155994124Y-129919000D01*
X155968898Y-129869491D01*
X155857597Y-129716298D01*
X155723702Y-129582403D01*
X155570509Y-129471102D01*
X155546677Y-129458959D01*
X155401792Y-129385135D01*
X155401789Y-129385134D01*
X155221704Y-129326622D01*
X155091501Y-129306000D01*
X155034678Y-129297000D01*
X154845322Y-129297000D01*
X154788499Y-129306000D01*
X154658295Y-129326622D01*
X154478210Y-129385134D01*
X154478207Y-129385135D01*
X154309490Y-129471102D01*
X154156295Y-129582405D01*
X154022405Y-129716295D01*
X153911102Y-129869490D01*
X153825135Y-130038207D01*
X153825134Y-130038210D01*
X153787931Y-130152713D01*
X153748494Y-130210388D01*
X153684135Y-130237587D01*
X153615289Y-130225673D01*
X153563813Y-130178429D01*
X153552069Y-130152713D01*
X153514865Y-130038210D01*
X153514864Y-130038207D01*
X153454124Y-129919000D01*
X153428898Y-129869491D01*
X153317597Y-129716298D01*
X153183702Y-129582403D01*
X153030509Y-129471102D01*
X153006677Y-129458959D01*
X152861792Y-129385135D01*
X152861789Y-129385134D01*
X152681704Y-129326622D01*
X152551501Y-129306000D01*
X152494678Y-129297000D01*
X152305322Y-129297000D01*
X152248499Y-129306000D01*
X152118295Y-129326622D01*
X151938210Y-129385134D01*
X151938207Y-129385135D01*
X151769490Y-129471102D01*
X151616295Y-129582405D01*
X151482405Y-129716295D01*
X151371102Y-129869490D01*
X151285136Y-130038207D01*
X151247667Y-130153523D01*
X151208229Y-130211198D01*
X151143870Y-130238396D01*
X151075024Y-130226481D01*
X151023548Y-130179237D01*
X151011805Y-130153522D01*
X150974398Y-130038397D01*
X150888469Y-129869752D01*
X150869671Y-129843880D01*
X150869671Y-129843879D01*
X150449560Y-130263990D01*
X150422729Y-130199215D01*
X150353236Y-130095211D01*
X150264789Y-130006764D01*
X150160785Y-129937271D01*
X150096007Y-129910438D01*
X150516119Y-129490327D01*
X150516118Y-129490326D01*
X150490250Y-129471532D01*
X150321604Y-129385601D01*
X150141586Y-129327109D01*
X149954638Y-129297500D01*
X149765362Y-129297500D01*
X149578413Y-129327109D01*
X149398395Y-129385601D01*
X149229750Y-129471531D01*
X149203880Y-129490326D01*
X149203880Y-129490327D01*
X149623992Y-129910438D01*
X149559215Y-129937271D01*
X149455211Y-130006764D01*
X149366764Y-130095211D01*
X149297271Y-130199215D01*
X149270438Y-130263992D01*
X148850326Y-129843880D01*
X148831531Y-129869750D01*
X148745601Y-130038395D01*
X148708194Y-130153523D01*
X148668756Y-130211198D01*
X148604397Y-130238396D01*
X148535551Y-130226481D01*
X148484075Y-130179237D01*
X148472332Y-130153522D01*
X148434865Y-130038210D01*
X148434864Y-130038207D01*
X148374124Y-129919000D01*
X148348898Y-129869491D01*
X148237597Y-129716298D01*
X148103702Y-129582403D01*
X147950509Y-129471102D01*
X147926677Y-129458959D01*
X147781792Y-129385135D01*
X147781789Y-129385134D01*
X147601704Y-129326622D01*
X147471501Y-129306000D01*
X147414678Y-129297000D01*
X147225322Y-129297000D01*
X147168499Y-129306000D01*
X147038295Y-129326622D01*
X146858210Y-129385134D01*
X146858207Y-129385135D01*
X146689490Y-129471102D01*
X146536295Y-129582405D01*
X146402405Y-129716295D01*
X146291102Y-129869490D01*
X146205135Y-130038207D01*
X146205134Y-130038210D01*
X146146622Y-130218295D01*
X146117000Y-130405322D01*
X146117000Y-130590270D01*
X146097315Y-130657309D01*
X146080681Y-130677951D01*
X143045451Y-133713181D01*
X142984128Y-133746666D01*
X142957770Y-133749500D01*
X141378229Y-133749500D01*
X141311190Y-133729815D01*
X141290548Y-133713181D01*
X139765077Y-132187710D01*
X139731592Y-132126387D01*
X139736576Y-132056695D01*
X139778448Y-132000762D01*
X139833359Y-131977556D01*
X140013316Y-131949054D01*
X140213614Y-131883973D01*
X140401265Y-131788360D01*
X140571648Y-131664569D01*
X140690819Y-131545398D01*
X140752142Y-131511913D01*
X140821834Y-131516897D01*
X140877767Y-131558769D01*
X140902184Y-131624233D01*
X140902500Y-131633079D01*
X140902500Y-131756128D01*
X140917003Y-131829040D01*
X140917005Y-131829044D01*
X140972260Y-131911739D01*
X141054955Y-131966994D01*
X141054959Y-131966996D01*
X141127871Y-131981499D01*
X141127874Y-131981500D01*
X141990000Y-131981500D01*
X141990000Y-131325181D01*
X142028525Y-131341139D01*
X142168594Y-131369000D01*
X142311406Y-131369000D01*
X142451475Y-131341139D01*
X142490000Y-131325181D01*
X142490000Y-131981500D01*
X143352126Y-131981500D01*
X143352128Y-131981499D01*
X143425040Y-131966996D01*
X143425044Y-131966994D01*
X143507739Y-131911739D01*
X143562994Y-131829044D01*
X143562996Y-131829040D01*
X143577499Y-131756128D01*
X143577500Y-131756126D01*
X143577500Y-130894000D01*
X142921181Y-130894000D01*
X142937139Y-130855475D01*
X142965000Y-130715406D01*
X142965000Y-130572594D01*
X142937139Y-130432525D01*
X142921181Y-130394000D01*
X143577500Y-130394000D01*
X143577500Y-129531873D01*
X143577499Y-129531871D01*
X143562996Y-129458959D01*
X143562994Y-129458955D01*
X143507739Y-129376260D01*
X143425044Y-129321005D01*
X143425040Y-129321003D01*
X143352127Y-129306500D01*
X142490000Y-129306500D01*
X142490000Y-129962818D01*
X142451475Y-129946861D01*
X142311406Y-129919000D01*
X142168594Y-129919000D01*
X142028525Y-129946861D01*
X141990000Y-129962818D01*
X141990000Y-129306500D01*
X141127873Y-129306500D01*
X141054959Y-129321003D01*
X141054955Y-129321005D01*
X140972260Y-129376260D01*
X140917005Y-129458955D01*
X140917003Y-129458959D01*
X140902500Y-129531871D01*
X140902500Y-129654921D01*
X140882815Y-129721960D01*
X140830011Y-129767715D01*
X140760853Y-129777659D01*
X140697297Y-129748634D01*
X140690819Y-129742602D01*
X140571650Y-129623433D01*
X140571648Y-129623431D01*
X140565170Y-129618724D01*
X140501614Y-129572547D01*
X140458948Y-129517217D01*
X140450500Y-129472230D01*
X140450500Y-124878711D01*
X152649500Y-124878711D01*
X152649500Y-125121288D01*
X152681161Y-125361785D01*
X152743947Y-125596104D01*
X152836773Y-125820205D01*
X152836776Y-125820212D01*
X152958064Y-126030289D01*
X152958066Y-126030292D01*
X152958067Y-126030293D01*
X153105733Y-126222736D01*
X153105739Y-126222743D01*
X153277256Y-126394260D01*
X153277262Y-126394265D01*
X153469711Y-126541936D01*
X153679788Y-126663224D01*
X153903900Y-126756054D01*
X154138211Y-126818838D01*
X154318586Y-126842584D01*
X154378711Y-126850500D01*
X154378712Y-126850500D01*
X154621289Y-126850500D01*
X154669388Y-126844167D01*
X154861789Y-126818838D01*
X155096100Y-126756054D01*
X155320212Y-126663224D01*
X155530289Y-126541936D01*
X155722738Y-126394265D01*
X155894265Y-126222738D01*
X156041936Y-126030289D01*
X156163224Y-125820212D01*
X156256054Y-125596100D01*
X156318838Y-125361789D01*
X156350500Y-125121288D01*
X156350500Y-124878712D01*
X156318838Y-124638211D01*
X156256054Y-124403900D01*
X156163224Y-124179788D01*
X156041936Y-123969711D01*
X155894265Y-123777262D01*
X155894260Y-123777256D01*
X155722743Y-123605739D01*
X155722736Y-123605733D01*
X155530293Y-123458067D01*
X155530292Y-123458066D01*
X155530289Y-123458064D01*
X155320212Y-123336776D01*
X155320205Y-123336773D01*
X155096104Y-123243947D01*
X154861785Y-123181161D01*
X154621289Y-123149500D01*
X154621288Y-123149500D01*
X154378712Y-123149500D01*
X154378711Y-123149500D01*
X154138214Y-123181161D01*
X153903895Y-123243947D01*
X153679794Y-123336773D01*
X153679785Y-123336777D01*
X153469706Y-123458067D01*
X153277263Y-123605733D01*
X153277256Y-123605739D01*
X153105739Y-123777256D01*
X153105733Y-123777263D01*
X152958067Y-123969706D01*
X152836777Y-124179785D01*
X152836773Y-124179794D01*
X152743947Y-124403895D01*
X152681161Y-124638214D01*
X152649500Y-124878711D01*
X140450500Y-124878711D01*
X140450500Y-90626081D01*
X140444763Y-90597242D01*
X140444763Y-90597240D01*
X140421660Y-90481095D01*
X140421659Y-90481088D01*
X140367408Y-90350117D01*
X140365764Y-90345522D01*
X140282954Y-90221588D01*
X140282953Y-90221587D01*
X140282951Y-90221584D01*
X140178416Y-90117049D01*
X138560867Y-88499500D01*
X134523702Y-84462334D01*
X134440079Y-84378711D01*
X152649500Y-84378711D01*
X152649500Y-84621288D01*
X152681161Y-84861785D01*
X152743947Y-85096104D01*
X152836773Y-85320205D01*
X152836776Y-85320212D01*
X152958064Y-85530289D01*
X152958066Y-85530292D01*
X152958067Y-85530293D01*
X153105733Y-85722736D01*
X153105739Y-85722743D01*
X153277256Y-85894260D01*
X153277262Y-85894265D01*
X153469711Y-86041936D01*
X153679788Y-86163224D01*
X153903900Y-86256054D01*
X154138211Y-86318838D01*
X154318586Y-86342584D01*
X154378711Y-86350500D01*
X154378712Y-86350500D01*
X154621289Y-86350500D01*
X154669388Y-86344167D01*
X154861789Y-86318838D01*
X155096100Y-86256054D01*
X155320212Y-86163224D01*
X155530289Y-86041936D01*
X155722738Y-85894265D01*
X155894265Y-85722738D01*
X156041936Y-85530289D01*
X156163224Y-85320212D01*
X156256054Y-85096100D01*
X156318838Y-84861789D01*
X156350500Y-84621288D01*
X156350500Y-84378712D01*
X156318838Y-84138211D01*
X156256054Y-83903900D01*
X156163224Y-83679788D01*
X156041936Y-83469711D01*
X155894265Y-83277262D01*
X155894260Y-83277256D01*
X155722743Y-83105739D01*
X155722736Y-83105733D01*
X155530293Y-82958067D01*
X155530292Y-82958066D01*
X155530289Y-82958064D01*
X155320212Y-82836776D01*
X155320205Y-82836773D01*
X155096104Y-82743947D01*
X154861785Y-82681161D01*
X154621289Y-82649500D01*
X154621288Y-82649500D01*
X154378712Y-82649500D01*
X154378711Y-82649500D01*
X154138214Y-82681161D01*
X153903895Y-82743947D01*
X153679794Y-82836773D01*
X153679785Y-82836777D01*
X153469706Y-82958067D01*
X153277263Y-83105733D01*
X153277256Y-83105739D01*
X153105739Y-83277256D01*
X153105733Y-83277263D01*
X152958067Y-83469706D01*
X152836777Y-83679785D01*
X152836773Y-83679794D01*
X152743947Y-83903895D01*
X152681161Y-84138214D01*
X152649500Y-84378711D01*
X134440079Y-84378711D01*
X130478421Y-80417052D01*
X130478417Y-80417049D01*
X130478416Y-80417048D01*
X130355494Y-80334916D01*
X130355492Y-80334915D01*
X130355490Y-80334914D01*
X130218912Y-80278342D01*
X130218906Y-80278340D01*
X130073919Y-80249500D01*
X130073917Y-80249500D01*
X129926083Y-80249500D01*
X129926081Y-80249500D01*
X129781093Y-80278340D01*
X129781087Y-80278342D01*
X129644509Y-80334914D01*
X129644502Y-80334918D01*
X129582418Y-80376400D01*
X129521584Y-80417048D01*
X129521582Y-80417049D01*
X129521579Y-80417052D01*
X129521578Y-80417052D01*
X129417052Y-80521578D01*
X129417052Y-80521579D01*
X129417049Y-80521582D01*
X129417048Y-80521584D01*
X129376400Y-80582418D01*
X129334918Y-80644502D01*
X129334914Y-80644509D01*
X129278342Y-80781087D01*
X129278340Y-80781093D01*
X129249500Y-80926080D01*
X129249500Y-80926083D01*
X129249500Y-81073917D01*
X129249500Y-81073919D01*
X129249499Y-81073919D01*
X129278340Y-81218906D01*
X129278342Y-81218912D01*
X129334916Y-81355494D01*
X129417048Y-81478416D01*
X129417051Y-81478419D01*
X129417052Y-81478420D01*
X129417052Y-81478421D01*
X138913181Y-90974548D01*
X138946666Y-91035871D01*
X138949500Y-91062229D01*
X138949500Y-129472230D01*
X138929815Y-129539269D01*
X138898386Y-129572547D01*
X138828358Y-129623426D01*
X138828349Y-129623433D01*
X138679433Y-129772349D01*
X138679433Y-129772350D01*
X138679431Y-129772352D01*
X138627463Y-129843879D01*
X138555638Y-129942737D01*
X138540484Y-129972479D01*
X138492510Y-130023274D01*
X138424689Y-130040069D01*
X138358554Y-130017531D01*
X138319516Y-129972479D01*
X138304361Y-129942737D01*
X138287115Y-129919000D01*
X138180569Y-129772352D01*
X138031648Y-129623431D01*
X137861265Y-129499640D01*
X137807470Y-129472230D01*
X137673618Y-129404028D01*
X137473316Y-129338946D01*
X137395505Y-129326622D01*
X137265303Y-129306000D01*
X137054697Y-129306000D01*
X136959972Y-129321003D01*
X136846683Y-129338946D01*
X136646381Y-129404028D01*
X136458734Y-129499640D01*
X136378024Y-129558280D01*
X136288352Y-129623431D01*
X136288350Y-129623433D01*
X136288349Y-129623433D01*
X136139433Y-129772349D01*
X136139433Y-129772350D01*
X136139431Y-129772352D01*
X136087463Y-129843879D01*
X136015638Y-129942737D01*
X136000484Y-129972479D01*
X135952510Y-130023274D01*
X135884689Y-130040069D01*
X135818554Y-130017531D01*
X135779516Y-129972479D01*
X135764361Y-129942737D01*
X135747115Y-129919000D01*
X135640569Y-129772352D01*
X135491648Y-129623431D01*
X135321265Y-129499640D01*
X135267470Y-129472230D01*
X135133618Y-129404028D01*
X134933316Y-129338946D01*
X134855505Y-129326622D01*
X134725303Y-129306000D01*
X134514697Y-129306000D01*
X134419972Y-129321003D01*
X134306683Y-129338946D01*
X134106381Y-129404028D01*
X133918734Y-129499640D01*
X133838024Y-129558280D01*
X133748352Y-129623431D01*
X133748350Y-129623433D01*
X133748349Y-129623433D01*
X133599433Y-129772349D01*
X133599433Y-129772350D01*
X133599431Y-129772352D01*
X133547463Y-129843879D01*
X133475638Y-129942737D01*
X133460484Y-129972479D01*
X133412510Y-130023274D01*
X133344689Y-130040069D01*
X133278554Y-130017531D01*
X133239516Y-129972479D01*
X133224361Y-129942737D01*
X133207115Y-129919000D01*
X133100569Y-129772352D01*
X132951648Y-129623431D01*
X132781265Y-129499640D01*
X132727470Y-129472230D01*
X132593618Y-129404028D01*
X132393316Y-129338946D01*
X132315505Y-129326622D01*
X132185303Y-129306000D01*
X131974697Y-129306000D01*
X131879972Y-129321003D01*
X131766683Y-129338946D01*
X131566381Y-129404028D01*
X131378734Y-129499640D01*
X131298024Y-129558280D01*
X131208352Y-129623431D01*
X131208350Y-129623433D01*
X131208349Y-129623433D01*
X131059433Y-129772349D01*
X131059433Y-129772350D01*
X131059431Y-129772352D01*
X131007463Y-129843879D01*
X130935638Y-129942737D01*
X130920484Y-129972479D01*
X130872510Y-130023274D01*
X130804689Y-130040069D01*
X130738554Y-130017531D01*
X130699516Y-129972479D01*
X130684361Y-129942737D01*
X130667115Y-129919000D01*
X130560569Y-129772352D01*
X130411648Y-129623431D01*
X130241265Y-129499640D01*
X130187470Y-129472230D01*
X130053618Y-129404028D01*
X129853316Y-129338946D01*
X129775505Y-129326622D01*
X129645303Y-129306000D01*
X129434697Y-129306000D01*
X129339972Y-129321003D01*
X129226683Y-129338946D01*
X129026381Y-129404028D01*
X128838734Y-129499640D01*
X128758024Y-129558280D01*
X128668352Y-129623431D01*
X128668350Y-129623433D01*
X128668349Y-129623433D01*
X128519433Y-129772349D01*
X128519433Y-129772350D01*
X128519431Y-129772352D01*
X128467463Y-129843879D01*
X128395640Y-129942734D01*
X128300028Y-130130381D01*
X128234946Y-130330683D01*
X128202000Y-130538697D01*
X128202000Y-130749302D01*
X128234946Y-130957316D01*
X128300028Y-131157618D01*
X128357528Y-131270467D01*
X128395640Y-131345265D01*
X128519431Y-131515648D01*
X128668352Y-131664569D01*
X128838735Y-131788360D01*
X128896283Y-131817682D01*
X129026381Y-131883971D01*
X129026383Y-131883971D01*
X129026386Y-131883973D01*
X129226684Y-131949054D01*
X129434697Y-131982000D01*
X129434698Y-131982000D01*
X129645302Y-131982000D01*
X129645303Y-131982000D01*
X129853316Y-131949054D01*
X130053614Y-131883973D01*
X130241265Y-131788360D01*
X130411648Y-131664569D01*
X130560569Y-131515648D01*
X130684360Y-131345265D01*
X130699515Y-131315522D01*
X130747489Y-131264725D01*
X130815310Y-131247930D01*
X130881445Y-131270467D01*
X130920485Y-131315522D01*
X130935638Y-131345263D01*
X130957048Y-131374731D01*
X131059431Y-131515648D01*
X131208352Y-131664569D01*
X131378735Y-131788360D01*
X131436283Y-131817682D01*
X131566381Y-131883971D01*
X131566383Y-131883971D01*
X131566386Y-131883973D01*
X131766684Y-131949054D01*
X131974697Y-131982000D01*
X131974698Y-131982000D01*
X132185302Y-131982000D01*
X132185303Y-131982000D01*
X132393316Y-131949054D01*
X132593614Y-131883973D01*
X132781265Y-131788360D01*
X132951648Y-131664569D01*
X133100569Y-131515648D01*
X133224360Y-131345265D01*
X133239515Y-131315522D01*
X133287489Y-131264725D01*
X133355310Y-131247930D01*
X133421445Y-131270467D01*
X133460485Y-131315522D01*
X133475638Y-131345263D01*
X133497048Y-131374731D01*
X133599431Y-131515648D01*
X133748352Y-131664569D01*
X133918735Y-131788360D01*
X133976283Y-131817682D01*
X134106381Y-131883971D01*
X134106383Y-131883971D01*
X134106386Y-131883973D01*
X134191841Y-131911739D01*
X134306683Y-131949054D01*
X134333765Y-131953343D01*
X134486640Y-131977556D01*
X134549773Y-132007484D01*
X134586705Y-132066795D01*
X134585707Y-132136657D01*
X134554922Y-132187709D01*
X133029451Y-133713181D01*
X132968128Y-133746666D01*
X132941770Y-133749500D01*
X121202229Y-133749500D01*
X121135190Y-133729815D01*
X121114548Y-133713181D01*
X119315548Y-131914181D01*
X119282063Y-131852858D01*
X119287047Y-131783166D01*
X119328919Y-131727233D01*
X119394383Y-131702816D01*
X119403229Y-131702500D01*
X119474638Y-131702500D01*
X119661586Y-131672890D01*
X119841604Y-131614398D01*
X120010247Y-131528469D01*
X120036118Y-131509671D01*
X119616007Y-131089561D01*
X119680785Y-131062729D01*
X119784789Y-130993236D01*
X119873236Y-130904789D01*
X119942729Y-130800785D01*
X119969560Y-130736007D01*
X120389671Y-131156118D01*
X120408469Y-131130247D01*
X120494398Y-130961602D01*
X120531805Y-130846477D01*
X120571242Y-130788802D01*
X120635601Y-130761603D01*
X120704447Y-130773517D01*
X120755923Y-130820761D01*
X120767667Y-130846476D01*
X120805136Y-130961792D01*
X120805135Y-130961792D01*
X120856566Y-131062729D01*
X120891102Y-131130509D01*
X121002403Y-131283702D01*
X121136298Y-131417597D01*
X121289491Y-131528898D01*
X121348116Y-131558769D01*
X121458207Y-131614864D01*
X121458210Y-131614865D01*
X121499523Y-131628288D01*
X121638297Y-131673378D01*
X121825322Y-131703000D01*
X121825323Y-131703000D01*
X122014677Y-131703000D01*
X122014678Y-131703000D01*
X122201703Y-131673378D01*
X122381792Y-131614864D01*
X122550509Y-131528898D01*
X122703702Y-131417597D01*
X122837597Y-131283702D01*
X122948898Y-131130509D01*
X123034864Y-130961792D01*
X123072069Y-130847286D01*
X123111506Y-130789611D01*
X123175864Y-130762412D01*
X123244711Y-130774326D01*
X123296187Y-130821570D01*
X123307931Y-130847286D01*
X123345134Y-130961789D01*
X123345135Y-130961792D01*
X123396566Y-131062729D01*
X123431102Y-131130509D01*
X123542403Y-131283702D01*
X123676298Y-131417597D01*
X123829491Y-131528898D01*
X123888116Y-131558769D01*
X123998207Y-131614864D01*
X123998210Y-131614865D01*
X124039523Y-131628288D01*
X124178297Y-131673378D01*
X124365322Y-131703000D01*
X124365323Y-131703000D01*
X124554677Y-131703000D01*
X124554678Y-131703000D01*
X124741703Y-131673378D01*
X124921792Y-131614864D01*
X125090509Y-131528898D01*
X125243702Y-131417597D01*
X125377597Y-131283702D01*
X125488898Y-131130509D01*
X125574864Y-130961792D01*
X125633378Y-130781703D01*
X125663000Y-130594678D01*
X125663000Y-130405322D01*
X125633378Y-130218297D01*
X125575469Y-130040069D01*
X125574865Y-130038210D01*
X125574864Y-130038207D01*
X125514124Y-129919000D01*
X125488898Y-129869491D01*
X125377597Y-129716298D01*
X125243702Y-129582403D01*
X125090509Y-129471102D01*
X125066677Y-129458959D01*
X124921792Y-129385135D01*
X124921789Y-129385134D01*
X124741704Y-129326622D01*
X124611501Y-129306000D01*
X124554678Y-129297000D01*
X124365322Y-129297000D01*
X124308499Y-129306000D01*
X124178295Y-129326622D01*
X123998210Y-129385134D01*
X123998207Y-129385135D01*
X123829490Y-129471102D01*
X123676295Y-129582405D01*
X123542405Y-129716295D01*
X123431102Y-129869490D01*
X123345135Y-130038207D01*
X123345134Y-130038210D01*
X123307931Y-130152713D01*
X123268494Y-130210388D01*
X123204135Y-130237587D01*
X123135289Y-130225673D01*
X123083813Y-130178429D01*
X123072069Y-130152713D01*
X123034865Y-130038210D01*
X123034864Y-130038207D01*
X122974124Y-129919000D01*
X122948898Y-129869491D01*
X122837597Y-129716298D01*
X122703702Y-129582403D01*
X122550509Y-129471102D01*
X122526677Y-129458959D01*
X122381792Y-129385135D01*
X122381789Y-129385134D01*
X122201704Y-129326622D01*
X122071501Y-129306000D01*
X122014678Y-129297000D01*
X121825322Y-129297000D01*
X121768499Y-129306000D01*
X121638295Y-129326622D01*
X121458210Y-129385134D01*
X121458207Y-129385135D01*
X121289490Y-129471102D01*
X121136295Y-129582405D01*
X121002405Y-129716295D01*
X120891102Y-129869490D01*
X120805136Y-130038207D01*
X120767667Y-130153523D01*
X120728229Y-130211198D01*
X120663870Y-130238396D01*
X120595024Y-130226481D01*
X120543548Y-130179237D01*
X120531805Y-130153522D01*
X120494398Y-130038397D01*
X120408469Y-129869752D01*
X120389671Y-129843880D01*
X120389671Y-129843879D01*
X119969560Y-130263990D01*
X119942729Y-130199215D01*
X119873236Y-130095211D01*
X119784789Y-130006764D01*
X119680785Y-129937271D01*
X119616007Y-129910438D01*
X120036119Y-129490327D01*
X120036118Y-129490326D01*
X120010250Y-129471532D01*
X119841604Y-129385601D01*
X119661586Y-129327109D01*
X119474638Y-129297500D01*
X119285362Y-129297500D01*
X119098413Y-129327109D01*
X118918395Y-129385601D01*
X118749750Y-129471531D01*
X118723880Y-129490326D01*
X118723880Y-129490327D01*
X119143992Y-129910438D01*
X119079215Y-129937271D01*
X118975211Y-130006764D01*
X118886764Y-130095211D01*
X118817271Y-130199215D01*
X118790438Y-130263992D01*
X118370326Y-129843880D01*
X118351531Y-129869750D01*
X118265601Y-130038395D01*
X118228194Y-130153523D01*
X118188756Y-130211198D01*
X118124397Y-130238396D01*
X118055551Y-130226481D01*
X118004075Y-130179237D01*
X117992332Y-130153522D01*
X117954865Y-130038210D01*
X117954864Y-130038207D01*
X117894124Y-129919000D01*
X117868898Y-129869491D01*
X117757597Y-129716298D01*
X117626819Y-129585520D01*
X117593334Y-129524197D01*
X117590500Y-129497839D01*
X117590500Y-91522230D01*
X117610185Y-91455191D01*
X117626819Y-91434549D01*
X119332947Y-89728421D01*
X119332952Y-89728416D01*
X119415084Y-89605494D01*
X119471658Y-89468912D01*
X119500500Y-89323917D01*
X119500500Y-89176083D01*
X119500500Y-89176080D01*
X119471659Y-89031092D01*
X119471658Y-89031091D01*
X119471658Y-89031087D01*
X119415084Y-88894506D01*
X119332952Y-88771584D01*
X119332947Y-88771579D01*
X119332947Y-88771578D01*
X119228421Y-88667052D01*
X119228417Y-88667049D01*
X119228416Y-88667048D01*
X119105494Y-88584916D01*
X119105489Y-88584914D01*
X118968913Y-88528342D01*
X118968907Y-88528340D01*
X118823919Y-88499500D01*
X118823917Y-88499500D01*
X118676083Y-88499500D01*
X118676081Y-88499500D01*
X118531093Y-88528340D01*
X118531087Y-88528342D01*
X118394509Y-88584914D01*
X118394502Y-88584918D01*
X118332418Y-88626400D01*
X118271584Y-88667048D01*
X118271582Y-88667049D01*
X118271579Y-88667052D01*
X118271578Y-88667052D01*
X116257050Y-90681580D01*
X116257044Y-90681588D01*
X116207812Y-90755268D01*
X116207813Y-90755269D01*
X116174921Y-90804496D01*
X116174914Y-90804508D01*
X116118342Y-90941086D01*
X116118340Y-90941092D01*
X116089500Y-91086079D01*
X116089500Y-129497839D01*
X116069815Y-129564878D01*
X116053181Y-129585520D01*
X115922405Y-129716295D01*
X115811102Y-129869490D01*
X115725135Y-130038207D01*
X115725134Y-130038210D01*
X115666622Y-130218295D01*
X115637000Y-130405322D01*
X108500500Y-130405322D01*
X108500500Y-124878711D01*
X110649500Y-124878711D01*
X110649500Y-125121288D01*
X110681161Y-125361785D01*
X110743947Y-125596104D01*
X110836773Y-125820205D01*
X110836776Y-125820212D01*
X110958064Y-126030289D01*
X110958066Y-126030292D01*
X110958067Y-126030293D01*
X111105733Y-126222736D01*
X111105739Y-126222743D01*
X111277256Y-126394260D01*
X111277262Y-126394265D01*
X111469711Y-126541936D01*
X111679788Y-126663224D01*
X111903900Y-126756054D01*
X112138211Y-126818838D01*
X112318586Y-126842584D01*
X112378711Y-126850500D01*
X112378712Y-126850500D01*
X112621289Y-126850500D01*
X112669388Y-126844167D01*
X112861789Y-126818838D01*
X113096100Y-126756054D01*
X113320212Y-126663224D01*
X113530289Y-126541936D01*
X113722738Y-126394265D01*
X113894265Y-126222738D01*
X114041936Y-126030289D01*
X114163224Y-125820212D01*
X114256054Y-125596100D01*
X114318838Y-125361789D01*
X114350500Y-125121288D01*
X114350500Y-124878712D01*
X114318838Y-124638211D01*
X114256054Y-124403900D01*
X114163224Y-124179788D01*
X114041936Y-123969711D01*
X113894265Y-123777262D01*
X113894260Y-123777256D01*
X113722743Y-123605739D01*
X113722736Y-123605733D01*
X113530293Y-123458067D01*
X113530292Y-123458066D01*
X113530289Y-123458064D01*
X113320212Y-123336776D01*
X113320205Y-123336773D01*
X113096104Y-123243947D01*
X112861785Y-123181161D01*
X112621289Y-123149500D01*
X112621288Y-123149500D01*
X112378712Y-123149500D01*
X112378711Y-123149500D01*
X112138214Y-123181161D01*
X111903895Y-123243947D01*
X111679794Y-123336773D01*
X111679785Y-123336777D01*
X111469706Y-123458067D01*
X111277263Y-123605733D01*
X111277256Y-123605739D01*
X111105739Y-123777256D01*
X111105733Y-123777263D01*
X110958067Y-123969706D01*
X110836777Y-124179785D01*
X110836773Y-124179794D01*
X110743947Y-124403895D01*
X110681161Y-124638214D01*
X110649500Y-124878711D01*
X108500500Y-124878711D01*
X108500500Y-79629844D01*
X151196000Y-79629844D01*
X151202401Y-79689372D01*
X151202403Y-79689379D01*
X151252645Y-79824086D01*
X151252649Y-79824093D01*
X151338809Y-79939187D01*
X151338812Y-79939190D01*
X151453906Y-80025350D01*
X151453913Y-80025354D01*
X151588620Y-80075596D01*
X151588627Y-80075598D01*
X151648155Y-80081999D01*
X151648172Y-80082000D01*
X151896000Y-80082000D01*
X152396000Y-80082000D01*
X152643828Y-80082000D01*
X152643844Y-80081999D01*
X152703372Y-80075598D01*
X152703379Y-80075596D01*
X152838086Y-80025354D01*
X152838093Y-80025350D01*
X152953187Y-79939190D01*
X152953190Y-79939187D01*
X153039350Y-79824093D01*
X153039354Y-79824086D01*
X153089596Y-79689379D01*
X153089598Y-79689372D01*
X153095999Y-79629844D01*
X154244000Y-79629844D01*
X154250401Y-79689372D01*
X154250403Y-79689379D01*
X154300645Y-79824086D01*
X154300649Y-79824093D01*
X154386809Y-79939187D01*
X154386812Y-79939190D01*
X154501906Y-80025350D01*
X154501913Y-80025354D01*
X154636620Y-80075596D01*
X154636627Y-80075598D01*
X154696155Y-80081999D01*
X154696172Y-80082000D01*
X154944000Y-80082000D01*
X155444000Y-80082000D01*
X155691828Y-80082000D01*
X155691844Y-80081999D01*
X155751372Y-80075598D01*
X155751379Y-80075596D01*
X155886086Y-80025354D01*
X155886093Y-80025350D01*
X156001187Y-79939190D01*
X156001190Y-79939187D01*
X156087350Y-79824093D01*
X156087354Y-79824086D01*
X156137596Y-79689379D01*
X156137598Y-79689372D01*
X156143999Y-79629844D01*
X156144000Y-79629827D01*
X156144000Y-79482000D01*
X155444000Y-79482000D01*
X155444000Y-80082000D01*
X154944000Y-80082000D01*
X154944000Y-79482000D01*
X154244000Y-79482000D01*
X154244000Y-79629844D01*
X153095999Y-79629844D01*
X153096000Y-79629827D01*
X153096000Y-79482000D01*
X152396000Y-79482000D01*
X152396000Y-80082000D01*
X151896000Y-80082000D01*
X151896000Y-79482000D01*
X151196000Y-79482000D01*
X151196000Y-79629844D01*
X108500500Y-79629844D01*
X108500500Y-78834155D01*
X151196000Y-78834155D01*
X151196000Y-78982000D01*
X151896000Y-78982000D01*
X152396000Y-78982000D01*
X153096000Y-78982000D01*
X153096000Y-78834172D01*
X153095999Y-78834155D01*
X154244000Y-78834155D01*
X154244000Y-78982000D01*
X154944000Y-78982000D01*
X155444000Y-78982000D01*
X156144000Y-78982000D01*
X156144000Y-78834172D01*
X156143999Y-78834155D01*
X156137598Y-78774627D01*
X156137596Y-78774620D01*
X156087354Y-78639913D01*
X156087350Y-78639906D01*
X156001190Y-78524812D01*
X156001187Y-78524809D01*
X155886093Y-78438649D01*
X155886086Y-78438645D01*
X155751379Y-78388403D01*
X155751372Y-78388401D01*
X155691844Y-78382000D01*
X155444000Y-78382000D01*
X155444000Y-78982000D01*
X154944000Y-78982000D01*
X154944000Y-78382000D01*
X154696155Y-78382000D01*
X154636627Y-78388401D01*
X154636620Y-78388403D01*
X154501913Y-78438645D01*
X154501906Y-78438649D01*
X154386812Y-78524809D01*
X154386809Y-78524812D01*
X154300649Y-78639906D01*
X154300645Y-78639913D01*
X154250403Y-78774620D01*
X154250401Y-78774627D01*
X154244000Y-78834155D01*
X153095999Y-78834155D01*
X153089598Y-78774627D01*
X153089596Y-78774620D01*
X153039354Y-78639913D01*
X153039350Y-78639906D01*
X152953190Y-78524812D01*
X152953187Y-78524809D01*
X152838093Y-78438649D01*
X152838086Y-78438645D01*
X152703379Y-78388403D01*
X152703372Y-78388401D01*
X152643844Y-78382000D01*
X152396000Y-78382000D01*
X152396000Y-78982000D01*
X151896000Y-78982000D01*
X151896000Y-78382000D01*
X151648155Y-78382000D01*
X151588627Y-78388401D01*
X151588620Y-78388403D01*
X151453913Y-78438645D01*
X151453906Y-78438649D01*
X151338812Y-78524809D01*
X151338809Y-78524812D01*
X151252649Y-78639906D01*
X151252645Y-78639913D01*
X151202403Y-78774620D01*
X151202401Y-78774627D01*
X151196000Y-78834155D01*
X108500500Y-78834155D01*
X108500500Y-72878711D01*
X110649500Y-72878711D01*
X110649500Y-73121288D01*
X110681130Y-73361551D01*
X110681162Y-73361789D01*
X110692480Y-73404027D01*
X110743947Y-73596104D01*
X110807533Y-73749613D01*
X110836776Y-73820212D01*
X110958064Y-74030289D01*
X110958066Y-74030292D01*
X110958067Y-74030293D01*
X111105733Y-74222736D01*
X111105739Y-74222743D01*
X111277256Y-74394260D01*
X111277263Y-74394266D01*
X111337528Y-74440509D01*
X111469711Y-74541936D01*
X111679788Y-74663224D01*
X111903900Y-74756054D01*
X112138211Y-74818838D01*
X112318586Y-74842584D01*
X112378711Y-74850500D01*
X112378712Y-74850500D01*
X112621289Y-74850500D01*
X112669388Y-74844167D01*
X112861789Y-74818838D01*
X113096100Y-74756054D01*
X113320212Y-74663224D01*
X113530289Y-74541936D01*
X113722738Y-74394265D01*
X113894265Y-74222738D01*
X114041936Y-74030289D01*
X114163224Y-73820212D01*
X114256054Y-73596100D01*
X114318838Y-73361789D01*
X114350500Y-73121288D01*
X114350500Y-72878712D01*
X114345142Y-72838017D01*
X114332009Y-72738254D01*
X114318838Y-72638211D01*
X114256054Y-72403900D01*
X114163224Y-72179788D01*
X114041936Y-71969711D01*
X113894265Y-71777262D01*
X113894260Y-71777256D01*
X113722743Y-71605739D01*
X113722736Y-71605733D01*
X113530293Y-71458067D01*
X113530292Y-71458066D01*
X113530289Y-71458064D01*
X113320212Y-71336776D01*
X113320205Y-71336773D01*
X113096104Y-71243947D01*
X112861785Y-71181161D01*
X112621289Y-71149500D01*
X112621288Y-71149500D01*
X112378712Y-71149500D01*
X112378711Y-71149500D01*
X112138214Y-71181161D01*
X111903895Y-71243947D01*
X111679794Y-71336773D01*
X111679785Y-71336777D01*
X111469706Y-71458067D01*
X111277263Y-71605733D01*
X111277256Y-71605739D01*
X111105739Y-71777256D01*
X111105733Y-71777263D01*
X110958067Y-71969706D01*
X110836777Y-72179785D01*
X110836773Y-72179794D01*
X110743947Y-72403895D01*
X110681161Y-72638214D01*
X110649500Y-72878711D01*
X108500500Y-72878711D01*
X108500500Y-66044628D01*
X117570000Y-66044628D01*
X117584503Y-66117540D01*
X117584505Y-66117544D01*
X117639760Y-66200239D01*
X117722455Y-66255494D01*
X117722459Y-66255496D01*
X117795371Y-66269999D01*
X117795374Y-66270000D01*
X118170000Y-66270000D01*
X118170000Y-65870000D01*
X117570000Y-65870000D01*
X117570000Y-66044628D01*
X108500500Y-66044628D01*
X108500500Y-65394500D01*
X108520185Y-65327461D01*
X108572989Y-65281706D01*
X108624500Y-65270500D01*
X117446000Y-65270500D01*
X117513039Y-65290185D01*
G37*
%TD.AperFunction*%
%TA.AperFunction,Conductor*%
G36*
X148824282Y-70842739D02*
G01*
X148856090Y-70850858D01*
X148857655Y-70852539D01*
X148859855Y-70853185D01*
X148881328Y-70877967D01*
X148903700Y-70901996D01*
X148904107Y-70904255D01*
X148905610Y-70905989D01*
X148910280Y-70938468D01*
X148916105Y-70970755D01*
X148915357Y-70973777D01*
X148915554Y-70975147D01*
X148910074Y-70995119D01*
X148908053Y-71003288D01*
X148881803Y-71069351D01*
X148854000Y-71209126D01*
X148854000Y-71583000D01*
X149304000Y-71583000D01*
X149304000Y-72083000D01*
X148854000Y-72083000D01*
X148854000Y-72456873D01*
X148882820Y-72601759D01*
X148882822Y-72601767D01*
X148939357Y-72738254D01*
X148939362Y-72738264D01*
X149021436Y-72861096D01*
X149021439Y-72861100D01*
X149125899Y-72965560D01*
X149125907Y-72965566D01*
X149248739Y-73047640D01*
X149248743Y-73047642D01*
X149353999Y-73091240D01*
X149354000Y-73091240D01*
X149354000Y-72549988D01*
X149363940Y-72567205D01*
X149419795Y-72623060D01*
X149488204Y-72662556D01*
X149564504Y-72683000D01*
X149643496Y-72683000D01*
X149719796Y-72662556D01*
X149788205Y-72623060D01*
X149844060Y-72567205D01*
X149854000Y-72549988D01*
X149854000Y-73091240D01*
X149959256Y-73047642D01*
X149998567Y-73021375D01*
X150065244Y-73000496D01*
X150132624Y-73018980D01*
X150179315Y-73070958D01*
X150184975Y-73089144D01*
X150185821Y-73088870D01*
X150188837Y-73098155D01*
X150246356Y-73211041D01*
X150246363Y-73211050D01*
X150323132Y-73287819D01*
X150356617Y-73349142D01*
X150351633Y-73418834D01*
X150309761Y-73474767D01*
X150244297Y-73499184D01*
X150235451Y-73499500D01*
X137562050Y-73499500D01*
X137495011Y-73479815D01*
X137449256Y-73427011D01*
X137439312Y-73357853D01*
X137454663Y-73313500D01*
X137512982Y-73212488D01*
X137512981Y-73212488D01*
X137512984Y-73212485D01*
X137550500Y-73072475D01*
X137550500Y-72996544D01*
X137570185Y-72929505D01*
X137586819Y-72908863D01*
X139625863Y-70869819D01*
X139687186Y-70836334D01*
X139713544Y-70833500D01*
X148792816Y-70833500D01*
X148824282Y-70842739D01*
G37*
%TD.AperFunction*%
%TA.AperFunction,Conductor*%
G36*
X151736905Y-70853185D02*
G01*
X151757547Y-70869819D01*
X152248547Y-71360819D01*
X152282032Y-71422142D01*
X152277048Y-71491834D01*
X152235176Y-71547767D01*
X152169712Y-71572184D01*
X152160867Y-71572500D01*
X152060867Y-71572500D01*
X152013453Y-71578741D01*
X151947622Y-71609439D01*
X151878544Y-71619930D01*
X151838924Y-71607541D01*
X151799301Y-71587352D01*
X151705524Y-71572500D01*
X151342482Y-71572500D01*
X151261519Y-71585323D01*
X151248696Y-71587354D01*
X151179743Y-71622487D01*
X151111075Y-71635383D01*
X151067155Y-71622487D01*
X150999143Y-71587833D01*
X150974000Y-71583851D01*
X150974000Y-71930252D01*
X150973618Y-71939975D01*
X150973500Y-71941475D01*
X150973500Y-71941480D01*
X150973500Y-71941481D01*
X150973500Y-72349002D01*
X150953817Y-72416039D01*
X150901013Y-72461794D01*
X150849501Y-72473000D01*
X150598000Y-72473000D01*
X150530961Y-72453315D01*
X150485206Y-72400511D01*
X150474000Y-72349000D01*
X150474000Y-71583851D01*
X150464716Y-71575921D01*
X150428102Y-71571189D01*
X150374651Y-71526192D01*
X150354013Y-71459440D01*
X150354000Y-71457672D01*
X150354000Y-71209128D01*
X150353999Y-71209126D01*
X150325179Y-71064240D01*
X150325177Y-71064232D01*
X150300623Y-71004953D01*
X150293154Y-70935484D01*
X150324429Y-70873004D01*
X150384518Y-70837352D01*
X150415184Y-70833500D01*
X151669866Y-70833500D01*
X151736905Y-70853185D01*
G37*
%TD.AperFunction*%
%TD*%
M02*
