%TF.GenerationSoftware,KiCad,Pcbnew,10.0.0-rc1.1-4-gef7340bffd*%
%TF.CreationDate,2026-02-13T00:34:44+01:00*%
%TF.ProjectId,chu_controller,6368755f-636f-46e7-9472-6f6c6c65722e,rev?*%
%TF.SameCoordinates,Original*%
%TF.FileFunction,Legend,Bot*%
%TF.FilePolarity,Positive*%
%FSLAX46Y46*%
G04 Gerber Fmt 4.6, Leading zero omitted, Abs format (unit mm)*
G04 Created by KiCad (PCBNEW 10.0.0-rc1.1-4-gef7340bffd) date 2026-02-13 00:34:44*
%MOMM*%
%LPD*%
G01*
G04 APERTURE LIST*
%ADD10C,0.254000*%
%ADD11C,0.150000*%
%ADD12C,0.100000*%
%ADD13C,0.120000*%
%ADD14C,0.200000*%
G04 APERTURE END LIST*
D10*
X151553332Y-134788318D02*
X151553332Y-135695461D01*
X151553332Y-135695461D02*
X151613809Y-135876889D01*
X151613809Y-135876889D02*
X151734761Y-135997842D01*
X151734761Y-135997842D02*
X151916190Y-136058318D01*
X151916190Y-136058318D02*
X152037142Y-136058318D01*
X151069523Y-134788318D02*
X150283332Y-134788318D01*
X150283332Y-134788318D02*
X150706666Y-135272127D01*
X150706666Y-135272127D02*
X150525237Y-135272127D01*
X150525237Y-135272127D02*
X150404285Y-135332603D01*
X150404285Y-135332603D02*
X150343809Y-135393080D01*
X150343809Y-135393080D02*
X150283332Y-135514032D01*
X150283332Y-135514032D02*
X150283332Y-135816413D01*
X150283332Y-135816413D02*
X150343809Y-135937365D01*
X150343809Y-135937365D02*
X150404285Y-135997842D01*
X150404285Y-135997842D02*
X150525237Y-136058318D01*
X150525237Y-136058318D02*
X150888094Y-136058318D01*
X150888094Y-136058318D02*
X151009047Y-135997842D01*
X151009047Y-135997842D02*
X151069523Y-135937365D01*
D11*
X123415720Y-124719819D02*
X123415720Y-125529342D01*
X123415720Y-125529342D02*
X123368101Y-125624580D01*
X123368101Y-125624580D02*
X123320482Y-125672200D01*
X123320482Y-125672200D02*
X123225244Y-125719819D01*
X123225244Y-125719819D02*
X123034768Y-125719819D01*
X123034768Y-125719819D02*
X122939530Y-125672200D01*
X122939530Y-125672200D02*
X122891911Y-125624580D01*
X122891911Y-125624580D02*
X122844292Y-125529342D01*
X122844292Y-125529342D02*
X122844292Y-124719819D01*
X121844292Y-125719819D02*
X122415720Y-125719819D01*
X122130006Y-125719819D02*
X122130006Y-124719819D01*
X122130006Y-124719819D02*
X122225244Y-124862676D01*
X122225244Y-124862676D02*
X122320482Y-124957914D01*
X122320482Y-124957914D02*
X122415720Y-125005533D01*
D10*
X142663332Y-132304318D02*
X142663332Y-133211461D01*
X142663332Y-133211461D02*
X142723809Y-133392889D01*
X142723809Y-133392889D02*
X142844761Y-133513842D01*
X142844761Y-133513842D02*
X143026190Y-133574318D01*
X143026190Y-133574318D02*
X143147142Y-133574318D01*
X141393332Y-133574318D02*
X142119047Y-133574318D01*
X141756190Y-133574318D02*
X141756190Y-132304318D01*
X141756190Y-132304318D02*
X141877142Y-132485746D01*
X141877142Y-132485746D02*
X141998094Y-132606699D01*
X141998094Y-132606699D02*
X142119047Y-132667175D01*
D11*
X119859580Y-84795833D02*
X119907200Y-84748214D01*
X119907200Y-84748214D02*
X119954819Y-84605357D01*
X119954819Y-84605357D02*
X119954819Y-84510119D01*
X119954819Y-84510119D02*
X119907200Y-84367262D01*
X119907200Y-84367262D02*
X119811961Y-84272024D01*
X119811961Y-84272024D02*
X119716723Y-84224405D01*
X119716723Y-84224405D02*
X119526247Y-84176786D01*
X119526247Y-84176786D02*
X119383390Y-84176786D01*
X119383390Y-84176786D02*
X119192914Y-84224405D01*
X119192914Y-84224405D02*
X119097676Y-84272024D01*
X119097676Y-84272024D02*
X119002438Y-84367262D01*
X119002438Y-84367262D02*
X118954819Y-84510119D01*
X118954819Y-84510119D02*
X118954819Y-84605357D01*
X118954819Y-84605357D02*
X119002438Y-84748214D01*
X119002438Y-84748214D02*
X119050057Y-84795833D01*
X119050057Y-85176786D02*
X119002438Y-85224405D01*
X119002438Y-85224405D02*
X118954819Y-85319643D01*
X118954819Y-85319643D02*
X118954819Y-85557738D01*
X118954819Y-85557738D02*
X119002438Y-85652976D01*
X119002438Y-85652976D02*
X119050057Y-85700595D01*
X119050057Y-85700595D02*
X119145295Y-85748214D01*
X119145295Y-85748214D02*
X119240533Y-85748214D01*
X119240533Y-85748214D02*
X119383390Y-85700595D01*
X119383390Y-85700595D02*
X119954819Y-85129167D01*
X119954819Y-85129167D02*
X119954819Y-85748214D01*
D10*
X121073332Y-134788318D02*
X121073332Y-135695461D01*
X121073332Y-135695461D02*
X121133809Y-135876889D01*
X121133809Y-135876889D02*
X121254761Y-135997842D01*
X121254761Y-135997842D02*
X121436190Y-136058318D01*
X121436190Y-136058318D02*
X121557142Y-136058318D01*
X120529047Y-134909270D02*
X120468571Y-134848794D01*
X120468571Y-134848794D02*
X120347618Y-134788318D01*
X120347618Y-134788318D02*
X120045237Y-134788318D01*
X120045237Y-134788318D02*
X119924285Y-134848794D01*
X119924285Y-134848794D02*
X119863809Y-134909270D01*
X119863809Y-134909270D02*
X119803332Y-135030222D01*
X119803332Y-135030222D02*
X119803332Y-135151175D01*
X119803332Y-135151175D02*
X119863809Y-135332603D01*
X119863809Y-135332603D02*
X120589523Y-136058318D01*
X120589523Y-136058318D02*
X119803332Y-136058318D01*
D11*
X119859580Y-77795833D02*
X119907200Y-77748214D01*
X119907200Y-77748214D02*
X119954819Y-77605357D01*
X119954819Y-77605357D02*
X119954819Y-77510119D01*
X119954819Y-77510119D02*
X119907200Y-77367262D01*
X119907200Y-77367262D02*
X119811961Y-77272024D01*
X119811961Y-77272024D02*
X119716723Y-77224405D01*
X119716723Y-77224405D02*
X119526247Y-77176786D01*
X119526247Y-77176786D02*
X119383390Y-77176786D01*
X119383390Y-77176786D02*
X119192914Y-77224405D01*
X119192914Y-77224405D02*
X119097676Y-77272024D01*
X119097676Y-77272024D02*
X119002438Y-77367262D01*
X119002438Y-77367262D02*
X118954819Y-77510119D01*
X118954819Y-77510119D02*
X118954819Y-77605357D01*
X118954819Y-77605357D02*
X119002438Y-77748214D01*
X119002438Y-77748214D02*
X119050057Y-77795833D01*
X119954819Y-78748214D02*
X119954819Y-78176786D01*
X119954819Y-78462500D02*
X118954819Y-78462500D01*
X118954819Y-78462500D02*
X119097676Y-78367262D01*
X119097676Y-78367262D02*
X119192914Y-78272024D01*
X119192914Y-78272024D02*
X119240533Y-78176786D01*
%TO.C,J3*%
D12*
X146050000Y-131430000D02*
X146050000Y-138695000D01*
X146050000Y-138695000D02*
X156130000Y-138695000D01*
X156130000Y-138695000D02*
X156210000Y-131430000D01*
%TO.C,U1*%
D13*
X124890000Y-77430000D02*
X124890000Y-77850000D01*
X124890000Y-79970000D02*
X124890000Y-80390000D01*
X124890000Y-82510000D02*
X124890000Y-82930000D01*
X124890000Y-85050000D02*
X124890000Y-85470000D01*
X124890000Y-87590000D02*
X124890000Y-88010000D01*
X124890000Y-90130000D02*
X124890000Y-90550000D01*
X124890000Y-92670000D02*
X124890000Y-93090000D01*
X124890000Y-95210000D02*
X124890000Y-95630000D01*
X124890000Y-97750000D02*
X124890000Y-98170000D01*
X124890000Y-100290000D02*
X124890000Y-100710000D01*
X124890000Y-102830000D02*
X124890000Y-103250000D01*
X124890000Y-105370000D02*
X124890000Y-105790000D01*
X124890000Y-107910000D02*
X124890000Y-108330000D01*
X124890000Y-110450000D02*
X124890000Y-110870000D01*
X124890000Y-112990000D02*
X124890000Y-113410000D01*
X124890000Y-115530000D02*
X124890000Y-115950000D01*
X124890000Y-118070000D02*
X124890000Y-118490000D01*
X124890000Y-120610000D02*
X124890000Y-121030000D01*
X124890000Y-123150000D02*
X124890000Y-123570000D01*
X125500000Y-74890000D02*
X127990000Y-74890000D01*
X129337939Y-74890000D02*
X127990000Y-74890000D01*
X129337939Y-126110000D02*
X125500000Y-126110000D01*
X130262061Y-126110000D02*
X131900000Y-126110000D01*
X131265000Y-74890000D02*
X130262061Y-74890000D01*
X134440000Y-126110000D02*
X134020000Y-126110000D01*
X136980000Y-126110000D02*
X136560000Y-126110000D01*
X139100000Y-126110000D02*
X140737939Y-126110000D01*
X139735000Y-74890000D02*
X131265000Y-74890000D01*
X140737939Y-74890000D02*
X139735000Y-74890000D01*
X143010000Y-74890000D02*
X141662060Y-74890000D01*
X145500000Y-74890000D02*
X143010000Y-74890000D01*
X145500000Y-126110000D02*
X141662061Y-126110000D01*
X146079676Y-75310000D02*
X146590000Y-75310000D01*
X146110000Y-77430000D02*
X146110000Y-77850000D01*
X146110000Y-77430000D02*
X146590000Y-77430000D01*
X146110000Y-79970000D02*
X146110000Y-80390000D01*
X146110000Y-82510000D02*
X146110000Y-82930000D01*
X146110000Y-85050000D02*
X146110000Y-85470000D01*
X146110000Y-87590000D02*
X146110000Y-88010000D01*
X146110000Y-90130000D02*
X146110000Y-90550000D01*
X146110000Y-92670000D02*
X146110000Y-93090000D01*
X146110000Y-95210000D02*
X146110000Y-95630000D01*
X146110000Y-97750000D02*
X146110000Y-98170000D01*
X146110000Y-100290000D02*
X146110000Y-100710000D01*
X146110000Y-102830000D02*
X146110000Y-103250000D01*
X146110000Y-105370000D02*
X146110000Y-105790000D01*
X146110000Y-107910000D02*
X146110000Y-108330000D01*
X146110000Y-110450000D02*
X146110000Y-110870000D01*
X146110000Y-112990000D02*
X146110000Y-113410000D01*
X146110000Y-115530000D02*
X146110000Y-115950000D01*
X146110000Y-118070000D02*
X146110000Y-118490000D01*
X146110000Y-120610000D02*
X146110000Y-121030000D01*
X146110000Y-123150000D02*
X146110000Y-123570000D01*
X124920324Y-75310063D02*
G75*
G02*
X125500000Y-74890000I579676J-189937D01*
G01*
X125500000Y-126110000D02*
G75*
G02*
X124920340Y-125689932I-200J609700D01*
G01*
X145500000Y-74890000D02*
G75*
G02*
X146079676Y-75310000I-16J-610051D01*
G01*
X146079676Y-125689937D02*
G75*
G02*
X145500000Y-126110000I-579677J189939D01*
G01*
%TO.C,J1*%
D14*
X128270000Y-134324000D02*
X128270000Y-131404000D01*
X143510000Y-130644000D02*
X143510000Y-134324000D01*
X143510000Y-134324000D02*
X128270000Y-134324000D01*
%TO.C,C2*%
D13*
X120765000Y-85223752D02*
X120765000Y-84701248D01*
X122235000Y-85223752D02*
X122235000Y-84701248D01*
%TO.C,J2*%
D12*
X115570000Y-131430000D02*
X115570000Y-138695000D01*
X115570000Y-138695000D02*
X125650000Y-138695000D01*
X125650000Y-138695000D02*
X125730000Y-131430000D01*
%TO.C,C1*%
D13*
X120765000Y-78223752D02*
X120765000Y-77701248D01*
X122235000Y-78223752D02*
X122235000Y-77701248D01*
%TD*%
M02*
