%TF.GenerationSoftware,KiCad,Pcbnew,10.0.0-rc1.1-4-gef7340bffd*%
%TF.CreationDate,2026-02-13T00:34:44+01:00*%
%TF.ProjectId,chu_controller,6368755f-636f-46e7-9472-6f6c6c65722e,rev?*%
%TF.SameCoordinates,Original*%
%TF.FileFunction,Copper,L2,Bot*%
%TF.FilePolarity,Positive*%
%FSLAX46Y46*%
G04 Gerber Fmt 4.6, Leading zero omitted, Abs format (unit mm)*
G04 Created by KiCad (PCBNEW 10.0.0-rc1.1-4-gef7340bffd) date 2026-02-13 00:34:44*
%MOMM*%
%LPD*%
G01*
G04 APERTURE LIST*
G04 Aperture macros list*
%AMRoundRect*
0 Rectangle with rounded corners*
0 $1 Rounding radius*
0 $2 $3 $4 $5 $6 $7 $8 $9 X,Y pos of 4 corners*
0 Add a 4 corners polygon primitive as box body*
4,1,4,$2,$3,$4,$5,$6,$7,$8,$9,$2,$3,0*
0 Add four circle primitives for the rounded corners*
1,1,$1+$1,$2,$3*
1,1,$1+$1,$4,$5*
1,1,$1+$1,$6,$7*
1,1,$1+$1,$8,$9*
0 Add four rect primitives between the rounded corners*
20,1,$1+$1,$2,$3,$4,$5,0*
20,1,$1+$1,$4,$5,$6,$7,0*
20,1,$1+$1,$6,$7,$8,$9,0*
20,1,$1+$1,$8,$9,$2,$3,0*%
%AMFreePoly0*
4,1,37,0.800000,0.796148,0.878414,0.796148,1.032228,0.765552,1.177117,0.705537,1.307515,0.618408,1.418408,0.507515,1.505537,0.377117,1.565552,0.232228,1.596148,0.078414,1.596148,-0.078414,1.565552,-0.232228,1.505537,-0.377117,1.418408,-0.507515,1.307515,-0.618408,1.177117,-0.705537,1.032228,-0.765552,0.878414,-0.796148,0.800000,-0.796148,0.800000,-0.800000,-1.400000,-0.800000,
-1.403843,-0.796157,-1.439018,-0.796157,-1.511114,-0.766294,-1.566294,-0.711114,-1.596157,-0.639018,-1.596157,-0.603843,-1.600000,-0.600000,-1.600000,0.600000,-1.596157,0.603843,-1.596157,0.639018,-1.566294,0.711114,-1.511114,0.766294,-1.439018,0.796157,-1.403843,0.796157,-1.400000,0.800000,0.800000,0.800000,0.800000,0.796148,0.800000,0.796148,$1*%
%AMFreePoly1*
4,1,37,1.403843,0.796157,1.439018,0.796157,1.511114,0.766294,1.566294,0.711114,1.596157,0.639018,1.596157,0.603843,1.600000,0.600000,1.600000,-0.600000,1.596157,-0.603843,1.596157,-0.639018,1.566294,-0.711114,1.511114,-0.766294,1.439018,-0.796157,1.403843,-0.796157,1.400000,-0.800000,-0.800000,-0.800000,-0.800000,-0.796148,-0.878414,-0.796148,-1.032228,-0.765552,-1.177117,-0.705537,
-1.307515,-0.618408,-1.418408,-0.507515,-1.505537,-0.377117,-1.565552,-0.232228,-1.596148,-0.078414,-1.596148,0.078414,-1.565552,0.232228,-1.505537,0.377117,-1.418408,0.507515,-1.307515,0.618408,-1.177117,0.705537,-1.032228,0.765552,-0.878414,0.796148,-0.800000,0.796148,-0.800000,0.800000,1.400000,0.800000,1.403843,0.796157,1.403843,0.796157,$1*%
%AMFreePoly2*
4,1,37,1.600000,0.796148,1.678414,0.796148,1.832228,0.765552,1.977117,0.705537,2.107515,0.618408,2.218408,0.507515,2.305537,0.377117,2.365552,0.232228,2.396148,0.078414,2.396148,-0.078414,2.365552,-0.232228,2.305537,-0.377117,2.218408,-0.507515,2.107515,-0.618408,1.977117,-0.705537,1.832228,-0.765552,1.678414,-0.796148,1.600000,-0.796148,1.600000,-0.800000,-0.600000,-0.800000,
-0.603843,-0.796157,-0.639018,-0.796157,-0.711114,-0.766294,-0.766294,-0.711114,-0.796157,-0.639018,-0.796157,-0.603843,-0.800000,-0.600000,-0.800000,0.600000,-0.796157,0.603843,-0.796157,0.639018,-0.766294,0.711114,-0.711114,0.766294,-0.639018,0.796157,-0.603843,0.796157,-0.600000,0.800000,1.600000,0.800000,1.600000,0.796148,1.600000,0.796148,$1*%
G04 Aperture macros list end*
%TA.AperFunction,HeatsinkPad*%
%ADD10O,1.000000X2.100000*%
%TD*%
%TA.AperFunction,HeatsinkPad*%
%ADD11O,1.000000X1.600000*%
%TD*%
%TA.AperFunction,ComponentPad*%
%ADD12C,1.905000*%
%TD*%
%TA.AperFunction,SMDPad,CuDef*%
%ADD13O,1.100000X1.800000*%
%TD*%
%TA.AperFunction,SMDPad,CuDef*%
%ADD14O,1.050000X1.450000*%
%TD*%
%TA.AperFunction,SMDPad,CuDef*%
%ADD15FreePoly0,180.000000*%
%TD*%
%TA.AperFunction,SMDPad,CuDef*%
%ADD16RoundRect,0.800000X0.800000X0.000010X-0.800000X0.000010X-0.800000X-0.000010X0.800000X-0.000010X0*%
%TD*%
%TA.AperFunction,SMDPad,CuDef*%
%ADD17FreePoly1,180.000000*%
%TD*%
%TA.AperFunction,SMDPad,CuDef*%
%ADD18RoundRect,0.800000X0.000010X-0.800000X0.000010X0.800000X-0.000010X0.800000X-0.000010X-0.800000X0*%
%TD*%
%TA.AperFunction,SMDPad,CuDef*%
%ADD19FreePoly2,270.000000*%
%TD*%
%TA.AperFunction,SMDPad,CuDef*%
%ADD20RoundRect,0.300000X0.450000X0.450000X-0.450000X0.450000X-0.450000X-0.450000X0.450000X-0.450000X0*%
%TD*%
%TA.AperFunction,ComponentPad*%
%ADD21R,2.175000X2.175000*%
%TD*%
%TA.AperFunction,ComponentPad*%
%ADD22C,2.175000*%
%TD*%
%TA.AperFunction,SMDPad,CuDef*%
%ADD23RoundRect,0.250000X0.475000X-0.337500X0.475000X0.337500X-0.475000X0.337500X-0.475000X-0.337500X0*%
%TD*%
%TA.AperFunction,ViaPad*%
%ADD24C,0.600000*%
%TD*%
%TA.AperFunction,Conductor*%
%ADD25C,0.500000*%
%TD*%
%TA.AperFunction,Conductor*%
%ADD26C,0.200000*%
%TD*%
%TA.AperFunction,Conductor*%
%ADD27C,1.000000*%
%TD*%
G04 APERTURE END LIST*
D10*
%TO.P,USB_C1,13,SHIELD_13*%
%TO.N,GND*%
X158244000Y-71833000D03*
D11*
X158244000Y-67653000D03*
D10*
X149604000Y-71833000D03*
D11*
X149604000Y-67653000D03*
%TD*%
D12*
%TO.P,J3,1,Pin_1_1*%
%TO.N,+3V3*%
X147320000Y-130500000D03*
%TO.P,J3,2,Pin_2_2*%
%TO.N,GND*%
X149860000Y-130500000D03*
%TO.P,J3,3,Pin_3_3*%
%TO.N,/SCL*%
X152400000Y-130500000D03*
%TO.P,J3,4,Pin_4_4*%
%TO.N,/SDA*%
X154940000Y-130500000D03*
%TD*%
D13*
%TO.P,U1,*%
%TO.N,*%
X138225000Y-76500000D03*
D14*
X137925000Y-79530000D03*
X133075000Y-79530000D03*
D13*
X132775000Y-76500000D03*
D15*
%TO.P,U1,1,GPIO0_1*%
%TO.N,unconnected-(U1-GPIO0-Pad1)*%
X145190000Y-76370000D03*
D16*
%TO.P,U1,2,GPIO1_2*%
%TO.N,unconnected-(U1-GPIO1-Pad2)*%
X145190000Y-78910000D03*
D17*
%TO.P,U1,3,GND_3*%
%TO.N,GND*%
X145190000Y-81450000D03*
D16*
%TO.P,U1,4,GPIO2_4*%
%TO.N,/LED_Data*%
X145190000Y-83990000D03*
%TO.P,U1,5,GPIO3_5*%
%TO.N,unconnected-(U1-GPIO3-Pad5)*%
X145190000Y-86530000D03*
%TO.P,U1,6,GPIO4_6*%
%TO.N,unconnected-(U1-GPIO4-Pad6)*%
X145190000Y-89070000D03*
%TO.P,U1,7,GPIO5_7*%
%TO.N,unconnected-(U1-GPIO5-Pad7)*%
X145190000Y-91610000D03*
D17*
%TO.P,U1,8,GND_8*%
%TO.N,GND*%
X145190000Y-94150000D03*
D16*
%TO.P,U1,9,GPIO6_9*%
%TO.N,unconnected-(U1-GPIO6-Pad9)*%
X145190000Y-96690000D03*
%TO.P,U1,10,GPIO7_10*%
%TO.N,unconnected-(U1-GPIO7-Pad10)*%
X145190000Y-99230000D03*
%TO.P,U1,11,GPIO8_11*%
%TO.N,unconnected-(U1-GPIO8-Pad11)*%
X145190000Y-101770000D03*
%TO.P,U1,12,GPIO9_12*%
%TO.N,unconnected-(U1-GPIO9-Pad12)*%
X145190000Y-104310000D03*
D17*
%TO.P,U1,13,GND_13*%
%TO.N,GND*%
X145190000Y-106850000D03*
D16*
%TO.P,U1,14,GPIO10_14*%
%TO.N,unconnected-(U1-GPIO10-Pad14)*%
X145190000Y-109390000D03*
%TO.P,U1,15,GPIO11_15*%
%TO.N,unconnected-(U1-GPIO11-Pad15)*%
X145190000Y-111930000D03*
%TO.P,U1,16,GPIO12_16*%
%TO.N,unconnected-(U1-GPIO12-Pad16)*%
X145190000Y-114470000D03*
%TO.P,U1,17,GPIO13_17*%
%TO.N,Net-(SW3-A)*%
X145190000Y-117010000D03*
D17*
%TO.P,U1,18,GND_18*%
%TO.N,GND*%
X145190000Y-119550000D03*
D16*
%TO.P,U1,19,GPIO14_19*%
%TO.N,Net-(SW2-A)*%
X145190000Y-122090000D03*
%TO.P,U1,20,GPIO15_20*%
%TO.N,Net-(SW1-A)*%
X145190000Y-124630000D03*
%TO.P,U1,21,GPIO16_21*%
%TO.N,/SDA*%
X125810000Y-124630000D03*
%TO.P,U1,22,GPIO17_22*%
%TO.N,/SCL*%
X125810000Y-122090000D03*
D15*
%TO.P,U1,23,GND_23*%
%TO.N,GND*%
X125810000Y-119550000D03*
D16*
%TO.P,U1,24,GPIO18_24*%
%TO.N,unconnected-(U1-GPIO18-Pad24)*%
X125810000Y-117010000D03*
%TO.P,U1,25,GPIO19_25*%
%TO.N,unconnected-(U1-GPIO19-Pad25)*%
X125810000Y-114470000D03*
%TO.P,U1,26,GPIO20_26*%
%TO.N,unconnected-(U1-GPIO20-Pad26)*%
X125810000Y-111930000D03*
%TO.P,U1,27,GPIO21_27*%
%TO.N,unconnected-(U1-GPIO21-Pad27)*%
X125810000Y-109390000D03*
D15*
%TO.P,U1,28,GND_28*%
%TO.N,GND*%
X125810000Y-106850000D03*
D16*
%TO.P,U1,29,GPIO22_29*%
%TO.N,unconnected-(U1-GPIO22-Pad29)*%
X125810000Y-104310000D03*
%TO.P,U1,30,RUN_30*%
%TO.N,unconnected-(U1-RUN-Pad30)*%
X125810000Y-101770000D03*
%TO.P,U1,31,GPIO26_ADC0_31*%
%TO.N,unconnected-(U1-GPIO26_ADC0-Pad31)*%
X125810000Y-99230000D03*
%TO.P,U1,32,GPIO27_ADC1_32*%
%TO.N,unconnected-(U1-GPIO27_ADC1-Pad32)*%
X125810000Y-96690000D03*
D15*
%TO.P,U1,33,AGND_33*%
%TO.N,GND*%
X125810000Y-94150000D03*
D16*
%TO.P,U1,34,GPIO28_ADC2_34*%
%TO.N,unconnected-(U1-GPIO28_ADC2-Pad34)*%
X125810000Y-91610000D03*
%TO.P,U1,35,ADC_VREF_35*%
%TO.N,unconnected-(U1-ADC_VREF-Pad35)*%
X125810000Y-89070000D03*
%TO.P,U1,36,3V3_36*%
%TO.N,+3V3*%
X125810000Y-86530000D03*
%TO.P,U1,37,3V3_EN_37*%
%TO.N,unconnected-(U1-3V3_EN-Pad37)*%
X125810000Y-83990000D03*
D15*
%TO.P,U1,38,GND_38*%
%TO.N,GND*%
X125810000Y-81450000D03*
D16*
%TO.P,U1,39,VSYS_39*%
%TO.N,+5V*%
X125810000Y-78910000D03*
%TO.P,U1,40,VBUS_40*%
%TO.N,VBUS*%
X125810000Y-76370000D03*
D18*
%TO.P,U1,D1*%
%TO.N,N/C*%
X138040000Y-125200000D03*
D19*
%TO.P,U1,D2*%
X135500000Y-124400000D03*
D18*
%TO.P,U1,D3*%
X132960000Y-125200000D03*
D20*
%TO.P,U1,TP1,USB_GND_TP1*%
%TO.N,GND*%
X135500000Y-79500000D03*
%TO.P,U1,TP2,USB_DM_TP2*%
%TO.N,Net-(U1-USB_DM)*%
X134500000Y-76200000D03*
%TO.P,U1,TP3,USB_DP_TP3*%
%TO.N,Net-(U1-USB_DP)*%
X136500000Y-76200000D03*
%TO.P,U1,TP4*%
%TO.N,N/C*%
X138000000Y-83000000D03*
%TO.P,U1,TP5*%
X138000000Y-85500000D03*
%TO.P,U1,TP6*%
X138000000Y-88000000D03*
%TD*%
D21*
%TO.P,J1,1,Pin_1_1*%
%TO.N,GND*%
X142240000Y-130644000D03*
D22*
%TO.P,J1,2,Pin_2_2*%
%TO.N,+5V*%
X139700000Y-130644000D03*
%TO.P,J1,3,Pin_3_3*%
%TO.N,+3V3*%
X137160000Y-130644000D03*
%TO.P,J1,4,Pin_4_4*%
%TO.N,/LED_Data*%
X134620000Y-130644000D03*
%TO.P,J1,5,Pin_5_5*%
%TO.N,/SDA*%
X132080000Y-130644000D03*
%TO.P,J1,6,Pin_6_6*%
%TO.N,/SCL*%
X129540000Y-130644000D03*
%TD*%
D23*
%TO.P,C2,1*%
%TO.N,+3V3*%
X121500000Y-86000000D03*
%TO.P,C2,2*%
%TO.N,GND*%
X121500000Y-83925000D03*
%TD*%
D12*
%TO.P,J2,1,Pin_1_1*%
%TO.N,+3V3*%
X116840000Y-130500000D03*
%TO.P,J2,2,Pin_2_2*%
%TO.N,GND*%
X119380000Y-130500000D03*
%TO.P,J2,3,Pin_3_3*%
%TO.N,/SCL*%
X121920000Y-130500000D03*
%TO.P,J2,4,Pin_4_4*%
%TO.N,/SDA*%
X124460000Y-130500000D03*
%TD*%
D23*
%TO.P,C1,1*%
%TO.N,+5V*%
X121500000Y-79000000D03*
%TO.P,C1,2*%
%TO.N,GND*%
X121500000Y-76925000D03*
%TD*%
D24*
%TO.N,Net-(SW1-A)*%
X119000000Y-72500000D03*
%TO.N,GND*%
X148500000Y-119500000D03*
X111000000Y-104500000D03*
X144000000Y-72000000D03*
X133500000Y-91000000D03*
X129500000Y-133000000D03*
X134500000Y-119000000D03*
X112500000Y-134000000D03*
X155000000Y-103000000D03*
X135500000Y-137000000D03*
X130000000Y-71500000D03*
X120000000Y-107000000D03*
X120500000Y-117000000D03*
X127500000Y-128500000D03*
X118500000Y-81500000D03*
X158000000Y-133500000D03*
%TO.N,Net-(SW3-A)*%
X140000000Y-69400000D03*
%TO.N,Net-(SW2-A)*%
X123500000Y-69500000D03*
%TO.N,VBUS*%
X156000000Y-74000000D03*
X128500000Y-74000000D03*
X150699684Y-74000000D03*
%TO.N,Net-(U1-USB_DM)*%
X135000000Y-73000000D03*
%TO.N,Net-(U1-USB_DP)*%
X137000000Y-73000000D03*
%TO.N,+3V3*%
X118750000Y-89250000D03*
%TO.N,/SDA*%
X147500000Y-133000000D03*
%TO.N,+5V*%
X130000000Y-81000000D03*
%TD*%
%TO.N,Net-(SW1-A)*%
D25*
X113000000Y-78500000D02*
X119000000Y-72500000D01*
X143705000Y-123145000D02*
X129821312Y-123145000D01*
X127481312Y-120805000D02*
X117805000Y-120805000D01*
X113000000Y-116000000D02*
X113000000Y-78500000D01*
X117805000Y-120805000D02*
X113000000Y-116000000D01*
X145190000Y-124630000D02*
X143705000Y-123145000D01*
X129821312Y-123145000D02*
X127481312Y-120805000D01*
%TO.N,Net-(SW3-A)*%
X115760000Y-115760000D02*
X115000000Y-115000000D01*
X124715622Y-69400000D02*
X140000000Y-69400000D01*
X115000000Y-79115622D02*
X124715622Y-69400000D01*
X143940000Y-115760000D02*
X115760000Y-115760000D01*
X145190000Y-117010000D02*
X143940000Y-115760000D01*
X115000000Y-115000000D02*
X115000000Y-79115622D01*
%TO.N,Net-(SW2-A)*%
X114000000Y-115500000D02*
X114000000Y-79000000D01*
X145190000Y-122090000D02*
X131276312Y-122090000D01*
X131276312Y-122090000D02*
X127481312Y-118295000D01*
X116795000Y-118295000D02*
X114000000Y-115500000D01*
X114000000Y-79000000D02*
X123500000Y-69500000D01*
X127481312Y-118295000D02*
X116795000Y-118295000D01*
%TO.N,VBUS*%
X128500000Y-74000000D02*
X128180000Y-74000000D01*
X128180000Y-74000000D02*
X125810000Y-76370000D01*
X150699684Y-74000000D02*
X156000000Y-74000000D01*
%TO.N,Net-(U1-USB_DM)*%
D26*
X135000000Y-73000000D02*
X134500000Y-73500000D01*
X134500000Y-73500000D02*
X134500000Y-76200000D01*
%TO.N,Net-(U1-USB_DP)*%
X136500000Y-73500000D02*
X136500000Y-76200000D01*
X137000000Y-73000000D02*
X136500000Y-73500000D01*
%TO.N,+3V3*%
D27*
X118750000Y-89250000D02*
X121470000Y-86530000D01*
X121500000Y-86000000D02*
X125280000Y-86000000D01*
X125280000Y-86000000D02*
X125810000Y-86530000D01*
X125810000Y-86530000D02*
X121470000Y-86530000D01*
%TO.N,/SCL*%
D25*
X121920000Y-124380000D02*
X124210000Y-122090000D01*
X148400000Y-134500000D02*
X152400000Y-130500000D01*
X129540000Y-130644000D02*
X133396000Y-134500000D01*
X121920000Y-130500000D02*
X121920000Y-124380000D01*
X133396000Y-134500000D02*
X148400000Y-134500000D01*
X124420000Y-133000000D02*
X125920000Y-134500000D01*
X129540000Y-130644000D02*
X127184000Y-133000000D01*
X125920000Y-134500000D02*
X133396000Y-134500000D01*
X121920000Y-130500000D02*
X124420000Y-133000000D01*
X127184000Y-133000000D02*
X124420000Y-133000000D01*
X124210000Y-122090000D02*
X125810000Y-122090000D01*
%TO.N,/SDA*%
X132080000Y-130644000D02*
X134436000Y-133000000D01*
X134436000Y-133000000D02*
X147500000Y-133000000D01*
X124460000Y-125980000D02*
X124460000Y-130500000D01*
X125810000Y-124630000D02*
X124460000Y-125980000D01*
X132080000Y-129080000D02*
X132080000Y-130644000D01*
X125810000Y-124630000D02*
X127630000Y-124630000D01*
X127630000Y-124630000D02*
X132080000Y-129080000D01*
%TO.N,/LED_Data*%
X136764000Y-128500000D02*
X142500000Y-128500000D01*
X150000000Y-87200000D02*
X146790000Y-83990000D01*
X134620000Y-130644000D02*
X136764000Y-128500000D01*
X150000000Y-124500000D02*
X150000000Y-87200000D01*
X146790000Y-83990000D02*
X145190000Y-83990000D01*
X134620000Y-130644000D02*
X134856000Y-130644000D01*
X142500000Y-128500000D02*
X146000000Y-128500000D01*
X146000000Y-128500000D02*
X150000000Y-124500000D01*
%TO.N,+5V*%
D27*
X127910000Y-78910000D02*
X125810000Y-78910000D01*
X130000000Y-81000000D02*
X127910000Y-78910000D01*
X121590000Y-78910000D02*
X121500000Y-79000000D01*
X125810000Y-78910000D02*
X121590000Y-78910000D01*
%TD*%
%TA.AperFunction,Conductor*%
%TO.N,GND*%
G36*
X129084655Y-131902905D02*
G01*
X129226684Y-131949054D01*
X129434697Y-131982000D01*
X129434698Y-131982000D01*
X129645302Y-131982000D01*
X129645303Y-131982000D01*
X129853316Y-131949054D01*
X129995344Y-131902905D01*
X130065183Y-131900911D01*
X130121342Y-131933156D01*
X131976005Y-133787819D01*
X132009490Y-133849142D01*
X132004506Y-133918834D01*
X131962634Y-133974767D01*
X131897170Y-133999184D01*
X131888324Y-133999500D01*
X126178676Y-133999500D01*
X126111637Y-133979815D01*
X126090995Y-133963181D01*
X125839995Y-133712181D01*
X125806510Y-133650858D01*
X125811494Y-133581166D01*
X125853366Y-133525233D01*
X125918830Y-133500816D01*
X125927676Y-133500500D01*
X127249890Y-133500500D01*
X127249892Y-133500500D01*
X127377186Y-133466392D01*
X127491314Y-133400500D01*
X128958658Y-131933154D01*
X129019979Y-131899671D01*
X129084655Y-131902905D01*
G37*
%TD.AperFunction*%
%TA.AperFunction,Conductor*%
G36*
X127593870Y-125301684D02*
G01*
X131531708Y-129239522D01*
X131565193Y-129300845D01*
X131560209Y-129370537D01*
X131518337Y-129426470D01*
X131500322Y-129437688D01*
X131378734Y-129499640D01*
X131334370Y-129531873D01*
X131208352Y-129623431D01*
X131208350Y-129623433D01*
X131208349Y-129623433D01*
X131059433Y-129772349D01*
X131059433Y-129772350D01*
X131059431Y-129772352D01*
X131007463Y-129843879D01*
X130935638Y-129942737D01*
X130920484Y-129972479D01*
X130872510Y-130023274D01*
X130804689Y-130040069D01*
X130738554Y-130017531D01*
X130699516Y-129972479D01*
X130684361Y-129942737D01*
X130667115Y-129919000D01*
X130560569Y-129772352D01*
X130411648Y-129623431D01*
X130241265Y-129499640D01*
X130213863Y-129485678D01*
X130053618Y-129404028D01*
X129853316Y-129338946D01*
X129742263Y-129321357D01*
X129645303Y-129306000D01*
X129434697Y-129306000D01*
X129349562Y-129319484D01*
X129226683Y-129338946D01*
X129026381Y-129404028D01*
X128838734Y-129499640D01*
X128794370Y-129531873D01*
X128668352Y-129623431D01*
X128668350Y-129623433D01*
X128668349Y-129623433D01*
X128519433Y-129772349D01*
X128519433Y-129772350D01*
X128519431Y-129772352D01*
X128467463Y-129843879D01*
X128395640Y-129942734D01*
X128300028Y-130130381D01*
X128234946Y-130330683D01*
X128202000Y-130538697D01*
X128202000Y-130749302D01*
X128234946Y-130957316D01*
X128281093Y-131099341D01*
X128283088Y-131169183D01*
X128250843Y-131225341D01*
X127013005Y-132463181D01*
X126951682Y-132496666D01*
X126925324Y-132499500D01*
X124678676Y-132499500D01*
X124611637Y-132479815D01*
X124590995Y-132463181D01*
X123984908Y-131857094D01*
X123951423Y-131795771D01*
X123956407Y-131726079D01*
X123998279Y-131670146D01*
X124063743Y-131645729D01*
X124110907Y-131651482D01*
X124132491Y-131658494D01*
X124178297Y-131673378D01*
X124365322Y-131703000D01*
X124365323Y-131703000D01*
X124554677Y-131703000D01*
X124554678Y-131703000D01*
X124741703Y-131673378D01*
X124921792Y-131614864D01*
X125090509Y-131528898D01*
X125243702Y-131417597D01*
X125377597Y-131283702D01*
X125488898Y-131130509D01*
X125574864Y-130961792D01*
X125633378Y-130781703D01*
X125663000Y-130594678D01*
X125663000Y-130405322D01*
X125633378Y-130218297D01*
X125575469Y-130040069D01*
X125574865Y-130038210D01*
X125574864Y-130038207D01*
X125514124Y-129919000D01*
X125488898Y-129869491D01*
X125377597Y-129716298D01*
X125243702Y-129582403D01*
X125167105Y-129526752D01*
X125090507Y-129471100D01*
X125028204Y-129439355D01*
X124977409Y-129391381D01*
X124960500Y-129328871D01*
X124960500Y-126238675D01*
X124980185Y-126171636D01*
X124996819Y-126150994D01*
X125430995Y-125716819D01*
X125492318Y-125683334D01*
X125518676Y-125680500D01*
X126661605Y-125680500D01*
X126661608Y-125680500D01*
X126815934Y-125665300D01*
X127013954Y-125605232D01*
X127196450Y-125507685D01*
X127356410Y-125376410D01*
X127410336Y-125310699D01*
X127468080Y-125271366D01*
X127537925Y-125269495D01*
X127593870Y-125301684D01*
G37*
%TD.AperFunction*%
%TA.AperFunction,Conductor*%
G36*
X124080354Y-118815185D02*
G01*
X124126109Y-118867989D01*
X124136053Y-118937147D01*
X124116418Y-118988390D01*
X124089025Y-119029386D01*
X124089022Y-119029391D01*
X124065460Y-119073472D01*
X124005153Y-119219066D01*
X123990646Y-119266888D01*
X123990643Y-119266899D01*
X123984060Y-119300000D01*
X127690716Y-119300000D01*
X127695391Y-119297447D01*
X127765083Y-119302431D01*
X127809430Y-119330932D01*
X130911317Y-122432819D01*
X130944802Y-122494142D01*
X130939818Y-122563834D01*
X130897946Y-122619767D01*
X130832482Y-122644184D01*
X130823636Y-122644500D01*
X130079988Y-122644500D01*
X130012949Y-122624815D01*
X129992307Y-122608181D01*
X127788628Y-120404502D01*
X127788626Y-120404500D01*
X127742974Y-120378142D01*
X127716376Y-120362786D01*
X127668161Y-120312218D01*
X127654939Y-120243611D01*
X127656760Y-120231207D01*
X127664999Y-120189783D01*
X127665000Y-120189783D01*
X127665000Y-119800000D01*
X123984060Y-119800000D01*
X123990643Y-119833100D01*
X123990646Y-119833111D01*
X124005153Y-119880933D01*
X124065460Y-120026527D01*
X124089022Y-120070608D01*
X124089025Y-120070613D01*
X124116418Y-120111610D01*
X124137295Y-120178288D01*
X124118810Y-120245668D01*
X124066831Y-120292357D01*
X124013315Y-120304500D01*
X118063676Y-120304500D01*
X117996637Y-120284815D01*
X117975995Y-120268181D01*
X116714995Y-119007181D01*
X116681510Y-118945858D01*
X116686494Y-118876166D01*
X116728366Y-118820233D01*
X116793830Y-118795816D01*
X116802676Y-118795500D01*
X124013315Y-118795500D01*
X124080354Y-118815185D01*
G37*
%TD.AperFunction*%
%TA.AperFunction,Conductor*%
G36*
X124079625Y-116280185D02*
G01*
X124125380Y-116332989D01*
X124135324Y-116402147D01*
X124121945Y-116442950D01*
X124106321Y-116472181D01*
X124034769Y-116606043D01*
X123974699Y-116804067D01*
X123959500Y-116958395D01*
X123959500Y-117061604D01*
X123974699Y-117215932D01*
X123974700Y-117215934D01*
X124034768Y-117413954D01*
X124132315Y-117596450D01*
X124132317Y-117596452D01*
X124132319Y-117596456D01*
X124135702Y-117601520D01*
X124133334Y-117603101D01*
X124155853Y-117656258D01*
X124143999Y-117725115D01*
X124096800Y-117776632D01*
X124032674Y-117794500D01*
X117053676Y-117794500D01*
X116986637Y-117774815D01*
X116965995Y-117758181D01*
X115679995Y-116472181D01*
X115646510Y-116410858D01*
X115651494Y-116341166D01*
X115693366Y-116285233D01*
X115758830Y-116260816D01*
X115767676Y-116260500D01*
X124012586Y-116260500D01*
X124079625Y-116280185D01*
G37*
%TD.AperFunction*%
%TA.AperFunction,Conductor*%
G36*
X118812539Y-65290185D02*
G01*
X118858294Y-65342989D01*
X118869500Y-65394500D01*
X118869500Y-65699415D01*
X118866120Y-65728168D01*
X118831421Y-65873728D01*
X118831420Y-65873735D01*
X118822597Y-66061228D01*
X118848786Y-66247090D01*
X118909070Y-66424840D01*
X118909072Y-66424845D01*
X119001354Y-66588294D01*
X119001357Y-66588299D01*
X119122414Y-66731737D01*
X119268034Y-66850176D01*
X119268036Y-66850177D01*
X119433127Y-66939474D01*
X119433129Y-66939474D01*
X119433130Y-66939475D01*
X119611951Y-66996524D01*
X119798260Y-67019334D01*
X119985563Y-67007110D01*
X120123367Y-66971603D01*
X120167324Y-66960278D01*
X120167327Y-66960277D01*
X120167348Y-66960267D01*
X120226952Y-66932266D01*
X120279676Y-66920500D01*
X123560345Y-66920500D01*
X123613069Y-66932267D01*
X123672674Y-66960268D01*
X123672679Y-66960269D01*
X123672681Y-66960270D01*
X123702512Y-66967956D01*
X123854438Y-67007102D01*
X124020109Y-67017916D01*
X124041738Y-67019328D01*
X124041738Y-67019327D01*
X124041740Y-67019328D01*
X124228049Y-66996518D01*
X124406870Y-66939470D01*
X124571967Y-66850171D01*
X124717585Y-66731735D01*
X124838645Y-66588292D01*
X124930927Y-66424843D01*
X124991213Y-66247088D01*
X125017400Y-66061228D01*
X125017401Y-66061224D01*
X125017401Y-66061223D01*
X125008579Y-65873730D01*
X124973879Y-65728168D01*
X124970499Y-65699415D01*
X124970500Y-65394500D01*
X124990185Y-65327460D01*
X125042989Y-65281705D01*
X125094500Y-65270500D01*
X125504108Y-65270500D01*
X128408108Y-65270500D01*
X128849500Y-65270500D01*
X128916539Y-65290185D01*
X128962294Y-65342989D01*
X128973500Y-65394500D01*
X128973500Y-65699415D01*
X128970120Y-65728168D01*
X128935421Y-65873728D01*
X128935420Y-65873735D01*
X128926597Y-66061228D01*
X128952786Y-66247090D01*
X129013070Y-66424840D01*
X129013072Y-66424845D01*
X129105354Y-66588294D01*
X129105357Y-66588299D01*
X129226414Y-66731737D01*
X129372034Y-66850176D01*
X129372036Y-66850177D01*
X129537127Y-66939474D01*
X129537129Y-66939474D01*
X129537130Y-66939475D01*
X129715951Y-66996524D01*
X129902260Y-67019334D01*
X130089563Y-67007110D01*
X130227367Y-66971603D01*
X130271324Y-66960278D01*
X130271327Y-66960277D01*
X130271348Y-66960267D01*
X130330952Y-66932266D01*
X130383676Y-66920500D01*
X133664345Y-66920500D01*
X133717069Y-66932267D01*
X133776674Y-66960268D01*
X133776679Y-66960269D01*
X133776681Y-66960270D01*
X133806512Y-66967956D01*
X133958438Y-67007102D01*
X134124109Y-67017916D01*
X134145738Y-67019328D01*
X134145738Y-67019327D01*
X134145740Y-67019328D01*
X134332049Y-66996518D01*
X134510870Y-66939470D01*
X134675967Y-66850171D01*
X134821585Y-66731735D01*
X134942645Y-66588292D01*
X135034927Y-66424843D01*
X135095213Y-66247088D01*
X135121400Y-66061228D01*
X135121401Y-66061224D01*
X135121401Y-66061223D01*
X135112579Y-65873730D01*
X135077879Y-65728168D01*
X135074499Y-65699415D01*
X135074500Y-65394500D01*
X135094185Y-65327460D01*
X135146989Y-65281705D01*
X135198500Y-65270500D01*
X135608108Y-65270500D01*
X138568108Y-65270500D01*
X139009500Y-65270500D01*
X139076539Y-65290185D01*
X139122294Y-65342989D01*
X139133500Y-65394500D01*
X139133500Y-65699415D01*
X139130120Y-65728168D01*
X139095421Y-65873728D01*
X139095420Y-65873735D01*
X139086597Y-66061228D01*
X139112786Y-66247090D01*
X139173070Y-66424840D01*
X139173072Y-66424845D01*
X139265354Y-66588294D01*
X139265357Y-66588299D01*
X139386414Y-66731737D01*
X139532034Y-66850176D01*
X139532036Y-66850177D01*
X139697127Y-66939474D01*
X139697129Y-66939474D01*
X139697130Y-66939475D01*
X139875951Y-66996524D01*
X140062260Y-67019334D01*
X140249563Y-67007110D01*
X140387367Y-66971603D01*
X140431324Y-66960278D01*
X140431327Y-66960277D01*
X140431348Y-66960267D01*
X140490952Y-66932266D01*
X140543676Y-66920500D01*
X143824345Y-66920500D01*
X143877069Y-66932267D01*
X143936674Y-66960268D01*
X143936679Y-66960269D01*
X143936681Y-66960270D01*
X143966512Y-66967956D01*
X144118438Y-67007102D01*
X144284109Y-67017916D01*
X144305738Y-67019328D01*
X144305738Y-67019327D01*
X144305740Y-67019328D01*
X144492049Y-66996518D01*
X144670870Y-66939470D01*
X144835967Y-66850171D01*
X144981585Y-66731735D01*
X145102645Y-66588292D01*
X145194927Y-66424843D01*
X145255213Y-66247088D01*
X145281400Y-66061228D01*
X145281401Y-66061224D01*
X145281401Y-66061223D01*
X145272579Y-65873730D01*
X145237879Y-65728168D01*
X145234499Y-65699415D01*
X145234500Y-65394500D01*
X145254185Y-65327460D01*
X145306989Y-65281705D01*
X145358500Y-65270500D01*
X145768108Y-65270500D01*
X160875500Y-65270500D01*
X160942539Y-65290185D01*
X160988294Y-65342989D01*
X160999500Y-65394500D01*
X160999500Y-138875500D01*
X160979815Y-138942539D01*
X160927011Y-138988294D01*
X160875500Y-138999500D01*
X108624500Y-138999500D01*
X108557461Y-138979815D01*
X108511706Y-138927011D01*
X108500500Y-138875500D01*
X108500500Y-124878711D01*
X110649500Y-124878711D01*
X110649500Y-125121288D01*
X110681161Y-125361785D01*
X110743947Y-125596104D01*
X110780079Y-125683334D01*
X110836776Y-125820212D01*
X110958064Y-126030289D01*
X110958066Y-126030292D01*
X110958067Y-126030293D01*
X111105733Y-126222736D01*
X111105739Y-126222743D01*
X111277256Y-126394260D01*
X111277263Y-126394266D01*
X111384708Y-126476711D01*
X111469711Y-126541936D01*
X111679788Y-126663224D01*
X111903900Y-126756054D01*
X112138211Y-126818838D01*
X112318586Y-126842584D01*
X112378711Y-126850500D01*
X112378712Y-126850500D01*
X112621289Y-126850500D01*
X112669388Y-126844167D01*
X112861789Y-126818838D01*
X113096100Y-126756054D01*
X113320212Y-126663224D01*
X113530289Y-126541936D01*
X113722738Y-126394265D01*
X113894265Y-126222738D01*
X114041936Y-126030289D01*
X114163224Y-125820212D01*
X114256054Y-125596100D01*
X114318838Y-125361789D01*
X114350500Y-125121288D01*
X114350500Y-124878712D01*
X114318838Y-124638211D01*
X114256054Y-124403900D01*
X114163224Y-124179788D01*
X114041936Y-123969711D01*
X113894265Y-123777262D01*
X113894260Y-123777256D01*
X113722743Y-123605739D01*
X113722736Y-123605733D01*
X113530293Y-123458067D01*
X113530292Y-123458066D01*
X113530289Y-123458064D01*
X113320212Y-123336776D01*
X113320205Y-123336773D01*
X113096104Y-123243947D01*
X112861785Y-123181161D01*
X112621289Y-123149500D01*
X112621288Y-123149500D01*
X112378712Y-123149500D01*
X112378711Y-123149500D01*
X112138214Y-123181161D01*
X111903895Y-123243947D01*
X111679794Y-123336773D01*
X111679785Y-123336777D01*
X111469706Y-123458067D01*
X111277263Y-123605733D01*
X111277256Y-123605739D01*
X111105739Y-123777256D01*
X111105733Y-123777263D01*
X110958067Y-123969706D01*
X110836777Y-124179785D01*
X110836773Y-124179794D01*
X110743947Y-124403895D01*
X110681161Y-124638214D01*
X110649500Y-124878711D01*
X108500500Y-124878711D01*
X108500500Y-78434108D01*
X112499500Y-78434108D01*
X112499500Y-116065891D01*
X112533608Y-116193187D01*
X112566554Y-116250250D01*
X112599500Y-116307314D01*
X117497686Y-121205500D01*
X117611814Y-121271392D01*
X117739107Y-121305500D01*
X117739108Y-121305500D01*
X124032674Y-121305500D01*
X124037548Y-121306931D01*
X124042133Y-121305961D01*
X124069157Y-121316212D01*
X124099713Y-121325185D01*
X124103093Y-121329086D01*
X124107460Y-121330743D01*
X124124591Y-121353896D01*
X124145468Y-121377989D01*
X124146203Y-121383105D01*
X124149019Y-121386910D01*
X124150938Y-121416035D01*
X124155412Y-121447147D01*
X124153386Y-121453174D01*
X124153614Y-121456628D01*
X124147148Y-121471735D01*
X124141157Y-121489562D01*
X124135688Y-121499439D01*
X124132315Y-121503550D01*
X124101653Y-121560912D01*
X124101187Y-121561755D01*
X124076957Y-121585703D01*
X124053097Y-121609992D01*
X124051886Y-121610482D01*
X124051494Y-121610871D01*
X124050315Y-121611120D01*
X124024805Y-121621466D01*
X124016815Y-121623607D01*
X124016814Y-121623607D01*
X123902686Y-121689500D01*
X123902683Y-121689502D01*
X121519502Y-124072683D01*
X121519500Y-124072686D01*
X121453608Y-124186812D01*
X121419500Y-124314108D01*
X121419500Y-129328871D01*
X121399815Y-129395910D01*
X121351796Y-129439355D01*
X121289492Y-129471100D01*
X121136295Y-129582405D01*
X121002405Y-129716295D01*
X120891102Y-129869490D01*
X120805136Y-130038207D01*
X120767667Y-130153523D01*
X120728229Y-130211198D01*
X120663870Y-130238396D01*
X120595024Y-130226481D01*
X120543548Y-130179237D01*
X120531805Y-130153522D01*
X120494398Y-130038397D01*
X120408469Y-129869752D01*
X120389671Y-129843880D01*
X120389671Y-129843879D01*
X119969560Y-130263990D01*
X119942729Y-130199215D01*
X119873236Y-130095211D01*
X119784789Y-130006764D01*
X119680785Y-129937271D01*
X119616007Y-129910438D01*
X120036119Y-129490327D01*
X120036118Y-129490326D01*
X120010250Y-129471532D01*
X119841604Y-129385601D01*
X119661586Y-129327109D01*
X119474638Y-129297500D01*
X119285362Y-129297500D01*
X119098413Y-129327109D01*
X118918395Y-129385601D01*
X118749750Y-129471531D01*
X118723880Y-129490326D01*
X118723880Y-129490327D01*
X119143992Y-129910438D01*
X119079215Y-129937271D01*
X118975211Y-130006764D01*
X118886764Y-130095211D01*
X118817271Y-130199215D01*
X118790438Y-130263992D01*
X118370326Y-129843880D01*
X118351531Y-129869750D01*
X118265601Y-130038395D01*
X118228194Y-130153523D01*
X118188756Y-130211198D01*
X118124397Y-130238396D01*
X118055551Y-130226481D01*
X118004075Y-130179237D01*
X117992332Y-130153522D01*
X117954865Y-130038210D01*
X117954864Y-130038207D01*
X117894124Y-129919000D01*
X117868898Y-129869491D01*
X117757597Y-129716298D01*
X117623702Y-129582403D01*
X117470509Y-129471102D01*
X117446677Y-129458959D01*
X117301792Y-129385135D01*
X117301789Y-129385134D01*
X117121704Y-129326622D01*
X116958954Y-129300845D01*
X116934678Y-129297000D01*
X116745322Y-129297000D01*
X116721046Y-129300845D01*
X116558295Y-129326622D01*
X116378210Y-129385134D01*
X116378207Y-129385135D01*
X116209490Y-129471102D01*
X116056295Y-129582405D01*
X115922405Y-129716295D01*
X115811102Y-129869490D01*
X115725135Y-130038207D01*
X115725134Y-130038210D01*
X115666622Y-130218295D01*
X115637000Y-130405322D01*
X115637000Y-130594677D01*
X115666622Y-130781704D01*
X115725134Y-130961789D01*
X115725135Y-130961792D01*
X115776566Y-131062729D01*
X115811102Y-131130509D01*
X115922403Y-131283702D01*
X116056298Y-131417597D01*
X116209491Y-131528898D01*
X116268116Y-131558769D01*
X116378207Y-131614864D01*
X116378210Y-131614865D01*
X116419523Y-131628288D01*
X116558297Y-131673378D01*
X116745322Y-131703000D01*
X116745323Y-131703000D01*
X116934677Y-131703000D01*
X116934678Y-131703000D01*
X117121703Y-131673378D01*
X117301792Y-131614864D01*
X117470509Y-131528898D01*
X117623702Y-131417597D01*
X117757597Y-131283702D01*
X117868898Y-131130509D01*
X117954864Y-130961792D01*
X117992332Y-130846477D01*
X118031769Y-130788802D01*
X118096128Y-130761603D01*
X118164974Y-130773517D01*
X118216450Y-130820761D01*
X118228194Y-130846476D01*
X118265601Y-130961604D01*
X118351532Y-131130250D01*
X118370326Y-131156118D01*
X118370327Y-131156119D01*
X118790438Y-130736007D01*
X118817271Y-130800785D01*
X118886764Y-130904789D01*
X118975211Y-130993236D01*
X119079215Y-131062729D01*
X119143991Y-131089560D01*
X118723879Y-131509671D01*
X118749752Y-131528469D01*
X118918395Y-131614398D01*
X119098413Y-131672890D01*
X119285362Y-131702500D01*
X119474638Y-131702500D01*
X119661586Y-131672890D01*
X119841604Y-131614398D01*
X120010247Y-131528469D01*
X120036118Y-131509671D01*
X119616008Y-131089560D01*
X119680785Y-131062729D01*
X119784789Y-130993236D01*
X119873236Y-130904789D01*
X119942729Y-130800785D01*
X119969560Y-130736007D01*
X120389671Y-131156118D01*
X120408469Y-131130247D01*
X120494398Y-130961602D01*
X120531805Y-130846477D01*
X120571242Y-130788802D01*
X120635601Y-130761603D01*
X120704447Y-130773517D01*
X120755923Y-130820761D01*
X120767667Y-130846476D01*
X120805136Y-130961792D01*
X120805135Y-130961792D01*
X120856566Y-131062729D01*
X120891102Y-131130509D01*
X121002403Y-131283702D01*
X121136298Y-131417597D01*
X121289491Y-131528898D01*
X121348116Y-131558769D01*
X121458207Y-131614864D01*
X121458210Y-131614865D01*
X121499523Y-131628288D01*
X121638297Y-131673378D01*
X121825322Y-131703000D01*
X121825323Y-131703000D01*
X122014677Y-131703000D01*
X122014678Y-131703000D01*
X122201703Y-131673378D01*
X122268208Y-131651768D01*
X122338046Y-131649774D01*
X122394205Y-131682019D01*
X124019500Y-133307314D01*
X125519500Y-134807314D01*
X125612686Y-134900500D01*
X125726814Y-134966392D01*
X125854107Y-135000500D01*
X125854108Y-135000500D01*
X125854109Y-135000500D01*
X148465890Y-135000500D01*
X148465892Y-135000500D01*
X148593186Y-134966392D01*
X148707314Y-134900500D01*
X151925794Y-131682017D01*
X151987115Y-131648534D01*
X152051791Y-131651768D01*
X152080997Y-131661258D01*
X152118296Y-131673378D01*
X152190324Y-131684786D01*
X152305322Y-131703000D01*
X152305323Y-131703000D01*
X152494677Y-131703000D01*
X152494678Y-131703000D01*
X152681703Y-131673378D01*
X152861792Y-131614864D01*
X153030509Y-131528898D01*
X153183702Y-131417597D01*
X153317597Y-131283702D01*
X153428898Y-131130509D01*
X153514864Y-130961792D01*
X153552069Y-130847286D01*
X153591506Y-130789611D01*
X153655864Y-130762412D01*
X153724711Y-130774326D01*
X153776187Y-130821570D01*
X153787931Y-130847286D01*
X153825134Y-130961789D01*
X153825135Y-130961792D01*
X153876566Y-131062729D01*
X153911102Y-131130509D01*
X154022403Y-131283702D01*
X154156298Y-131417597D01*
X154309491Y-131528898D01*
X154368116Y-131558769D01*
X154478207Y-131614864D01*
X154478210Y-131614865D01*
X154519523Y-131628288D01*
X154658297Y-131673378D01*
X154845322Y-131703000D01*
X154845323Y-131703000D01*
X155034677Y-131703000D01*
X155034678Y-131703000D01*
X155221703Y-131673378D01*
X155401792Y-131614864D01*
X155570509Y-131528898D01*
X155723702Y-131417597D01*
X155857597Y-131283702D01*
X155968898Y-131130509D01*
X156054864Y-130961792D01*
X156113378Y-130781703D01*
X156143000Y-130594678D01*
X156143000Y-130405322D01*
X156113378Y-130218297D01*
X156055469Y-130040069D01*
X156054865Y-130038210D01*
X156054864Y-130038207D01*
X155994124Y-129919000D01*
X155968898Y-129869491D01*
X155857597Y-129716298D01*
X155723702Y-129582403D01*
X155570509Y-129471102D01*
X155546677Y-129458959D01*
X155401792Y-129385135D01*
X155401789Y-129385134D01*
X155221704Y-129326622D01*
X155058954Y-129300845D01*
X155034678Y-129297000D01*
X154845322Y-129297000D01*
X154821046Y-129300845D01*
X154658295Y-129326622D01*
X154478210Y-129385134D01*
X154478207Y-129385135D01*
X154309490Y-129471102D01*
X154156295Y-129582405D01*
X154022405Y-129716295D01*
X153911102Y-129869490D01*
X153825135Y-130038207D01*
X153825134Y-130038210D01*
X153787931Y-130152713D01*
X153748494Y-130210388D01*
X153684135Y-130237587D01*
X153615289Y-130225673D01*
X153563813Y-130178429D01*
X153552069Y-130152713D01*
X153514865Y-130038210D01*
X153514864Y-130038207D01*
X153454124Y-129919000D01*
X153428898Y-129869491D01*
X153317597Y-129716298D01*
X153183702Y-129582403D01*
X153030509Y-129471102D01*
X153006677Y-129458959D01*
X152861792Y-129385135D01*
X152861789Y-129385134D01*
X152681704Y-129326622D01*
X152518954Y-129300845D01*
X152494678Y-129297000D01*
X152305322Y-129297000D01*
X152281046Y-129300845D01*
X152118295Y-129326622D01*
X151938210Y-129385134D01*
X151938207Y-129385135D01*
X151769490Y-129471102D01*
X151616295Y-129582405D01*
X151482405Y-129716295D01*
X151371102Y-129869490D01*
X151285136Y-130038207D01*
X151247667Y-130153523D01*
X151208229Y-130211198D01*
X151143870Y-130238396D01*
X151075024Y-130226481D01*
X151023548Y-130179237D01*
X151011805Y-130153522D01*
X150974398Y-130038397D01*
X150888469Y-129869752D01*
X150869671Y-129843880D01*
X150869671Y-129843879D01*
X150449560Y-130263991D01*
X150422729Y-130199215D01*
X150353236Y-130095211D01*
X150264789Y-130006764D01*
X150160785Y-129937271D01*
X150096007Y-129910438D01*
X150516119Y-129490327D01*
X150516118Y-129490326D01*
X150490250Y-129471532D01*
X150321604Y-129385601D01*
X150141586Y-129327109D01*
X149954638Y-129297500D01*
X149765362Y-129297500D01*
X149578413Y-129327109D01*
X149398395Y-129385601D01*
X149229750Y-129471531D01*
X149203880Y-129490326D01*
X149203880Y-129490327D01*
X149623992Y-129910438D01*
X149559215Y-129937271D01*
X149455211Y-130006764D01*
X149366764Y-130095211D01*
X149297271Y-130199215D01*
X149270438Y-130263992D01*
X148850326Y-129843880D01*
X148831531Y-129869750D01*
X148745601Y-130038395D01*
X148708194Y-130153523D01*
X148668756Y-130211198D01*
X148604397Y-130238396D01*
X148535551Y-130226481D01*
X148484075Y-130179237D01*
X148472332Y-130153522D01*
X148434865Y-130038210D01*
X148434864Y-130038207D01*
X148374124Y-129919000D01*
X148348898Y-129869491D01*
X148237597Y-129716298D01*
X148103702Y-129582403D01*
X147950509Y-129471102D01*
X147926677Y-129458959D01*
X147781792Y-129385135D01*
X147781789Y-129385134D01*
X147601704Y-129326622D01*
X147438954Y-129300845D01*
X147414678Y-129297000D01*
X147225322Y-129297000D01*
X147201046Y-129300845D01*
X147038295Y-129326622D01*
X146858210Y-129385134D01*
X146858207Y-129385135D01*
X146689490Y-129471102D01*
X146536295Y-129582405D01*
X146402405Y-129716295D01*
X146291102Y-129869490D01*
X146205135Y-130038207D01*
X146205134Y-130038210D01*
X146146622Y-130218295D01*
X146117000Y-130405322D01*
X146117000Y-130594677D01*
X146146622Y-130781704D01*
X146205134Y-130961789D01*
X146205135Y-130961792D01*
X146256566Y-131062729D01*
X146291102Y-131130509D01*
X146402403Y-131283702D01*
X146536298Y-131417597D01*
X146689491Y-131528898D01*
X146748116Y-131558769D01*
X146858207Y-131614864D01*
X146858210Y-131614865D01*
X146899523Y-131628288D01*
X147038297Y-131673378D01*
X147225322Y-131703000D01*
X147225323Y-131703000D01*
X147414677Y-131703000D01*
X147414678Y-131703000D01*
X147601703Y-131673378D01*
X147781792Y-131614864D01*
X147950509Y-131528898D01*
X148103702Y-131417597D01*
X148237597Y-131283702D01*
X148348898Y-131130509D01*
X148434864Y-130961792D01*
X148472332Y-130846477D01*
X148511769Y-130788802D01*
X148576128Y-130761603D01*
X148644974Y-130773517D01*
X148696450Y-130820761D01*
X148708194Y-130846476D01*
X148745601Y-130961604D01*
X148831532Y-131130250D01*
X148850326Y-131156118D01*
X148850327Y-131156119D01*
X149270438Y-130736007D01*
X149297271Y-130800785D01*
X149366764Y-130904789D01*
X149455211Y-130993236D01*
X149559215Y-131062729D01*
X149623991Y-131089560D01*
X149203879Y-131509671D01*
X149229752Y-131528469D01*
X149398395Y-131614398D01*
X149578413Y-131672890D01*
X149765362Y-131702500D01*
X149954638Y-131702500D01*
X150141587Y-131672889D01*
X150141593Y-131672888D01*
X150209870Y-131650703D01*
X150279711Y-131648706D01*
X150339545Y-131684786D01*
X150370374Y-131747486D01*
X150362410Y-131816901D01*
X150335871Y-131856314D01*
X148229005Y-133963181D01*
X148167682Y-133996666D01*
X148141324Y-133999500D01*
X133654676Y-133999500D01*
X133587637Y-133979815D01*
X133566995Y-133963181D01*
X131782484Y-132178670D01*
X131748999Y-132117347D01*
X131753983Y-132047655D01*
X131795855Y-131991722D01*
X131861319Y-131967305D01*
X131889562Y-131968515D01*
X131974697Y-131982000D01*
X131974698Y-131982000D01*
X132185302Y-131982000D01*
X132185303Y-131982000D01*
X132393316Y-131949054D01*
X132535344Y-131902905D01*
X132605183Y-131900911D01*
X132661342Y-131933156D01*
X134128686Y-133400500D01*
X134242814Y-133466392D01*
X134370107Y-133500500D01*
X134370108Y-133500500D01*
X147232711Y-133500500D01*
X147280162Y-133509938D01*
X147287513Y-133512983D01*
X147287515Y-133512984D01*
X147427525Y-133550500D01*
X147427528Y-133550500D01*
X147572472Y-133550500D01*
X147572475Y-133550500D01*
X147712485Y-133512984D01*
X147838015Y-133440509D01*
X147940509Y-133338015D01*
X148012984Y-133212485D01*
X148050500Y-133072475D01*
X148050500Y-132927525D01*
X148012984Y-132787515D01*
X147940509Y-132661985D01*
X147838015Y-132559491D01*
X147838013Y-132559490D01*
X147838011Y-132559488D01*
X147712488Y-132487017D01*
X147712489Y-132487017D01*
X147701006Y-132483940D01*
X147572475Y-132449500D01*
X147427525Y-132449500D01*
X147343519Y-132472009D01*
X147287513Y-132487016D01*
X147280162Y-132490062D01*
X147232711Y-132499500D01*
X134694676Y-132499500D01*
X134627637Y-132479815D01*
X134606995Y-132463181D01*
X134322484Y-132178670D01*
X134288999Y-132117347D01*
X134293983Y-132047655D01*
X134335855Y-131991722D01*
X134401319Y-131967305D01*
X134429562Y-131968515D01*
X134514697Y-131982000D01*
X134514698Y-131982000D01*
X134725302Y-131982000D01*
X134725303Y-131982000D01*
X134933316Y-131949054D01*
X135133614Y-131883973D01*
X135321265Y-131788360D01*
X135491648Y-131664569D01*
X135640569Y-131515648D01*
X135764360Y-131345265D01*
X135779515Y-131315522D01*
X135827489Y-131264725D01*
X135895310Y-131247930D01*
X135961445Y-131270467D01*
X136000485Y-131315522D01*
X136015638Y-131345263D01*
X136037048Y-131374731D01*
X136139431Y-131515648D01*
X136288352Y-131664569D01*
X136458735Y-131788360D01*
X136514750Y-131816901D01*
X136646381Y-131883971D01*
X136646383Y-131883971D01*
X136646386Y-131883973D01*
X136846684Y-131949054D01*
X137054697Y-131982000D01*
X137054698Y-131982000D01*
X137265302Y-131982000D01*
X137265303Y-131982000D01*
X137473316Y-131949054D01*
X137673614Y-131883973D01*
X137861265Y-131788360D01*
X138031648Y-131664569D01*
X138180569Y-131515648D01*
X138304360Y-131345265D01*
X138319515Y-131315522D01*
X138367489Y-131264725D01*
X138435310Y-131247930D01*
X138501445Y-131270467D01*
X138540485Y-131315522D01*
X138555638Y-131345263D01*
X138577048Y-131374731D01*
X138679431Y-131515648D01*
X138828352Y-131664569D01*
X138998735Y-131788360D01*
X139054750Y-131816901D01*
X139186381Y-131883971D01*
X139186383Y-131883971D01*
X139186386Y-131883973D01*
X139386684Y-131949054D01*
X139594697Y-131982000D01*
X139594698Y-131982000D01*
X139805302Y-131982000D01*
X139805303Y-131982000D01*
X140013316Y-131949054D01*
X140213614Y-131883973D01*
X140401265Y-131788360D01*
X140571648Y-131664569D01*
X140690819Y-131545398D01*
X140752142Y-131511913D01*
X140821834Y-131516897D01*
X140877767Y-131558769D01*
X140902184Y-131624233D01*
X140902500Y-131633079D01*
X140902500Y-131756128D01*
X140917003Y-131829040D01*
X140917005Y-131829044D01*
X140972260Y-131911739D01*
X141054955Y-131966994D01*
X141054959Y-131966996D01*
X141127871Y-131981499D01*
X141127874Y-131981500D01*
X141990000Y-131981500D01*
X141990000Y-131325181D01*
X142028525Y-131341139D01*
X142168594Y-131369000D01*
X142311406Y-131369000D01*
X142451475Y-131341139D01*
X142490000Y-131325181D01*
X142490000Y-131981500D01*
X143352126Y-131981500D01*
X143352128Y-131981499D01*
X143425040Y-131966996D01*
X143425044Y-131966994D01*
X143507739Y-131911739D01*
X143562994Y-131829044D01*
X143562996Y-131829040D01*
X143577499Y-131756128D01*
X143577500Y-131756126D01*
X143577500Y-130894000D01*
X142921181Y-130894000D01*
X142937139Y-130855475D01*
X142965000Y-130715406D01*
X142965000Y-130572594D01*
X142937139Y-130432525D01*
X142921181Y-130394000D01*
X143577500Y-130394000D01*
X143577500Y-129531873D01*
X143577499Y-129531871D01*
X143562996Y-129458959D01*
X143562994Y-129458955D01*
X143507739Y-129376260D01*
X143425044Y-129321005D01*
X143425040Y-129321003D01*
X143352127Y-129306500D01*
X142490000Y-129306500D01*
X142490000Y-129962818D01*
X142451475Y-129946861D01*
X142311406Y-129919000D01*
X142168594Y-129919000D01*
X142028525Y-129946861D01*
X141990000Y-129962818D01*
X141990000Y-129306500D01*
X141127873Y-129306500D01*
X141054959Y-129321003D01*
X141054955Y-129321005D01*
X140972260Y-129376260D01*
X140917005Y-129458955D01*
X140917003Y-129458959D01*
X140902500Y-129531871D01*
X140902500Y-129654921D01*
X140882815Y-129721960D01*
X140830011Y-129767715D01*
X140760853Y-129777659D01*
X140697297Y-129748634D01*
X140690819Y-129742602D01*
X140571650Y-129623433D01*
X140571648Y-129623431D01*
X140401265Y-129499640D01*
X140373863Y-129485678D01*
X140213618Y-129404028D01*
X140013316Y-129338946D01*
X139902263Y-129321357D01*
X139805303Y-129306000D01*
X139594697Y-129306000D01*
X139509562Y-129319484D01*
X139386683Y-129338946D01*
X139186381Y-129404028D01*
X138998734Y-129499640D01*
X138954370Y-129531873D01*
X138828352Y-129623431D01*
X138828350Y-129623433D01*
X138828349Y-129623433D01*
X138679433Y-129772349D01*
X138679433Y-129772350D01*
X138679431Y-129772352D01*
X138627463Y-129843879D01*
X138555638Y-129942737D01*
X138540484Y-129972479D01*
X138492510Y-130023274D01*
X138424689Y-130040069D01*
X138358554Y-130017531D01*
X138319516Y-129972479D01*
X138304361Y-129942737D01*
X138287115Y-129919000D01*
X138180569Y-129772352D01*
X138031648Y-129623431D01*
X137861265Y-129499640D01*
X137833863Y-129485678D01*
X137673618Y-129404028D01*
X137473316Y-129338946D01*
X137362263Y-129321357D01*
X137265303Y-129306000D01*
X137054697Y-129306000D01*
X136996514Y-129315215D01*
X136969560Y-129319484D01*
X136900267Y-129310528D01*
X136846816Y-129265531D01*
X136826177Y-129198779D01*
X136844903Y-129131466D01*
X136862477Y-129109336D01*
X136934996Y-129036818D01*
X136996320Y-129003333D01*
X137022676Y-129000500D01*
X146065890Y-129000500D01*
X146065892Y-129000500D01*
X146193186Y-128966392D01*
X146307314Y-128900500D01*
X150307311Y-124900501D01*
X150307314Y-124900500D01*
X150329103Y-124878711D01*
X152649500Y-124878711D01*
X152649500Y-125121288D01*
X152681161Y-125361785D01*
X152743947Y-125596104D01*
X152780079Y-125683334D01*
X152836776Y-125820212D01*
X152958064Y-126030289D01*
X152958066Y-126030292D01*
X152958067Y-126030293D01*
X153105733Y-126222736D01*
X153105739Y-126222743D01*
X153277256Y-126394260D01*
X153277263Y-126394266D01*
X153384708Y-126476711D01*
X153469711Y-126541936D01*
X153679788Y-126663224D01*
X153903900Y-126756054D01*
X154138211Y-126818838D01*
X154318586Y-126842584D01*
X154378711Y-126850500D01*
X154378712Y-126850500D01*
X154621289Y-126850500D01*
X154669388Y-126844167D01*
X154861789Y-126818838D01*
X155096100Y-126756054D01*
X155320212Y-126663224D01*
X155530289Y-126541936D01*
X155722738Y-126394265D01*
X155894265Y-126222738D01*
X156041936Y-126030289D01*
X156163224Y-125820212D01*
X156256054Y-125596100D01*
X156318838Y-125361789D01*
X156350500Y-125121288D01*
X156350500Y-124878712D01*
X156318838Y-124638211D01*
X156256054Y-124403900D01*
X156163224Y-124179788D01*
X156041936Y-123969711D01*
X155894265Y-123777262D01*
X155894260Y-123777256D01*
X155722743Y-123605739D01*
X155722736Y-123605733D01*
X155530293Y-123458067D01*
X155530292Y-123458066D01*
X155530289Y-123458064D01*
X155320212Y-123336776D01*
X155320205Y-123336773D01*
X155096104Y-123243947D01*
X154861785Y-123181161D01*
X154621289Y-123149500D01*
X154621288Y-123149500D01*
X154378712Y-123149500D01*
X154378711Y-123149500D01*
X154138214Y-123181161D01*
X153903895Y-123243947D01*
X153679794Y-123336773D01*
X153679785Y-123336777D01*
X153469706Y-123458067D01*
X153277263Y-123605733D01*
X153277256Y-123605739D01*
X153105739Y-123777256D01*
X153105733Y-123777263D01*
X152958067Y-123969706D01*
X152836777Y-124179785D01*
X152836773Y-124179794D01*
X152743947Y-124403895D01*
X152681161Y-124638214D01*
X152649500Y-124878711D01*
X150329103Y-124878711D01*
X150400500Y-124807314D01*
X150466392Y-124693186D01*
X150500500Y-124565892D01*
X150500500Y-87134108D01*
X150466392Y-87006814D01*
X150400500Y-86892686D01*
X150307314Y-86799500D01*
X147886525Y-84378711D01*
X152649500Y-84378711D01*
X152649500Y-84621288D01*
X152681161Y-84861785D01*
X152743947Y-85096104D01*
X152794730Y-85218704D01*
X152836776Y-85320212D01*
X152958064Y-85530289D01*
X152958066Y-85530292D01*
X152958067Y-85530293D01*
X153105733Y-85722736D01*
X153105739Y-85722743D01*
X153277256Y-85894260D01*
X153277263Y-85894266D01*
X153390321Y-85981018D01*
X153469711Y-86041936D01*
X153679788Y-86163224D01*
X153903900Y-86256054D01*
X154138211Y-86318838D01*
X154318586Y-86342584D01*
X154378711Y-86350500D01*
X154378712Y-86350500D01*
X154621289Y-86350500D01*
X154669388Y-86344167D01*
X154861789Y-86318838D01*
X155096100Y-86256054D01*
X155320212Y-86163224D01*
X155530289Y-86041936D01*
X155722738Y-85894265D01*
X155894265Y-85722738D01*
X156041936Y-85530289D01*
X156163224Y-85320212D01*
X156256054Y-85096100D01*
X156318838Y-84861789D01*
X156350500Y-84621288D01*
X156350500Y-84378712D01*
X156318838Y-84138211D01*
X156256054Y-83903900D01*
X156163224Y-83679788D01*
X156041936Y-83469711D01*
X155894265Y-83277262D01*
X155894260Y-83277256D01*
X155722743Y-83105739D01*
X155722736Y-83105733D01*
X155530293Y-82958067D01*
X155530292Y-82958066D01*
X155530289Y-82958064D01*
X155320212Y-82836776D01*
X155320205Y-82836773D01*
X155096104Y-82743947D01*
X154861785Y-82681161D01*
X154621289Y-82649500D01*
X154621288Y-82649500D01*
X154378712Y-82649500D01*
X154378711Y-82649500D01*
X154138214Y-82681161D01*
X153903895Y-82743947D01*
X153679794Y-82836773D01*
X153679785Y-82836777D01*
X153501865Y-82939500D01*
X153475540Y-82954699D01*
X153469706Y-82958067D01*
X153277263Y-83105733D01*
X153277256Y-83105739D01*
X153105739Y-83277256D01*
X153105733Y-83277263D01*
X152958067Y-83469706D01*
X152836777Y-83679785D01*
X152836773Y-83679794D01*
X152743947Y-83903895D01*
X152681161Y-84138214D01*
X152649500Y-84378711D01*
X147886525Y-84378711D01*
X147097314Y-83589500D01*
X147010980Y-83539655D01*
X146983185Y-83523607D01*
X146975197Y-83521467D01*
X146915538Y-83485100D01*
X146897938Y-83460149D01*
X146867685Y-83403550D01*
X146844143Y-83374864D01*
X146736410Y-83243589D01*
X146576452Y-83112317D01*
X146576453Y-83112317D01*
X146576450Y-83112315D01*
X146393954Y-83014768D01*
X146195934Y-82954700D01*
X146195932Y-82954699D01*
X146195934Y-82954699D01*
X146076805Y-82942966D01*
X146041608Y-82939500D01*
X144338392Y-82939500D01*
X144300298Y-82943251D01*
X144184067Y-82954699D01*
X143986043Y-83014769D01*
X143875898Y-83073643D01*
X143803550Y-83112315D01*
X143803548Y-83112316D01*
X143803547Y-83112317D01*
X143643589Y-83243589D01*
X143512317Y-83403547D01*
X143512315Y-83403550D01*
X143482064Y-83460145D01*
X143414769Y-83586043D01*
X143354699Y-83784067D01*
X143339500Y-83938395D01*
X143339500Y-84041604D01*
X143354699Y-84195932D01*
X143354700Y-84195934D01*
X143414768Y-84393954D01*
X143512315Y-84576450D01*
X143512317Y-84576452D01*
X143643589Y-84736410D01*
X143693851Y-84777658D01*
X143803550Y-84867685D01*
X143986046Y-84965232D01*
X144184066Y-85025300D01*
X144184065Y-85025300D01*
X144222647Y-85029100D01*
X144338392Y-85040500D01*
X144338395Y-85040500D01*
X146041605Y-85040500D01*
X146041608Y-85040500D01*
X146195934Y-85025300D01*
X146393954Y-84965232D01*
X146576450Y-84867685D01*
X146700167Y-84766153D01*
X146764476Y-84738841D01*
X146833344Y-84750632D01*
X146866512Y-84774326D01*
X149463181Y-87370995D01*
X149496666Y-87432318D01*
X149499500Y-87458676D01*
X149499500Y-124241324D01*
X149479815Y-124308363D01*
X149463181Y-124329005D01*
X145829005Y-127963181D01*
X145767682Y-127996666D01*
X145741324Y-127999500D01*
X136698108Y-127999500D01*
X136570812Y-128033608D01*
X136456686Y-128099500D01*
X136456683Y-128099502D01*
X135201341Y-129354843D01*
X135140018Y-129388328D01*
X135075341Y-129385093D01*
X134933316Y-129338946D01*
X134822263Y-129321357D01*
X134725303Y-129306000D01*
X134514697Y-129306000D01*
X134429562Y-129319484D01*
X134306683Y-129338946D01*
X134106381Y-129404028D01*
X133918734Y-129499640D01*
X133874370Y-129531873D01*
X133748352Y-129623431D01*
X133748350Y-129623433D01*
X133748349Y-129623433D01*
X133599433Y-129772349D01*
X133599433Y-129772350D01*
X133599431Y-129772352D01*
X133547463Y-129843879D01*
X133475638Y-129942737D01*
X133460484Y-129972479D01*
X133412510Y-130023274D01*
X133344689Y-130040069D01*
X133278554Y-130017531D01*
X133239516Y-129972479D01*
X133224361Y-129942737D01*
X133207115Y-129919000D01*
X133100569Y-129772352D01*
X132951648Y-129623431D01*
X132781265Y-129499640D01*
X132725256Y-129471102D01*
X132648205Y-129431842D01*
X132597409Y-129383867D01*
X132580500Y-129321357D01*
X132580500Y-129014110D01*
X132580500Y-129014108D01*
X132546392Y-128886814D01*
X132480500Y-128772686D01*
X132387314Y-128679500D01*
X127937314Y-124229500D01*
X127863380Y-124186814D01*
X127823187Y-124163608D01*
X127759539Y-124146554D01*
X127695892Y-124129500D01*
X127695891Y-124129500D01*
X127607949Y-124129500D01*
X127540910Y-124109815D01*
X127498592Y-124063955D01*
X127487684Y-124043548D01*
X127356410Y-123883589D01*
X127196452Y-123752317D01*
X127196453Y-123752317D01*
X127196450Y-123752315D01*
X127013954Y-123654768D01*
X126815934Y-123594700D01*
X126815932Y-123594699D01*
X126815934Y-123594699D01*
X126696805Y-123582966D01*
X126661608Y-123579500D01*
X124958392Y-123579500D01*
X124920298Y-123583251D01*
X124804067Y-123594699D01*
X124636602Y-123645499D01*
X124609930Y-123653590D01*
X124606043Y-123654769D01*
X124532074Y-123694307D01*
X124423550Y-123752315D01*
X124423548Y-123752316D01*
X124423547Y-123752317D01*
X124263589Y-123883589D01*
X124132317Y-124043547D01*
X124132316Y-124043548D01*
X124132315Y-124043550D01*
X124096895Y-124109815D01*
X124034769Y-124226043D01*
X123974699Y-124424067D01*
X123963251Y-124540298D01*
X123959500Y-124578392D01*
X123959500Y-124681608D01*
X123960641Y-124693188D01*
X123974699Y-124835932D01*
X123974700Y-124835934D01*
X124034768Y-125033954D01*
X124081449Y-125121288D01*
X124132317Y-125216453D01*
X124233845Y-125340165D01*
X124261158Y-125404475D01*
X124249367Y-125473343D01*
X124225674Y-125506511D01*
X124152686Y-125579499D01*
X124135246Y-125596940D01*
X124135244Y-125596940D01*
X124135245Y-125596941D01*
X124059500Y-125672686D01*
X123993608Y-125786812D01*
X123959500Y-125914108D01*
X123959500Y-129328871D01*
X123939815Y-129395910D01*
X123891796Y-129439355D01*
X123829492Y-129471100D01*
X123676295Y-129582405D01*
X123542405Y-129716295D01*
X123431102Y-129869490D01*
X123345135Y-130038207D01*
X123345134Y-130038210D01*
X123307931Y-130152713D01*
X123268494Y-130210388D01*
X123204135Y-130237587D01*
X123135289Y-130225673D01*
X123083813Y-130178429D01*
X123072069Y-130152713D01*
X123034865Y-130038210D01*
X123034864Y-130038207D01*
X122974124Y-129919000D01*
X122948898Y-129869491D01*
X122837597Y-129716298D01*
X122703702Y-129582403D01*
X122627105Y-129526752D01*
X122550507Y-129471100D01*
X122488204Y-129439355D01*
X122437409Y-129391381D01*
X122420500Y-129328871D01*
X122420500Y-124638675D01*
X122440185Y-124571636D01*
X122456814Y-124550999D01*
X124133489Y-122874323D01*
X124194810Y-122840840D01*
X124264502Y-122845824D01*
X124299830Y-122866151D01*
X124423550Y-122967685D01*
X124606046Y-123065232D01*
X124804066Y-123125300D01*
X124804065Y-123125300D01*
X124842647Y-123129100D01*
X124958392Y-123140500D01*
X124958395Y-123140500D01*
X126661605Y-123140500D01*
X126661608Y-123140500D01*
X126815934Y-123125300D01*
X127013954Y-123065232D01*
X127196450Y-122967685D01*
X127356410Y-122836410D01*
X127487685Y-122676450D01*
X127585232Y-122493954D01*
X127645300Y-122295934D01*
X127660500Y-122141608D01*
X127660500Y-122038392D01*
X127656624Y-121999043D01*
X127669642Y-121930400D01*
X127717707Y-121879689D01*
X127785558Y-121863014D01*
X127851652Y-121885669D01*
X127867708Y-121899210D01*
X129513998Y-123545500D01*
X129628126Y-123611392D01*
X129755420Y-123645500D01*
X129887205Y-123645500D01*
X131965258Y-123645500D01*
X132032297Y-123665185D01*
X132078052Y-123717989D01*
X132087996Y-123787147D01*
X132074616Y-123827954D01*
X131984769Y-123996043D01*
X131924699Y-124194067D01*
X131920045Y-124241324D01*
X131909500Y-124348392D01*
X131909500Y-126051608D01*
X131912178Y-126078793D01*
X131924699Y-126205932D01*
X131948135Y-126283191D01*
X131984768Y-126403954D01*
X132082315Y-126586450D01*
X132082317Y-126586452D01*
X132213589Y-126746410D01*
X132301844Y-126818838D01*
X132373550Y-126877685D01*
X132556046Y-126975232D01*
X132754066Y-127035300D01*
X132754065Y-127035300D01*
X132792647Y-127039100D01*
X132908392Y-127050500D01*
X132908395Y-127050500D01*
X133011605Y-127050500D01*
X133011608Y-127050500D01*
X133165934Y-127035300D01*
X133363954Y-126975232D01*
X133546450Y-126877685D01*
X133706410Y-126746410D01*
X133837685Y-126586450D01*
X133935232Y-126403954D01*
X133995300Y-126205934D01*
X134010500Y-126051608D01*
X134010500Y-124348392D01*
X133995300Y-124194066D01*
X133935232Y-123996046D01*
X133845383Y-123827953D01*
X133831142Y-123759551D01*
X133856142Y-123694307D01*
X133912447Y-123652936D01*
X133954742Y-123645500D01*
X134320500Y-123645500D01*
X134387539Y-123665185D01*
X134433294Y-123717989D01*
X134444500Y-123769500D01*
X134444500Y-126078791D01*
X134449407Y-126128624D01*
X134449407Y-126128628D01*
X134480150Y-126283191D01*
X134494692Y-126331129D01*
X134554995Y-126476711D01*
X134554998Y-126476718D01*
X134555003Y-126476727D01*
X134578600Y-126520877D01*
X134578611Y-126520895D01*
X134666152Y-126651909D01*
X134666162Y-126651923D01*
X134697937Y-126690641D01*
X134809358Y-126802062D01*
X134809363Y-126802066D01*
X134809364Y-126802067D01*
X134848082Y-126833842D01*
X134979110Y-126921392D01*
X134979114Y-126921394D01*
X134979122Y-126921399D01*
X134999969Y-126932541D01*
X135023282Y-126945002D01*
X135120342Y-126985206D01*
X135168870Y-127005307D01*
X135168872Y-127005307D01*
X135168873Y-127005308D01*
X135216804Y-127019848D01*
X135216806Y-127019848D01*
X135216808Y-127019849D01*
X135239494Y-127024361D01*
X135371362Y-127050591D01*
X135421207Y-127055500D01*
X135421209Y-127055500D01*
X135578791Y-127055500D01*
X135578793Y-127055500D01*
X135628638Y-127050591D01*
X135783196Y-127019848D01*
X135831127Y-127005308D01*
X135976718Y-126945002D01*
X136020890Y-126921392D01*
X136151918Y-126833842D01*
X136190636Y-126802067D01*
X136302067Y-126690636D01*
X136333842Y-126651918D01*
X136421392Y-126520890D01*
X136445002Y-126476718D01*
X136505308Y-126331127D01*
X136519848Y-126283196D01*
X136550591Y-126128638D01*
X136555500Y-126078793D01*
X136555500Y-123769500D01*
X136575185Y-123702461D01*
X136627989Y-123656706D01*
X136679500Y-123645500D01*
X137045258Y-123645500D01*
X137112297Y-123665185D01*
X137158052Y-123717989D01*
X137167996Y-123787147D01*
X137154616Y-123827954D01*
X137064769Y-123996043D01*
X137004699Y-124194067D01*
X137000045Y-124241324D01*
X136989500Y-124348392D01*
X136989500Y-126051608D01*
X136992178Y-126078793D01*
X137004699Y-126205932D01*
X137028135Y-126283191D01*
X137064768Y-126403954D01*
X137162315Y-126586450D01*
X137162317Y-126586452D01*
X137293589Y-126746410D01*
X137381844Y-126818838D01*
X137453550Y-126877685D01*
X137636046Y-126975232D01*
X137834066Y-127035300D01*
X137834065Y-127035300D01*
X137872647Y-127039100D01*
X137988392Y-127050500D01*
X137988395Y-127050500D01*
X138091605Y-127050500D01*
X138091608Y-127050500D01*
X138245934Y-127035300D01*
X138443954Y-126975232D01*
X138626450Y-126877685D01*
X138786410Y-126746410D01*
X138917685Y-126586450D01*
X139015232Y-126403954D01*
X139075300Y-126205934D01*
X139090500Y-126051608D01*
X139090500Y-124348392D01*
X139075300Y-124194066D01*
X139015232Y-123996046D01*
X138925383Y-123827953D01*
X138911142Y-123759551D01*
X138936142Y-123694307D01*
X138992447Y-123652936D01*
X139034742Y-123645500D01*
X143446324Y-123645500D01*
X143513363Y-123665185D01*
X143534005Y-123681819D01*
X143605673Y-123753487D01*
X143639158Y-123814810D01*
X143634174Y-123884502D01*
X143613846Y-123919832D01*
X143512317Y-124043546D01*
X143414769Y-124226043D01*
X143354699Y-124424067D01*
X143343251Y-124540298D01*
X143339500Y-124578392D01*
X143339500Y-124681608D01*
X143340641Y-124693188D01*
X143354699Y-124835932D01*
X143354700Y-124835934D01*
X143414768Y-125033954D01*
X143512315Y-125216450D01*
X143546969Y-125258677D01*
X143643589Y-125376410D01*
X143740209Y-125455702D01*
X143803550Y-125507685D01*
X143986046Y-125605232D01*
X144184066Y-125665300D01*
X144184065Y-125665300D01*
X144222647Y-125669100D01*
X144338392Y-125680500D01*
X144338395Y-125680500D01*
X146041605Y-125680500D01*
X146041608Y-125680500D01*
X146195934Y-125665300D01*
X146393954Y-125605232D01*
X146576450Y-125507685D01*
X146736410Y-125376410D01*
X146867685Y-125216450D01*
X146965232Y-125033954D01*
X147025300Y-124835934D01*
X147040500Y-124681608D01*
X147040500Y-124578392D01*
X147025300Y-124424066D01*
X146965232Y-124226046D01*
X146867685Y-124043550D01*
X146766153Y-123919832D01*
X146736410Y-123883589D01*
X146576452Y-123752317D01*
X146576453Y-123752317D01*
X146576450Y-123752315D01*
X146393954Y-123654768D01*
X146195934Y-123594700D01*
X146195932Y-123594699D01*
X146195934Y-123594699D01*
X146076805Y-123582966D01*
X146041608Y-123579500D01*
X146041605Y-123579500D01*
X144898676Y-123579500D01*
X144831637Y-123559815D01*
X144810995Y-123543181D01*
X144619995Y-123352181D01*
X144586510Y-123290858D01*
X144591494Y-123221166D01*
X144633366Y-123165233D01*
X144698830Y-123140816D01*
X144707676Y-123140500D01*
X146041605Y-123140500D01*
X146041608Y-123140500D01*
X146195934Y-123125300D01*
X146393954Y-123065232D01*
X146576450Y-122967685D01*
X146736410Y-122836410D01*
X146867685Y-122676450D01*
X146965232Y-122493954D01*
X147025300Y-122295934D01*
X147040500Y-122141608D01*
X147040500Y-122038392D01*
X147025300Y-121884066D01*
X146965232Y-121686046D01*
X146867685Y-121503550D01*
X146768839Y-121383105D01*
X146736410Y-121343589D01*
X146576452Y-121212317D01*
X146576453Y-121212317D01*
X146576450Y-121212315D01*
X146393954Y-121114768D01*
X146195934Y-121054700D01*
X146195932Y-121054699D01*
X146195934Y-121054699D01*
X146076805Y-121042966D01*
X146041608Y-121039500D01*
X144338392Y-121039500D01*
X144300298Y-121043251D01*
X144184067Y-121054699D01*
X143986043Y-121114769D01*
X143875898Y-121173643D01*
X143803550Y-121212315D01*
X143803548Y-121212316D01*
X143803547Y-121212317D01*
X143643589Y-121343589D01*
X143512315Y-121503548D01*
X143501408Y-121523955D01*
X143452445Y-121573798D01*
X143392051Y-121589500D01*
X131534988Y-121589500D01*
X131467949Y-121569815D01*
X131447307Y-121553181D01*
X130083912Y-120189786D01*
X143335000Y-120189786D01*
X143354408Y-120287356D01*
X143354410Y-120287363D01*
X143384855Y-120360868D01*
X143384859Y-120360876D01*
X143440132Y-120443598D01*
X143440138Y-120443606D01*
X143496394Y-120499862D01*
X143496402Y-120499868D01*
X143579115Y-120555135D01*
X143579132Y-120555145D01*
X143652631Y-120585588D01*
X143652643Y-120585591D01*
X143750213Y-120604999D01*
X143750217Y-120605000D01*
X144940000Y-120605000D01*
X145440000Y-120605000D01*
X146068788Y-120605000D01*
X146118540Y-120600099D01*
X146118541Y-120600099D01*
X146273091Y-120569358D01*
X146273093Y-120569357D01*
X146320937Y-120554845D01*
X146466527Y-120494539D01*
X146510608Y-120470977D01*
X146510628Y-120470965D01*
X146641622Y-120383438D01*
X146641645Y-120383421D01*
X146680287Y-120351708D01*
X146791708Y-120240287D01*
X146823421Y-120201645D01*
X146823438Y-120201622D01*
X146910965Y-120070628D01*
X146910977Y-120070608D01*
X146934539Y-120026527D01*
X146994846Y-119880933D01*
X147009353Y-119833111D01*
X147009356Y-119833100D01*
X147015940Y-119800000D01*
X145440000Y-119800000D01*
X145440000Y-120605000D01*
X144940000Y-120605000D01*
X144940000Y-119800000D01*
X143335000Y-119800000D01*
X143335000Y-120189786D01*
X130083912Y-120189786D01*
X128804339Y-118910213D01*
X143335000Y-118910213D01*
X143335000Y-119300000D01*
X144940000Y-119300000D01*
X145440000Y-119300000D01*
X147015939Y-119300000D01*
X147009356Y-119266899D01*
X147009353Y-119266888D01*
X146994846Y-119219066D01*
X146934539Y-119073472D01*
X146910977Y-119029391D01*
X146910965Y-119029371D01*
X146823438Y-118898377D01*
X146823421Y-118898354D01*
X146791708Y-118859712D01*
X146680287Y-118748291D01*
X146641645Y-118716578D01*
X146641622Y-118716561D01*
X146510628Y-118629034D01*
X146510608Y-118629022D01*
X146466527Y-118605460D01*
X146320937Y-118545154D01*
X146273093Y-118530642D01*
X146273091Y-118530641D01*
X146118541Y-118499900D01*
X146068788Y-118495000D01*
X145440000Y-118495000D01*
X145440000Y-119300000D01*
X144940000Y-119300000D01*
X144940000Y-118495000D01*
X143750213Y-118495000D01*
X143652643Y-118514408D01*
X143652636Y-118514410D01*
X143579121Y-118544859D01*
X143569537Y-118551263D01*
X143569538Y-118551264D01*
X143496393Y-118600138D01*
X143440137Y-118656394D01*
X143440131Y-118656402D01*
X143384864Y-118739115D01*
X143384854Y-118739132D01*
X143354411Y-118812631D01*
X143354408Y-118812643D01*
X143335000Y-118910213D01*
X128804339Y-118910213D01*
X127788628Y-117894502D01*
X127788626Y-117894500D01*
X127731562Y-117861554D01*
X127674499Y-117828608D01*
X127594810Y-117807255D01*
X127550942Y-117795501D01*
X127491282Y-117759137D01*
X127460753Y-117696290D01*
X127469048Y-117626914D01*
X127484423Y-117601603D01*
X127484298Y-117601520D01*
X127486244Y-117598607D01*
X127487184Y-117597060D01*
X127487685Y-117596450D01*
X127585232Y-117413954D01*
X127645300Y-117215934D01*
X127660500Y-117061608D01*
X127660500Y-116958392D01*
X127645300Y-116804066D01*
X127585232Y-116606046D01*
X127498055Y-116442951D01*
X127483814Y-116374551D01*
X127508814Y-116309307D01*
X127565118Y-116267936D01*
X127607414Y-116260500D01*
X143392586Y-116260500D01*
X143459625Y-116280185D01*
X143505380Y-116332989D01*
X143515324Y-116402147D01*
X143501945Y-116442950D01*
X143486321Y-116472181D01*
X143414769Y-116606043D01*
X143354699Y-116804067D01*
X143339500Y-116958395D01*
X143339500Y-117061604D01*
X143354699Y-117215932D01*
X143354700Y-117215934D01*
X143414768Y-117413954D01*
X143512315Y-117596450D01*
X143537316Y-117626914D01*
X143643589Y-117756410D01*
X143690003Y-117794500D01*
X143803550Y-117887685D01*
X143986046Y-117985232D01*
X144184066Y-118045300D01*
X144184065Y-118045300D01*
X144222647Y-118049100D01*
X144338392Y-118060500D01*
X144338395Y-118060500D01*
X146041605Y-118060500D01*
X146041608Y-118060500D01*
X146195934Y-118045300D01*
X146393954Y-117985232D01*
X146576450Y-117887685D01*
X146736410Y-117756410D01*
X146867685Y-117596450D01*
X146965232Y-117413954D01*
X147025300Y-117215934D01*
X147040500Y-117061608D01*
X147040500Y-116958392D01*
X147025300Y-116804066D01*
X146965232Y-116606046D01*
X146867685Y-116423550D01*
X146772295Y-116307316D01*
X146736410Y-116263589D01*
X146576452Y-116132317D01*
X146576453Y-116132317D01*
X146576450Y-116132315D01*
X146393954Y-116034768D01*
X146195934Y-115974700D01*
X146195932Y-115974699D01*
X146195934Y-115974699D01*
X146076805Y-115962966D01*
X146041608Y-115959500D01*
X146041605Y-115959500D01*
X144898676Y-115959500D01*
X144831637Y-115939815D01*
X144810995Y-115923181D01*
X144619995Y-115732181D01*
X144586510Y-115670858D01*
X144591494Y-115601166D01*
X144633366Y-115545233D01*
X144698830Y-115520816D01*
X144707676Y-115520500D01*
X146041605Y-115520500D01*
X146041608Y-115520500D01*
X146195934Y-115505300D01*
X146393954Y-115445232D01*
X146576450Y-115347685D01*
X146736410Y-115216410D01*
X146867685Y-115056450D01*
X146965232Y-114873954D01*
X147025300Y-114675934D01*
X147040500Y-114521608D01*
X147040500Y-114418392D01*
X147025300Y-114264066D01*
X146965232Y-114066046D01*
X146867685Y-113883550D01*
X146815702Y-113820209D01*
X146736410Y-113723589D01*
X146576452Y-113592317D01*
X146576453Y-113592317D01*
X146576450Y-113592315D01*
X146393954Y-113494768D01*
X146195934Y-113434700D01*
X146195932Y-113434699D01*
X146195934Y-113434699D01*
X146076805Y-113422966D01*
X146041608Y-113419500D01*
X144338392Y-113419500D01*
X144300298Y-113423251D01*
X144184067Y-113434699D01*
X143986043Y-113494769D01*
X143875898Y-113553643D01*
X143803550Y-113592315D01*
X143803548Y-113592316D01*
X143803547Y-113592317D01*
X143643589Y-113723589D01*
X143512317Y-113883547D01*
X143414769Y-114066043D01*
X143354699Y-114264067D01*
X143339500Y-114418395D01*
X143339500Y-114521604D01*
X143354699Y-114675932D01*
X143414769Y-114873956D01*
X143512316Y-115056451D01*
X143512627Y-115056830D01*
X143512729Y-115057070D01*
X143515702Y-115061520D01*
X143514858Y-115062083D01*
X143539944Y-115121139D01*
X143528156Y-115190007D01*
X143481006Y-115241569D01*
X143416778Y-115259500D01*
X127583222Y-115259500D01*
X127516183Y-115239815D01*
X127470428Y-115187011D01*
X127460484Y-115117853D01*
X127485077Y-115062040D01*
X127484298Y-115061520D01*
X127487259Y-115057086D01*
X127487373Y-115056830D01*
X127487685Y-115056450D01*
X127585232Y-114873954D01*
X127645300Y-114675934D01*
X127660500Y-114521608D01*
X127660500Y-114418392D01*
X127645300Y-114264066D01*
X127585232Y-114066046D01*
X127487685Y-113883550D01*
X127435702Y-113820209D01*
X127356410Y-113723589D01*
X127196452Y-113592317D01*
X127196453Y-113592317D01*
X127196450Y-113592315D01*
X127013954Y-113494768D01*
X126815934Y-113434700D01*
X126815932Y-113434699D01*
X126815934Y-113434699D01*
X126696805Y-113422966D01*
X126661608Y-113419500D01*
X124958392Y-113419500D01*
X124920298Y-113423251D01*
X124804067Y-113434699D01*
X124606043Y-113494769D01*
X124495898Y-113553643D01*
X124423550Y-113592315D01*
X124423548Y-113592316D01*
X124423547Y-113592317D01*
X124263589Y-113723589D01*
X124132317Y-113883547D01*
X124034769Y-114066043D01*
X123974699Y-114264067D01*
X123959500Y-114418395D01*
X123959500Y-114521604D01*
X123974699Y-114675932D01*
X124034769Y-114873956D01*
X124132316Y-115056451D01*
X124132627Y-115056830D01*
X124132729Y-115057070D01*
X124135702Y-115061520D01*
X124134858Y-115062083D01*
X124159944Y-115121139D01*
X124148156Y-115190007D01*
X124101006Y-115241569D01*
X124036778Y-115259500D01*
X116018675Y-115259500D01*
X115951636Y-115239815D01*
X115930994Y-115223181D01*
X115536819Y-114829005D01*
X115503334Y-114767682D01*
X115500500Y-114741324D01*
X115500500Y-111878395D01*
X123959500Y-111878395D01*
X123959500Y-111981604D01*
X123974699Y-112135932D01*
X123974700Y-112135934D01*
X124034768Y-112333954D01*
X124132315Y-112516450D01*
X124132317Y-112516452D01*
X124263589Y-112676410D01*
X124360209Y-112755702D01*
X124423550Y-112807685D01*
X124606046Y-112905232D01*
X124804066Y-112965300D01*
X124804065Y-112965300D01*
X124842647Y-112969100D01*
X124958392Y-112980500D01*
X124958395Y-112980500D01*
X126661605Y-112980500D01*
X126661608Y-112980500D01*
X126815934Y-112965300D01*
X127013954Y-112905232D01*
X127196450Y-112807685D01*
X127356410Y-112676410D01*
X127487685Y-112516450D01*
X127585232Y-112333954D01*
X127645300Y-112135934D01*
X127660500Y-111981608D01*
X127660500Y-111878395D01*
X143339500Y-111878395D01*
X143339500Y-111981604D01*
X143354699Y-112135932D01*
X143354700Y-112135934D01*
X143414768Y-112333954D01*
X143512315Y-112516450D01*
X143512317Y-112516452D01*
X143643589Y-112676410D01*
X143740209Y-112755702D01*
X143803550Y-112807685D01*
X143986046Y-112905232D01*
X144184066Y-112965300D01*
X144184065Y-112965300D01*
X144222647Y-112969100D01*
X144338392Y-112980500D01*
X144338395Y-112980500D01*
X146041605Y-112980500D01*
X146041608Y-112980500D01*
X146195934Y-112965300D01*
X146393954Y-112905232D01*
X146576450Y-112807685D01*
X146736410Y-112676410D01*
X146867685Y-112516450D01*
X146965232Y-112333954D01*
X147025300Y-112135934D01*
X147040500Y-111981608D01*
X147040500Y-111878392D01*
X147025300Y-111724066D01*
X146965232Y-111526046D01*
X146867685Y-111343550D01*
X146815702Y-111280209D01*
X146736410Y-111183589D01*
X146576452Y-111052317D01*
X146576453Y-111052317D01*
X146576450Y-111052315D01*
X146393954Y-110954768D01*
X146195934Y-110894700D01*
X146195932Y-110894699D01*
X146195934Y-110894699D01*
X146076805Y-110882966D01*
X146041608Y-110879500D01*
X144338392Y-110879500D01*
X144300298Y-110883251D01*
X144184067Y-110894699D01*
X143986043Y-110954769D01*
X143875898Y-111013643D01*
X143803550Y-111052315D01*
X143803548Y-111052316D01*
X143803547Y-111052317D01*
X143643589Y-111183589D01*
X143512317Y-111343547D01*
X143414769Y-111526043D01*
X143354699Y-111724067D01*
X143339500Y-111878395D01*
X127660500Y-111878395D01*
X127660500Y-111878392D01*
X127645300Y-111724066D01*
X127585232Y-111526046D01*
X127487685Y-111343550D01*
X127435702Y-111280209D01*
X127356410Y-111183589D01*
X127196452Y-111052317D01*
X127196453Y-111052317D01*
X127196450Y-111052315D01*
X127013954Y-110954768D01*
X126815934Y-110894700D01*
X126815932Y-110894699D01*
X126815934Y-110894699D01*
X126696805Y-110882966D01*
X126661608Y-110879500D01*
X124958392Y-110879500D01*
X124920298Y-110883251D01*
X124804067Y-110894699D01*
X124606043Y-110954769D01*
X124495898Y-111013643D01*
X124423550Y-111052315D01*
X124423548Y-111052316D01*
X124423547Y-111052317D01*
X124263589Y-111183589D01*
X124132317Y-111343547D01*
X124034769Y-111526043D01*
X123974699Y-111724067D01*
X123959500Y-111878395D01*
X115500500Y-111878395D01*
X115500500Y-109338395D01*
X123959500Y-109338395D01*
X123959500Y-109441604D01*
X123974699Y-109595932D01*
X123974700Y-109595934D01*
X124034768Y-109793954D01*
X124132315Y-109976450D01*
X124132317Y-109976452D01*
X124263589Y-110136410D01*
X124360209Y-110215702D01*
X124423550Y-110267685D01*
X124606046Y-110365232D01*
X124804066Y-110425300D01*
X124804065Y-110425300D01*
X124842647Y-110429100D01*
X124958392Y-110440500D01*
X124958395Y-110440500D01*
X126661605Y-110440500D01*
X126661608Y-110440500D01*
X126815934Y-110425300D01*
X127013954Y-110365232D01*
X127196450Y-110267685D01*
X127356410Y-110136410D01*
X127487685Y-109976450D01*
X127585232Y-109793954D01*
X127645300Y-109595934D01*
X127660500Y-109441608D01*
X127660500Y-109338395D01*
X143339500Y-109338395D01*
X143339500Y-109441604D01*
X143354699Y-109595932D01*
X143354700Y-109595934D01*
X143414768Y-109793954D01*
X143512315Y-109976450D01*
X143512317Y-109976452D01*
X143643589Y-110136410D01*
X143740209Y-110215702D01*
X143803550Y-110267685D01*
X143986046Y-110365232D01*
X144184066Y-110425300D01*
X144184065Y-110425300D01*
X144222647Y-110429100D01*
X144338392Y-110440500D01*
X144338395Y-110440500D01*
X146041605Y-110440500D01*
X146041608Y-110440500D01*
X146195934Y-110425300D01*
X146393954Y-110365232D01*
X146576450Y-110267685D01*
X146736410Y-110136410D01*
X146867685Y-109976450D01*
X146965232Y-109793954D01*
X147025300Y-109595934D01*
X147040500Y-109441608D01*
X147040500Y-109338392D01*
X147025300Y-109184066D01*
X146965232Y-108986046D01*
X146867685Y-108803550D01*
X146815702Y-108740209D01*
X146736410Y-108643589D01*
X146576452Y-108512317D01*
X146576453Y-108512317D01*
X146576450Y-108512315D01*
X146393954Y-108414768D01*
X146195934Y-108354700D01*
X146195932Y-108354699D01*
X146195934Y-108354699D01*
X146076805Y-108342966D01*
X146041608Y-108339500D01*
X144338392Y-108339500D01*
X144300298Y-108343251D01*
X144184067Y-108354699D01*
X143986043Y-108414769D01*
X143875898Y-108473643D01*
X143803550Y-108512315D01*
X143803548Y-108512316D01*
X143803547Y-108512317D01*
X143643589Y-108643589D01*
X143512317Y-108803547D01*
X143414769Y-108986043D01*
X143354699Y-109184067D01*
X143339500Y-109338395D01*
X127660500Y-109338395D01*
X127660500Y-109338392D01*
X127645300Y-109184066D01*
X127585232Y-108986046D01*
X127487685Y-108803550D01*
X127435702Y-108740209D01*
X127356410Y-108643589D01*
X127196452Y-108512317D01*
X127196453Y-108512317D01*
X127196450Y-108512315D01*
X127013954Y-108414768D01*
X126815934Y-108354700D01*
X126815932Y-108354699D01*
X126815934Y-108354699D01*
X126696805Y-108342966D01*
X126661608Y-108339500D01*
X124958392Y-108339500D01*
X124920298Y-108343251D01*
X124804067Y-108354699D01*
X124606043Y-108414769D01*
X124495898Y-108473643D01*
X124423550Y-108512315D01*
X124423548Y-108512316D01*
X124423547Y-108512317D01*
X124263589Y-108643589D01*
X124132317Y-108803547D01*
X124034769Y-108986043D01*
X123974699Y-109184067D01*
X123959500Y-109338395D01*
X115500500Y-109338395D01*
X115500500Y-107100000D01*
X123984060Y-107100000D01*
X123990643Y-107133100D01*
X123990646Y-107133111D01*
X124005153Y-107180933D01*
X124065460Y-107326527D01*
X124089022Y-107370608D01*
X124089034Y-107370628D01*
X124176561Y-107501622D01*
X124176578Y-107501645D01*
X124208291Y-107540287D01*
X124319712Y-107651708D01*
X124358354Y-107683421D01*
X124358377Y-107683438D01*
X124489371Y-107770965D01*
X124489391Y-107770977D01*
X124533472Y-107794539D01*
X124679062Y-107854845D01*
X124726906Y-107869357D01*
X124726908Y-107869358D01*
X124881458Y-107900099D01*
X124931212Y-107905000D01*
X125560000Y-107905000D01*
X126060000Y-107905000D01*
X127249783Y-107905000D01*
X127249786Y-107904999D01*
X127347356Y-107885591D01*
X127347363Y-107885589D01*
X127420873Y-107855142D01*
X127431025Y-107848359D01*
X127431028Y-107848356D01*
X127503605Y-107799862D01*
X127559862Y-107743605D01*
X127559868Y-107743597D01*
X127615135Y-107660884D01*
X127615145Y-107660867D01*
X127645588Y-107587368D01*
X127645591Y-107587356D01*
X127664999Y-107489786D01*
X143335000Y-107489786D01*
X143354408Y-107587356D01*
X143354410Y-107587363D01*
X143384855Y-107660868D01*
X143384859Y-107660876D01*
X143440132Y-107743598D01*
X143440138Y-107743606D01*
X143496394Y-107799862D01*
X143496402Y-107799868D01*
X143579115Y-107855135D01*
X143579132Y-107855145D01*
X143652631Y-107885588D01*
X143652643Y-107885591D01*
X143750213Y-107904999D01*
X143750217Y-107905000D01*
X144940000Y-107905000D01*
X145440000Y-107905000D01*
X146068788Y-107905000D01*
X146118540Y-107900099D01*
X146118541Y-107900099D01*
X146273091Y-107869358D01*
X146273093Y-107869357D01*
X146320937Y-107854845D01*
X146466527Y-107794539D01*
X146510608Y-107770977D01*
X146510628Y-107770965D01*
X146641622Y-107683438D01*
X146641645Y-107683421D01*
X146680287Y-107651708D01*
X146791708Y-107540287D01*
X146823421Y-107501645D01*
X146823438Y-107501622D01*
X146910965Y-107370628D01*
X146910977Y-107370608D01*
X146934539Y-107326527D01*
X146994846Y-107180933D01*
X147009353Y-107133111D01*
X147009356Y-107133100D01*
X147015940Y-107100000D01*
X145440000Y-107100000D01*
X145440000Y-107905000D01*
X144940000Y-107905000D01*
X144940000Y-107100000D01*
X143335000Y-107100000D01*
X143335000Y-107489786D01*
X127664999Y-107489786D01*
X127665000Y-107489783D01*
X127665000Y-107100000D01*
X126060000Y-107100000D01*
X126060000Y-107905000D01*
X125560000Y-107905000D01*
X125560000Y-107100000D01*
X123984060Y-107100000D01*
X115500500Y-107100000D01*
X115500500Y-106600000D01*
X123984060Y-106600000D01*
X125560000Y-106600000D01*
X126060000Y-106600000D01*
X127665000Y-106600000D01*
X127665000Y-106210217D01*
X127664999Y-106210213D01*
X143335000Y-106210213D01*
X143335000Y-106600000D01*
X144940000Y-106600000D01*
X145440000Y-106600000D01*
X147015939Y-106600000D01*
X147009356Y-106566899D01*
X147009353Y-106566888D01*
X146994846Y-106519066D01*
X146934539Y-106373472D01*
X146910977Y-106329391D01*
X146910965Y-106329371D01*
X146823438Y-106198377D01*
X146823421Y-106198354D01*
X146791708Y-106159712D01*
X146680287Y-106048291D01*
X146641645Y-106016578D01*
X146641622Y-106016561D01*
X146510628Y-105929034D01*
X146510608Y-105929022D01*
X146466527Y-105905460D01*
X146320937Y-105845154D01*
X146273093Y-105830642D01*
X146273091Y-105830641D01*
X146118541Y-105799900D01*
X146068788Y-105795000D01*
X145440000Y-105795000D01*
X145440000Y-106600000D01*
X144940000Y-106600000D01*
X144940000Y-105795000D01*
X143750213Y-105795000D01*
X143652643Y-105814408D01*
X143652636Y-105814410D01*
X143579121Y-105844859D01*
X143569537Y-105851263D01*
X143569538Y-105851264D01*
X143496393Y-105900138D01*
X143440137Y-105956394D01*
X143440131Y-105956402D01*
X143384864Y-106039115D01*
X143384854Y-106039132D01*
X143354411Y-106112631D01*
X143354408Y-106112643D01*
X143335000Y-106210213D01*
X127664999Y-106210213D01*
X127645591Y-106112643D01*
X127645589Y-106112636D01*
X127615142Y-106039126D01*
X127608359Y-106028975D01*
X127608357Y-106028971D01*
X127559867Y-105956401D01*
X127559861Y-105956393D01*
X127503605Y-105900137D01*
X127503597Y-105900131D01*
X127420884Y-105844864D01*
X127420867Y-105844854D01*
X127347368Y-105814411D01*
X127347356Y-105814408D01*
X127249786Y-105795000D01*
X126060000Y-105795000D01*
X126060000Y-106600000D01*
X125560000Y-106600000D01*
X125560000Y-105795000D01*
X124931212Y-105795000D01*
X124881459Y-105799900D01*
X124881458Y-105799900D01*
X124726908Y-105830641D01*
X124726906Y-105830642D01*
X124679062Y-105845154D01*
X124533472Y-105905460D01*
X124489391Y-105929022D01*
X124489371Y-105929034D01*
X124358377Y-106016561D01*
X124358354Y-106016578D01*
X124319712Y-106048291D01*
X124208291Y-106159712D01*
X124176578Y-106198354D01*
X124176561Y-106198377D01*
X124089034Y-106329371D01*
X124089022Y-106329391D01*
X124065460Y-106373472D01*
X124005153Y-106519066D01*
X123990646Y-106566888D01*
X123990643Y-106566899D01*
X123984060Y-106600000D01*
X115500500Y-106600000D01*
X115500500Y-104258395D01*
X123959500Y-104258395D01*
X123959500Y-104361604D01*
X123974699Y-104515932D01*
X123974700Y-104515934D01*
X124034768Y-104713954D01*
X124132315Y-104896450D01*
X124132317Y-104896452D01*
X124263589Y-105056410D01*
X124360209Y-105135702D01*
X124423550Y-105187685D01*
X124606046Y-105285232D01*
X124804066Y-105345300D01*
X124804065Y-105345300D01*
X124842647Y-105349100D01*
X124958392Y-105360500D01*
X124958395Y-105360500D01*
X126661605Y-105360500D01*
X126661608Y-105360500D01*
X126815934Y-105345300D01*
X127013954Y-105285232D01*
X127196450Y-105187685D01*
X127356410Y-105056410D01*
X127487685Y-104896450D01*
X127585232Y-104713954D01*
X127645300Y-104515934D01*
X127660500Y-104361608D01*
X127660500Y-104258395D01*
X143339500Y-104258395D01*
X143339500Y-104361604D01*
X143354699Y-104515932D01*
X143354700Y-104515934D01*
X143414768Y-104713954D01*
X143512315Y-104896450D01*
X143512317Y-104896452D01*
X143643589Y-105056410D01*
X143740209Y-105135702D01*
X143803550Y-105187685D01*
X143986046Y-105285232D01*
X144184066Y-105345300D01*
X144184065Y-105345300D01*
X144222647Y-105349100D01*
X144338392Y-105360500D01*
X144338395Y-105360500D01*
X146041605Y-105360500D01*
X146041608Y-105360500D01*
X146195934Y-105345300D01*
X146393954Y-105285232D01*
X146576450Y-105187685D01*
X146736410Y-105056410D01*
X146867685Y-104896450D01*
X146965232Y-104713954D01*
X147025300Y-104515934D01*
X147040500Y-104361608D01*
X147040500Y-104258392D01*
X147025300Y-104104066D01*
X146965232Y-103906046D01*
X146867685Y-103723550D01*
X146815702Y-103660209D01*
X146736410Y-103563589D01*
X146576452Y-103432317D01*
X146576453Y-103432317D01*
X146576450Y-103432315D01*
X146393954Y-103334768D01*
X146195934Y-103274700D01*
X146195932Y-103274699D01*
X146195934Y-103274699D01*
X146076805Y-103262966D01*
X146041608Y-103259500D01*
X144338392Y-103259500D01*
X144300298Y-103263251D01*
X144184067Y-103274699D01*
X143986043Y-103334769D01*
X143875898Y-103393643D01*
X143803550Y-103432315D01*
X143803548Y-103432316D01*
X143803547Y-103432317D01*
X143643589Y-103563589D01*
X143512317Y-103723547D01*
X143414769Y-103906043D01*
X143354699Y-104104067D01*
X143339500Y-104258395D01*
X127660500Y-104258395D01*
X127660500Y-104258392D01*
X127645300Y-104104066D01*
X127585232Y-103906046D01*
X127487685Y-103723550D01*
X127435702Y-103660209D01*
X127356410Y-103563589D01*
X127196452Y-103432317D01*
X127196453Y-103432317D01*
X127196450Y-103432315D01*
X127013954Y-103334768D01*
X126815934Y-103274700D01*
X126815932Y-103274699D01*
X126815934Y-103274699D01*
X126696805Y-103262966D01*
X126661608Y-103259500D01*
X124958392Y-103259500D01*
X124920298Y-103263251D01*
X124804067Y-103274699D01*
X124606043Y-103334769D01*
X124495898Y-103393643D01*
X124423550Y-103432315D01*
X124423548Y-103432316D01*
X124423547Y-103432317D01*
X124263589Y-103563589D01*
X124132317Y-103723547D01*
X124034769Y-103906043D01*
X123974699Y-104104067D01*
X123959500Y-104258395D01*
X115500500Y-104258395D01*
X115500500Y-101718395D01*
X123959500Y-101718395D01*
X123959500Y-101821604D01*
X123974699Y-101975932D01*
X123974700Y-101975934D01*
X124034768Y-102173954D01*
X124132315Y-102356450D01*
X124132317Y-102356452D01*
X124263589Y-102516410D01*
X124360209Y-102595702D01*
X124423550Y-102647685D01*
X124606046Y-102745232D01*
X124804066Y-102805300D01*
X124804065Y-102805300D01*
X124842647Y-102809100D01*
X124958392Y-102820500D01*
X124958395Y-102820500D01*
X126661605Y-102820500D01*
X126661608Y-102820500D01*
X126815934Y-102805300D01*
X127013954Y-102745232D01*
X127196450Y-102647685D01*
X127356410Y-102516410D01*
X127487685Y-102356450D01*
X127585232Y-102173954D01*
X127645300Y-101975934D01*
X127660500Y-101821608D01*
X127660500Y-101718395D01*
X143339500Y-101718395D01*
X143339500Y-101821604D01*
X143354699Y-101975932D01*
X143354700Y-101975934D01*
X143414768Y-102173954D01*
X143512315Y-102356450D01*
X143512317Y-102356452D01*
X143643589Y-102516410D01*
X143740209Y-102595702D01*
X143803550Y-102647685D01*
X143986046Y-102745232D01*
X144184066Y-102805300D01*
X144184065Y-102805300D01*
X144222647Y-102809100D01*
X144338392Y-102820500D01*
X144338395Y-102820500D01*
X146041605Y-102820500D01*
X146041608Y-102820500D01*
X146195934Y-102805300D01*
X146393954Y-102745232D01*
X146576450Y-102647685D01*
X146736410Y-102516410D01*
X146867685Y-102356450D01*
X146965232Y-102173954D01*
X147025300Y-101975934D01*
X147040500Y-101821608D01*
X147040500Y-101718392D01*
X147025300Y-101564066D01*
X146965232Y-101366046D01*
X146867685Y-101183550D01*
X146815702Y-101120209D01*
X146736410Y-101023589D01*
X146576452Y-100892317D01*
X146576453Y-100892317D01*
X146576450Y-100892315D01*
X146393954Y-100794768D01*
X146195934Y-100734700D01*
X146195932Y-100734699D01*
X146195934Y-100734699D01*
X146076805Y-100722966D01*
X146041608Y-100719500D01*
X144338392Y-100719500D01*
X144300298Y-100723251D01*
X144184067Y-100734699D01*
X143986043Y-100794769D01*
X143875898Y-100853643D01*
X143803550Y-100892315D01*
X143803548Y-100892316D01*
X143803547Y-100892317D01*
X143643589Y-101023589D01*
X143512317Y-101183547D01*
X143414769Y-101366043D01*
X143354699Y-101564067D01*
X143339500Y-101718395D01*
X127660500Y-101718395D01*
X127660500Y-101718392D01*
X127645300Y-101564066D01*
X127585232Y-101366046D01*
X127487685Y-101183550D01*
X127435702Y-101120209D01*
X127356410Y-101023589D01*
X127196452Y-100892317D01*
X127196453Y-100892317D01*
X127196450Y-100892315D01*
X127013954Y-100794768D01*
X126815934Y-100734700D01*
X126815932Y-100734699D01*
X126815934Y-100734699D01*
X126696805Y-100722966D01*
X126661608Y-100719500D01*
X124958392Y-100719500D01*
X124920298Y-100723251D01*
X124804067Y-100734699D01*
X124606043Y-100794769D01*
X124495898Y-100853643D01*
X124423550Y-100892315D01*
X124423548Y-100892316D01*
X124423547Y-100892317D01*
X124263589Y-101023589D01*
X124132317Y-101183547D01*
X124034769Y-101366043D01*
X123974699Y-101564067D01*
X123959500Y-101718395D01*
X115500500Y-101718395D01*
X115500500Y-99178395D01*
X123959500Y-99178395D01*
X123959500Y-99281604D01*
X123974699Y-99435932D01*
X123974700Y-99435934D01*
X124034768Y-99633954D01*
X124132315Y-99816450D01*
X124132317Y-99816452D01*
X124263589Y-99976410D01*
X124360209Y-100055702D01*
X124423550Y-100107685D01*
X124606046Y-100205232D01*
X124804066Y-100265300D01*
X124804065Y-100265300D01*
X124842647Y-100269100D01*
X124958392Y-100280500D01*
X124958395Y-100280500D01*
X126661605Y-100280500D01*
X126661608Y-100280500D01*
X126815934Y-100265300D01*
X127013954Y-100205232D01*
X127196450Y-100107685D01*
X127356410Y-99976410D01*
X127487685Y-99816450D01*
X127585232Y-99633954D01*
X127645300Y-99435934D01*
X127660500Y-99281608D01*
X127660500Y-99178395D01*
X143339500Y-99178395D01*
X143339500Y-99281604D01*
X143354699Y-99435932D01*
X143354700Y-99435934D01*
X143414768Y-99633954D01*
X143512315Y-99816450D01*
X143512317Y-99816452D01*
X143643589Y-99976410D01*
X143740209Y-100055702D01*
X143803550Y-100107685D01*
X143986046Y-100205232D01*
X144184066Y-100265300D01*
X144184065Y-100265300D01*
X144222647Y-100269100D01*
X144338392Y-100280500D01*
X144338395Y-100280500D01*
X146041605Y-100280500D01*
X146041608Y-100280500D01*
X146195934Y-100265300D01*
X146393954Y-100205232D01*
X146576450Y-100107685D01*
X146736410Y-99976410D01*
X146867685Y-99816450D01*
X146965232Y-99633954D01*
X147025300Y-99435934D01*
X147040500Y-99281608D01*
X147040500Y-99178392D01*
X147025300Y-99024066D01*
X146965232Y-98826046D01*
X146867685Y-98643550D01*
X146815702Y-98580209D01*
X146736410Y-98483589D01*
X146576452Y-98352317D01*
X146576453Y-98352317D01*
X146576450Y-98352315D01*
X146393954Y-98254768D01*
X146195934Y-98194700D01*
X146195932Y-98194699D01*
X146195934Y-98194699D01*
X146076805Y-98182966D01*
X146041608Y-98179500D01*
X144338392Y-98179500D01*
X144300298Y-98183251D01*
X144184067Y-98194699D01*
X143986043Y-98254769D01*
X143875898Y-98313643D01*
X143803550Y-98352315D01*
X143803548Y-98352316D01*
X143803547Y-98352317D01*
X143643589Y-98483589D01*
X143512317Y-98643547D01*
X143414769Y-98826043D01*
X143354699Y-99024067D01*
X143339500Y-99178395D01*
X127660500Y-99178395D01*
X127660500Y-99178392D01*
X127645300Y-99024066D01*
X127585232Y-98826046D01*
X127487685Y-98643550D01*
X127435702Y-98580209D01*
X127356410Y-98483589D01*
X127196452Y-98352317D01*
X127196453Y-98352317D01*
X127196450Y-98352315D01*
X127013954Y-98254768D01*
X126815934Y-98194700D01*
X126815932Y-98194699D01*
X126815934Y-98194699D01*
X126696805Y-98182966D01*
X126661608Y-98179500D01*
X124958392Y-98179500D01*
X124920298Y-98183251D01*
X124804067Y-98194699D01*
X124606043Y-98254769D01*
X124495898Y-98313643D01*
X124423550Y-98352315D01*
X124423548Y-98352316D01*
X124423547Y-98352317D01*
X124263589Y-98483589D01*
X124132317Y-98643547D01*
X124034769Y-98826043D01*
X123974699Y-99024067D01*
X123959500Y-99178395D01*
X115500500Y-99178395D01*
X115500500Y-96638395D01*
X123959500Y-96638395D01*
X123959500Y-96741604D01*
X123974699Y-96895932D01*
X123974700Y-96895934D01*
X124034768Y-97093954D01*
X124132315Y-97276450D01*
X124132317Y-97276452D01*
X124263589Y-97436410D01*
X124360209Y-97515702D01*
X124423550Y-97567685D01*
X124606046Y-97665232D01*
X124804066Y-97725300D01*
X124804065Y-97725300D01*
X124842647Y-97729100D01*
X124958392Y-97740500D01*
X124958395Y-97740500D01*
X126661605Y-97740500D01*
X126661608Y-97740500D01*
X126815934Y-97725300D01*
X127013954Y-97665232D01*
X127196450Y-97567685D01*
X127356410Y-97436410D01*
X127487685Y-97276450D01*
X127585232Y-97093954D01*
X127613732Y-97000000D01*
X133000000Y-97000000D01*
X136000000Y-97000000D01*
X136000000Y-96638395D01*
X143339500Y-96638395D01*
X143339500Y-96741604D01*
X143354699Y-96895932D01*
X143354700Y-96895934D01*
X143414768Y-97093954D01*
X143512315Y-97276450D01*
X143512317Y-97276452D01*
X143643589Y-97436410D01*
X143740209Y-97515702D01*
X143803550Y-97567685D01*
X143986046Y-97665232D01*
X144184066Y-97725300D01*
X144184065Y-97725300D01*
X144222647Y-97729100D01*
X144338392Y-97740500D01*
X144338395Y-97740500D01*
X146041605Y-97740500D01*
X146041608Y-97740500D01*
X146195934Y-97725300D01*
X146393954Y-97665232D01*
X146576450Y-97567685D01*
X146736410Y-97436410D01*
X146867685Y-97276450D01*
X146965232Y-97093954D01*
X147025300Y-96895934D01*
X147040500Y-96741608D01*
X147040500Y-96638392D01*
X147025300Y-96484066D01*
X146965232Y-96286046D01*
X146867685Y-96103550D01*
X146815702Y-96040209D01*
X146736410Y-95943589D01*
X146576452Y-95812317D01*
X146576453Y-95812317D01*
X146576450Y-95812315D01*
X146393954Y-95714768D01*
X146195934Y-95654700D01*
X146195932Y-95654699D01*
X146195934Y-95654699D01*
X146076805Y-95642966D01*
X146041608Y-95639500D01*
X144338392Y-95639500D01*
X144300298Y-95643251D01*
X144184067Y-95654699D01*
X143986043Y-95714769D01*
X143875898Y-95773643D01*
X143803550Y-95812315D01*
X143803548Y-95812316D01*
X143803547Y-95812317D01*
X143643589Y-95943589D01*
X143512317Y-96103547D01*
X143414769Y-96286043D01*
X143354699Y-96484067D01*
X143339500Y-96638395D01*
X136000000Y-96638395D01*
X136000000Y-94789786D01*
X143335000Y-94789786D01*
X143354408Y-94887356D01*
X143354410Y-94887363D01*
X143384855Y-94960868D01*
X143384859Y-94960876D01*
X143440132Y-95043598D01*
X143440138Y-95043606D01*
X143496394Y-95099862D01*
X143496402Y-95099868D01*
X143579115Y-95155135D01*
X143579132Y-95155145D01*
X143652631Y-95185588D01*
X143652643Y-95185591D01*
X143750213Y-95204999D01*
X143750217Y-95205000D01*
X144940000Y-95205000D01*
X145440000Y-95205000D01*
X146068788Y-95205000D01*
X146118540Y-95200099D01*
X146118541Y-95200099D01*
X146273091Y-95169358D01*
X146273093Y-95169357D01*
X146320937Y-95154845D01*
X146466527Y-95094539D01*
X146510608Y-95070977D01*
X146510628Y-95070965D01*
X146641622Y-94983438D01*
X146641645Y-94983421D01*
X146680287Y-94951708D01*
X146791708Y-94840287D01*
X146823421Y-94801645D01*
X146823438Y-94801622D01*
X146910965Y-94670628D01*
X146910977Y-94670608D01*
X146934539Y-94626527D01*
X146994846Y-94480933D01*
X147009353Y-94433111D01*
X147009356Y-94433100D01*
X147015940Y-94400000D01*
X145440000Y-94400000D01*
X145440000Y-95205000D01*
X144940000Y-95205000D01*
X144940000Y-94400000D01*
X143335000Y-94400000D01*
X143335000Y-94789786D01*
X136000000Y-94789786D01*
X136000000Y-94000000D01*
X133000000Y-94000000D01*
X133000000Y-97000000D01*
X127613732Y-97000000D01*
X127645300Y-96895934D01*
X127660500Y-96741608D01*
X127660500Y-96638392D01*
X127645300Y-96484066D01*
X127585232Y-96286046D01*
X127487685Y-96103550D01*
X127435702Y-96040209D01*
X127356410Y-95943589D01*
X127196452Y-95812317D01*
X127196453Y-95812317D01*
X127196450Y-95812315D01*
X127013954Y-95714768D01*
X126815934Y-95654700D01*
X126815932Y-95654699D01*
X126815934Y-95654699D01*
X126696805Y-95642966D01*
X126661608Y-95639500D01*
X124958392Y-95639500D01*
X124920298Y-95643251D01*
X124804067Y-95654699D01*
X124606043Y-95714769D01*
X124495898Y-95773643D01*
X124423550Y-95812315D01*
X124423548Y-95812316D01*
X124423547Y-95812317D01*
X124263589Y-95943589D01*
X124132317Y-96103547D01*
X124034769Y-96286043D01*
X123974699Y-96484067D01*
X123959500Y-96638395D01*
X115500500Y-96638395D01*
X115500500Y-94400000D01*
X123984060Y-94400000D01*
X123990643Y-94433100D01*
X123990646Y-94433111D01*
X124005153Y-94480933D01*
X124065460Y-94626527D01*
X124089022Y-94670608D01*
X124089034Y-94670628D01*
X124176561Y-94801622D01*
X124176578Y-94801645D01*
X124208291Y-94840287D01*
X124319712Y-94951708D01*
X124358354Y-94983421D01*
X124358377Y-94983438D01*
X124489371Y-95070965D01*
X124489391Y-95070977D01*
X124533472Y-95094539D01*
X124679062Y-95154845D01*
X124726906Y-95169357D01*
X124726908Y-95169358D01*
X124881458Y-95200099D01*
X124931212Y-95205000D01*
X125560000Y-95205000D01*
X126060000Y-95205000D01*
X127249783Y-95205000D01*
X127249786Y-95204999D01*
X127347356Y-95185591D01*
X127347363Y-95185589D01*
X127420873Y-95155142D01*
X127431025Y-95148359D01*
X127431028Y-95148356D01*
X127503605Y-95099862D01*
X127559862Y-95043605D01*
X127559868Y-95043597D01*
X127615135Y-94960884D01*
X127615145Y-94960867D01*
X127645588Y-94887368D01*
X127645591Y-94887356D01*
X127664999Y-94789786D01*
X127665000Y-94789783D01*
X127665000Y-94400000D01*
X126060000Y-94400000D01*
X126060000Y-95205000D01*
X125560000Y-95205000D01*
X125560000Y-94400000D01*
X123984060Y-94400000D01*
X115500500Y-94400000D01*
X115500500Y-93900000D01*
X123984060Y-93900000D01*
X125560000Y-93900000D01*
X126060000Y-93900000D01*
X127665000Y-93900000D01*
X127665000Y-93510217D01*
X127664999Y-93510213D01*
X143335000Y-93510213D01*
X143335000Y-93900000D01*
X144940000Y-93900000D01*
X145440000Y-93900000D01*
X147015939Y-93900000D01*
X147009356Y-93866899D01*
X147009353Y-93866888D01*
X146994846Y-93819066D01*
X146934539Y-93673472D01*
X146910977Y-93629391D01*
X146910965Y-93629371D01*
X146823438Y-93498377D01*
X146823421Y-93498354D01*
X146791708Y-93459712D01*
X146680287Y-93348291D01*
X146641645Y-93316578D01*
X146641622Y-93316561D01*
X146510628Y-93229034D01*
X146510608Y-93229022D01*
X146466527Y-93205460D01*
X146320937Y-93145154D01*
X146273093Y-93130642D01*
X146273091Y-93130641D01*
X146118541Y-93099900D01*
X146068788Y-93095000D01*
X145440000Y-93095000D01*
X145440000Y-93900000D01*
X144940000Y-93900000D01*
X144940000Y-93095000D01*
X143750213Y-93095000D01*
X143652643Y-93114408D01*
X143652636Y-93114410D01*
X143579121Y-93144859D01*
X143569537Y-93151263D01*
X143569538Y-93151264D01*
X143496393Y-93200138D01*
X143440137Y-93256394D01*
X143440131Y-93256402D01*
X143384864Y-93339115D01*
X143384854Y-93339132D01*
X143354411Y-93412631D01*
X143354408Y-93412643D01*
X143335000Y-93510213D01*
X127664999Y-93510213D01*
X127645591Y-93412643D01*
X127645589Y-93412636D01*
X127615142Y-93339126D01*
X127608359Y-93328975D01*
X127608357Y-93328971D01*
X127559867Y-93256401D01*
X127559861Y-93256393D01*
X127503605Y-93200137D01*
X127503597Y-93200131D01*
X127420884Y-93144864D01*
X127420867Y-93144854D01*
X127347368Y-93114411D01*
X127347356Y-93114408D01*
X127249786Y-93095000D01*
X126060000Y-93095000D01*
X126060000Y-93900000D01*
X125560000Y-93900000D01*
X125560000Y-93095000D01*
X124931212Y-93095000D01*
X124881459Y-93099900D01*
X124881458Y-93099900D01*
X124726908Y-93130641D01*
X124726906Y-93130642D01*
X124679062Y-93145154D01*
X124533472Y-93205460D01*
X124489391Y-93229022D01*
X124489371Y-93229034D01*
X124358377Y-93316561D01*
X124358354Y-93316578D01*
X124319712Y-93348291D01*
X124208291Y-93459712D01*
X124176578Y-93498354D01*
X124176561Y-93498377D01*
X124089034Y-93629371D01*
X124089022Y-93629391D01*
X124065460Y-93673472D01*
X124005153Y-93819066D01*
X123990646Y-93866888D01*
X123990643Y-93866899D01*
X123984060Y-93900000D01*
X115500500Y-93900000D01*
X115500500Y-91558395D01*
X123959500Y-91558395D01*
X123959500Y-91661604D01*
X123974699Y-91815932D01*
X123974700Y-91815934D01*
X124034768Y-92013954D01*
X124132315Y-92196450D01*
X124132317Y-92196452D01*
X124263589Y-92356410D01*
X124360209Y-92435702D01*
X124423550Y-92487685D01*
X124606046Y-92585232D01*
X124804066Y-92645300D01*
X124804065Y-92645300D01*
X124842647Y-92649100D01*
X124958392Y-92660500D01*
X124958395Y-92660500D01*
X126661605Y-92660500D01*
X126661608Y-92660500D01*
X126815934Y-92645300D01*
X127013954Y-92585232D01*
X127196450Y-92487685D01*
X127356410Y-92356410D01*
X127487685Y-92196450D01*
X127585232Y-92013954D01*
X127645300Y-91815934D01*
X127660500Y-91661608D01*
X127660500Y-91558395D01*
X143339500Y-91558395D01*
X143339500Y-91661604D01*
X143354699Y-91815932D01*
X143354700Y-91815934D01*
X143414768Y-92013954D01*
X143512315Y-92196450D01*
X143512317Y-92196452D01*
X143643589Y-92356410D01*
X143740209Y-92435702D01*
X143803550Y-92487685D01*
X143986046Y-92585232D01*
X144184066Y-92645300D01*
X144184065Y-92645300D01*
X144222647Y-92649100D01*
X144338392Y-92660500D01*
X144338395Y-92660500D01*
X146041605Y-92660500D01*
X146041608Y-92660500D01*
X146195934Y-92645300D01*
X146393954Y-92585232D01*
X146576450Y-92487685D01*
X146736410Y-92356410D01*
X146867685Y-92196450D01*
X146965232Y-92013954D01*
X147025300Y-91815934D01*
X147040500Y-91661608D01*
X147040500Y-91558392D01*
X147025300Y-91404066D01*
X146965232Y-91206046D01*
X146867685Y-91023550D01*
X146815702Y-90960209D01*
X146736410Y-90863589D01*
X146576452Y-90732317D01*
X146576453Y-90732317D01*
X146576450Y-90732315D01*
X146393954Y-90634768D01*
X146195934Y-90574700D01*
X146195932Y-90574699D01*
X146195934Y-90574699D01*
X146076805Y-90562966D01*
X146041608Y-90559500D01*
X144338392Y-90559500D01*
X144300298Y-90563251D01*
X144184067Y-90574699D01*
X143986043Y-90634769D01*
X143875898Y-90693643D01*
X143803550Y-90732315D01*
X143803548Y-90732316D01*
X143803547Y-90732317D01*
X143643589Y-90863589D01*
X143512317Y-91023547D01*
X143414769Y-91206043D01*
X143354699Y-91404067D01*
X143339500Y-91558395D01*
X127660500Y-91558395D01*
X127660500Y-91558392D01*
X127645300Y-91404066D01*
X127585232Y-91206046D01*
X127487685Y-91023550D01*
X127435702Y-90960209D01*
X127356410Y-90863589D01*
X127196452Y-90732317D01*
X127196453Y-90732317D01*
X127196450Y-90732315D01*
X127013954Y-90634768D01*
X126815934Y-90574700D01*
X126815932Y-90574699D01*
X126815934Y-90574699D01*
X126696805Y-90562966D01*
X126661608Y-90559500D01*
X124958392Y-90559500D01*
X124920298Y-90563251D01*
X124804067Y-90574699D01*
X124606043Y-90634769D01*
X124495898Y-90693643D01*
X124423550Y-90732315D01*
X124423548Y-90732316D01*
X124423547Y-90732317D01*
X124263589Y-90863589D01*
X124132317Y-91023547D01*
X124034769Y-91206043D01*
X123974699Y-91404067D01*
X123959500Y-91558395D01*
X115500500Y-91558395D01*
X115500500Y-89323919D01*
X117999499Y-89323919D01*
X118028340Y-89468906D01*
X118028342Y-89468912D01*
X118084916Y-89605494D01*
X118167048Y-89728416D01*
X118167052Y-89728420D01*
X118167052Y-89728421D01*
X118271578Y-89832947D01*
X118271581Y-89832949D01*
X118271584Y-89832952D01*
X118394506Y-89915084D01*
X118531088Y-89971658D01*
X118531092Y-89971658D01*
X118531093Y-89971659D01*
X118676080Y-90000500D01*
X118676083Y-90000500D01*
X118823919Y-90000500D01*
X118921461Y-89981096D01*
X118968912Y-89971658D01*
X119105494Y-89915084D01*
X119228416Y-89832952D01*
X119228421Y-89832947D01*
X120042974Y-89018395D01*
X123959500Y-89018395D01*
X123959500Y-89121604D01*
X123974699Y-89275932D01*
X123974700Y-89275934D01*
X124034768Y-89473954D01*
X124132315Y-89656450D01*
X124132317Y-89656452D01*
X124263589Y-89816410D01*
X124360209Y-89895702D01*
X124423550Y-89947685D01*
X124606046Y-90045232D01*
X124804066Y-90105300D01*
X124804065Y-90105300D01*
X124842647Y-90109100D01*
X124958392Y-90120500D01*
X124958395Y-90120500D01*
X126661605Y-90120500D01*
X126661608Y-90120500D01*
X126815934Y-90105300D01*
X127013954Y-90045232D01*
X127196450Y-89947685D01*
X127356410Y-89816410D01*
X127487685Y-89656450D01*
X127585232Y-89473954D01*
X127645300Y-89275934D01*
X127660500Y-89121608D01*
X127660500Y-89018395D01*
X143339500Y-89018395D01*
X143339500Y-89121604D01*
X143354699Y-89275932D01*
X143354700Y-89275934D01*
X143414768Y-89473954D01*
X143512315Y-89656450D01*
X143512317Y-89656452D01*
X143643589Y-89816410D01*
X143740209Y-89895702D01*
X143803550Y-89947685D01*
X143986046Y-90045232D01*
X144184066Y-90105300D01*
X144184065Y-90105300D01*
X144222647Y-90109100D01*
X144338392Y-90120500D01*
X144338395Y-90120500D01*
X146041605Y-90120500D01*
X146041608Y-90120500D01*
X146195934Y-90105300D01*
X146393954Y-90045232D01*
X146576450Y-89947685D01*
X146736410Y-89816410D01*
X146867685Y-89656450D01*
X146965232Y-89473954D01*
X147025300Y-89275934D01*
X147040500Y-89121608D01*
X147040500Y-89018392D01*
X147025300Y-88864066D01*
X146965232Y-88666046D01*
X146867685Y-88483550D01*
X146815702Y-88420209D01*
X146736410Y-88323589D01*
X146576452Y-88192317D01*
X146576453Y-88192317D01*
X146576450Y-88192315D01*
X146393954Y-88094768D01*
X146195934Y-88034700D01*
X146195932Y-88034699D01*
X146195934Y-88034699D01*
X146076805Y-88022966D01*
X146041608Y-88019500D01*
X144338392Y-88019500D01*
X144300298Y-88023251D01*
X144184067Y-88034699D01*
X143986043Y-88094769D01*
X143875898Y-88153643D01*
X143803550Y-88192315D01*
X143803548Y-88192316D01*
X143803547Y-88192317D01*
X143643589Y-88323589D01*
X143512317Y-88483547D01*
X143512315Y-88483550D01*
X143473643Y-88555898D01*
X143414769Y-88666043D01*
X143354699Y-88864067D01*
X143339500Y-89018395D01*
X127660500Y-89018395D01*
X127660500Y-89018392D01*
X127645300Y-88864066D01*
X127585232Y-88666046D01*
X127487685Y-88483550D01*
X127435702Y-88420209D01*
X127356410Y-88323589D01*
X127196452Y-88192317D01*
X127196453Y-88192317D01*
X127196450Y-88192315D01*
X127013954Y-88094768D01*
X126815934Y-88034700D01*
X126815932Y-88034699D01*
X126815934Y-88034699D01*
X126696805Y-88022966D01*
X126661608Y-88019500D01*
X124958392Y-88019500D01*
X124920298Y-88023251D01*
X124804067Y-88034699D01*
X124606043Y-88094769D01*
X124495898Y-88153643D01*
X124423550Y-88192315D01*
X124423548Y-88192316D01*
X124423547Y-88192317D01*
X124263589Y-88323589D01*
X124132317Y-88483547D01*
X124132315Y-88483550D01*
X124093643Y-88555898D01*
X124034769Y-88666043D01*
X123974699Y-88864067D01*
X123959500Y-89018395D01*
X120042974Y-89018395D01*
X120133702Y-88927667D01*
X121744549Y-87316819D01*
X121805872Y-87283334D01*
X121832230Y-87280500D01*
X124224206Y-87280500D01*
X124291245Y-87300185D01*
X124302871Y-87308647D01*
X124423546Y-87407682D01*
X124423550Y-87407685D01*
X124606046Y-87505232D01*
X124804066Y-87565300D01*
X124804065Y-87565300D01*
X124842647Y-87569100D01*
X124958392Y-87580500D01*
X124958395Y-87580500D01*
X126661605Y-87580500D01*
X126661608Y-87580500D01*
X126815934Y-87565300D01*
X127008462Y-87506898D01*
X136999500Y-87506898D01*
X136999500Y-88493102D01*
X137005126Y-88539954D01*
X137010122Y-88581561D01*
X137065639Y-88722343D01*
X137157077Y-88842922D01*
X137277656Y-88934360D01*
X137277657Y-88934360D01*
X137277658Y-88934361D01*
X137418436Y-88989877D01*
X137506898Y-89000500D01*
X137506903Y-89000500D01*
X138493097Y-89000500D01*
X138493102Y-89000500D01*
X138581564Y-88989877D01*
X138722342Y-88934361D01*
X138842922Y-88842922D01*
X138934361Y-88722342D01*
X138989877Y-88581564D01*
X139000500Y-88493102D01*
X139000500Y-87506898D01*
X138989877Y-87418436D01*
X138934361Y-87277658D01*
X138934360Y-87277657D01*
X138934360Y-87277656D01*
X138842922Y-87157077D01*
X138722343Y-87065639D01*
X138581561Y-87010122D01*
X138535926Y-87004642D01*
X138493102Y-86999500D01*
X137506898Y-86999500D01*
X137467853Y-87004188D01*
X137418438Y-87010122D01*
X137277656Y-87065639D01*
X137157077Y-87157077D01*
X137065639Y-87277656D01*
X137010122Y-87418438D01*
X137005291Y-87458676D01*
X136999500Y-87506898D01*
X127008462Y-87506898D01*
X127013954Y-87505232D01*
X127196450Y-87407685D01*
X127196668Y-87407505D01*
X127196871Y-87407340D01*
X127196873Y-87407338D01*
X127356410Y-87276410D01*
X127487685Y-87116450D01*
X127585232Y-86933954D01*
X127645300Y-86735934D01*
X127660500Y-86581608D01*
X127660500Y-86478392D01*
X127645300Y-86324066D01*
X127585232Y-86126046D01*
X127487685Y-85943550D01*
X127435702Y-85880209D01*
X127356410Y-85783589D01*
X127196452Y-85652317D01*
X127196453Y-85652317D01*
X127196450Y-85652315D01*
X127013954Y-85554768D01*
X126815934Y-85494700D01*
X126815932Y-85494699D01*
X126815934Y-85494699D01*
X126696805Y-85482966D01*
X126661608Y-85479500D01*
X126661605Y-85479500D01*
X125872231Y-85479500D01*
X125805192Y-85459815D01*
X125784550Y-85443181D01*
X125758421Y-85417052D01*
X125758414Y-85417046D01*
X125684729Y-85367812D01*
X125684729Y-85367813D01*
X125635495Y-85334916D01*
X125635492Y-85334914D01*
X125635491Y-85334914D01*
X125500649Y-85279061D01*
X125446245Y-85235220D01*
X125424180Y-85168926D01*
X125441459Y-85101227D01*
X125492596Y-85053616D01*
X125548101Y-85040500D01*
X126661605Y-85040500D01*
X126661608Y-85040500D01*
X126815934Y-85025300D01*
X126876598Y-85006898D01*
X136999500Y-85006898D01*
X136999500Y-85993102D01*
X137005126Y-86039954D01*
X137010122Y-86081561D01*
X137065639Y-86222343D01*
X137157077Y-86342922D01*
X137277656Y-86434360D01*
X137277657Y-86434360D01*
X137277658Y-86434361D01*
X137418436Y-86489877D01*
X137506898Y-86500500D01*
X137506903Y-86500500D01*
X138493097Y-86500500D01*
X138493102Y-86500500D01*
X138581564Y-86489877D01*
X138610680Y-86478395D01*
X143339500Y-86478395D01*
X143339500Y-86581604D01*
X143354699Y-86735932D01*
X143354700Y-86735934D01*
X143414768Y-86933954D01*
X143512315Y-87116450D01*
X143526808Y-87134110D01*
X143643589Y-87276410D01*
X143740209Y-87355702D01*
X143803550Y-87407685D01*
X143986046Y-87505232D01*
X144184066Y-87565300D01*
X144184065Y-87565300D01*
X144222647Y-87569100D01*
X144338392Y-87580500D01*
X144338395Y-87580500D01*
X146041605Y-87580500D01*
X146041608Y-87580500D01*
X146195934Y-87565300D01*
X146393954Y-87505232D01*
X146576450Y-87407685D01*
X146736410Y-87276410D01*
X146867685Y-87116450D01*
X146965232Y-86933954D01*
X147025300Y-86735934D01*
X147040500Y-86581608D01*
X147040500Y-86478392D01*
X147025300Y-86324066D01*
X146965232Y-86126046D01*
X146867685Y-85943550D01*
X146815702Y-85880209D01*
X146736410Y-85783589D01*
X146576452Y-85652317D01*
X146576453Y-85652317D01*
X146576450Y-85652315D01*
X146393954Y-85554768D01*
X146195934Y-85494700D01*
X146195932Y-85494699D01*
X146195934Y-85494699D01*
X146076805Y-85482966D01*
X146041608Y-85479500D01*
X144338392Y-85479500D01*
X144300298Y-85483251D01*
X144184067Y-85494699D01*
X143986043Y-85554769D01*
X143875898Y-85613643D01*
X143803550Y-85652315D01*
X143803548Y-85652316D01*
X143803547Y-85652317D01*
X143643589Y-85783589D01*
X143512317Y-85943547D01*
X143414769Y-86126043D01*
X143354699Y-86324067D01*
X143339500Y-86478395D01*
X138610680Y-86478395D01*
X138722342Y-86434361D01*
X138842922Y-86342922D01*
X138934361Y-86222342D01*
X138989877Y-86081564D01*
X139000500Y-85993102D01*
X139000500Y-85006898D01*
X138989877Y-84918436D01*
X138934361Y-84777658D01*
X138934360Y-84777657D01*
X138934360Y-84777656D01*
X138842922Y-84657077D01*
X138722343Y-84565639D01*
X138581561Y-84510122D01*
X138535455Y-84504586D01*
X138493102Y-84499500D01*
X137506898Y-84499500D01*
X137467853Y-84504188D01*
X137418438Y-84510122D01*
X137277656Y-84565639D01*
X137157077Y-84657077D01*
X137065639Y-84777656D01*
X137010122Y-84918438D01*
X137004504Y-84965230D01*
X136999500Y-85006898D01*
X126876598Y-85006898D01*
X127013954Y-84965232D01*
X127196450Y-84867685D01*
X127356410Y-84736410D01*
X127487685Y-84576450D01*
X127585232Y-84393954D01*
X127645300Y-84195934D01*
X127660500Y-84041608D01*
X127660500Y-83938392D01*
X127645300Y-83784066D01*
X127585232Y-83586046D01*
X127487685Y-83403550D01*
X127384039Y-83277256D01*
X127356410Y-83243589D01*
X127196452Y-83112317D01*
X127196453Y-83112317D01*
X127196450Y-83112315D01*
X127013954Y-83014768D01*
X126815934Y-82954700D01*
X126815932Y-82954699D01*
X126815934Y-82954699D01*
X126696805Y-82942966D01*
X126661608Y-82939500D01*
X124958392Y-82939500D01*
X124920298Y-82943251D01*
X124804067Y-82954699D01*
X124606043Y-83014769D01*
X124495898Y-83073643D01*
X124423550Y-83112315D01*
X124423548Y-83112316D01*
X124423547Y-83112317D01*
X124263589Y-83243589D01*
X124132317Y-83403547D01*
X124132315Y-83403550D01*
X124102064Y-83460145D01*
X124034769Y-83586043D01*
X123974699Y-83784067D01*
X123959500Y-83938395D01*
X123959500Y-84041604D01*
X123974699Y-84195932D01*
X123974700Y-84195934D01*
X124034768Y-84393954D01*
X124132315Y-84576450D01*
X124132317Y-84576452D01*
X124263589Y-84736410D01*
X124313851Y-84777658D01*
X124423550Y-84867685D01*
X124606046Y-84965232D01*
X124743208Y-85006839D01*
X124801647Y-85045137D01*
X124830103Y-85108949D01*
X124819543Y-85178016D01*
X124773319Y-85230410D01*
X124707213Y-85249500D01*
X122299741Y-85249500D01*
X122232702Y-85229815D01*
X122225430Y-85224767D01*
X122217330Y-85218703D01*
X122217328Y-85218702D01*
X122082482Y-85168408D01*
X122082483Y-85168408D01*
X122022883Y-85162001D01*
X122022881Y-85162000D01*
X122022873Y-85162000D01*
X122022864Y-85162000D01*
X120977129Y-85162000D01*
X120977123Y-85162001D01*
X120917516Y-85168408D01*
X120782671Y-85218702D01*
X120782664Y-85218706D01*
X120667455Y-85304952D01*
X120667452Y-85304955D01*
X120581206Y-85420164D01*
X120581202Y-85420171D01*
X120531001Y-85554769D01*
X120530909Y-85555017D01*
X120524500Y-85614627D01*
X120524500Y-85614634D01*
X120524500Y-85614635D01*
X120524500Y-86362768D01*
X120504815Y-86429807D01*
X120488181Y-86450449D01*
X118167050Y-88771581D01*
X118167049Y-88771582D01*
X118084918Y-88894502D01*
X118084914Y-88894509D01*
X118028342Y-89031087D01*
X118028340Y-89031093D01*
X117999500Y-89176080D01*
X117999500Y-89176083D01*
X117999500Y-89323917D01*
X117999500Y-89323919D01*
X117999499Y-89323919D01*
X115500500Y-89323919D01*
X115500500Y-84310344D01*
X120525000Y-84310344D01*
X120531401Y-84369872D01*
X120531403Y-84369879D01*
X120581645Y-84504586D01*
X120581649Y-84504593D01*
X120667809Y-84619687D01*
X120667812Y-84619690D01*
X120782906Y-84705850D01*
X120782913Y-84705854D01*
X120917620Y-84756096D01*
X120917627Y-84756098D01*
X120977155Y-84762499D01*
X120977172Y-84762500D01*
X121250000Y-84762500D01*
X121750000Y-84762500D01*
X122022828Y-84762500D01*
X122022844Y-84762499D01*
X122082372Y-84756098D01*
X122082379Y-84756096D01*
X122217086Y-84705854D01*
X122217093Y-84705850D01*
X122332187Y-84619690D01*
X122332190Y-84619687D01*
X122418350Y-84504593D01*
X122418354Y-84504586D01*
X122468596Y-84369879D01*
X122468598Y-84369872D01*
X122474999Y-84310344D01*
X122475000Y-84310327D01*
X122475000Y-84175000D01*
X121750000Y-84175000D01*
X121750000Y-84762500D01*
X121250000Y-84762500D01*
X121250000Y-84175000D01*
X120525000Y-84175000D01*
X120525000Y-84310344D01*
X115500500Y-84310344D01*
X115500500Y-83539655D01*
X120525000Y-83539655D01*
X120525000Y-83675000D01*
X121250000Y-83675000D01*
X121750000Y-83675000D01*
X122475000Y-83675000D01*
X122475000Y-83539672D01*
X122474999Y-83539655D01*
X122468598Y-83480127D01*
X122468596Y-83480120D01*
X122418354Y-83345413D01*
X122418350Y-83345406D01*
X122332190Y-83230312D01*
X122332187Y-83230309D01*
X122217093Y-83144149D01*
X122217086Y-83144145D01*
X122082379Y-83093903D01*
X122082372Y-83093901D01*
X122022844Y-83087500D01*
X121750000Y-83087500D01*
X121750000Y-83675000D01*
X121250000Y-83675000D01*
X121250000Y-83087500D01*
X120977155Y-83087500D01*
X120917627Y-83093901D01*
X120917620Y-83093903D01*
X120782913Y-83144145D01*
X120782906Y-83144149D01*
X120667812Y-83230309D01*
X120667809Y-83230312D01*
X120581649Y-83345406D01*
X120581645Y-83345413D01*
X120531403Y-83480120D01*
X120531401Y-83480127D01*
X120525000Y-83539655D01*
X115500500Y-83539655D01*
X115500500Y-82506898D01*
X136999500Y-82506898D01*
X136999500Y-83493102D01*
X137005090Y-83539655D01*
X137010122Y-83581561D01*
X137010122Y-83581563D01*
X137010123Y-83581564D01*
X137027722Y-83626192D01*
X137065639Y-83722343D01*
X137157077Y-83842922D01*
X137277656Y-83934360D01*
X137277657Y-83934360D01*
X137277658Y-83934361D01*
X137418436Y-83989877D01*
X137506898Y-84000500D01*
X137506903Y-84000500D01*
X138493097Y-84000500D01*
X138493102Y-84000500D01*
X138581564Y-83989877D01*
X138722342Y-83934361D01*
X138842922Y-83842922D01*
X138934361Y-83722342D01*
X138989877Y-83581564D01*
X139000500Y-83493102D01*
X139000500Y-82506898D01*
X138989877Y-82418436D01*
X138934361Y-82277658D01*
X138934360Y-82277657D01*
X138934360Y-82277656D01*
X138842922Y-82157077D01*
X138754186Y-82089786D01*
X143335000Y-82089786D01*
X143354408Y-82187356D01*
X143354410Y-82187363D01*
X143384855Y-82260868D01*
X143384859Y-82260876D01*
X143440132Y-82343598D01*
X143440138Y-82343606D01*
X143496394Y-82399862D01*
X143496402Y-82399868D01*
X143579115Y-82455135D01*
X143579132Y-82455145D01*
X143652631Y-82485588D01*
X143652643Y-82485591D01*
X143750213Y-82504999D01*
X143750217Y-82505000D01*
X144940000Y-82505000D01*
X145440000Y-82505000D01*
X146068788Y-82505000D01*
X146118540Y-82500099D01*
X146118541Y-82500099D01*
X146273091Y-82469358D01*
X146273093Y-82469357D01*
X146320937Y-82454845D01*
X146466527Y-82394539D01*
X146510608Y-82370977D01*
X146510628Y-82370965D01*
X146641622Y-82283438D01*
X146641645Y-82283421D01*
X146680287Y-82251708D01*
X146791708Y-82140287D01*
X146823421Y-82101645D01*
X146823438Y-82101622D01*
X146910965Y-81970628D01*
X146910977Y-81970608D01*
X146934539Y-81926527D01*
X146994846Y-81780933D01*
X147009353Y-81733111D01*
X147009356Y-81733100D01*
X147015940Y-81700000D01*
X145440000Y-81700000D01*
X145440000Y-82505000D01*
X144940000Y-82505000D01*
X144940000Y-81700000D01*
X143335000Y-81700000D01*
X143335000Y-82089786D01*
X138754186Y-82089786D01*
X138722343Y-82065639D01*
X138581561Y-82010122D01*
X138535926Y-82004642D01*
X138493102Y-81999500D01*
X137506898Y-81999500D01*
X137467853Y-82004188D01*
X137418438Y-82010122D01*
X137277656Y-82065639D01*
X137157077Y-82157077D01*
X137065639Y-82277656D01*
X137010122Y-82418438D01*
X137005751Y-82454845D01*
X136999500Y-82506898D01*
X115500500Y-82506898D01*
X115500500Y-81700000D01*
X123984060Y-81700000D01*
X123990643Y-81733100D01*
X123990646Y-81733111D01*
X124005153Y-81780933D01*
X124065460Y-81926527D01*
X124089022Y-81970608D01*
X124089034Y-81970628D01*
X124176561Y-82101622D01*
X124176578Y-82101645D01*
X124208291Y-82140287D01*
X124319712Y-82251708D01*
X124358354Y-82283421D01*
X124358377Y-82283438D01*
X124489371Y-82370965D01*
X124489391Y-82370977D01*
X124533472Y-82394539D01*
X124679062Y-82454845D01*
X124726906Y-82469357D01*
X124726908Y-82469358D01*
X124881458Y-82500099D01*
X124931212Y-82505000D01*
X125560000Y-82505000D01*
X126060000Y-82505000D01*
X127249783Y-82505000D01*
X127249786Y-82504999D01*
X127347356Y-82485591D01*
X127347363Y-82485589D01*
X127420873Y-82455142D01*
X127431025Y-82448359D01*
X127431028Y-82448356D01*
X127503266Y-82400089D01*
X127503267Y-82400088D01*
X127503268Y-82400088D01*
X127503603Y-82399863D01*
X127503606Y-82399861D01*
X127559862Y-82343605D01*
X127559868Y-82343597D01*
X127615135Y-82260884D01*
X127615145Y-82260867D01*
X127645588Y-82187368D01*
X127645591Y-82187356D01*
X127664999Y-82089786D01*
X127665000Y-82089783D01*
X127665000Y-81700000D01*
X126060000Y-81700000D01*
X126060000Y-82505000D01*
X125560000Y-82505000D01*
X125560000Y-81700000D01*
X123984060Y-81700000D01*
X115500500Y-81700000D01*
X115500500Y-81200000D01*
X123984060Y-81200000D01*
X125560000Y-81200000D01*
X126060000Y-81200000D01*
X127665000Y-81200000D01*
X127665000Y-80810217D01*
X127664999Y-80810213D01*
X127645591Y-80712643D01*
X127645589Y-80712636D01*
X127615142Y-80639126D01*
X127608359Y-80628975D01*
X127608357Y-80628971D01*
X127559867Y-80556401D01*
X127559861Y-80556393D01*
X127503605Y-80500137D01*
X127503597Y-80500131D01*
X127420884Y-80444864D01*
X127420867Y-80444854D01*
X127347368Y-80414411D01*
X127347356Y-80414408D01*
X127249786Y-80395000D01*
X126060000Y-80395000D01*
X126060000Y-81200000D01*
X125560000Y-81200000D01*
X125560000Y-80395000D01*
X124931212Y-80395000D01*
X124881459Y-80399900D01*
X124881458Y-80399900D01*
X124726908Y-80430641D01*
X124726906Y-80430642D01*
X124679062Y-80445154D01*
X124533472Y-80505460D01*
X124489391Y-80529022D01*
X124489371Y-80529034D01*
X124358377Y-80616561D01*
X124358354Y-80616578D01*
X124319712Y-80648291D01*
X124208291Y-80759712D01*
X124176578Y-80798354D01*
X124176561Y-80798377D01*
X124089034Y-80929371D01*
X124089022Y-80929391D01*
X124065460Y-80973472D01*
X124005153Y-81119066D01*
X123990646Y-81166888D01*
X123990643Y-81166899D01*
X123984060Y-81200000D01*
X115500500Y-81200000D01*
X115500500Y-79374298D01*
X115520185Y-79307259D01*
X115536819Y-79286617D01*
X116208809Y-78614627D01*
X120524500Y-78614627D01*
X120524500Y-78614634D01*
X120524500Y-78614635D01*
X120524500Y-79385370D01*
X120524501Y-79385376D01*
X120530908Y-79444983D01*
X120581202Y-79579828D01*
X120581206Y-79579835D01*
X120667452Y-79695044D01*
X120667455Y-79695047D01*
X120782664Y-79781293D01*
X120782671Y-79781297D01*
X120917517Y-79831591D01*
X120917516Y-79831591D01*
X120924444Y-79832335D01*
X120977127Y-79838000D01*
X122022872Y-79837999D01*
X122082483Y-79831591D01*
X122217331Y-79781296D01*
X122332546Y-79695046D01*
X122332546Y-79695045D01*
X122339646Y-79689731D01*
X122340838Y-79691323D01*
X122392097Y-79663334D01*
X122418455Y-79660500D01*
X124224206Y-79660500D01*
X124291245Y-79680185D01*
X124302871Y-79688647D01*
X124415765Y-79781296D01*
X124423550Y-79787685D01*
X124606046Y-79885232D01*
X124804066Y-79945300D01*
X124804065Y-79945300D01*
X124842647Y-79949100D01*
X124958392Y-79960500D01*
X124958395Y-79960500D01*
X126661605Y-79960500D01*
X126661608Y-79960500D01*
X126815934Y-79945300D01*
X127013954Y-79885232D01*
X127196450Y-79787685D01*
X127309330Y-79695047D01*
X127317129Y-79688647D01*
X127381439Y-79661334D01*
X127395794Y-79660500D01*
X127547770Y-79660500D01*
X127614809Y-79680185D01*
X127635451Y-79696819D01*
X129521580Y-81582948D01*
X129521584Y-81582951D01*
X129644498Y-81665080D01*
X129644511Y-81665087D01*
X129781082Y-81721656D01*
X129781087Y-81721658D01*
X129781091Y-81721658D01*
X129781092Y-81721659D01*
X129926079Y-81750500D01*
X129926082Y-81750500D01*
X130073919Y-81750500D01*
X130171461Y-81731096D01*
X130218912Y-81721658D01*
X130355494Y-81665084D01*
X130478415Y-81582951D01*
X130478418Y-81582948D01*
X130500410Y-81560957D01*
X130582948Y-81478418D01*
X130582951Y-81478415D01*
X130665084Y-81355494D01*
X130721658Y-81218912D01*
X130750500Y-81073917D01*
X130750500Y-80926082D01*
X130750500Y-80926079D01*
X130731053Y-80828318D01*
X130731053Y-80828317D01*
X130727452Y-80810213D01*
X143335000Y-80810213D01*
X143335000Y-81200000D01*
X144940000Y-81200000D01*
X145440000Y-81200000D01*
X147015939Y-81200000D01*
X147009356Y-81166899D01*
X147009353Y-81166888D01*
X146994846Y-81119066D01*
X146934539Y-80973472D01*
X146910977Y-80929391D01*
X146910965Y-80929371D01*
X146823438Y-80798377D01*
X146823421Y-80798354D01*
X146791708Y-80759712D01*
X146680287Y-80648291D01*
X146641645Y-80616578D01*
X146641622Y-80616561D01*
X146510628Y-80529034D01*
X146510608Y-80529022D01*
X146466527Y-80505460D01*
X146320937Y-80445154D01*
X146273093Y-80430642D01*
X146273091Y-80430641D01*
X146118541Y-80399900D01*
X146068788Y-80395000D01*
X145440000Y-80395000D01*
X145440000Y-81200000D01*
X144940000Y-81200000D01*
X144940000Y-80395000D01*
X143750213Y-80395000D01*
X143652643Y-80414408D01*
X143652636Y-80414410D01*
X143579121Y-80444859D01*
X143569537Y-80451263D01*
X143569538Y-80451264D01*
X143496393Y-80500138D01*
X143440137Y-80556394D01*
X143440131Y-80556402D01*
X143384864Y-80639115D01*
X143384854Y-80639132D01*
X143354411Y-80712631D01*
X143354408Y-80712643D01*
X143335000Y-80810213D01*
X130727452Y-80810213D01*
X130721659Y-80781094D01*
X130721658Y-80781087D01*
X130693303Y-80712631D01*
X130665087Y-80644511D01*
X130665080Y-80644498D01*
X130582951Y-80521584D01*
X130582948Y-80521580D01*
X129396578Y-79335209D01*
X129314984Y-79253615D01*
X132299500Y-79253615D01*
X132299500Y-79806384D01*
X132329300Y-79956197D01*
X132329302Y-79956205D01*
X132387759Y-80097334D01*
X132387764Y-80097343D01*
X132472629Y-80224351D01*
X132472632Y-80224355D01*
X132580644Y-80332367D01*
X132580648Y-80332370D01*
X132707656Y-80417235D01*
X132707662Y-80417238D01*
X132707663Y-80417239D01*
X132848795Y-80475698D01*
X132998419Y-80505460D01*
X132998615Y-80505499D01*
X132998619Y-80505500D01*
X132998620Y-80505500D01*
X133151381Y-80505500D01*
X133151382Y-80505499D01*
X133301205Y-80475698D01*
X133442337Y-80417239D01*
X133569352Y-80332370D01*
X133677370Y-80224352D01*
X133762239Y-80097337D01*
X133805435Y-79993053D01*
X134500000Y-79993053D01*
X134510613Y-80081443D01*
X134566079Y-80222095D01*
X134657435Y-80342564D01*
X134777904Y-80433920D01*
X134918556Y-80489386D01*
X135006946Y-80500000D01*
X135250000Y-80500000D01*
X135750000Y-80500000D01*
X135993054Y-80500000D01*
X136081443Y-80489386D01*
X136222095Y-80433920D01*
X136342564Y-80342564D01*
X136433920Y-80222095D01*
X136489386Y-80081443D01*
X136500000Y-79993053D01*
X136500000Y-79750000D01*
X135750000Y-79750000D01*
X135750000Y-80500000D01*
X135250000Y-80500000D01*
X135250000Y-79750000D01*
X134500000Y-79750000D01*
X134500000Y-79993053D01*
X133805435Y-79993053D01*
X133820698Y-79956205D01*
X133850500Y-79806380D01*
X133850500Y-79253620D01*
X133850499Y-79253615D01*
X137149500Y-79253615D01*
X137149500Y-79806384D01*
X137179300Y-79956197D01*
X137179302Y-79956205D01*
X137237759Y-80097334D01*
X137237764Y-80097343D01*
X137322629Y-80224351D01*
X137322632Y-80224355D01*
X137430644Y-80332367D01*
X137430648Y-80332370D01*
X137557656Y-80417235D01*
X137557662Y-80417238D01*
X137557663Y-80417239D01*
X137698795Y-80475698D01*
X137848419Y-80505460D01*
X137848615Y-80505499D01*
X137848619Y-80505500D01*
X137848620Y-80505500D01*
X138001381Y-80505500D01*
X138001382Y-80505499D01*
X138151205Y-80475698D01*
X138292337Y-80417239D01*
X138419352Y-80332370D01*
X138527370Y-80224352D01*
X138612239Y-80097337D01*
X138670698Y-79956205D01*
X138700500Y-79806380D01*
X138700500Y-79253620D01*
X138670698Y-79103795D01*
X138612239Y-78962663D01*
X138542567Y-78858392D01*
X143339500Y-78858392D01*
X143339500Y-78961608D01*
X143344502Y-79012398D01*
X143354699Y-79115932D01*
X143354700Y-79115934D01*
X143414768Y-79313954D01*
X143512315Y-79496450D01*
X143512317Y-79496452D01*
X143643589Y-79656410D01*
X143740209Y-79735702D01*
X143803550Y-79787685D01*
X143986046Y-79885232D01*
X144184066Y-79945300D01*
X144184065Y-79945300D01*
X144222647Y-79949100D01*
X144338392Y-79960500D01*
X144338395Y-79960500D01*
X146041605Y-79960500D01*
X146041608Y-79960500D01*
X146195934Y-79945300D01*
X146393954Y-79885232D01*
X146576450Y-79787685D01*
X146736410Y-79656410D01*
X146867685Y-79496450D01*
X146965232Y-79313954D01*
X147025300Y-79115934D01*
X147040500Y-78961608D01*
X147040500Y-78858392D01*
X147025300Y-78704066D01*
X146965232Y-78506046D01*
X146867685Y-78323550D01*
X146803150Y-78244913D01*
X146736410Y-78163589D01*
X146576452Y-78032317D01*
X146576453Y-78032317D01*
X146576450Y-78032315D01*
X146393954Y-77934768D01*
X146195934Y-77874700D01*
X146195932Y-77874699D01*
X146195934Y-77874699D01*
X146076805Y-77862966D01*
X146041608Y-77859500D01*
X144338392Y-77859500D01*
X144300298Y-77863251D01*
X144184067Y-77874699D01*
X143986043Y-77934769D01*
X143875898Y-77993643D01*
X143803550Y-78032315D01*
X143803548Y-78032316D01*
X143803547Y-78032317D01*
X143643589Y-78163589D01*
X143512317Y-78323547D01*
X143512315Y-78323550D01*
X143473643Y-78395898D01*
X143414769Y-78506043D01*
X143354699Y-78704067D01*
X143347427Y-78777904D01*
X143339500Y-78858392D01*
X138542567Y-78858392D01*
X138527370Y-78835648D01*
X138527367Y-78835644D01*
X138419355Y-78727632D01*
X138419351Y-78727629D01*
X138292343Y-78642764D01*
X138292334Y-78642759D01*
X138151205Y-78584302D01*
X138151197Y-78584300D01*
X138001384Y-78554500D01*
X138001380Y-78554500D01*
X137848620Y-78554500D01*
X137848615Y-78554500D01*
X137698802Y-78584300D01*
X137698794Y-78584302D01*
X137557665Y-78642759D01*
X137557656Y-78642764D01*
X137430648Y-78727629D01*
X137430644Y-78727632D01*
X137322632Y-78835644D01*
X137322629Y-78835648D01*
X137237764Y-78962656D01*
X137237759Y-78962665D01*
X137179302Y-79103794D01*
X137179300Y-79103802D01*
X137149500Y-79253615D01*
X133850499Y-79253615D01*
X133820698Y-79103795D01*
X133820696Y-79103790D01*
X133798700Y-79050686D01*
X133780582Y-79006946D01*
X134500000Y-79006946D01*
X134500000Y-79250000D01*
X135250000Y-79250000D01*
X135750000Y-79250000D01*
X136500000Y-79250000D01*
X136500000Y-79006946D01*
X136489386Y-78918556D01*
X136433920Y-78777904D01*
X136342564Y-78657435D01*
X136222095Y-78566079D01*
X136081443Y-78510613D01*
X135993054Y-78500000D01*
X135750000Y-78500000D01*
X135750000Y-79250000D01*
X135250000Y-79250000D01*
X135250000Y-78500000D01*
X135006946Y-78500000D01*
X134918556Y-78510613D01*
X134777904Y-78566079D01*
X134657435Y-78657435D01*
X134566079Y-78777904D01*
X134510613Y-78918556D01*
X134500000Y-79006946D01*
X133780582Y-79006946D01*
X133762240Y-78962666D01*
X133762240Y-78962665D01*
X133762239Y-78962663D01*
X133762237Y-78962660D01*
X133762235Y-78962656D01*
X133677370Y-78835648D01*
X133677367Y-78835644D01*
X133569355Y-78727632D01*
X133569351Y-78727629D01*
X133442343Y-78642764D01*
X133442334Y-78642759D01*
X133301205Y-78584302D01*
X133301197Y-78584300D01*
X133151384Y-78554500D01*
X133151380Y-78554500D01*
X132998620Y-78554500D01*
X132998615Y-78554500D01*
X132848802Y-78584300D01*
X132848794Y-78584302D01*
X132707665Y-78642759D01*
X132707656Y-78642764D01*
X132580648Y-78727629D01*
X132580644Y-78727632D01*
X132472632Y-78835644D01*
X132472629Y-78835648D01*
X132387764Y-78962656D01*
X132387759Y-78962665D01*
X132329302Y-79103794D01*
X132329300Y-79103802D01*
X132299500Y-79253615D01*
X129314984Y-79253615D01*
X128388421Y-78327052D01*
X128388414Y-78327046D01*
X128314729Y-78277812D01*
X128314729Y-78277813D01*
X128265491Y-78244913D01*
X128128917Y-78188343D01*
X128128907Y-78188340D01*
X127983920Y-78159500D01*
X127983918Y-78159500D01*
X127395794Y-78159500D01*
X127328755Y-78139815D01*
X127317129Y-78131353D01*
X127196453Y-78032317D01*
X127196451Y-78032316D01*
X127196450Y-78032315D01*
X127013954Y-77934768D01*
X126815934Y-77874700D01*
X126815932Y-77874699D01*
X126815934Y-77874699D01*
X126696805Y-77862966D01*
X126661608Y-77859500D01*
X124958392Y-77859500D01*
X124920298Y-77863251D01*
X124804067Y-77874699D01*
X124606043Y-77934769D01*
X124423546Y-78032317D01*
X124302871Y-78131353D01*
X124238561Y-78158666D01*
X124224206Y-78159500D01*
X121516080Y-78159500D01*
X121515489Y-78159618D01*
X121491302Y-78162000D01*
X120977129Y-78162000D01*
X120977123Y-78162001D01*
X120917516Y-78168408D01*
X120782671Y-78218702D01*
X120782664Y-78218706D01*
X120667455Y-78304952D01*
X120667452Y-78304955D01*
X120581206Y-78420164D01*
X120581202Y-78420171D01*
X120530910Y-78555013D01*
X120530909Y-78555017D01*
X120524500Y-78614627D01*
X116208809Y-78614627D01*
X117513092Y-77310344D01*
X120525000Y-77310344D01*
X120531401Y-77369872D01*
X120531403Y-77369879D01*
X120581645Y-77504586D01*
X120581649Y-77504593D01*
X120667809Y-77619687D01*
X120667812Y-77619690D01*
X120782906Y-77705850D01*
X120782913Y-77705854D01*
X120917620Y-77756096D01*
X120917627Y-77756098D01*
X120977155Y-77762499D01*
X120977172Y-77762500D01*
X121250000Y-77762500D01*
X121750000Y-77762500D01*
X122022828Y-77762500D01*
X122022844Y-77762499D01*
X122082372Y-77756098D01*
X122082379Y-77756096D01*
X122217086Y-77705854D01*
X122217093Y-77705850D01*
X122332187Y-77619690D01*
X122332190Y-77619687D01*
X122418350Y-77504593D01*
X122418354Y-77504586D01*
X122468596Y-77369879D01*
X122468598Y-77369872D01*
X122474999Y-77310344D01*
X122475000Y-77310327D01*
X122475000Y-77175000D01*
X121750000Y-77175000D01*
X121750000Y-77762500D01*
X121250000Y-77762500D01*
X121250000Y-77175000D01*
X120525000Y-77175000D01*
X120525000Y-77310344D01*
X117513092Y-77310344D01*
X118283781Y-76539655D01*
X120525000Y-76539655D01*
X120525000Y-76675000D01*
X121250000Y-76675000D01*
X121750000Y-76675000D01*
X122475000Y-76675000D01*
X122475000Y-76539672D01*
X122474999Y-76539655D01*
X122468598Y-76480127D01*
X122468596Y-76480120D01*
X122423303Y-76358681D01*
X122418353Y-76345411D01*
X122418350Y-76345406D01*
X122398127Y-76318392D01*
X123959500Y-76318392D01*
X123959500Y-76421608D01*
X123962178Y-76448793D01*
X123974699Y-76575932D01*
X123974700Y-76575934D01*
X124034768Y-76773954D01*
X124132315Y-76956450D01*
X124132317Y-76956452D01*
X124263589Y-77116410D01*
X124342364Y-77181058D01*
X124423550Y-77247685D01*
X124606046Y-77345232D01*
X124804066Y-77405300D01*
X124804065Y-77405300D01*
X124842647Y-77409100D01*
X124958392Y-77420500D01*
X124958395Y-77420500D01*
X126661605Y-77420500D01*
X126661608Y-77420500D01*
X126815934Y-77405300D01*
X127013954Y-77345232D01*
X127196450Y-77247685D01*
X127356410Y-77116410D01*
X127487685Y-76956450D01*
X127585232Y-76773954D01*
X127645300Y-76575934D01*
X127660500Y-76421608D01*
X127660500Y-76318392D01*
X127645300Y-76164066D01*
X127622074Y-76087500D01*
X127617115Y-76071153D01*
X131974500Y-76071153D01*
X131974500Y-76928846D01*
X132005261Y-77083489D01*
X132005264Y-77083501D01*
X132065602Y-77229172D01*
X132065609Y-77229185D01*
X132153210Y-77360288D01*
X132153213Y-77360292D01*
X132264707Y-77471786D01*
X132264711Y-77471789D01*
X132395814Y-77559390D01*
X132395827Y-77559397D01*
X132541498Y-77619735D01*
X132541503Y-77619737D01*
X132696153Y-77650499D01*
X132696156Y-77650500D01*
X132696158Y-77650500D01*
X132853844Y-77650500D01*
X132853845Y-77650499D01*
X133008497Y-77619737D01*
X133154179Y-77559394D01*
X133285289Y-77471789D01*
X133396789Y-77360289D01*
X133484394Y-77229179D01*
X133522901Y-77136212D01*
X133566740Y-77081813D01*
X133633034Y-77059747D01*
X133700733Y-77077026D01*
X133712386Y-77084864D01*
X133777656Y-77134360D01*
X133777657Y-77134360D01*
X133777658Y-77134361D01*
X133918436Y-77189877D01*
X134006898Y-77200500D01*
X134006903Y-77200500D01*
X134993097Y-77200500D01*
X134993102Y-77200500D01*
X135081564Y-77189877D01*
X135222342Y-77134361D01*
X135342922Y-77042922D01*
X135401196Y-76966075D01*
X135457388Y-76924553D01*
X135527109Y-76920001D01*
X135588223Y-76953865D01*
X135598804Y-76966076D01*
X135657077Y-77042922D01*
X135777656Y-77134360D01*
X135777657Y-77134360D01*
X135777658Y-77134361D01*
X135918436Y-77189877D01*
X136006898Y-77200500D01*
X136006903Y-77200500D01*
X136993097Y-77200500D01*
X136993102Y-77200500D01*
X137081564Y-77189877D01*
X137222342Y-77134361D01*
X137287612Y-77084864D01*
X137352923Y-77060041D01*
X137421287Y-77074469D01*
X137470999Y-77123566D01*
X137477099Y-77136215D01*
X137515604Y-77229176D01*
X137515609Y-77229185D01*
X137603210Y-77360288D01*
X137603213Y-77360292D01*
X137714707Y-77471786D01*
X137714711Y-77471789D01*
X137845814Y-77559390D01*
X137845827Y-77559397D01*
X137991498Y-77619735D01*
X137991503Y-77619737D01*
X138146153Y-77650499D01*
X138146156Y-77650500D01*
X138146158Y-77650500D01*
X138303844Y-77650500D01*
X138303845Y-77650499D01*
X138458497Y-77619737D01*
X138604179Y-77559394D01*
X138735289Y-77471789D01*
X138846789Y-77360289D01*
X138934394Y-77229179D01*
X138994737Y-77083497D01*
X139025500Y-76928842D01*
X139025500Y-76291208D01*
X143334500Y-76291208D01*
X143334500Y-76448791D01*
X143339407Y-76498624D01*
X143339407Y-76498628D01*
X143370150Y-76653191D01*
X143384692Y-76701129D01*
X143418010Y-76781564D01*
X143444998Y-76846718D01*
X143445003Y-76846727D01*
X143468600Y-76890877D01*
X143468611Y-76890895D01*
X143556152Y-77021909D01*
X143556162Y-77021923D01*
X143587937Y-77060641D01*
X143699358Y-77172062D01*
X143699363Y-77172066D01*
X143699364Y-77172067D01*
X143738082Y-77203842D01*
X143869110Y-77291392D01*
X143869114Y-77291394D01*
X143869122Y-77291399D01*
X143889969Y-77302541D01*
X143913282Y-77315002D01*
X144010342Y-77355206D01*
X144058870Y-77375307D01*
X144058872Y-77375307D01*
X144058873Y-77375308D01*
X144106804Y-77389848D01*
X144106806Y-77389848D01*
X144106808Y-77389849D01*
X144129494Y-77394361D01*
X144261362Y-77420591D01*
X144311207Y-77425500D01*
X144311209Y-77425500D01*
X146629783Y-77425500D01*
X146629784Y-77425499D01*
X146727556Y-77406052D01*
X146801065Y-77375604D01*
X146801067Y-77375603D01*
X146883957Y-77320218D01*
X146940219Y-77263956D01*
X146995604Y-77181065D01*
X147026052Y-77107556D01*
X147045500Y-77009782D01*
X147045500Y-75730218D01*
X147026052Y-75632444D01*
X146995604Y-75558935D01*
X146995603Y-75558933D01*
X146940218Y-75476043D01*
X146940216Y-75476040D01*
X146883960Y-75419784D01*
X146846520Y-75394768D01*
X146801065Y-75364396D01*
X146801063Y-75364395D01*
X146801058Y-75364392D01*
X146727559Y-75333949D01*
X146727557Y-75333948D01*
X146727556Y-75333948D01*
X146727551Y-75333947D01*
X146727547Y-75333946D01*
X146629786Y-75314500D01*
X146629782Y-75314500D01*
X144311207Y-75314500D01*
X144300500Y-75315554D01*
X144261375Y-75319407D01*
X144261371Y-75319407D01*
X144106808Y-75350150D01*
X144058870Y-75364692D01*
X143913288Y-75424995D01*
X143913272Y-75425003D01*
X143869122Y-75448600D01*
X143869104Y-75448611D01*
X143738090Y-75536152D01*
X143738076Y-75536162D01*
X143699358Y-75567937D01*
X143587937Y-75679358D01*
X143556162Y-75718076D01*
X143556152Y-75718090D01*
X143468611Y-75849104D01*
X143468600Y-75849122D01*
X143445003Y-75893272D01*
X143444995Y-75893288D01*
X143384692Y-76038870D01*
X143370150Y-76086808D01*
X143339407Y-76241371D01*
X143339407Y-76241375D01*
X143334500Y-76291208D01*
X139025500Y-76291208D01*
X139025500Y-76071158D01*
X139025500Y-76071155D01*
X139025499Y-76071153D01*
X138994738Y-75916510D01*
X138994737Y-75916503D01*
X138985119Y-75893282D01*
X138934397Y-75770827D01*
X138934390Y-75770814D01*
X138846789Y-75639711D01*
X138846786Y-75639707D01*
X138735292Y-75528213D01*
X138735288Y-75528210D01*
X138604185Y-75440609D01*
X138604172Y-75440602D01*
X138458501Y-75380264D01*
X138458489Y-75380261D01*
X138303845Y-75349500D01*
X138303842Y-75349500D01*
X138146158Y-75349500D01*
X138146155Y-75349500D01*
X137991510Y-75380261D01*
X137991498Y-75380264D01*
X137845827Y-75440602D01*
X137845814Y-75440609D01*
X137714711Y-75528210D01*
X137714706Y-75528214D01*
X137661626Y-75581294D01*
X137600303Y-75614778D01*
X137530611Y-75609793D01*
X137474678Y-75567922D01*
X137458592Y-75539103D01*
X137434361Y-75477658D01*
X137434360Y-75477657D01*
X137434360Y-75477656D01*
X137342922Y-75357077D01*
X137222343Y-75265639D01*
X137081561Y-75210122D01*
X137035926Y-75204642D01*
X136993102Y-75199500D01*
X136993097Y-75199500D01*
X136974500Y-75199500D01*
X136907461Y-75179815D01*
X136861706Y-75127011D01*
X136850500Y-75075500D01*
X136850500Y-73927525D01*
X150149184Y-73927525D01*
X150149184Y-74072475D01*
X150186700Y-74212485D01*
X150186701Y-74212488D01*
X150259172Y-74338011D01*
X150259174Y-74338013D01*
X150259175Y-74338015D01*
X150361669Y-74440509D01*
X150361670Y-74440510D01*
X150361672Y-74440511D01*
X150487195Y-74512982D01*
X150487196Y-74512982D01*
X150487199Y-74512984D01*
X150627209Y-74550500D01*
X150627212Y-74550500D01*
X150772156Y-74550500D01*
X150772159Y-74550500D01*
X150912169Y-74512984D01*
X150912172Y-74512981D01*
X150919522Y-74509938D01*
X150966973Y-74500500D01*
X155732711Y-74500500D01*
X155780162Y-74509938D01*
X155787513Y-74512983D01*
X155787515Y-74512984D01*
X155927525Y-74550500D01*
X155927528Y-74550500D01*
X156072472Y-74550500D01*
X156072475Y-74550500D01*
X156212485Y-74512984D01*
X156338015Y-74440509D01*
X156440509Y-74338015D01*
X156512984Y-74212485D01*
X156550500Y-74072475D01*
X156550500Y-73927525D01*
X156512984Y-73787515D01*
X156440509Y-73661985D01*
X156338015Y-73559491D01*
X156338013Y-73559490D01*
X156338011Y-73559488D01*
X156212488Y-73487017D01*
X156212489Y-73487017D01*
X156201006Y-73483940D01*
X156072475Y-73449500D01*
X155927525Y-73449500D01*
X155843519Y-73472009D01*
X155787513Y-73487016D01*
X155780162Y-73490062D01*
X155732711Y-73499500D01*
X150966973Y-73499500D01*
X150919522Y-73490062D01*
X150912170Y-73487016D01*
X150877166Y-73477637D01*
X150772159Y-73449500D01*
X150627209Y-73449500D01*
X150498677Y-73483940D01*
X150487195Y-73487017D01*
X150361672Y-73559488D01*
X150361666Y-73559493D01*
X150259177Y-73661982D01*
X150259172Y-73661988D01*
X150186701Y-73787511D01*
X150186700Y-73787515D01*
X150149184Y-73927525D01*
X136850500Y-73927525D01*
X136850500Y-73696544D01*
X136870185Y-73629505D01*
X136886819Y-73608863D01*
X136908863Y-73586819D01*
X136970186Y-73553334D01*
X136996544Y-73550500D01*
X137072472Y-73550500D01*
X137072475Y-73550500D01*
X137212485Y-73512984D01*
X137338015Y-73440509D01*
X137440509Y-73338015D01*
X137512984Y-73212485D01*
X137550500Y-73072475D01*
X137550500Y-72927525D01*
X137512984Y-72787515D01*
X137469665Y-72712485D01*
X137440511Y-72661988D01*
X137440506Y-72661982D01*
X137338017Y-72559493D01*
X137338011Y-72559488D01*
X137212488Y-72487017D01*
X137212489Y-72487017D01*
X137201006Y-72483940D01*
X137072475Y-72449500D01*
X136927525Y-72449500D01*
X136798993Y-72483940D01*
X136787511Y-72487017D01*
X136661988Y-72559488D01*
X136661982Y-72559493D01*
X136559493Y-72661982D01*
X136559488Y-72661988D01*
X136487017Y-72787511D01*
X136487016Y-72787515D01*
X136449500Y-72927525D01*
X136449500Y-72927527D01*
X136449500Y-73003456D01*
X136429815Y-73070495D01*
X136413181Y-73091137D01*
X136219531Y-73284786D01*
X136219525Y-73284794D01*
X136175080Y-73361777D01*
X136175074Y-73361788D01*
X136173387Y-73364707D01*
X136173386Y-73364712D01*
X136149500Y-73453856D01*
X136149500Y-73453858D01*
X136149500Y-75075500D01*
X136129815Y-75142539D01*
X136077011Y-75188294D01*
X136025500Y-75199500D01*
X136006898Y-75199500D01*
X135967853Y-75204188D01*
X135918438Y-75210122D01*
X135777656Y-75265639D01*
X135657077Y-75357077D01*
X135598804Y-75433923D01*
X135542611Y-75475447D01*
X135472890Y-75479998D01*
X135411776Y-75446133D01*
X135401196Y-75433923D01*
X135342922Y-75357077D01*
X135222343Y-75265639D01*
X135081561Y-75210122D01*
X135035926Y-75204642D01*
X134993102Y-75199500D01*
X134993097Y-75199500D01*
X134974500Y-75199500D01*
X134907461Y-75179815D01*
X134861706Y-75127011D01*
X134850500Y-75075500D01*
X134850500Y-73696544D01*
X134870185Y-73629505D01*
X134886819Y-73608863D01*
X134908863Y-73586819D01*
X134970186Y-73553334D01*
X134996544Y-73550500D01*
X135072472Y-73550500D01*
X135072475Y-73550500D01*
X135212485Y-73512984D01*
X135338015Y-73440509D01*
X135440509Y-73338015D01*
X135512984Y-73212485D01*
X135550500Y-73072475D01*
X135550500Y-72927525D01*
X135512984Y-72787515D01*
X135469665Y-72712485D01*
X135440511Y-72661988D01*
X135440506Y-72661982D01*
X135338017Y-72559493D01*
X135338011Y-72559488D01*
X135212488Y-72487017D01*
X135212489Y-72487017D01*
X135201006Y-72483940D01*
X135072475Y-72449500D01*
X134927525Y-72449500D01*
X134798993Y-72483940D01*
X134787511Y-72487017D01*
X134661988Y-72559488D01*
X134661982Y-72559493D01*
X134559493Y-72661982D01*
X134559488Y-72661988D01*
X134487017Y-72787511D01*
X134487016Y-72787515D01*
X134449500Y-72927525D01*
X134449500Y-72927527D01*
X134449500Y-73003456D01*
X134429815Y-73070495D01*
X134413181Y-73091137D01*
X134219531Y-73284786D01*
X134219525Y-73284794D01*
X134175080Y-73361777D01*
X134175074Y-73361788D01*
X134173387Y-73364707D01*
X134173386Y-73364712D01*
X134149500Y-73453856D01*
X134149500Y-73453858D01*
X134149500Y-75075500D01*
X134129815Y-75142539D01*
X134077011Y-75188294D01*
X134025500Y-75199500D01*
X134006898Y-75199500D01*
X133967853Y-75204188D01*
X133918438Y-75210122D01*
X133777656Y-75265639D01*
X133657077Y-75357077D01*
X133565638Y-75477658D01*
X133541407Y-75539103D01*
X133498501Y-75594247D01*
X133432593Y-75617439D01*
X133364608Y-75601318D01*
X133338372Y-75581293D01*
X133285292Y-75528213D01*
X133285288Y-75528210D01*
X133154185Y-75440609D01*
X133154172Y-75440602D01*
X133008501Y-75380264D01*
X133008489Y-75380261D01*
X132853845Y-75349500D01*
X132853842Y-75349500D01*
X132696158Y-75349500D01*
X132696155Y-75349500D01*
X132541510Y-75380261D01*
X132541498Y-75380264D01*
X132395827Y-75440602D01*
X132395814Y-75440609D01*
X132264711Y-75528210D01*
X132264707Y-75528213D01*
X132153213Y-75639707D01*
X132153210Y-75639711D01*
X132065609Y-75770814D01*
X132065602Y-75770827D01*
X132005264Y-75916498D01*
X132005261Y-75916510D01*
X131974500Y-76071153D01*
X127617115Y-76071153D01*
X127614501Y-76062536D01*
X127585232Y-75966046D01*
X127487685Y-75783550D01*
X127386152Y-75659831D01*
X127358840Y-75595523D01*
X127370631Y-75526656D01*
X127394322Y-75493490D01*
X128305756Y-74582056D01*
X128367077Y-74548573D01*
X128419415Y-74549820D01*
X128419466Y-74549439D01*
X128423019Y-74549906D01*
X128425535Y-74549966D01*
X128427525Y-74550500D01*
X128427528Y-74550500D01*
X128572472Y-74550500D01*
X128572475Y-74550500D01*
X128712485Y-74512984D01*
X128838015Y-74440509D01*
X128940509Y-74338015D01*
X129012984Y-74212485D01*
X129050500Y-74072475D01*
X129050500Y-73927525D01*
X129012984Y-73787515D01*
X128940509Y-73661985D01*
X128838015Y-73559491D01*
X128838013Y-73559490D01*
X128838011Y-73559488D01*
X128712488Y-73487017D01*
X128712489Y-73487017D01*
X128701006Y-73483940D01*
X128572475Y-73449500D01*
X128427525Y-73449500D01*
X128343519Y-73472009D01*
X128287513Y-73487016D01*
X128280162Y-73490062D01*
X128232711Y-73499500D01*
X128114107Y-73499500D01*
X127986812Y-73533608D01*
X127872686Y-73599500D01*
X127872683Y-73599502D01*
X126189005Y-75283181D01*
X126127682Y-75316666D01*
X126101324Y-75319500D01*
X124958392Y-75319500D01*
X124920298Y-75323251D01*
X124804067Y-75334699D01*
X124606043Y-75394769D01*
X124520297Y-75440602D01*
X124423550Y-75492315D01*
X124423548Y-75492316D01*
X124423547Y-75492317D01*
X124263589Y-75623589D01*
X124132317Y-75783547D01*
X124034769Y-75966043D01*
X123974699Y-76164067D01*
X123963251Y-76280298D01*
X123959500Y-76318392D01*
X122398127Y-76318392D01*
X122332190Y-76230312D01*
X122332187Y-76230309D01*
X122217093Y-76144149D01*
X122217086Y-76144145D01*
X122082379Y-76093903D01*
X122082372Y-76093901D01*
X122022844Y-76087500D01*
X121750000Y-76087500D01*
X121750000Y-76675000D01*
X121250000Y-76675000D01*
X121250000Y-76087500D01*
X120977155Y-76087500D01*
X120917627Y-76093901D01*
X120917620Y-76093903D01*
X120782913Y-76144145D01*
X120782906Y-76144149D01*
X120667812Y-76230309D01*
X120667809Y-76230312D01*
X120581649Y-76345406D01*
X120581645Y-76345413D01*
X120531403Y-76480120D01*
X120531401Y-76480127D01*
X120525000Y-76539655D01*
X118283781Y-76539655D01*
X123614310Y-71209126D01*
X148854000Y-71209126D01*
X148854000Y-71583000D01*
X149304000Y-71583000D01*
X149304000Y-72083000D01*
X148854000Y-72083000D01*
X148854000Y-72456873D01*
X148882820Y-72601759D01*
X148882822Y-72601767D01*
X148939357Y-72738254D01*
X148939362Y-72738264D01*
X149021436Y-72861096D01*
X149021439Y-72861100D01*
X149125899Y-72965560D01*
X149125907Y-72965566D01*
X149248739Y-73047640D01*
X149248743Y-73047642D01*
X149353999Y-73091240D01*
X149354000Y-73091240D01*
X149354000Y-72549988D01*
X149363940Y-72567205D01*
X149419795Y-72623060D01*
X149488204Y-72662556D01*
X149564504Y-72683000D01*
X149643496Y-72683000D01*
X149719796Y-72662556D01*
X149788205Y-72623060D01*
X149844060Y-72567205D01*
X149854000Y-72549988D01*
X149854000Y-73091240D01*
X149959256Y-73047642D01*
X149959260Y-73047640D01*
X150082092Y-72965566D01*
X150082100Y-72965560D01*
X150186560Y-72861100D01*
X150186563Y-72861096D01*
X150268637Y-72738264D01*
X150268642Y-72738254D01*
X150325177Y-72601767D01*
X150325179Y-72601759D01*
X150353999Y-72456873D01*
X150354000Y-72456871D01*
X150354000Y-72083000D01*
X149904000Y-72083000D01*
X149904000Y-71583000D01*
X150354000Y-71583000D01*
X150354000Y-71209128D01*
X150353999Y-71209126D01*
X157494000Y-71209126D01*
X157494000Y-71583000D01*
X157944000Y-71583000D01*
X157944000Y-72083000D01*
X157494000Y-72083000D01*
X157494000Y-72456873D01*
X157522820Y-72601759D01*
X157522822Y-72601767D01*
X157579357Y-72738254D01*
X157579362Y-72738264D01*
X157661436Y-72861096D01*
X157661439Y-72861100D01*
X157765899Y-72965560D01*
X157765907Y-72965566D01*
X157888739Y-73047640D01*
X157888743Y-73047642D01*
X157993999Y-73091240D01*
X157994000Y-73091240D01*
X157994000Y-72549988D01*
X158003940Y-72567205D01*
X158059795Y-72623060D01*
X158128204Y-72662556D01*
X158204504Y-72683000D01*
X158283496Y-72683000D01*
X158359796Y-72662556D01*
X158428205Y-72623060D01*
X158484060Y-72567205D01*
X158494000Y-72549988D01*
X158494000Y-73091240D01*
X158599256Y-73047642D01*
X158599260Y-73047640D01*
X158722092Y-72965566D01*
X158722100Y-72965560D01*
X158826560Y-72861100D01*
X158826563Y-72861096D01*
X158908637Y-72738264D01*
X158908642Y-72738254D01*
X158965177Y-72601767D01*
X158965179Y-72601759D01*
X158993999Y-72456873D01*
X158994000Y-72456871D01*
X158994000Y-72083000D01*
X158544000Y-72083000D01*
X158544000Y-71583000D01*
X158994000Y-71583000D01*
X158994000Y-71209128D01*
X158993999Y-71209126D01*
X158965179Y-71064240D01*
X158965177Y-71064232D01*
X158908642Y-70927745D01*
X158908637Y-70927735D01*
X158826563Y-70804903D01*
X158826560Y-70804899D01*
X158722100Y-70700439D01*
X158722096Y-70700436D01*
X158599264Y-70618362D01*
X158599254Y-70618357D01*
X158494000Y-70574759D01*
X158494000Y-71116011D01*
X158484060Y-71098795D01*
X158428205Y-71042940D01*
X158359796Y-71003444D01*
X158283496Y-70983000D01*
X158204504Y-70983000D01*
X158128204Y-71003444D01*
X158059795Y-71042940D01*
X158003940Y-71098795D01*
X157994000Y-71116011D01*
X157994000Y-70574759D01*
X157993999Y-70574759D01*
X157888745Y-70618357D01*
X157888735Y-70618362D01*
X157765903Y-70700436D01*
X157765899Y-70700439D01*
X157661439Y-70804899D01*
X157661436Y-70804903D01*
X157579362Y-70927735D01*
X157579357Y-70927745D01*
X157522822Y-71064232D01*
X157522820Y-71064240D01*
X157494000Y-71209126D01*
X150353999Y-71209126D01*
X150325179Y-71064240D01*
X150325177Y-71064232D01*
X150268642Y-70927745D01*
X150268637Y-70927735D01*
X150186563Y-70804903D01*
X150186560Y-70804899D01*
X150082100Y-70700439D01*
X150082096Y-70700436D01*
X149959264Y-70618362D01*
X149959254Y-70618357D01*
X149854000Y-70574759D01*
X149854000Y-71116011D01*
X149844060Y-71098795D01*
X149788205Y-71042940D01*
X149719796Y-71003444D01*
X149643496Y-70983000D01*
X149564504Y-70983000D01*
X149488204Y-71003444D01*
X149419795Y-71042940D01*
X149363940Y-71098795D01*
X149354000Y-71116011D01*
X149354000Y-70574759D01*
X149353999Y-70574759D01*
X149248745Y-70618357D01*
X149248735Y-70618362D01*
X149125903Y-70700436D01*
X149125899Y-70700439D01*
X149021439Y-70804899D01*
X149021436Y-70804903D01*
X148939362Y-70927735D01*
X148939357Y-70927745D01*
X148882822Y-71064232D01*
X148882820Y-71064240D01*
X148854000Y-71209126D01*
X123614310Y-71209126D01*
X124886617Y-69936819D01*
X124947940Y-69903334D01*
X124974298Y-69900500D01*
X139732711Y-69900500D01*
X139780162Y-69909938D01*
X139787513Y-69912983D01*
X139787515Y-69912984D01*
X139927525Y-69950500D01*
X139927528Y-69950500D01*
X140072472Y-69950500D01*
X140072475Y-69950500D01*
X140212485Y-69912984D01*
X140338015Y-69840509D01*
X140440509Y-69738015D01*
X140512984Y-69612485D01*
X140550500Y-69472475D01*
X140550500Y-69327525D01*
X140512984Y-69187515D01*
X140498244Y-69161985D01*
X140440511Y-69061988D01*
X140440506Y-69061982D01*
X140338017Y-68959493D01*
X140338011Y-68959488D01*
X140212488Y-68887017D01*
X140212489Y-68887017D01*
X140201006Y-68883940D01*
X140072475Y-68849500D01*
X139927525Y-68849500D01*
X139843519Y-68872009D01*
X139787513Y-68887016D01*
X139780162Y-68890062D01*
X139732711Y-68899500D01*
X124649729Y-68899500D01*
X124522434Y-68933608D01*
X124429929Y-68987017D01*
X124408308Y-68999500D01*
X124408307Y-68999501D01*
X124345826Y-69061982D01*
X124166529Y-69241278D01*
X124105206Y-69274762D01*
X124035514Y-69269778D01*
X123979581Y-69227906D01*
X123971461Y-69215596D01*
X123940509Y-69161985D01*
X123838015Y-69059491D01*
X123838013Y-69059490D01*
X123838011Y-69059488D01*
X123712488Y-68987017D01*
X123712489Y-68987017D01*
X123701006Y-68983940D01*
X123572475Y-68949500D01*
X123427525Y-68949500D01*
X123298993Y-68983940D01*
X123287511Y-68987017D01*
X123161988Y-69059488D01*
X123161982Y-69059493D01*
X123059493Y-69161982D01*
X123059489Y-69161988D01*
X122987016Y-69287515D01*
X122983968Y-69294873D01*
X122957091Y-69335093D01*
X119762181Y-72530004D01*
X119700858Y-72563489D01*
X119631166Y-72558505D01*
X119575233Y-72516633D01*
X119550816Y-72451169D01*
X119550500Y-72442323D01*
X119550500Y-72427527D01*
X119550500Y-72427525D01*
X119512984Y-72287515D01*
X119440509Y-72161985D01*
X119338015Y-72059491D01*
X119338013Y-72059490D01*
X119338011Y-72059488D01*
X119212488Y-71987017D01*
X119212489Y-71987017D01*
X119201006Y-71983940D01*
X119072475Y-71949500D01*
X118927525Y-71949500D01*
X118798993Y-71983940D01*
X118787511Y-71987017D01*
X118661988Y-72059488D01*
X118661982Y-72059493D01*
X118559493Y-72161982D01*
X118559489Y-72161988D01*
X118487016Y-72287515D01*
X118483968Y-72294873D01*
X118457091Y-72335093D01*
X112692686Y-78099500D01*
X112599502Y-78192683D01*
X112599500Y-78192686D01*
X112533608Y-78306812D01*
X112499500Y-78434108D01*
X108500500Y-78434108D01*
X108500500Y-72878711D01*
X110649500Y-72878711D01*
X110649500Y-73121288D01*
X110678031Y-73338011D01*
X110681162Y-73361789D01*
X110705832Y-73453858D01*
X110743947Y-73596104D01*
X110785551Y-73696544D01*
X110836776Y-73820212D01*
X110958064Y-74030289D01*
X110958066Y-74030292D01*
X110958067Y-74030293D01*
X111105733Y-74222736D01*
X111105739Y-74222743D01*
X111277256Y-74394260D01*
X111277263Y-74394266D01*
X111337528Y-74440509D01*
X111469711Y-74541936D01*
X111679788Y-74663224D01*
X111903900Y-74756054D01*
X112138211Y-74818838D01*
X112318586Y-74842584D01*
X112378711Y-74850500D01*
X112378712Y-74850500D01*
X112621289Y-74850500D01*
X112669388Y-74844167D01*
X112861789Y-74818838D01*
X113096100Y-74756054D01*
X113320212Y-74663224D01*
X113530289Y-74541936D01*
X113722738Y-74394265D01*
X113894265Y-74222738D01*
X114041936Y-74030289D01*
X114163224Y-73820212D01*
X114256054Y-73596100D01*
X114318838Y-73361789D01*
X114350500Y-73121288D01*
X114350500Y-72878712D01*
X114318838Y-72638211D01*
X114256054Y-72403900D01*
X114163224Y-72179788D01*
X114041936Y-71969711D01*
X113894265Y-71777262D01*
X113894260Y-71777256D01*
X113722743Y-71605739D01*
X113722736Y-71605733D01*
X113530293Y-71458067D01*
X113530292Y-71458066D01*
X113530289Y-71458064D01*
X113320212Y-71336776D01*
X113320205Y-71336773D01*
X113096104Y-71243947D01*
X112861785Y-71181161D01*
X112621289Y-71149500D01*
X112621288Y-71149500D01*
X112378712Y-71149500D01*
X112378711Y-71149500D01*
X112138214Y-71181161D01*
X111903895Y-71243947D01*
X111679794Y-71336773D01*
X111679785Y-71336777D01*
X111469706Y-71458067D01*
X111277263Y-71605733D01*
X111277256Y-71605739D01*
X111105739Y-71777256D01*
X111105733Y-71777263D01*
X110958067Y-71969706D01*
X110836777Y-72179785D01*
X110836773Y-72179794D01*
X110743947Y-72403895D01*
X110681161Y-72638214D01*
X110649500Y-72878711D01*
X108500500Y-72878711D01*
X108500500Y-67279126D01*
X148854000Y-67279126D01*
X148854000Y-67403000D01*
X149304000Y-67403000D01*
X149304000Y-67903000D01*
X148854000Y-67903000D01*
X148854000Y-68026873D01*
X148882820Y-68171759D01*
X148882822Y-68171767D01*
X148939357Y-68308254D01*
X148939362Y-68308264D01*
X149021436Y-68431096D01*
X149021439Y-68431100D01*
X149125899Y-68535560D01*
X149125907Y-68535566D01*
X149248739Y-68617640D01*
X149248743Y-68617642D01*
X149353999Y-68661240D01*
X149354000Y-68661240D01*
X149354000Y-68119988D01*
X149363940Y-68137205D01*
X149419795Y-68193060D01*
X149488204Y-68232556D01*
X149564504Y-68253000D01*
X149643496Y-68253000D01*
X149719796Y-68232556D01*
X149788205Y-68193060D01*
X149844060Y-68137205D01*
X149854000Y-68119988D01*
X149854000Y-68661240D01*
X149959256Y-68617642D01*
X149959260Y-68617640D01*
X150082092Y-68535566D01*
X150082100Y-68535560D01*
X150186560Y-68431100D01*
X150186563Y-68431096D01*
X150268637Y-68308264D01*
X150268642Y-68308254D01*
X150325177Y-68171767D01*
X150325179Y-68171759D01*
X150353999Y-68026873D01*
X150354000Y-68026871D01*
X150354000Y-67903000D01*
X149904000Y-67903000D01*
X149904000Y-67403000D01*
X150354000Y-67403000D01*
X150354000Y-67279128D01*
X150353999Y-67279126D01*
X157494000Y-67279126D01*
X157494000Y-67403000D01*
X157944000Y-67403000D01*
X157944000Y-67903000D01*
X157494000Y-67903000D01*
X157494000Y-68026873D01*
X157522820Y-68171759D01*
X157522822Y-68171767D01*
X157579357Y-68308254D01*
X157579362Y-68308264D01*
X157661436Y-68431096D01*
X157661439Y-68431100D01*
X157765899Y-68535560D01*
X157765907Y-68535566D01*
X157888739Y-68617640D01*
X157888743Y-68617642D01*
X157993999Y-68661240D01*
X157994000Y-68661240D01*
X157994000Y-68119988D01*
X158003940Y-68137205D01*
X158059795Y-68193060D01*
X158128204Y-68232556D01*
X158204504Y-68253000D01*
X158283496Y-68253000D01*
X158359796Y-68232556D01*
X158428205Y-68193060D01*
X158484060Y-68137205D01*
X158494000Y-68119988D01*
X158494000Y-68661240D01*
X158599256Y-68617642D01*
X158599260Y-68617640D01*
X158722092Y-68535566D01*
X158722100Y-68535560D01*
X158826560Y-68431100D01*
X158826563Y-68431096D01*
X158908637Y-68308264D01*
X158908642Y-68308254D01*
X158965177Y-68171767D01*
X158965179Y-68171759D01*
X158993999Y-68026873D01*
X158994000Y-68026871D01*
X158994000Y-67903000D01*
X158544000Y-67903000D01*
X158544000Y-67403000D01*
X158994000Y-67403000D01*
X158994000Y-67279128D01*
X158993999Y-67279126D01*
X158965179Y-67134240D01*
X158965177Y-67134232D01*
X158908642Y-66997745D01*
X158908637Y-66997735D01*
X158826563Y-66874903D01*
X158826560Y-66874899D01*
X158722100Y-66770439D01*
X158722096Y-66770436D01*
X158599264Y-66688362D01*
X158599254Y-66688357D01*
X158494000Y-66644759D01*
X158494000Y-67186011D01*
X158484060Y-67168795D01*
X158428205Y-67112940D01*
X158359796Y-67073444D01*
X158283496Y-67053000D01*
X158204504Y-67053000D01*
X158128204Y-67073444D01*
X158059795Y-67112940D01*
X158003940Y-67168795D01*
X157994000Y-67186011D01*
X157994000Y-66644759D01*
X157993999Y-66644759D01*
X157888745Y-66688357D01*
X157888735Y-66688362D01*
X157765903Y-66770436D01*
X157765899Y-66770439D01*
X157661439Y-66874899D01*
X157661436Y-66874903D01*
X157579362Y-66997735D01*
X157579357Y-66997745D01*
X157522822Y-67134232D01*
X157522820Y-67134240D01*
X157494000Y-67279126D01*
X150353999Y-67279126D01*
X150325179Y-67134240D01*
X150325177Y-67134232D01*
X150268642Y-66997745D01*
X150268637Y-66997735D01*
X150186563Y-66874903D01*
X150186560Y-66874899D01*
X150082100Y-66770439D01*
X150082096Y-66770436D01*
X149959264Y-66688362D01*
X149959254Y-66688357D01*
X149854000Y-66644759D01*
X149854000Y-67186011D01*
X149844060Y-67168795D01*
X149788205Y-67112940D01*
X149719796Y-67073444D01*
X149643496Y-67053000D01*
X149564504Y-67053000D01*
X149488204Y-67073444D01*
X149419795Y-67112940D01*
X149363940Y-67168795D01*
X149354000Y-67186011D01*
X149354000Y-66644759D01*
X149353999Y-66644759D01*
X149248745Y-66688357D01*
X149248735Y-66688362D01*
X149125903Y-66770436D01*
X149125899Y-66770439D01*
X149021439Y-66874899D01*
X149021436Y-66874903D01*
X148939362Y-66997735D01*
X148939357Y-66997745D01*
X148882822Y-67134232D01*
X148882820Y-67134240D01*
X148854000Y-67279126D01*
X108500500Y-67279126D01*
X108500500Y-65394500D01*
X108520185Y-65327461D01*
X108572989Y-65281706D01*
X108624500Y-65270500D01*
X118304108Y-65270500D01*
X118745500Y-65270500D01*
X118812539Y-65290185D01*
G37*
%TD.AperFunction*%
%TD*%
M02*
