%TF.GenerationSoftware,KiCad,Pcbnew,10.0.0-rc1.1-4-gef7340bffd*%
%TF.CreationDate,2026-02-13T00:31:55+01:00*%
%TF.ProjectId,chu_tof,6368755f-746f-4662-9e6b-696361645f70,rev?*%
%TF.SameCoordinates,Original*%
%TF.FileFunction,Copper,L2,Bot*%
%TF.FilePolarity,Positive*%
%FSLAX46Y46*%
G04 Gerber Fmt 4.6, Leading zero omitted, Abs format (unit mm)*
G04 Created by KiCad (PCBNEW 10.0.0-rc1.1-4-gef7340bffd) date 2026-02-13 00:31:55*
%MOMM*%
%LPD*%
G01*
G04 APERTURE LIST*
G04 Aperture macros list*
%AMRoundRect*
0 Rectangle with rounded corners*
0 $1 Rounding radius*
0 $2 $3 $4 $5 $6 $7 $8 $9 X,Y pos of 4 corners*
0 Add a 4 corners polygon primitive as box body*
4,1,4,$2,$3,$4,$5,$6,$7,$8,$9,$2,$3,0*
0 Add four circle primitives for the rounded corners*
1,1,$1+$1,$2,$3*
1,1,$1+$1,$4,$5*
1,1,$1+$1,$6,$7*
1,1,$1+$1,$8,$9*
0 Add four rect primitives between the rounded corners*
20,1,$1+$1,$2,$3,$4,$5,0*
20,1,$1+$1,$4,$5,$6,$7,0*
20,1,$1+$1,$6,$7,$8,$9,0*
20,1,$1+$1,$8,$9,$2,$3,0*%
%AMFreePoly0*
4,1,23,0.500000,-0.750000,0.000000,-0.750000,0.000000,-0.745722,-0.065263,-0.745722,-0.191342,-0.711940,-0.304381,-0.646677,-0.396677,-0.554381,-0.461940,-0.441342,-0.495722,-0.315263,-0.495722,-0.250000,-0.500000,-0.250000,-0.500000,0.250000,-0.495722,0.250000,-0.495722,0.315263,-0.461940,0.441342,-0.396677,0.554381,-0.304381,0.646677,-0.191342,0.711940,-0.065263,0.745722,0.000000,0.745722,
0.000000,0.750000,0.500000,0.750000,0.500000,-0.750000,0.500000,-0.750000,$1*%
%AMFreePoly1*
4,1,23,0.000000,0.745722,0.065263,0.745722,0.191342,0.711940,0.304381,0.646677,0.396677,0.554381,0.461940,0.441342,0.495722,0.315263,0.495722,0.250000,0.500000,0.250000,0.500000,-0.250000,0.495722,-0.250000,0.495722,-0.315263,0.461940,-0.441342,0.396677,-0.554381,0.304381,-0.646677,0.191342,-0.711940,0.065263,-0.745722,0.000000,-0.745722,0.000000,-0.750000,-0.500000,-0.750000,
-0.500000,0.750000,0.000000,0.750000,0.000000,0.745722,0.000000,0.745722,$1*%
G04 Aperture macros list end*
%TA.AperFunction,ComponentPad*%
%ADD10C,1.905000*%
%TD*%
%TA.AperFunction,SMDPad,CuDef*%
%ADD11FreePoly0,90.000000*%
%TD*%
%TA.AperFunction,SMDPad,CuDef*%
%ADD12FreePoly1,90.000000*%
%TD*%
%TA.AperFunction,SMDPad,CuDef*%
%ADD13FreePoly0,270.000000*%
%TD*%
%TA.AperFunction,SMDPad,CuDef*%
%ADD14FreePoly1,270.000000*%
%TD*%
%TA.AperFunction,SMDPad,CuDef*%
%ADD15RoundRect,0.250000X0.475000X-0.337500X0.475000X0.337500X-0.475000X0.337500X-0.475000X-0.337500X0*%
%TD*%
%TA.AperFunction,ComponentPad*%
%ADD16C,1.700000*%
%TD*%
%TA.AperFunction,ComponentPad*%
%ADD17R,1.700000X1.700000*%
%TD*%
%TA.AperFunction,SMDPad,CuDef*%
%ADD18RoundRect,0.250000X-0.350000X-0.450000X0.350000X-0.450000X0.350000X0.450000X-0.350000X0.450000X0*%
%TD*%
%TA.AperFunction,ViaPad*%
%ADD19C,0.600000*%
%TD*%
%TA.AperFunction,Conductor*%
%ADD20C,0.250000*%
%TD*%
%TA.AperFunction,Conductor*%
%ADD21C,1.000000*%
%TD*%
G04 APERTURE END LIST*
D10*
%TO.P,J1,4,Pin_4_4*%
%TO.N,/SDA*%
X143280000Y-97000000D03*
%TO.P,J1,3,Pin_3_3*%
%TO.N,/SCL*%
X145820000Y-97000000D03*
%TO.P,J1,2,Pin_2_2*%
%TO.N,GND*%
X148360000Y-97000000D03*
%TO.P,J1,1,Pin_1_1*%
%TO.N,+3V3*%
X150900000Y-97000000D03*
%TD*%
D11*
%TO.P,A0_1,1,A_1*%
%TO.N,Net-(A0_0-B)*%
X186100000Y-96450000D03*
D12*
%TO.P,A0_1,2,B_2*%
%TO.N,+3V3*%
X186100000Y-95150000D03*
%TD*%
D13*
%TO.P,A0_0,1,A_1*%
%TO.N,GND*%
X188600000Y-95150000D03*
D14*
%TO.P,A0_0,2,B_2*%
%TO.N,Net-(A0_0-B)*%
X188600000Y-96450000D03*
%TD*%
D15*
%TO.P,C1,1*%
%TO.N,+3V3*%
X156155000Y-97000000D03*
%TO.P,C1,2*%
%TO.N,GND*%
X156155000Y-94925000D03*
%TD*%
D16*
%TO.P,TOF5,6,GPIO1_6*%
%TO.N,unconnected-(TOF5-GPIO1-Pad6)*%
X220260000Y-96520000D03*
%TO.P,TOF5,5,XSHUT_5*%
%TO.N,unconnected-(TOF5-XSHUT-Pad5)*%
X220260000Y-93980000D03*
%TO.P,TOF5,4,SDA_4*%
%TO.N,/SDA_5*%
X210100000Y-96520000D03*
%TO.P,TOF5,3,SCL_3*%
%TO.N,/SCL_5*%
X210100000Y-93980000D03*
%TO.P,TOF5,2,GND_2*%
%TO.N,GND*%
X210100000Y-91440000D03*
D17*
%TO.P,TOF5,1,VIN_1*%
%TO.N,+3V3*%
X210100000Y-88900000D03*
%TD*%
D16*
%TO.P,TOF1,6,GPIO1_6*%
%TO.N,unconnected-(TOF1-GPIO1-Pad6)*%
X40260000Y-96520000D03*
%TO.P,TOF1,5,XSHUT_5*%
%TO.N,unconnected-(TOF1-XSHUT-Pad5)*%
X40260000Y-93980000D03*
%TO.P,TOF1,4,SDA_4*%
%TO.N,/SDA_1*%
X30100000Y-96520000D03*
%TO.P,TOF1,3,SCL_3*%
%TO.N,/SCL_1*%
X30100000Y-93980000D03*
%TO.P,TOF1,2,GND_2*%
%TO.N,GND*%
X30100000Y-91440000D03*
D17*
%TO.P,TOF1,1,VIN_1*%
%TO.N,+3V3*%
X30100000Y-88900000D03*
%TD*%
%TO.P,TOF3,1,VIN_1*%
%TO.N,+3V3*%
X120100000Y-88900000D03*
D16*
%TO.P,TOF3,2,GND_2*%
%TO.N,GND*%
X120100000Y-91440000D03*
%TO.P,TOF3,3,SCL_3*%
%TO.N,/SCL_3*%
X120100000Y-93980000D03*
%TO.P,TOF3,4,SDA_4*%
%TO.N,/SDA_3*%
X120100000Y-96520000D03*
%TO.P,TOF3,5,XSHUT_5*%
%TO.N,unconnected-(TOF3-XSHUT-Pad5)*%
X130260000Y-93980000D03*
%TO.P,TOF3,6,GPIO1_6*%
%TO.N,unconnected-(TOF3-GPIO1-Pad6)*%
X130260000Y-96520000D03*
%TD*%
D17*
%TO.P,TOF2,1,VIN_1*%
%TO.N,+3V3*%
X75100000Y-88900000D03*
D16*
%TO.P,TOF2,2,GND_2*%
%TO.N,GND*%
X75100000Y-91440000D03*
%TO.P,TOF2,3,SCL_3*%
%TO.N,/SCL_2*%
X75100000Y-93980000D03*
%TO.P,TOF2,4,SDA_4*%
%TO.N,/SDA_2*%
X75100000Y-96520000D03*
%TO.P,TOF2,5,XSHUT_5*%
%TO.N,unconnected-(TOF2-XSHUT-Pad5)*%
X85260000Y-93980000D03*
%TO.P,TOF2,6,GPIO1_6*%
%TO.N,unconnected-(TOF2-GPIO1-Pad6)*%
X85260000Y-96520000D03*
%TD*%
D17*
%TO.P,TOF4,1,VIN_1*%
%TO.N,+3V3*%
X165100000Y-88900000D03*
D16*
%TO.P,TOF4,2,GND_2*%
%TO.N,GND*%
X165100000Y-91440000D03*
%TO.P,TOF4,3,SCL_3*%
%TO.N,/SCL_4*%
X165100000Y-93980000D03*
%TO.P,TOF4,4,SDA_4*%
%TO.N,/SDA_4*%
X165100000Y-96520000D03*
%TO.P,TOF4,5,XSHUT_5*%
%TO.N,unconnected-(TOF4-XSHUT-Pad5)*%
X175260000Y-93980000D03*
%TO.P,TOF4,6,GPIO1_6*%
%TO.N,unconnected-(TOF4-GPIO1-Pad6)*%
X175260000Y-96520000D03*
%TD*%
D17*
%TO.P,TOF6,1,VIN_1*%
%TO.N,+3V3*%
X255100000Y-88900000D03*
D16*
%TO.P,TOF6,2,GND_2*%
%TO.N,GND*%
X255100000Y-91440000D03*
%TO.P,TOF6,3,SCL_3*%
%TO.N,/SCL_6*%
X255100000Y-93980000D03*
%TO.P,TOF6,4,SDA_4*%
%TO.N,/SDA_6*%
X255100000Y-96520000D03*
%TO.P,TOF6,5,XSHUT_5*%
%TO.N,unconnected-(TOF6-XSHUT-Pad5)*%
X265260000Y-93980000D03*
%TO.P,TOF6,6,GPIO1_6*%
%TO.N,unconnected-(TOF6-GPIO1-Pad6)*%
X265260000Y-96520000D03*
%TD*%
D18*
%TO.P,R1,1*%
%TO.N,+3V3*%
X186298000Y-92202000D03*
%TO.P,R1,2*%
%TO.N,Net-(U1-~{RESET})*%
X188298000Y-92202000D03*
%TD*%
D19*
%TO.N,GND*%
X205500000Y-95000000D03*
%TO.N,+3V3*%
X199898000Y-88900000D03*
%TO.N,GND*%
X180086000Y-93980000D03*
X180086000Y-96520000D03*
X160909000Y-97028000D03*
X215011000Y-90805000D03*
X215011000Y-95250000D03*
X148336000Y-90424000D03*
X188595000Y-93726000D03*
X138049000Y-97028000D03*
X196850000Y-93980000D03*
%TO.N,/SCL_3*%
X140462000Y-94488000D03*
X162052000Y-94488000D03*
X167386000Y-95250000D03*
%TO.N,/SCL_2*%
X167640000Y-92710000D03*
X162052000Y-93335000D03*
X140462000Y-93335000D03*
%TO.N,/SCL_1*%
X167640000Y-90932000D03*
X160909000Y-92085000D03*
X140462000Y-92085000D03*
%TO.N,/SCL_4*%
X168910000Y-97145000D03*
%TO.N,Net-(A0_0-B)*%
X192532000Y-90424000D03*
%TO.N,Net-(U1-~{RESET})*%
X191262000Y-90424000D03*
%TO.N,/SCL*%
X145821400Y-90119200D03*
%TO.N,/SDA*%
X143300000Y-90100000D03*
X146050000Y-87630000D03*
X195707000Y-87630000D03*
%TD*%
%TO.N,/SCL_4*%
D20*
X167640000Y-93980000D02*
X165100000Y-93980000D01*
X168910000Y-95250000D02*
X167640000Y-93980000D01*
X168910000Y-97145000D02*
X168910000Y-95250000D01*
%TO.N,+3V3*%
D21*
X120100000Y-88900000D02*
X75100000Y-88900000D01*
X184250000Y-88900000D02*
X184250000Y-89408000D01*
X186298000Y-91456000D02*
X186298000Y-92202000D01*
X198982000Y-88900000D02*
X199898000Y-88900000D01*
X199898000Y-88900000D02*
X201014000Y-88900000D01*
X201776000Y-88900000D02*
X201639000Y-88900000D01*
X184250000Y-88900000D02*
X187100000Y-88900000D01*
X150900000Y-97000000D02*
X156155000Y-97000000D01*
X210100000Y-88900000D02*
X255100000Y-88900000D01*
X120100000Y-88900000D02*
X150900000Y-88900000D01*
X198982000Y-88900000D02*
X199373000Y-88900000D01*
X186298000Y-94952000D02*
X186100000Y-95150000D01*
X150900000Y-97000000D02*
X150900000Y-88900000D01*
X75100000Y-88900000D02*
X30100000Y-88900000D01*
X165100000Y-88900000D02*
X184250000Y-88900000D01*
X201776000Y-88900000D02*
X210100000Y-88900000D01*
X187100000Y-88900000D02*
X198982000Y-88900000D01*
X186298000Y-92202000D02*
X186298000Y-94952000D01*
X165100000Y-88900000D02*
X150900000Y-88900000D01*
X184250000Y-89408000D02*
X186298000Y-91456000D01*
X201014000Y-88900000D02*
X201776000Y-88900000D01*
%TO.N,/SCL_3*%
D20*
X140462000Y-94488000D02*
X139700000Y-95250000D01*
X121370000Y-95250000D02*
X120100000Y-93980000D01*
X139700000Y-95250000D02*
X121370000Y-95250000D01*
X162052000Y-94488000D02*
X162814000Y-95250000D01*
X162814000Y-95250000D02*
X167386000Y-95250000D01*
%TO.N,/SCL_2*%
X162189000Y-93335000D02*
X162052000Y-93335000D01*
X139700000Y-92710000D02*
X76370000Y-92710000D01*
X140462000Y-93335000D02*
X140325000Y-93335000D01*
X76370000Y-92710000D02*
X75100000Y-93980000D01*
X162814000Y-92710000D02*
X162189000Y-93335000D01*
X162814000Y-92710000D02*
X167640000Y-92710000D01*
X140325000Y-93335000D02*
X139700000Y-92710000D01*
%TO.N,/SCL_1*%
X138547000Y-90170000D02*
X33910000Y-90170000D01*
X33910000Y-90170000D02*
X30100000Y-93980000D01*
X160909000Y-92075000D02*
X162814000Y-90170000D01*
X162814000Y-90170000D02*
X166878000Y-90170000D01*
X160909000Y-92085000D02*
X160909000Y-92075000D01*
X140462000Y-92085000D02*
X138547000Y-90170000D01*
X166878000Y-90170000D02*
X167640000Y-90932000D01*
%TO.N,Net-(A0_0-B)*%
X188600000Y-96450000D02*
X186100000Y-96450000D01*
X192532000Y-93273000D02*
X189355000Y-96450000D01*
X192532000Y-90424000D02*
X192532000Y-93273000D01*
X189355000Y-96450000D02*
X188600000Y-96450000D01*
%TO.N,Net-(U1-~{RESET})*%
X191262000Y-90424000D02*
X189484000Y-92202000D01*
X189484000Y-92202000D02*
X188298000Y-92202000D01*
%TO.N,/SCL*%
X145820000Y-97000000D02*
X145820000Y-90120600D01*
X145820000Y-90120600D02*
X145821400Y-90119200D01*
%TO.N,/SDA*%
X143280000Y-97000000D02*
X143280000Y-90120000D01*
X195707000Y-87630000D02*
X146050000Y-87630000D01*
X143280000Y-90120000D02*
X143300000Y-90100000D01*
%TD*%
%TA.AperFunction,Conductor*%
%TO.N,GND*%
G36*
X145565192Y-87291407D02*
G01*
X145601156Y-87340907D01*
X145601156Y-87402093D01*
X145592738Y-87420999D01*
X145583609Y-87436810D01*
X145583608Y-87436814D01*
X145549500Y-87564108D01*
X145549500Y-87695892D01*
X145579579Y-87808151D01*
X145583609Y-87823190D01*
X145649496Y-87937309D01*
X145649498Y-87937311D01*
X145649500Y-87937314D01*
X145742684Y-88030498D01*
X145770460Y-88085013D01*
X145760889Y-88145445D01*
X145717624Y-88188710D01*
X145672679Y-88199500D01*
X121249500Y-88199500D01*
X121191309Y-88180593D01*
X121155345Y-88131093D01*
X121150500Y-88100500D01*
X121150500Y-88030253D01*
X121150498Y-88030241D01*
X121143748Y-87996309D01*
X121138867Y-87971769D01*
X121094552Y-87905448D01*
X121094548Y-87905445D01*
X121028233Y-87861134D01*
X121028231Y-87861133D01*
X121028228Y-87861132D01*
X121028227Y-87861132D01*
X120969758Y-87849501D01*
X120969748Y-87849500D01*
X119230252Y-87849500D01*
X119230251Y-87849500D01*
X119230241Y-87849501D01*
X119171772Y-87861132D01*
X119171766Y-87861134D01*
X119105451Y-87905445D01*
X119105445Y-87905451D01*
X119061134Y-87971766D01*
X119061132Y-87971772D01*
X119049501Y-88030241D01*
X119049500Y-88030253D01*
X119049500Y-88100500D01*
X119030593Y-88158691D01*
X118981093Y-88194655D01*
X118950500Y-88199500D01*
X76249500Y-88199500D01*
X76191309Y-88180593D01*
X76155345Y-88131093D01*
X76150500Y-88100500D01*
X76150500Y-88030253D01*
X76150498Y-88030241D01*
X76143748Y-87996309D01*
X76138867Y-87971769D01*
X76094552Y-87905448D01*
X76094548Y-87905445D01*
X76028233Y-87861134D01*
X76028231Y-87861133D01*
X76028228Y-87861132D01*
X76028227Y-87861132D01*
X75969758Y-87849501D01*
X75969748Y-87849500D01*
X74230252Y-87849500D01*
X74230251Y-87849500D01*
X74230241Y-87849501D01*
X74171772Y-87861132D01*
X74171766Y-87861134D01*
X74105451Y-87905445D01*
X74105445Y-87905451D01*
X74061134Y-87971766D01*
X74061132Y-87971772D01*
X74049501Y-88030241D01*
X74049500Y-88030253D01*
X74049500Y-88100500D01*
X74030593Y-88158691D01*
X73981093Y-88194655D01*
X73950500Y-88199500D01*
X31249500Y-88199500D01*
X31191309Y-88180593D01*
X31155345Y-88131093D01*
X31150500Y-88100500D01*
X31150500Y-88030253D01*
X31150498Y-88030241D01*
X31143748Y-87996309D01*
X31138867Y-87971769D01*
X31094552Y-87905448D01*
X31094548Y-87905445D01*
X31028233Y-87861134D01*
X31028231Y-87861133D01*
X31028228Y-87861132D01*
X31028227Y-87861132D01*
X30969758Y-87849501D01*
X30969748Y-87849500D01*
X29230252Y-87849500D01*
X29230251Y-87849500D01*
X29230241Y-87849501D01*
X29171772Y-87861132D01*
X29171766Y-87861134D01*
X29105451Y-87905445D01*
X29105445Y-87905451D01*
X29061134Y-87971766D01*
X29061132Y-87971772D01*
X29049501Y-88030241D01*
X29049500Y-88030253D01*
X29049500Y-89769746D01*
X29049501Y-89769758D01*
X29061132Y-89828227D01*
X29061134Y-89828233D01*
X29101142Y-89888108D01*
X29105448Y-89894552D01*
X29171769Y-89938867D01*
X29216231Y-89947711D01*
X29230241Y-89950498D01*
X29230246Y-89950498D01*
X29230252Y-89950500D01*
X29230253Y-89950500D01*
X30969747Y-89950500D01*
X30969748Y-89950500D01*
X31028231Y-89938867D01*
X31094552Y-89894552D01*
X31138867Y-89828231D01*
X31150500Y-89769748D01*
X31150500Y-89699500D01*
X31169407Y-89641309D01*
X31218907Y-89605345D01*
X31249500Y-89600500D01*
X73950500Y-89600500D01*
X74008691Y-89619407D01*
X74044655Y-89668907D01*
X74049500Y-89699500D01*
X74049500Y-89745500D01*
X74030593Y-89803691D01*
X73981093Y-89839655D01*
X73950500Y-89844500D01*
X33958932Y-89844500D01*
X33958916Y-89844499D01*
X33952853Y-89844499D01*
X33867147Y-89844499D01*
X33867144Y-89844499D01*
X33784361Y-89866681D01*
X33754444Y-89883954D01*
X33754441Y-89883955D01*
X33747250Y-89888108D01*
X33710138Y-89909535D01*
X33649535Y-89970138D01*
X33649533Y-89970140D01*
X33646231Y-89973441D01*
X33646226Y-89973446D01*
X30625291Y-92994380D01*
X30570774Y-93022157D01*
X30517402Y-93015840D01*
X30406420Y-92969870D01*
X30203467Y-92929500D01*
X30203465Y-92929500D01*
X29996535Y-92929500D01*
X29996532Y-92929500D01*
X29793581Y-92969869D01*
X29602402Y-93049058D01*
X29430348Y-93164020D01*
X29284020Y-93310348D01*
X29169058Y-93482402D01*
X29089869Y-93673581D01*
X29049500Y-93876532D01*
X29049500Y-94083467D01*
X29089869Y-94286418D01*
X29169058Y-94477597D01*
X29253912Y-94604591D01*
X29284023Y-94649655D01*
X29430345Y-94795977D01*
X29602402Y-94910941D01*
X29793580Y-94990130D01*
X29996535Y-95030500D01*
X29996536Y-95030500D01*
X30203464Y-95030500D01*
X30203465Y-95030500D01*
X30406420Y-94990130D01*
X30597598Y-94910941D01*
X30769655Y-94795977D01*
X30915977Y-94649655D01*
X31030941Y-94477598D01*
X31110130Y-94286420D01*
X31150500Y-94083465D01*
X31150500Y-93876535D01*
X31150499Y-93876532D01*
X39209500Y-93876532D01*
X39209500Y-94083467D01*
X39249869Y-94286418D01*
X39329058Y-94477597D01*
X39413912Y-94604591D01*
X39444023Y-94649655D01*
X39590345Y-94795977D01*
X39762402Y-94910941D01*
X39953580Y-94990130D01*
X40156535Y-95030500D01*
X40156536Y-95030500D01*
X40363464Y-95030500D01*
X40363465Y-95030500D01*
X40566420Y-94990130D01*
X40757598Y-94910941D01*
X40929655Y-94795977D01*
X41075977Y-94649655D01*
X41190941Y-94477598D01*
X41270130Y-94286420D01*
X41310500Y-94083465D01*
X41310500Y-93876535D01*
X41270130Y-93673580D01*
X41190941Y-93482402D01*
X41075977Y-93310345D01*
X40929655Y-93164023D01*
X40919375Y-93157154D01*
X40757597Y-93049058D01*
X40566418Y-92969869D01*
X40363467Y-92929500D01*
X40363465Y-92929500D01*
X40156535Y-92929500D01*
X40156532Y-92929500D01*
X39953581Y-92969869D01*
X39762402Y-93049058D01*
X39590348Y-93164020D01*
X39444020Y-93310348D01*
X39329058Y-93482402D01*
X39249869Y-93673581D01*
X39209500Y-93876532D01*
X31150499Y-93876532D01*
X31110130Y-93673580D01*
X31064157Y-93562594D01*
X31059357Y-93501601D01*
X31085616Y-93454709D01*
X31951615Y-92588710D01*
X55329500Y-92588710D01*
X55329500Y-92831289D01*
X55339878Y-92910121D01*
X55358924Y-93054793D01*
X55361161Y-93071781D01*
X55361161Y-93071786D01*
X55423944Y-93306092D01*
X55423948Y-93306105D01*
X55516772Y-93530204D01*
X55516774Y-93530208D01*
X55516776Y-93530212D01*
X55626082Y-93719535D01*
X55638066Y-93740292D01*
X55785729Y-93932731D01*
X55785731Y-93932733D01*
X55785735Y-93932738D01*
X55957262Y-94104265D01*
X55957266Y-94104268D01*
X55957268Y-94104270D01*
X56000576Y-94137501D01*
X56149711Y-94251936D01*
X56359788Y-94373224D01*
X56583900Y-94466054D01*
X56818211Y-94528838D01*
X57058712Y-94560500D01*
X57058713Y-94560500D01*
X57301287Y-94560500D01*
X57301288Y-94560500D01*
X57541789Y-94528838D01*
X57776100Y-94466054D01*
X58000212Y-94373224D01*
X58210289Y-94251936D01*
X58402738Y-94104265D01*
X58574265Y-93932738D01*
X58721936Y-93740289D01*
X58843224Y-93530212D01*
X58936054Y-93306100D01*
X58998838Y-93071789D01*
X59030500Y-92831288D01*
X59030500Y-92588712D01*
X58998838Y-92348211D01*
X58936054Y-92113900D01*
X58843224Y-91889788D01*
X58721936Y-91679711D01*
X58712417Y-91667305D01*
X58574270Y-91487268D01*
X58574268Y-91487266D01*
X58574265Y-91487262D01*
X58402738Y-91315735D01*
X58402733Y-91315731D01*
X58402731Y-91315729D01*
X58210292Y-91168066D01*
X58210289Y-91168064D01*
X58000212Y-91046776D01*
X58000208Y-91046774D01*
X58000204Y-91046772D01*
X57776105Y-90953948D01*
X57776104Y-90953947D01*
X57776100Y-90953946D01*
X57541789Y-90891162D01*
X57541786Y-90891161D01*
X57541784Y-90891161D01*
X57301289Y-90859500D01*
X57301288Y-90859500D01*
X57058712Y-90859500D01*
X57058710Y-90859500D01*
X56818218Y-90891161D01*
X56818213Y-90891161D01*
X56583907Y-90953944D01*
X56583894Y-90953948D01*
X56359795Y-91046772D01*
X56149707Y-91168066D01*
X55957268Y-91315729D01*
X55785729Y-91487268D01*
X55638066Y-91679707D01*
X55516772Y-91889795D01*
X55423948Y-92113894D01*
X55423944Y-92113907D01*
X55361161Y-92348213D01*
X55361161Y-92348218D01*
X55329500Y-92588710D01*
X31951615Y-92588710D01*
X34015830Y-90524496D01*
X34070347Y-90496719D01*
X34085834Y-90495500D01*
X74468046Y-90495500D01*
X74526237Y-90514407D01*
X74538050Y-90524496D01*
X74970591Y-90957037D01*
X74907007Y-90974075D01*
X74792993Y-91039901D01*
X74699901Y-91132993D01*
X74634075Y-91247007D01*
X74617037Y-91310591D01*
X74201377Y-90894931D01*
X74169501Y-90942638D01*
X74090349Y-91133727D01*
X74050000Y-91336581D01*
X74050000Y-91543418D01*
X74090349Y-91746272D01*
X74169501Y-91937360D01*
X74169505Y-91937369D01*
X74201377Y-91985067D01*
X74617036Y-91569407D01*
X74634075Y-91632993D01*
X74699901Y-91747007D01*
X74792993Y-91840099D01*
X74907007Y-91905925D01*
X74970590Y-91922962D01*
X74554931Y-92338621D01*
X74602639Y-92370498D01*
X74793727Y-92449650D01*
X74996581Y-92489999D01*
X74996586Y-92490000D01*
X75203414Y-92490000D01*
X75203418Y-92489999D01*
X75406272Y-92449650D01*
X75597359Y-92370499D01*
X75645068Y-92338621D01*
X75229409Y-91922962D01*
X75292993Y-91905925D01*
X75407007Y-91840099D01*
X75500099Y-91747007D01*
X75565925Y-91632993D01*
X75582962Y-91569409D01*
X75998621Y-91985068D01*
X76030499Y-91937359D01*
X76109650Y-91746272D01*
X76149999Y-91543418D01*
X76150000Y-91543413D01*
X76150000Y-91336586D01*
X76149999Y-91336581D01*
X76109650Y-91133727D01*
X76030498Y-90942639D01*
X75998621Y-90894931D01*
X75582962Y-91310590D01*
X75565925Y-91247007D01*
X75500099Y-91132993D01*
X75407007Y-91039901D01*
X75292993Y-90974075D01*
X75229407Y-90957036D01*
X75661949Y-90524496D01*
X75716466Y-90496719D01*
X75731953Y-90495500D01*
X119468046Y-90495500D01*
X119526237Y-90514407D01*
X119538050Y-90524496D01*
X119970591Y-90957037D01*
X119907007Y-90974075D01*
X119792993Y-91039901D01*
X119699901Y-91132993D01*
X119634075Y-91247007D01*
X119617037Y-91310591D01*
X119201377Y-90894931D01*
X119169501Y-90942638D01*
X119090349Y-91133727D01*
X119050000Y-91336581D01*
X119050000Y-91543418D01*
X119090349Y-91746272D01*
X119169501Y-91937360D01*
X119169505Y-91937369D01*
X119201377Y-91985067D01*
X119617036Y-91569407D01*
X119634075Y-91632993D01*
X119699901Y-91747007D01*
X119792993Y-91840099D01*
X119907007Y-91905925D01*
X119970590Y-91922962D01*
X119538049Y-92355504D01*
X119483532Y-92383281D01*
X119468045Y-92384500D01*
X76412853Y-92384500D01*
X76327147Y-92384500D01*
X76276478Y-92398076D01*
X76244356Y-92406683D01*
X76170142Y-92449531D01*
X76170137Y-92449535D01*
X75625290Y-92994380D01*
X75570774Y-93022157D01*
X75517402Y-93015840D01*
X75406420Y-92969870D01*
X75203467Y-92929500D01*
X75203465Y-92929500D01*
X74996535Y-92929500D01*
X74996532Y-92929500D01*
X74793581Y-92969869D01*
X74602402Y-93049058D01*
X74430348Y-93164020D01*
X74284020Y-93310348D01*
X74169058Y-93482402D01*
X74089869Y-93673581D01*
X74049500Y-93876532D01*
X74049500Y-94083467D01*
X74089869Y-94286418D01*
X74169058Y-94477597D01*
X74253912Y-94604591D01*
X74284023Y-94649655D01*
X74430345Y-94795977D01*
X74602402Y-94910941D01*
X74793580Y-94990130D01*
X74996535Y-95030500D01*
X74996536Y-95030500D01*
X75203464Y-95030500D01*
X75203465Y-95030500D01*
X75406420Y-94990130D01*
X75597598Y-94910941D01*
X75769655Y-94795977D01*
X75915977Y-94649655D01*
X76030941Y-94477598D01*
X76110130Y-94286420D01*
X76150500Y-94083465D01*
X76150500Y-93876535D01*
X76110130Y-93673580D01*
X76064157Y-93562594D01*
X76059357Y-93501600D01*
X76085617Y-93454708D01*
X76475831Y-93064496D01*
X76530347Y-93036719D01*
X76545834Y-93035500D01*
X84479861Y-93035500D01*
X84538052Y-93054407D01*
X84574016Y-93103907D01*
X84574016Y-93165093D01*
X84549866Y-93204501D01*
X84485260Y-93269108D01*
X84444020Y-93310348D01*
X84329058Y-93482402D01*
X84249869Y-93673581D01*
X84209500Y-93876532D01*
X84209500Y-94083467D01*
X84249869Y-94286418D01*
X84329058Y-94477597D01*
X84413912Y-94604591D01*
X84444023Y-94649655D01*
X84590345Y-94795977D01*
X84762402Y-94910941D01*
X84953580Y-94990130D01*
X85156535Y-95030500D01*
X85156536Y-95030500D01*
X85363464Y-95030500D01*
X85363465Y-95030500D01*
X85566420Y-94990130D01*
X85757598Y-94910941D01*
X85929655Y-94795977D01*
X86075977Y-94649655D01*
X86190941Y-94477598D01*
X86270130Y-94286420D01*
X86310500Y-94083465D01*
X86310500Y-93876535D01*
X86270130Y-93673580D01*
X86190941Y-93482402D01*
X86075977Y-93310345D01*
X85970133Y-93204501D01*
X85942358Y-93149987D01*
X85951929Y-93089555D01*
X85995194Y-93046290D01*
X86040139Y-93035500D01*
X119319861Y-93035500D01*
X119378052Y-93054407D01*
X119414016Y-93103907D01*
X119414016Y-93165093D01*
X119389866Y-93204501D01*
X119325260Y-93269108D01*
X119284020Y-93310348D01*
X119169058Y-93482402D01*
X119089869Y-93673581D01*
X119049500Y-93876532D01*
X119049500Y-94083467D01*
X119089869Y-94286418D01*
X119169058Y-94477597D01*
X119253912Y-94604591D01*
X119284023Y-94649655D01*
X119430345Y-94795977D01*
X119602402Y-94910941D01*
X119793580Y-94990130D01*
X119996535Y-95030500D01*
X119996536Y-95030500D01*
X120203464Y-95030500D01*
X120203465Y-95030500D01*
X120406420Y-94990130D01*
X120517405Y-94944157D01*
X120578398Y-94939357D01*
X120625289Y-94965616D01*
X121170138Y-95510465D01*
X121170140Y-95510466D01*
X121170142Y-95510468D01*
X121244357Y-95553316D01*
X121244355Y-95553316D01*
X121244359Y-95553317D01*
X121244361Y-95553318D01*
X121327147Y-95575500D01*
X129479861Y-95575500D01*
X129538052Y-95594407D01*
X129574016Y-95643907D01*
X129574016Y-95705093D01*
X129549866Y-95744501D01*
X129496023Y-95798345D01*
X129444020Y-95850348D01*
X129329058Y-96022402D01*
X129249869Y-96213581D01*
X129209500Y-96416532D01*
X129209500Y-96623467D01*
X129249869Y-96826418D01*
X129329058Y-97017597D01*
X129444020Y-97189651D01*
X129444023Y-97189655D01*
X129590345Y-97335977D01*
X129762402Y-97450941D01*
X129953580Y-97530130D01*
X130156535Y-97570500D01*
X130156536Y-97570500D01*
X130363464Y-97570500D01*
X130363465Y-97570500D01*
X130566420Y-97530130D01*
X130757598Y-97450941D01*
X130929655Y-97335977D01*
X131075977Y-97189655D01*
X131190941Y-97017598D01*
X131270130Y-96826420D01*
X131310500Y-96623465D01*
X131310500Y-96416535D01*
X131270130Y-96213580D01*
X131190941Y-96022402D01*
X131075977Y-95850345D01*
X130970133Y-95744501D01*
X130942358Y-95689987D01*
X130951929Y-95629555D01*
X130995194Y-95586290D01*
X131040139Y-95575500D01*
X139742851Y-95575500D01*
X139742853Y-95575500D01*
X139825639Y-95553318D01*
X139825641Y-95553316D01*
X139825643Y-95553316D01*
X139899857Y-95510468D01*
X139899857Y-95510467D01*
X139899862Y-95510465D01*
X140392830Y-95017495D01*
X140447347Y-94989719D01*
X140462834Y-94988500D01*
X140527890Y-94988500D01*
X140527892Y-94988500D01*
X140655186Y-94954392D01*
X140655188Y-94954390D01*
X140655190Y-94954390D01*
X140769309Y-94888503D01*
X140769309Y-94888502D01*
X140769314Y-94888500D01*
X140862500Y-94795314D01*
X140869258Y-94783609D01*
X140928390Y-94681190D01*
X140928390Y-94681188D01*
X140928392Y-94681186D01*
X140962500Y-94553892D01*
X140962500Y-94422108D01*
X140928392Y-94294814D01*
X140928390Y-94294811D01*
X140928390Y-94294809D01*
X140862503Y-94180690D01*
X140862501Y-94180688D01*
X140862500Y-94180686D01*
X140769314Y-94087500D01*
X140769311Y-94087498D01*
X140769309Y-94087496D01*
X140655189Y-94021609D01*
X140655191Y-94021609D01*
X140637734Y-94016931D01*
X140601137Y-94007125D01*
X140549825Y-93973803D01*
X140527898Y-93916682D01*
X140543733Y-93857581D01*
X140591283Y-93819076D01*
X140601126Y-93815877D01*
X140655186Y-93801392D01*
X140655188Y-93801390D01*
X140655190Y-93801390D01*
X140769309Y-93735503D01*
X140769309Y-93735502D01*
X140769314Y-93735500D01*
X140862500Y-93642314D01*
X140862503Y-93642309D01*
X140928390Y-93528190D01*
X140928390Y-93528188D01*
X140928392Y-93528186D01*
X140962500Y-93400892D01*
X140962500Y-93269108D01*
X140928392Y-93141814D01*
X140928390Y-93141811D01*
X140928390Y-93141809D01*
X140862503Y-93027690D01*
X140862501Y-93027688D01*
X140862500Y-93027686D01*
X140769314Y-92934500D01*
X140769311Y-92934498D01*
X140769309Y-92934496D01*
X140655189Y-92868609D01*
X140655191Y-92868609D01*
X140605799Y-92855375D01*
X140527892Y-92834500D01*
X140396108Y-92834500D01*
X140388944Y-92836419D01*
X140363549Y-92843223D01*
X140302448Y-92840018D01*
X140267926Y-92817599D01*
X140164786Y-92714459D01*
X140137009Y-92659942D01*
X140146580Y-92599510D01*
X140189845Y-92556245D01*
X140250277Y-92546674D01*
X140262440Y-92550105D01*
X140262546Y-92549712D01*
X140268812Y-92551391D01*
X140268814Y-92551392D01*
X140396108Y-92585500D01*
X140396110Y-92585500D01*
X140527890Y-92585500D01*
X140527892Y-92585500D01*
X140655186Y-92551392D01*
X140655188Y-92551390D01*
X140655190Y-92551390D01*
X140769309Y-92485503D01*
X140769309Y-92485502D01*
X140769314Y-92485500D01*
X140862500Y-92392314D01*
X140862503Y-92392309D01*
X140928390Y-92278190D01*
X140928390Y-92278188D01*
X140928392Y-92278186D01*
X140962500Y-92150892D01*
X140962500Y-92019108D01*
X140928392Y-91891814D01*
X140928390Y-91891811D01*
X140928390Y-91891809D01*
X140862503Y-91777690D01*
X140862501Y-91777688D01*
X140862500Y-91777686D01*
X140769314Y-91684500D01*
X140769311Y-91684498D01*
X140769309Y-91684496D01*
X140655189Y-91618609D01*
X140655191Y-91618609D01*
X140605799Y-91605375D01*
X140527892Y-91584500D01*
X140527890Y-91584500D01*
X140462835Y-91584500D01*
X140404644Y-91565593D01*
X140392831Y-91555504D01*
X139576136Y-90738809D01*
X138746862Y-89909535D01*
X138746859Y-89909533D01*
X138746858Y-89909532D01*
X138746857Y-89909531D01*
X138672642Y-89866683D01*
X138672644Y-89866683D01*
X138640521Y-89858076D01*
X138589853Y-89844500D01*
X138589851Y-89844500D01*
X121249500Y-89844500D01*
X121191309Y-89825593D01*
X121155345Y-89776093D01*
X121150500Y-89745500D01*
X121150500Y-89699500D01*
X121169407Y-89641309D01*
X121218907Y-89605345D01*
X121249500Y-89600500D01*
X142852679Y-89600500D01*
X142910870Y-89619407D01*
X142946834Y-89668907D01*
X142946834Y-89730093D01*
X142922684Y-89769501D01*
X142899500Y-89792686D01*
X142899497Y-89792689D01*
X142899496Y-89792690D01*
X142833609Y-89906809D01*
X142821903Y-89950498D01*
X142799500Y-90034108D01*
X142799500Y-90165892D01*
X142816896Y-90230814D01*
X142833609Y-90293190D01*
X142899496Y-90407309D01*
X142899498Y-90407311D01*
X142899500Y-90407314D01*
X142925505Y-90433319D01*
X142953281Y-90487834D01*
X142954500Y-90503321D01*
X142954500Y-95821497D01*
X142935593Y-95879688D01*
X142886093Y-95915651D01*
X142837408Y-95931469D01*
X142837405Y-95931471D01*
X142675698Y-96013864D01*
X142528872Y-96120540D01*
X142400540Y-96248872D01*
X142293864Y-96395698D01*
X142211473Y-96557401D01*
X142155389Y-96730009D01*
X142127000Y-96909253D01*
X142127000Y-97090746D01*
X142155389Y-97269990D01*
X142211473Y-97442598D01*
X142293732Y-97604042D01*
X142293866Y-97604304D01*
X142400541Y-97751129D01*
X142528871Y-97879459D01*
X142675696Y-97986134D01*
X142837402Y-98068527D01*
X142867619Y-98078345D01*
X142917119Y-98114309D01*
X142936026Y-98172500D01*
X142917119Y-98230691D01*
X142867619Y-98266655D01*
X142837026Y-98271500D01*
X28254500Y-98271500D01*
X28196309Y-98252593D01*
X28160345Y-98203093D01*
X28155500Y-98172500D01*
X28155500Y-96416532D01*
X29049500Y-96416532D01*
X29049500Y-96623467D01*
X29089869Y-96826418D01*
X29169058Y-97017597D01*
X29284020Y-97189651D01*
X29284023Y-97189655D01*
X29430345Y-97335977D01*
X29602402Y-97450941D01*
X29793580Y-97530130D01*
X29996535Y-97570500D01*
X29996536Y-97570500D01*
X30203464Y-97570500D01*
X30203465Y-97570500D01*
X30406420Y-97530130D01*
X30597598Y-97450941D01*
X30769655Y-97335977D01*
X30915977Y-97189655D01*
X31030941Y-97017598D01*
X31110130Y-96826420D01*
X31150500Y-96623465D01*
X31150500Y-96416535D01*
X31150499Y-96416532D01*
X39209500Y-96416532D01*
X39209500Y-96623467D01*
X39249869Y-96826418D01*
X39329058Y-97017597D01*
X39444020Y-97189651D01*
X39444023Y-97189655D01*
X39590345Y-97335977D01*
X39762402Y-97450941D01*
X39953580Y-97530130D01*
X40156535Y-97570500D01*
X40156536Y-97570500D01*
X40363464Y-97570500D01*
X40363465Y-97570500D01*
X40566420Y-97530130D01*
X40757598Y-97450941D01*
X40929655Y-97335977D01*
X41075977Y-97189655D01*
X41190941Y-97017598D01*
X41270130Y-96826420D01*
X41310500Y-96623465D01*
X41310500Y-96416535D01*
X41310499Y-96416532D01*
X74049500Y-96416532D01*
X74049500Y-96623467D01*
X74089869Y-96826418D01*
X74169058Y-97017597D01*
X74284020Y-97189651D01*
X74284023Y-97189655D01*
X74430345Y-97335977D01*
X74602402Y-97450941D01*
X74793580Y-97530130D01*
X74996535Y-97570500D01*
X74996536Y-97570500D01*
X75203464Y-97570500D01*
X75203465Y-97570500D01*
X75406420Y-97530130D01*
X75597598Y-97450941D01*
X75769655Y-97335977D01*
X75915977Y-97189655D01*
X76030941Y-97017598D01*
X76110130Y-96826420D01*
X76150500Y-96623465D01*
X76150500Y-96416535D01*
X76150499Y-96416532D01*
X84209500Y-96416532D01*
X84209500Y-96623467D01*
X84249869Y-96826418D01*
X84329058Y-97017597D01*
X84444020Y-97189651D01*
X84444023Y-97189655D01*
X84590345Y-97335977D01*
X84762402Y-97450941D01*
X84953580Y-97530130D01*
X85156535Y-97570500D01*
X85156536Y-97570500D01*
X85363464Y-97570500D01*
X85363465Y-97570500D01*
X85566420Y-97530130D01*
X85757598Y-97450941D01*
X85929655Y-97335977D01*
X86075977Y-97189655D01*
X86190941Y-97017598D01*
X86270130Y-96826420D01*
X86310500Y-96623465D01*
X86310500Y-96416535D01*
X86310499Y-96416532D01*
X119049500Y-96416532D01*
X119049500Y-96623467D01*
X119089869Y-96826418D01*
X119169058Y-97017597D01*
X119284020Y-97189651D01*
X119284023Y-97189655D01*
X119430345Y-97335977D01*
X119602402Y-97450941D01*
X119793580Y-97530130D01*
X119996535Y-97570500D01*
X119996536Y-97570500D01*
X120203464Y-97570500D01*
X120203465Y-97570500D01*
X120406420Y-97530130D01*
X120597598Y-97450941D01*
X120769655Y-97335977D01*
X120915977Y-97189655D01*
X121030941Y-97017598D01*
X121110130Y-96826420D01*
X121150500Y-96623465D01*
X121150500Y-96416535D01*
X121110130Y-96213580D01*
X121030941Y-96022402D01*
X120915977Y-95850345D01*
X120769655Y-95704023D01*
X120757241Y-95695728D01*
X120597597Y-95589058D01*
X120406418Y-95509869D01*
X120203467Y-95469500D01*
X120203465Y-95469500D01*
X119996535Y-95469500D01*
X119996532Y-95469500D01*
X119793581Y-95509869D01*
X119602402Y-95589058D01*
X119430348Y-95704020D01*
X119284020Y-95850348D01*
X119169058Y-96022402D01*
X119089869Y-96213581D01*
X119049500Y-96416532D01*
X86310499Y-96416532D01*
X86270130Y-96213580D01*
X86190941Y-96022402D01*
X86075977Y-95850345D01*
X85929655Y-95704023D01*
X85917241Y-95695728D01*
X85757597Y-95589058D01*
X85566418Y-95509869D01*
X85363467Y-95469500D01*
X85363465Y-95469500D01*
X85156535Y-95469500D01*
X85156532Y-95469500D01*
X84953581Y-95509869D01*
X84762402Y-95589058D01*
X84590348Y-95704020D01*
X84444020Y-95850348D01*
X84329058Y-96022402D01*
X84249869Y-96213581D01*
X84209500Y-96416532D01*
X76150499Y-96416532D01*
X76110130Y-96213580D01*
X76030941Y-96022402D01*
X75915977Y-95850345D01*
X75769655Y-95704023D01*
X75757241Y-95695728D01*
X75597597Y-95589058D01*
X75406418Y-95509869D01*
X75203467Y-95469500D01*
X75203465Y-95469500D01*
X74996535Y-95469500D01*
X74996532Y-95469500D01*
X74793581Y-95509869D01*
X74602402Y-95589058D01*
X74430348Y-95704020D01*
X74284020Y-95850348D01*
X74169058Y-96022402D01*
X74089869Y-96213581D01*
X74049500Y-96416532D01*
X41310499Y-96416532D01*
X41270130Y-96213580D01*
X41190941Y-96022402D01*
X41075977Y-95850345D01*
X40929655Y-95704023D01*
X40917241Y-95695728D01*
X40757597Y-95589058D01*
X40566418Y-95509869D01*
X40363467Y-95469500D01*
X40363465Y-95469500D01*
X40156535Y-95469500D01*
X40156532Y-95469500D01*
X39953581Y-95509869D01*
X39762402Y-95589058D01*
X39590348Y-95704020D01*
X39444020Y-95850348D01*
X39329058Y-96022402D01*
X39249869Y-96213581D01*
X39209500Y-96416532D01*
X31150499Y-96416532D01*
X31110130Y-96213580D01*
X31030941Y-96022402D01*
X30915977Y-95850345D01*
X30769655Y-95704023D01*
X30757241Y-95695728D01*
X30597597Y-95589058D01*
X30406418Y-95509869D01*
X30203467Y-95469500D01*
X30203465Y-95469500D01*
X29996535Y-95469500D01*
X29996532Y-95469500D01*
X29793581Y-95509869D01*
X29602402Y-95589058D01*
X29430348Y-95704020D01*
X29284020Y-95850348D01*
X29169058Y-96022402D01*
X29089869Y-96213581D01*
X29049500Y-96416532D01*
X28155500Y-96416532D01*
X28155500Y-91336581D01*
X29050000Y-91336581D01*
X29050000Y-91543418D01*
X29090349Y-91746272D01*
X29169501Y-91937360D01*
X29169505Y-91937369D01*
X29201377Y-91985067D01*
X29617036Y-91569407D01*
X29634075Y-91632993D01*
X29699901Y-91747007D01*
X29792993Y-91840099D01*
X29907007Y-91905925D01*
X29970590Y-91922962D01*
X29554931Y-92338621D01*
X29602639Y-92370498D01*
X29793727Y-92449650D01*
X29996581Y-92489999D01*
X29996586Y-92490000D01*
X30203414Y-92490000D01*
X30203418Y-92489999D01*
X30406272Y-92449650D01*
X30597359Y-92370499D01*
X30645068Y-92338621D01*
X30229409Y-91922962D01*
X30292993Y-91905925D01*
X30407007Y-91840099D01*
X30500099Y-91747007D01*
X30565925Y-91632993D01*
X30582962Y-91569409D01*
X30998621Y-91985068D01*
X31030499Y-91937359D01*
X31109650Y-91746272D01*
X31149999Y-91543418D01*
X31150000Y-91543413D01*
X31150000Y-91336586D01*
X31149999Y-91336581D01*
X31109650Y-91133727D01*
X31030498Y-90942639D01*
X30998621Y-90894931D01*
X30582962Y-91310590D01*
X30565925Y-91247007D01*
X30500099Y-91132993D01*
X30407007Y-91039901D01*
X30292993Y-90974075D01*
X30229407Y-90957036D01*
X30645067Y-90541377D01*
X30597369Y-90509505D01*
X30597360Y-90509501D01*
X30406272Y-90430349D01*
X30203418Y-90390000D01*
X29996581Y-90390000D01*
X29793727Y-90430349D01*
X29602638Y-90509501D01*
X29554931Y-90541377D01*
X29970591Y-90957037D01*
X29907007Y-90974075D01*
X29792993Y-91039901D01*
X29699901Y-91132993D01*
X29634075Y-91247007D01*
X29617037Y-91310591D01*
X29201377Y-90894931D01*
X29169501Y-90942638D01*
X29090349Y-91133727D01*
X29050000Y-91336581D01*
X28155500Y-91336581D01*
X28155500Y-87371500D01*
X28174407Y-87313309D01*
X28223907Y-87277345D01*
X28254500Y-87272500D01*
X145507001Y-87272500D01*
X145565192Y-87291407D01*
G37*
%TD.AperFunction*%
%TA.AperFunction,Conductor*%
G36*
X150158691Y-89619407D02*
G01*
X150194655Y-89668907D01*
X150199500Y-89699500D01*
X150199500Y-96033313D01*
X150180593Y-96091504D01*
X150158694Y-96113403D01*
X150148876Y-96120536D01*
X150020540Y-96248872D01*
X149913864Y-96395698D01*
X149831473Y-96557401D01*
X149775389Y-96730009D01*
X149747000Y-96909253D01*
X149747000Y-97090746D01*
X149775389Y-97269990D01*
X149831473Y-97442598D01*
X149913732Y-97604042D01*
X149913866Y-97604304D01*
X150020541Y-97751129D01*
X150148871Y-97879459D01*
X150295696Y-97986134D01*
X150457402Y-98068527D01*
X150487619Y-98078345D01*
X150537119Y-98114309D01*
X150556026Y-98172500D01*
X150537119Y-98230691D01*
X150487619Y-98266655D01*
X150457026Y-98271500D01*
X148801358Y-98271500D01*
X148743167Y-98252593D01*
X148707203Y-98203093D01*
X148707203Y-98141907D01*
X148743167Y-98092407D01*
X148770765Y-98078345D01*
X148802407Y-98068063D01*
X148964035Y-97985710D01*
X148964043Y-97985705D01*
X148980323Y-97973877D01*
X148596007Y-97589561D01*
X148660785Y-97562729D01*
X148764789Y-97493236D01*
X148853236Y-97404789D01*
X148922729Y-97300785D01*
X148949561Y-97236007D01*
X149333877Y-97620323D01*
X149345705Y-97604043D01*
X149345710Y-97604035D01*
X149428063Y-97442407D01*
X149484123Y-97269873D01*
X149512500Y-97090707D01*
X149512500Y-96909292D01*
X149484123Y-96730126D01*
X149428063Y-96557592D01*
X149345708Y-96395960D01*
X149333877Y-96379675D01*
X148949560Y-96763991D01*
X148922729Y-96699215D01*
X148853236Y-96595211D01*
X148764789Y-96506764D01*
X148660785Y-96437271D01*
X148596005Y-96410438D01*
X148980323Y-96026121D01*
X148964042Y-96014293D01*
X148802407Y-95931936D01*
X148629873Y-95875876D01*
X148450707Y-95847500D01*
X148269293Y-95847500D01*
X148090126Y-95875876D01*
X147917592Y-95931936D01*
X147755953Y-96014295D01*
X147739675Y-96026121D01*
X148123992Y-96410438D01*
X148059215Y-96437271D01*
X147955211Y-96506764D01*
X147866764Y-96595211D01*
X147797271Y-96699215D01*
X147770438Y-96763992D01*
X147386121Y-96379675D01*
X147374295Y-96395953D01*
X147291936Y-96557592D01*
X147235876Y-96730126D01*
X147207500Y-96909292D01*
X147207500Y-97090707D01*
X147235876Y-97269873D01*
X147291936Y-97442407D01*
X147374293Y-97604042D01*
X147386121Y-97620323D01*
X147770438Y-97236005D01*
X147797271Y-97300785D01*
X147866764Y-97404789D01*
X147955211Y-97493236D01*
X148059215Y-97562729D01*
X148123991Y-97589560D01*
X147739675Y-97973877D01*
X147755960Y-97985708D01*
X147917592Y-98068063D01*
X147949235Y-98078345D01*
X147998735Y-98114309D01*
X148017642Y-98172500D01*
X147998735Y-98230691D01*
X147949235Y-98266655D01*
X147918642Y-98271500D01*
X146262974Y-98271500D01*
X146204783Y-98252593D01*
X146168819Y-98203093D01*
X146168819Y-98141907D01*
X146204783Y-98092407D01*
X146232381Y-98078345D01*
X146262598Y-98068527D01*
X146424304Y-97986134D01*
X146571129Y-97879459D01*
X146699459Y-97751129D01*
X146806134Y-97604304D01*
X146888527Y-97442598D01*
X146944609Y-97269995D01*
X146944610Y-97269990D01*
X146973000Y-97090746D01*
X146973000Y-96909253D01*
X146944610Y-96730009D01*
X146938260Y-96710465D01*
X146888527Y-96557402D01*
X146806134Y-96395696D01*
X146699459Y-96248871D01*
X146571129Y-96120541D01*
X146424304Y-96013866D01*
X146424303Y-96013865D01*
X146424301Y-96013864D01*
X146262594Y-95931471D01*
X146262591Y-95931469D01*
X146213907Y-95915651D01*
X146164407Y-95879687D01*
X146145500Y-95821497D01*
X146145500Y-90543921D01*
X146164407Y-90485730D01*
X146174490Y-90473923D01*
X146221900Y-90426514D01*
X146232985Y-90407314D01*
X146287790Y-90312390D01*
X146287790Y-90312388D01*
X146287792Y-90312386D01*
X146321900Y-90185092D01*
X146321900Y-90053308D01*
X146287792Y-89926014D01*
X146287790Y-89926011D01*
X146287790Y-89926009D01*
X146221903Y-89811890D01*
X146221901Y-89811888D01*
X146221900Y-89811886D01*
X146179515Y-89769501D01*
X146151740Y-89714987D01*
X146161311Y-89654555D01*
X146204576Y-89611290D01*
X146249521Y-89600500D01*
X150100500Y-89600500D01*
X150158691Y-89619407D01*
G37*
%TD.AperFunction*%
%TA.AperFunction,Conductor*%
G36*
X267113691Y-87291407D02*
G01*
X267149655Y-87340907D01*
X267154500Y-87371500D01*
X267154500Y-98172500D01*
X267135593Y-98230691D01*
X267086093Y-98266655D01*
X267055500Y-98271500D01*
X151342974Y-98271500D01*
X151284783Y-98252593D01*
X151248819Y-98203093D01*
X151248819Y-98141907D01*
X151284783Y-98092407D01*
X151312381Y-98078345D01*
X151342598Y-98068527D01*
X151504304Y-97986134D01*
X151651129Y-97879459D01*
X151779459Y-97751129D01*
X151786595Y-97741306D01*
X151836096Y-97705344D01*
X151866686Y-97700500D01*
X155380623Y-97700500D01*
X155438814Y-97719407D01*
X155439411Y-97719845D01*
X155467116Y-97740292D01*
X155467117Y-97740292D01*
X155467118Y-97740293D01*
X155595301Y-97785146D01*
X155625725Y-97787999D01*
X155625727Y-97788000D01*
X155625734Y-97788000D01*
X156684273Y-97788000D01*
X156684273Y-97787999D01*
X156714699Y-97785146D01*
X156842882Y-97740293D01*
X156952150Y-97659650D01*
X157032793Y-97550382D01*
X157077646Y-97422199D01*
X157080499Y-97391773D01*
X157080500Y-97391773D01*
X157080500Y-96608227D01*
X157080499Y-96608225D01*
X157077646Y-96577801D01*
X157032793Y-96449618D01*
X156992998Y-96395698D01*
X156952154Y-96340355D01*
X156952152Y-96340353D01*
X156952150Y-96340350D01*
X156952146Y-96340347D01*
X156952144Y-96340345D01*
X156842883Y-96259707D01*
X156714703Y-96214855D01*
X156714694Y-96214853D01*
X156684274Y-96212000D01*
X156684266Y-96212000D01*
X155625734Y-96212000D01*
X155625725Y-96212000D01*
X155595305Y-96214853D01*
X155595296Y-96214855D01*
X155467116Y-96259707D01*
X155439411Y-96280155D01*
X155381363Y-96299497D01*
X155380623Y-96299500D01*
X151866686Y-96299500D01*
X151808495Y-96280593D01*
X151786595Y-96258693D01*
X151779459Y-96248871D01*
X151651129Y-96120541D01*
X151651125Y-96120538D01*
X151651123Y-96120536D01*
X151641306Y-96113403D01*
X151605344Y-96063901D01*
X151600500Y-96033313D01*
X151600500Y-95175001D01*
X155230001Y-95175001D01*
X155230001Y-95316703D01*
X155232850Y-95347100D01*
X155232850Y-95347102D01*
X155277654Y-95475147D01*
X155358207Y-95584290D01*
X155358209Y-95584292D01*
X155467352Y-95664845D01*
X155595398Y-95709649D01*
X155625789Y-95712499D01*
X155904998Y-95712499D01*
X155905000Y-95712498D01*
X155905000Y-95175001D01*
X156405000Y-95175001D01*
X156405000Y-95712498D01*
X156405001Y-95712499D01*
X156684203Y-95712499D01*
X156714600Y-95709649D01*
X156714602Y-95709649D01*
X156842647Y-95664845D01*
X156951790Y-95584292D01*
X156951792Y-95584290D01*
X157032345Y-95475147D01*
X157077149Y-95347101D01*
X157079999Y-95316711D01*
X157080000Y-95316710D01*
X157080000Y-95175001D01*
X157079999Y-95175000D01*
X156405001Y-95175000D01*
X156405000Y-95175001D01*
X155905000Y-95175001D01*
X155904999Y-95175000D01*
X155230002Y-95175000D01*
X155230001Y-95175001D01*
X151600500Y-95175001D01*
X151600500Y-94533288D01*
X155230000Y-94533288D01*
X155230000Y-94674999D01*
X155230001Y-94675000D01*
X155904999Y-94675000D01*
X155905000Y-94674999D01*
X155905000Y-94137501D01*
X156405000Y-94137501D01*
X156405000Y-94674999D01*
X156405001Y-94675000D01*
X157079998Y-94675000D01*
X157079999Y-94674999D01*
X157079999Y-94533296D01*
X157077149Y-94502899D01*
X157077149Y-94502897D01*
X157032345Y-94374852D01*
X156951792Y-94265709D01*
X156951790Y-94265707D01*
X156842647Y-94185154D01*
X156714601Y-94140350D01*
X156684211Y-94137500D01*
X156405001Y-94137500D01*
X156405000Y-94137501D01*
X155905000Y-94137501D01*
X155904999Y-94137500D01*
X155625796Y-94137500D01*
X155595399Y-94140350D01*
X155595397Y-94140350D01*
X155467352Y-94185154D01*
X155358209Y-94265707D01*
X155358207Y-94265709D01*
X155277654Y-94374852D01*
X155232850Y-94502898D01*
X155230000Y-94533288D01*
X151600500Y-94533288D01*
X151600500Y-89699500D01*
X151619407Y-89641309D01*
X151668907Y-89605345D01*
X151699500Y-89600500D01*
X163950500Y-89600500D01*
X164008691Y-89619407D01*
X164044655Y-89668907D01*
X164049500Y-89699500D01*
X164049500Y-89745500D01*
X164030593Y-89803691D01*
X163981093Y-89839655D01*
X163950500Y-89844500D01*
X162856853Y-89844500D01*
X162771147Y-89844500D01*
X162698136Y-89864062D01*
X162688357Y-89866683D01*
X162658445Y-89883954D01*
X162651250Y-89888108D01*
X162627721Y-89901692D01*
X162614137Y-89909535D01*
X162553534Y-89970137D01*
X162553535Y-89970138D01*
X160968169Y-91555504D01*
X160913652Y-91583281D01*
X160898165Y-91584500D01*
X160843108Y-91584500D01*
X160765200Y-91605375D01*
X160715809Y-91618609D01*
X160601690Y-91684496D01*
X160508496Y-91777690D01*
X160442609Y-91891809D01*
X160442608Y-91891814D01*
X160408500Y-92019108D01*
X160408500Y-92150892D01*
X160424204Y-92209500D01*
X160442609Y-92278190D01*
X160508496Y-92392309D01*
X160508498Y-92392311D01*
X160508500Y-92392314D01*
X160601686Y-92485500D01*
X160601688Y-92485501D01*
X160601690Y-92485503D01*
X160715810Y-92551390D01*
X160715808Y-92551390D01*
X160715812Y-92551391D01*
X160715814Y-92551392D01*
X160843108Y-92585500D01*
X160843110Y-92585500D01*
X160974890Y-92585500D01*
X160974892Y-92585500D01*
X161102186Y-92551392D01*
X161102188Y-92551390D01*
X161102190Y-92551390D01*
X161216309Y-92485503D01*
X161216309Y-92485502D01*
X161216314Y-92485500D01*
X161309500Y-92392314D01*
X161309503Y-92392309D01*
X161375390Y-92278190D01*
X161375390Y-92278188D01*
X161375392Y-92278186D01*
X161409500Y-92150892D01*
X161409500Y-92075834D01*
X161428407Y-92017643D01*
X161438496Y-92005830D01*
X162919830Y-90524496D01*
X162974347Y-90496719D01*
X162989834Y-90495500D01*
X164468046Y-90495500D01*
X164526237Y-90514407D01*
X164538050Y-90524496D01*
X164970591Y-90957037D01*
X164907007Y-90974075D01*
X164792993Y-91039901D01*
X164699901Y-91132993D01*
X164634075Y-91247007D01*
X164617037Y-91310591D01*
X164201377Y-90894931D01*
X164169501Y-90942638D01*
X164090349Y-91133727D01*
X164050000Y-91336581D01*
X164050000Y-91543418D01*
X164090349Y-91746272D01*
X164169501Y-91937360D01*
X164169505Y-91937369D01*
X164201377Y-91985067D01*
X164617036Y-91569407D01*
X164634075Y-91632993D01*
X164699901Y-91747007D01*
X164792993Y-91840099D01*
X164907007Y-91905925D01*
X164970590Y-91922962D01*
X164538049Y-92355504D01*
X164483532Y-92383281D01*
X164468045Y-92384500D01*
X162771147Y-92384500D01*
X162688362Y-92406682D01*
X162614135Y-92449537D01*
X162246072Y-92817600D01*
X162191556Y-92845377D01*
X162150447Y-92843223D01*
X162117892Y-92834500D01*
X161986108Y-92834500D01*
X161908200Y-92855375D01*
X161858809Y-92868609D01*
X161744690Y-92934496D01*
X161651496Y-93027690D01*
X161585609Y-93141809D01*
X161579658Y-93164020D01*
X161551500Y-93269108D01*
X161551500Y-93400892D01*
X161570784Y-93472860D01*
X161585609Y-93528190D01*
X161651496Y-93642309D01*
X161651498Y-93642311D01*
X161651500Y-93642314D01*
X161744686Y-93735500D01*
X161744688Y-93735501D01*
X161744690Y-93735503D01*
X161858810Y-93801390D01*
X161858808Y-93801390D01*
X161858812Y-93801391D01*
X161858814Y-93801392D01*
X161912861Y-93815873D01*
X161964174Y-93849197D01*
X161986101Y-93906319D01*
X161970265Y-93965419D01*
X161922716Y-94003924D01*
X161912867Y-94007124D01*
X161882230Y-94015333D01*
X161858809Y-94021609D01*
X161744690Y-94087496D01*
X161651496Y-94180690D01*
X161585609Y-94294809D01*
X161574975Y-94334496D01*
X161551500Y-94422108D01*
X161551500Y-94553892D01*
X161565083Y-94604584D01*
X161585609Y-94681190D01*
X161651496Y-94795309D01*
X161651498Y-94795311D01*
X161651500Y-94795314D01*
X161744686Y-94888500D01*
X161744688Y-94888501D01*
X161744690Y-94888503D01*
X161858810Y-94954390D01*
X161858808Y-94954390D01*
X161858812Y-94954391D01*
X161858814Y-94954392D01*
X161986108Y-94988500D01*
X162051166Y-94988500D01*
X162109357Y-95007407D01*
X162121169Y-95017496D01*
X162553533Y-95449859D01*
X162553535Y-95449862D01*
X162614138Y-95510465D01*
X162651250Y-95531891D01*
X162658572Y-95536119D01*
X162658574Y-95536120D01*
X162680167Y-95548587D01*
X162688361Y-95553318D01*
X162771147Y-95575501D01*
X162771149Y-95575501D01*
X162862916Y-95575501D01*
X162862932Y-95575500D01*
X164319861Y-95575500D01*
X164378052Y-95594407D01*
X164414016Y-95643907D01*
X164414016Y-95705093D01*
X164389866Y-95744501D01*
X164336023Y-95798345D01*
X164284020Y-95850348D01*
X164169058Y-96022402D01*
X164089869Y-96213581D01*
X164049500Y-96416532D01*
X164049500Y-96623467D01*
X164089869Y-96826418D01*
X164169058Y-97017597D01*
X164284020Y-97189651D01*
X164284023Y-97189655D01*
X164430345Y-97335977D01*
X164602402Y-97450941D01*
X164793580Y-97530130D01*
X164996535Y-97570500D01*
X164996536Y-97570500D01*
X165203464Y-97570500D01*
X165203465Y-97570500D01*
X165406420Y-97530130D01*
X165597598Y-97450941D01*
X165769655Y-97335977D01*
X165915977Y-97189655D01*
X166030941Y-97017598D01*
X166110130Y-96826420D01*
X166150500Y-96623465D01*
X166150500Y-96416535D01*
X166110130Y-96213580D01*
X166030941Y-96022402D01*
X165915977Y-95850345D01*
X165810133Y-95744501D01*
X165782358Y-95689987D01*
X165791929Y-95629555D01*
X165835194Y-95586290D01*
X165880139Y-95575500D01*
X166962678Y-95575500D01*
X167020869Y-95594407D01*
X167032681Y-95604496D01*
X167078684Y-95650499D01*
X167078690Y-95650503D01*
X167192810Y-95716390D01*
X167192808Y-95716390D01*
X167192812Y-95716391D01*
X167192814Y-95716392D01*
X167320108Y-95750500D01*
X167320110Y-95750500D01*
X167451890Y-95750500D01*
X167451892Y-95750500D01*
X167579186Y-95716392D01*
X167579188Y-95716390D01*
X167579190Y-95716390D01*
X167693309Y-95650503D01*
X167693309Y-95650502D01*
X167693314Y-95650500D01*
X167786500Y-95557314D01*
X167788809Y-95553315D01*
X167852390Y-95443190D01*
X167852390Y-95443188D01*
X167852392Y-95443186D01*
X167886500Y-95315892D01*
X167886500Y-95184108D01*
X167852392Y-95056814D01*
X167852390Y-95056811D01*
X167852390Y-95056809D01*
X167786503Y-94942690D01*
X167786501Y-94942688D01*
X167786500Y-94942686D01*
X167693314Y-94849500D01*
X167693311Y-94849498D01*
X167693309Y-94849496D01*
X167579189Y-94783609D01*
X167579191Y-94783609D01*
X167529799Y-94770375D01*
X167451892Y-94749500D01*
X167320108Y-94749500D01*
X167242200Y-94770375D01*
X167192809Y-94783609D01*
X167078690Y-94849496D01*
X167078684Y-94849500D01*
X167032681Y-94895504D01*
X166978164Y-94923281D01*
X166962678Y-94924500D01*
X165880139Y-94924500D01*
X165821948Y-94905593D01*
X165785984Y-94856093D01*
X165785984Y-94794907D01*
X165810133Y-94755498D01*
X165915977Y-94649655D01*
X166030941Y-94477598D01*
X166064160Y-94397402D01*
X166076913Y-94366614D01*
X166116650Y-94320088D01*
X166168377Y-94305500D01*
X167464165Y-94305500D01*
X167522356Y-94324407D01*
X167534169Y-94334496D01*
X168555504Y-95355831D01*
X168583281Y-95410348D01*
X168584500Y-95425835D01*
X168584500Y-96721678D01*
X168565593Y-96779869D01*
X168555504Y-96791681D01*
X168509500Y-96837684D01*
X168509496Y-96837690D01*
X168443609Y-96951809D01*
X168443608Y-96951814D01*
X168409500Y-97079108D01*
X168409500Y-97210892D01*
X168433587Y-97300785D01*
X168443609Y-97338190D01*
X168509496Y-97452309D01*
X168509498Y-97452311D01*
X168509500Y-97452314D01*
X168602686Y-97545500D01*
X168602688Y-97545501D01*
X168602690Y-97545503D01*
X168716810Y-97611390D01*
X168716808Y-97611390D01*
X168716812Y-97611391D01*
X168716814Y-97611392D01*
X168844108Y-97645500D01*
X168844110Y-97645500D01*
X168975890Y-97645500D01*
X168975892Y-97645500D01*
X169103186Y-97611392D01*
X169103188Y-97611390D01*
X169103190Y-97611390D01*
X169217309Y-97545503D01*
X169217309Y-97545502D01*
X169217314Y-97545500D01*
X169310500Y-97452314D01*
X169345453Y-97391774D01*
X169376390Y-97338190D01*
X169376390Y-97338188D01*
X169376392Y-97338186D01*
X169410500Y-97210892D01*
X169410500Y-97079108D01*
X169376392Y-96951814D01*
X169376390Y-96951811D01*
X169376390Y-96951809D01*
X169310503Y-96837690D01*
X169310499Y-96837684D01*
X169264496Y-96791681D01*
X169236719Y-96737164D01*
X169235500Y-96721678D01*
X169235500Y-96416532D01*
X174209500Y-96416532D01*
X174209500Y-96623467D01*
X174249869Y-96826418D01*
X174329058Y-97017597D01*
X174444020Y-97189651D01*
X174444023Y-97189655D01*
X174590345Y-97335977D01*
X174762402Y-97450941D01*
X174953580Y-97530130D01*
X175156535Y-97570500D01*
X175156536Y-97570500D01*
X175363464Y-97570500D01*
X175363465Y-97570500D01*
X175566420Y-97530130D01*
X175757598Y-97450941D01*
X175929655Y-97335977D01*
X176075977Y-97189655D01*
X176190941Y-97017598D01*
X176270130Y-96826420D01*
X176310500Y-96623465D01*
X176310500Y-96416535D01*
X176270130Y-96213580D01*
X176190941Y-96022402D01*
X176075977Y-95850345D01*
X175929655Y-95704023D01*
X175917241Y-95695728D01*
X175757597Y-95589058D01*
X175566418Y-95509869D01*
X175363467Y-95469500D01*
X175363465Y-95469500D01*
X175156535Y-95469500D01*
X175156532Y-95469500D01*
X174953581Y-95509869D01*
X174762402Y-95589058D01*
X174590348Y-95704020D01*
X174444020Y-95850348D01*
X174329058Y-96022402D01*
X174249869Y-96213581D01*
X174209500Y-96416532D01*
X169235500Y-96416532D01*
X169235500Y-95207148D01*
X169235500Y-95207147D01*
X169229327Y-95184108D01*
X169213318Y-95124361D01*
X169213316Y-95124358D01*
X169213316Y-95124356D01*
X169170468Y-95050142D01*
X169170466Y-95050140D01*
X169170465Y-95050138D01*
X167996859Y-93876532D01*
X174209500Y-93876532D01*
X174209500Y-94083467D01*
X174249869Y-94286418D01*
X174329058Y-94477597D01*
X174413912Y-94604591D01*
X174444023Y-94649655D01*
X174590345Y-94795977D01*
X174762402Y-94910941D01*
X174953580Y-94990130D01*
X175156535Y-95030500D01*
X175156536Y-95030500D01*
X175363464Y-95030500D01*
X175363465Y-95030500D01*
X175566420Y-94990130D01*
X175757598Y-94910941D01*
X175929655Y-94795977D01*
X176075977Y-94649655D01*
X176190941Y-94477598D01*
X176270130Y-94286420D01*
X176310500Y-94083465D01*
X176310500Y-93876535D01*
X176270130Y-93673580D01*
X176190941Y-93482402D01*
X176075977Y-93310345D01*
X175929655Y-93164023D01*
X175919375Y-93157154D01*
X175757597Y-93049058D01*
X175566418Y-92969869D01*
X175363467Y-92929500D01*
X175363465Y-92929500D01*
X175156535Y-92929500D01*
X175156532Y-92929500D01*
X174953581Y-92969869D01*
X174762402Y-93049058D01*
X174590348Y-93164020D01*
X174444020Y-93310348D01*
X174329058Y-93482402D01*
X174249869Y-93673581D01*
X174209500Y-93876532D01*
X167996859Y-93876532D01*
X167839862Y-93719535D01*
X167839859Y-93719533D01*
X167839857Y-93719531D01*
X167765642Y-93676683D01*
X167765644Y-93676683D01*
X167733521Y-93668076D01*
X167682853Y-93654500D01*
X167682851Y-93654500D01*
X166168377Y-93654500D01*
X166110186Y-93635593D01*
X166076913Y-93593386D01*
X166030941Y-93482402D01*
X165915979Y-93310348D01*
X165915977Y-93310345D01*
X165810133Y-93204501D01*
X165782358Y-93149987D01*
X165791929Y-93089555D01*
X165835194Y-93046290D01*
X165880139Y-93035500D01*
X167216678Y-93035500D01*
X167274869Y-93054407D01*
X167286681Y-93064496D01*
X167332684Y-93110499D01*
X167332690Y-93110503D01*
X167446810Y-93176390D01*
X167446808Y-93176390D01*
X167446812Y-93176391D01*
X167446814Y-93176392D01*
X167574108Y-93210500D01*
X167574110Y-93210500D01*
X167705890Y-93210500D01*
X167705892Y-93210500D01*
X167833186Y-93176392D01*
X167833188Y-93176390D01*
X167833190Y-93176390D01*
X167947309Y-93110503D01*
X167947309Y-93110502D01*
X167947314Y-93110500D01*
X168040500Y-93017314D01*
X168067892Y-92969870D01*
X168106390Y-92903190D01*
X168106390Y-92903188D01*
X168106392Y-92903186D01*
X168140500Y-92775892D01*
X168140500Y-92644108D01*
X168106392Y-92516814D01*
X168106390Y-92516811D01*
X168106390Y-92516809D01*
X168040503Y-92402690D01*
X168040501Y-92402688D01*
X168040500Y-92402686D01*
X167947314Y-92309500D01*
X167947311Y-92309498D01*
X167947309Y-92309496D01*
X167833189Y-92243609D01*
X167833191Y-92243609D01*
X167783799Y-92230375D01*
X167705892Y-92209500D01*
X167574108Y-92209500D01*
X167496200Y-92230375D01*
X167446809Y-92243609D01*
X167332690Y-92309496D01*
X167332684Y-92309500D01*
X167286681Y-92355504D01*
X167232164Y-92383281D01*
X167216678Y-92384500D01*
X165731955Y-92384500D01*
X165673764Y-92365593D01*
X165661951Y-92355504D01*
X165229409Y-91922962D01*
X165292993Y-91905925D01*
X165407007Y-91840099D01*
X165500099Y-91747007D01*
X165565925Y-91632993D01*
X165582962Y-91569409D01*
X165998621Y-91985068D01*
X166030499Y-91937359D01*
X166109650Y-91746272D01*
X166149999Y-91543418D01*
X166150000Y-91543413D01*
X166150000Y-91336586D01*
X166149999Y-91336581D01*
X166109650Y-91133727D01*
X166030498Y-90942639D01*
X165998621Y-90894931D01*
X165582962Y-91310590D01*
X165565925Y-91247007D01*
X165500099Y-91132993D01*
X165407007Y-91039901D01*
X165292993Y-90974075D01*
X165229407Y-90957036D01*
X165661949Y-90524496D01*
X165716466Y-90496719D01*
X165731953Y-90495500D01*
X166702166Y-90495500D01*
X166760357Y-90514407D01*
X166772169Y-90524496D01*
X167110503Y-90862829D01*
X167138281Y-90917346D01*
X167139500Y-90932833D01*
X167139500Y-90997892D01*
X167169579Y-91110151D01*
X167173609Y-91125190D01*
X167239496Y-91239309D01*
X167239498Y-91239311D01*
X167239500Y-91239314D01*
X167332686Y-91332500D01*
X167332688Y-91332501D01*
X167332690Y-91332503D01*
X167446810Y-91398390D01*
X167446808Y-91398390D01*
X167446812Y-91398391D01*
X167446814Y-91398392D01*
X167574108Y-91432500D01*
X167574110Y-91432500D01*
X167705890Y-91432500D01*
X167705892Y-91432500D01*
X167833186Y-91398392D01*
X167833188Y-91398390D01*
X167833190Y-91398390D01*
X167947309Y-91332503D01*
X167947309Y-91332502D01*
X167947314Y-91332500D01*
X168040500Y-91239314D01*
X168081635Y-91168066D01*
X168106390Y-91125190D01*
X168106390Y-91125188D01*
X168106392Y-91125186D01*
X168140500Y-90997892D01*
X168140500Y-90866108D01*
X168106392Y-90738814D01*
X168106390Y-90738811D01*
X168106390Y-90738809D01*
X168040503Y-90624690D01*
X168040501Y-90624688D01*
X168040500Y-90624686D01*
X167947314Y-90531500D01*
X167947311Y-90531498D01*
X167947309Y-90531496D01*
X167833189Y-90465609D01*
X167833191Y-90465609D01*
X167783799Y-90452375D01*
X167705892Y-90431500D01*
X167705890Y-90431500D01*
X167640834Y-90431500D01*
X167582643Y-90412593D01*
X167570830Y-90402504D01*
X167353416Y-90185090D01*
X167077862Y-89909535D01*
X167077859Y-89909533D01*
X167077857Y-89909531D01*
X167003642Y-89866683D01*
X167003644Y-89866683D01*
X166971521Y-89858076D01*
X166920853Y-89844500D01*
X166920851Y-89844500D01*
X166249500Y-89844500D01*
X166191309Y-89825593D01*
X166155345Y-89776093D01*
X166150500Y-89745500D01*
X166150500Y-89699500D01*
X166169407Y-89641309D01*
X166218907Y-89605345D01*
X166249500Y-89600500D01*
X183505371Y-89600500D01*
X183563562Y-89619407D01*
X183596835Y-89661615D01*
X183629223Y-89739808D01*
X183699175Y-89844500D01*
X183705886Y-89854543D01*
X184628661Y-90777317D01*
X185469012Y-91617668D01*
X185496789Y-91672185D01*
X185497530Y-91695411D01*
X185497608Y-91695415D01*
X185497562Y-91696394D01*
X185497578Y-91696888D01*
X185497500Y-91697717D01*
X185497500Y-92706274D01*
X185500353Y-92736694D01*
X185500355Y-92736703D01*
X185545206Y-92864881D01*
X185547957Y-92868608D01*
X185578154Y-92909524D01*
X185597497Y-92967570D01*
X185597500Y-92968312D01*
X185597500Y-94423983D01*
X185578593Y-94482174D01*
X185548001Y-94509718D01*
X185486276Y-94545356D01*
X185440234Y-94571938D01*
X185397690Y-94604584D01*
X185304584Y-94697690D01*
X185271938Y-94740234D01*
X185206105Y-94854260D01*
X185193964Y-94883573D01*
X185185578Y-94903819D01*
X185151634Y-95030500D01*
X185151502Y-95030991D01*
X185144500Y-95084174D01*
X185144500Y-95650001D01*
X185149651Y-95695727D01*
X185159602Y-95716390D01*
X185177960Y-95754509D01*
X185186173Y-95815139D01*
X185166168Y-95859185D01*
X185164851Y-95860836D01*
X185164850Y-95860837D01*
X185148623Y-95931936D01*
X185144500Y-95950000D01*
X185144500Y-96515826D01*
X185151503Y-96569014D01*
X185185578Y-96696181D01*
X185186835Y-96699215D01*
X185206064Y-96745641D01*
X185206107Y-96745743D01*
X185259190Y-96837686D01*
X185271938Y-96859765D01*
X185304584Y-96902309D01*
X185304587Y-96902312D01*
X185304591Y-96902317D01*
X185397683Y-96995409D01*
X185397687Y-96995412D01*
X185397690Y-96995415D01*
X185440234Y-97028061D01*
X185440238Y-97028063D01*
X185440243Y-97028067D01*
X185554257Y-97093893D01*
X185603819Y-97114422D01*
X185730986Y-97148497D01*
X185784174Y-97155500D01*
X185784175Y-97155500D01*
X186415824Y-97155500D01*
X186415826Y-97155500D01*
X186469014Y-97148497D01*
X186596181Y-97114422D01*
X186645743Y-97093893D01*
X186759757Y-97028067D01*
X186802317Y-96995409D01*
X186895409Y-96902317D01*
X186928061Y-96859765D01*
X186928063Y-96859763D01*
X186928063Y-96859761D01*
X186928067Y-96859757D01*
X186948133Y-96825000D01*
X186993602Y-96784059D01*
X187033870Y-96775500D01*
X187666130Y-96775500D01*
X187724321Y-96794407D01*
X187751865Y-96824999D01*
X187759193Y-96837690D01*
X187771935Y-96859760D01*
X187771936Y-96859763D01*
X187804584Y-96902309D01*
X187804587Y-96902312D01*
X187804591Y-96902317D01*
X187897683Y-96995409D01*
X187897687Y-96995412D01*
X187897690Y-96995415D01*
X187940234Y-97028061D01*
X187940238Y-97028063D01*
X187940243Y-97028067D01*
X188054257Y-97093893D01*
X188103819Y-97114422D01*
X188230986Y-97148497D01*
X188284174Y-97155500D01*
X188284175Y-97155500D01*
X188915824Y-97155500D01*
X188915826Y-97155500D01*
X188969014Y-97148497D01*
X189096181Y-97114422D01*
X189145743Y-97093893D01*
X189259757Y-97028067D01*
X189302317Y-96995409D01*
X189395409Y-96902317D01*
X189428067Y-96859757D01*
X189480698Y-96768596D01*
X189516932Y-96732363D01*
X189554862Y-96710465D01*
X189848795Y-96416532D01*
X209049500Y-96416532D01*
X209049500Y-96623467D01*
X209089869Y-96826418D01*
X209169058Y-97017597D01*
X209284020Y-97189651D01*
X209284023Y-97189655D01*
X209430345Y-97335977D01*
X209602402Y-97450941D01*
X209793580Y-97530130D01*
X209996535Y-97570500D01*
X209996536Y-97570500D01*
X210203464Y-97570500D01*
X210203465Y-97570500D01*
X210406420Y-97530130D01*
X210597598Y-97450941D01*
X210769655Y-97335977D01*
X210915977Y-97189655D01*
X211030941Y-97017598D01*
X211110130Y-96826420D01*
X211150500Y-96623465D01*
X211150500Y-96416535D01*
X211150499Y-96416532D01*
X219209500Y-96416532D01*
X219209500Y-96623467D01*
X219249869Y-96826418D01*
X219329058Y-97017597D01*
X219444020Y-97189651D01*
X219444023Y-97189655D01*
X219590345Y-97335977D01*
X219762402Y-97450941D01*
X219953580Y-97530130D01*
X220156535Y-97570500D01*
X220156536Y-97570500D01*
X220363464Y-97570500D01*
X220363465Y-97570500D01*
X220566420Y-97530130D01*
X220757598Y-97450941D01*
X220929655Y-97335977D01*
X221075977Y-97189655D01*
X221190941Y-97017598D01*
X221270130Y-96826420D01*
X221310500Y-96623465D01*
X221310500Y-96416535D01*
X221310499Y-96416532D01*
X254049500Y-96416532D01*
X254049500Y-96623467D01*
X254089869Y-96826418D01*
X254169058Y-97017597D01*
X254284020Y-97189651D01*
X254284023Y-97189655D01*
X254430345Y-97335977D01*
X254602402Y-97450941D01*
X254793580Y-97530130D01*
X254996535Y-97570500D01*
X254996536Y-97570500D01*
X255203464Y-97570500D01*
X255203465Y-97570500D01*
X255406420Y-97530130D01*
X255597598Y-97450941D01*
X255769655Y-97335977D01*
X255915977Y-97189655D01*
X256030941Y-97017598D01*
X256110130Y-96826420D01*
X256150500Y-96623465D01*
X256150500Y-96416535D01*
X256150499Y-96416532D01*
X264209500Y-96416532D01*
X264209500Y-96623467D01*
X264249869Y-96826418D01*
X264329058Y-97017597D01*
X264444020Y-97189651D01*
X264444023Y-97189655D01*
X264590345Y-97335977D01*
X264762402Y-97450941D01*
X264953580Y-97530130D01*
X265156535Y-97570500D01*
X265156536Y-97570500D01*
X265363464Y-97570500D01*
X265363465Y-97570500D01*
X265566420Y-97530130D01*
X265757598Y-97450941D01*
X265929655Y-97335977D01*
X266075977Y-97189655D01*
X266190941Y-97017598D01*
X266270130Y-96826420D01*
X266310500Y-96623465D01*
X266310500Y-96416535D01*
X266270130Y-96213580D01*
X266190941Y-96022402D01*
X266075977Y-95850345D01*
X265929655Y-95704023D01*
X265917241Y-95695728D01*
X265757597Y-95589058D01*
X265566418Y-95509869D01*
X265363467Y-95469500D01*
X265363465Y-95469500D01*
X265156535Y-95469500D01*
X265156532Y-95469500D01*
X264953581Y-95509869D01*
X264762402Y-95589058D01*
X264590348Y-95704020D01*
X264444020Y-95850348D01*
X264329058Y-96022402D01*
X264249869Y-96213581D01*
X264209500Y-96416532D01*
X256150499Y-96416532D01*
X256110130Y-96213580D01*
X256030941Y-96022402D01*
X255915977Y-95850345D01*
X255769655Y-95704023D01*
X255757241Y-95695728D01*
X255597597Y-95589058D01*
X255406418Y-95509869D01*
X255203467Y-95469500D01*
X255203465Y-95469500D01*
X254996535Y-95469500D01*
X254996532Y-95469500D01*
X254793581Y-95509869D01*
X254602402Y-95589058D01*
X254430348Y-95704020D01*
X254284020Y-95850348D01*
X254169058Y-96022402D01*
X254089869Y-96213581D01*
X254049500Y-96416532D01*
X221310499Y-96416532D01*
X221270130Y-96213580D01*
X221190941Y-96022402D01*
X221075977Y-95850345D01*
X220929655Y-95704023D01*
X220917241Y-95695728D01*
X220757597Y-95589058D01*
X220566418Y-95509869D01*
X220363467Y-95469500D01*
X220363465Y-95469500D01*
X220156535Y-95469500D01*
X220156532Y-95469500D01*
X219953581Y-95509869D01*
X219762402Y-95589058D01*
X219590348Y-95704020D01*
X219444020Y-95850348D01*
X219329058Y-96022402D01*
X219249869Y-96213581D01*
X219209500Y-96416532D01*
X211150499Y-96416532D01*
X211110130Y-96213580D01*
X211030941Y-96022402D01*
X210915977Y-95850345D01*
X210769655Y-95704023D01*
X210757241Y-95695728D01*
X210597597Y-95589058D01*
X210406418Y-95509869D01*
X210203467Y-95469500D01*
X210203465Y-95469500D01*
X209996535Y-95469500D01*
X209996532Y-95469500D01*
X209793581Y-95509869D01*
X209602402Y-95589058D01*
X209430348Y-95704020D01*
X209284020Y-95850348D01*
X209169058Y-96022402D01*
X209089869Y-96213581D01*
X209049500Y-96416532D01*
X189848795Y-96416532D01*
X192388795Y-93876532D01*
X209049500Y-93876532D01*
X209049500Y-94083467D01*
X209089869Y-94286418D01*
X209169058Y-94477597D01*
X209253912Y-94604591D01*
X209284023Y-94649655D01*
X209430345Y-94795977D01*
X209602402Y-94910941D01*
X209793580Y-94990130D01*
X209996535Y-95030500D01*
X209996536Y-95030500D01*
X210203464Y-95030500D01*
X210203465Y-95030500D01*
X210406420Y-94990130D01*
X210597598Y-94910941D01*
X210769655Y-94795977D01*
X210915977Y-94649655D01*
X211030941Y-94477598D01*
X211110130Y-94286420D01*
X211150500Y-94083465D01*
X211150500Y-93876535D01*
X211150499Y-93876532D01*
X219209500Y-93876532D01*
X219209500Y-94083467D01*
X219249869Y-94286418D01*
X219329058Y-94477597D01*
X219413912Y-94604591D01*
X219444023Y-94649655D01*
X219590345Y-94795977D01*
X219762402Y-94910941D01*
X219953580Y-94990130D01*
X220156535Y-95030500D01*
X220156536Y-95030500D01*
X220363464Y-95030500D01*
X220363465Y-95030500D01*
X220566420Y-94990130D01*
X220757598Y-94910941D01*
X220929655Y-94795977D01*
X221075977Y-94649655D01*
X221190941Y-94477598D01*
X221270130Y-94286420D01*
X221310500Y-94083465D01*
X221310500Y-93876535D01*
X221270130Y-93673580D01*
X221190941Y-93482402D01*
X221075977Y-93310345D01*
X220929655Y-93164023D01*
X220919375Y-93157154D01*
X220757597Y-93049058D01*
X220566418Y-92969869D01*
X220363467Y-92929500D01*
X220363465Y-92929500D01*
X220156535Y-92929500D01*
X220156532Y-92929500D01*
X219953581Y-92969869D01*
X219762402Y-93049058D01*
X219590348Y-93164020D01*
X219444020Y-93310348D01*
X219329058Y-93482402D01*
X219249869Y-93673581D01*
X219209500Y-93876532D01*
X211150499Y-93876532D01*
X211110130Y-93673580D01*
X211030941Y-93482402D01*
X210915977Y-93310345D01*
X210769655Y-93164023D01*
X210759375Y-93157154D01*
X210597597Y-93049058D01*
X210406418Y-92969869D01*
X210203467Y-92929500D01*
X210203465Y-92929500D01*
X209996535Y-92929500D01*
X209996532Y-92929500D01*
X209793581Y-92969869D01*
X209602402Y-93049058D01*
X209430348Y-93164020D01*
X209284020Y-93310348D01*
X209169058Y-93482402D01*
X209089869Y-93673581D01*
X209049500Y-93876532D01*
X192388795Y-93876532D01*
X192792465Y-93472862D01*
X192799522Y-93460638D01*
X192835318Y-93398638D01*
X192857500Y-93315853D01*
X192857500Y-92588710D01*
X235829500Y-92588710D01*
X235829500Y-92831289D01*
X235839878Y-92910121D01*
X235858924Y-93054793D01*
X235861161Y-93071781D01*
X235861161Y-93071786D01*
X235923944Y-93306092D01*
X235923948Y-93306105D01*
X236016772Y-93530204D01*
X236016774Y-93530208D01*
X236016776Y-93530212D01*
X236126082Y-93719535D01*
X236138066Y-93740292D01*
X236285729Y-93932731D01*
X236285731Y-93932733D01*
X236285735Y-93932738D01*
X236457262Y-94104265D01*
X236457266Y-94104268D01*
X236457268Y-94104270D01*
X236500576Y-94137501D01*
X236649711Y-94251936D01*
X236859788Y-94373224D01*
X237083900Y-94466054D01*
X237318211Y-94528838D01*
X237558712Y-94560500D01*
X237558713Y-94560500D01*
X237801287Y-94560500D01*
X237801288Y-94560500D01*
X238041789Y-94528838D01*
X238276100Y-94466054D01*
X238500212Y-94373224D01*
X238710289Y-94251936D01*
X238902738Y-94104265D01*
X239074265Y-93932738D01*
X239117393Y-93876532D01*
X254049500Y-93876532D01*
X254049500Y-94083467D01*
X254089869Y-94286418D01*
X254169058Y-94477597D01*
X254253912Y-94604591D01*
X254284023Y-94649655D01*
X254430345Y-94795977D01*
X254602402Y-94910941D01*
X254793580Y-94990130D01*
X254996535Y-95030500D01*
X254996536Y-95030500D01*
X255203464Y-95030500D01*
X255203465Y-95030500D01*
X255406420Y-94990130D01*
X255597598Y-94910941D01*
X255769655Y-94795977D01*
X255915977Y-94649655D01*
X256030941Y-94477598D01*
X256110130Y-94286420D01*
X256150500Y-94083465D01*
X256150500Y-93876535D01*
X256150499Y-93876532D01*
X264209500Y-93876532D01*
X264209500Y-94083467D01*
X264249869Y-94286418D01*
X264329058Y-94477597D01*
X264413912Y-94604591D01*
X264444023Y-94649655D01*
X264590345Y-94795977D01*
X264762402Y-94910941D01*
X264953580Y-94990130D01*
X265156535Y-95030500D01*
X265156536Y-95030500D01*
X265363464Y-95030500D01*
X265363465Y-95030500D01*
X265566420Y-94990130D01*
X265757598Y-94910941D01*
X265929655Y-94795977D01*
X266075977Y-94649655D01*
X266190941Y-94477598D01*
X266270130Y-94286420D01*
X266310500Y-94083465D01*
X266310500Y-93876535D01*
X266270130Y-93673580D01*
X266190941Y-93482402D01*
X266075977Y-93310345D01*
X265929655Y-93164023D01*
X265919375Y-93157154D01*
X265757597Y-93049058D01*
X265566418Y-92969869D01*
X265363467Y-92929500D01*
X265363465Y-92929500D01*
X265156535Y-92929500D01*
X265156532Y-92929500D01*
X264953581Y-92969869D01*
X264762402Y-93049058D01*
X264590348Y-93164020D01*
X264444020Y-93310348D01*
X264329058Y-93482402D01*
X264249869Y-93673581D01*
X264209500Y-93876532D01*
X256150499Y-93876532D01*
X256110130Y-93673580D01*
X256030941Y-93482402D01*
X255915977Y-93310345D01*
X255769655Y-93164023D01*
X255759375Y-93157154D01*
X255597597Y-93049058D01*
X255406418Y-92969869D01*
X255203467Y-92929500D01*
X255203465Y-92929500D01*
X254996535Y-92929500D01*
X254996532Y-92929500D01*
X254793581Y-92969869D01*
X254602402Y-93049058D01*
X254430348Y-93164020D01*
X254284020Y-93310348D01*
X254169058Y-93482402D01*
X254089869Y-93673581D01*
X254049500Y-93876532D01*
X239117393Y-93876532D01*
X239161481Y-93819076D01*
X239167368Y-93811404D01*
X239185368Y-93787944D01*
X239221936Y-93740289D01*
X239343224Y-93530212D01*
X239436054Y-93306100D01*
X239498838Y-93071789D01*
X239530500Y-92831288D01*
X239530500Y-92588712D01*
X239498838Y-92348211D01*
X239436054Y-92113900D01*
X239343224Y-91889788D01*
X239221936Y-91679711D01*
X239212417Y-91667305D01*
X239074270Y-91487268D01*
X239074268Y-91487266D01*
X239074265Y-91487262D01*
X238923584Y-91336581D01*
X254050000Y-91336581D01*
X254050000Y-91543418D01*
X254090349Y-91746272D01*
X254169501Y-91937360D01*
X254169505Y-91937369D01*
X254201377Y-91985067D01*
X254617036Y-91569407D01*
X254634075Y-91632993D01*
X254699901Y-91747007D01*
X254792993Y-91840099D01*
X254907007Y-91905925D01*
X254970590Y-91922962D01*
X254554931Y-92338621D01*
X254602639Y-92370498D01*
X254793727Y-92449650D01*
X254996581Y-92489999D01*
X254996586Y-92490000D01*
X255203414Y-92490000D01*
X255203418Y-92489999D01*
X255406272Y-92449650D01*
X255597359Y-92370499D01*
X255645068Y-92338621D01*
X255229409Y-91922962D01*
X255292993Y-91905925D01*
X255407007Y-91840099D01*
X255500099Y-91747007D01*
X255565925Y-91632993D01*
X255582962Y-91569409D01*
X255998621Y-91985068D01*
X256030499Y-91937359D01*
X256109650Y-91746272D01*
X256149999Y-91543418D01*
X256150000Y-91543413D01*
X256150000Y-91336586D01*
X256149999Y-91336581D01*
X256109650Y-91133727D01*
X256030498Y-90942639D01*
X255998621Y-90894931D01*
X255582962Y-91310590D01*
X255565925Y-91247007D01*
X255500099Y-91132993D01*
X255407007Y-91039901D01*
X255292993Y-90974075D01*
X255229407Y-90957036D01*
X255645067Y-90541377D01*
X255597369Y-90509505D01*
X255597360Y-90509501D01*
X255406272Y-90430349D01*
X255203418Y-90390000D01*
X254996581Y-90390000D01*
X254793727Y-90430349D01*
X254602638Y-90509501D01*
X254554931Y-90541377D01*
X254970591Y-90957037D01*
X254907007Y-90974075D01*
X254792993Y-91039901D01*
X254699901Y-91132993D01*
X254634075Y-91247007D01*
X254617037Y-91310591D01*
X254201377Y-90894931D01*
X254169501Y-90942638D01*
X254090349Y-91133727D01*
X254050000Y-91336581D01*
X238923584Y-91336581D01*
X238902738Y-91315735D01*
X238902733Y-91315731D01*
X238902731Y-91315729D01*
X238710292Y-91168066D01*
X238710289Y-91168064D01*
X238500212Y-91046776D01*
X238500208Y-91046774D01*
X238500204Y-91046772D01*
X238276105Y-90953948D01*
X238276104Y-90953947D01*
X238276100Y-90953946D01*
X238041789Y-90891162D01*
X238041786Y-90891161D01*
X238041784Y-90891161D01*
X237801289Y-90859500D01*
X237801288Y-90859500D01*
X237558712Y-90859500D01*
X237558710Y-90859500D01*
X237318218Y-90891161D01*
X237318213Y-90891161D01*
X237083907Y-90953944D01*
X237083894Y-90953948D01*
X236859795Y-91046772D01*
X236649707Y-91168066D01*
X236457268Y-91315729D01*
X236285729Y-91487268D01*
X236138066Y-91679707D01*
X236016772Y-91889795D01*
X235923948Y-92113894D01*
X235923944Y-92113907D01*
X235861161Y-92348213D01*
X235861161Y-92348218D01*
X235829500Y-92588710D01*
X192857500Y-92588710D01*
X192857500Y-91336581D01*
X209050000Y-91336581D01*
X209050000Y-91543418D01*
X209090349Y-91746272D01*
X209169501Y-91937360D01*
X209169505Y-91937369D01*
X209201377Y-91985067D01*
X209617036Y-91569407D01*
X209634075Y-91632993D01*
X209699901Y-91747007D01*
X209792993Y-91840099D01*
X209907007Y-91905925D01*
X209970590Y-91922962D01*
X209554931Y-92338621D01*
X209602639Y-92370498D01*
X209793727Y-92449650D01*
X209996581Y-92489999D01*
X209996586Y-92490000D01*
X210203414Y-92490000D01*
X210203420Y-92489999D01*
X210211595Y-92488373D01*
X210211596Y-92488373D01*
X210406272Y-92449650D01*
X210597359Y-92370499D01*
X210645068Y-92338621D01*
X210229409Y-91922962D01*
X210292993Y-91905925D01*
X210407007Y-91840099D01*
X210500099Y-91747007D01*
X210565925Y-91632993D01*
X210582962Y-91569409D01*
X210998621Y-91985068D01*
X211030499Y-91937359D01*
X211109650Y-91746272D01*
X211149999Y-91543418D01*
X211150000Y-91543413D01*
X211150000Y-91336586D01*
X211149999Y-91336581D01*
X211109650Y-91133727D01*
X211030498Y-90942639D01*
X210998621Y-90894931D01*
X210582962Y-91310590D01*
X210565925Y-91247007D01*
X210500099Y-91132993D01*
X210407007Y-91039901D01*
X210292993Y-90974075D01*
X210229407Y-90957036D01*
X210645067Y-90541377D01*
X210597369Y-90509505D01*
X210597360Y-90509501D01*
X210406272Y-90430349D01*
X210203418Y-90390000D01*
X209996581Y-90390000D01*
X209793727Y-90430349D01*
X209602638Y-90509501D01*
X209554931Y-90541377D01*
X209970591Y-90957037D01*
X209907007Y-90974075D01*
X209792993Y-91039901D01*
X209699901Y-91132993D01*
X209634075Y-91247007D01*
X209617037Y-91310591D01*
X209201377Y-90894931D01*
X209169501Y-90942638D01*
X209090349Y-91133727D01*
X209050000Y-91336581D01*
X192857500Y-91336581D01*
X192857500Y-90847321D01*
X192876407Y-90789130D01*
X192886490Y-90777323D01*
X192932500Y-90731314D01*
X192998392Y-90617186D01*
X193032500Y-90489892D01*
X193032500Y-90358108D01*
X192998392Y-90230814D01*
X192998390Y-90230811D01*
X192998390Y-90230809D01*
X192932503Y-90116690D01*
X192932501Y-90116688D01*
X192932500Y-90116686D01*
X192839314Y-90023500D01*
X192839311Y-90023498D01*
X192839309Y-90023496D01*
X192725189Y-89957609D01*
X192725191Y-89957609D01*
X192675799Y-89944375D01*
X192597892Y-89923500D01*
X192466108Y-89923500D01*
X192388200Y-89944375D01*
X192338809Y-89957609D01*
X192224690Y-90023496D01*
X192131496Y-90116690D01*
X192065609Y-90230809D01*
X192065608Y-90230814D01*
X192031500Y-90358108D01*
X192031500Y-90489892D01*
X192045816Y-90543321D01*
X192065609Y-90617190D01*
X192131496Y-90731309D01*
X192131498Y-90731311D01*
X192131500Y-90731314D01*
X192177505Y-90777319D01*
X192205281Y-90831834D01*
X192206500Y-90847321D01*
X192206500Y-93097164D01*
X192187593Y-93155355D01*
X192177504Y-93167168D01*
X189579975Y-95764696D01*
X189525458Y-95792473D01*
X189465026Y-95782902D01*
X189448247Y-95772094D01*
X189439164Y-95764851D01*
X189439163Y-95764850D01*
X189350000Y-95744500D01*
X187850000Y-95744500D01*
X187849998Y-95744500D01*
X187804272Y-95749651D01*
X187721872Y-95789334D01*
X187664850Y-95860837D01*
X187644500Y-95950000D01*
X187644500Y-96025500D01*
X187625593Y-96083691D01*
X187576093Y-96119655D01*
X187545500Y-96124500D01*
X187154500Y-96124500D01*
X187096309Y-96105593D01*
X187060345Y-96056093D01*
X187055500Y-96025500D01*
X187055500Y-95950000D01*
X187050348Y-95904272D01*
X187022039Y-95845490D01*
X187013827Y-95784859D01*
X187033838Y-95740807D01*
X187033950Y-95740665D01*
X187035149Y-95739163D01*
X187055500Y-95650000D01*
X187055500Y-95084174D01*
X187048497Y-95030986D01*
X187014422Y-94903819D01*
X187006034Y-94883568D01*
X186998500Y-94845688D01*
X186998500Y-92968312D01*
X187017407Y-92910121D01*
X187017711Y-92909706D01*
X187050793Y-92864882D01*
X187095646Y-92736699D01*
X187098499Y-92706273D01*
X187098500Y-92706273D01*
X187098500Y-91697727D01*
X187098499Y-91697725D01*
X187497500Y-91697725D01*
X187497500Y-92706274D01*
X187500353Y-92736694D01*
X187500355Y-92736703D01*
X187545207Y-92864883D01*
X187625845Y-92974144D01*
X187625847Y-92974146D01*
X187625850Y-92974150D01*
X187625853Y-92974152D01*
X187625855Y-92974154D01*
X187735116Y-93054792D01*
X187735117Y-93054792D01*
X187735118Y-93054793D01*
X187863301Y-93099646D01*
X187893725Y-93102499D01*
X187893727Y-93102500D01*
X187893734Y-93102500D01*
X188702273Y-93102500D01*
X188702273Y-93102499D01*
X188732699Y-93099646D01*
X188860882Y-93054793D01*
X188970150Y-92974150D01*
X189050793Y-92864882D01*
X189095646Y-92736699D01*
X189098499Y-92706273D01*
X189098500Y-92706273D01*
X189098500Y-92626500D01*
X189117407Y-92568309D01*
X189166907Y-92532345D01*
X189197500Y-92527500D01*
X189526851Y-92527500D01*
X189526853Y-92527500D01*
X189609639Y-92505318D01*
X189609641Y-92505316D01*
X189609643Y-92505316D01*
X189683857Y-92462468D01*
X189683857Y-92462467D01*
X189683862Y-92462465D01*
X191192830Y-90953495D01*
X191247347Y-90925719D01*
X191262834Y-90924500D01*
X191327890Y-90924500D01*
X191327892Y-90924500D01*
X191455186Y-90890392D01*
X191455188Y-90890390D01*
X191455190Y-90890390D01*
X191569309Y-90824503D01*
X191569309Y-90824502D01*
X191569314Y-90824500D01*
X191662500Y-90731314D01*
X191728392Y-90617186D01*
X191762500Y-90489892D01*
X191762500Y-90358108D01*
X191728392Y-90230814D01*
X191728390Y-90230811D01*
X191728390Y-90230809D01*
X191662503Y-90116690D01*
X191662501Y-90116688D01*
X191662500Y-90116686D01*
X191569314Y-90023500D01*
X191569311Y-90023498D01*
X191569309Y-90023496D01*
X191455189Y-89957609D01*
X191455191Y-89957609D01*
X191405799Y-89944375D01*
X191327892Y-89923500D01*
X191196108Y-89923500D01*
X191118200Y-89944375D01*
X191068809Y-89957609D01*
X190954690Y-90023496D01*
X190861496Y-90116690D01*
X190795609Y-90230809D01*
X190761500Y-90358109D01*
X190761500Y-90423165D01*
X190742593Y-90481356D01*
X190732504Y-90493169D01*
X189378169Y-91847504D01*
X189323652Y-91875281D01*
X189308165Y-91876500D01*
X189197500Y-91876500D01*
X189139309Y-91857593D01*
X189103345Y-91808093D01*
X189098500Y-91777500D01*
X189098500Y-91697727D01*
X189098499Y-91697725D01*
X189098374Y-91696394D01*
X189095646Y-91667301D01*
X189050793Y-91539118D01*
X189017844Y-91494474D01*
X188970154Y-91429855D01*
X188970152Y-91429853D01*
X188970150Y-91429850D01*
X188970146Y-91429847D01*
X188970144Y-91429845D01*
X188860883Y-91349207D01*
X188732703Y-91304355D01*
X188732694Y-91304353D01*
X188702274Y-91301500D01*
X188702266Y-91301500D01*
X187893734Y-91301500D01*
X187893725Y-91301500D01*
X187863305Y-91304353D01*
X187863296Y-91304355D01*
X187735116Y-91349207D01*
X187625855Y-91429845D01*
X187625845Y-91429855D01*
X187545207Y-91539116D01*
X187500355Y-91667296D01*
X187500353Y-91667305D01*
X187497500Y-91697725D01*
X187098499Y-91697725D01*
X187098374Y-91696394D01*
X187095646Y-91667301D01*
X187050793Y-91539118D01*
X187026223Y-91505826D01*
X187017845Y-91494474D01*
X186999365Y-91448742D01*
X186998500Y-91442240D01*
X186998500Y-91387007D01*
X186976934Y-91278591D01*
X186971580Y-91251671D01*
X186941028Y-91177913D01*
X186936949Y-91168066D01*
X186918777Y-91124193D01*
X186918771Y-91124182D01*
X186842114Y-91009458D01*
X186744542Y-90911886D01*
X185602161Y-89769504D01*
X185574384Y-89714987D01*
X185583955Y-89654555D01*
X185627220Y-89611290D01*
X185672165Y-89600500D01*
X187031007Y-89600500D01*
X198913007Y-89600500D01*
X199441993Y-89600500D01*
X199829007Y-89600500D01*
X200945007Y-89600500D01*
X201570007Y-89600500D01*
X201707007Y-89600500D01*
X208950500Y-89600500D01*
X209008691Y-89619407D01*
X209044655Y-89668907D01*
X209049500Y-89699500D01*
X209049500Y-89769746D01*
X209049501Y-89769758D01*
X209061132Y-89828227D01*
X209061134Y-89828233D01*
X209101142Y-89888108D01*
X209105448Y-89894552D01*
X209171769Y-89938867D01*
X209216231Y-89947711D01*
X209230241Y-89950498D01*
X209230246Y-89950498D01*
X209230252Y-89950500D01*
X209230253Y-89950500D01*
X210969747Y-89950500D01*
X210969748Y-89950500D01*
X211028231Y-89938867D01*
X211094552Y-89894552D01*
X211138867Y-89828231D01*
X211150500Y-89769748D01*
X211150500Y-89699500D01*
X211169407Y-89641309D01*
X211218907Y-89605345D01*
X211249500Y-89600500D01*
X253950500Y-89600500D01*
X254008691Y-89619407D01*
X254044655Y-89668907D01*
X254049500Y-89699500D01*
X254049500Y-89769746D01*
X254049501Y-89769758D01*
X254061132Y-89828227D01*
X254061134Y-89828233D01*
X254101142Y-89888108D01*
X254105448Y-89894552D01*
X254171769Y-89938867D01*
X254216231Y-89947711D01*
X254230241Y-89950498D01*
X254230246Y-89950498D01*
X254230252Y-89950500D01*
X254230253Y-89950500D01*
X255969747Y-89950500D01*
X255969748Y-89950500D01*
X256028231Y-89938867D01*
X256094552Y-89894552D01*
X256138867Y-89828231D01*
X256150500Y-89769748D01*
X256150500Y-88030252D01*
X256138867Y-87971769D01*
X256094552Y-87905448D01*
X256094548Y-87905445D01*
X256028233Y-87861134D01*
X256028231Y-87861133D01*
X256028228Y-87861132D01*
X256028227Y-87861132D01*
X255969758Y-87849501D01*
X255969748Y-87849500D01*
X254230252Y-87849500D01*
X254230251Y-87849500D01*
X254230241Y-87849501D01*
X254171772Y-87861132D01*
X254171766Y-87861134D01*
X254105451Y-87905445D01*
X254105445Y-87905451D01*
X254061134Y-87971766D01*
X254061132Y-87971772D01*
X254049501Y-88030241D01*
X254049500Y-88030253D01*
X254049500Y-88100500D01*
X254030593Y-88158691D01*
X253981093Y-88194655D01*
X253950500Y-88199500D01*
X211249500Y-88199500D01*
X211191309Y-88180593D01*
X211155345Y-88131093D01*
X211150500Y-88100500D01*
X211150500Y-88030253D01*
X211150498Y-88030241D01*
X211143748Y-87996309D01*
X211138867Y-87971769D01*
X211094552Y-87905448D01*
X211094548Y-87905445D01*
X211028233Y-87861134D01*
X211028231Y-87861133D01*
X211028228Y-87861132D01*
X211028227Y-87861132D01*
X210969758Y-87849501D01*
X210969748Y-87849500D01*
X209230252Y-87849500D01*
X209230251Y-87849500D01*
X209230241Y-87849501D01*
X209171772Y-87861132D01*
X209171766Y-87861134D01*
X209105451Y-87905445D01*
X209105445Y-87905451D01*
X209061134Y-87971766D01*
X209061132Y-87971772D01*
X209049501Y-88030241D01*
X209049500Y-88030253D01*
X209049500Y-88100500D01*
X209030593Y-88158691D01*
X208981093Y-88194655D01*
X208950500Y-88199500D01*
X196084321Y-88199500D01*
X196026130Y-88180593D01*
X195990166Y-88131093D01*
X195990166Y-88069907D01*
X196014315Y-88030498D01*
X196107500Y-87937314D01*
X196173392Y-87823186D01*
X196207500Y-87695892D01*
X196207500Y-87564108D01*
X196173392Y-87436814D01*
X196173390Y-87436810D01*
X196164262Y-87420999D01*
X196151541Y-87361150D01*
X196176428Y-87305255D01*
X196229417Y-87274663D01*
X196249999Y-87272500D01*
X267055500Y-87272500D01*
X267113691Y-87291407D01*
G37*
%TD.AperFunction*%
%TA.AperFunction,Conductor*%
G36*
X138429356Y-90514407D02*
G01*
X138441169Y-90524496D01*
X139932504Y-92015831D01*
X139960281Y-92070348D01*
X139961500Y-92085835D01*
X139961500Y-92150892D01*
X139977204Y-92209500D01*
X139995609Y-92278191D01*
X140007136Y-92298156D01*
X140019856Y-92358004D01*
X139994969Y-92413899D01*
X139941980Y-92444491D01*
X139881130Y-92438094D01*
X139871898Y-92433390D01*
X139825641Y-92406683D01*
X139825640Y-92406682D01*
X139825639Y-92406682D01*
X139742853Y-92384500D01*
X120731955Y-92384500D01*
X120673764Y-92365593D01*
X120661951Y-92355504D01*
X120229409Y-91922962D01*
X120292993Y-91905925D01*
X120407007Y-91840099D01*
X120500099Y-91747007D01*
X120565925Y-91632993D01*
X120582962Y-91569409D01*
X120998621Y-91985068D01*
X121030499Y-91937359D01*
X121109650Y-91746272D01*
X121149999Y-91543418D01*
X121150000Y-91543413D01*
X121150000Y-91336586D01*
X121149999Y-91336581D01*
X121109650Y-91133727D01*
X121030498Y-90942639D01*
X120998621Y-90894931D01*
X120582962Y-91310590D01*
X120565925Y-91247007D01*
X120500099Y-91132993D01*
X120407007Y-91039901D01*
X120292993Y-90974075D01*
X120229407Y-90957036D01*
X120661949Y-90524496D01*
X120716466Y-90496719D01*
X120731953Y-90495500D01*
X138371165Y-90495500D01*
X138429356Y-90514407D01*
G37*
%TD.AperFunction*%
%TD*%
M02*
