%TF.GenerationSoftware,KiCad,Pcbnew,10.0.0-rc1.1-4-gef7340bffd*%
%TF.CreationDate,2026-02-13T00:31:55+01:00*%
%TF.ProjectId,chu_tof,6368755f-746f-4662-9e6b-696361645f70,rev?*%
%TF.SameCoordinates,Original*%
%TF.FileFunction,Legend,Bot*%
%TF.FilePolarity,Positive*%
%FSLAX46Y46*%
G04 Gerber Fmt 4.6, Leading zero omitted, Abs format (unit mm)*
G04 Created by KiCad (PCBNEW 10.0.0-rc1.1-4-gef7340bffd) date 2026-02-13 00:31:55*
%MOMM*%
%LPD*%
G01*
G04 APERTURE LIST*
%ADD10C,0.254000*%
%ADD11C,0.150000*%
%ADD12C,0.200000*%
%ADD13C,0.120000*%
G04 APERTURE END LIST*
D10*
X147513332Y-91320318D02*
X147513332Y-92227461D01*
X147513332Y-92227461D02*
X147573809Y-92408889D01*
X147573809Y-92408889D02*
X147694761Y-92529842D01*
X147694761Y-92529842D02*
X147876190Y-92590318D01*
X147876190Y-92590318D02*
X147997142Y-92590318D01*
X146243332Y-92590318D02*
X146969047Y-92590318D01*
X146606190Y-92590318D02*
X146606190Y-91320318D01*
X146606190Y-91320318D02*
X146727142Y-91501746D01*
X146727142Y-91501746D02*
X146848094Y-91622699D01*
X146848094Y-91622699D02*
X146969047Y-91683175D01*
D11*
X184165104Y-94228571D02*
X184165104Y-94704761D01*
X184450819Y-94133333D02*
X183450819Y-94466666D01*
X183450819Y-94466666D02*
X184450819Y-94799999D01*
X183450819Y-95323809D02*
X183450819Y-95419047D01*
X183450819Y-95419047D02*
X183498438Y-95514285D01*
X183498438Y-95514285D02*
X183546057Y-95561904D01*
X183546057Y-95561904D02*
X183641295Y-95609523D01*
X183641295Y-95609523D02*
X183831771Y-95657142D01*
X183831771Y-95657142D02*
X184069866Y-95657142D01*
X184069866Y-95657142D02*
X184260342Y-95609523D01*
X184260342Y-95609523D02*
X184355580Y-95561904D01*
X184355580Y-95561904D02*
X184403200Y-95514285D01*
X184403200Y-95514285D02*
X184450819Y-95419047D01*
X184450819Y-95419047D02*
X184450819Y-95323809D01*
X184450819Y-95323809D02*
X184403200Y-95228571D01*
X184403200Y-95228571D02*
X184355580Y-95180952D01*
X184355580Y-95180952D02*
X184260342Y-95133333D01*
X184260342Y-95133333D02*
X184069866Y-95085714D01*
X184069866Y-95085714D02*
X183831771Y-95085714D01*
X183831771Y-95085714D02*
X183641295Y-95133333D01*
X183641295Y-95133333D02*
X183546057Y-95180952D01*
X183546057Y-95180952D02*
X183498438Y-95228571D01*
X183498438Y-95228571D02*
X183450819Y-95323809D01*
X184546057Y-95847619D02*
X184546057Y-96609523D01*
X184450819Y-97371428D02*
X184450819Y-96800000D01*
X184450819Y-97085714D02*
X183450819Y-97085714D01*
X183450819Y-97085714D02*
X183593676Y-96990476D01*
X183593676Y-96990476D02*
X183688914Y-96895238D01*
X183688914Y-96895238D02*
X183736533Y-96800000D01*
X190769104Y-94228571D02*
X190769104Y-94704761D01*
X191054819Y-94133333D02*
X190054819Y-94466666D01*
X190054819Y-94466666D02*
X191054819Y-94799999D01*
X190054819Y-95323809D02*
X190054819Y-95419047D01*
X190054819Y-95419047D02*
X190102438Y-95514285D01*
X190102438Y-95514285D02*
X190150057Y-95561904D01*
X190150057Y-95561904D02*
X190245295Y-95609523D01*
X190245295Y-95609523D02*
X190435771Y-95657142D01*
X190435771Y-95657142D02*
X190673866Y-95657142D01*
X190673866Y-95657142D02*
X190864342Y-95609523D01*
X190864342Y-95609523D02*
X190959580Y-95561904D01*
X190959580Y-95561904D02*
X191007200Y-95514285D01*
X191007200Y-95514285D02*
X191054819Y-95419047D01*
X191054819Y-95419047D02*
X191054819Y-95323809D01*
X191054819Y-95323809D02*
X191007200Y-95228571D01*
X191007200Y-95228571D02*
X190959580Y-95180952D01*
X190959580Y-95180952D02*
X190864342Y-95133333D01*
X190864342Y-95133333D02*
X190673866Y-95085714D01*
X190673866Y-95085714D02*
X190435771Y-95085714D01*
X190435771Y-95085714D02*
X190245295Y-95133333D01*
X190245295Y-95133333D02*
X190150057Y-95180952D01*
X190150057Y-95180952D02*
X190102438Y-95228571D01*
X190102438Y-95228571D02*
X190054819Y-95323809D01*
X191150057Y-95847619D02*
X191150057Y-96609523D01*
X190054819Y-97038095D02*
X190054819Y-97133333D01*
X190054819Y-97133333D02*
X190102438Y-97228571D01*
X190102438Y-97228571D02*
X190150057Y-97276190D01*
X190150057Y-97276190D02*
X190245295Y-97323809D01*
X190245295Y-97323809D02*
X190435771Y-97371428D01*
X190435771Y-97371428D02*
X190673866Y-97371428D01*
X190673866Y-97371428D02*
X190864342Y-97323809D01*
X190864342Y-97323809D02*
X190959580Y-97276190D01*
X190959580Y-97276190D02*
X191007200Y-97228571D01*
X191007200Y-97228571D02*
X191054819Y-97133333D01*
X191054819Y-97133333D02*
X191054819Y-97038095D01*
X191054819Y-97038095D02*
X191007200Y-96942857D01*
X191007200Y-96942857D02*
X190959580Y-96895238D01*
X190959580Y-96895238D02*
X190864342Y-96847619D01*
X190864342Y-96847619D02*
X190673866Y-96800000D01*
X190673866Y-96800000D02*
X190435771Y-96800000D01*
X190435771Y-96800000D02*
X190245295Y-96847619D01*
X190245295Y-96847619D02*
X190150057Y-96895238D01*
X190150057Y-96895238D02*
X190102438Y-96942857D01*
X190102438Y-96942857D02*
X190054819Y-97038095D01*
X158194580Y-95795833D02*
X158242200Y-95748214D01*
X158242200Y-95748214D02*
X158289819Y-95605357D01*
X158289819Y-95605357D02*
X158289819Y-95510119D01*
X158289819Y-95510119D02*
X158242200Y-95367262D01*
X158242200Y-95367262D02*
X158146961Y-95272024D01*
X158146961Y-95272024D02*
X158051723Y-95224405D01*
X158051723Y-95224405D02*
X157861247Y-95176786D01*
X157861247Y-95176786D02*
X157718390Y-95176786D01*
X157718390Y-95176786D02*
X157527914Y-95224405D01*
X157527914Y-95224405D02*
X157432676Y-95272024D01*
X157432676Y-95272024D02*
X157337438Y-95367262D01*
X157337438Y-95367262D02*
X157289819Y-95510119D01*
X157289819Y-95510119D02*
X157289819Y-95605357D01*
X157289819Y-95605357D02*
X157337438Y-95748214D01*
X157337438Y-95748214D02*
X157385057Y-95795833D01*
X158289819Y-96748214D02*
X158289819Y-96176786D01*
X158289819Y-96462500D02*
X157289819Y-96462500D01*
X157289819Y-96462500D02*
X157432676Y-96367262D01*
X157432676Y-96367262D02*
X157527914Y-96272024D01*
X157527914Y-96272024D02*
X157575533Y-96176786D01*
X187464666Y-90946819D02*
X187797999Y-90470628D01*
X188036094Y-90946819D02*
X188036094Y-89946819D01*
X188036094Y-89946819D02*
X187655142Y-89946819D01*
X187655142Y-89946819D02*
X187559904Y-89994438D01*
X187559904Y-89994438D02*
X187512285Y-90042057D01*
X187512285Y-90042057D02*
X187464666Y-90137295D01*
X187464666Y-90137295D02*
X187464666Y-90280152D01*
X187464666Y-90280152D02*
X187512285Y-90375390D01*
X187512285Y-90375390D02*
X187559904Y-90423009D01*
X187559904Y-90423009D02*
X187655142Y-90470628D01*
X187655142Y-90470628D02*
X188036094Y-90470628D01*
X186512285Y-90946819D02*
X187083713Y-90946819D01*
X186797999Y-90946819D02*
X186797999Y-89946819D01*
X186797999Y-89946819D02*
X186893237Y-90089676D01*
X186893237Y-90089676D02*
X186988475Y-90184914D01*
X186988475Y-90184914D02*
X187083713Y-90232533D01*
%TO.C,J1*%
D12*
X152170000Y-95984000D02*
X152170000Y-88805000D01*
X152170000Y-88805000D02*
X142010000Y-88805000D01*
X142010000Y-88821200D02*
X142010000Y-96070000D01*
%TO.C,A0_1*%
D11*
X185100000Y-95100000D02*
X185100000Y-96500000D01*
X185800000Y-97200000D02*
X186400000Y-97200000D01*
X186400000Y-94400000D02*
X185800000Y-94400000D01*
X187100000Y-96500000D02*
X187100000Y-95100000D01*
X185100000Y-95100000D02*
G75*
G02*
X185800000Y-94400000I700000J0D01*
G01*
X185800000Y-97200000D02*
G75*
G02*
X185100000Y-96500000I-1J699999D01*
G01*
X186400000Y-94400000D02*
G75*
G02*
X187100000Y-95100000I0J-700000D01*
G01*
X187100000Y-96500000D02*
G75*
G02*
X186400000Y-97200000I-699999J-1D01*
G01*
%TO.C,A0_0*%
X187600000Y-95100000D02*
X187600000Y-96500000D01*
X188300000Y-97200000D02*
X188900000Y-97200000D01*
X188900000Y-94400000D02*
X188300000Y-94400000D01*
X189600000Y-96500000D02*
X189600000Y-95100000D01*
X187600000Y-95100000D02*
G75*
G02*
X188300000Y-94400000I699999J1D01*
G01*
X188300000Y-97200000D02*
G75*
G02*
X187600000Y-96500000I0J700000D01*
G01*
X188900000Y-94400000D02*
G75*
G02*
X189600000Y-95100000I1J-699999D01*
G01*
X189600000Y-96500000D02*
G75*
G02*
X188900000Y-97200000I-700000J0D01*
G01*
%TO.C,C1*%
X155420000Y-96223752D02*
X155420000Y-95701248D01*
X156890000Y-96223752D02*
X156890000Y-95701248D01*
%TO.C,R1*%
D13*
X187070936Y-91467000D02*
X187525064Y-91467000D01*
X187070936Y-92937000D02*
X187525064Y-92937000D01*
%TD*%
M02*
