%TF.GenerationSoftware,KiCad,Pcbnew,10.0.0-rc1.1-4-gef7340bffd*%
%TF.CreationDate,2026-02-13T00:31:55+01:00*%
%TF.ProjectId,chu_tof,6368755f-746f-4662-9e6b-696361645f70,rev?*%
%TF.SameCoordinates,Original*%
%TF.FileFunction,Legend,Top*%
%TF.FilePolarity,Positive*%
%FSLAX46Y46*%
G04 Gerber Fmt 4.6, Leading zero omitted, Abs format (unit mm)*
G04 Created by KiCad (PCBNEW 10.0.0-rc1.1-4-gef7340bffd) date 2026-02-13 00:31:55*
%MOMM*%
%LPD*%
G01*
G04 APERTURE LIST*
%ADD10C,0.200000*%
%ADD11C,0.254000*%
G04 APERTURE END LIST*
D10*
X92845863Y-95663171D02*
X92774435Y-95734600D01*
X92774435Y-95734600D02*
X92560149Y-95806028D01*
X92560149Y-95806028D02*
X92417292Y-95806028D01*
X92417292Y-95806028D02*
X92203006Y-95734600D01*
X92203006Y-95734600D02*
X92060149Y-95591742D01*
X92060149Y-95591742D02*
X91988720Y-95448885D01*
X91988720Y-95448885D02*
X91917292Y-95163171D01*
X91917292Y-95163171D02*
X91917292Y-94948885D01*
X91917292Y-94948885D02*
X91988720Y-94663171D01*
X91988720Y-94663171D02*
X92060149Y-94520314D01*
X92060149Y-94520314D02*
X92203006Y-94377457D01*
X92203006Y-94377457D02*
X92417292Y-94306028D01*
X92417292Y-94306028D02*
X92560149Y-94306028D01*
X92560149Y-94306028D02*
X92774435Y-94377457D01*
X92774435Y-94377457D02*
X92845863Y-94448885D01*
X93488720Y-95806028D02*
X93488720Y-94306028D01*
X94131578Y-95806028D02*
X94131578Y-95020314D01*
X94131578Y-95020314D02*
X94060149Y-94877457D01*
X94060149Y-94877457D02*
X93917292Y-94806028D01*
X93917292Y-94806028D02*
X93703006Y-94806028D01*
X93703006Y-94806028D02*
X93560149Y-94877457D01*
X93560149Y-94877457D02*
X93488720Y-94948885D01*
X95488721Y-94806028D02*
X95488721Y-95806028D01*
X94845863Y-94806028D02*
X94845863Y-95591742D01*
X94845863Y-95591742D02*
X94917292Y-95734600D01*
X94917292Y-95734600D02*
X95060149Y-95806028D01*
X95060149Y-95806028D02*
X95274435Y-95806028D01*
X95274435Y-95806028D02*
X95417292Y-95734600D01*
X95417292Y-95734600D02*
X95488721Y-95663171D01*
X96203006Y-95234600D02*
X97345864Y-95234600D01*
X97845864Y-94306028D02*
X98703007Y-94306028D01*
X98274435Y-95806028D02*
X98274435Y-94306028D01*
X99417292Y-95806028D02*
X99274435Y-95734600D01*
X99274435Y-95734600D02*
X99203006Y-95663171D01*
X99203006Y-95663171D02*
X99131578Y-95520314D01*
X99131578Y-95520314D02*
X99131578Y-95091742D01*
X99131578Y-95091742D02*
X99203006Y-94948885D01*
X99203006Y-94948885D02*
X99274435Y-94877457D01*
X99274435Y-94877457D02*
X99417292Y-94806028D01*
X99417292Y-94806028D02*
X99631578Y-94806028D01*
X99631578Y-94806028D02*
X99774435Y-94877457D01*
X99774435Y-94877457D02*
X99845864Y-94948885D01*
X99845864Y-94948885D02*
X99917292Y-95091742D01*
X99917292Y-95091742D02*
X99917292Y-95520314D01*
X99917292Y-95520314D02*
X99845864Y-95663171D01*
X99845864Y-95663171D02*
X99774435Y-95734600D01*
X99774435Y-95734600D02*
X99631578Y-95806028D01*
X99631578Y-95806028D02*
X99417292Y-95806028D01*
X101060149Y-95020314D02*
X100560149Y-95020314D01*
X100560149Y-95806028D02*
X100560149Y-94306028D01*
X100560149Y-94306028D02*
X101274435Y-94306028D01*
X103488720Y-95020314D02*
X103703006Y-95091742D01*
X103703006Y-95091742D02*
X103774435Y-95163171D01*
X103774435Y-95163171D02*
X103845863Y-95306028D01*
X103845863Y-95306028D02*
X103845863Y-95520314D01*
X103845863Y-95520314D02*
X103774435Y-95663171D01*
X103774435Y-95663171D02*
X103703006Y-95734600D01*
X103703006Y-95734600D02*
X103560149Y-95806028D01*
X103560149Y-95806028D02*
X102988720Y-95806028D01*
X102988720Y-95806028D02*
X102988720Y-94306028D01*
X102988720Y-94306028D02*
X103488720Y-94306028D01*
X103488720Y-94306028D02*
X103631578Y-94377457D01*
X103631578Y-94377457D02*
X103703006Y-94448885D01*
X103703006Y-94448885D02*
X103774435Y-94591742D01*
X103774435Y-94591742D02*
X103774435Y-94734600D01*
X103774435Y-94734600D02*
X103703006Y-94877457D01*
X103703006Y-94877457D02*
X103631578Y-94948885D01*
X103631578Y-94948885D02*
X103488720Y-95020314D01*
X103488720Y-95020314D02*
X102988720Y-95020314D01*
X104703006Y-95806028D02*
X104560149Y-95734600D01*
X104560149Y-95734600D02*
X104488720Y-95663171D01*
X104488720Y-95663171D02*
X104417292Y-95520314D01*
X104417292Y-95520314D02*
X104417292Y-95091742D01*
X104417292Y-95091742D02*
X104488720Y-94948885D01*
X104488720Y-94948885D02*
X104560149Y-94877457D01*
X104560149Y-94877457D02*
X104703006Y-94806028D01*
X104703006Y-94806028D02*
X104917292Y-94806028D01*
X104917292Y-94806028D02*
X105060149Y-94877457D01*
X105060149Y-94877457D02*
X105131578Y-94948885D01*
X105131578Y-94948885D02*
X105203006Y-95091742D01*
X105203006Y-95091742D02*
X105203006Y-95520314D01*
X105203006Y-95520314D02*
X105131578Y-95663171D01*
X105131578Y-95663171D02*
X105060149Y-95734600D01*
X105060149Y-95734600D02*
X104917292Y-95806028D01*
X104917292Y-95806028D02*
X104703006Y-95806028D01*
X106488721Y-95806028D02*
X106488721Y-95020314D01*
X106488721Y-95020314D02*
X106417292Y-94877457D01*
X106417292Y-94877457D02*
X106274435Y-94806028D01*
X106274435Y-94806028D02*
X105988721Y-94806028D01*
X105988721Y-94806028D02*
X105845863Y-94877457D01*
X106488721Y-95734600D02*
X106345863Y-95806028D01*
X106345863Y-95806028D02*
X105988721Y-95806028D01*
X105988721Y-95806028D02*
X105845863Y-95734600D01*
X105845863Y-95734600D02*
X105774435Y-95591742D01*
X105774435Y-95591742D02*
X105774435Y-95448885D01*
X105774435Y-95448885D02*
X105845863Y-95306028D01*
X105845863Y-95306028D02*
X105988721Y-95234600D01*
X105988721Y-95234600D02*
X106345863Y-95234600D01*
X106345863Y-95234600D02*
X106488721Y-95163171D01*
X107203006Y-95806028D02*
X107203006Y-94806028D01*
X107203006Y-95091742D02*
X107274435Y-94948885D01*
X107274435Y-94948885D02*
X107345864Y-94877457D01*
X107345864Y-94877457D02*
X107488721Y-94806028D01*
X107488721Y-94806028D02*
X107631578Y-94806028D01*
X108774435Y-95806028D02*
X108774435Y-94306028D01*
X108774435Y-95734600D02*
X108631577Y-95806028D01*
X108631577Y-95806028D02*
X108345863Y-95806028D01*
X108345863Y-95806028D02*
X108203006Y-95734600D01*
X108203006Y-95734600D02*
X108131577Y-95663171D01*
X108131577Y-95663171D02*
X108060149Y-95520314D01*
X108060149Y-95520314D02*
X108060149Y-95091742D01*
X108060149Y-95091742D02*
X108131577Y-94948885D01*
X108131577Y-94948885D02*
X108203006Y-94877457D01*
X108203006Y-94877457D02*
X108345863Y-94806028D01*
X108345863Y-94806028D02*
X108631577Y-94806028D01*
X108631577Y-94806028D02*
X108774435Y-94877457D01*
X109488720Y-95663171D02*
X109560149Y-95734600D01*
X109560149Y-95734600D02*
X109488720Y-95806028D01*
X109488720Y-95806028D02*
X109417292Y-95734600D01*
X109417292Y-95734600D02*
X109488720Y-95663171D01*
X109488720Y-95663171D02*
X109488720Y-95806028D01*
X111131578Y-94306028D02*
X111631578Y-95806028D01*
X111631578Y-95806028D02*
X112131578Y-94306028D01*
X113417292Y-95806028D02*
X112560149Y-95806028D01*
X112988720Y-95806028D02*
X112988720Y-94306028D01*
X112988720Y-94306028D02*
X112845863Y-94520314D01*
X112845863Y-94520314D02*
X112703006Y-94663171D01*
X112703006Y-94663171D02*
X112560149Y-94734600D01*
X114060148Y-95663171D02*
X114131577Y-95734600D01*
X114131577Y-95734600D02*
X114060148Y-95806028D01*
X114060148Y-95806028D02*
X113988720Y-95734600D01*
X113988720Y-95734600D02*
X114060148Y-95663171D01*
X114060148Y-95663171D02*
X114060148Y-95806028D01*
X115060149Y-94306028D02*
X115203006Y-94306028D01*
X115203006Y-94306028D02*
X115345863Y-94377457D01*
X115345863Y-94377457D02*
X115417292Y-94448885D01*
X115417292Y-94448885D02*
X115488720Y-94591742D01*
X115488720Y-94591742D02*
X115560149Y-94877457D01*
X115560149Y-94877457D02*
X115560149Y-95234600D01*
X115560149Y-95234600D02*
X115488720Y-95520314D01*
X115488720Y-95520314D02*
X115417292Y-95663171D01*
X115417292Y-95663171D02*
X115345863Y-95734600D01*
X115345863Y-95734600D02*
X115203006Y-95806028D01*
X115203006Y-95806028D02*
X115060149Y-95806028D01*
X115060149Y-95806028D02*
X114917292Y-95734600D01*
X114917292Y-95734600D02*
X114845863Y-95663171D01*
X114845863Y-95663171D02*
X114774434Y-95520314D01*
X114774434Y-95520314D02*
X114703006Y-95234600D01*
X114703006Y-95234600D02*
X114703006Y-94877457D01*
X114703006Y-94877457D02*
X114774434Y-94591742D01*
X114774434Y-94591742D02*
X114845863Y-94448885D01*
X114845863Y-94448885D02*
X114917292Y-94377457D01*
X114917292Y-94377457D02*
X115060149Y-94306028D01*
X214521875Y-90995714D02*
X214521875Y-91567142D01*
X213521875Y-91281428D02*
X214521875Y-91281428D01*
X214521875Y-92090952D02*
X214521875Y-92281428D01*
X214521875Y-92281428D02*
X214474256Y-92376666D01*
X214474256Y-92376666D02*
X214379018Y-92471904D01*
X214379018Y-92471904D02*
X214188542Y-92519523D01*
X214188542Y-92519523D02*
X213855209Y-92519523D01*
X213855209Y-92519523D02*
X213664733Y-92471904D01*
X213664733Y-92471904D02*
X213569495Y-92376666D01*
X213569495Y-92376666D02*
X213521875Y-92281428D01*
X213521875Y-92281428D02*
X213521875Y-92090952D01*
X213521875Y-92090952D02*
X213569495Y-91995714D01*
X213569495Y-91995714D02*
X213664733Y-91900476D01*
X213664733Y-91900476D02*
X213855209Y-91852857D01*
X213855209Y-91852857D02*
X214188542Y-91852857D01*
X214188542Y-91852857D02*
X214379018Y-91900476D01*
X214379018Y-91900476D02*
X214474256Y-91995714D01*
X214474256Y-91995714D02*
X214521875Y-92090952D01*
X214045685Y-93281428D02*
X214045685Y-92948095D01*
X213521875Y-92948095D02*
X214521875Y-92948095D01*
X214521875Y-92948095D02*
X214521875Y-93424285D01*
X214521875Y-94281428D02*
X214521875Y-93805238D01*
X214521875Y-93805238D02*
X214045685Y-93757619D01*
X214045685Y-93757619D02*
X214093304Y-93805238D01*
X214093304Y-93805238D02*
X214140923Y-93900476D01*
X214140923Y-93900476D02*
X214140923Y-94138571D01*
X214140923Y-94138571D02*
X214093304Y-94233809D01*
X214093304Y-94233809D02*
X214045685Y-94281428D01*
X214045685Y-94281428D02*
X213950447Y-94329047D01*
X213950447Y-94329047D02*
X213712352Y-94329047D01*
X213712352Y-94329047D02*
X213617114Y-94281428D01*
X213617114Y-94281428D02*
X213569495Y-94233809D01*
X213569495Y-94233809D02*
X213521875Y-94138571D01*
X213521875Y-94138571D02*
X213521875Y-93900476D01*
X213521875Y-93900476D02*
X213569495Y-93805238D01*
X213569495Y-93805238D02*
X213617114Y-93757619D01*
X216968780Y-94905673D02*
X217968780Y-94905673D01*
X216968780Y-95953291D02*
X217444971Y-95619958D01*
X216968780Y-95381863D02*
X217968780Y-95381863D01*
X217968780Y-95381863D02*
X217968780Y-95762815D01*
X217968780Y-95762815D02*
X217921161Y-95858053D01*
X217921161Y-95858053D02*
X217873542Y-95905672D01*
X217873542Y-95905672D02*
X217778304Y-95953291D01*
X217778304Y-95953291D02*
X217635447Y-95953291D01*
X217635447Y-95953291D02*
X217540209Y-95905672D01*
X217540209Y-95905672D02*
X217492590Y-95858053D01*
X217492590Y-95858053D02*
X217444971Y-95762815D01*
X217444971Y-95762815D02*
X217444971Y-95381863D01*
X34521875Y-90995714D02*
X34521875Y-91567142D01*
X33521875Y-91281428D02*
X34521875Y-91281428D01*
X34521875Y-92090952D02*
X34521875Y-92281428D01*
X34521875Y-92281428D02*
X34474256Y-92376666D01*
X34474256Y-92376666D02*
X34379018Y-92471904D01*
X34379018Y-92471904D02*
X34188542Y-92519523D01*
X34188542Y-92519523D02*
X33855209Y-92519523D01*
X33855209Y-92519523D02*
X33664733Y-92471904D01*
X33664733Y-92471904D02*
X33569495Y-92376666D01*
X33569495Y-92376666D02*
X33521875Y-92281428D01*
X33521875Y-92281428D02*
X33521875Y-92090952D01*
X33521875Y-92090952D02*
X33569495Y-91995714D01*
X33569495Y-91995714D02*
X33664733Y-91900476D01*
X33664733Y-91900476D02*
X33855209Y-91852857D01*
X33855209Y-91852857D02*
X34188542Y-91852857D01*
X34188542Y-91852857D02*
X34379018Y-91900476D01*
X34379018Y-91900476D02*
X34474256Y-91995714D01*
X34474256Y-91995714D02*
X34521875Y-92090952D01*
X34045685Y-93281428D02*
X34045685Y-92948095D01*
X33521875Y-92948095D02*
X34521875Y-92948095D01*
X34521875Y-92948095D02*
X34521875Y-93424285D01*
X33521875Y-94329047D02*
X33521875Y-93757619D01*
X33521875Y-94043333D02*
X34521875Y-94043333D01*
X34521875Y-94043333D02*
X34379018Y-93948095D01*
X34379018Y-93948095D02*
X34283780Y-93852857D01*
X34283780Y-93852857D02*
X34236161Y-93757619D01*
X36968780Y-94905673D02*
X37968780Y-94905673D01*
X36968780Y-95953291D02*
X37444971Y-95619958D01*
X36968780Y-95381863D02*
X37968780Y-95381863D01*
X37968780Y-95381863D02*
X37968780Y-95762815D01*
X37968780Y-95762815D02*
X37921161Y-95858053D01*
X37921161Y-95858053D02*
X37873542Y-95905672D01*
X37873542Y-95905672D02*
X37778304Y-95953291D01*
X37778304Y-95953291D02*
X37635447Y-95953291D01*
X37635447Y-95953291D02*
X37540209Y-95905672D01*
X37540209Y-95905672D02*
X37492590Y-95858053D01*
X37492590Y-95858053D02*
X37444971Y-95762815D01*
X37444971Y-95762815D02*
X37444971Y-95381863D01*
X124521875Y-90995714D02*
X124521875Y-91567142D01*
X123521875Y-91281428D02*
X124521875Y-91281428D01*
X124521875Y-92090952D02*
X124521875Y-92281428D01*
X124521875Y-92281428D02*
X124474256Y-92376666D01*
X124474256Y-92376666D02*
X124379018Y-92471904D01*
X124379018Y-92471904D02*
X124188542Y-92519523D01*
X124188542Y-92519523D02*
X123855209Y-92519523D01*
X123855209Y-92519523D02*
X123664733Y-92471904D01*
X123664733Y-92471904D02*
X123569495Y-92376666D01*
X123569495Y-92376666D02*
X123521875Y-92281428D01*
X123521875Y-92281428D02*
X123521875Y-92090952D01*
X123521875Y-92090952D02*
X123569495Y-91995714D01*
X123569495Y-91995714D02*
X123664733Y-91900476D01*
X123664733Y-91900476D02*
X123855209Y-91852857D01*
X123855209Y-91852857D02*
X124188542Y-91852857D01*
X124188542Y-91852857D02*
X124379018Y-91900476D01*
X124379018Y-91900476D02*
X124474256Y-91995714D01*
X124474256Y-91995714D02*
X124521875Y-92090952D01*
X124045685Y-93281428D02*
X124045685Y-92948095D01*
X123521875Y-92948095D02*
X124521875Y-92948095D01*
X124521875Y-92948095D02*
X124521875Y-93424285D01*
X124521875Y-93710000D02*
X124521875Y-94329047D01*
X124521875Y-94329047D02*
X124140923Y-93995714D01*
X124140923Y-93995714D02*
X124140923Y-94138571D01*
X124140923Y-94138571D02*
X124093304Y-94233809D01*
X124093304Y-94233809D02*
X124045685Y-94281428D01*
X124045685Y-94281428D02*
X123950447Y-94329047D01*
X123950447Y-94329047D02*
X123712352Y-94329047D01*
X123712352Y-94329047D02*
X123617114Y-94281428D01*
X123617114Y-94281428D02*
X123569495Y-94233809D01*
X123569495Y-94233809D02*
X123521875Y-94138571D01*
X123521875Y-94138571D02*
X123521875Y-93852857D01*
X123521875Y-93852857D02*
X123569495Y-93757619D01*
X123569495Y-93757619D02*
X123617114Y-93710000D01*
X126968780Y-94905673D02*
X127968780Y-94905673D01*
X126968780Y-95953291D02*
X127444971Y-95619958D01*
X126968780Y-95381863D02*
X127968780Y-95381863D01*
X127968780Y-95381863D02*
X127968780Y-95762815D01*
X127968780Y-95762815D02*
X127921161Y-95858053D01*
X127921161Y-95858053D02*
X127873542Y-95905672D01*
X127873542Y-95905672D02*
X127778304Y-95953291D01*
X127778304Y-95953291D02*
X127635447Y-95953291D01*
X127635447Y-95953291D02*
X127540209Y-95905672D01*
X127540209Y-95905672D02*
X127492590Y-95858053D01*
X127492590Y-95858053D02*
X127444971Y-95762815D01*
X127444971Y-95762815D02*
X127444971Y-95381863D01*
X79521875Y-90995714D02*
X79521875Y-91567142D01*
X78521875Y-91281428D02*
X79521875Y-91281428D01*
X79521875Y-92090952D02*
X79521875Y-92281428D01*
X79521875Y-92281428D02*
X79474256Y-92376666D01*
X79474256Y-92376666D02*
X79379018Y-92471904D01*
X79379018Y-92471904D02*
X79188542Y-92519523D01*
X79188542Y-92519523D02*
X78855209Y-92519523D01*
X78855209Y-92519523D02*
X78664733Y-92471904D01*
X78664733Y-92471904D02*
X78569495Y-92376666D01*
X78569495Y-92376666D02*
X78521875Y-92281428D01*
X78521875Y-92281428D02*
X78521875Y-92090952D01*
X78521875Y-92090952D02*
X78569495Y-91995714D01*
X78569495Y-91995714D02*
X78664733Y-91900476D01*
X78664733Y-91900476D02*
X78855209Y-91852857D01*
X78855209Y-91852857D02*
X79188542Y-91852857D01*
X79188542Y-91852857D02*
X79379018Y-91900476D01*
X79379018Y-91900476D02*
X79474256Y-91995714D01*
X79474256Y-91995714D02*
X79521875Y-92090952D01*
X79045685Y-93281428D02*
X79045685Y-92948095D01*
X78521875Y-92948095D02*
X79521875Y-92948095D01*
X79521875Y-92948095D02*
X79521875Y-93424285D01*
X79426637Y-93757619D02*
X79474256Y-93805238D01*
X79474256Y-93805238D02*
X79521875Y-93900476D01*
X79521875Y-93900476D02*
X79521875Y-94138571D01*
X79521875Y-94138571D02*
X79474256Y-94233809D01*
X79474256Y-94233809D02*
X79426637Y-94281428D01*
X79426637Y-94281428D02*
X79331399Y-94329047D01*
X79331399Y-94329047D02*
X79236161Y-94329047D01*
X79236161Y-94329047D02*
X79093304Y-94281428D01*
X79093304Y-94281428D02*
X78521875Y-93710000D01*
X78521875Y-93710000D02*
X78521875Y-94329047D01*
X81968780Y-94905673D02*
X82968780Y-94905673D01*
X81968780Y-95953291D02*
X82444971Y-95619958D01*
X81968780Y-95381863D02*
X82968780Y-95381863D01*
X82968780Y-95381863D02*
X82968780Y-95762815D01*
X82968780Y-95762815D02*
X82921161Y-95858053D01*
X82921161Y-95858053D02*
X82873542Y-95905672D01*
X82873542Y-95905672D02*
X82778304Y-95953291D01*
X82778304Y-95953291D02*
X82635447Y-95953291D01*
X82635447Y-95953291D02*
X82540209Y-95905672D01*
X82540209Y-95905672D02*
X82492590Y-95858053D01*
X82492590Y-95858053D02*
X82444971Y-95762815D01*
X82444971Y-95762815D02*
X82444971Y-95381863D01*
X169521875Y-90995714D02*
X169521875Y-91567142D01*
X168521875Y-91281428D02*
X169521875Y-91281428D01*
X169521875Y-92090952D02*
X169521875Y-92281428D01*
X169521875Y-92281428D02*
X169474256Y-92376666D01*
X169474256Y-92376666D02*
X169379018Y-92471904D01*
X169379018Y-92471904D02*
X169188542Y-92519523D01*
X169188542Y-92519523D02*
X168855209Y-92519523D01*
X168855209Y-92519523D02*
X168664733Y-92471904D01*
X168664733Y-92471904D02*
X168569495Y-92376666D01*
X168569495Y-92376666D02*
X168521875Y-92281428D01*
X168521875Y-92281428D02*
X168521875Y-92090952D01*
X168521875Y-92090952D02*
X168569495Y-91995714D01*
X168569495Y-91995714D02*
X168664733Y-91900476D01*
X168664733Y-91900476D02*
X168855209Y-91852857D01*
X168855209Y-91852857D02*
X169188542Y-91852857D01*
X169188542Y-91852857D02*
X169379018Y-91900476D01*
X169379018Y-91900476D02*
X169474256Y-91995714D01*
X169474256Y-91995714D02*
X169521875Y-92090952D01*
X169045685Y-93281428D02*
X169045685Y-92948095D01*
X168521875Y-92948095D02*
X169521875Y-92948095D01*
X169521875Y-92948095D02*
X169521875Y-93424285D01*
X169188542Y-94233809D02*
X168521875Y-94233809D01*
X169569495Y-93995714D02*
X168855209Y-93757619D01*
X168855209Y-93757619D02*
X168855209Y-94376666D01*
X171968780Y-94905673D02*
X172968780Y-94905673D01*
X171968780Y-95953291D02*
X172444971Y-95619958D01*
X171968780Y-95381863D02*
X172968780Y-95381863D01*
X172968780Y-95381863D02*
X172968780Y-95762815D01*
X172968780Y-95762815D02*
X172921161Y-95858053D01*
X172921161Y-95858053D02*
X172873542Y-95905672D01*
X172873542Y-95905672D02*
X172778304Y-95953291D01*
X172778304Y-95953291D02*
X172635447Y-95953291D01*
X172635447Y-95953291D02*
X172540209Y-95905672D01*
X172540209Y-95905672D02*
X172492590Y-95858053D01*
X172492590Y-95858053D02*
X172444971Y-95762815D01*
X172444971Y-95762815D02*
X172444971Y-95381863D01*
D11*
X195932380Y-91804318D02*
X195932380Y-92832413D01*
X195932380Y-92832413D02*
X195992857Y-92953365D01*
X195992857Y-92953365D02*
X196053333Y-93013842D01*
X196053333Y-93013842D02*
X196174285Y-93074318D01*
X196174285Y-93074318D02*
X196416190Y-93074318D01*
X196416190Y-93074318D02*
X196537142Y-93013842D01*
X196537142Y-93013842D02*
X196597619Y-92953365D01*
X196597619Y-92953365D02*
X196658095Y-92832413D01*
X196658095Y-92832413D02*
X196658095Y-91804318D01*
X197928095Y-93074318D02*
X197202380Y-93074318D01*
X197565237Y-93074318D02*
X197565237Y-91804318D01*
X197565237Y-91804318D02*
X197444285Y-91985746D01*
X197444285Y-91985746D02*
X197323333Y-92106699D01*
X197323333Y-92106699D02*
X197202380Y-92167175D01*
D10*
X259521875Y-90995714D02*
X259521875Y-91567142D01*
X258521875Y-91281428D02*
X259521875Y-91281428D01*
X259521875Y-92090952D02*
X259521875Y-92281428D01*
X259521875Y-92281428D02*
X259474256Y-92376666D01*
X259474256Y-92376666D02*
X259379018Y-92471904D01*
X259379018Y-92471904D02*
X259188542Y-92519523D01*
X259188542Y-92519523D02*
X258855209Y-92519523D01*
X258855209Y-92519523D02*
X258664733Y-92471904D01*
X258664733Y-92471904D02*
X258569495Y-92376666D01*
X258569495Y-92376666D02*
X258521875Y-92281428D01*
X258521875Y-92281428D02*
X258521875Y-92090952D01*
X258521875Y-92090952D02*
X258569495Y-91995714D01*
X258569495Y-91995714D02*
X258664733Y-91900476D01*
X258664733Y-91900476D02*
X258855209Y-91852857D01*
X258855209Y-91852857D02*
X259188542Y-91852857D01*
X259188542Y-91852857D02*
X259379018Y-91900476D01*
X259379018Y-91900476D02*
X259474256Y-91995714D01*
X259474256Y-91995714D02*
X259521875Y-92090952D01*
X259045685Y-93281428D02*
X259045685Y-92948095D01*
X258521875Y-92948095D02*
X259521875Y-92948095D01*
X259521875Y-92948095D02*
X259521875Y-93424285D01*
X259521875Y-94233809D02*
X259521875Y-94043333D01*
X259521875Y-94043333D02*
X259474256Y-93948095D01*
X259474256Y-93948095D02*
X259426637Y-93900476D01*
X259426637Y-93900476D02*
X259283780Y-93805238D01*
X259283780Y-93805238D02*
X259093304Y-93757619D01*
X259093304Y-93757619D02*
X258712352Y-93757619D01*
X258712352Y-93757619D02*
X258617114Y-93805238D01*
X258617114Y-93805238D02*
X258569495Y-93852857D01*
X258569495Y-93852857D02*
X258521875Y-93948095D01*
X258521875Y-93948095D02*
X258521875Y-94138571D01*
X258521875Y-94138571D02*
X258569495Y-94233809D01*
X258569495Y-94233809D02*
X258617114Y-94281428D01*
X258617114Y-94281428D02*
X258712352Y-94329047D01*
X258712352Y-94329047D02*
X258950447Y-94329047D01*
X258950447Y-94329047D02*
X259045685Y-94281428D01*
X259045685Y-94281428D02*
X259093304Y-94233809D01*
X259093304Y-94233809D02*
X259140923Y-94138571D01*
X259140923Y-94138571D02*
X259140923Y-93948095D01*
X259140923Y-93948095D02*
X259093304Y-93852857D01*
X259093304Y-93852857D02*
X259045685Y-93805238D01*
X259045685Y-93805238D02*
X258950447Y-93757619D01*
X261968780Y-94905673D02*
X262968780Y-94905673D01*
X261968780Y-95953291D02*
X262444971Y-95619958D01*
X261968780Y-95381863D02*
X262968780Y-95381863D01*
X262968780Y-95381863D02*
X262968780Y-95762815D01*
X262968780Y-95762815D02*
X262921161Y-95858053D01*
X262921161Y-95858053D02*
X262873542Y-95905672D01*
X262873542Y-95905672D02*
X262778304Y-95953291D01*
X262778304Y-95953291D02*
X262635447Y-95953291D01*
X262635447Y-95953291D02*
X262540209Y-95905672D01*
X262540209Y-95905672D02*
X262492590Y-95858053D01*
X262492590Y-95858053D02*
X262444971Y-95762815D01*
X262444971Y-95762815D02*
X262444971Y-95381863D01*
%TO.C,TOF5*%
X221276000Y-89916000D02*
G75*
G02*
X217720000Y-89916000I-1778000J0D01*
G01*
X217720000Y-89916000D02*
G75*
G02*
X221276000Y-89916000I1778000J0D01*
G01*
X208322000Y-87376000D02*
X222038000Y-87376000D01*
X222038000Y-98044000D01*
X208322000Y-98044000D01*
X208322000Y-87376000D01*
X218736000Y-97536000D02*
X218736000Y-93136000D01*
X218736000Y-97536000D02*
X216336000Y-97536000D01*
X216336000Y-97536000D02*
X216336000Y-93136000D01*
X216336000Y-93136000D02*
X218736000Y-93136000D01*
%TO.C,TOF1*%
X41276000Y-89916000D02*
G75*
G02*
X37720000Y-89916000I-1778000J0D01*
G01*
X37720000Y-89916000D02*
G75*
G02*
X41276000Y-89916000I1778000J0D01*
G01*
X28322000Y-87376000D02*
X42038000Y-87376000D01*
X42038000Y-98044000D01*
X28322000Y-98044000D01*
X28322000Y-87376000D01*
X38736000Y-97536000D02*
X38736000Y-93136000D01*
X38736000Y-97536000D02*
X36336000Y-97536000D01*
X36336000Y-97536000D02*
X36336000Y-93136000D01*
X36336000Y-93136000D02*
X38736000Y-93136000D01*
%TO.C,TOF3*%
X126336000Y-93136000D02*
X128736000Y-93136000D01*
X126336000Y-97536000D02*
X126336000Y-93136000D01*
X128736000Y-97536000D02*
X126336000Y-97536000D01*
X128736000Y-97536000D02*
X128736000Y-93136000D01*
X118322000Y-87376000D02*
X132038000Y-87376000D01*
X132038000Y-98044000D01*
X118322000Y-98044000D01*
X118322000Y-87376000D01*
X131276000Y-89916000D02*
G75*
G02*
X127720000Y-89916000I-1778000J0D01*
G01*
X127720000Y-89916000D02*
G75*
G02*
X131276000Y-89916000I1778000J0D01*
G01*
%TO.C,TOF2*%
X81336000Y-93136000D02*
X83736000Y-93136000D01*
X81336000Y-97536000D02*
X81336000Y-93136000D01*
X83736000Y-97536000D02*
X81336000Y-97536000D01*
X83736000Y-97536000D02*
X83736000Y-93136000D01*
X73322000Y-87376000D02*
X87038000Y-87376000D01*
X87038000Y-98044000D01*
X73322000Y-98044000D01*
X73322000Y-87376000D01*
X86276000Y-89916000D02*
G75*
G02*
X82720000Y-89916000I-1778000J0D01*
G01*
X82720000Y-89916000D02*
G75*
G02*
X86276000Y-89916000I1778000J0D01*
G01*
%TO.C,TOF4*%
X171336000Y-93136000D02*
X173736000Y-93136000D01*
X171336000Y-97536000D02*
X171336000Y-93136000D01*
X173736000Y-97536000D02*
X171336000Y-97536000D01*
X173736000Y-97536000D02*
X173736000Y-93136000D01*
X163322000Y-87376000D02*
X177038000Y-87376000D01*
X177038000Y-98044000D01*
X163322000Y-98044000D01*
X163322000Y-87376000D01*
X176276000Y-89916000D02*
G75*
G02*
X172720000Y-89916000I-1778000J0D01*
G01*
X172720000Y-89916000D02*
G75*
G02*
X176276000Y-89916000I1778000J0D01*
G01*
%TO.C,U1*%
X193225000Y-89830000D02*
X194700000Y-89830000D01*
X195050000Y-90080000D02*
X198750000Y-90080000D01*
X195050000Y-97880000D02*
X195050000Y-90080000D01*
X198750000Y-90080000D02*
X198750000Y-97880000D01*
X198750000Y-97880000D02*
X195050000Y-97880000D01*
%TO.C,TOF6*%
X261336000Y-93136000D02*
X263736000Y-93136000D01*
X261336000Y-97536000D02*
X261336000Y-93136000D01*
X263736000Y-97536000D02*
X261336000Y-97536000D01*
X263736000Y-97536000D02*
X263736000Y-93136000D01*
X253322000Y-87376000D02*
X267038000Y-87376000D01*
X267038000Y-98044000D01*
X253322000Y-98044000D01*
X253322000Y-87376000D01*
X266276000Y-89916000D02*
G75*
G02*
X262720000Y-89916000I-1778000J0D01*
G01*
X262720000Y-89916000D02*
G75*
G02*
X266276000Y-89916000I1778000J0D01*
G01*
%TD*%
M02*
