%TF.GenerationSoftware,KiCad,Pcbnew,10.0.0-rc1.1-4-gef7340bffd*%
%TF.CreationDate,2026-02-13T00:31:55+01:00*%
%TF.ProjectId,chu_tof,6368755f-746f-4662-9e6b-696361645f70,rev?*%
%TF.SameCoordinates,Original*%
%TF.FileFunction,Soldermask,Top*%
%TF.FilePolarity,Negative*%
%FSLAX46Y46*%
G04 Gerber Fmt 4.6, Leading zero omitted, Abs format (unit mm)*
G04 Created by KiCad (PCBNEW 10.0.0-rc1.1-4-gef7340bffd) date 2026-02-13 00:31:55*
%MOMM*%
%LPD*%
G01*
G04 APERTURE LIST*
%ADD10C,1.905000*%
%ADD11C,1.700000*%
%ADD12R,1.700000X1.700000*%
%ADD13C,3.200000*%
%ADD14R,1.475000X0.450000*%
G04 APERTURE END LIST*
D10*
%TO.C,J1*%
X143280000Y-97000000D03*
X145820000Y-97000000D03*
X148360000Y-97000000D03*
X150900000Y-97000000D03*
%TD*%
D11*
%TO.C,TOF5*%
X220260000Y-96520000D03*
X220260000Y-93980000D03*
X210100000Y-96520000D03*
X210100000Y-93980000D03*
X210100000Y-91440000D03*
D12*
X210100000Y-88900000D03*
%TD*%
D11*
%TO.C,TOF1*%
X40260000Y-96520000D03*
X40260000Y-93980000D03*
X30100000Y-96520000D03*
X30100000Y-93980000D03*
X30100000Y-91440000D03*
D12*
X30100000Y-88900000D03*
%TD*%
D13*
%TO.C,SCR2*%
X237680000Y-92710000D03*
%TD*%
D12*
%TO.C,TOF3*%
X120100000Y-88900000D03*
D11*
X120100000Y-91440000D03*
X120100000Y-93980000D03*
X120100000Y-96520000D03*
X130260000Y-93980000D03*
X130260000Y-96520000D03*
%TD*%
D12*
%TO.C,TOF2*%
X75100000Y-88900000D03*
D11*
X75100000Y-91440000D03*
X75100000Y-93980000D03*
X75100000Y-96520000D03*
X85260000Y-93980000D03*
X85260000Y-96520000D03*
%TD*%
D13*
%TO.C,SCR1*%
X57180000Y-92710000D03*
%TD*%
D12*
%TO.C,TOF4*%
X165100000Y-88900000D03*
D11*
X165100000Y-91440000D03*
X165100000Y-93980000D03*
X165100000Y-96520000D03*
X175260000Y-93980000D03*
X175260000Y-96520000D03*
%TD*%
D14*
%TO.C,U1*%
X193962000Y-90405000D03*
X193962000Y-91055000D03*
X193962000Y-91705000D03*
X193962000Y-92355000D03*
X193962000Y-93005000D03*
X193962000Y-93655000D03*
X193962000Y-94305000D03*
X193962000Y-94955000D03*
X193962000Y-95605000D03*
X193962000Y-96255000D03*
X193962000Y-96905000D03*
X193962000Y-97555000D03*
X199838000Y-97555000D03*
X199838000Y-96905000D03*
X199838000Y-96255000D03*
X199838000Y-95605000D03*
X199838000Y-94955000D03*
X199838000Y-94305000D03*
X199838000Y-93655000D03*
X199838000Y-93005000D03*
X199838000Y-92355000D03*
X199838000Y-91705000D03*
X199838000Y-91055000D03*
X199838000Y-90405000D03*
%TD*%
D12*
%TO.C,TOF6*%
X255100000Y-88900000D03*
D11*
X255100000Y-91440000D03*
X255100000Y-93980000D03*
X255100000Y-96520000D03*
X265260000Y-93980000D03*
X265260000Y-96520000D03*
%TD*%
M02*
