M48
; DRILL file KiCad 10.0.0-rc1.1-4-gef7340bffd date 2026-02-13T00:31:57
; FORMAT={-:-/ absolute / metric / decimal}
; #@! TF.CreationDate,2026-02-13T00:31:57+01:00
; #@! TF.GenerationSoftware,Kicad,Pcbnew,10.0.0-rc1.1-4-gef7340bffd
; #@! TF.FileFunction,Plated,1,2,PTH
FMAT,2
METRIC
; #@! TA.AperFunction,Plated,PTH,ViaDrill
T1C0.300
; #@! TA.AperFunction,Plated,PTH,ComponentDrill
T2C1.000
; #@! TA.AperFunction,Plated,PTH,ComponentDrill
T3C1.270
%
G90
G05
T1
X138.049Y-97.028
X140.462Y-92.085
X140.462Y-93.335
X140.462Y-94.488
X143.3Y-90.1
X145.821Y-90.119
X146.05Y-87.63
X148.336Y-90.424
X160.909Y-92.085
X160.909Y-97.028
X162.052Y-93.335
X162.052Y-94.488
X167.386Y-95.25
X167.64Y-90.932
X167.64Y-92.71
X168.91Y-97.145
X180.086Y-93.98
X180.086Y-96.52
X188.595Y-93.726
X191.262Y-90.424
X192.532Y-90.424
X195.707Y-87.63
X196.85Y-93.98
X199.898Y-88.9
X205.5Y-95.0
X215.011Y-90.805
X215.011Y-95.25
T2
X30.1Y-88.9
X30.1Y-91.44
X30.1Y-93.98
X30.1Y-96.52
X40.26Y-93.98
X40.26Y-96.52
X75.1Y-88.9
X75.1Y-91.44
X75.1Y-93.98
X75.1Y-96.52
X85.26Y-93.98
X85.26Y-96.52
X120.1Y-88.9
X120.1Y-91.44
X120.1Y-93.98
X120.1Y-96.52
X130.26Y-93.98
X130.26Y-96.52
X165.1Y-88.9
X165.1Y-91.44
X165.1Y-93.98
X165.1Y-96.52
X175.26Y-93.98
X175.26Y-96.52
X210.1Y-88.9
X210.1Y-91.44
X210.1Y-93.98
X210.1Y-96.52
X220.26Y-93.98
X220.26Y-96.52
X255.1Y-88.9
X255.1Y-91.44
X255.1Y-93.98
X255.1Y-96.52
X265.26Y-93.98
X265.26Y-96.52
T3
X143.28Y-97.0
X145.82Y-97.0
X148.36Y-97.0
X150.9Y-97.0
M30
