%TF.GenerationSoftware,KiCad,Pcbnew,10.0.0-rc1.1-4-gef7340bffd*%
%TF.CreationDate,2026-02-13T00:12:54+01:00*%
%TF.ProjectId,chu_tof,6368755f-746f-4662-9e6b-696361645f70,rev?*%
%TF.SameCoordinates,Original*%
%TF.FileFunction,Soldermask,Bot*%
%TF.FilePolarity,Negative*%
%FSLAX46Y46*%
G04 Gerber Fmt 4.6, Leading zero omitted, Abs format (unit mm)*
G04 Created by KiCad (PCBNEW 10.0.0-rc1.1-4-gef7340bffd) date 2026-02-13 00:12:54*
%MOMM*%
%LPD*%
G01*
G04 APERTURE LIST*
G04 Aperture macros list*
%AMRoundRect*
0 Rectangle with rounded corners*
0 $1 Rounding radius*
0 $2 $3 $4 $5 $6 $7 $8 $9 X,Y pos of 4 corners*
0 Add a 4 corners polygon primitive as box body*
4,1,4,$2,$3,$4,$5,$6,$7,$8,$9,$2,$3,0*
0 Add four circle primitives for the rounded corners*
1,1,$1+$1,$2,$3*
1,1,$1+$1,$4,$5*
1,1,$1+$1,$6,$7*
1,1,$1+$1,$8,$9*
0 Add four rect primitives between the rounded corners*
20,1,$1+$1,$2,$3,$4,$5,0*
20,1,$1+$1,$4,$5,$6,$7,0*
20,1,$1+$1,$6,$7,$8,$9,0*
20,1,$1+$1,$8,$9,$2,$3,0*%
%AMFreePoly0*
4,1,23,0.500000,-0.750000,0.000000,-0.750000,0.000000,-0.745722,-0.065263,-0.745722,-0.191342,-0.711940,-0.304381,-0.646677,-0.396677,-0.554381,-0.461940,-0.441342,-0.495722,-0.315263,-0.495722,-0.250000,-0.500000,-0.250000,-0.500000,0.250000,-0.495722,0.250000,-0.495722,0.315263,-0.461940,0.441342,-0.396677,0.554381,-0.304381,0.646677,-0.191342,0.711940,-0.065263,0.745722,0.000000,0.745722,
0.000000,0.750000,0.500000,0.750000,0.500000,-0.750000,0.500000,-0.750000,$1*%
%AMFreePoly1*
4,1,23,0.000000,0.745722,0.065263,0.745722,0.191342,0.711940,0.304381,0.646677,0.396677,0.554381,0.461940,0.441342,0.495722,0.315263,0.495722,0.250000,0.500000,0.250000,0.500000,-0.250000,0.495722,-0.250000,0.495722,-0.315263,0.461940,-0.441342,0.396677,-0.554381,0.304381,-0.646677,0.191342,-0.711940,0.065263,-0.745722,0.000000,-0.745722,0.000000,-0.750000,-0.500000,-0.750000,
-0.500000,0.750000,0.000000,0.750000,0.000000,0.745722,0.000000,0.745722,$1*%
G04 Aperture macros list end*
%ADD10C,3.200000*%
%ADD11R,1.700000X1.700000*%
%ADD12C,1.700000*%
%ADD13FreePoly0,90.000000*%
%ADD14FreePoly1,90.000000*%
%ADD15FreePoly0,270.000000*%
%ADD16FreePoly1,270.000000*%
%ADD17RoundRect,0.250000X0.475000X-0.337500X0.475000X0.337500X-0.475000X0.337500X-0.475000X-0.337500X0*%
%ADD18C,1.905000*%
%ADD19RoundRect,0.250000X-0.350000X-0.450000X0.350000X-0.450000X0.350000X0.450000X-0.350000X0.450000X0*%
G04 APERTURE END LIST*
%TO.C,A0_1*%
G36*
X185350000Y-95650000D02*
G01*
X186850000Y-95650000D01*
X186850000Y-95950000D01*
X185350000Y-95950000D01*
X185350000Y-95650000D01*
G37*
%TO.C,A0_0*%
G36*
X187850000Y-95650000D02*
G01*
X189350000Y-95650000D01*
X189350000Y-95950000D01*
X187850000Y-95950000D01*
X187850000Y-95650000D01*
G37*
%TD*%
D10*
%TO.C,SCR2*%
X237680000Y-92710000D03*
%TD*%
D11*
%TO.C,TOF3*%
X120100000Y-88900000D03*
D12*
X120100000Y-91440000D03*
X120100000Y-93980000D03*
X120100000Y-96520000D03*
X130260000Y-93980000D03*
X130260000Y-96520000D03*
%TD*%
D11*
%TO.C,TOF2*%
X75100000Y-88900000D03*
D12*
X75100000Y-91440000D03*
X75100000Y-93980000D03*
X75100000Y-96520000D03*
X85260000Y-93980000D03*
X85260000Y-96520000D03*
%TD*%
D10*
%TO.C,SCR1*%
X57180000Y-92710000D03*
%TD*%
D11*
%TO.C,TOF1*%
X30100000Y-88900000D03*
D12*
X30100000Y-91440000D03*
X30100000Y-93980000D03*
X30100000Y-96520000D03*
X40260000Y-93980000D03*
X40260000Y-96520000D03*
%TD*%
D11*
%TO.C,TOF4*%
X165100000Y-88900000D03*
D12*
X165100000Y-91440000D03*
X165100000Y-93980000D03*
X165100000Y-96520000D03*
X175260000Y-93980000D03*
X175260000Y-96520000D03*
%TD*%
D11*
%TO.C,TOF5*%
X210100000Y-88900000D03*
D12*
X210100000Y-91440000D03*
X210100000Y-93980000D03*
X210100000Y-96520000D03*
X220260000Y-93980000D03*
X220260000Y-96520000D03*
%TD*%
D11*
%TO.C,TOF6*%
X255100000Y-88900000D03*
D12*
X255100000Y-91440000D03*
X255100000Y-93980000D03*
X255100000Y-96520000D03*
X265260000Y-93980000D03*
X265260000Y-96520000D03*
%TD*%
D13*
%TO.C,A0_1*%
X186100000Y-96450000D03*
D14*
X186100000Y-95150000D03*
%TD*%
D15*
%TO.C,A0_0*%
X188600000Y-95150000D03*
D16*
X188600000Y-96450000D03*
%TD*%
D17*
%TO.C,C1*%
X156155000Y-97000000D03*
X156155000Y-94925000D03*
%TD*%
D18*
%TO.C,J1*%
X150900000Y-97000000D03*
X148360000Y-97000000D03*
X145820000Y-97000000D03*
X143280000Y-97000000D03*
%TD*%
D19*
%TO.C,R1*%
X186298000Y-92202000D03*
X188298000Y-92202000D03*
%TD*%
M02*
