%TF.GenerationSoftware,KiCad,Pcbnew,10.0.0-rc1.1-4-gef7340bffd*%
%TF.CreationDate,2026-02-13T00:12:54+01:00*%
%TF.ProjectId,chu_tof,6368755f-746f-4662-9e6b-696361645f70,rev?*%
%TF.SameCoordinates,Original*%
%TF.FileFunction,Copper,L1,Top*%
%TF.FilePolarity,Positive*%
%FSLAX46Y46*%
G04 Gerber Fmt 4.6, Leading zero omitted, Abs format (unit mm)*
G04 Created by KiCad (PCBNEW 10.0.0-rc1.1-4-gef7340bffd) date 2026-02-13 00:12:54*
%MOMM*%
%LPD*%
G01*
G04 APERTURE LIST*
%TA.AperFunction,ComponentPad*%
%ADD10R,1.700000X1.700000*%
%TD*%
%TA.AperFunction,ComponentPad*%
%ADD11C,1.700000*%
%TD*%
%TA.AperFunction,SMDPad,CuDef*%
%ADD12R,1.475000X0.450000*%
%TD*%
%TA.AperFunction,ComponentPad*%
%ADD13C,1.905000*%
%TD*%
%TA.AperFunction,ViaPad*%
%ADD14C,0.600000*%
%TD*%
%TA.AperFunction,Conductor*%
%ADD15C,0.250000*%
%TD*%
G04 APERTURE END LIST*
D10*
%TO.P,TOF3,1,VIN_1*%
%TO.N,+3V3*%
X120100000Y-88900000D03*
D11*
%TO.P,TOF3,2,GND_2*%
%TO.N,GND*%
X120100000Y-91440000D03*
%TO.P,TOF3,3,SCL_3*%
%TO.N,/SCL_3*%
X120100000Y-93980000D03*
%TO.P,TOF3,4,SDA_4*%
%TO.N,/SDA_3*%
X120100000Y-96520000D03*
%TO.P,TOF3,5,XSHUT_5*%
%TO.N,unconnected-(TOF3-XSHUT-Pad5)*%
X130260000Y-93980000D03*
%TO.P,TOF3,6,GPIO1_6*%
%TO.N,unconnected-(TOF3-GPIO1-Pad6)*%
X130260000Y-96520000D03*
%TD*%
D10*
%TO.P,TOF2,1,VIN_1*%
%TO.N,+3V3*%
X75100000Y-88900000D03*
D11*
%TO.P,TOF2,2,GND_2*%
%TO.N,GND*%
X75100000Y-91440000D03*
%TO.P,TOF2,3,SCL_3*%
%TO.N,/SCL_2*%
X75100000Y-93980000D03*
%TO.P,TOF2,4,SDA_4*%
%TO.N,/SDA_2*%
X75100000Y-96520000D03*
%TO.P,TOF2,5,XSHUT_5*%
%TO.N,unconnected-(TOF2-XSHUT-Pad5)*%
X85260000Y-93980000D03*
%TO.P,TOF2,6,GPIO1_6*%
%TO.N,unconnected-(TOF2-GPIO1-Pad6)*%
X85260000Y-96520000D03*
%TD*%
D10*
%TO.P,TOF1,1,VIN_1*%
%TO.N,+3V3*%
X30100000Y-88900000D03*
D11*
%TO.P,TOF1,2,GND_2*%
%TO.N,GND*%
X30100000Y-91440000D03*
%TO.P,TOF1,3,SCL_3*%
%TO.N,/SCL_1*%
X30100000Y-93980000D03*
%TO.P,TOF1,4,SDA_4*%
%TO.N,/SDA_1*%
X30100000Y-96520000D03*
%TO.P,TOF1,5,XSHUT_5*%
%TO.N,unconnected-(TOF1-XSHUT-Pad5)*%
X40260000Y-93980000D03*
%TO.P,TOF1,6,GPIO1_6*%
%TO.N,unconnected-(TOF1-GPIO1-Pad6)*%
X40260000Y-96520000D03*
%TD*%
D10*
%TO.P,TOF4,1,VIN_1*%
%TO.N,+3V3*%
X165100000Y-88900000D03*
D11*
%TO.P,TOF4,2,GND_2*%
%TO.N,GND*%
X165100000Y-91440000D03*
%TO.P,TOF4,3,SCL_3*%
%TO.N,/SCL_4*%
X165100000Y-93980000D03*
%TO.P,TOF4,4,SDA_4*%
%TO.N,/SDA_4*%
X165100000Y-96520000D03*
%TO.P,TOF4,5,XSHUT_5*%
%TO.N,unconnected-(TOF4-XSHUT-Pad5)*%
X175260000Y-93980000D03*
%TO.P,TOF4,6,GPIO1_6*%
%TO.N,unconnected-(TOF4-GPIO1-Pad6)*%
X175260000Y-96520000D03*
%TD*%
D10*
%TO.P,TOF5,1,VIN_1*%
%TO.N,+3V3*%
X210100000Y-88900000D03*
D11*
%TO.P,TOF5,2,GND_2*%
%TO.N,GND*%
X210100000Y-91440000D03*
%TO.P,TOF5,3,SCL_3*%
%TO.N,/SCL_5*%
X210100000Y-93980000D03*
%TO.P,TOF5,4,SDA_4*%
%TO.N,/SDA_5*%
X210100000Y-96520000D03*
%TO.P,TOF5,5,XSHUT_5*%
%TO.N,unconnected-(TOF5-XSHUT-Pad5)*%
X220260000Y-93980000D03*
%TO.P,TOF5,6,GPIO1_6*%
%TO.N,unconnected-(TOF5-GPIO1-Pad6)*%
X220260000Y-96520000D03*
%TD*%
D12*
%TO.P,U1,1,A0_1*%
%TO.N,Net-(A0_0-B)*%
X193962000Y-90405000D03*
%TO.P,U1,2,A1_2*%
%TO.N,GND*%
X193962000Y-91055000D03*
%TO.P,U1,3,~{RESET}_3*%
%TO.N,Net-(U1-~{RESET})*%
X193962000Y-91705000D03*
%TO.P,U1,4,SD0_4*%
%TO.N,/SDA_1*%
X193962000Y-92355000D03*
%TO.P,U1,5,SC0_5*%
%TO.N,/SCL_1*%
X193962000Y-93005000D03*
%TO.P,U1,6,SD1_6*%
%TO.N,/SDA_2*%
X193962000Y-93655000D03*
%TO.P,U1,7,SC1_7*%
%TO.N,/SCL_2*%
X193962000Y-94305000D03*
%TO.P,U1,8,SD2_8*%
%TO.N,/SDA_3*%
X193962000Y-94955000D03*
%TO.P,U1,9,SC2_9*%
%TO.N,/SCL_3*%
X193962000Y-95605000D03*
%TO.P,U1,10,SD3_10*%
%TO.N,/SDA_4*%
X193962000Y-96255000D03*
%TO.P,U1,11,SC3_11*%
%TO.N,/SCL_4*%
X193962000Y-96905000D03*
%TO.P,U1,12,GND_12*%
%TO.N,GND*%
X193962000Y-97555000D03*
%TO.P,U1,13,SD4_13*%
%TO.N,/SDA_5*%
X199838000Y-97555000D03*
%TO.P,U1,14,SC4_14*%
%TO.N,/SCL_5*%
X199838000Y-96905000D03*
%TO.P,U1,15,SD5_15*%
%TO.N,/SDA_6*%
X199838000Y-96255000D03*
%TO.P,U1,16,SC5_16*%
%TO.N,/SCL_6*%
X199838000Y-95605000D03*
%TO.P,U1,17,SD6_17*%
%TO.N,unconnected-(U1-SD6-Pad17)*%
X199838000Y-94955000D03*
%TO.P,U1,18,SC6_18*%
%TO.N,unconnected-(U1-SC6-Pad18)*%
X199838000Y-94305000D03*
%TO.P,U1,19,SD7_19*%
%TO.N,unconnected-(U1-SD7-Pad19)*%
X199838000Y-93655000D03*
%TO.P,U1,20,SC7_20*%
%TO.N,unconnected-(U1-SC7-Pad20)*%
X199838000Y-93005000D03*
%TO.P,U1,21,A2_21*%
%TO.N,GND*%
X199838000Y-92355000D03*
%TO.P,U1,22,SCL_22*%
%TO.N,/SCL*%
X199838000Y-91705000D03*
%TO.P,U1,23,SDA_23*%
%TO.N,/SDA*%
X199838000Y-91055000D03*
%TO.P,U1,24,VCC_24*%
%TO.N,+3V3*%
X199838000Y-90405000D03*
%TD*%
D10*
%TO.P,TOF6,1,VIN_1*%
%TO.N,+3V3*%
X255100000Y-88900000D03*
D11*
%TO.P,TOF6,2,GND_2*%
%TO.N,GND*%
X255100000Y-91440000D03*
%TO.P,TOF6,3,SCL_3*%
%TO.N,/SCL_6*%
X255100000Y-93980000D03*
%TO.P,TOF6,4,SDA_4*%
%TO.N,/SDA_6*%
X255100000Y-96520000D03*
%TO.P,TOF6,5,XSHUT_5*%
%TO.N,unconnected-(TOF6-XSHUT-Pad5)*%
X265260000Y-93980000D03*
%TO.P,TOF6,6,GPIO1_6*%
%TO.N,unconnected-(TOF6-GPIO1-Pad6)*%
X265260000Y-96520000D03*
%TD*%
D13*
%TO.P,J1,1,Pin_1_1*%
%TO.N,+3V3*%
X150900000Y-97000000D03*
%TO.P,J1,2,Pin_2_2*%
%TO.N,GND*%
X148360000Y-97000000D03*
%TO.P,J1,3,Pin_3_3*%
%TO.N,/SCL*%
X145820000Y-97000000D03*
%TO.P,J1,4,Pin_4_4*%
%TO.N,/SDA*%
X143280000Y-97000000D03*
%TD*%
D14*
%TO.N,GND*%
X205500000Y-95000000D03*
%TO.N,+3V3*%
X199898000Y-88900000D03*
%TO.N,GND*%
X180086000Y-93980000D03*
X180086000Y-96520000D03*
X160909000Y-97028000D03*
X215011000Y-90805000D03*
X215011000Y-95250000D03*
X148336000Y-90424000D03*
X188595000Y-93726000D03*
X138049000Y-97028000D03*
X196850000Y-93980000D03*
%TO.N,/SCL_3*%
X140462000Y-94488000D03*
X162052000Y-94488000D03*
X167386000Y-95250000D03*
%TO.N,/SCL_2*%
X167640000Y-92710000D03*
X162052000Y-93335000D03*
X140462000Y-93335000D03*
%TO.N,/SCL_1*%
X167640000Y-90932000D03*
X160909000Y-92085000D03*
X140462000Y-92085000D03*
%TO.N,/SCL_4*%
X168910000Y-97790000D03*
%TO.N,Net-(A0_0-B)*%
X192532000Y-90424000D03*
%TO.N,Net-(U1-~{RESET})*%
X191262000Y-90424000D03*
%TO.N,/SCL*%
X145821400Y-90119200D03*
%TO.N,/SDA*%
X143300000Y-90100000D03*
X146050000Y-87630000D03*
X195707000Y-87630000D03*
%TD*%
%TO.N,/SCL_3*%
D15*
X192024000Y-95405000D02*
X191878604Y-95405000D01*
X191723604Y-95250000D02*
X167386000Y-95250000D01*
X191878604Y-95405000D02*
X191723604Y-95250000D01*
X193962000Y-95605000D02*
X192224000Y-95605000D01*
X192224000Y-95605000D02*
X192024000Y-95405000D01*
X162052000Y-94488000D02*
X140462000Y-94488000D01*
X120608000Y-94488000D02*
X120100000Y-93980000D01*
%TO.N,/SDA_3*%
X193962000Y-94955000D02*
X192065000Y-94955000D01*
X121370000Y-95250000D02*
X120100000Y-96520000D01*
X168656000Y-92710000D02*
X166116000Y-95250000D01*
X192065000Y-94955000D02*
X189820000Y-92710000D01*
X166116000Y-95250000D02*
X121370000Y-95250000D01*
X189820000Y-92710000D02*
X168656000Y-92710000D01*
%TO.N,/SCL_2*%
X168148000Y-92202000D02*
X189948396Y-92202000D01*
X167640000Y-92710000D02*
X168148000Y-92202000D01*
X192051396Y-94305000D02*
X193962000Y-94305000D01*
X189948396Y-92202000D02*
X192051396Y-94305000D01*
X162052000Y-93335000D02*
X140462000Y-93335000D01*
%TO.N,/SDA_2*%
X166116000Y-92710000D02*
X78910000Y-92710000D01*
X167132000Y-91694000D02*
X166116000Y-92710000D01*
X78910000Y-92710000D02*
X75100000Y-96520000D01*
X190076792Y-91694000D02*
X167132000Y-91694000D01*
X192037792Y-93655000D02*
X190076792Y-91694000D01*
X193962000Y-93655000D02*
X192037792Y-93655000D01*
%TO.N,/SCL_1*%
X192024188Y-93005000D02*
X190263188Y-91244000D01*
X190263188Y-91244000D02*
X167952000Y-91244000D01*
X193962000Y-93005000D02*
X192024188Y-93005000D01*
X167952000Y-91244000D02*
X167640000Y-90932000D01*
X140462000Y-92085000D02*
X160909000Y-92085000D01*
%TO.N,/SDA_1*%
X138557000Y-90170000D02*
X36450000Y-90170000D01*
X139847000Y-91460000D02*
X138557000Y-90170000D01*
X36450000Y-90170000D02*
X30100000Y-96520000D01*
X160909000Y-91460000D02*
X139847000Y-91460000D01*
X189825584Y-90170000D02*
X162199000Y-90170000D01*
X192010584Y-92355000D02*
X189825584Y-90170000D01*
X193962000Y-92355000D02*
X192010584Y-92355000D01*
X162199000Y-90170000D02*
X160909000Y-91460000D01*
%TO.N,/SCL_4*%
X168910000Y-97790000D02*
X169267000Y-98147000D01*
X191767000Y-98147000D02*
X193009000Y-96905000D01*
X169267000Y-98147000D02*
X191767000Y-98147000D01*
X193009000Y-96905000D02*
X193962000Y-96905000D01*
%TO.N,/SDA_4*%
X170695000Y-97697000D02*
X169518000Y-96520000D01*
X192899500Y-96355000D02*
X192899500Y-96378104D01*
X193962000Y-96255000D02*
X193022604Y-96255000D01*
X191580604Y-97697000D02*
X175353000Y-97697000D01*
X175353000Y-97697000D02*
X170695000Y-97697000D01*
X192559000Y-96718604D02*
X191580604Y-97697000D01*
X169518000Y-96520000D02*
X165100000Y-96520000D01*
X192822604Y-96455000D02*
X192559000Y-96718604D01*
X192922604Y-96355000D02*
X192899500Y-96355000D01*
X192899500Y-96378104D02*
X192822604Y-96455000D01*
X193022604Y-96255000D02*
X192922604Y-96355000D01*
%TO.N,/SCL_5*%
X207175000Y-96905000D02*
X210100000Y-93980000D01*
X199838000Y-96905000D02*
X207175000Y-96905000D01*
%TO.N,/SDA_5*%
X199838000Y-97555000D02*
X209065000Y-97555000D01*
X209065000Y-97555000D02*
X210100000Y-96520000D01*
%TO.N,Net-(A0_0-B)*%
X192551000Y-90405000D02*
X192532000Y-90424000D01*
X193962000Y-90405000D02*
X192551000Y-90405000D01*
%TO.N,Net-(U1-~{RESET})*%
X193962000Y-91705000D02*
X192543000Y-91705000D01*
X192543000Y-91705000D02*
X191262000Y-90424000D01*
%TO.N,/SDA_6*%
X199838000Y-96255000D02*
X200771000Y-96255000D01*
X204316000Y-92710000D02*
X231873604Y-92710000D01*
X231873604Y-92710000D02*
X235879604Y-96716000D01*
X235879604Y-96716000D02*
X254904000Y-96716000D01*
X254904000Y-96716000D02*
X255100000Y-96520000D01*
X200771000Y-96255000D02*
X204316000Y-92710000D01*
%TO.N,/SCL_6*%
X213772000Y-92260000D02*
X232060000Y-92260000D01*
X252814000Y-96266000D02*
X255100000Y-93980000D01*
X206094000Y-90170000D02*
X211682000Y-90170000D01*
X200659000Y-95605000D02*
X206094000Y-90170000D01*
X199838000Y-95605000D02*
X200659000Y-95605000D01*
X211682000Y-90170000D02*
X213772000Y-92260000D01*
X232060000Y-92260000D02*
X236066000Y-96266000D01*
X236066000Y-96266000D02*
X252814000Y-96266000D01*
%TO.N,/SCL*%
X148310600Y-87630000D02*
X194775500Y-87630000D01*
X198850500Y-91705000D02*
X199838000Y-91705000D01*
X194775500Y-87630000D02*
X198850500Y-91705000D01*
X145821400Y-90119200D02*
X148310600Y-87630000D01*
%TO.N,/SDA*%
X199838000Y-91055000D02*
X198875500Y-91055000D01*
X145770000Y-87630000D02*
X146050000Y-87630000D01*
X143300000Y-90100000D02*
X145770000Y-87630000D01*
X198875500Y-91055000D02*
X195707000Y-87886500D01*
X195707000Y-87886500D02*
X195707000Y-87630000D01*
%TD*%
%TA.AperFunction,Conductor*%
%TO.N,GND*%
G36*
X145486357Y-87291407D02*
G01*
X145522321Y-87340907D01*
X145522321Y-87402093D01*
X145498171Y-87441501D01*
X144346987Y-88592686D01*
X143369169Y-89570504D01*
X143314652Y-89598281D01*
X143299165Y-89599500D01*
X143234108Y-89599500D01*
X143162452Y-89618700D01*
X143106809Y-89633609D01*
X142992690Y-89699496D01*
X142899496Y-89792690D01*
X142833609Y-89906809D01*
X142821903Y-89950498D01*
X142799500Y-90034108D01*
X142799500Y-90165892D01*
X142816896Y-90230814D01*
X142833609Y-90293190D01*
X142899496Y-90407309D01*
X142899498Y-90407311D01*
X142899500Y-90407314D01*
X142992686Y-90500500D01*
X142992688Y-90500501D01*
X142992690Y-90500503D01*
X143106810Y-90566390D01*
X143106808Y-90566390D01*
X143106812Y-90566391D01*
X143106814Y-90566392D01*
X143234108Y-90600500D01*
X143234110Y-90600500D01*
X143365890Y-90600500D01*
X143365892Y-90600500D01*
X143493186Y-90566392D01*
X143493188Y-90566390D01*
X143493190Y-90566390D01*
X143607309Y-90500503D01*
X143607309Y-90500502D01*
X143607314Y-90500500D01*
X143700500Y-90407314D01*
X143766392Y-90293186D01*
X143800500Y-90165892D01*
X143800500Y-90100834D01*
X143819407Y-90042643D01*
X143829490Y-90030836D01*
X145744365Y-88115960D01*
X145798880Y-88088185D01*
X145852257Y-88094504D01*
X145856809Y-88096389D01*
X145856814Y-88096392D01*
X145984108Y-88130500D01*
X145984110Y-88130500D01*
X146115890Y-88130500D01*
X146115892Y-88130500D01*
X146243186Y-88096392D01*
X146243188Y-88096390D01*
X146243190Y-88096390D01*
X146357309Y-88030503D01*
X146357309Y-88030502D01*
X146357314Y-88030500D01*
X146450500Y-87937314D01*
X146490998Y-87867170D01*
X146516390Y-87823190D01*
X146516390Y-87823188D01*
X146516392Y-87823186D01*
X146550500Y-87695892D01*
X146550500Y-87564108D01*
X146516392Y-87436814D01*
X146516390Y-87436810D01*
X146507262Y-87420999D01*
X146494541Y-87361150D01*
X146519428Y-87305255D01*
X146572417Y-87274663D01*
X146592999Y-87272500D01*
X147968766Y-87272500D01*
X148026957Y-87291407D01*
X148062921Y-87340907D01*
X148062921Y-87402093D01*
X148038771Y-87441501D01*
X146887587Y-88592686D01*
X145890569Y-89589704D01*
X145836052Y-89617481D01*
X145820565Y-89618700D01*
X145755508Y-89618700D01*
X145677600Y-89639575D01*
X145628209Y-89652809D01*
X145514090Y-89718696D01*
X145420896Y-89811890D01*
X145355009Y-89926009D01*
X145340677Y-89979500D01*
X145320900Y-90053308D01*
X145320900Y-90185092D01*
X145350979Y-90297351D01*
X145355009Y-90312390D01*
X145420896Y-90426509D01*
X145420898Y-90426511D01*
X145420900Y-90426514D01*
X145514086Y-90519700D01*
X145514088Y-90519701D01*
X145514090Y-90519703D01*
X145628210Y-90585590D01*
X145628208Y-90585590D01*
X145628212Y-90585591D01*
X145628214Y-90585592D01*
X145755508Y-90619700D01*
X145755510Y-90619700D01*
X145887290Y-90619700D01*
X145887292Y-90619700D01*
X146014586Y-90585592D01*
X146014588Y-90585590D01*
X146014590Y-90585590D01*
X146128709Y-90519703D01*
X146128709Y-90519702D01*
X146128714Y-90519700D01*
X146221900Y-90426514D01*
X146233408Y-90406582D01*
X146287790Y-90312390D01*
X146287790Y-90312388D01*
X146287792Y-90312386D01*
X146321900Y-90185092D01*
X146321900Y-90120035D01*
X146340807Y-90061844D01*
X146350896Y-90050031D01*
X148416431Y-87984496D01*
X148470948Y-87956719D01*
X148486435Y-87955500D01*
X163950500Y-87955500D01*
X164008691Y-87974407D01*
X164044655Y-88023907D01*
X164049500Y-88054500D01*
X164049500Y-89745500D01*
X164030593Y-89803691D01*
X163981093Y-89839655D01*
X163950500Y-89844500D01*
X162156147Y-89844500D01*
X162114754Y-89855591D01*
X162073360Y-89866682D01*
X162015414Y-89900136D01*
X162015415Y-89900137D01*
X161999140Y-89909533D01*
X160803169Y-91105504D01*
X160748652Y-91133281D01*
X160733165Y-91134500D01*
X140022835Y-91134500D01*
X139964644Y-91115593D01*
X139952831Y-91105504D01*
X139356828Y-90509501D01*
X138756862Y-89909535D01*
X138756859Y-89909533D01*
X138756858Y-89909532D01*
X138756857Y-89909531D01*
X138682642Y-89866683D01*
X138682644Y-89866683D01*
X138650521Y-89858076D01*
X138599853Y-89844500D01*
X138599851Y-89844500D01*
X121249500Y-89844500D01*
X121191309Y-89825593D01*
X121155345Y-89776093D01*
X121150500Y-89745500D01*
X121150500Y-88030253D01*
X121150498Y-88030241D01*
X121143748Y-87996309D01*
X121138867Y-87971769D01*
X121094552Y-87905448D01*
X121037266Y-87867170D01*
X121028233Y-87861134D01*
X121028231Y-87861133D01*
X121028228Y-87861132D01*
X121028227Y-87861132D01*
X120969758Y-87849501D01*
X120969748Y-87849500D01*
X119230252Y-87849500D01*
X119230251Y-87849500D01*
X119230241Y-87849501D01*
X119171772Y-87861132D01*
X119171766Y-87861134D01*
X119105451Y-87905445D01*
X119105445Y-87905451D01*
X119061134Y-87971766D01*
X119061132Y-87971772D01*
X119049501Y-88030241D01*
X119049500Y-88030253D01*
X119049500Y-89745500D01*
X119030593Y-89803691D01*
X118981093Y-89839655D01*
X118950500Y-89844500D01*
X76249500Y-89844500D01*
X76191309Y-89825593D01*
X76155345Y-89776093D01*
X76150500Y-89745500D01*
X76150500Y-88030253D01*
X76150498Y-88030241D01*
X76143748Y-87996309D01*
X76138867Y-87971769D01*
X76094552Y-87905448D01*
X76037266Y-87867170D01*
X76028233Y-87861134D01*
X76028231Y-87861133D01*
X76028228Y-87861132D01*
X76028227Y-87861132D01*
X75969758Y-87849501D01*
X75969748Y-87849500D01*
X74230252Y-87849500D01*
X74230251Y-87849500D01*
X74230241Y-87849501D01*
X74171772Y-87861132D01*
X74171766Y-87861134D01*
X74105451Y-87905445D01*
X74105445Y-87905451D01*
X74061134Y-87971766D01*
X74061132Y-87971772D01*
X74049501Y-88030241D01*
X74049500Y-88030253D01*
X74049500Y-89745500D01*
X74030593Y-89803691D01*
X73981093Y-89839655D01*
X73950500Y-89844500D01*
X36492853Y-89844500D01*
X36407147Y-89844500D01*
X36356478Y-89858076D01*
X36324356Y-89866683D01*
X36250142Y-89909531D01*
X36250141Y-89909532D01*
X30625291Y-95534380D01*
X30570774Y-95562157D01*
X30517402Y-95555840D01*
X30406420Y-95509870D01*
X30203467Y-95469500D01*
X30203465Y-95469500D01*
X29996535Y-95469500D01*
X29996532Y-95469500D01*
X29793581Y-95509869D01*
X29602402Y-95589058D01*
X29430348Y-95704020D01*
X29284020Y-95850348D01*
X29169058Y-96022402D01*
X29089869Y-96213581D01*
X29049500Y-96416532D01*
X29049500Y-96623467D01*
X29089869Y-96826418D01*
X29123088Y-96906614D01*
X29169059Y-97017598D01*
X29214429Y-97085499D01*
X29281061Y-97185223D01*
X29284023Y-97189655D01*
X29430345Y-97335977D01*
X29602402Y-97450941D01*
X29793580Y-97530130D01*
X29996535Y-97570500D01*
X29996536Y-97570500D01*
X30203464Y-97570500D01*
X30203465Y-97570500D01*
X30406420Y-97530130D01*
X30597598Y-97450941D01*
X30769655Y-97335977D01*
X30915977Y-97189655D01*
X31030941Y-97017598D01*
X31110130Y-96826420D01*
X31150500Y-96623465D01*
X31150500Y-96416535D01*
X31150499Y-96416532D01*
X39209500Y-96416532D01*
X39209500Y-96623467D01*
X39249869Y-96826418D01*
X39283088Y-96906614D01*
X39329059Y-97017598D01*
X39374429Y-97085499D01*
X39441061Y-97185223D01*
X39444023Y-97189655D01*
X39590345Y-97335977D01*
X39762402Y-97450941D01*
X39953580Y-97530130D01*
X40156535Y-97570500D01*
X40156536Y-97570500D01*
X40363464Y-97570500D01*
X40363465Y-97570500D01*
X40566420Y-97530130D01*
X40757598Y-97450941D01*
X40929655Y-97335977D01*
X41075977Y-97189655D01*
X41190941Y-97017598D01*
X41270130Y-96826420D01*
X41310500Y-96623465D01*
X41310500Y-96416535D01*
X41270130Y-96213580D01*
X41190941Y-96022402D01*
X41075977Y-95850345D01*
X40929655Y-95704023D01*
X40929651Y-95704020D01*
X40757597Y-95589058D01*
X40566418Y-95509869D01*
X40363467Y-95469500D01*
X40363465Y-95469500D01*
X40156535Y-95469500D01*
X40156532Y-95469500D01*
X39953581Y-95509869D01*
X39762402Y-95589058D01*
X39590348Y-95704020D01*
X39444020Y-95850348D01*
X39329058Y-96022402D01*
X39249869Y-96213581D01*
X39209500Y-96416532D01*
X31150499Y-96416532D01*
X31110130Y-96213580D01*
X31064157Y-96102594D01*
X31059357Y-96041601D01*
X31085616Y-95994709D01*
X33203794Y-93876532D01*
X39209500Y-93876532D01*
X39209500Y-94083467D01*
X39249869Y-94286418D01*
X39329058Y-94477597D01*
X39444020Y-94649651D01*
X39444023Y-94649655D01*
X39590345Y-94795977D01*
X39762402Y-94910941D01*
X39953580Y-94990130D01*
X40156535Y-95030500D01*
X40156536Y-95030500D01*
X40363464Y-95030500D01*
X40363465Y-95030500D01*
X40566420Y-94990130D01*
X40757598Y-94910941D01*
X40929655Y-94795977D01*
X41075977Y-94649655D01*
X41190941Y-94477598D01*
X41270130Y-94286420D01*
X41310500Y-94083465D01*
X41310500Y-93876535D01*
X41270130Y-93673580D01*
X41190941Y-93482402D01*
X41075977Y-93310345D01*
X40929655Y-93164023D01*
X40929651Y-93164020D01*
X40757597Y-93049058D01*
X40566418Y-92969869D01*
X40363467Y-92929500D01*
X40363465Y-92929500D01*
X40156535Y-92929500D01*
X40156532Y-92929500D01*
X39953581Y-92969869D01*
X39762402Y-93049058D01*
X39590348Y-93164020D01*
X39444020Y-93310348D01*
X39329058Y-93482402D01*
X39249869Y-93673581D01*
X39209500Y-93876532D01*
X33203794Y-93876532D01*
X34491616Y-92588710D01*
X55329500Y-92588710D01*
X55329500Y-92831289D01*
X55361161Y-93071781D01*
X55361161Y-93071786D01*
X55423944Y-93306092D01*
X55423948Y-93306105D01*
X55516772Y-93530204D01*
X55516774Y-93530208D01*
X55516776Y-93530212D01*
X55635299Y-93735500D01*
X55638066Y-93740292D01*
X55785729Y-93932731D01*
X55785731Y-93932733D01*
X55785735Y-93932738D01*
X55957262Y-94104265D01*
X55957266Y-94104268D01*
X55957268Y-94104270D01*
X55995367Y-94133504D01*
X56149711Y-94251936D01*
X56359788Y-94373224D01*
X56583900Y-94466054D01*
X56818211Y-94528838D01*
X57058712Y-94560500D01*
X57058713Y-94560500D01*
X57301287Y-94560500D01*
X57301288Y-94560500D01*
X57541789Y-94528838D01*
X57776100Y-94466054D01*
X58000212Y-94373224D01*
X58210289Y-94251936D01*
X58402738Y-94104265D01*
X58574265Y-93932738D01*
X58617393Y-93876532D01*
X74049500Y-93876532D01*
X74049500Y-94083467D01*
X74089869Y-94286418D01*
X74169058Y-94477597D01*
X74284020Y-94649651D01*
X74284023Y-94649655D01*
X74430345Y-94795977D01*
X74602402Y-94910941D01*
X74793580Y-94990130D01*
X74996535Y-95030500D01*
X74996536Y-95030500D01*
X75203464Y-95030500D01*
X75203465Y-95030500D01*
X75406420Y-94990130D01*
X75597598Y-94910941D01*
X75769655Y-94795977D01*
X75915977Y-94649655D01*
X76030941Y-94477598D01*
X76110130Y-94286420D01*
X76150500Y-94083465D01*
X76150500Y-93876535D01*
X76110130Y-93673580D01*
X76030941Y-93482402D01*
X75915977Y-93310345D01*
X75769655Y-93164023D01*
X75769651Y-93164020D01*
X75597597Y-93049058D01*
X75406418Y-92969869D01*
X75203467Y-92929500D01*
X75203465Y-92929500D01*
X74996535Y-92929500D01*
X74996532Y-92929500D01*
X74793581Y-92969869D01*
X74602402Y-93049058D01*
X74430348Y-93164020D01*
X74284020Y-93310348D01*
X74169058Y-93482402D01*
X74089869Y-93673581D01*
X74049500Y-93876532D01*
X58617393Y-93876532D01*
X58661481Y-93819076D01*
X58667368Y-93811404D01*
X58685368Y-93787944D01*
X58721936Y-93740289D01*
X58843224Y-93530212D01*
X58936054Y-93306100D01*
X58998838Y-93071789D01*
X59030500Y-92831288D01*
X59030500Y-92588712D01*
X58998838Y-92348211D01*
X58936054Y-92113900D01*
X58843224Y-91889788D01*
X58721936Y-91679711D01*
X58574265Y-91487262D01*
X58402738Y-91315735D01*
X58402733Y-91315731D01*
X58402731Y-91315729D01*
X58210292Y-91168066D01*
X58152154Y-91134500D01*
X58000212Y-91046776D01*
X58000208Y-91046774D01*
X58000204Y-91046772D01*
X57776105Y-90953948D01*
X57776104Y-90953947D01*
X57776100Y-90953946D01*
X57541789Y-90891162D01*
X57541786Y-90891161D01*
X57541784Y-90891161D01*
X57301289Y-90859500D01*
X57301288Y-90859500D01*
X57058712Y-90859500D01*
X57058710Y-90859500D01*
X56818218Y-90891161D01*
X56818213Y-90891161D01*
X56583907Y-90953944D01*
X56583894Y-90953948D01*
X56359795Y-91046772D01*
X56149707Y-91168066D01*
X55957268Y-91315729D01*
X55785729Y-91487268D01*
X55638066Y-91679707D01*
X55516772Y-91889795D01*
X55423948Y-92113894D01*
X55423944Y-92113907D01*
X55361161Y-92348213D01*
X55361161Y-92348218D01*
X55329500Y-92588710D01*
X34491616Y-92588710D01*
X36555831Y-90524496D01*
X36610348Y-90496719D01*
X36625835Y-90495500D01*
X74468046Y-90495500D01*
X74526237Y-90514407D01*
X74538050Y-90524496D01*
X74970591Y-90957037D01*
X74907007Y-90974075D01*
X74792993Y-91039901D01*
X74699901Y-91132993D01*
X74634075Y-91247007D01*
X74617037Y-91310591D01*
X74201377Y-90894931D01*
X74169501Y-90942638D01*
X74090349Y-91133727D01*
X74050000Y-91336581D01*
X74050000Y-91543418D01*
X74090349Y-91746272D01*
X74169501Y-91937360D01*
X74169505Y-91937369D01*
X74201377Y-91985067D01*
X74617036Y-91569407D01*
X74634075Y-91632993D01*
X74699901Y-91747007D01*
X74792993Y-91840099D01*
X74907007Y-91905925D01*
X74970590Y-91922962D01*
X74554931Y-92338621D01*
X74602639Y-92370498D01*
X74793727Y-92449650D01*
X74996581Y-92489999D01*
X74996586Y-92490000D01*
X75203414Y-92490000D01*
X75203418Y-92489999D01*
X75406272Y-92449650D01*
X75597359Y-92370499D01*
X75645068Y-92338621D01*
X75229409Y-91922962D01*
X75292993Y-91905925D01*
X75407007Y-91840099D01*
X75500099Y-91747007D01*
X75565925Y-91632993D01*
X75582962Y-91569409D01*
X75998621Y-91985068D01*
X76030499Y-91937359D01*
X76109650Y-91746272D01*
X76149999Y-91543418D01*
X76150000Y-91543413D01*
X76150000Y-91336586D01*
X76149999Y-91336581D01*
X76109650Y-91133727D01*
X76030498Y-90942639D01*
X75998621Y-90894931D01*
X75582962Y-91310590D01*
X75565925Y-91247007D01*
X75500099Y-91132993D01*
X75407007Y-91039901D01*
X75292993Y-90974075D01*
X75229407Y-90957036D01*
X75661949Y-90524496D01*
X75716466Y-90496719D01*
X75731953Y-90495500D01*
X119468046Y-90495500D01*
X119526237Y-90514407D01*
X119538050Y-90524496D01*
X119970591Y-90957037D01*
X119907007Y-90974075D01*
X119792993Y-91039901D01*
X119699901Y-91132993D01*
X119634075Y-91247007D01*
X119617037Y-91310591D01*
X119201377Y-90894931D01*
X119169501Y-90942638D01*
X119090349Y-91133727D01*
X119050000Y-91336581D01*
X119050000Y-91543418D01*
X119090349Y-91746272D01*
X119169501Y-91937360D01*
X119169505Y-91937369D01*
X119201377Y-91985067D01*
X119617036Y-91569407D01*
X119634075Y-91632993D01*
X119699901Y-91747007D01*
X119792993Y-91840099D01*
X119907007Y-91905925D01*
X119970590Y-91922962D01*
X119538049Y-92355504D01*
X119483532Y-92383281D01*
X119468045Y-92384500D01*
X78958932Y-92384500D01*
X78958916Y-92384499D01*
X78952853Y-92384499D01*
X78867147Y-92384499D01*
X78867144Y-92384499D01*
X78784361Y-92406681D01*
X78754444Y-92423954D01*
X78754441Y-92423955D01*
X78747250Y-92428108D01*
X78710138Y-92449535D01*
X78649535Y-92510138D01*
X78649533Y-92510140D01*
X78646231Y-92513441D01*
X78646226Y-92513446D01*
X75625291Y-95534380D01*
X75570774Y-95562157D01*
X75517402Y-95555840D01*
X75406420Y-95509870D01*
X75203467Y-95469500D01*
X75203465Y-95469500D01*
X74996535Y-95469500D01*
X74996532Y-95469500D01*
X74793581Y-95509869D01*
X74602402Y-95589058D01*
X74430348Y-95704020D01*
X74284020Y-95850348D01*
X74169058Y-96022402D01*
X74089869Y-96213581D01*
X74049500Y-96416532D01*
X74049500Y-96623467D01*
X74089869Y-96826418D01*
X74123088Y-96906614D01*
X74169059Y-97017598D01*
X74214429Y-97085499D01*
X74281061Y-97185223D01*
X74284023Y-97189655D01*
X74430345Y-97335977D01*
X74602402Y-97450941D01*
X74793580Y-97530130D01*
X74996535Y-97570500D01*
X74996536Y-97570500D01*
X75203464Y-97570500D01*
X75203465Y-97570500D01*
X75406420Y-97530130D01*
X75597598Y-97450941D01*
X75769655Y-97335977D01*
X75915977Y-97189655D01*
X76030941Y-97017598D01*
X76110130Y-96826420D01*
X76150500Y-96623465D01*
X76150500Y-96416535D01*
X76150499Y-96416532D01*
X84209500Y-96416532D01*
X84209500Y-96623467D01*
X84249869Y-96826418D01*
X84283088Y-96906614D01*
X84329059Y-97017598D01*
X84374429Y-97085499D01*
X84441061Y-97185223D01*
X84444023Y-97189655D01*
X84590345Y-97335977D01*
X84762402Y-97450941D01*
X84953580Y-97530130D01*
X85156535Y-97570500D01*
X85156536Y-97570500D01*
X85363464Y-97570500D01*
X85363465Y-97570500D01*
X85566420Y-97530130D01*
X85757598Y-97450941D01*
X85929655Y-97335977D01*
X86075977Y-97189655D01*
X86190941Y-97017598D01*
X86270130Y-96826420D01*
X86310500Y-96623465D01*
X86310500Y-96416535D01*
X86270130Y-96213580D01*
X86190941Y-96022402D01*
X86075977Y-95850345D01*
X85929655Y-95704023D01*
X85929651Y-95704020D01*
X85757597Y-95589058D01*
X85566418Y-95509869D01*
X85363467Y-95469500D01*
X85363465Y-95469500D01*
X85156535Y-95469500D01*
X85156532Y-95469500D01*
X84953581Y-95509869D01*
X84762402Y-95589058D01*
X84590348Y-95704020D01*
X84444020Y-95850348D01*
X84329058Y-96022402D01*
X84249869Y-96213581D01*
X84209500Y-96416532D01*
X76150499Y-96416532D01*
X76110130Y-96213580D01*
X76064157Y-96102594D01*
X76059357Y-96041601D01*
X76085616Y-95994709D01*
X79015830Y-93064496D01*
X79070347Y-93036719D01*
X79085834Y-93035500D01*
X84479861Y-93035500D01*
X84538052Y-93054407D01*
X84574016Y-93103907D01*
X84574016Y-93165093D01*
X84549866Y-93204501D01*
X84485260Y-93269108D01*
X84444020Y-93310348D01*
X84329058Y-93482402D01*
X84249869Y-93673581D01*
X84209500Y-93876532D01*
X84209500Y-94083467D01*
X84249869Y-94286418D01*
X84329058Y-94477597D01*
X84444020Y-94649651D01*
X84444023Y-94649655D01*
X84590345Y-94795977D01*
X84762402Y-94910941D01*
X84953580Y-94990130D01*
X85156535Y-95030500D01*
X85156536Y-95030500D01*
X85363464Y-95030500D01*
X85363465Y-95030500D01*
X85566420Y-94990130D01*
X85757598Y-94910941D01*
X85929655Y-94795977D01*
X86075977Y-94649655D01*
X86190941Y-94477598D01*
X86270130Y-94286420D01*
X86310500Y-94083465D01*
X86310500Y-93876535D01*
X86270130Y-93673580D01*
X86190941Y-93482402D01*
X86075977Y-93310345D01*
X85970133Y-93204501D01*
X85942358Y-93149987D01*
X85951929Y-93089555D01*
X85995194Y-93046290D01*
X86040139Y-93035500D01*
X119319861Y-93035500D01*
X119378052Y-93054407D01*
X119414016Y-93103907D01*
X119414016Y-93165093D01*
X119389866Y-93204501D01*
X119325260Y-93269108D01*
X119284020Y-93310348D01*
X119169058Y-93482402D01*
X119089869Y-93673581D01*
X119049500Y-93876532D01*
X119049500Y-94083467D01*
X119089869Y-94286418D01*
X119169058Y-94477597D01*
X119284020Y-94649651D01*
X119284023Y-94649655D01*
X119430345Y-94795977D01*
X119602402Y-94910941D01*
X119793580Y-94990130D01*
X119996535Y-95030500D01*
X119996536Y-95030500D01*
X120203464Y-95030500D01*
X120203465Y-95030500D01*
X120406420Y-94990130D01*
X120597598Y-94910941D01*
X120769655Y-94795977D01*
X120915977Y-94649655D01*
X121030941Y-94477598D01*
X121110130Y-94286420D01*
X121150500Y-94083465D01*
X121150500Y-93876535D01*
X121110130Y-93673580D01*
X121030941Y-93482402D01*
X120915977Y-93310345D01*
X120810133Y-93204501D01*
X120782358Y-93149987D01*
X120791929Y-93089555D01*
X120835194Y-93046290D01*
X120880139Y-93035500D01*
X129479861Y-93035500D01*
X129538052Y-93054407D01*
X129574016Y-93103907D01*
X129574016Y-93165093D01*
X129549866Y-93204501D01*
X129485260Y-93269108D01*
X129444020Y-93310348D01*
X129329058Y-93482402D01*
X129249869Y-93673581D01*
X129209500Y-93876532D01*
X129209500Y-94083467D01*
X129249869Y-94286418D01*
X129329058Y-94477597D01*
X129444020Y-94649651D01*
X129444023Y-94649655D01*
X129549866Y-94755498D01*
X129577642Y-94810013D01*
X129568071Y-94870445D01*
X129524806Y-94913710D01*
X129479861Y-94924500D01*
X121412853Y-94924500D01*
X121327147Y-94924500D01*
X121277357Y-94937841D01*
X121244356Y-94946683D01*
X121170142Y-94989531D01*
X121170137Y-94989535D01*
X120625290Y-95534380D01*
X120570774Y-95562157D01*
X120517402Y-95555840D01*
X120406420Y-95509870D01*
X120203467Y-95469500D01*
X120203465Y-95469500D01*
X119996535Y-95469500D01*
X119996532Y-95469500D01*
X119793581Y-95509869D01*
X119602402Y-95589058D01*
X119430348Y-95704020D01*
X119284020Y-95850348D01*
X119169058Y-96022402D01*
X119089869Y-96213581D01*
X119049500Y-96416532D01*
X119049500Y-96623467D01*
X119089869Y-96826418D01*
X119123088Y-96906614D01*
X119169059Y-97017598D01*
X119214429Y-97085499D01*
X119281061Y-97185223D01*
X119284023Y-97189655D01*
X119430345Y-97335977D01*
X119602402Y-97450941D01*
X119793580Y-97530130D01*
X119996535Y-97570500D01*
X119996536Y-97570500D01*
X120203464Y-97570500D01*
X120203465Y-97570500D01*
X120406420Y-97530130D01*
X120597598Y-97450941D01*
X120769655Y-97335977D01*
X120915977Y-97189655D01*
X121030941Y-97017598D01*
X121110130Y-96826420D01*
X121150500Y-96623465D01*
X121150500Y-96416535D01*
X121110130Y-96213580D01*
X121064157Y-96102594D01*
X121059357Y-96041600D01*
X121085617Y-95994708D01*
X121475831Y-95604496D01*
X121530347Y-95576719D01*
X121545834Y-95575500D01*
X129479861Y-95575500D01*
X129538052Y-95594407D01*
X129574016Y-95643907D01*
X129574016Y-95705093D01*
X129549866Y-95744501D01*
X129489508Y-95804860D01*
X129444020Y-95850348D01*
X129329058Y-96022402D01*
X129249869Y-96213581D01*
X129209500Y-96416532D01*
X129209500Y-96623467D01*
X129249869Y-96826418D01*
X129283088Y-96906614D01*
X129329059Y-97017598D01*
X129374429Y-97085499D01*
X129441061Y-97185223D01*
X129444023Y-97189655D01*
X129590345Y-97335977D01*
X129762402Y-97450941D01*
X129953580Y-97530130D01*
X130156535Y-97570500D01*
X130156536Y-97570500D01*
X130363464Y-97570500D01*
X130363465Y-97570500D01*
X130566420Y-97530130D01*
X130757598Y-97450941D01*
X130929655Y-97335977D01*
X131075977Y-97189655D01*
X131190941Y-97017598D01*
X131270130Y-96826420D01*
X131310500Y-96623465D01*
X131310500Y-96416535D01*
X131270130Y-96213580D01*
X131190941Y-96022402D01*
X131075977Y-95850345D01*
X130970133Y-95744501D01*
X130942358Y-95689987D01*
X130951929Y-95629555D01*
X130995194Y-95586290D01*
X131040139Y-95575500D01*
X164319861Y-95575500D01*
X164378052Y-95594407D01*
X164414016Y-95643907D01*
X164414016Y-95705093D01*
X164389866Y-95744501D01*
X164329508Y-95804860D01*
X164284020Y-95850348D01*
X164169058Y-96022402D01*
X164089869Y-96213581D01*
X164049500Y-96416532D01*
X164049500Y-96623467D01*
X164089869Y-96826418D01*
X164123088Y-96906614D01*
X164169059Y-97017598D01*
X164214429Y-97085499D01*
X164281061Y-97185223D01*
X164284023Y-97189655D01*
X164430345Y-97335977D01*
X164602402Y-97450941D01*
X164793580Y-97530130D01*
X164996535Y-97570500D01*
X164996536Y-97570500D01*
X165203464Y-97570500D01*
X165203465Y-97570500D01*
X165406420Y-97530130D01*
X165597598Y-97450941D01*
X165769655Y-97335977D01*
X165915977Y-97189655D01*
X166030941Y-97017598D01*
X166047979Y-96976465D01*
X166076913Y-96906614D01*
X166116650Y-96860088D01*
X166168377Y-96845500D01*
X169342165Y-96845500D01*
X169400356Y-96864407D01*
X169412169Y-96874496D01*
X170190169Y-97652496D01*
X170217946Y-97707013D01*
X170208375Y-97767445D01*
X170165110Y-97810710D01*
X170120165Y-97821500D01*
X169509500Y-97821500D01*
X169451309Y-97802593D01*
X169415345Y-97753093D01*
X169411764Y-97730486D01*
X169411347Y-97730542D01*
X169410500Y-97724110D01*
X169410500Y-97724109D01*
X169410500Y-97724108D01*
X169376392Y-97596814D01*
X169376390Y-97596811D01*
X169376390Y-97596809D01*
X169310503Y-97482690D01*
X169310501Y-97482688D01*
X169310500Y-97482686D01*
X169217314Y-97389500D01*
X169217311Y-97389498D01*
X169217309Y-97389496D01*
X169103189Y-97323609D01*
X169103191Y-97323609D01*
X169026622Y-97303093D01*
X168975892Y-97289500D01*
X168844108Y-97289500D01*
X168793378Y-97303093D01*
X168716809Y-97323609D01*
X168602690Y-97389496D01*
X168509496Y-97482690D01*
X168443609Y-97596809D01*
X168443608Y-97596814D01*
X168409500Y-97724108D01*
X168409500Y-97855892D01*
X168426050Y-97917657D01*
X168443609Y-97983190D01*
X168509496Y-98097309D01*
X168509498Y-98097311D01*
X168509500Y-98097314D01*
X168514684Y-98102498D01*
X168542460Y-98157013D01*
X168532889Y-98217445D01*
X168489624Y-98260710D01*
X168444679Y-98271500D01*
X151342974Y-98271500D01*
X151284783Y-98252593D01*
X151248819Y-98203093D01*
X151248819Y-98141907D01*
X151284783Y-98092407D01*
X151312381Y-98078345D01*
X151342598Y-98068527D01*
X151504304Y-97986134D01*
X151651129Y-97879459D01*
X151779459Y-97751129D01*
X151886134Y-97604304D01*
X151968527Y-97442598D01*
X152024609Y-97269995D01*
X152024610Y-97269990D01*
X152053000Y-97090746D01*
X152053000Y-96909253D01*
X152024610Y-96730009D01*
X152024609Y-96730005D01*
X151968527Y-96557402D01*
X151886134Y-96395696D01*
X151779459Y-96248871D01*
X151651129Y-96120541D01*
X151504304Y-96013866D01*
X151504303Y-96013865D01*
X151504301Y-96013864D01*
X151342598Y-95931473D01*
X151169990Y-95875389D01*
X150990746Y-95847000D01*
X150990743Y-95847000D01*
X150809257Y-95847000D01*
X150809254Y-95847000D01*
X150630009Y-95875389D01*
X150457401Y-95931473D01*
X150295698Y-96013864D01*
X150148872Y-96120540D01*
X150020540Y-96248872D01*
X149913864Y-96395698D01*
X149831473Y-96557401D01*
X149775389Y-96730009D01*
X149747000Y-96909253D01*
X149747000Y-97090746D01*
X149775389Y-97269990D01*
X149831473Y-97442598D01*
X149913732Y-97604042D01*
X149913866Y-97604304D01*
X150020541Y-97751129D01*
X150148871Y-97879459D01*
X150295696Y-97986134D01*
X150457402Y-98068527D01*
X150487619Y-98078345D01*
X150537119Y-98114309D01*
X150556026Y-98172500D01*
X150537119Y-98230691D01*
X150487619Y-98266655D01*
X150457026Y-98271500D01*
X148801358Y-98271500D01*
X148743167Y-98252593D01*
X148707203Y-98203093D01*
X148707203Y-98141907D01*
X148743167Y-98092407D01*
X148770765Y-98078345D01*
X148802407Y-98068063D01*
X148964035Y-97985710D01*
X148964043Y-97985705D01*
X148980323Y-97973877D01*
X148596007Y-97589561D01*
X148660785Y-97562729D01*
X148764789Y-97493236D01*
X148853236Y-97404789D01*
X148922729Y-97300785D01*
X148949561Y-97236007D01*
X149333877Y-97620323D01*
X149345705Y-97604043D01*
X149345710Y-97604035D01*
X149428063Y-97442407D01*
X149484123Y-97269873D01*
X149512500Y-97090707D01*
X149512500Y-96909292D01*
X149484123Y-96730126D01*
X149428063Y-96557592D01*
X149345708Y-96395960D01*
X149333877Y-96379675D01*
X148949560Y-96763991D01*
X148922729Y-96699215D01*
X148853236Y-96595211D01*
X148764789Y-96506764D01*
X148660785Y-96437271D01*
X148596005Y-96410438D01*
X148980323Y-96026121D01*
X148964042Y-96014293D01*
X148802407Y-95931936D01*
X148629873Y-95875876D01*
X148450707Y-95847500D01*
X148269293Y-95847500D01*
X148090126Y-95875876D01*
X147917592Y-95931936D01*
X147755953Y-96014295D01*
X147739675Y-96026121D01*
X148123992Y-96410438D01*
X148059215Y-96437271D01*
X147955211Y-96506764D01*
X147866764Y-96595211D01*
X147797271Y-96699215D01*
X147770438Y-96763992D01*
X147386121Y-96379675D01*
X147374295Y-96395953D01*
X147291936Y-96557592D01*
X147235876Y-96730126D01*
X147207500Y-96909292D01*
X147207500Y-97090707D01*
X147235876Y-97269873D01*
X147291936Y-97442407D01*
X147374293Y-97604042D01*
X147386121Y-97620323D01*
X147770438Y-97236005D01*
X147797271Y-97300785D01*
X147866764Y-97404789D01*
X147955211Y-97493236D01*
X148059215Y-97562729D01*
X148123991Y-97589560D01*
X147739675Y-97973877D01*
X147755960Y-97985708D01*
X147917592Y-98068063D01*
X147949235Y-98078345D01*
X147998735Y-98114309D01*
X148017642Y-98172500D01*
X147998735Y-98230691D01*
X147949235Y-98266655D01*
X147918642Y-98271500D01*
X146262974Y-98271500D01*
X146204783Y-98252593D01*
X146168819Y-98203093D01*
X146168819Y-98141907D01*
X146204783Y-98092407D01*
X146232381Y-98078345D01*
X146262598Y-98068527D01*
X146424304Y-97986134D01*
X146571129Y-97879459D01*
X146699459Y-97751129D01*
X146806134Y-97604304D01*
X146888527Y-97442598D01*
X146944609Y-97269995D01*
X146944610Y-97269990D01*
X146973000Y-97090746D01*
X146973000Y-96909253D01*
X146944610Y-96730009D01*
X146944609Y-96730005D01*
X146888527Y-96557402D01*
X146806134Y-96395696D01*
X146699459Y-96248871D01*
X146571129Y-96120541D01*
X146424304Y-96013866D01*
X146424303Y-96013865D01*
X146424301Y-96013864D01*
X146262598Y-95931473D01*
X146089990Y-95875389D01*
X145910746Y-95847000D01*
X145910743Y-95847000D01*
X145729257Y-95847000D01*
X145729254Y-95847000D01*
X145550009Y-95875389D01*
X145377401Y-95931473D01*
X145215698Y-96013864D01*
X145068872Y-96120540D01*
X144940540Y-96248872D01*
X144833864Y-96395698D01*
X144751473Y-96557401D01*
X144695389Y-96730009D01*
X144667000Y-96909253D01*
X144667000Y-97090746D01*
X144695389Y-97269990D01*
X144751473Y-97442598D01*
X144833732Y-97604042D01*
X144833866Y-97604304D01*
X144940541Y-97751129D01*
X145068871Y-97879459D01*
X145215696Y-97986134D01*
X145377402Y-98068527D01*
X145407619Y-98078345D01*
X145457119Y-98114309D01*
X145476026Y-98172500D01*
X145457119Y-98230691D01*
X145407619Y-98266655D01*
X145377026Y-98271500D01*
X143722974Y-98271500D01*
X143664783Y-98252593D01*
X143628819Y-98203093D01*
X143628819Y-98141907D01*
X143664783Y-98092407D01*
X143692381Y-98078345D01*
X143722598Y-98068527D01*
X143884304Y-97986134D01*
X144031129Y-97879459D01*
X144159459Y-97751129D01*
X144266134Y-97604304D01*
X144348527Y-97442598D01*
X144404609Y-97269995D01*
X144404610Y-97269990D01*
X144433000Y-97090746D01*
X144433000Y-96909253D01*
X144404610Y-96730009D01*
X144404609Y-96730005D01*
X144348527Y-96557402D01*
X144266134Y-96395696D01*
X144159459Y-96248871D01*
X144031129Y-96120541D01*
X143884304Y-96013866D01*
X143884303Y-96013865D01*
X143884301Y-96013864D01*
X143722598Y-95931473D01*
X143549990Y-95875389D01*
X143370746Y-95847000D01*
X143370743Y-95847000D01*
X143189257Y-95847000D01*
X143189254Y-95847000D01*
X143010009Y-95875389D01*
X142837401Y-95931473D01*
X142675698Y-96013864D01*
X142528872Y-96120540D01*
X142400540Y-96248872D01*
X142293864Y-96395698D01*
X142211473Y-96557401D01*
X142155389Y-96730009D01*
X142127000Y-96909253D01*
X142127000Y-97090746D01*
X142155389Y-97269990D01*
X142211473Y-97442598D01*
X142293732Y-97604042D01*
X142293866Y-97604304D01*
X142400541Y-97751129D01*
X142528871Y-97879459D01*
X142675696Y-97986134D01*
X142837402Y-98068527D01*
X142867619Y-98078345D01*
X142917119Y-98114309D01*
X142936026Y-98172500D01*
X142917119Y-98230691D01*
X142867619Y-98266655D01*
X142837026Y-98271500D01*
X28254500Y-98271500D01*
X28196309Y-98252593D01*
X28160345Y-98203093D01*
X28155500Y-98172500D01*
X28155500Y-93876532D01*
X29049500Y-93876532D01*
X29049500Y-94083467D01*
X29089869Y-94286418D01*
X29169058Y-94477597D01*
X29284020Y-94649651D01*
X29284023Y-94649655D01*
X29430345Y-94795977D01*
X29602402Y-94910941D01*
X29793580Y-94990130D01*
X29996535Y-95030500D01*
X29996536Y-95030500D01*
X30203464Y-95030500D01*
X30203465Y-95030500D01*
X30406420Y-94990130D01*
X30597598Y-94910941D01*
X30769655Y-94795977D01*
X30915977Y-94649655D01*
X31030941Y-94477598D01*
X31110130Y-94286420D01*
X31150500Y-94083465D01*
X31150500Y-93876535D01*
X31110130Y-93673580D01*
X31030941Y-93482402D01*
X30915977Y-93310345D01*
X30769655Y-93164023D01*
X30769651Y-93164020D01*
X30597597Y-93049058D01*
X30406418Y-92969869D01*
X30203467Y-92929500D01*
X30203465Y-92929500D01*
X29996535Y-92929500D01*
X29996532Y-92929500D01*
X29793581Y-92969869D01*
X29602402Y-93049058D01*
X29430348Y-93164020D01*
X29284020Y-93310348D01*
X29169058Y-93482402D01*
X29089869Y-93673581D01*
X29049500Y-93876532D01*
X28155500Y-93876532D01*
X28155500Y-91336581D01*
X29050000Y-91336581D01*
X29050000Y-91543418D01*
X29090349Y-91746272D01*
X29169501Y-91937360D01*
X29169505Y-91937369D01*
X29201377Y-91985067D01*
X29617036Y-91569407D01*
X29634075Y-91632993D01*
X29699901Y-91747007D01*
X29792993Y-91840099D01*
X29907007Y-91905925D01*
X29970590Y-91922962D01*
X29554931Y-92338621D01*
X29602639Y-92370498D01*
X29793727Y-92449650D01*
X29996581Y-92489999D01*
X29996586Y-92490000D01*
X30203414Y-92490000D01*
X30203418Y-92489999D01*
X30406272Y-92449650D01*
X30597359Y-92370499D01*
X30645068Y-92338621D01*
X30229409Y-91922962D01*
X30292993Y-91905925D01*
X30407007Y-91840099D01*
X30500099Y-91747007D01*
X30565925Y-91632993D01*
X30582962Y-91569409D01*
X30998621Y-91985068D01*
X31030499Y-91937359D01*
X31109650Y-91746272D01*
X31149999Y-91543418D01*
X31150000Y-91543413D01*
X31150000Y-91336586D01*
X31149999Y-91336581D01*
X31109650Y-91133727D01*
X31030498Y-90942639D01*
X30998621Y-90894931D01*
X30582962Y-91310590D01*
X30565925Y-91247007D01*
X30500099Y-91132993D01*
X30407007Y-91039901D01*
X30292993Y-90974075D01*
X30229407Y-90957036D01*
X30645067Y-90541377D01*
X30597369Y-90509505D01*
X30597360Y-90509501D01*
X30406272Y-90430349D01*
X30203418Y-90390000D01*
X29996581Y-90390000D01*
X29793727Y-90430349D01*
X29602638Y-90509501D01*
X29554931Y-90541377D01*
X29970591Y-90957037D01*
X29907007Y-90974075D01*
X29792993Y-91039901D01*
X29699901Y-91132993D01*
X29634075Y-91247007D01*
X29617037Y-91310591D01*
X29201377Y-90894931D01*
X29169501Y-90942638D01*
X29090349Y-91133727D01*
X29050000Y-91336581D01*
X28155500Y-91336581D01*
X28155500Y-88030253D01*
X29049500Y-88030253D01*
X29049500Y-89769746D01*
X29049501Y-89769758D01*
X29061132Y-89828227D01*
X29061134Y-89828233D01*
X29086826Y-89866683D01*
X29105448Y-89894552D01*
X29171769Y-89938867D01*
X29216231Y-89947711D01*
X29230241Y-89950498D01*
X29230246Y-89950498D01*
X29230252Y-89950500D01*
X29230253Y-89950500D01*
X30969747Y-89950500D01*
X30969748Y-89950500D01*
X31028231Y-89938867D01*
X31094552Y-89894552D01*
X31138867Y-89828231D01*
X31150500Y-89769748D01*
X31150500Y-88030252D01*
X31138867Y-87971769D01*
X31094552Y-87905448D01*
X31037266Y-87867170D01*
X31028233Y-87861134D01*
X31028231Y-87861133D01*
X31028228Y-87861132D01*
X31028227Y-87861132D01*
X30969758Y-87849501D01*
X30969748Y-87849500D01*
X29230252Y-87849500D01*
X29230251Y-87849500D01*
X29230241Y-87849501D01*
X29171772Y-87861132D01*
X29171766Y-87861134D01*
X29105451Y-87905445D01*
X29105445Y-87905451D01*
X29061134Y-87971766D01*
X29061132Y-87971772D01*
X29049501Y-88030241D01*
X29049500Y-88030253D01*
X28155500Y-88030253D01*
X28155500Y-87371500D01*
X28174407Y-87313309D01*
X28223907Y-87277345D01*
X28254500Y-87272500D01*
X145428166Y-87272500D01*
X145486357Y-87291407D01*
G37*
%TD.AperFunction*%
%TA.AperFunction,Conductor*%
G36*
X209341908Y-93042663D02*
G01*
X209364806Y-93046290D01*
X209370454Y-93051938D01*
X209378052Y-93054407D01*
X209391679Y-93073163D01*
X209408071Y-93089555D01*
X209409320Y-93097444D01*
X209414016Y-93103907D01*
X209414016Y-93127092D01*
X209417642Y-93149987D01*
X209414016Y-93157154D01*
X209414016Y-93165093D01*
X209391003Y-93202646D01*
X209390270Y-93204096D01*
X209390098Y-93204269D01*
X209284023Y-93310345D01*
X209281471Y-93314163D01*
X209281468Y-93314167D01*
X209169058Y-93482402D01*
X209089869Y-93673581D01*
X209049500Y-93876532D01*
X209049500Y-94083467D01*
X209089870Y-94286419D01*
X209089870Y-94286421D01*
X209135840Y-94397402D01*
X209140641Y-94458398D01*
X209114380Y-94505291D01*
X207069169Y-96550504D01*
X207014652Y-96578281D01*
X206999165Y-96579500D01*
X201145834Y-96579500D01*
X201087643Y-96560593D01*
X201051679Y-96511093D01*
X201051679Y-96449907D01*
X201075828Y-96410498D01*
X204421831Y-93064496D01*
X204476348Y-93036719D01*
X204491835Y-93035500D01*
X209319861Y-93035500D01*
X209341908Y-93042663D01*
G37*
%TD.AperFunction*%
%TA.AperFunction,Conductor*%
G36*
X209526237Y-90514407D02*
G01*
X209538050Y-90524496D01*
X209970591Y-90957037D01*
X209907007Y-90974075D01*
X209792993Y-91039901D01*
X209699901Y-91132993D01*
X209634075Y-91247007D01*
X209617037Y-91310591D01*
X209201377Y-90894931D01*
X209169501Y-90942638D01*
X209090349Y-91133727D01*
X209050000Y-91336581D01*
X209050000Y-91543418D01*
X209090349Y-91746272D01*
X209169501Y-91937360D01*
X209169505Y-91937369D01*
X209201377Y-91985067D01*
X209617036Y-91569407D01*
X209634075Y-91632993D01*
X209699901Y-91747007D01*
X209792993Y-91840099D01*
X209907007Y-91905925D01*
X209970590Y-91922962D01*
X209538049Y-92355504D01*
X209483532Y-92383281D01*
X209468045Y-92384500D01*
X204578834Y-92384500D01*
X204520643Y-92365593D01*
X204484679Y-92316093D01*
X204484679Y-92254907D01*
X204508830Y-92215496D01*
X206199830Y-90524496D01*
X206254347Y-90496719D01*
X206269834Y-90495500D01*
X209468046Y-90495500D01*
X209526237Y-90514407D01*
G37*
%TD.AperFunction*%
%TA.AperFunction,Conductor*%
G36*
X211564356Y-90514407D02*
G01*
X211576169Y-90524496D01*
X213267169Y-92215496D01*
X213294946Y-92270013D01*
X213285375Y-92330445D01*
X213242110Y-92373710D01*
X213197165Y-92384500D01*
X210731955Y-92384500D01*
X210673764Y-92365593D01*
X210661951Y-92355504D01*
X210229409Y-91922962D01*
X210292993Y-91905925D01*
X210407007Y-91840099D01*
X210500099Y-91747007D01*
X210565925Y-91632993D01*
X210582962Y-91569409D01*
X210998621Y-91985068D01*
X211030499Y-91937359D01*
X211109650Y-91746272D01*
X211149999Y-91543418D01*
X211150000Y-91543413D01*
X211150000Y-91336586D01*
X211149999Y-91336581D01*
X211109650Y-91133727D01*
X211030498Y-90942639D01*
X210998621Y-90894931D01*
X210582962Y-91310590D01*
X210565925Y-91247007D01*
X210500099Y-91132993D01*
X210407007Y-91039901D01*
X210292993Y-90974075D01*
X210229407Y-90957036D01*
X210661949Y-90524496D01*
X210716466Y-90496719D01*
X210731953Y-90495500D01*
X211506165Y-90495500D01*
X211564356Y-90514407D01*
G37*
%TD.AperFunction*%
%TA.AperFunction,Conductor*%
G36*
X267113691Y-87291407D02*
G01*
X267149655Y-87340907D01*
X267154500Y-87371500D01*
X267154500Y-98172500D01*
X267135593Y-98230691D01*
X267086093Y-98266655D01*
X267055500Y-98271500D01*
X192341835Y-98271500D01*
X192283644Y-98252593D01*
X192247680Y-98203093D01*
X192247680Y-98141907D01*
X192271831Y-98102497D01*
X192594326Y-97780001D01*
X193024500Y-97780001D01*
X193024500Y-97799700D01*
X193036103Y-97858036D01*
X193080306Y-97924189D01*
X193080310Y-97924193D01*
X193146463Y-97968396D01*
X193204799Y-97979999D01*
X193204803Y-97980000D01*
X193736999Y-97980000D01*
X193737000Y-97979999D01*
X193737000Y-97780001D01*
X194187000Y-97780001D01*
X194187000Y-97979999D01*
X194187001Y-97980000D01*
X194719197Y-97980000D01*
X194719200Y-97979999D01*
X194777536Y-97968396D01*
X194843689Y-97924193D01*
X194843693Y-97924189D01*
X194887896Y-97858036D01*
X194899499Y-97799700D01*
X194899500Y-97799697D01*
X194899500Y-97780001D01*
X194899499Y-97780000D01*
X194187001Y-97780000D01*
X194187000Y-97780001D01*
X193737000Y-97780001D01*
X193736999Y-97780000D01*
X193024501Y-97780000D01*
X193024500Y-97780001D01*
X192594326Y-97780001D01*
X192705335Y-97668991D01*
X193015330Y-97358996D01*
X193069847Y-97331219D01*
X193085334Y-97330000D01*
X193194811Y-97330000D01*
X193204512Y-97330476D01*
X193204748Y-97330499D01*
X193204752Y-97330500D01*
X193204756Y-97330500D01*
X194719244Y-97330500D01*
X194719248Y-97330500D01*
X194719251Y-97330499D01*
X194719488Y-97330476D01*
X194729189Y-97330000D01*
X194899499Y-97330000D01*
X194899500Y-97329999D01*
X194899500Y-97310302D01*
X194899499Y-97310299D01*
X194887623Y-97250593D01*
X194887624Y-97211963D01*
X194888366Y-97208232D01*
X194888367Y-97208231D01*
X194896874Y-97165465D01*
X194899999Y-97149755D01*
X194900000Y-97149746D01*
X194900000Y-96660253D01*
X194899998Y-96660241D01*
X194887879Y-96599315D01*
X194887879Y-96560685D01*
X194899998Y-96499758D01*
X194900000Y-96499746D01*
X194900000Y-96010253D01*
X194899998Y-96010241D01*
X194887879Y-95949315D01*
X194887879Y-95910685D01*
X194899998Y-95849758D01*
X194900000Y-95849746D01*
X194900000Y-95360253D01*
X194899998Y-95360241D01*
X194887879Y-95299315D01*
X194887879Y-95260685D01*
X194899998Y-95199758D01*
X194900000Y-95199746D01*
X194900000Y-94710253D01*
X194899998Y-94710241D01*
X194887879Y-94649315D01*
X194887879Y-94610685D01*
X194899998Y-94549758D01*
X194900000Y-94549746D01*
X194900000Y-94060253D01*
X194899998Y-94060241D01*
X194887879Y-93999315D01*
X194887879Y-93960685D01*
X194899998Y-93899758D01*
X194900000Y-93899746D01*
X194900000Y-93410253D01*
X194899998Y-93410241D01*
X194887879Y-93349315D01*
X194887879Y-93310685D01*
X194899998Y-93249758D01*
X194900000Y-93249746D01*
X194900000Y-92764516D01*
X194900000Y-92760252D01*
X194899999Y-92760248D01*
X198900000Y-92760248D01*
X198900000Y-93249751D01*
X198912121Y-93310686D01*
X198912121Y-93349314D01*
X198900000Y-93410248D01*
X198900000Y-93899751D01*
X198912121Y-93960686D01*
X198912121Y-93999314D01*
X198900000Y-94060248D01*
X198900000Y-94549751D01*
X198912121Y-94610686D01*
X198912121Y-94649314D01*
X198900000Y-94710248D01*
X198900000Y-95199751D01*
X198912121Y-95260686D01*
X198912121Y-95299314D01*
X198900000Y-95360248D01*
X198900000Y-95849751D01*
X198912121Y-95910686D01*
X198912121Y-95949314D01*
X198900000Y-96010248D01*
X198900000Y-96499751D01*
X198912121Y-96560686D01*
X198912121Y-96599314D01*
X198900000Y-96660248D01*
X198900000Y-97149751D01*
X198912121Y-97210686D01*
X198912121Y-97249314D01*
X198900000Y-97310248D01*
X198900000Y-97799746D01*
X198900001Y-97799758D01*
X198911632Y-97858227D01*
X198911634Y-97858233D01*
X198955945Y-97924548D01*
X198955948Y-97924552D01*
X199022269Y-97968867D01*
X199066731Y-97977711D01*
X199080741Y-97980498D01*
X199080746Y-97980498D01*
X199080752Y-97980500D01*
X199080753Y-97980500D01*
X200595247Y-97980500D01*
X200595248Y-97980500D01*
X200653731Y-97968867D01*
X200720052Y-97924552D01*
X200720087Y-97924498D01*
X200720167Y-97924435D01*
X200726946Y-97917657D01*
X200727748Y-97918459D01*
X200768137Y-97886619D01*
X200802403Y-97880500D01*
X209107851Y-97880500D01*
X209107853Y-97880500D01*
X209190639Y-97858318D01*
X209190641Y-97858316D01*
X209190643Y-97858316D01*
X209264857Y-97815468D01*
X209264857Y-97815467D01*
X209264862Y-97815465D01*
X209574708Y-97505617D01*
X209629223Y-97477841D01*
X209682594Y-97484157D01*
X209793580Y-97530130D01*
X209996535Y-97570500D01*
X209996536Y-97570500D01*
X210203464Y-97570500D01*
X210203465Y-97570500D01*
X210406420Y-97530130D01*
X210597598Y-97450941D01*
X210769655Y-97335977D01*
X210915977Y-97189655D01*
X211030941Y-97017598D01*
X211110130Y-96826420D01*
X211150500Y-96623465D01*
X211150500Y-96416535D01*
X211150499Y-96416532D01*
X219209500Y-96416532D01*
X219209500Y-96623467D01*
X219249869Y-96826418D01*
X219283088Y-96906614D01*
X219329059Y-97017598D01*
X219374429Y-97085499D01*
X219441061Y-97185223D01*
X219444023Y-97189655D01*
X219590345Y-97335977D01*
X219762402Y-97450941D01*
X219953580Y-97530130D01*
X220156535Y-97570500D01*
X220156536Y-97570500D01*
X220363464Y-97570500D01*
X220363465Y-97570500D01*
X220566420Y-97530130D01*
X220757598Y-97450941D01*
X220929655Y-97335977D01*
X221075977Y-97189655D01*
X221190941Y-97017598D01*
X221270130Y-96826420D01*
X221310500Y-96623465D01*
X221310500Y-96416535D01*
X221270130Y-96213580D01*
X221190941Y-96022402D01*
X221075977Y-95850345D01*
X220929655Y-95704023D01*
X220929651Y-95704020D01*
X220757597Y-95589058D01*
X220566418Y-95509869D01*
X220363467Y-95469500D01*
X220363465Y-95469500D01*
X220156535Y-95469500D01*
X220156532Y-95469500D01*
X219953581Y-95509869D01*
X219762402Y-95589058D01*
X219590348Y-95704020D01*
X219444020Y-95850348D01*
X219329058Y-96022402D01*
X219249869Y-96213581D01*
X219209500Y-96416532D01*
X211150499Y-96416532D01*
X211110130Y-96213580D01*
X211030941Y-96022402D01*
X210915977Y-95850345D01*
X210769655Y-95704023D01*
X210769651Y-95704020D01*
X210597597Y-95589058D01*
X210406418Y-95509869D01*
X210203467Y-95469500D01*
X210203465Y-95469500D01*
X209996535Y-95469500D01*
X209996532Y-95469500D01*
X209793581Y-95509869D01*
X209602402Y-95589058D01*
X209430348Y-95704020D01*
X209284020Y-95850348D01*
X209169058Y-96022402D01*
X209089869Y-96213581D01*
X209049500Y-96416532D01*
X209049500Y-96623467D01*
X209089870Y-96826419D01*
X209089870Y-96826421D01*
X209135840Y-96937403D01*
X209140640Y-96998400D01*
X209114380Y-97045291D01*
X208959170Y-97200503D01*
X208904654Y-97228281D01*
X208889166Y-97229500D01*
X207549834Y-97229500D01*
X207491643Y-97210593D01*
X207455679Y-97161093D01*
X207455679Y-97099907D01*
X207479828Y-97060498D01*
X209574709Y-94965616D01*
X209629224Y-94937841D01*
X209682593Y-94944157D01*
X209793580Y-94990130D01*
X209996535Y-95030500D01*
X209996536Y-95030500D01*
X210203464Y-95030500D01*
X210203465Y-95030500D01*
X210406420Y-94990130D01*
X210597598Y-94910941D01*
X210769655Y-94795977D01*
X210915977Y-94649655D01*
X211030941Y-94477598D01*
X211110130Y-94286420D01*
X211150500Y-94083465D01*
X211150500Y-93876535D01*
X211110130Y-93673580D01*
X211030941Y-93482402D01*
X210915977Y-93310345D01*
X210810133Y-93204501D01*
X210782358Y-93149987D01*
X210791929Y-93089555D01*
X210835194Y-93046290D01*
X210880139Y-93035500D01*
X219479861Y-93035500D01*
X219538052Y-93054407D01*
X219574016Y-93103907D01*
X219574016Y-93165093D01*
X219549866Y-93204501D01*
X219485260Y-93269108D01*
X219444020Y-93310348D01*
X219329058Y-93482402D01*
X219249869Y-93673581D01*
X219209500Y-93876532D01*
X219209500Y-94083467D01*
X219249869Y-94286418D01*
X219329058Y-94477597D01*
X219444020Y-94649651D01*
X219444023Y-94649655D01*
X219590345Y-94795977D01*
X219762402Y-94910941D01*
X219953580Y-94990130D01*
X220156535Y-95030500D01*
X220156536Y-95030500D01*
X220363464Y-95030500D01*
X220363465Y-95030500D01*
X220566420Y-94990130D01*
X220757598Y-94910941D01*
X220929655Y-94795977D01*
X221075977Y-94649655D01*
X221190941Y-94477598D01*
X221270130Y-94286420D01*
X221310500Y-94083465D01*
X221310500Y-93876535D01*
X221270130Y-93673580D01*
X221190941Y-93482402D01*
X221075977Y-93310345D01*
X220970133Y-93204501D01*
X220942358Y-93149987D01*
X220951929Y-93089555D01*
X220995194Y-93046290D01*
X221040139Y-93035500D01*
X231697769Y-93035500D01*
X231755960Y-93054407D01*
X231767773Y-93064496D01*
X235619137Y-96915859D01*
X235619139Y-96915862D01*
X235679742Y-96976465D01*
X235750987Y-97017598D01*
X235753966Y-97019318D01*
X235836752Y-97041501D01*
X235836754Y-97041501D01*
X235928520Y-97041501D01*
X235928536Y-97041500D01*
X254132113Y-97041500D01*
X254190304Y-97060407D01*
X254214429Y-97085499D01*
X254281061Y-97185223D01*
X254284023Y-97189655D01*
X254430345Y-97335977D01*
X254602402Y-97450941D01*
X254793580Y-97530130D01*
X254996535Y-97570500D01*
X254996536Y-97570500D01*
X255203464Y-97570500D01*
X255203465Y-97570500D01*
X255406420Y-97530130D01*
X255597598Y-97450941D01*
X255769655Y-97335977D01*
X255915977Y-97189655D01*
X256030941Y-97017598D01*
X256110130Y-96826420D01*
X256150500Y-96623465D01*
X256150500Y-96416535D01*
X256150499Y-96416532D01*
X264209500Y-96416532D01*
X264209500Y-96623467D01*
X264249869Y-96826418D01*
X264283088Y-96906614D01*
X264329059Y-97017598D01*
X264374429Y-97085499D01*
X264441061Y-97185223D01*
X264444023Y-97189655D01*
X264590345Y-97335977D01*
X264762402Y-97450941D01*
X264953580Y-97530130D01*
X265156535Y-97570500D01*
X265156536Y-97570500D01*
X265363464Y-97570500D01*
X265363465Y-97570500D01*
X265566420Y-97530130D01*
X265757598Y-97450941D01*
X265929655Y-97335977D01*
X266075977Y-97189655D01*
X266190941Y-97017598D01*
X266270130Y-96826420D01*
X266310500Y-96623465D01*
X266310500Y-96416535D01*
X266270130Y-96213580D01*
X266190941Y-96022402D01*
X266075977Y-95850345D01*
X265929655Y-95704023D01*
X265929651Y-95704020D01*
X265757597Y-95589058D01*
X265566418Y-95509869D01*
X265363467Y-95469500D01*
X265363465Y-95469500D01*
X265156535Y-95469500D01*
X265156532Y-95469500D01*
X264953581Y-95509869D01*
X264762402Y-95589058D01*
X264590348Y-95704020D01*
X264444020Y-95850348D01*
X264329058Y-96022402D01*
X264249869Y-96213581D01*
X264209500Y-96416532D01*
X256150499Y-96416532D01*
X256110130Y-96213580D01*
X256030941Y-96022402D01*
X255915977Y-95850345D01*
X255769655Y-95704023D01*
X255769651Y-95704020D01*
X255597597Y-95589058D01*
X255406418Y-95509869D01*
X255203467Y-95469500D01*
X255203465Y-95469500D01*
X254996535Y-95469500D01*
X254996532Y-95469500D01*
X254793581Y-95509869D01*
X254602402Y-95589058D01*
X254430348Y-95704020D01*
X254284020Y-95850348D01*
X254169058Y-96022402D01*
X254089869Y-96213581D01*
X254070529Y-96310814D01*
X254040632Y-96364198D01*
X253985067Y-96389814D01*
X253973431Y-96390500D01*
X253388835Y-96390500D01*
X253330644Y-96371593D01*
X253294680Y-96322093D01*
X253294680Y-96260907D01*
X253318831Y-96221496D01*
X253632096Y-95908231D01*
X254574709Y-94965616D01*
X254629224Y-94937841D01*
X254682593Y-94944157D01*
X254793580Y-94990130D01*
X254996535Y-95030500D01*
X254996536Y-95030500D01*
X255203464Y-95030500D01*
X255203465Y-95030500D01*
X255406420Y-94990130D01*
X255597598Y-94910941D01*
X255769655Y-94795977D01*
X255915977Y-94649655D01*
X256030941Y-94477598D01*
X256110130Y-94286420D01*
X256150500Y-94083465D01*
X256150500Y-93876535D01*
X256150499Y-93876532D01*
X264209500Y-93876532D01*
X264209500Y-94083467D01*
X264249869Y-94286418D01*
X264329058Y-94477597D01*
X264444020Y-94649651D01*
X264444023Y-94649655D01*
X264590345Y-94795977D01*
X264762402Y-94910941D01*
X264953580Y-94990130D01*
X265156535Y-95030500D01*
X265156536Y-95030500D01*
X265363464Y-95030500D01*
X265363465Y-95030500D01*
X265566420Y-94990130D01*
X265757598Y-94910941D01*
X265929655Y-94795977D01*
X266075977Y-94649655D01*
X266190941Y-94477598D01*
X266270130Y-94286420D01*
X266310500Y-94083465D01*
X266310500Y-93876535D01*
X266270130Y-93673580D01*
X266190941Y-93482402D01*
X266075977Y-93310345D01*
X265929655Y-93164023D01*
X265929651Y-93164020D01*
X265757597Y-93049058D01*
X265566418Y-92969869D01*
X265363467Y-92929500D01*
X265363465Y-92929500D01*
X265156535Y-92929500D01*
X265156532Y-92929500D01*
X264953581Y-92969869D01*
X264762402Y-93049058D01*
X264590348Y-93164020D01*
X264444020Y-93310348D01*
X264329058Y-93482402D01*
X264249869Y-93673581D01*
X264209500Y-93876532D01*
X256150499Y-93876532D01*
X256110130Y-93673580D01*
X256030941Y-93482402D01*
X255915977Y-93310345D01*
X255769655Y-93164023D01*
X255769651Y-93164020D01*
X255597597Y-93049058D01*
X255406418Y-92969869D01*
X255203467Y-92929500D01*
X255203465Y-92929500D01*
X254996535Y-92929500D01*
X254996532Y-92929500D01*
X254793581Y-92969869D01*
X254602402Y-93049058D01*
X254430348Y-93164020D01*
X254284020Y-93310348D01*
X254169058Y-93482402D01*
X254089869Y-93673581D01*
X254049500Y-93876532D01*
X254049500Y-94083467D01*
X254089870Y-94286419D01*
X254089870Y-94286421D01*
X254135840Y-94397402D01*
X254140641Y-94458398D01*
X254114380Y-94505291D01*
X252708169Y-95911504D01*
X252653652Y-95939281D01*
X252638165Y-95940500D01*
X236241834Y-95940500D01*
X236183643Y-95921593D01*
X236171830Y-95911504D01*
X234234129Y-93973803D01*
X232849037Y-92588710D01*
X235829500Y-92588710D01*
X235829500Y-92831289D01*
X235861161Y-93071781D01*
X235861161Y-93071786D01*
X235923944Y-93306092D01*
X235923948Y-93306105D01*
X236016772Y-93530204D01*
X236016774Y-93530208D01*
X236016776Y-93530212D01*
X236135299Y-93735500D01*
X236138066Y-93740292D01*
X236285729Y-93932731D01*
X236285731Y-93932733D01*
X236285735Y-93932738D01*
X236457262Y-94104265D01*
X236457266Y-94104268D01*
X236457268Y-94104270D01*
X236495367Y-94133504D01*
X236649711Y-94251936D01*
X236859788Y-94373224D01*
X237083900Y-94466054D01*
X237318211Y-94528838D01*
X237558712Y-94560500D01*
X237558713Y-94560500D01*
X237801287Y-94560500D01*
X237801288Y-94560500D01*
X238041789Y-94528838D01*
X238276100Y-94466054D01*
X238500212Y-94373224D01*
X238710289Y-94251936D01*
X238902738Y-94104265D01*
X239074265Y-93932738D01*
X239221936Y-93740289D01*
X239343224Y-93530212D01*
X239436054Y-93306100D01*
X239498838Y-93071789D01*
X239530500Y-92831288D01*
X239530500Y-92588712D01*
X239498838Y-92348211D01*
X239436054Y-92113900D01*
X239343224Y-91889788D01*
X239221936Y-91679711D01*
X239074265Y-91487262D01*
X238923584Y-91336581D01*
X254050000Y-91336581D01*
X254050000Y-91543418D01*
X254090349Y-91746272D01*
X254169501Y-91937360D01*
X254169505Y-91937369D01*
X254201377Y-91985067D01*
X254617036Y-91569407D01*
X254634075Y-91632993D01*
X254699901Y-91747007D01*
X254792993Y-91840099D01*
X254907007Y-91905925D01*
X254970590Y-91922962D01*
X254554931Y-92338621D01*
X254602639Y-92370498D01*
X254793727Y-92449650D01*
X254996581Y-92489999D01*
X254996586Y-92490000D01*
X255203414Y-92490000D01*
X255203418Y-92489999D01*
X255406272Y-92449650D01*
X255597359Y-92370499D01*
X255645068Y-92338621D01*
X255229409Y-91922962D01*
X255292993Y-91905925D01*
X255407007Y-91840099D01*
X255500099Y-91747007D01*
X255565925Y-91632993D01*
X255582962Y-91569409D01*
X255998621Y-91985068D01*
X256030499Y-91937359D01*
X256109650Y-91746272D01*
X256149999Y-91543418D01*
X256150000Y-91543413D01*
X256150000Y-91336586D01*
X256149999Y-91336581D01*
X256109650Y-91133727D01*
X256030498Y-90942639D01*
X255998621Y-90894931D01*
X255582962Y-91310590D01*
X255565925Y-91247007D01*
X255500099Y-91132993D01*
X255407007Y-91039901D01*
X255292993Y-90974075D01*
X255229407Y-90957036D01*
X255645067Y-90541377D01*
X255597369Y-90509505D01*
X255597360Y-90509501D01*
X255406272Y-90430349D01*
X255203418Y-90390000D01*
X254996581Y-90390000D01*
X254793727Y-90430349D01*
X254602638Y-90509501D01*
X254554931Y-90541377D01*
X254970591Y-90957037D01*
X254907007Y-90974075D01*
X254792993Y-91039901D01*
X254699901Y-91132993D01*
X254634075Y-91247007D01*
X254617037Y-91310591D01*
X254201377Y-90894931D01*
X254169501Y-90942638D01*
X254090349Y-91133727D01*
X254050000Y-91336581D01*
X238923584Y-91336581D01*
X238902738Y-91315735D01*
X238902733Y-91315731D01*
X238902731Y-91315729D01*
X238710292Y-91168066D01*
X238652154Y-91134500D01*
X238500212Y-91046776D01*
X238500208Y-91046774D01*
X238500204Y-91046772D01*
X238276105Y-90953948D01*
X238276104Y-90953947D01*
X238276100Y-90953946D01*
X238041789Y-90891162D01*
X238041786Y-90891161D01*
X238041784Y-90891161D01*
X237801289Y-90859500D01*
X237801288Y-90859500D01*
X237558712Y-90859500D01*
X237558710Y-90859500D01*
X237318218Y-90891161D01*
X237318213Y-90891161D01*
X237083907Y-90953944D01*
X237083894Y-90953948D01*
X236859795Y-91046772D01*
X236649707Y-91168066D01*
X236457268Y-91315729D01*
X236285729Y-91487268D01*
X236138066Y-91679707D01*
X236016772Y-91889795D01*
X235923948Y-92113894D01*
X235923944Y-92113907D01*
X235861161Y-92348213D01*
X235861161Y-92348218D01*
X235829500Y-92588710D01*
X232849037Y-92588710D01*
X232259862Y-91999535D01*
X232259859Y-91999533D01*
X232259857Y-91999531D01*
X232185642Y-91956683D01*
X232185644Y-91956683D01*
X232153521Y-91948076D01*
X232102853Y-91934500D01*
X232102851Y-91934500D01*
X213947835Y-91934500D01*
X213889644Y-91915593D01*
X213877831Y-91905504D01*
X213251827Y-91279500D01*
X211881862Y-89909535D01*
X211881859Y-89909533D01*
X211881857Y-89909531D01*
X211807642Y-89866683D01*
X211807644Y-89866683D01*
X211775521Y-89858076D01*
X211724853Y-89844500D01*
X211724851Y-89844500D01*
X211249500Y-89844500D01*
X211191309Y-89825593D01*
X211155345Y-89776093D01*
X211150500Y-89745500D01*
X211150500Y-88030253D01*
X254049500Y-88030253D01*
X254049500Y-89769746D01*
X254049501Y-89769758D01*
X254061132Y-89828227D01*
X254061134Y-89828233D01*
X254086826Y-89866683D01*
X254105448Y-89894552D01*
X254171769Y-89938867D01*
X254216231Y-89947711D01*
X254230241Y-89950498D01*
X254230246Y-89950498D01*
X254230252Y-89950500D01*
X254230253Y-89950500D01*
X255969747Y-89950500D01*
X255969748Y-89950500D01*
X256028231Y-89938867D01*
X256094552Y-89894552D01*
X256138867Y-89828231D01*
X256150500Y-89769748D01*
X256150500Y-88030252D01*
X256138867Y-87971769D01*
X256094552Y-87905448D01*
X256037266Y-87867170D01*
X256028233Y-87861134D01*
X256028231Y-87861133D01*
X256028228Y-87861132D01*
X256028227Y-87861132D01*
X255969758Y-87849501D01*
X255969748Y-87849500D01*
X254230252Y-87849500D01*
X254230251Y-87849500D01*
X254230241Y-87849501D01*
X254171772Y-87861132D01*
X254171766Y-87861134D01*
X254105451Y-87905445D01*
X254105445Y-87905451D01*
X254061134Y-87971766D01*
X254061132Y-87971772D01*
X254049501Y-88030241D01*
X254049500Y-88030253D01*
X211150500Y-88030253D01*
X211150498Y-88030241D01*
X211143748Y-87996309D01*
X211138867Y-87971769D01*
X211094552Y-87905448D01*
X211037266Y-87867170D01*
X211028233Y-87861134D01*
X211028231Y-87861133D01*
X211028228Y-87861132D01*
X211028227Y-87861132D01*
X210969758Y-87849501D01*
X210969748Y-87849500D01*
X209230252Y-87849500D01*
X209230251Y-87849500D01*
X209230241Y-87849501D01*
X209171772Y-87861132D01*
X209171766Y-87861134D01*
X209105451Y-87905445D01*
X209105445Y-87905451D01*
X209061134Y-87971766D01*
X209061132Y-87971772D01*
X209049501Y-88030241D01*
X209049500Y-88030253D01*
X209049500Y-89745500D01*
X209030593Y-89803691D01*
X208981093Y-89839655D01*
X208950500Y-89844500D01*
X206142932Y-89844500D01*
X206142916Y-89844499D01*
X206136853Y-89844499D01*
X206051147Y-89844499D01*
X206051144Y-89844499D01*
X205968361Y-89866681D01*
X205944834Y-89880265D01*
X205931250Y-89888108D01*
X205910417Y-89900136D01*
X205894137Y-89909535D01*
X205833534Y-89970137D01*
X205833535Y-89970138D01*
X200945004Y-94858669D01*
X200890487Y-94886446D01*
X200830055Y-94876875D01*
X200786790Y-94833610D01*
X200776384Y-94797381D01*
X200776000Y-94793036D01*
X200776000Y-94710252D01*
X200764367Y-94651769D01*
X200763383Y-94650297D01*
X200762360Y-94638716D01*
X200763879Y-94632109D01*
X200763879Y-94610685D01*
X200775998Y-94549758D01*
X200776000Y-94549746D01*
X200776000Y-94060253D01*
X200775998Y-94060241D01*
X200763879Y-93999315D01*
X200763879Y-93960685D01*
X200775998Y-93899758D01*
X200776000Y-93899746D01*
X200776000Y-93410253D01*
X200775998Y-93410241D01*
X200763879Y-93349315D01*
X200763879Y-93310685D01*
X200775998Y-93249758D01*
X200776000Y-93249746D01*
X200776000Y-92760253D01*
X200776000Y-92760252D01*
X200764367Y-92701769D01*
X200764365Y-92701767D01*
X200763623Y-92698033D01*
X200763624Y-92659403D01*
X200775498Y-92599707D01*
X200775500Y-92599697D01*
X200775500Y-92580001D01*
X200775499Y-92580000D01*
X200605189Y-92580000D01*
X200595488Y-92579524D01*
X200595251Y-92579500D01*
X200595248Y-92579500D01*
X199080752Y-92579500D01*
X199080748Y-92579500D01*
X199080512Y-92579524D01*
X199070811Y-92580000D01*
X198900501Y-92580000D01*
X198900500Y-92580001D01*
X198900500Y-92599700D01*
X198912376Y-92659404D01*
X198912376Y-92698032D01*
X198900000Y-92760248D01*
X194899999Y-92760248D01*
X194888367Y-92701769D01*
X194888312Y-92701686D01*
X194887646Y-92698106D01*
X194887879Y-92696327D01*
X194887879Y-92660685D01*
X194899998Y-92599758D01*
X194900000Y-92599746D01*
X194900000Y-92110253D01*
X194899998Y-92110241D01*
X194887879Y-92049315D01*
X194887879Y-92010685D01*
X194899998Y-91949758D01*
X194899997Y-91949758D01*
X194900000Y-91949748D01*
X194900000Y-91460252D01*
X194888367Y-91401769D01*
X194888365Y-91401767D01*
X194887623Y-91398033D01*
X194887624Y-91359403D01*
X194899498Y-91299707D01*
X194899500Y-91299697D01*
X194899500Y-91280001D01*
X194899499Y-91280000D01*
X194729189Y-91280000D01*
X194719488Y-91279524D01*
X194719251Y-91279500D01*
X194719248Y-91279500D01*
X193204752Y-91279500D01*
X193204748Y-91279500D01*
X193204512Y-91279524D01*
X193194811Y-91280000D01*
X193024501Y-91280000D01*
X193024500Y-91280001D01*
X193024500Y-91280500D01*
X193005593Y-91338691D01*
X192956093Y-91374655D01*
X192925500Y-91379500D01*
X192718834Y-91379500D01*
X192660643Y-91360593D01*
X192648830Y-91350504D01*
X192391830Y-91093504D01*
X192364053Y-91038987D01*
X192373624Y-90978555D01*
X192416889Y-90935290D01*
X192461834Y-90924500D01*
X192597890Y-90924500D01*
X192597892Y-90924500D01*
X192725186Y-90890392D01*
X192725188Y-90890390D01*
X192725190Y-90890390D01*
X192839309Y-90824503D01*
X192839309Y-90824502D01*
X192839314Y-90824500D01*
X192859155Y-90804658D01*
X192913670Y-90776883D01*
X192974102Y-90786454D01*
X192999161Y-90804660D01*
X193024501Y-90830000D01*
X193194811Y-90830000D01*
X193204512Y-90830476D01*
X193204748Y-90830499D01*
X193204752Y-90830500D01*
X193204756Y-90830500D01*
X194719244Y-90830500D01*
X194719248Y-90830500D01*
X194719251Y-90830499D01*
X194719488Y-90830476D01*
X194729189Y-90830000D01*
X194899499Y-90830000D01*
X194899500Y-90829999D01*
X194899500Y-90810302D01*
X194899499Y-90810299D01*
X194887623Y-90750593D01*
X194887624Y-90711963D01*
X194888366Y-90708232D01*
X194888367Y-90708231D01*
X194900000Y-90649748D01*
X194900000Y-90160252D01*
X194888367Y-90101769D01*
X194844052Y-90035448D01*
X194844048Y-90035445D01*
X194777733Y-89991134D01*
X194777731Y-89991133D01*
X194777728Y-89991132D01*
X194777727Y-89991132D01*
X194719258Y-89979501D01*
X194719248Y-89979500D01*
X193204752Y-89979500D01*
X193204751Y-89979500D01*
X193204741Y-89979501D01*
X193146272Y-89991132D01*
X193146266Y-89991134D01*
X193079951Y-90035445D01*
X193079947Y-90035449D01*
X193079913Y-90035501D01*
X193079832Y-90035564D01*
X193073054Y-90042343D01*
X193072251Y-90041540D01*
X193031863Y-90073381D01*
X192997597Y-90079500D01*
X192936322Y-90079500D01*
X192878131Y-90060593D01*
X192866320Y-90050505D01*
X192839315Y-90023501D01*
X192839309Y-90023496D01*
X192725189Y-89957609D01*
X192725191Y-89957609D01*
X192675799Y-89944375D01*
X192597892Y-89923500D01*
X192466108Y-89923500D01*
X192388200Y-89944375D01*
X192338809Y-89957609D01*
X192224690Y-90023496D01*
X192131496Y-90116690D01*
X192065609Y-90230809D01*
X192031500Y-90358109D01*
X192031500Y-90494165D01*
X192012593Y-90552356D01*
X191963093Y-90588320D01*
X191901907Y-90588320D01*
X191862496Y-90564169D01*
X191791496Y-90493169D01*
X191763719Y-90438652D01*
X191762500Y-90423165D01*
X191762500Y-90358109D01*
X191745104Y-90293186D01*
X191728392Y-90230814D01*
X191728390Y-90230811D01*
X191728390Y-90230809D01*
X191662503Y-90116690D01*
X191662501Y-90116688D01*
X191662500Y-90116686D01*
X191569314Y-90023500D01*
X191569311Y-90023498D01*
X191569309Y-90023496D01*
X191455189Y-89957609D01*
X191455191Y-89957609D01*
X191405799Y-89944375D01*
X191327892Y-89923500D01*
X191196108Y-89923500D01*
X191118200Y-89944375D01*
X191068809Y-89957609D01*
X190954690Y-90023496D01*
X190861496Y-90116690D01*
X190795609Y-90230809D01*
X190761500Y-90358109D01*
X190761500Y-90406582D01*
X190742593Y-90464773D01*
X190693093Y-90500737D01*
X190631907Y-90500737D01*
X190592497Y-90476587D01*
X190025446Y-89909535D01*
X190025443Y-89909533D01*
X190025441Y-89909531D01*
X189951226Y-89866683D01*
X189951228Y-89866683D01*
X189919105Y-89858076D01*
X189868437Y-89844500D01*
X189868435Y-89844500D01*
X166249500Y-89844500D01*
X166191309Y-89825593D01*
X166155345Y-89776093D01*
X166150500Y-89745500D01*
X166150500Y-88054500D01*
X166169407Y-87996309D01*
X166218907Y-87960345D01*
X166249500Y-87955500D01*
X194599665Y-87955500D01*
X194657856Y-87974407D01*
X194669669Y-87984496D01*
X198650638Y-91965465D01*
X198650640Y-91965466D01*
X198650641Y-91965467D01*
X198650642Y-91965468D01*
X198724857Y-92008316D01*
X198724855Y-92008316D01*
X198724859Y-92008317D01*
X198724861Y-92008318D01*
X198807647Y-92030500D01*
X198807649Y-92030500D01*
X198814081Y-92031347D01*
X198813671Y-92034454D01*
X198859691Y-92049407D01*
X198895655Y-92098907D01*
X198900500Y-92129500D01*
X198900500Y-92129999D01*
X198900501Y-92130000D01*
X199070811Y-92130000D01*
X199080512Y-92130476D01*
X199080748Y-92130499D01*
X199080752Y-92130500D01*
X199080756Y-92130500D01*
X200595244Y-92130500D01*
X200595248Y-92130500D01*
X200595251Y-92130499D01*
X200595488Y-92130476D01*
X200605189Y-92130000D01*
X200775499Y-92130000D01*
X200775500Y-92129999D01*
X200775500Y-92110302D01*
X200775499Y-92110299D01*
X200763623Y-92050593D01*
X200763624Y-92011963D01*
X200764366Y-92008232D01*
X200764367Y-92008231D01*
X200776000Y-91949748D01*
X200776000Y-91460252D01*
X200771971Y-91439999D01*
X200763879Y-91399315D01*
X200763879Y-91360685D01*
X200775998Y-91299758D01*
X200776000Y-91299746D01*
X200776000Y-90885500D01*
X200885453Y-90885500D01*
X200893612Y-90899828D01*
X200939367Y-90952632D01*
X200972141Y-90984257D01*
X201060476Y-91030465D01*
X201127515Y-91050150D01*
X201199500Y-91060500D01*
X202314000Y-91060500D01*
X202368313Y-91054661D01*
X202419824Y-91043455D01*
X202446198Y-91036219D01*
X202532828Y-90986888D01*
X202585632Y-90941133D01*
X202617257Y-90908359D01*
X202663465Y-90820024D01*
X202683150Y-90752985D01*
X202693500Y-90681000D01*
X202693500Y-88643000D01*
X202687661Y-88588687D01*
X202676455Y-88537176D01*
X202669219Y-88510802D01*
X202619888Y-88424172D01*
X202574133Y-88371368D01*
X202541359Y-88339743D01*
X202453024Y-88293535D01*
X202385985Y-88273850D01*
X202314000Y-88263500D01*
X199006000Y-88263500D01*
X198951687Y-88269339D01*
X198900176Y-88280545D01*
X198873802Y-88287781D01*
X198787172Y-88337112D01*
X198734368Y-88382867D01*
X198702743Y-88415641D01*
X198656535Y-88503976D01*
X198636850Y-88571015D01*
X198626500Y-88643000D01*
X198626500Y-89560303D01*
X198635604Y-89627901D01*
X198652963Y-89691175D01*
X198666948Y-89729716D01*
X198725257Y-89810576D01*
X198776394Y-89858186D01*
X198812364Y-89886129D01*
X198905134Y-89922628D01*
X198973894Y-89935033D01*
X199046577Y-89937627D01*
X199066354Y-89935500D01*
X199357500Y-89935500D01*
X199357500Y-89979500D01*
X199080752Y-89979500D01*
X199080751Y-89979500D01*
X199080741Y-89979501D01*
X199022272Y-89991132D01*
X199022266Y-89991134D01*
X198955951Y-90035445D01*
X198955945Y-90035451D01*
X198911634Y-90101766D01*
X198911632Y-90101772D01*
X198900001Y-90160241D01*
X198900000Y-90160253D01*
X198900000Y-90380165D01*
X198881093Y-90438356D01*
X198831593Y-90474320D01*
X198770407Y-90474320D01*
X198730996Y-90450169D01*
X196199146Y-87918319D01*
X196171369Y-87863802D01*
X196173522Y-87822698D01*
X196207500Y-87695892D01*
X196207500Y-87564108D01*
X196173392Y-87436814D01*
X196173390Y-87436810D01*
X196164262Y-87420999D01*
X196151541Y-87361150D01*
X196176428Y-87305255D01*
X196229417Y-87274663D01*
X196249999Y-87272500D01*
X267055500Y-87272500D01*
X267113691Y-87291407D01*
G37*
%TD.AperFunction*%
%TA.AperFunction,Conductor*%
G36*
X191555366Y-95577968D02*
G01*
X191563255Y-95576719D01*
X191585099Y-95587629D01*
X191605960Y-95594407D01*
X191616225Y-95603174D01*
X191616640Y-95603382D01*
X191617241Y-95603964D01*
X191678742Y-95665465D01*
X191683710Y-95668333D01*
X191683711Y-95668334D01*
X191752961Y-95708316D01*
X191752959Y-95708316D01*
X191752963Y-95708317D01*
X191752965Y-95708318D01*
X191835751Y-95730500D01*
X191848165Y-95730500D01*
X191906356Y-95749407D01*
X191918169Y-95759496D01*
X191963535Y-95804862D01*
X191963534Y-95804862D01*
X192024136Y-95865464D01*
X192058743Y-95885444D01*
X192058750Y-95885448D01*
X192098361Y-95908318D01*
X192098367Y-95908319D01*
X192098368Y-95908320D01*
X192107198Y-95910686D01*
X192181144Y-95930500D01*
X192181146Y-95930501D01*
X192181147Y-95930501D01*
X192272916Y-95930501D01*
X192272932Y-95930500D01*
X192624666Y-95930500D01*
X192682857Y-95949407D01*
X192718821Y-95998907D01*
X192718821Y-96060093D01*
X192701720Y-96091659D01*
X192698406Y-96095766D01*
X192639035Y-96155138D01*
X192610142Y-96205179D01*
X192605308Y-96211173D01*
X192603245Y-96212518D01*
X192598258Y-96219017D01*
X192359138Y-96458138D01*
X192359138Y-96458139D01*
X191474773Y-97342504D01*
X191420256Y-97370281D01*
X191404769Y-97371500D01*
X176133139Y-97371500D01*
X176074948Y-97352593D01*
X176038984Y-97303093D01*
X176038984Y-97241907D01*
X176063133Y-97202498D01*
X176075977Y-97189655D01*
X176190941Y-97017598D01*
X176270130Y-96826420D01*
X176310500Y-96623465D01*
X176310500Y-96416535D01*
X176270130Y-96213580D01*
X176190941Y-96022402D01*
X176075977Y-95850345D01*
X175970133Y-95744501D01*
X175942358Y-95689987D01*
X175951929Y-95629555D01*
X175995194Y-95586290D01*
X176040139Y-95575500D01*
X191547769Y-95575500D01*
X191555366Y-95577968D01*
G37*
%TD.AperFunction*%
%TA.AperFunction,Conductor*%
G36*
X189702356Y-93054407D02*
G01*
X189714169Y-93064496D01*
X191405169Y-94755496D01*
X191432946Y-94810013D01*
X191423375Y-94870445D01*
X191380110Y-94913710D01*
X191335165Y-94924500D01*
X176040139Y-94924500D01*
X175981948Y-94905593D01*
X175945984Y-94856093D01*
X175945984Y-94794907D01*
X175970133Y-94755498D01*
X176075977Y-94649655D01*
X176190941Y-94477598D01*
X176270130Y-94286420D01*
X176310500Y-94083465D01*
X176310500Y-93876535D01*
X176270130Y-93673580D01*
X176190941Y-93482402D01*
X176075977Y-93310345D01*
X175970133Y-93204501D01*
X175942358Y-93149987D01*
X175951929Y-93089555D01*
X175995194Y-93046290D01*
X176040139Y-93035500D01*
X189644165Y-93035500D01*
X189702356Y-93054407D01*
G37*
%TD.AperFunction*%
%TA.AperFunction,Conductor*%
G36*
X138439356Y-90514407D02*
G01*
X138451169Y-90524496D01*
X139586535Y-91659862D01*
X139586534Y-91659862D01*
X139645433Y-91718760D01*
X139647138Y-91720465D01*
X139721362Y-91763318D01*
X139804147Y-91785500D01*
X139895076Y-91785500D01*
X139953267Y-91804407D01*
X139989231Y-91853907D01*
X139990702Y-91910120D01*
X139961500Y-92019108D01*
X139961500Y-92150892D01*
X139990702Y-92259879D01*
X139987500Y-92320978D01*
X139948995Y-92368528D01*
X139895076Y-92384500D01*
X120731955Y-92384500D01*
X120673764Y-92365593D01*
X120661951Y-92355504D01*
X120229409Y-91922962D01*
X120292993Y-91905925D01*
X120407007Y-91840099D01*
X120500099Y-91747007D01*
X120565925Y-91632993D01*
X120582962Y-91569409D01*
X120998621Y-91985068D01*
X121030499Y-91937359D01*
X121109650Y-91746272D01*
X121149999Y-91543418D01*
X121150000Y-91543413D01*
X121150000Y-91336586D01*
X121149999Y-91336581D01*
X121109650Y-91133727D01*
X121030498Y-90942639D01*
X120998621Y-90894931D01*
X120582962Y-91310590D01*
X120565925Y-91247007D01*
X120500099Y-91132993D01*
X120407007Y-91039901D01*
X120292993Y-90974075D01*
X120229407Y-90957036D01*
X120661949Y-90524496D01*
X120716466Y-90496719D01*
X120731953Y-90495500D01*
X138381165Y-90495500D01*
X138439356Y-90514407D01*
G37*
%TD.AperFunction*%
%TA.AperFunction,Conductor*%
G36*
X164526237Y-90514407D02*
G01*
X164538050Y-90524496D01*
X164970591Y-90957037D01*
X164907007Y-90974075D01*
X164792993Y-91039901D01*
X164699901Y-91132993D01*
X164634075Y-91247007D01*
X164617037Y-91310591D01*
X164201377Y-90894931D01*
X164169501Y-90942638D01*
X164090349Y-91133727D01*
X164050000Y-91336581D01*
X164050000Y-91543418D01*
X164090349Y-91746272D01*
X164169501Y-91937360D01*
X164169505Y-91937369D01*
X164201377Y-91985067D01*
X164617036Y-91569407D01*
X164634075Y-91632993D01*
X164699901Y-91747007D01*
X164792993Y-91840099D01*
X164907007Y-91905925D01*
X164970590Y-91922962D01*
X164538049Y-92355504D01*
X164483532Y-92383281D01*
X164468045Y-92384500D01*
X161475924Y-92384500D01*
X161417733Y-92365593D01*
X161381769Y-92316093D01*
X161380297Y-92259879D01*
X161409500Y-92150892D01*
X161409500Y-92019108D01*
X161375392Y-91891814D01*
X161375390Y-91891811D01*
X161375390Y-91891809D01*
X161309503Y-91777690D01*
X161309501Y-91777688D01*
X161309500Y-91777686D01*
X161250571Y-91718757D01*
X161222796Y-91664243D01*
X161232367Y-91603811D01*
X161250574Y-91578752D01*
X161567609Y-91261717D01*
X161782551Y-91046776D01*
X162304831Y-90524496D01*
X162359348Y-90496719D01*
X162374835Y-90495500D01*
X164468046Y-90495500D01*
X164526237Y-90514407D01*
G37*
%TD.AperFunction*%
%TA.AperFunction,Conductor*%
G36*
X167200803Y-90514407D02*
G01*
X167236767Y-90563907D01*
X167236767Y-90625093D01*
X167228349Y-90644000D01*
X167173608Y-90738812D01*
X167160843Y-90786454D01*
X167139500Y-90866108D01*
X167139500Y-90997892D01*
X167162238Y-91082754D01*
X167173608Y-91125187D01*
X167228349Y-91220000D01*
X167241070Y-91279848D01*
X167216183Y-91335744D01*
X167163195Y-91366337D01*
X167142612Y-91368500D01*
X167089147Y-91368500D01*
X167048094Y-91379500D01*
X167006356Y-91390683D01*
X166932142Y-91433531D01*
X166010169Y-92355504D01*
X165955652Y-92383281D01*
X165940165Y-92384500D01*
X165731955Y-92384500D01*
X165673764Y-92365593D01*
X165661951Y-92355504D01*
X165229409Y-91922962D01*
X165292993Y-91905925D01*
X165407007Y-91840099D01*
X165500099Y-91747007D01*
X165565925Y-91632993D01*
X165582962Y-91569409D01*
X165998621Y-91985068D01*
X166030499Y-91937359D01*
X166109650Y-91746272D01*
X166149999Y-91543418D01*
X166150000Y-91543413D01*
X166150000Y-91336586D01*
X166149999Y-91336581D01*
X166109650Y-91133727D01*
X166030498Y-90942639D01*
X165998621Y-90894931D01*
X165582962Y-91310590D01*
X165565925Y-91247007D01*
X165500099Y-91132993D01*
X165407007Y-91039901D01*
X165292993Y-90974075D01*
X165229407Y-90957036D01*
X165661949Y-90524496D01*
X165716466Y-90496719D01*
X165731953Y-90495500D01*
X167142612Y-90495500D01*
X167200803Y-90514407D01*
G37*
%TD.AperFunction*%
%TD*%
%TA.AperFunction,Conductor*%
%TO.N,+3V3*%
G36*
X202381039Y-88538685D02*
G01*
X202426794Y-88591489D01*
X202438000Y-88643000D01*
X202438000Y-90681000D01*
X202418315Y-90748039D01*
X202365511Y-90793794D01*
X202314000Y-90805000D01*
X201199500Y-90805000D01*
X201132461Y-90785315D01*
X201086706Y-90732511D01*
X201075500Y-90681000D01*
X201075500Y-90630000D01*
X200764683Y-90630000D01*
X200697644Y-90610315D01*
X200695794Y-90609103D01*
X200673240Y-90594033D01*
X200600176Y-90579500D01*
X200600174Y-90579500D01*
X199962000Y-90579500D01*
X199894961Y-90559815D01*
X199849206Y-90507011D01*
X199838000Y-90455500D01*
X199838000Y-90405000D01*
X199737000Y-90405000D01*
X199669961Y-90385315D01*
X199624206Y-90332511D01*
X199613000Y-90281000D01*
X199613000Y-90180000D01*
X200063000Y-90180000D01*
X201075500Y-90180000D01*
X201075500Y-90132172D01*
X201075499Y-90132155D01*
X201069098Y-90072627D01*
X201069096Y-90072620D01*
X201018854Y-89937913D01*
X201018850Y-89937906D01*
X200932690Y-89822812D01*
X200932687Y-89822809D01*
X200817593Y-89736649D01*
X200817586Y-89736645D01*
X200682879Y-89686403D01*
X200682872Y-89686401D01*
X200623344Y-89680000D01*
X200063000Y-89680000D01*
X200063000Y-90180000D01*
X199613000Y-90180000D01*
X199613000Y-89680000D01*
X199052655Y-89680000D01*
X199019256Y-89683592D01*
X198950496Y-89671187D01*
X198899359Y-89623577D01*
X198882000Y-89560303D01*
X198882000Y-88643000D01*
X198901685Y-88575961D01*
X198954489Y-88530206D01*
X199006000Y-88519000D01*
X202314000Y-88519000D01*
X202381039Y-88538685D01*
G37*
%TD.AperFunction*%
%TD*%
M02*
