%TF.GenerationSoftware,KiCad,Pcbnew,10.0.0-rc1.1-4-gef7340bffd*%
%TF.CreationDate,2026-06-09T22:13:14+02:00*%
%TF.ProjectId,chu_touchpads,6368755f-746f-4756-9368-706164732e6b,rev?*%
%TF.SameCoordinates,Original*%
%TF.FileFunction,Paste,Top*%
%TF.FilePolarity,Positive*%
%FSLAX46Y46*%
G04 Gerber Fmt 4.6, Leading zero omitted, Abs format (unit mm)*
G04 Created by KiCad (PCBNEW 10.0.0-rc1.1-4-gef7340bffd) date 2026-06-09 22:13:14*
%MOMM*%
%LPD*%
G01*
G04 APERTURE LIST*
G04 Aperture macros list*
%AMRoundRect*
0 Rectangle with rounded corners*
0 $1 Rounding radius*
0 $2 $3 $4 $5 $6 $7 $8 $9 X,Y pos of 4 corners*
0 Add a 4 corners polygon primitive as box body*
4,1,4,$2,$3,$4,$5,$6,$7,$8,$9,$2,$3,0*
0 Add four circle primitives for the rounded corners*
1,1,$1+$1,$2,$3*
1,1,$1+$1,$4,$5*
1,1,$1+$1,$6,$7*
1,1,$1+$1,$8,$9*
0 Add four rect primitives between the rounded corners*
20,1,$1+$1,$2,$3,$4,$5,0*
20,1,$1+$1,$4,$5,$6,$7,0*
20,1,$1+$1,$6,$7,$8,$9,0*
20,1,$1+$1,$8,$9,$2,$3,0*%
G04 Aperture macros list end*
%ADD10R,0.549960X1.325000*%
%ADD11R,0.700000X1.325000*%
%ADD12R,0.449998X1.325000*%
%ADD13R,0.549966X1.325000*%
%ADD14R,0.450000X0.550000*%
%ADD15RoundRect,0.250000X-0.350000X-0.450000X0.350000X-0.450000X0.350000X0.450000X-0.350000X0.450000X0*%
G04 APERTURE END LIST*
D10*
%TO.C,D3*%
X-58074980Y-33099500D03*
D11*
X-56950000Y-33099500D03*
D12*
X-55925001Y-33099500D03*
D13*
X-54925017Y-33099500D03*
D14*
X-58575000Y-32963000D03*
X-54425000Y-32963000D03*
%TD*%
D10*
%TO.C,D6*%
X-14574980Y-33099500D03*
D11*
X-13450000Y-33099500D03*
D12*
X-12425001Y-33099500D03*
D13*
X-11425017Y-33099500D03*
D14*
X-15075000Y-32963000D03*
X-10925000Y-32963000D03*
%TD*%
D10*
%TO.C,D33*%
X376925020Y-33099500D03*
D11*
X378050000Y-33099500D03*
D12*
X379074999Y-33099500D03*
D13*
X380074983Y-33099500D03*
D14*
X376425000Y-32963000D03*
X380575000Y-32963000D03*
%TD*%
D10*
%TO.C,D23*%
X231925020Y-33099500D03*
D11*
X233050000Y-33099500D03*
D12*
X234074999Y-33099500D03*
D13*
X235074983Y-33099500D03*
D14*
X231425000Y-32963000D03*
X235575000Y-32963000D03*
%TD*%
D10*
%TO.C,D24*%
X246425020Y-33099500D03*
D11*
X247550000Y-33099500D03*
D12*
X248574999Y-33099500D03*
D13*
X249574983Y-33099500D03*
D14*
X245925000Y-32963000D03*
X250075000Y-32963000D03*
%TD*%
D10*
%TO.C,D11*%
X57925020Y-33099500D03*
D11*
X59050000Y-33099500D03*
D12*
X60074999Y-33099500D03*
D13*
X61074983Y-33099500D03*
D14*
X57425000Y-32963000D03*
X61575000Y-32963000D03*
%TD*%
D10*
%TO.C,D14*%
X101425020Y-33099500D03*
D11*
X102550000Y-33099500D03*
D12*
X103574999Y-33099500D03*
D13*
X104574983Y-33099500D03*
D14*
X100925000Y-32963000D03*
X105075000Y-32963000D03*
%TD*%
D10*
%TO.C,D10*%
X43425020Y-33099500D03*
D11*
X44550000Y-33099500D03*
D12*
X45574999Y-33099500D03*
D13*
X46574983Y-33099500D03*
D14*
X42925000Y-32963000D03*
X47075000Y-32963000D03*
%TD*%
D10*
%TO.C,D1*%
X-87074980Y-33099500D03*
D11*
X-85950000Y-33099500D03*
D12*
X-84925001Y-33099500D03*
D13*
X-83925017Y-33099500D03*
D14*
X-87575000Y-32963000D03*
X-83425000Y-32963000D03*
%TD*%
D10*
%TO.C,D16*%
X130425020Y-33099500D03*
D11*
X131550000Y-33099500D03*
D12*
X132574999Y-33099500D03*
D13*
X133574983Y-33099500D03*
D14*
X129925000Y-32963000D03*
X134075000Y-32963000D03*
%TD*%
D10*
%TO.C,D26*%
X275425020Y-33099500D03*
D11*
X276550000Y-33099500D03*
D12*
X277574999Y-33099500D03*
D13*
X278574983Y-33099500D03*
D14*
X274925000Y-32963000D03*
X279075000Y-32963000D03*
%TD*%
D10*
%TO.C,D9*%
X28925020Y-33099500D03*
D11*
X30050000Y-33099500D03*
D12*
X31074999Y-33099500D03*
D13*
X32074983Y-33099500D03*
D14*
X28425000Y-32963000D03*
X32575000Y-32963000D03*
%TD*%
D10*
%TO.C,D7*%
X-74980Y-33099500D03*
D11*
X1050000Y-33099500D03*
D12*
X2074999Y-33099500D03*
D13*
X3074983Y-33099500D03*
D14*
X-575000Y-32963000D03*
X3575000Y-32963000D03*
%TD*%
D10*
%TO.C,D15*%
X115925020Y-33099500D03*
D11*
X117050000Y-33099500D03*
D12*
X118074999Y-33099500D03*
D13*
X119074983Y-33099500D03*
D14*
X115425000Y-32963000D03*
X119575000Y-32963000D03*
%TD*%
D10*
%TO.C,D30*%
X333425020Y-33099500D03*
D11*
X334550000Y-33099500D03*
D12*
X335574999Y-33099500D03*
D13*
X336574983Y-33099500D03*
D14*
X332925000Y-32963000D03*
X337075000Y-32963000D03*
%TD*%
D15*
%TO.C,R1*%
X-92625000Y-33975000D03*
X-90625000Y-33975000D03*
%TD*%
D10*
%TO.C,D32*%
X362425020Y-33099500D03*
D11*
X363550000Y-33099500D03*
D12*
X364574999Y-33099500D03*
D13*
X365574983Y-33099500D03*
D14*
X361925000Y-32963000D03*
X366075000Y-32963000D03*
%TD*%
D10*
%TO.C,D28*%
X304425020Y-33099500D03*
D11*
X305550000Y-33099500D03*
D12*
X306574999Y-33099500D03*
D13*
X307574983Y-33099500D03*
D14*
X303925000Y-32963000D03*
X308075000Y-32963000D03*
%TD*%
D10*
%TO.C,D31*%
X347925020Y-33099500D03*
D11*
X349050000Y-33099500D03*
D12*
X350074999Y-33099500D03*
D13*
X351074983Y-33099500D03*
D14*
X347425000Y-32963000D03*
X351575000Y-32963000D03*
%TD*%
D10*
%TO.C,D29*%
X318925020Y-33099500D03*
D11*
X320050000Y-33099500D03*
D12*
X321074999Y-33099500D03*
D13*
X322074983Y-33099500D03*
D14*
X318425000Y-32963000D03*
X322575000Y-32963000D03*
%TD*%
D10*
%TO.C,D12*%
X72425020Y-33099500D03*
D11*
X73550000Y-33099500D03*
D12*
X74574999Y-33099500D03*
D13*
X75574983Y-33099500D03*
D14*
X71925000Y-32963000D03*
X76075000Y-32963000D03*
%TD*%
D10*
%TO.C,D21*%
X202925020Y-33099500D03*
D11*
X204050000Y-33099500D03*
D12*
X205074999Y-33099500D03*
D13*
X206074983Y-33099500D03*
D14*
X202425000Y-32963000D03*
X206575000Y-32963000D03*
%TD*%
D10*
%TO.C,D20*%
X188425020Y-33099500D03*
D11*
X189550000Y-33099500D03*
D12*
X190574999Y-33099500D03*
D13*
X191574983Y-33099500D03*
D14*
X187925000Y-32963000D03*
X192075000Y-32963000D03*
%TD*%
D10*
%TO.C,D22*%
X217425020Y-33099500D03*
D11*
X218550000Y-33099500D03*
D12*
X219574999Y-33099500D03*
D13*
X220574983Y-33099500D03*
D14*
X216925000Y-32963000D03*
X221075000Y-32963000D03*
%TD*%
D10*
%TO.C,D8*%
X14425020Y-33099500D03*
D11*
X15550000Y-33099500D03*
D12*
X16574999Y-33099500D03*
D13*
X17574983Y-33099500D03*
D14*
X13925000Y-32963000D03*
X18075000Y-32963000D03*
%TD*%
D10*
%TO.C,D13*%
X86925020Y-33099500D03*
D11*
X88050000Y-33099500D03*
D12*
X89074999Y-33099500D03*
D13*
X90074983Y-33099500D03*
D14*
X86425000Y-32963000D03*
X90575000Y-32963000D03*
%TD*%
D10*
%TO.C,D18*%
X159425020Y-33099500D03*
D11*
X160550000Y-33099500D03*
D12*
X161574999Y-33099500D03*
D13*
X162574983Y-33099500D03*
D14*
X158925000Y-32963000D03*
X163075000Y-32963000D03*
%TD*%
D10*
%TO.C,D4*%
X-43574980Y-33099500D03*
D11*
X-42450000Y-33099500D03*
D12*
X-41425001Y-33099500D03*
D13*
X-40425017Y-33099500D03*
D14*
X-44075000Y-32963000D03*
X-39925000Y-32963000D03*
%TD*%
D10*
%TO.C,D5*%
X-29074980Y-33099500D03*
D11*
X-27950000Y-33099500D03*
D12*
X-26925001Y-33099500D03*
D13*
X-25925017Y-33099500D03*
D14*
X-29575000Y-32963000D03*
X-25425000Y-32963000D03*
%TD*%
D10*
%TO.C,D25*%
X260925020Y-33099500D03*
D11*
X262050000Y-33099500D03*
D12*
X263074999Y-33099500D03*
D13*
X264074983Y-33099500D03*
D14*
X260425000Y-32963000D03*
X264575000Y-32963000D03*
%TD*%
D10*
%TO.C,D17*%
X144925020Y-33099500D03*
D11*
X146050000Y-33099500D03*
D12*
X147074999Y-33099500D03*
D13*
X148074983Y-33099500D03*
D14*
X144425000Y-32963000D03*
X148575000Y-32963000D03*
%TD*%
D10*
%TO.C,D19*%
X173925020Y-33099500D03*
D11*
X175050000Y-33099500D03*
D12*
X176074999Y-33099500D03*
D13*
X177074983Y-33099500D03*
D14*
X173425000Y-32963000D03*
X177575000Y-32963000D03*
%TD*%
D10*
%TO.C,D2*%
X-72574980Y-33099500D03*
D11*
X-71450000Y-33099500D03*
D12*
X-70425001Y-33099500D03*
D13*
X-69425017Y-33099500D03*
D14*
X-73075000Y-32963000D03*
X-68925000Y-32963000D03*
%TD*%
D10*
%TO.C,D27*%
X289925020Y-33099500D03*
D11*
X291050000Y-33099500D03*
D12*
X292074999Y-33099500D03*
D13*
X293074983Y-33099500D03*
D14*
X289425000Y-32963000D03*
X293575000Y-32963000D03*
%TD*%
M02*
