%TF.GenerationSoftware,KiCad,Pcbnew,10.0.0-rc1.1-4-gef7340bffd*%
%TF.CreationDate,2026-06-09T22:13:14+02:00*%
%TF.ProjectId,chu_touchpads,6368755f-746f-4756-9368-706164732e6b,rev?*%
%TF.SameCoordinates,Original*%
%TF.FileFunction,Legend,Bot*%
%TF.FilePolarity,Positive*%
%FSLAX46Y46*%
G04 Gerber Fmt 4.6, Leading zero omitted, Abs format (unit mm)*
G04 Created by KiCad (PCBNEW 10.0.0-rc1.1-4-gef7340bffd) date 2026-06-09 22:13:14*
%MOMM*%
%LPD*%
G01*
G04 APERTURE LIST*
%ADD10C,0.150000*%
%ADD11C,0.200000*%
%ADD12C,0.120000*%
G04 APERTURE END LIST*
D10*
X112289580Y-34295833D02*
X112337200Y-34248214D01*
X112337200Y-34248214D02*
X112384819Y-34105357D01*
X112384819Y-34105357D02*
X112384819Y-34010119D01*
X112384819Y-34010119D02*
X112337200Y-33867262D01*
X112337200Y-33867262D02*
X112241961Y-33772024D01*
X112241961Y-33772024D02*
X112146723Y-33724405D01*
X112146723Y-33724405D02*
X111956247Y-33676786D01*
X111956247Y-33676786D02*
X111813390Y-33676786D01*
X111813390Y-33676786D02*
X111622914Y-33724405D01*
X111622914Y-33724405D02*
X111527676Y-33772024D01*
X111527676Y-33772024D02*
X111432438Y-33867262D01*
X111432438Y-33867262D02*
X111384819Y-34010119D01*
X111384819Y-34010119D02*
X111384819Y-34105357D01*
X111384819Y-34105357D02*
X111432438Y-34248214D01*
X111432438Y-34248214D02*
X111480057Y-34295833D01*
X112384819Y-35248214D02*
X112384819Y-34676786D01*
X112384819Y-34962500D02*
X111384819Y-34962500D01*
X111384819Y-34962500D02*
X111527676Y-34867262D01*
X111527676Y-34867262D02*
X111622914Y-34772024D01*
X111622914Y-34772024D02*
X111670533Y-34676786D01*
X39814580Y-34295833D02*
X39862200Y-34248214D01*
X39862200Y-34248214D02*
X39909819Y-34105357D01*
X39909819Y-34105357D02*
X39909819Y-34010119D01*
X39909819Y-34010119D02*
X39862200Y-33867262D01*
X39862200Y-33867262D02*
X39766961Y-33772024D01*
X39766961Y-33772024D02*
X39671723Y-33724405D01*
X39671723Y-33724405D02*
X39481247Y-33676786D01*
X39481247Y-33676786D02*
X39338390Y-33676786D01*
X39338390Y-33676786D02*
X39147914Y-33724405D01*
X39147914Y-33724405D02*
X39052676Y-33772024D01*
X39052676Y-33772024D02*
X38957438Y-33867262D01*
X38957438Y-33867262D02*
X38909819Y-34010119D01*
X38909819Y-34010119D02*
X38909819Y-34105357D01*
X38909819Y-34105357D02*
X38957438Y-34248214D01*
X38957438Y-34248214D02*
X39005057Y-34295833D01*
X39005057Y-34676786D02*
X38957438Y-34724405D01*
X38957438Y-34724405D02*
X38909819Y-34819643D01*
X38909819Y-34819643D02*
X38909819Y-35057738D01*
X38909819Y-35057738D02*
X38957438Y-35152976D01*
X38957438Y-35152976D02*
X39005057Y-35200595D01*
X39005057Y-35200595D02*
X39100295Y-35248214D01*
X39100295Y-35248214D02*
X39195533Y-35248214D01*
X39195533Y-35248214D02*
X39338390Y-35200595D01*
X39338390Y-35200595D02*
X39909819Y-34629167D01*
X39909819Y-34629167D02*
X39909819Y-35248214D01*
D11*
X176261904Y-146252219D02*
X176261904Y-147061742D01*
X176261904Y-147061742D02*
X176214285Y-147156980D01*
X176214285Y-147156980D02*
X176166666Y-147204600D01*
X176166666Y-147204600D02*
X176071428Y-147252219D01*
X176071428Y-147252219D02*
X175880952Y-147252219D01*
X175880952Y-147252219D02*
X175785714Y-147204600D01*
X175785714Y-147204600D02*
X175738095Y-147156980D01*
X175738095Y-147156980D02*
X175690476Y-147061742D01*
X175690476Y-147061742D02*
X175690476Y-146252219D01*
X175261904Y-146347457D02*
X175214285Y-146299838D01*
X175214285Y-146299838D02*
X175119047Y-146252219D01*
X175119047Y-146252219D02*
X174880952Y-146252219D01*
X174880952Y-146252219D02*
X174785714Y-146299838D01*
X174785714Y-146299838D02*
X174738095Y-146347457D01*
X174738095Y-146347457D02*
X174690476Y-146442695D01*
X174690476Y-146442695D02*
X174690476Y-146537933D01*
X174690476Y-146537933D02*
X174738095Y-146680790D01*
X174738095Y-146680790D02*
X175309523Y-147252219D01*
X175309523Y-147252219D02*
X174690476Y-147252219D01*
X169585161Y-149106517D02*
X169632780Y-149201755D01*
X169632780Y-149201755D02*
X169632780Y-149344612D01*
X169632780Y-149344612D02*
X169585161Y-149487469D01*
X169585161Y-149487469D02*
X169489923Y-149582707D01*
X169489923Y-149582707D02*
X169394685Y-149630326D01*
X169394685Y-149630326D02*
X169204209Y-149677945D01*
X169204209Y-149677945D02*
X169061352Y-149677945D01*
X169061352Y-149677945D02*
X168870876Y-149630326D01*
X168870876Y-149630326D02*
X168775638Y-149582707D01*
X168775638Y-149582707D02*
X168680400Y-149487469D01*
X168680400Y-149487469D02*
X168632780Y-149344612D01*
X168632780Y-149344612D02*
X168632780Y-149249374D01*
X168632780Y-149249374D02*
X168680400Y-149106517D01*
X168680400Y-149106517D02*
X168728019Y-149058898D01*
X168728019Y-149058898D02*
X169061352Y-149058898D01*
X169061352Y-149058898D02*
X169061352Y-149249374D01*
X168632780Y-148630326D02*
X169632780Y-148630326D01*
X169632780Y-148630326D02*
X168632780Y-148058898D01*
X168632780Y-148058898D02*
X169632780Y-148058898D01*
X168632780Y-147582707D02*
X169632780Y-147582707D01*
X169632780Y-147582707D02*
X169632780Y-147344612D01*
X169632780Y-147344612D02*
X169585161Y-147201755D01*
X169585161Y-147201755D02*
X169489923Y-147106517D01*
X169489923Y-147106517D02*
X169394685Y-147058898D01*
X169394685Y-147058898D02*
X169204209Y-147011279D01*
X169204209Y-147011279D02*
X169061352Y-147011279D01*
X169061352Y-147011279D02*
X168870876Y-147058898D01*
X168870876Y-147058898D02*
X168775638Y-147106517D01*
X168775638Y-147106517D02*
X168680400Y-147201755D01*
X168680400Y-147201755D02*
X168632780Y-147344612D01*
X168632780Y-147344612D02*
X168632780Y-147582707D01*
X115073332Y-140188126D02*
X115073332Y-141095269D01*
X115073332Y-141095269D02*
X115133809Y-141276697D01*
X115133809Y-141276697D02*
X115254761Y-141397650D01*
X115254761Y-141397650D02*
X115436190Y-141458126D01*
X115436190Y-141458126D02*
X115557142Y-141458126D01*
X113803332Y-141458126D02*
X114529047Y-141458126D01*
X114166190Y-141458126D02*
X114166190Y-140188126D01*
X114166190Y-140188126D02*
X114287142Y-140369554D01*
X114287142Y-140369554D02*
X114408094Y-140490507D01*
X114408094Y-140490507D02*
X114529047Y-140550983D01*
X126897780Y-138638136D02*
X126897780Y-139114326D01*
X126897780Y-139114326D02*
X127897780Y-139114326D01*
X127421590Y-138304802D02*
X127421590Y-137971469D01*
X126897780Y-137828612D02*
X126897780Y-138304802D01*
X126897780Y-138304802D02*
X127897780Y-138304802D01*
X127897780Y-138304802D02*
X127897780Y-137828612D01*
X126897780Y-137400040D02*
X127897780Y-137400040D01*
X127897780Y-137400040D02*
X127897780Y-137161945D01*
X127897780Y-137161945D02*
X127850161Y-137019088D01*
X127850161Y-137019088D02*
X127754923Y-136923850D01*
X127754923Y-136923850D02*
X127659685Y-136876231D01*
X127659685Y-136876231D02*
X127469209Y-136828612D01*
X127469209Y-136828612D02*
X127326352Y-136828612D01*
X127326352Y-136828612D02*
X127135876Y-136876231D01*
X127135876Y-136876231D02*
X127040638Y-136923850D01*
X127040638Y-136923850D02*
X126945400Y-137019088D01*
X126945400Y-137019088D02*
X126897780Y-137161945D01*
X126897780Y-137161945D02*
X126897780Y-137400040D01*
X126802542Y-136638136D02*
X126802542Y-135876231D01*
X126897780Y-135638135D02*
X127897780Y-135638135D01*
X127897780Y-135638135D02*
X127897780Y-135400040D01*
X127897780Y-135400040D02*
X127850161Y-135257183D01*
X127850161Y-135257183D02*
X127754923Y-135161945D01*
X127754923Y-135161945D02*
X127659685Y-135114326D01*
X127659685Y-135114326D02*
X127469209Y-135066707D01*
X127469209Y-135066707D02*
X127326352Y-135066707D01*
X127326352Y-135066707D02*
X127135876Y-135114326D01*
X127135876Y-135114326D02*
X127040638Y-135161945D01*
X127040638Y-135161945D02*
X126945400Y-135257183D01*
X126945400Y-135257183D02*
X126897780Y-135400040D01*
X126897780Y-135400040D02*
X126897780Y-135638135D01*
X126897780Y-134209564D02*
X127421590Y-134209564D01*
X127421590Y-134209564D02*
X127516828Y-134257183D01*
X127516828Y-134257183D02*
X127564447Y-134352421D01*
X127564447Y-134352421D02*
X127564447Y-134542897D01*
X127564447Y-134542897D02*
X127516828Y-134638135D01*
X126945400Y-134209564D02*
X126897780Y-134304802D01*
X126897780Y-134304802D02*
X126897780Y-134542897D01*
X126897780Y-134542897D02*
X126945400Y-134638135D01*
X126945400Y-134638135D02*
X127040638Y-134685754D01*
X127040638Y-134685754D02*
X127135876Y-134685754D01*
X127135876Y-134685754D02*
X127231114Y-134638135D01*
X127231114Y-134638135D02*
X127278733Y-134542897D01*
X127278733Y-134542897D02*
X127278733Y-134304802D01*
X127278733Y-134304802D02*
X127326352Y-134209564D01*
X127564447Y-133876230D02*
X127564447Y-133495278D01*
X127897780Y-133733373D02*
X127040638Y-133733373D01*
X127040638Y-133733373D02*
X126945400Y-133685754D01*
X126945400Y-133685754D02*
X126897780Y-133590516D01*
X126897780Y-133590516D02*
X126897780Y-133495278D01*
X126897780Y-132733373D02*
X127421590Y-132733373D01*
X127421590Y-132733373D02*
X127516828Y-132780992D01*
X127516828Y-132780992D02*
X127564447Y-132876230D01*
X127564447Y-132876230D02*
X127564447Y-133066706D01*
X127564447Y-133066706D02*
X127516828Y-133161944D01*
X126945400Y-132733373D02*
X126897780Y-132828611D01*
X126897780Y-132828611D02*
X126897780Y-133066706D01*
X126897780Y-133066706D02*
X126945400Y-133161944D01*
X126945400Y-133161944D02*
X127040638Y-133209563D01*
X127040638Y-133209563D02*
X127135876Y-133209563D01*
X127135876Y-133209563D02*
X127231114Y-133161944D01*
X127231114Y-133161944D02*
X127278733Y-133066706D01*
X127278733Y-133066706D02*
X127278733Y-132828611D01*
X127278733Y-132828611D02*
X127326352Y-132733373D01*
X124405400Y-139161945D02*
X124357780Y-139019088D01*
X124357780Y-139019088D02*
X124357780Y-138780993D01*
X124357780Y-138780993D02*
X124405400Y-138685755D01*
X124405400Y-138685755D02*
X124453019Y-138638136D01*
X124453019Y-138638136D02*
X124548257Y-138590517D01*
X124548257Y-138590517D02*
X124643495Y-138590517D01*
X124643495Y-138590517D02*
X124738733Y-138638136D01*
X124738733Y-138638136D02*
X124786352Y-138685755D01*
X124786352Y-138685755D02*
X124833971Y-138780993D01*
X124833971Y-138780993D02*
X124881590Y-138971469D01*
X124881590Y-138971469D02*
X124929209Y-139066707D01*
X124929209Y-139066707D02*
X124976828Y-139114326D01*
X124976828Y-139114326D02*
X125072066Y-139161945D01*
X125072066Y-139161945D02*
X125167304Y-139161945D01*
X125167304Y-139161945D02*
X125262542Y-139114326D01*
X125262542Y-139114326D02*
X125310161Y-139066707D01*
X125310161Y-139066707D02*
X125357780Y-138971469D01*
X125357780Y-138971469D02*
X125357780Y-138733374D01*
X125357780Y-138733374D02*
X125310161Y-138590517D01*
X124357780Y-138161945D02*
X125357780Y-138161945D01*
X125357780Y-138161945D02*
X125357780Y-137923850D01*
X125357780Y-137923850D02*
X125310161Y-137780993D01*
X125310161Y-137780993D02*
X125214923Y-137685755D01*
X125214923Y-137685755D02*
X125119685Y-137638136D01*
X125119685Y-137638136D02*
X124929209Y-137590517D01*
X124929209Y-137590517D02*
X124786352Y-137590517D01*
X124786352Y-137590517D02*
X124595876Y-137638136D01*
X124595876Y-137638136D02*
X124500638Y-137685755D01*
X124500638Y-137685755D02*
X124405400Y-137780993D01*
X124405400Y-137780993D02*
X124357780Y-137923850D01*
X124357780Y-137923850D02*
X124357780Y-138161945D01*
X124643495Y-137209564D02*
X124643495Y-136733374D01*
X124357780Y-137304802D02*
X125357780Y-136971469D01*
X125357780Y-136971469D02*
X124357780Y-136638136D01*
X121865400Y-139161945D02*
X121817780Y-139019088D01*
X121817780Y-139019088D02*
X121817780Y-138780993D01*
X121817780Y-138780993D02*
X121865400Y-138685755D01*
X121865400Y-138685755D02*
X121913019Y-138638136D01*
X121913019Y-138638136D02*
X122008257Y-138590517D01*
X122008257Y-138590517D02*
X122103495Y-138590517D01*
X122103495Y-138590517D02*
X122198733Y-138638136D01*
X122198733Y-138638136D02*
X122246352Y-138685755D01*
X122246352Y-138685755D02*
X122293971Y-138780993D01*
X122293971Y-138780993D02*
X122341590Y-138971469D01*
X122341590Y-138971469D02*
X122389209Y-139066707D01*
X122389209Y-139066707D02*
X122436828Y-139114326D01*
X122436828Y-139114326D02*
X122532066Y-139161945D01*
X122532066Y-139161945D02*
X122627304Y-139161945D01*
X122627304Y-139161945D02*
X122722542Y-139114326D01*
X122722542Y-139114326D02*
X122770161Y-139066707D01*
X122770161Y-139066707D02*
X122817780Y-138971469D01*
X122817780Y-138971469D02*
X122817780Y-138733374D01*
X122817780Y-138733374D02*
X122770161Y-138590517D01*
X121913019Y-137590517D02*
X121865400Y-137638136D01*
X121865400Y-137638136D02*
X121817780Y-137780993D01*
X121817780Y-137780993D02*
X121817780Y-137876231D01*
X121817780Y-137876231D02*
X121865400Y-138019088D01*
X121865400Y-138019088D02*
X121960638Y-138114326D01*
X121960638Y-138114326D02*
X122055876Y-138161945D01*
X122055876Y-138161945D02*
X122246352Y-138209564D01*
X122246352Y-138209564D02*
X122389209Y-138209564D01*
X122389209Y-138209564D02*
X122579685Y-138161945D01*
X122579685Y-138161945D02*
X122674923Y-138114326D01*
X122674923Y-138114326D02*
X122770161Y-138019088D01*
X122770161Y-138019088D02*
X122817780Y-137876231D01*
X122817780Y-137876231D02*
X122817780Y-137780993D01*
X122817780Y-137780993D02*
X122770161Y-137638136D01*
X122770161Y-137638136D02*
X122722542Y-137590517D01*
X121817780Y-136685755D02*
X121817780Y-137161945D01*
X121817780Y-137161945D02*
X122817780Y-137161945D01*
X119658733Y-139114326D02*
X119658733Y-138352422D01*
X119277780Y-138733374D02*
X120039685Y-138733374D01*
X120277780Y-137971469D02*
X120277780Y-137352422D01*
X120277780Y-137352422D02*
X119896828Y-137685755D01*
X119896828Y-137685755D02*
X119896828Y-137542898D01*
X119896828Y-137542898D02*
X119849209Y-137447660D01*
X119849209Y-137447660D02*
X119801590Y-137400041D01*
X119801590Y-137400041D02*
X119706352Y-137352422D01*
X119706352Y-137352422D02*
X119468257Y-137352422D01*
X119468257Y-137352422D02*
X119373019Y-137400041D01*
X119373019Y-137400041D02*
X119325400Y-137447660D01*
X119325400Y-137447660D02*
X119277780Y-137542898D01*
X119277780Y-137542898D02*
X119277780Y-137828612D01*
X119277780Y-137828612D02*
X119325400Y-137923850D01*
X119325400Y-137923850D02*
X119373019Y-137971469D01*
X120277780Y-137066707D02*
X119277780Y-136733374D01*
X119277780Y-136733374D02*
X120277780Y-136400041D01*
X120277780Y-136161945D02*
X120277780Y-135542898D01*
X120277780Y-135542898D02*
X119896828Y-135876231D01*
X119896828Y-135876231D02*
X119896828Y-135733374D01*
X119896828Y-135733374D02*
X119849209Y-135638136D01*
X119849209Y-135638136D02*
X119801590Y-135590517D01*
X119801590Y-135590517D02*
X119706352Y-135542898D01*
X119706352Y-135542898D02*
X119468257Y-135542898D01*
X119468257Y-135542898D02*
X119373019Y-135590517D01*
X119373019Y-135590517D02*
X119325400Y-135638136D01*
X119325400Y-135638136D02*
X119277780Y-135733374D01*
X119277780Y-135733374D02*
X119277780Y-136019088D01*
X119277780Y-136019088D02*
X119325400Y-136114326D01*
X119325400Y-136114326D02*
X119373019Y-136161945D01*
X117118733Y-139114326D02*
X117118733Y-138352422D01*
X116737780Y-138733374D02*
X117499685Y-138733374D01*
X117737780Y-137400041D02*
X117737780Y-137876231D01*
X117737780Y-137876231D02*
X117261590Y-137923850D01*
X117261590Y-137923850D02*
X117309209Y-137876231D01*
X117309209Y-137876231D02*
X117356828Y-137780993D01*
X117356828Y-137780993D02*
X117356828Y-137542898D01*
X117356828Y-137542898D02*
X117309209Y-137447660D01*
X117309209Y-137447660D02*
X117261590Y-137400041D01*
X117261590Y-137400041D02*
X117166352Y-137352422D01*
X117166352Y-137352422D02*
X116928257Y-137352422D01*
X116928257Y-137352422D02*
X116833019Y-137400041D01*
X116833019Y-137400041D02*
X116785400Y-137447660D01*
X116785400Y-137447660D02*
X116737780Y-137542898D01*
X116737780Y-137542898D02*
X116737780Y-137780993D01*
X116737780Y-137780993D02*
X116785400Y-137876231D01*
X116785400Y-137876231D02*
X116833019Y-137923850D01*
X117737780Y-137066707D02*
X116737780Y-136733374D01*
X116737780Y-136733374D02*
X117737780Y-136400041D01*
X115150161Y-138590517D02*
X115197780Y-138685755D01*
X115197780Y-138685755D02*
X115197780Y-138828612D01*
X115197780Y-138828612D02*
X115150161Y-138971469D01*
X115150161Y-138971469D02*
X115054923Y-139066707D01*
X115054923Y-139066707D02*
X114959685Y-139114326D01*
X114959685Y-139114326D02*
X114769209Y-139161945D01*
X114769209Y-139161945D02*
X114626352Y-139161945D01*
X114626352Y-139161945D02*
X114435876Y-139114326D01*
X114435876Y-139114326D02*
X114340638Y-139066707D01*
X114340638Y-139066707D02*
X114245400Y-138971469D01*
X114245400Y-138971469D02*
X114197780Y-138828612D01*
X114197780Y-138828612D02*
X114197780Y-138733374D01*
X114197780Y-138733374D02*
X114245400Y-138590517D01*
X114245400Y-138590517D02*
X114293019Y-138542898D01*
X114293019Y-138542898D02*
X114626352Y-138542898D01*
X114626352Y-138542898D02*
X114626352Y-138733374D01*
X114197780Y-138114326D02*
X115197780Y-138114326D01*
X115197780Y-138114326D02*
X114197780Y-137542898D01*
X114197780Y-137542898D02*
X115197780Y-137542898D01*
X114197780Y-137066707D02*
X115197780Y-137066707D01*
X115197780Y-137066707D02*
X115197780Y-136828612D01*
X115197780Y-136828612D02*
X115150161Y-136685755D01*
X115150161Y-136685755D02*
X115054923Y-136590517D01*
X115054923Y-136590517D02*
X114959685Y-136542898D01*
X114959685Y-136542898D02*
X114769209Y-136495279D01*
X114769209Y-136495279D02*
X114626352Y-136495279D01*
X114626352Y-136495279D02*
X114435876Y-136542898D01*
X114435876Y-136542898D02*
X114340638Y-136590517D01*
X114340638Y-136590517D02*
X114245400Y-136685755D01*
X114245400Y-136685755D02*
X114197780Y-136828612D01*
X114197780Y-136828612D02*
X114197780Y-137066707D01*
D10*
X329789580Y-34295833D02*
X329837200Y-34248214D01*
X329837200Y-34248214D02*
X329884819Y-34105357D01*
X329884819Y-34105357D02*
X329884819Y-34010119D01*
X329884819Y-34010119D02*
X329837200Y-33867262D01*
X329837200Y-33867262D02*
X329741961Y-33772024D01*
X329741961Y-33772024D02*
X329646723Y-33724405D01*
X329646723Y-33724405D02*
X329456247Y-33676786D01*
X329456247Y-33676786D02*
X329313390Y-33676786D01*
X329313390Y-33676786D02*
X329122914Y-33724405D01*
X329122914Y-33724405D02*
X329027676Y-33772024D01*
X329027676Y-33772024D02*
X328932438Y-33867262D01*
X328932438Y-33867262D02*
X328884819Y-34010119D01*
X328884819Y-34010119D02*
X328884819Y-34105357D01*
X328884819Y-34105357D02*
X328932438Y-34248214D01*
X328932438Y-34248214D02*
X328980057Y-34295833D01*
X329218152Y-35152976D02*
X329884819Y-35152976D01*
X328837200Y-34914881D02*
X329551485Y-34676786D01*
X329551485Y-34676786D02*
X329551485Y-35295833D01*
X108539580Y-146795833D02*
X108587200Y-146748214D01*
X108587200Y-146748214D02*
X108634819Y-146605357D01*
X108634819Y-146605357D02*
X108634819Y-146510119D01*
X108634819Y-146510119D02*
X108587200Y-146367262D01*
X108587200Y-146367262D02*
X108491961Y-146272024D01*
X108491961Y-146272024D02*
X108396723Y-146224405D01*
X108396723Y-146224405D02*
X108206247Y-146176786D01*
X108206247Y-146176786D02*
X108063390Y-146176786D01*
X108063390Y-146176786D02*
X107872914Y-146224405D01*
X107872914Y-146224405D02*
X107777676Y-146272024D01*
X107777676Y-146272024D02*
X107682438Y-146367262D01*
X107682438Y-146367262D02*
X107634819Y-146510119D01*
X107634819Y-146510119D02*
X107634819Y-146605357D01*
X107634819Y-146605357D02*
X107682438Y-146748214D01*
X107682438Y-146748214D02*
X107730057Y-146795833D01*
X107634819Y-147700595D02*
X107634819Y-147224405D01*
X107634819Y-147224405D02*
X108111009Y-147176786D01*
X108111009Y-147176786D02*
X108063390Y-147224405D01*
X108063390Y-147224405D02*
X108015771Y-147319643D01*
X108015771Y-147319643D02*
X108015771Y-147557738D01*
X108015771Y-147557738D02*
X108063390Y-147652976D01*
X108063390Y-147652976D02*
X108111009Y-147700595D01*
X108111009Y-147700595D02*
X108206247Y-147748214D01*
X108206247Y-147748214D02*
X108444342Y-147748214D01*
X108444342Y-147748214D02*
X108539580Y-147700595D01*
X108539580Y-147700595D02*
X108587200Y-147652976D01*
X108587200Y-147652976D02*
X108634819Y-147557738D01*
X108634819Y-147557738D02*
X108634819Y-147319643D01*
X108634819Y-147319643D02*
X108587200Y-147224405D01*
X108587200Y-147224405D02*
X108539580Y-147176786D01*
X184789580Y-34295833D02*
X184837200Y-34248214D01*
X184837200Y-34248214D02*
X184884819Y-34105357D01*
X184884819Y-34105357D02*
X184884819Y-34010119D01*
X184884819Y-34010119D02*
X184837200Y-33867262D01*
X184837200Y-33867262D02*
X184741961Y-33772024D01*
X184741961Y-33772024D02*
X184646723Y-33724405D01*
X184646723Y-33724405D02*
X184456247Y-33676786D01*
X184456247Y-33676786D02*
X184313390Y-33676786D01*
X184313390Y-33676786D02*
X184122914Y-33724405D01*
X184122914Y-33724405D02*
X184027676Y-33772024D01*
X184027676Y-33772024D02*
X183932438Y-33867262D01*
X183932438Y-33867262D02*
X183884819Y-34010119D01*
X183884819Y-34010119D02*
X183884819Y-34105357D01*
X183884819Y-34105357D02*
X183932438Y-34248214D01*
X183932438Y-34248214D02*
X183980057Y-34295833D01*
X183884819Y-35152976D02*
X183884819Y-34962500D01*
X183884819Y-34962500D02*
X183932438Y-34867262D01*
X183932438Y-34867262D02*
X183980057Y-34819643D01*
X183980057Y-34819643D02*
X184122914Y-34724405D01*
X184122914Y-34724405D02*
X184313390Y-34676786D01*
X184313390Y-34676786D02*
X184694342Y-34676786D01*
X184694342Y-34676786D02*
X184789580Y-34724405D01*
X184789580Y-34724405D02*
X184837200Y-34772024D01*
X184837200Y-34772024D02*
X184884819Y-34867262D01*
X184884819Y-34867262D02*
X184884819Y-35057738D01*
X184884819Y-35057738D02*
X184837200Y-35152976D01*
X184837200Y-35152976D02*
X184789580Y-35200595D01*
X184789580Y-35200595D02*
X184694342Y-35248214D01*
X184694342Y-35248214D02*
X184456247Y-35248214D01*
X184456247Y-35248214D02*
X184361009Y-35200595D01*
X184361009Y-35200595D02*
X184313390Y-35152976D01*
X184313390Y-35152976D02*
X184265771Y-35057738D01*
X184265771Y-35057738D02*
X184265771Y-34867262D01*
X184265771Y-34867262D02*
X184313390Y-34772024D01*
X184313390Y-34772024D02*
X184361009Y-34724405D01*
X184361009Y-34724405D02*
X184456247Y-34676786D01*
D11*
X2261904Y-146252219D02*
X2261904Y-147061742D01*
X2261904Y-147061742D02*
X2214285Y-147156980D01*
X2214285Y-147156980D02*
X2166666Y-147204600D01*
X2166666Y-147204600D02*
X2071428Y-147252219D01*
X2071428Y-147252219D02*
X1880952Y-147252219D01*
X1880952Y-147252219D02*
X1785714Y-147204600D01*
X1785714Y-147204600D02*
X1738095Y-147156980D01*
X1738095Y-147156980D02*
X1690476Y-147061742D01*
X1690476Y-147061742D02*
X1690476Y-146252219D01*
X690476Y-147252219D02*
X1261904Y-147252219D01*
X976190Y-147252219D02*
X976190Y-146252219D01*
X976190Y-146252219D02*
X1071428Y-146395076D01*
X1071428Y-146395076D02*
X1166666Y-146490314D01*
X1166666Y-146490314D02*
X1261904Y-146537933D01*
X-4414838Y-149106517D02*
X-4367219Y-149201755D01*
X-4367219Y-149201755D02*
X-4367219Y-149344612D01*
X-4367219Y-149344612D02*
X-4414838Y-149487469D01*
X-4414838Y-149487469D02*
X-4510076Y-149582707D01*
X-4510076Y-149582707D02*
X-4605314Y-149630326D01*
X-4605314Y-149630326D02*
X-4795790Y-149677945D01*
X-4795790Y-149677945D02*
X-4938647Y-149677945D01*
X-4938647Y-149677945D02*
X-5129123Y-149630326D01*
X-5129123Y-149630326D02*
X-5224361Y-149582707D01*
X-5224361Y-149582707D02*
X-5319600Y-149487469D01*
X-5319600Y-149487469D02*
X-5367219Y-149344612D01*
X-5367219Y-149344612D02*
X-5367219Y-149249374D01*
X-5367219Y-149249374D02*
X-5319600Y-149106517D01*
X-5319600Y-149106517D02*
X-5271980Y-149058898D01*
X-5271980Y-149058898D02*
X-4938647Y-149058898D01*
X-4938647Y-149058898D02*
X-4938647Y-149249374D01*
X-5367219Y-148630326D02*
X-4367219Y-148630326D01*
X-4367219Y-148630326D02*
X-5367219Y-148058898D01*
X-5367219Y-148058898D02*
X-4367219Y-148058898D01*
X-5367219Y-147582707D02*
X-4367219Y-147582707D01*
X-4367219Y-147582707D02*
X-4367219Y-147344612D01*
X-4367219Y-147344612D02*
X-4414838Y-147201755D01*
X-4414838Y-147201755D02*
X-4510076Y-147106517D01*
X-4510076Y-147106517D02*
X-4605314Y-147058898D01*
X-4605314Y-147058898D02*
X-4795790Y-147011279D01*
X-4795790Y-147011279D02*
X-4938647Y-147011279D01*
X-4938647Y-147011279D02*
X-5129123Y-147058898D01*
X-5129123Y-147058898D02*
X-5224361Y-147106517D01*
X-5224361Y-147106517D02*
X-5319600Y-147201755D01*
X-5319600Y-147201755D02*
X-5367219Y-147344612D01*
X-5367219Y-147344612D02*
X-5367219Y-147582707D01*
X321261904Y-146252219D02*
X321261904Y-147061742D01*
X321261904Y-147061742D02*
X321214285Y-147156980D01*
X321214285Y-147156980D02*
X321166666Y-147204600D01*
X321166666Y-147204600D02*
X321071428Y-147252219D01*
X321071428Y-147252219D02*
X320880952Y-147252219D01*
X320880952Y-147252219D02*
X320785714Y-147204600D01*
X320785714Y-147204600D02*
X320738095Y-147156980D01*
X320738095Y-147156980D02*
X320690476Y-147061742D01*
X320690476Y-147061742D02*
X320690476Y-146252219D01*
X320309523Y-146252219D02*
X319690476Y-146252219D01*
X319690476Y-146252219D02*
X320023809Y-146633171D01*
X320023809Y-146633171D02*
X319880952Y-146633171D01*
X319880952Y-146633171D02*
X319785714Y-146680790D01*
X319785714Y-146680790D02*
X319738095Y-146728409D01*
X319738095Y-146728409D02*
X319690476Y-146823647D01*
X319690476Y-146823647D02*
X319690476Y-147061742D01*
X319690476Y-147061742D02*
X319738095Y-147156980D01*
X319738095Y-147156980D02*
X319785714Y-147204600D01*
X319785714Y-147204600D02*
X319880952Y-147252219D01*
X319880952Y-147252219D02*
X320166666Y-147252219D01*
X320166666Y-147252219D02*
X320261904Y-147204600D01*
X320261904Y-147204600D02*
X320309523Y-147156980D01*
X314585161Y-149106517D02*
X314632780Y-149201755D01*
X314632780Y-149201755D02*
X314632780Y-149344612D01*
X314632780Y-149344612D02*
X314585161Y-149487469D01*
X314585161Y-149487469D02*
X314489923Y-149582707D01*
X314489923Y-149582707D02*
X314394685Y-149630326D01*
X314394685Y-149630326D02*
X314204209Y-149677945D01*
X314204209Y-149677945D02*
X314061352Y-149677945D01*
X314061352Y-149677945D02*
X313870876Y-149630326D01*
X313870876Y-149630326D02*
X313775638Y-149582707D01*
X313775638Y-149582707D02*
X313680400Y-149487469D01*
X313680400Y-149487469D02*
X313632780Y-149344612D01*
X313632780Y-149344612D02*
X313632780Y-149249374D01*
X313632780Y-149249374D02*
X313680400Y-149106517D01*
X313680400Y-149106517D02*
X313728019Y-149058898D01*
X313728019Y-149058898D02*
X314061352Y-149058898D01*
X314061352Y-149058898D02*
X314061352Y-149249374D01*
X313632780Y-148630326D02*
X314632780Y-148630326D01*
X314632780Y-148630326D02*
X313632780Y-148058898D01*
X313632780Y-148058898D02*
X314632780Y-148058898D01*
X313632780Y-147582707D02*
X314632780Y-147582707D01*
X314632780Y-147582707D02*
X314632780Y-147344612D01*
X314632780Y-147344612D02*
X314585161Y-147201755D01*
X314585161Y-147201755D02*
X314489923Y-147106517D01*
X314489923Y-147106517D02*
X314394685Y-147058898D01*
X314394685Y-147058898D02*
X314204209Y-147011279D01*
X314204209Y-147011279D02*
X314061352Y-147011279D01*
X314061352Y-147011279D02*
X313870876Y-147058898D01*
X313870876Y-147058898D02*
X313775638Y-147106517D01*
X313775638Y-147106517D02*
X313680400Y-147201755D01*
X313680400Y-147201755D02*
X313632780Y-147344612D01*
X313632780Y-147344612D02*
X313632780Y-147582707D01*
D10*
X-32710419Y-34295833D02*
X-32662800Y-34248214D01*
X-32662800Y-34248214D02*
X-32615180Y-34105357D01*
X-32615180Y-34105357D02*
X-32615180Y-34010119D01*
X-32615180Y-34010119D02*
X-32662800Y-33867262D01*
X-32662800Y-33867262D02*
X-32758038Y-33772024D01*
X-32758038Y-33772024D02*
X-32853276Y-33724405D01*
X-32853276Y-33724405D02*
X-33043752Y-33676786D01*
X-33043752Y-33676786D02*
X-33186609Y-33676786D01*
X-33186609Y-33676786D02*
X-33377085Y-33724405D01*
X-33377085Y-33724405D02*
X-33472323Y-33772024D01*
X-33472323Y-33772024D02*
X-33567561Y-33867262D01*
X-33567561Y-33867262D02*
X-33615180Y-34010119D01*
X-33615180Y-34010119D02*
X-33615180Y-34105357D01*
X-33615180Y-34105357D02*
X-33567561Y-34248214D01*
X-33567561Y-34248214D02*
X-33519942Y-34295833D01*
X-33615180Y-34629167D02*
X-33615180Y-35248214D01*
X-33615180Y-35248214D02*
X-33234228Y-34914881D01*
X-33234228Y-34914881D02*
X-33234228Y-35057738D01*
X-33234228Y-35057738D02*
X-33186609Y-35152976D01*
X-33186609Y-35152976D02*
X-33138990Y-35200595D01*
X-33138990Y-35200595D02*
X-33043752Y-35248214D01*
X-33043752Y-35248214D02*
X-32805657Y-35248214D01*
X-32805657Y-35248214D02*
X-32710419Y-35200595D01*
X-32710419Y-35200595D02*
X-32662800Y-35152976D01*
X-32662800Y-35152976D02*
X-32615180Y-35057738D01*
X-32615180Y-35057738D02*
X-32615180Y-34772024D01*
X-32615180Y-34772024D02*
X-32662800Y-34676786D01*
X-32662800Y-34676786D02*
X-32710419Y-34629167D01*
X257289580Y-34295833D02*
X257337200Y-34248214D01*
X257337200Y-34248214D02*
X257384819Y-34105357D01*
X257384819Y-34105357D02*
X257384819Y-34010119D01*
X257384819Y-34010119D02*
X257337200Y-33867262D01*
X257337200Y-33867262D02*
X257241961Y-33772024D01*
X257241961Y-33772024D02*
X257146723Y-33724405D01*
X257146723Y-33724405D02*
X256956247Y-33676786D01*
X256956247Y-33676786D02*
X256813390Y-33676786D01*
X256813390Y-33676786D02*
X256622914Y-33724405D01*
X256622914Y-33724405D02*
X256527676Y-33772024D01*
X256527676Y-33772024D02*
X256432438Y-33867262D01*
X256432438Y-33867262D02*
X256384819Y-34010119D01*
X256384819Y-34010119D02*
X256384819Y-34105357D01*
X256384819Y-34105357D02*
X256432438Y-34248214D01*
X256432438Y-34248214D02*
X256480057Y-34295833D01*
X256384819Y-34629167D02*
X256384819Y-35295833D01*
X256384819Y-35295833D02*
X257384819Y-34867262D01*
X118440580Y-147733633D02*
X118488200Y-147686014D01*
X118488200Y-147686014D02*
X118535819Y-147543157D01*
X118535819Y-147543157D02*
X118535819Y-147447919D01*
X118535819Y-147447919D02*
X118488200Y-147305062D01*
X118488200Y-147305062D02*
X118392961Y-147209824D01*
X118392961Y-147209824D02*
X118297723Y-147162205D01*
X118297723Y-147162205D02*
X118107247Y-147114586D01*
X118107247Y-147114586D02*
X117964390Y-147114586D01*
X117964390Y-147114586D02*
X117773914Y-147162205D01*
X117773914Y-147162205D02*
X117678676Y-147209824D01*
X117678676Y-147209824D02*
X117583438Y-147305062D01*
X117583438Y-147305062D02*
X117535819Y-147447919D01*
X117535819Y-147447919D02*
X117535819Y-147543157D01*
X117535819Y-147543157D02*
X117583438Y-147686014D01*
X117583438Y-147686014D02*
X117631057Y-147733633D01*
X117964390Y-148305062D02*
X117916771Y-148209824D01*
X117916771Y-148209824D02*
X117869152Y-148162205D01*
X117869152Y-148162205D02*
X117773914Y-148114586D01*
X117773914Y-148114586D02*
X117726295Y-148114586D01*
X117726295Y-148114586D02*
X117631057Y-148162205D01*
X117631057Y-148162205D02*
X117583438Y-148209824D01*
X117583438Y-148209824D02*
X117535819Y-148305062D01*
X117535819Y-148305062D02*
X117535819Y-148495538D01*
X117535819Y-148495538D02*
X117583438Y-148590776D01*
X117583438Y-148590776D02*
X117631057Y-148638395D01*
X117631057Y-148638395D02*
X117726295Y-148686014D01*
X117726295Y-148686014D02*
X117773914Y-148686014D01*
X117773914Y-148686014D02*
X117869152Y-148638395D01*
X117869152Y-148638395D02*
X117916771Y-148590776D01*
X117916771Y-148590776D02*
X117964390Y-148495538D01*
X117964390Y-148495538D02*
X117964390Y-148305062D01*
X117964390Y-148305062D02*
X118012009Y-148209824D01*
X118012009Y-148209824D02*
X118059628Y-148162205D01*
X118059628Y-148162205D02*
X118154866Y-148114586D01*
X118154866Y-148114586D02*
X118345342Y-148114586D01*
X118345342Y-148114586D02*
X118440580Y-148162205D01*
X118440580Y-148162205D02*
X118488200Y-148209824D01*
X118488200Y-148209824D02*
X118535819Y-148305062D01*
X118535819Y-148305062D02*
X118535819Y-148495538D01*
X118535819Y-148495538D02*
X118488200Y-148590776D01*
X118488200Y-148590776D02*
X118440580Y-148638395D01*
X118440580Y-148638395D02*
X118345342Y-148686014D01*
X118345342Y-148686014D02*
X118154866Y-148686014D01*
X118154866Y-148686014D02*
X118059628Y-148638395D01*
X118059628Y-148638395D02*
X118012009Y-148590776D01*
X118012009Y-148590776D02*
X117964390Y-148495538D01*
%TO.C,C1*%
D12*
X110985000Y-34723752D02*
X110985000Y-34201248D01*
X109515000Y-34723752D02*
X109515000Y-34201248D01*
%TO.C,C2*%
X38510000Y-34723752D02*
X38510000Y-34201248D01*
X37040000Y-34723752D02*
X37040000Y-34201248D01*
%TO.C,U2*%
D11*
X160000000Y-132500000D02*
X191000000Y-132500000D01*
X191000000Y-153000000D01*
X160000000Y-153000000D01*
X160000000Y-132500000D01*
%TO.C,J1*%
X128620000Y-139741000D02*
X128620000Y-142661000D01*
X113380000Y-139741000D02*
X128620000Y-139741000D01*
X113380000Y-143421000D02*
X113380000Y-139741000D01*
%TO.C,C4*%
D12*
X328485000Y-34723752D02*
X328485000Y-34201248D01*
X327015000Y-34723752D02*
X327015000Y-34201248D01*
%TO.C,C5*%
X107235000Y-147223752D02*
X107235000Y-146701248D01*
X105765000Y-147223752D02*
X105765000Y-146701248D01*
%TO.C,C6*%
X183485000Y-34723752D02*
X183485000Y-34201248D01*
X182015000Y-34723752D02*
X182015000Y-34201248D01*
%TO.C,U1*%
D11*
X-14000000Y-132500000D02*
X17000000Y-132500000D01*
X17000000Y-153000000D01*
X-14000000Y-153000000D01*
X-14000000Y-132500000D01*
%TO.C,U3*%
X305000000Y-132500000D02*
X336000000Y-132500000D01*
X336000000Y-153000000D01*
X305000000Y-153000000D01*
X305000000Y-132500000D01*
%TO.C,C3*%
D12*
X-34015000Y-34723752D02*
X-34015000Y-34201248D01*
X-35485000Y-34723752D02*
X-35485000Y-34201248D01*
%TO.C,C7*%
X255985000Y-34723752D02*
X255985000Y-34201248D01*
X254515000Y-34723752D02*
X254515000Y-34201248D01*
%TO.C,C8*%
X119026000Y-147639048D02*
X119026000Y-148161552D01*
X120496000Y-147639048D02*
X120496000Y-148161552D01*
%TD*%
M02*
