M48
; DRILL file KiCad 10.0.0-rc1.1-4-gef7340bffd date 2026-06-09T22:13:10
; FORMAT={-:-/ absolute / metric / decimal}
; #@! TF.CreationDate,2026-06-09T22:13:10+02:00
; #@! TF.GenerationSoftware,Kicad,Pcbnew,10.0.0-rc1.1-4-gef7340bffd
; #@! TF.FileFunction,Plated,1,2,PTH
FMAT,2
METRIC
; #@! TA.AperFunction,Plated,PTH,ViaDrill
T1C0.300
; #@! TA.AperFunction,Plated,PTH,ComponentDrill
T2C1.000
; #@! TA.AperFunction,Plated,PTH,ComponentDrill
T3C1.450
%
G90
G05
T1
X-99.5Y-65.5
X-99.5Y-105.0
X-99.0Y-33.0
X-96.75Y-45.25
X-95.5Y-148.5
X-94.0Y-36.75
X-94.0Y-76.5
X-93.75Y-99.0
X-93.75Y-121.75
X-92.625Y-33.975
X-92.0Y-143.0
X-91.0Y-56.75
X-91.0Y-67.5
X-86.0Y-36.0
X-86.0Y-133.5
X-79.0Y-33.5
X-79.0Y-37.0
X-74.0Y-135.75
X-71.5Y-35.5
X-71.0Y-60.75
X-64.0Y-33.5
X-64.0Y-37.0
X-57.0Y-35.5
X-54.25Y-127.25
X-49.5Y-33.5
X-49.5Y-37.0
X-43.0Y-144.5
X-42.5Y-35.5
X-42.0Y-60.75
X-34.5Y-37.0
X-28.0Y-35.5
X-26.5Y-141.0
X-23.0Y-130.25
X-23.0Y-152.0
X-21.0Y-33.5
X-21.0Y-37.0
X-17.5Y-124.5
X-13.5Y-35.5
X-13.0Y-60.75
X-9.0Y-144.25
X-6.5Y-33.5
X-6.5Y-37.0
X1.0Y-35.5
X2.25Y-127.25
X8.0Y-33.5
X8.0Y-37.0
X13.005Y-139.005
X15.5Y-35.5
X16.0Y-60.75
X23.0Y-33.5
X23.0Y-37.0
X30.0Y-35.5
X36.0Y-127.25
X37.5Y-37.0
X44.5Y-35.5
X45.0Y-60.75
X51.5Y-33.5
X51.5Y-37.0
X58.75Y-127.5
X59.0Y-35.5
X64.5Y-144.25
X66.5Y-33.5
X66.5Y-37.0
X73.5Y-35.5
X74.0Y-60.75
X81.0Y-33.5
X81.0Y-37.0
X83.5Y-130.0
X88.0Y-35.5
X92.75Y-127.5
X93.5Y-143.5
X95.0Y-33.5
X95.0Y-37.0
X101.0Y-151.5
X102.5Y-35.5
X103.0Y-60.75
X110.0Y-37.0
X117.0Y-35.5
X121.0Y-127.25
X124.0Y-33.5
X124.0Y-37.0
X131.5Y-35.5
X132.0Y-60.75
X132.25Y-144.25
X132.25Y-150.0
X139.0Y-33.5
X139.0Y-37.0
X146.0Y-35.5
X149.25Y-127.25
X153.0Y-33.5
X153.0Y-37.0
X160.5Y-35.5
X161.0Y-60.75
X161.475Y-139.025
X162.0Y-137.005
X167.5Y-33.5
X167.5Y-37.0
X175.0Y-35.5
X177.5Y-127.5
X182.5Y-37.0
X183.25Y-144.25
X189.0Y-150.0
X189.5Y-35.5
X190.0Y-60.75
X197.0Y-33.5
X197.0Y-37.0
X204.0Y-35.5
X206.0Y-127.25
X211.5Y-33.5
X211.5Y-37.0
X217.0Y-150.0
X218.5Y-35.5
X219.0Y-60.75
X222.75Y-144.5
X226.5Y-33.5
X226.5Y-37.0
X233.0Y-35.5
X234.25Y-127.5
X241.0Y-33.5
X241.0Y-37.0
X247.5Y-35.5
X248.0Y-60.75
X251.5Y-132.0
X254.5Y-143.5
X255.5Y-37.0
X262.0Y-35.5
X265.25Y-130.25
X270.0Y-33.5
X270.0Y-37.0
X276.5Y-35.5
X277.0Y-60.75
X285.0Y-33.5
X285.0Y-37.0
X291.0Y-35.5
X296.5Y-127.5
X298.5Y-33.5
X298.5Y-37.0
X299.25Y-141.75
X302.25Y-150.0
X305.5Y-35.5
X306.0Y-60.75
X306.45Y-139.0
X306.995Y-137.005
X313.0Y-33.5
X313.0Y-37.0
X319.0Y-127.25
X320.0Y-35.5
X321.0Y-141.0
X327.5Y-37.0
X333.0Y-143.0
X334.5Y-35.5
X335.0Y-60.75
X341.5Y-33.5
X341.5Y-37.0
X344.5Y-135.75
X347.5Y-127.25
X349.0Y-35.5
X356.0Y-33.5
X356.0Y-37.0
X360.0Y-142.0
X363.5Y-35.5
X364.0Y-60.75
X369.0Y-138.0
X370.5Y-33.5
X370.5Y-37.0
X375.0Y-131.5
X378.0Y-35.5
X381.0Y-145.5
X385.0Y-50.5
X385.5Y-72.5
X387.0Y-36.75
X387.0Y-65.0
X387.0Y-99.0
X387.0Y-116.0
T2
X-12.47Y-134.0
X-9.93Y-134.0
X-7.39Y-134.0
X-4.85Y-134.0
X-4.85Y-151.78
X-2.31Y-134.0
X-2.31Y-151.78
X0.23Y-134.0
X0.23Y-151.78
X2.77Y-134.0
X2.77Y-151.78
X5.31Y-134.0
X5.31Y-151.78
X7.85Y-134.0
X7.85Y-151.78
X10.39Y-134.0
X12.93Y-134.0
X15.47Y-134.0
X161.53Y-134.0
X164.07Y-134.0
X166.61Y-134.0
X169.15Y-134.0
X169.15Y-151.78
X171.69Y-134.0
X171.69Y-151.78
X174.23Y-134.0
X174.23Y-151.78
X176.77Y-134.0
X176.77Y-151.78
X179.31Y-134.0
X179.31Y-151.78
X181.85Y-134.0
X181.85Y-151.78
X184.39Y-134.0
X186.93Y-134.0
X189.47Y-134.0
X306.53Y-134.0
X309.07Y-134.0
X311.61Y-134.0
X314.15Y-134.0
X314.15Y-151.78
X316.69Y-134.0
X316.69Y-151.78
X319.23Y-134.0
X319.23Y-151.78
X321.77Y-134.0
X321.77Y-151.78
X324.31Y-134.0
X324.31Y-151.78
X326.85Y-134.0
X326.85Y-151.78
X329.39Y-134.0
X331.93Y-134.0
X334.47Y-134.0
T3
X114.65Y-143.421
X117.19Y-143.421
X119.73Y-143.421
X122.27Y-143.421
X124.81Y-143.421
X127.35Y-143.421
M30
