0
SECTION
2
HEADER
9
$INSUNITS
70
4
9
$ACADVER
1
AC1014
9
$HANDSEED
5
FFFF
0
ENDSEC
0
SECTION
2
TABLES
0
TABLE
2
VPORT
5
8
100
AcDbSymbolTable
0
ENDTAB
0
TABLE
2
LTYPE
5
5
100
AcDbSymbolTable
0
LTYPE
5
14
100
AcDbSymbolTableRecord
100
AcDbLinetypeTableRecord
2
BYBLOCK
70
0
0
LTYPE
5
15
100
AcDbSymbolTableRecord
100
AcDbLinetypeTableRecord
2
BYLAYER
70
0
0
LTYPE
5
16
100
AcDbSymbolTableRecord
100
AcDbLinetypeTableRecord
2
DASHED
70
0
3
Dashed __ __ __ __ __ __ __ __ __ __ __ __ __ _
72
65
73
2
40
0.75
49
0.5
74
0
49
-0.25
74
0
0
ENDTAB
0
TABLE
2
LAYER
5
2
100
AcDbSymbolTable
70
3
0
LAYER
5
50
100
AcDbSymbolTableRecord
100
AcDbLayerTableRecord
2
1
70
0
62
7
6
DASHED
0
LAYER
5
51
100
AcDbSymbolTableRecord
100
AcDbLayerTableRecord
2
0
70
0
62
7
6
CONTINUOUS
0
ENDTAB
0
TABLE
2
STYLE
5
3
100
AcDbSymbolTable
70
1
0
STYLE
5
11
100
AcDbSymbolTableRecord
100
AcDbTextStyleTableRecord
2
STANDARD
70
0
0
ENDTAB
0
TABLE
2
VIEW
5
6
100
AcDbSymbolTable
70
0
0
ENDTAB
0
TABLE
2
UCS
5
7
100
AcDbSymbolTable
70
0
0
ENDTAB
0
TABLE
2
APPID
5
9
100
AcDbSymbolTable
70
2
0
APPID
5
12
100
AcDbSymbolTableRecord
100
AcDbRegAppTableRecord
2
ACAD
70
0
0
ENDTAB
0
TABLE
2
DIMSTYLE
5
A
100
AcDbSymbolTable
70
1
0
ENDTAB
0
TABLE
2
BLOCK_RECORD
5
1
100
AcDbSymbolTable
70
1
0
BLOCK_RECORD
5
1F
100
AcDbSymbolTableRecord
100
AcDbBlockTableRecord
2
*MODEL_SPACE
0
BLOCK_RECORD
5
1B
100
AcDbSymbolTableRecord
100
AcDbBlockTableRecord
2
*PAPER_SPACE
0
ENDTAB
0
ENDSEC
0
SECTION
2
BLOCKS
0
BLOCK
5
20
100
AcDbEntity
100
AcDbBlockBegin
2
*MODEL_SPACE
0
ENDBLK
5
21
100
AcDbEntity
100
AcDbBlockEnd
0
BLOCK
5
1C
100
AcDbEntity
100
AcDbBlockBegin
2
*PAPER_SPACE
0
ENDBLK
5
1D
100
AcDbEntity
100
AcDbBlockEnd
0
ENDSEC
0
SECTION
2
ENTITIES
0
POINT
5
100
100
AcDbEntity
8
0
100
AcDbPoint
10
-222.00000329315662
20
50.00000074505806
30
0
0
POINT
5
101
100
AcDbEntity
8
0
100
AcDbPoint
10
-225.00000335276127
20
55.000000819563866
30
0
0
POINT
5
102
100
AcDbEntity
8
0
100
AcDbPoint
10
141.00000210106373
20
-55.000000819563866
30
0
0
POINT
5
103
100
AcDbEntity
8
0
100
AcDbPoint
10
262.00000390410423
20
-52.000000774860382
30
0
0
POINT
5
104
100
AcDbEntity
8
0
100
AcDbPoint
10
262.00000390410423
20
-31.000000461935997
30
0
0
POINT
5
105
100
AcDbEntity
8
0
100
AcDbPoint
10
262.00000390410423
20
-10.000000149011612
30
0
0
LINE
5
106
100
AcDbEntity
8
0
100
AcDbLine
10
-220
20
50
30
0
11
-220
21
0.39999999999999147
31
0
0
LINE
5
107
100
AcDbEntity
8
0
100
AcDbLine
10
-250
20
0.39999999999999147
30
0
11
-250
21
50
31
0
0
LINE
5
108
100
AcDbEntity
8
0
100
AcDbLine
10
-188.66666666666669
20
50
30
0
11
-188.66666666666669
21
0.39999999999999147
31
0
0
LINE
5
109
100
AcDbEntity
8
0
100
AcDbLine
10
-218.66666666666669
20
0.39999999999999147
30
0
11
-218.66666666666669
21
50
31
0
0
LINE
5
110
100
AcDbEntity
8
0
100
AcDbLine
10
-157.33333333333334
20
50
30
0
11
-157.33333333333334
21
0.39999999999999147
31
0
0
LINE
5
111
100
AcDbEntity
8
0
100
AcDbLine
10
-187.33333333333334
20
0.39999999999999147
30
0
11
-187.33333333333334
21
50
31
0
0
LINE
5
112
100
AcDbEntity
8
0
100
AcDbLine
10
-126
20
50
30
0
11
-126
21
0.39999999999999147
31
0
0
LINE
5
113
100
AcDbEntity
8
0
100
AcDbLine
10
-156
20
0.39999999999999147
30
0
11
-156
21
50
31
0
0
LINE
5
114
100
AcDbEntity
8
0
100
AcDbLine
10
-94.666666666666671
20
50
30
0
11
-94.666666666666671
21
0.39999999999999147
31
0
0
LINE
5
115
100
AcDbEntity
8
0
100
AcDbLine
10
-124.66666666666667
20
0.39999999999999147
30
0
11
-124.66666666666667
21
50
31
0
0
LINE
5
116
100
AcDbEntity
8
0
100
AcDbLine
10
-63.333333333333343
20
50
30
0
11
-63.333333333333343
21
0.39999999999999147
31
0
0
LINE
5
117
100
AcDbEntity
8
0
100
AcDbLine
10
-93.333333333333343
20
0.39999999999999147
30
0
11
-93.333333333333343
21
50
31
0
0
LINE
5
118
100
AcDbEntity
8
0
100
AcDbLine
10
-31.999999999999993
20
50
30
0
11
-31.999999999999993
21
0.39999999999999147
31
0
0
LINE
5
119
100
AcDbEntity
8
0
100
AcDbLine
10
-61.999999999999993
20
0.39999999999999147
30
0
11
-61.999999999999993
21
50
31
0
0
LINE
5
120
100
AcDbEntity
8
0
100
AcDbLine
10
-0.6666666666666643
20
50
30
0
11
-0.6666666666666643
21
0.39999999999999147
31
0
0
LINE
5
121
100
AcDbEntity
8
0
100
AcDbLine
10
-30.666666666666664
20
0.39999999999999147
30
0
11
-30.666666666666664
21
50
31
0
0
LINE
5
122
100
AcDbEntity
8
0
100
AcDbLine
10
30.666666666666664
20
50
30
0
11
30.666666666666664
21
0.39999999999999147
31
0
0
LINE
5
123
100
AcDbEntity
8
0
100
AcDbLine
10
0.6666666666666643
20
0.39999999999999147
30
0
11
0.6666666666666643
21
50
31
0
0
LINE
5
124
100
AcDbEntity
8
0
100
AcDbLine
10
61.999999999999993
20
50
30
0
11
61.999999999999993
21
0.39999999999999147
31
0
0
LINE
5
125
100
AcDbEntity
8
0
100
AcDbLine
10
31.999999999999993
20
0.39999999999999147
30
0
11
31.999999999999993
21
50
31
0
0
LINE
5
126
100
AcDbEntity
8
0
100
AcDbLine
10
93.333333333333314
20
50
30
0
11
93.333333333333314
21
0.39999999999999147
31
0
0
LINE
5
127
100
AcDbEntity
8
0
100
AcDbLine
10
63.333333333333321
20
0.39999999999999147
30
0
11
63.333333333333321
21
50
31
0
0
LINE
5
128
100
AcDbEntity
8
0
100
AcDbLine
10
124.66666666666669
20
50
30
0
11
124.66666666666669
21
0.39999999999999147
31
0
0
LINE
5
129
100
AcDbEntity
8
0
100
AcDbLine
10
94.666666666666686
20
0.39999999999999147
30
0
11
94.666666666666686
21
50
31
0
0
LINE
5
130
100
AcDbEntity
8
0
100
AcDbLine
10
156
20
50
30
0
11
156
21
0.39999999999999147
31
0
0
LINE
5
131
100
AcDbEntity
8
0
100
AcDbLine
10
126.00000000000001
20
0.39999999999999147
30
0
11
126.00000000000001
21
50
31
0
0
LINE
5
132
100
AcDbEntity
8
0
100
AcDbLine
10
187.33333333333334
20
50
30
0
11
187.33333333333334
21
0.39999999999999147
31
0
0
LINE
5
133
100
AcDbEntity
8
0
100
AcDbLine
10
157.33333333333334
20
0.39999999999999147
30
0
11
157.33333333333334
21
50
31
0
0
LINE
5
134
100
AcDbEntity
8
0
100
AcDbLine
10
218.66666666666669
20
50
30
0
11
218.66666666666669
21
0.39999999999999147
31
0
0
LINE
5
135
100
AcDbEntity
8
0
100
AcDbLine
10
188.66666666666669
20
0.39999999999999147
30
0
11
188.66666666666669
21
50
31
0
0
LINE
5
136
100
AcDbEntity
8
0
100
AcDbLine
10
250
20
50
30
0
11
250
21
0.39999999999999147
31
0
0
LINE
5
137
100
AcDbEntity
8
0
100
AcDbLine
10
220
20
0.39999999999999147
30
0
11
220
21
50
31
0
0
LINE
5
138
100
AcDbEntity
8
0
100
AcDbLine
10
-220
20
-0.40000000000000036
30
0
11
-220
21
-50.000000000000007
31
0
0
LINE
5
139
100
AcDbEntity
8
0
100
AcDbLine
10
-250
20
-50.000000000000007
30
0
11
-250
21
-0.40000000000000036
31
0
0
LINE
5
140
100
AcDbEntity
8
0
100
AcDbLine
10
-188.66666666666669
20
-0.40000000000000036
30
0
11
-188.66666666666669
21
-50.000000000000007
31
0
0
LINE
5
141
100
AcDbEntity
8
0
100
AcDbLine
10
-218.66666666666669
20
-50.000000000000007
30
0
11
-218.66666666666669
21
-0.40000000000000036
31
0
0
LINE
5
142
100
AcDbEntity
8
0
100
AcDbLine
10
-157.33333333333334
20
-0.40000000000000036
30
0
11
-157.33333333333334
21
-50.000000000000007
31
0
0
LINE
5
143
100
AcDbEntity
8
0
100
AcDbLine
10
-187.33333333333334
20
-50.000000000000007
30
0
11
-187.33333333333334
21
-0.40000000000000036
31
0
0
LINE
5
144
100
AcDbEntity
8
0
100
AcDbLine
10
-126
20
-0.40000000000000036
30
0
11
-126
21
-50.000000000000007
31
0
0
LINE
5
145
100
AcDbEntity
8
0
100
AcDbLine
10
-156
20
-50.000000000000007
30
0
11
-156
21
-0.40000000000000036
31
0
0
LINE
5
146
100
AcDbEntity
8
0
100
AcDbLine
10
-94.666666666666671
20
-0.40000000000000036
30
0
11
-94.666666666666671
21
-50.000000000000007
31
0
0
LINE
5
147
100
AcDbEntity
8
0
100
AcDbLine
10
-124.66666666666667
20
-50.000000000000007
30
0
11
-124.66666666666667
21
-0.40000000000000036
31
0
0
LINE
5
148
100
AcDbEntity
8
0
100
AcDbLine
10
-63.333333333333343
20
-0.40000000000000036
30
0
11
-63.333333333333343
21
-50.000000000000007
31
0
0
LINE
5
149
100
AcDbEntity
8
0
100
AcDbLine
10
-93.333333333333343
20
-50.000000000000007
30
0
11
-93.333333333333343
21
-0.40000000000000036
31
0
0
LINE
5
150
100
AcDbEntity
8
0
100
AcDbLine
10
-31.999999999999993
20
-0.40000000000000036
30
0
11
-31.999999999999993
21
-50.000000000000007
31
0
0
LINE
5
151
100
AcDbEntity
8
0
100
AcDbLine
10
-61.999999999999993
20
-50.000000000000007
30
0
11
-61.999999999999993
21
-0.40000000000000036
31
0
0
LINE
5
152
100
AcDbEntity
8
0
100
AcDbLine
10
-0.6666666666666643
20
-0.40000000000000036
30
0
11
-0.6666666666666643
21
-50.000000000000007
31
0
0
LINE
5
153
100
AcDbEntity
8
0
100
AcDbLine
10
-30.666666666666664
20
-50.000000000000007
30
0
11
-30.666666666666664
21
-0.40000000000000036
31
0
0
LINE
5
154
100
AcDbEntity
8
0
100
AcDbLine
10
30.666666666666664
20
-0.40000000000000036
30
0
11
30.666666666666664
21
-50.000000000000007
31
0
0
LINE
5
155
100
AcDbEntity
8
0
100
AcDbLine
10
0.6666666666666643
20
-50.000000000000007
30
0
11
0.6666666666666643
21
-0.40000000000000036
31
0
0
LINE
5
156
100
AcDbEntity
8
0
100
AcDbLine
10
61.999999999999993
20
-0.40000000000000036
30
0
11
61.999999999999993
21
-50.000000000000007
31
0
0
LINE
5
157
100
AcDbEntity
8
0
100
AcDbLine
10
31.999999999999993
20
-50.000000000000007
30
0
11
31.999999999999993
21
-0.40000000000000036
31
0
0
LINE
5
158
100
AcDbEntity
8
0
100
AcDbLine
10
93.333333333333314
20
-0.40000000000000036
30
0
11
93.333333333333314
21
-50.000000000000007
31
0
0
LINE
5
159
100
AcDbEntity
8
0
100
AcDbLine
10
63.333333333333321
20
-50.000000000000007
30
0
11
63.333333333333321
21
-0.40000000000000036
31
0
0
LINE
5
160
100
AcDbEntity
8
0
100
AcDbLine
10
124.66666666666669
20
-0.40000000000000036
30
0
11
124.66666666666669
21
-50.000000000000007
31
0
0
LINE
5
161
100
AcDbEntity
8
0
100
AcDbLine
10
94.666666666666686
20
-50.000000000000007
30
0
11
94.666666666666686
21
-0.40000000000000036
31
0
0
LINE
5
162
100
AcDbEntity
8
0
100
AcDbLine
10
156
20
-0.40000000000000036
30
0
11
156
21
-50.000000000000007
31
0
0
LINE
5
163
100
AcDbEntity
8
0
100
AcDbLine
10
126.00000000000001
20
-50.000000000000007
30
0
11
126.00000000000001
21
-0.40000000000000036
31
0
0
LINE
5
164
100
AcDbEntity
8
0
100
AcDbLine
10
187.33333333333334
20
-0.40000000000000036
30
0
11
187.33333333333334
21
-50.000000000000007
31
0
0
LINE
5
165
100
AcDbEntity
8
0
100
AcDbLine
10
157.33333333333334
20
-50.000000000000007
30
0
11
157.33333333333334
21
-0.40000000000000036
31
0
0
LINE
5
166
100
AcDbEntity
8
0
100
AcDbLine
10
218.66666666666669
20
-0.40000000000000036
30
0
11
218.66666666666669
21
-50.000000000000007
31
0
0
LINE
5
167
100
AcDbEntity
8
0
100
AcDbLine
10
188.66666666666669
20
-50.000000000000007
30
0
11
188.66666666666669
21
-0.40000000000000036
31
0
0
LINE
5
168
100
AcDbEntity
8
0
100
AcDbLine
10
250
20
-0.40000000000000036
30
0
11
250
21
-50.000000000000007
31
0
0
LINE
5
169
100
AcDbEntity
8
0
100
AcDbLine
10
220
20
-50.000000000000007
30
0
11
220
21
-0.40000000000000036
31
0
0
LINE
5
170
100
AcDbEntity
8
0
100
AcDbLine
10
270
20
-50
30
0
11
270
21
-60
31
0
0
LINE
5
171
100
AcDbEntity
8
0
100
AcDbLine
10
270
20
-60
30
0
11
-270
21
-60
31
0
0
LINE
5
172
100
AcDbEntity
8
0
100
AcDbLine
10
-270
20
-60
30
0
11
-270
21
-50
31
0
0
LINE
5
173
100
AcDbEntity
8
0
100
AcDbLine
10
-225.00000335276127
20
55.000000819563866
30
0
11
-222.00000329315662
21
50.00000074505806
31
0
0
LINE
5
174
100
AcDbEntity
8
0
100
AcDbLine
10
-222.00000329315662
20
50.00000074505806
30
0
11
-222.00000329315662
21
-54.000000804662704
31
0
0
LINE
5
175
100
AcDbEntity
8
0
100
AcDbLine
10
-224.00000333786011
20
55.000000819563866
30
0
11
-221.00000329315662
21
50.00000074505806
31
0
0
LINE
5
176
100
AcDbEntity
8
0
100
AcDbLine
10
-221.00000329315662
20
50.00000074505806
30
0
11
-221.00000329315662
21
-54.000000804662704
31
0
0
LINE
5
177
100
AcDbEntity
8
0
100
AcDbLine
10
-216.66665845612684
20
50.00000074505806
30
0
11
-216.66665845612684
21
-54.000000804662704
31
0
0
LINE
5
178
100
AcDbEntity
8
0
100
AcDbLine
10
-245.00000037252903
20
55.000000819563866
30
0
11
-248.00000043213367
21
50.00000074505806
31
0
0
LINE
5
179
100
AcDbEntity
8
0
100
AcDbLine
10
-246.00000038743019
20
55.000000819563866
30
0
11
-249.00000043213367
21
50.00000074505806
31
0
0
LINE
5
180
100
AcDbEntity
8
0
100
AcDbLine
10
-248.00000043213367
20
50.00000074505806
30
0
11
-248.00000043213367
21
-54.000000804662704
31
0
0
LINE
5
181
100
AcDbEntity
8
0
100
AcDbLine
10
-249.00000043213367
20
50.00000074505806
30
0
11
-249.00000043213367
21
-54.000000804662704
31
0
0
LINE
5
182
100
AcDbEntity
8
0
100
AcDbLine
10
-214.66666705409688
20
55.000000819563866
30
0
11
-217.66666709880036
21
50.00000074505806
31
0
0
LINE
5
183
100
AcDbEntity
8
0
100
AcDbLine
10
-213.66666703919572
20
55.000000819563866
30
0
11
-216.66666709880033
21
50.00000074505806
31
0
0
LINE
5
184
100
AcDbEntity
8
0
100
AcDbLine
10
-217.66666709880036
20
50.00000074505806
30
0
11
-217.66666709880036
21
-54.000000804662704
31
0
0
LINE
5
185
100
AcDbEntity
8
0
100
AcDbLine
10
-193.66667001942795
20
55.000000819563866
30
0
11
-190.66666995982331
21
50.00000074505806
31
0
0
LINE
5
186
100
AcDbEntity
8
0
100
AcDbLine
10
-192.66667000452679
20
55.000000819563866
30
0
11
-189.66666995982331
21
50.00000074505806
31
0
0
LINE
5
187
100
AcDbEntity
8
0
100
AcDbLine
10
-190.66666995982331
20
50.00000074505806
30
0
11
-190.66666995982331
21
-54.000000804662704
31
0
0
LINE
5
188
100
AcDbEntity
8
0
100
AcDbLine
10
-189.66666995982331
20
50.00000074505806
30
0
11
-189.66666995982331
21
-54.000000804662704
31
0
0
LINE
5
189
100
AcDbEntity
8
0
100
AcDbLine
10
-183.33333372076353
20
55.000000819563866
30
0
11
-186.33333376546702
21
50.00000074505806
31
0
0
LINE
5
190
100
AcDbEntity
8
0
100
AcDbLine
10
-182.33333370586237
20
55.000000819563866
30
0
11
-185.33333376546699
21
50.00000074505806
31
0
0
LINE
5
191
100
AcDbEntity
8
0
100
AcDbLine
10
-186.33333376546702
20
50.00000074505806
30
0
11
-186.33333376546702
21
-54.000000804662704
31
0
0
LINE
5
192
100
AcDbEntity
8
0
100
AcDbLine
10
-185.33333376546699
20
50.00000074505806
30
0
11
-185.33333376546699
21
-54.000000804662704
31
0
0
LINE
5
193
100
AcDbEntity
8
0
100
AcDbLine
10
-162.33333668609461
20
55.000000819563866
30
0
11
-159.33333662649
21
50.00000074505806
31
0
0
LINE
5
194
100
AcDbEntity
8
0
100
AcDbLine
10
-161.33333667119345
20
55.000000819563866
30
0
11
-158.33333662648997
21
50.00000074505806
31
0
0
LINE
5
195
100
AcDbEntity
8
0
100
AcDbLine
10
-159.33333662649
20
50.00000074505806
30
0
11
-159.33333662649
21
-54.000000804662704
31
0
0
LINE
5
196
100
AcDbEntity
8
0
100
AcDbLine
10
-158.33333662648997
20
50.00000074505806
30
0
11
-158.33333662648997
21
-54.000000804662704
31
0
0
LINE
5
197
100
AcDbEntity
8
0
100
AcDbLine
10
-152.00000038743019
20
55.000000819563866
30
0
11
-155.00000043213367
21
50.00000074505806
31
0
0
LINE
5
198
100
AcDbEntity
8
0
100
AcDbLine
10
-151.00000037252903
20
55.000000819563866
30
0
11
-154.00000043213365
21
50.00000074505806
31
0
0
LINE
5
199
100
AcDbEntity
8
0
100
AcDbLine
10
-155.00000043213367
20
50.00000074505806
30
0
11
-155.00000043213367
21
-54.000000804662704
31
0
0
LINE
5
200
100
AcDbEntity
8
0
100
AcDbLine
10
-154.00000043213365
20
50.00000074505806
30
0
11
-154.00000043213365
21
-54.000000804662704
31
0
0
LINE
5
201
100
AcDbEntity
8
0
100
AcDbLine
10
-131.00000335276127
20
55.000000819563866
30
0
11
-128.00000329315662
21
50.00000074505806
31
0
0
LINE
5
202
100
AcDbEntity
8
0
100
AcDbLine
10
-130.00000333786011
20
55.000000819563866
30
0
11
-127.00000329315662
21
50.00000074505806
31
0
0
LINE
5
203
100
AcDbEntity
8
0
100
AcDbLine
10
-128.00000329315662
20
50.00000074505806
30
0
11
-128.00000329315662
21
-54.000000804662704
31
0
0
LINE
5
204
100
AcDbEntity
8
0
100
AcDbLine
10
-127.00000329315662
20
50.00000074505806
30
0
11
-127.00000329315662
21
-54.000000804662704
31
0
0
LINE
5
205
100
AcDbEntity
8
0
100
AcDbLine
10
-120.66666705409686
20
55.000000819563866
30
0
11
-123.66666709880035
21
50.00000074505806
31
0
0
LINE
5
206
100
AcDbEntity
8
0
100
AcDbLine
10
-119.6666670391957
20
55.000000819563866
30
0
11
-122.66666709880033
21
50.00000074505806
31
0
0
LINE
5
207
100
AcDbEntity
8
0
100
AcDbLine
10
-123.66666709880035
20
50.00000074505806
30
0
11
-123.66666709880035
21
-54.000000804662704
31
0
0
LINE
5
208
100
AcDbEntity
8
0
100
AcDbLine
10
-122.66666709880033
20
50.00000074505806
30
0
11
-122.66666709880033
21
-54.000000804662704
31
0
0
LINE
5
209
100
AcDbEntity
8
0
100
AcDbLine
10
-99.66667001942794
20
55.000000819563866
30
0
11
-96.666669959823309
21
50.00000074505806
31
0
0
LINE
5
210
100
AcDbEntity
8
0
100
AcDbLine
10
-98.666670004526779
20
55.000000819563866
30
0
11
-95.666669959823295
21
50.00000074505806
31
0
0
LINE
5
211
100
AcDbEntity
8
0
100
AcDbLine
10
-96.666669959823309
20
50.00000074505806
30
0
11
-96.666669959823309
21
-54.000000804662704
31
0
0
LINE
5
212
100
AcDbEntity
8
0
100
AcDbLine
10
-95.666669959823295
20
50.00000074505806
30
0
11
-95.666669959823295
21
-54.000000804662704
31
0
0
LINE
5
213
100
AcDbEntity
8
0
100
AcDbLine
10
-89.333333720763534
20
55.000000819563866
30
0
11
-92.333333765467017
21
50.00000074505806
31
0
0
LWPOLYLINE
5
214
100
AcDbEntity
8
0
100
AcDbPolyline
90
4
70
1
43
0.0
10
-88.333333705862373
20
55.000000819563866
10
-91.333333765467003
20
50.00000074505806
10
-65.333336626489981
20
50.00000074505806
10
-68.333336686094611
20
55.000000819563866
0
LINE
5
215
100
AcDbEntity
8
0
100
AcDbLine
10
-92.333333765467017
20
50.00000074505806
30
0
11
-92.333333765467017
21
-54.000000804662704
31
0
0
LINE
5
216
100
AcDbEntity
8
0
100
AcDbLine
10
-91.333333765467003
20
50.00000074505806
30
0
11
-91.333333765467003
21
-54.000000804662704
31
0
0
LINE
5
217
100
AcDbEntity
8
0
100
AcDbLine
10
-67.33333667119345
20
55.000000819563866
30
0
11
-64.333336626489967
21
50.00000074505806
31
0
0
LINE
5
218
100
AcDbEntity
8
0
100
AcDbLine
10
-65.333336626489981
20
50.00000074505806
30
0
11
-65.333336626489981
21
-54.000000804662704
31
0
0
LINE
5
219
100
AcDbEntity
8
0
100
AcDbLine
10
-64.333336626489967
20
50.00000074505806
30
0
11
-64.333336626489967
21
-54.000000804662704
31
0
0
LINE
5
220
100
AcDbEntity
8
0
100
AcDbLine
10
-58.000000387430184
20
55.000000819563866
30
0
11
-61.000000432133668
21
50.00000074505806
31
0
0
LWPOLYLINE
5
221
100
AcDbEntity
8
0
100
AcDbPolyline
90
4
70
1
43
0.0
10
-57.000000372529023
20
55.000000819563866
10
-60.000000432133653
20
50.00000074505806
10
-34.000003293156631
20
50.00000074505806
10
-37.000003352761262
20
55.000000819563866
0
LINE
5
222
100
AcDbEntity
8
0
100
AcDbLine
10
-61.000000432133668
20
50.00000074505806
30
0
11
-61.000000432133668
21
-54.000000804662704
31
0
0
LINE
5
223
100
AcDbEntity
8
0
100
AcDbLine
10
-60.000000432133653
20
50.00000074505806
30
0
11
-60.000000432133653
21
-54.000000804662704
31
0
0
LINE
5
224
100
AcDbEntity
8
0
100
AcDbLine
10
-36.0000033378601
20
55.000000819563866
30
0
11
-33.000003293156617
21
50.00000074505806
31
0
0
LINE
5
225
100
AcDbEntity
8
0
100
AcDbLine
10
-34.000003293156631
20
50.00000074505806
30
0
11
-34.000003293156631
21
-54.000000804662704
31
0
0
LINE
5
226
100
AcDbEntity
8
0
100
AcDbLine
10
-33.000003293156617
20
50.00000074505806
30
0
11
-33.000003293156617
21
-54.000000804662704
31
0
0
LINE
5
227
100
AcDbEntity
8
0
100
AcDbLine
10
-26.666667054096855
20
55.000000819563866
30
0
11
-29.666667098800339
21
50.00000074505806
31
0
0
LINE
5
228
100
AcDbEntity
8
0
100
AcDbLine
10
-25.666667039195694
20
55.000000819563866
30
0
11
-28.666667098800325
21
50.00000074505806
31
0
0
LINE
5
229
100
AcDbEntity
8
0
100
AcDbLine
10
-29.666667098800339
20
50.00000074505806
30
0
11
-29.666667098800339
21
-54.000000804662704
31
0
0
LINE
5
230
100
AcDbEntity
8
0
100
AcDbLine
10
-28.666667098800325
20
50.00000074505806
30
0
11
-28.666667098800325
21
-54.000000804662704
31
0
0
LINE
5
231
100
AcDbEntity
8
0
100
AcDbLine
10
-5.6666700194279329
20
55.000000819563866
30
0
11
-2.6666699598233023
21
50.00000074505806
31
0
0
LINE
5
232
100
AcDbEntity
8
0
100
AcDbLine
10
-4.6666700045267717
20
55.000000819563866
30
0
11
-1.6666699598232881
21
50.00000074505806
31
0
0
LINE
5
233
100
AcDbEntity
8
0
100
AcDbLine
10
-2.6666699598233023
20
50.00000074505806
30
0
11
-2.6666699598233023
21
-54.000000804662704
31
0
0
LINE
5
234
100
AcDbEntity
8
0
100
AcDbLine
10
-1.6666699598232881
20
50.00000074505806
30
0
11
-1.6666699598232881
21
-54.000000804662704
31
0
0
LINE
5
235
100
AcDbEntity
8
0
100
AcDbLine
10
4.6666662792364733
20
55.000000819563866
30
0
11
1.6666662345329897
21
50.00000074505806
31
0
0
LINE
5
236
100
AcDbEntity
8
0
100
AcDbLine
10
5.6666662941376345
20
55.000000819563866
30
0
11
2.6666662345330039
21
50.00000074505806
31
0
0
LINE
5
237
100
AcDbEntity
8
0
100
AcDbLine
10
1.6666662345329897
20
50.00000074505806
30
0
11
1.6666662345329897
21
-54.000000804662704
31
0
0
LINE
5
238
100
AcDbEntity
8
0
100
AcDbLine
10
2.6666662345330039
20
50.00000074505806
30
0
11
2.6666662345330039
21
-54.000000804662704
31
0
0
LINE
5
239
100
AcDbEntity
8
0
100
AcDbLine
10
25.666663313905396
20
55.000000819563866
30
0
11
28.666663373510026
21
50.00000074505806
31
0
0
LINE
5
240
100
AcDbEntity
8
0
100
AcDbLine
10
26.666663328806557
20
55.000000819563866
30
0
11
29.66666337351004
21
50.00000074505806
31
0
0
LINE
5
241
100
AcDbEntity
8
0
100
AcDbLine
10
28.666663373510026
20
50.00000074505806
30
0
11
28.666663373510026
21
-54.000000804662704
31
0
0
LINE
5
242
100
AcDbEntity
8
0
100
AcDbLine
10
29.66666337351004
20
50.00000074505806
30
0
11
29.66666337351004
21
-54.000000804662704
31
0
0
LINE
5
243
100
AcDbEntity
8
0
100
AcDbLine
10
35.999999612569802
20
55.000000819563866
30
0
11
32.999999567866318
21
50.00000074505806
31
0
0
LINE
5
244
100
AcDbEntity
8
0
100
AcDbLine
10
36.999999627470963
20
55.000000819563866
30
0
11
33.999999567866332
21
50.00000074505806
31
0
0
LINE
5
245
100
AcDbEntity
8
0
100
AcDbLine
10
32.999999567866318
20
50.00000074505806
30
0
11
32.999999567866318
21
-54.000000804662704
31
0
0
LINE
5
246
100
AcDbEntity
8
0
100
AcDbLine
10
33.999999567866332
20
50.00000074505806
30
0
11
33.999999567866332
21
-54.000000804662704
31
0
0
LINE
5
247
100
AcDbEntity
8
0
100
AcDbLine
10
56.999996647238724
20
55.000000819563866
30
0
11
59.999996706843355
21
50.00000074505806
31
0
0
LINE
5
248
100
AcDbEntity
8
0
100
AcDbLine
10
57.999996662139885
20
55.000000819563866
30
0
11
60.999996706843369
21
50.00000074505806
31
0
0
LINE
5
249
100
AcDbEntity
8
0
100
AcDbLine
10
59.999996706843355
20
50.00000074505806
30
0
11
59.999996706843355
21
-54.000000804662704
31
0
0
LINE
5
250
100
AcDbEntity
8
0
100
AcDbLine
10
60.999996706843369
20
50.00000074505806
30
0
11
60.999996706843369
21
-54.000000804662704
31
0
0
LINE
5
251
100
AcDbEntity
8
0
100
AcDbLine
10
67.333332945903123
20
55.000000819563866
30
0
11
64.33333290119964
21
50.00000074505806
31
0
0
LINE
5
252
100
AcDbEntity
8
0
100
AcDbLine
10
68.333332960804285
20
55.000000819563866
30
0
11
65.333332901199668
21
50.00000074505806
31
0
0
LINE
5
253
100
AcDbEntity
8
0
100
AcDbLine
10
64.33333290119964
20
50.00000074505806
30
0
11
64.33333290119964
21
-54.000000804662704
31
0
0
LINE
5
254
100
AcDbEntity
8
0
100
AcDbLine
10
65.333332901199668
20
50.00000074505806
30
0
11
65.333332901199668
21
-54.000000804662704
31
0
0
LINE
5
255
100
AcDbEntity
8
0
100
AcDbLine
10
88.333329980572046
20
55.000000819563866
30
0
11
91.333330040176691
21
50.00000074505806
31
0
0
LINE
5
256
100
AcDbEntity
8
0
100
AcDbLine
10
89.333329995473207
20
55.000000819563866
30
0
11
92.333330040176691
21
50.00000074505806
31
0
0
LINE
5
257
100
AcDbEntity
8
0
100
AcDbLine
10
91.333330040176691
20
50.00000074505806
30
0
11
91.333330040176691
21
-54.000000804662704
31
0
0
LINE
5
258
100
AcDbEntity
8
0
100
AcDbLine
10
92.333330040176691
20
50.00000074505806
30
0
11
92.333330040176691
21
-54.000000804662704
31
0
0
LINE
5
259
100
AcDbEntity
8
0
100
AcDbLine
10
98.666666279236495
20
55.000000819563866
30
0
11
95.666666234533011
21
50.00000074505806
31
0
0
LINE
5
260
100
AcDbEntity
8
0
100
AcDbLine
10
99.666666294137656
20
55.000000819563866
30
0
11
96.666666234533025
21
50.00000074505806
31
0
0
LINE
5
261
100
AcDbEntity
8
0
100
AcDbLine
10
95.666666234533011
20
50.00000074505806
30
0
11
95.666666234533011
21
-54.000000804662704
31
0
0
LINE
5
262
100
AcDbEntity
8
0
100
AcDbLine
10
96.666666234533025
20
50.00000074505806
30
0
11
96.666666234533025
21
-54.000000804662704
31
0
0
LINE
5
263
100
AcDbEntity
8
0
100
AcDbLine
10
119.66666331390542
20
55.000000819563866
30
0
11
122.66666337351005
21
50.00000074505806
31
0
0
LINE
5
264
100
AcDbEntity
8
0
100
AcDbLine
10
120.66666332880658
20
55.000000819563866
30
0
11
123.66666337351006
21
50.00000074505806
31
0
0
LINE
5
265
100
AcDbEntity
8
0
100
AcDbLine
10
122.66666337351005
20
50.00000074505806
30
0
11
122.66666337351005
21
-54.000000804662704
31
0
0
LINE
5
266
100
AcDbEntity
8
0
100
AcDbLine
10
123.66666337351006
20
50.00000074505806
30
0
11
123.66666337351006
21
-54.000000804662704
31
0
0
LINE
5
267
100
AcDbEntity
8
0
100
AcDbLine
10
129.99999961256981
20
55.000000819563866
30
0
11
126.99999956786634
21
50.00000074505806
31
0
0
LINE
5
268
100
AcDbEntity
8
0
100
AcDbLine
10
130.99999962747097
20
55.000000819563866
30
0
11
127.99999956786635
21
50.00000074505806
31
0
0
LINE
5
269
100
AcDbEntity
8
0
100
AcDbLine
10
126.99999956786634
20
50.00000074505806
30
0
11
126.99999956786634
21
-54.000000804662704
31
0
0
LINE
5
270
100
AcDbEntity
8
0
100
AcDbLine
10
127.99999956786635
20
50.00000074505806
30
0
11
127.99999956786635
21
-54.000000804662704
31
0
0
LINE
5
271
100
AcDbEntity
8
0
100
AcDbLine
10
150.99999664723873
20
55.000000819563866
30
0
11
153.99999670684338
21
50.00000074505806
31
0
0
LINE
5
272
100
AcDbEntity
8
0
100
AcDbLine
10
151.99999666213989
20
55.000000819563866
30
0
11
154.99999670684338
21
50.00000074505806
31
0
0
LINE
5
273
100
AcDbEntity
8
0
100
AcDbLine
10
153.99999670684338
20
50.00000074505806
30
0
11
153.99999670684338
21
-54.000000804662704
31
0
0
LINE
5
274
100
AcDbEntity
8
0
100
AcDbLine
10
154.99999670684338
20
50.00000074505806
30
0
11
154.99999670684338
21
-54.000000804662704
31
0
0
LINE
5
275
100
AcDbEntity
8
0
100
AcDbLine
10
161.33333294590315
20
55.000000819563866
30
0
11
158.33333290119967
21
50.00000074505806
31
0
0
LINE
5
276
100
AcDbEntity
8
0
100
AcDbLine
10
162.33333296080431
20
55.000000819563866
30
0
11
159.3333329011997
21
50.00000074505806
31
0
0
LINE
5
277
100
AcDbEntity
8
0
100
AcDbLine
10
158.33333290119967
20
50.00000074505806
30
0
11
158.33333290119967
21
-54.000000804662704
31
0
0
LINE
5
278
100
AcDbEntity
8
0
100
AcDbLine
10
159.3333329011997
20
50.00000074505806
30
0
11
159.3333329011997
21
-54.000000804662704
31
0
0
LINE
5
279
100
AcDbEntity
8
0
100
AcDbLine
10
182.33332998057207
20
55.000000819563866
30
0
11
185.33333004017669
21
50.00000074505806
31
0
0
LINE
5
280
100
AcDbEntity
8
0
100
AcDbLine
10
183.33332999547324
20
55.000000819563866
30
0
11
186.33333004017672
21
50.00000074505806
31
0
0
LINE
5
281
100
AcDbEntity
8
0
100
AcDbLine
10
185.33333004017669
20
50.00000074505806
30
0
11
185.33333004017669
21
-54.000000804662704
31
0
0
LINE
5
282
100
AcDbEntity
8
0
100
AcDbLine
10
186.33333004017672
20
50.00000074505806
30
0
11
186.33333004017672
21
-54.000000804662704
31
0
0
LINE
5
283
100
AcDbEntity
8
0
100
AcDbLine
10
192.66666627923649
20
55.000000819563866
30
0
11
189.66666623453301
21
50.00000074505806
31
0
0
LINE
5
284
100
AcDbEntity
8
0
100
AcDbLine
10
193.66666629413766
20
55.000000819563866
30
0
11
190.66666623453301
21
50.00000074505806
31
0
0
LINE
5
285
100
AcDbEntity
8
0
100
AcDbLine
10
189.66666623453301
20
50.00000074505806
30
0
11
189.66666623453301
21
-54.000000804662704
31
0
0
LINE
5
286
100
AcDbEntity
8
0
100
AcDbLine
10
190.66666623453301
20
50.00000074505806
30
0
11
190.66666623453301
21
-54.000000804662704
31
0
0
LINE
5
287
100
AcDbEntity
8
0
100
AcDbLine
10
213.66666331390542
20
55.000000819563866
30
0
11
216.66666337351003
21
50.00000074505806
31
0
0
LINE
5
288
100
AcDbEntity
8
0
100
AcDbLine
10
214.66666332880658
20
55.000000819563866
30
0
11
217.66666337351006
21
50.00000074505806
31
0
0
LINE
5
289
100
AcDbEntity
8
0
100
AcDbLine
10
216.66666337351003
20
50.00000074505806
30
0
11
216.66666337351003
21
-54.000000804662704
31
0
0
LINE
5
290
100
AcDbEntity
8
0
100
AcDbLine
10
217.66666337351006
20
50.00000074505806
30
0
11
217.66666337351006
21
-54.000000804662704
31
0
0
LINE
5
291
100
AcDbEntity
8
0
100
AcDbLine
10
223.99999961256981
20
55.000000819563866
30
0
11
220.99999956786633
21
50.00000074505806
31
0
0
LINE
5
292
100
AcDbEntity
8
0
100
AcDbLine
10
224.99999962747097
20
55.000000819563866
30
0
11
221.99999956786633
21
50.00000074505806
31
0
0
LINE
5
293
100
AcDbEntity
8
0
100
AcDbLine
10
220.99999956786633
20
50.00000074505806
30
0
11
220.99999956786633
21
-54.000000804662704
31
0
0
LINE
5
294
100
AcDbEntity
8
0
100
AcDbLine
10
221.99999956786633
20
50.00000074505806
30
0
11
221.99999956786633
21
-54.000000804662704
31
0
0
LINE
5
295
100
AcDbEntity
8
0
100
AcDbLine
10
244.99999664723873
20
55.000000819563866
30
0
11
247.99999670684338
21
50.00000074505806
31
0
0
LINE
5
296
100
AcDbEntity
8
0
100
AcDbLine
10
245.99999666213989
20
55.000000819563866
30
0
11
248.99999670684338
21
50.00000074505806
31
0
0
LINE
5
297
100
AcDbEntity
8
0
100
AcDbLine
10
247.99999670684338
20
50.00000074505806
30
0
11
247.99999670684338
21
-54.000000804662704
31
0
0
LINE
5
298
100
AcDbEntity
8
0
100
AcDbLine
10
248.99999670684338
20
50.00000074505806
30
0
11
248.99999670684338
21
-54.000000804662704
31
0
0
LINE
5
299
100
AcDbEntity
8
0
100
AcDbLine
10
-252.00000375509262
20
55.000000819563866
30
0
11
-270
21
-5
31
0
0
LINE
5
300
100
AcDbEntity
8
0
100
AcDbLine
10
270
20
-5
30
0
11
252.00000375509262
21
55.000000819563866
31
0
0
LINE
5
301
100
AcDbEntity
8
0
100
AcDbLine
10
-252.00000375509262
20
55.000000819563866
30
0
11
-246.00000038743019
21
55.000000819563866
31
0
0
LINE
5
302
100
AcDbEntity
8
0
100
AcDbLine
10
-245.00000037252903
20
55.000000819563866
30
0
11
-225.00000335276127
21
55.000000819563866
31
0
0
LINE
5
303
100
AcDbEntity
8
0
100
AcDbLine
10
-224.00000333786011
20
55.000000819563866
30
0
11
-214.66666705409688
21
55.000000819563866
31
0
0
LINE
5
304
100
AcDbEntity
8
0
100
AcDbLine
10
-213.66666703919572
20
55.000000819563866
30
0
11
-193.66667001942795
21
55.000000819563866
31
0
0
LINE
5
305
100
AcDbEntity
8
0
100
AcDbLine
10
-192.66667000452679
20
55.000000819563866
30
0
11
-183.33333372076353
21
55.000000819563866
31
0
0
LINE
5
306
100
AcDbEntity
8
0
100
AcDbLine
10
-182.33333370586237
20
55.000000819563866
30
0
11
-162.33333668609461
21
55.000000819563866
31
0
0
LINE
5
307
100
AcDbEntity
8
0
100
AcDbLine
10
-161.33333667119345
20
55.000000819563866
30
0
11
-152.00000038743019
21
55.000000819563866
31
0
0
LINE
5
308
100
AcDbEntity
8
0
100
AcDbLine
10
-151.00000037252903
20
55.000000819563866
30
0
11
-131.00000335276127
21
55.000000819563866
31
0
0
LINE
5
309
100
AcDbEntity
8
0
100
AcDbLine
10
-130.00000333786011
20
55.000000819563866
30
0
11
-120.66666705409686
21
55.000000819563866
31
0
0
LINE
5
310
100
AcDbEntity
8
0
100
AcDbLine
10
-119.6666670391957
20
55.000000819563866
30
0
11
-99.66667001942794
21
55.000000819563866
31
0
0
LINE
5
311
100
AcDbEntity
8
0
100
AcDbLine
10
-98.666670004526779
20
55.000000819563866
30
0
11
-89.333333720763534
21
55.000000819563866
31
0
0
LINE
5
312
100
AcDbEntity
8
0
100
AcDbLine
10
-67.33333667119345
20
55.000000819563866
30
0
11
-58.000000387430184
21
55.000000819563866
31
0
0
LINE
5
313
100
AcDbEntity
8
0
100
AcDbLine
10
-36.0000033378601
20
55.000000819563866
30
0
11
-26.666667054096855
21
55.000000819563866
31
0
0
LINE
5
314
100
AcDbEntity
8
0
100
AcDbLine
10
-25.666667039195694
20
55.000000819563866
30
0
11
-5.6666700194279329
21
55.000000819563866
31
0
0
LINE
5
315
100
AcDbEntity
8
0
100
AcDbLine
10
-4.6666700045267717
20
55.000000819563866
30
0
11
4.6666662792364733
21
55.000000819563866
31
0
0
LINE
5
316
100
AcDbEntity
8
0
100
AcDbLine
10
5.6666662941376345
20
55.000000819563866
30
0
11
25.666663313905396
21
55.000000819563866
31
0
0
LINE
5
317
100
AcDbEntity
8
0
100
AcDbLine
10
26.666663328806557
20
55.000000819563866
30
0
11
35.999999612569802
21
55.000000819563866
31
0
0
LINE
5
318
100
AcDbEntity
8
0
100
AcDbLine
10
36.999999627470963
20
55.000000819563866
30
0
11
56.999996647238724
21
55.000000819563866
31
0
0
LINE
5
319
100
AcDbEntity
8
0
100
AcDbLine
10
57.999996662139885
20
55.000000819563866
30
0
11
67.333332945903123
21
55.000000819563866
31
0
0
LINE
5
320
100
AcDbEntity
8
0
100
AcDbLine
10
68.333332960804285
20
55.000000819563866
30
0
11
88.333329980572046
21
55.000000819563866
31
0
0
LINE
5
321
100
AcDbEntity
8
0
100
AcDbLine
10
89.333329995473207
20
55.000000819563866
30
0
11
98.666666279236495
21
55.000000819563866
31
0
0
LINE
5
322
100
AcDbEntity
8
0
100
AcDbLine
10
99.666666294137656
20
55.000000819563866
30
0
11
119.66666331390542
21
55.000000819563866
31
0
0
LINE
5
323
100
AcDbEntity
8
0
100
AcDbLine
10
120.66666332880658
20
55.000000819563866
30
0
11
129.99999961256981
21
55.000000819563866
31
0
0
LINE
5
324
100
AcDbEntity
8
0
100
AcDbLine
10
130.99999962747097
20
55.000000819563866
30
0
11
150.99999664723873
21
55.000000819563866
31
0
0
LINE
5
325
100
AcDbEntity
8
0
100
AcDbLine
10
151.99999666213989
20
55.000000819563866
30
0
11
161.33333294590315
21
55.000000819563866
31
0
0
LINE
5
326
100
AcDbEntity
8
0
100
AcDbLine
10
162.33333296080431
20
55.000000819563866
30
0
11
182.33332998057207
21
55.000000819563866
31
0
0
LINE
5
327
100
AcDbEntity
8
0
100
AcDbLine
10
183.33332999547324
20
55.000000819563866
30
0
11
192.66666627923649
21
55.000000819563866
31
0
0
LINE
5
328
100
AcDbEntity
8
0
100
AcDbLine
10
193.66666629413766
20
55.000000819563866
30
0
11
213.66666331390542
21
55.000000819563866
31
0
0
LINE
5
329
100
AcDbEntity
8
0
100
AcDbLine
10
214.66666332880658
20
55.000000819563866
30
0
11
223.99999961256981
21
55.000000819563866
31
0
0
LINE
5
330
100
AcDbEntity
8
0
100
AcDbLine
10
224.99999962747097
20
55.000000819563866
30
0
11
244.99999664723873
21
55.000000819563866
31
0
0
LINE
5
331
100
AcDbEntity
8
0
100
AcDbLine
10
245.99999666213989
20
55.000000819563866
30
0
11
252.00000375509262
21
55.000000819563866
31
0
0
LINE
5
332
100
AcDbEntity
8
0
100
AcDbLine
10
-270
20
-5
30
0
11
-270
21
-60
31
0
0
LINE
5
333
100
AcDbEntity
8
0
100
AcDbLine
10
270
20
-5
30
0
11
270
21
-60
31
0
0
LINE
5
334
100
AcDbEntity
8
0
100
AcDbLine
10
-250
20
50
30
0
11
-249.00000043213367
21
50.00000074505806
31
0
0
LINE
5
335
100
AcDbEntity
8
0
100
AcDbLine
10
-248.00000043213367
20
50.00000074505806
30
0
11
-222.00000329315662
21
50.00000074505806
31
0
0
LINE
5
336
100
AcDbEntity
8
0
100
AcDbLine
10
-221.00000329315662
20
50.00000074505806
30
0
11
-220
21
50
31
0
0
LINE
5
337
100
AcDbEntity
8
0
100
AcDbLine
10
-218.66666666666669
20
50
30
0
11
-217.66666709880036
21
50.00000074505806
31
0
0
LINE
5
338
100
AcDbEntity
8
0
100
AcDbLine
10
-216.66665845612684
20
50.00000074505806
30
0
11
-190.66666995982331
21
50.00000074505806
31
0
0
LINE
5
339
100
AcDbEntity
8
0
100
AcDbLine
10
-188.66666666666669
20
50
30
0
11
-189.66666995982331
21
50.00000074505806
31
0
0
LINE
5
340
100
AcDbEntity
8
0
100
AcDbLine
10
-187.33333333333334
20
50
30
0
11
-186.33333376546702
21
50.00000074505806
31
0
0
LINE
5
341
100
AcDbEntity
8
0
100
AcDbLine
10
-185.33333376546699
20
50.00000074505806
30
0
11
-159.33333662649
21
50.00000074505806
31
0
0
LINE
5
342
100
AcDbEntity
8
0
100
AcDbLine
10
-157.33333333333334
20
50
30
0
11
-158.33333662648997
21
50.00000074505806
31
0
0
LINE
5
343
100
AcDbEntity
8
0
100
AcDbLine
10
-156
20
50
30
0
11
-155.00000043213367
21
50.00000074505806
31
0
0
LINE
5
344
100
AcDbEntity
8
0
100
AcDbLine
10
-154.00000043213365
20
50.00000074505806
30
0
11
-128.00000329315662
21
50.00000074505806
31
0
0
LINE
5
345
100
AcDbEntity
8
0
100
AcDbLine
10
-126
20
50
30
0
11
-127.00000329315662
21
50.00000074505806
31
0
0
LINE
5
346
100
AcDbEntity
8
0
100
AcDbLine
10
-124.66666666666667
20
50
30
0
11
-123.66666709880035
21
50.00000074505806
31
0
0
LINE
5
347
100
AcDbEntity
8
0
100
AcDbLine
10
-122.66666709880033
20
50.00000074505806
30
0
11
-96.666669959823309
21
50.00000074505806
31
0
0
LINE
5
348
100
AcDbEntity
8
0
100
AcDbLine
10
-94.666666666666671
20
50
30
0
11
-95.666669959823295
21
50.00000074505806
31
0
0
LINE
5
349
100
AcDbEntity
8
0
100
AcDbLine
10
-93.333333333333343
20
50
30
0
11
-92.333333765467017
21
50.00000074505806
31
0
0
LINE
5
350
100
AcDbEntity
8
0
100
AcDbLine
10
-63.333333333333343
20
50
30
0
11
-64.333336626489967
21
50.00000074505806
31
0
0
LINE
5
351
100
AcDbEntity
8
0
100
AcDbLine
10
-61.999999999999993
20
50
30
0
11
-61.000000432133668
21
50.00000074505806
31
0
0
LINE
5
352
100
AcDbEntity
8
0
100
AcDbLine
10
-31.999999999999993
20
50
30
0
11
-33.000003293156617
21
50.00000074505806
31
0
0
LINE
5
353
100
AcDbEntity
8
0
100
AcDbLine
10
-30.666666666666664
20
50
30
0
11
-29.666667098800339
21
50.00000074505806
31
0
0
LINE
5
354
100
AcDbEntity
8
0
100
AcDbLine
10
-28.666667098800325
20
50.00000074505806
30
0
11
-2.6666699598233023
21
50.00000074505806
31
0
0
LINE
5
355
100
AcDbEntity
8
0
100
AcDbLine
10
-0.6666666666666643
20
50
30
0
11
-1.6666699598232881
21
50.00000074505806
31
0
0
LINE
5
356
100
AcDbEntity
8
0
100
AcDbLine
10
-248.00000043213367
20
0.39999999999999147
30
0
11
-222.00000330805779
21
0.39999999999999147
31
0
0
LINE
5
357
100
AcDbEntity
8
0
100
AcDbLine
10
-248.00000043213367
20
-0.40000000000000036
30
0
11
-222.00000330805779
21
-0.40000000000000036
31
0
0
LINE
5
358
100
AcDbEntity
8
0
100
AcDbLine
10
-249.00000043213367
20
0.39999999999999147
30
0
11
-250
21
0.39999999999999147
31
0
0
LINE
5
359
100
AcDbEntity
8
0
100
AcDbLine
10
-250
20
-0.40000000000000036
30
0
11
-249.00000371038914
21
-0.40000000000000036
31
0
0
LINE
5
360
100
AcDbEntity
8
0
100
AcDbLine
10
-221.00000329315662
20
-0.40000000000000036
30
0
11
-220
21
-0.40000000000000036
31
0
0
LINE
5
361
100
AcDbEntity
8
0
100
AcDbLine
10
-220
20
0.39999999999999147
30
0
11
-221.00000329315662
21
0.39999999999999147
31
0
0
LINE
5
362
100
AcDbEntity
8
0
100
AcDbLine
10
-249.00000043213367
20
-54.000000804662704
30
0
11
-248.00000043213367
21
-54.000000804662704
31
0
0
LINE
5
363
100
AcDbEntity
8
0
100
AcDbLine
10
-250
20
-50
30
0
11
-249.00000371038914
21
-50
31
0
0
LINE
5
364
100
AcDbEntity
8
0
100
AcDbLine
10
-222.00000329315662
20
-54.000000804662704
30
0
11
-221.00000329315662
21
-54.000000804662704
31
0
0
LINE
5
365
100
AcDbEntity
8
0
100
AcDbLine
10
-217.66666709880036
20
-54.000000804662704
30
0
11
-216.66665845612684
21
-54.000000804662704
31
0
0
LINE
5
366
100
AcDbEntity
8
0
100
AcDbLine
10
-220
20
-50.000000000000007
30
0
11
-221.00000329315662
21
-50.000000000000007
31
0
0
LINE
5
367
100
AcDbEntity
8
0
100
AcDbLine
10
-248.00000369548798
20
-50.00000074505806
30
0
11
-222.00000329315662
21
-50.00000074505806
31
0
0
LINE
5
368
100
AcDbEntity
8
0
100
AcDbLine
10
-218.66666666666669
20
0.39999999999999147
30
0
11
-217.66666709880036
21
0.39999999999999147
31
0
0
LINE
5
369
100
AcDbEntity
8
0
100
AcDbLine
10
-216.66665845612684
20
0.39999999999999147
30
0
11
-190.66666995982331
21
0.39999999999999147
31
0
0
LINE
5
370
100
AcDbEntity
8
0
100
AcDbLine
10
-216.66665845612684
20
-0.40000000000000036
30
0
11
-190.66666995982331
21
-0.40000000000000036
31
0
0
LINE
5
371
100
AcDbEntity
8
0
100
AcDbLine
10
-189.66666995982331
20
0.39999999999999147
30
0
11
-188.66666666666669
21
0.39999999999999147
31
0
0
LINE
5
372
100
AcDbEntity
8
0
100
AcDbLine
10
-188.66666666666669
20
-0.40000000000000036
30
0
11
-189.66666995982331
21
-0.40000000000000036
31
0
0
LINE
5
373
100
AcDbEntity
8
0
100
AcDbLine
10
-217.66666709880036
20
-0.40000000000000036
30
0
11
-218.66666666666669
21
-0.40000000000000036
31
0
0
LINE
5
374
100
AcDbEntity
8
0
100
AcDbLine
10
-218.66666666666669
20
-50.000000000000007
30
0
11
-217.66666709880036
21
-50.000000000000007
31
0
0
LINE
5
375
100
AcDbEntity
8
0
100
AcDbLine
10
-216.66665845612684
20
-50.000000000000007
30
0
11
-190.66666995982331
21
-50.000000000000007
31
0
0
LINE
5
376
100
AcDbEntity
8
0
100
AcDbLine
10
-189.66666995982331
20
-50.000000000000007
30
0
11
-188.66666666666669
21
-50.000000000000007
31
0
0
LINE
5
377
100
AcDbEntity
8
0
100
AcDbLine
10
-190.66666995982331
20
-54.000000804662704
30
0
11
-189.66666995982331
21
-54.000000804662704
31
0
0
LINE
5
378
100
AcDbEntity
8
0
100
AcDbLine
10
-186.33333376546702
20
-54.000000804662704
30
0
11
-185.33333376546699
21
-54.000000804662704
31
0
0
LINE
5
379
100
AcDbEntity
8
0
100
AcDbLine
10
-159.33333662649
20
-54.000000804662704
30
0
11
-158.33333662648997
21
-54.000000804662704
31
0
0
LINE
5
380
100
AcDbEntity
8
0
100
AcDbLine
10
-155.00000043213367
20
-54.000000804662704
30
0
11
-154.00000043213365
21
-54.000000804662704
31
0
0
LINE
5
381
100
AcDbEntity
8
0
100
AcDbLine
10
-128.00000329315662
20
-54.000000804662704
30
0
11
-127.00000329315662
21
-54.000000804662704
31
0
0
LINE
5
382
100
AcDbEntity
8
0
100
AcDbLine
10
-123.66666709880035
20
-54.000000804662704
30
0
11
-122.66666709880033
21
-54.000000804662704
31
0
0
LINE
5
383
100
AcDbEntity
8
0
100
AcDbLine
10
-96.666669959823309
20
-54.000000804662704
30
0
11
-95.666669959823295
21
-54.000000804662704
31
0
0
LINE
5
384
100
AcDbEntity
8
0
100
AcDbLine
10
-92.333333765467017
20
-54.000000804662704
30
0
11
-91.333333765467003
21
-54.000000804662704
31
0
0
LINE
5
385
100
AcDbEntity
8
0
100
AcDbLine
10
-65.333336626489981
20
-54.000000804662704
30
0
11
-64.333336626489967
21
-54.000000804662704
31
0
0
LINE
5
386
100
AcDbEntity
8
0
100
AcDbLine
10
-61.000000432133668
20
-54.000000804662704
30
0
11
-60.000000432133653
21
-54.000000804662704
31
0
0
LINE
5
387
100
AcDbEntity
8
0
100
AcDbLine
10
-34.000003293156631
20
-54.000000804662704
30
0
11
-33.000003293156617
21
-54.000000804662704
31
0
0
LINE
5
388
100
AcDbEntity
8
0
100
AcDbLine
10
-29.666667098800339
20
-54.000000804662704
30
0
11
-28.666667098800325
21
-54.000000804662704
31
0
0
LINE
5
389
100
AcDbEntity
8
0
100
AcDbLine
10
-2.6666699598233023
20
-54.000000804662704
30
0
11
-1.6666699598232881
21
-54.000000804662704
31
0
0
LINE
5
390
100
AcDbEntity
8
0
100
AcDbLine
10
-185.33333376546699
20
0.39999999999999147
30
0
11
-159.33333662649
21
0.39999999999999147
31
0
0
LINE
5
391
100
AcDbEntity
8
0
100
AcDbLine
10
-185.33333376546699
20
-0.40000000000000036
30
0
11
-159.33333662649
21
-0.40000000000000036
31
0
0
LINE
5
392
100
AcDbEntity
8
0
100
AcDbLine
10
-186.33333376546702
20
-0.40000000000000036
30
0
11
-187.33333333333334
21
-0.40000000000000036
31
0
0
LINE
5
393
100
AcDbEntity
8
0
100
AcDbLine
10
-186.33333376546702
20
0.39999999999999147
30
0
11
-187.33333333333334
21
0.39999999999999147
31
0
0
LINE
5
394
100
AcDbEntity
8
0
100
AcDbLine
10
-158.33333662648997
20
0.39999999999999147
30
0
11
-157.33333333333334
21
0.39999999999999147
31
0
0
LWPOLYLINE
5
395
100
AcDbEntity
8
0
100
AcDbPolyline
90
2
70
1
43
0.0
10
-157.33333333333334
20
-0.40000000000000036
10
-158.33333662648997
20
-0.40000000000000036
0
LINE
5
396
100
AcDbEntity
8
0
100
AcDbLine
10
-156
20
-0.40000000000000036
30
0
11
-155.00000230967999
21
-0.40000000000000036
31
0
0
LINE
5
397
100
AcDbEntity
8
0
100
AcDbLine
10
-156
20
0.39999999999999147
30
0
11
-155.00000230967999
21
0.39999999999999147
31
0
0
LINE
5
398
100
AcDbEntity
8
0
100
AcDbLine
10
-154.00000043213365
20
0.39999999999999147
30
0
11
-128.00000190734863
21
0.39999999999999147
31
0
0
LINE
5
399
100
AcDbEntity
8
0
100
AcDbLine
10
-154.00000043213365
20
-0.40000000000000036
30
0
11
-128.00000190734863
21
-0.40000000000000036
31
0
0
LINE
5
400
100
AcDbEntity
8
0
100
AcDbLine
10
-127.00000329315662
20
-0.40000000000000036
30
0
11
-126
21
-0.40000000000000036
31
0
0
LINE
5
401
100
AcDbEntity
8
0
100
AcDbLine
10
-126
20
0.39999999999999147
30
0
11
-127.00000189244747
21
0.39999999999999147
31
0
0
LINE
5
402
100
AcDbEntity
8
0
100
AcDbLine
10
-124.66666666666667
20
0.39999999999999147
30
0
11
-123.66666709880035
21
0.39999999999999147
31
0
0
LINE
5
403
100
AcDbEntity
8
0
100
AcDbLine
10
-123.66666709880035
20
-0.40000000000000036
30
0
11
-124.66666666666667
21
-0.40000000000000036
31
0
0
LINE
5
404
100
AcDbEntity
8
0
100
AcDbLine
10
-122.66666709880033
20
0.39999999999999147
30
0
11
-96.666669959823309
21
0.39999999999999147
31
0
0
LINE
5
405
100
AcDbEntity
8
0
100
AcDbLine
10
-96.666669959823309
20
-0.40000000000000036
30
0
11
-122.66666709880033
21
-0.40000000000000036
31
0
0
LINE
5
406
100
AcDbEntity
8
0
100
AcDbLine
10
-95.666669959823295
20
0.39999999999999147
30
0
11
-94.666666666666671
21
0.39999999999999147
31
0
0
LINE
5
407
100
AcDbEntity
8
0
100
AcDbLine
10
-94.666666666666671
20
-0.40000000000000036
30
0
11
-95.666669959823295
21
-0.40000000000000036
31
0
0
LINE
5
408
100
AcDbEntity
8
0
100
AcDbLine
10
-93.333333333333343
20
0.39999999999999147
30
0
11
-92.333333765467017
21
0.39999999999999147
31
0
0
LINE
5
409
100
AcDbEntity
8
0
100
AcDbLine
10
-92.333333765467017
20
-0.40000000000000036
30
0
11
-93.333333333333343
21
-0.40000000000000036
31
0
0
LINE
5
410
100
AcDbEntity
8
0
100
AcDbLine
10
-91.333333765467003
20
0.39999999999999147
30
0
11
-65.333336626489981
21
0.39999999999999147
31
0
0
LINE
5
411
100
AcDbEntity
8
0
100
AcDbLine
10
-65.333336626489981
20
-0.40000000000000036
30
0
11
-91.333333765467003
21
-0.40000000000000036
31
0
0
LINE
5
412
100
AcDbEntity
8
0
100
AcDbLine
10
-64.333336626489967
20
0.39999999999999147
30
0
11
-63.333333333333343
21
0.39999999999999147
31
0
0
LINE
5
413
100
AcDbEntity
8
0
100
AcDbLine
10
-64.333336626489967
20
-0.40000000000000036
30
0
11
-63.333333333333343
21
-0.40000000000000036
31
0
0
LINE
5
414
100
AcDbEntity
8
0
100
AcDbLine
10
-61.999999999999993
20
0.39999999999999147
30
0
11
-61.000000908970833
21
0.39999999999999147
31
0
0
LINE
5
415
100
AcDbEntity
8
0
100
AcDbLine
10
-61.999999999999993
20
-0.40000000000000036
30
0
11
-61.000000908970833
21
-0.40000000000000036
31
0
0
LINE
5
416
100
AcDbEntity
8
0
100
AcDbLine
10
-60.000000432133653
20
0.39999999999999147
30
0
11
-34.000000506639481
21
0.39999999999999147
31
0
0
LINE
5
417
100
AcDbEntity
8
0
100
AcDbLine
10
-60.000000432133653
20
-0.40000000000000036
30
0
11
-34.000000506639481
21
-0.40000000000000036
31
0
0
LINE
5
418
100
AcDbEntity
8
0
100
AcDbLine
10
-33.000003293156617
20
0.39999999999999147
30
0
11
-31.999999999999993
21
0.39999999999999147
31
0
0
LINE
5
419
100
AcDbEntity
8
0
100
AcDbLine
10
-33.000003293156617
20
-0.40000000000000036
30
0
11
-31.999999999999993
21
-0.40000000000000036
31
0
0
LINE
5
420
100
AcDbEntity
8
0
100
AcDbLine
10
-30.666666666666664
20
0.39999999999999147
30
0
11
-29.666667098800339
21
0.39999999999999147
31
0
0
LINE
5
421
100
AcDbEntity
8
0
100
AcDbLine
10
-30.666666666666664
20
-0.40000000000000036
30
0
11
-29.666667098800339
21
-0.40000000000000036
31
0
0
LINE
5
422
100
AcDbEntity
8
0
100
AcDbLine
10
-28.666667098800325
20
0.39999999999999147
30
0
11
-2.6666699598233023
21
0.39999999999999147
31
0
0
LINE
5
423
100
AcDbEntity
8
0
100
AcDbLine
10
-28.666667098800325
20
-0.40000000000000036
30
0
11
-2.6666699598233023
21
-0.40000000000000036
31
0
0
LINE
5
424
100
AcDbEntity
8
0
100
AcDbLine
10
-1.6666699598232881
20
0.39999999999999147
30
0
11
-0.6666666666666643
21
0.39999999999999147
31
0
0
LINE
5
425
100
AcDbEntity
8
0
100
AcDbLine
10
-1.6666699598232881
20
-0.40000000000000036
30
0
11
-0.6666666666666643
21
-0.40000000000000036
31
0
0
LINE
5
426
100
AcDbEntity
8
0
100
AcDbLine
10
-187.33333333333334
20
-50.000000000000007
30
0
11
-186.33333376546702
21
-50
31
0
0
LINE
5
427
100
AcDbEntity
8
0
100
AcDbLine
10
-185.33333376546699
20
-50
30
0
11
-159.33333662649
21
-50
31
0
0
LINE
5
428
100
AcDbEntity
8
0
100
AcDbLine
10
-158.33333662648997
20
-50
30
0
11
-157.33333333333334
21
-50.000000000000007
31
0
0
LINE
5
429
100
AcDbEntity
8
0
100
AcDbLine
10
-156
20
-50.000000000000007
30
0
11
-155.00000230967999
21
-50.000000000000007
31
0
0
LINE
5
430
100
AcDbEntity
8
0
100
AcDbLine
10
-154.00000229477882
20
-50.00000074505806
30
0
11
-128.00000190734863
21
-50.00000074505806
31
0
0
LINE
5
431
100
AcDbEntity
8
0
100
AcDbLine
10
-127.00000189244747
20
-50.00000074505806
30
0
11
-126
21
-50.000000000000007
31
0
0
LINE
5
432
100
AcDbEntity
8
0
100
AcDbLine
10
-124.66666666666667
20
-50.000000000000007
30
0
11
-123.66666709880035
21
-50
31
0
0
LINE
5
433
100
AcDbEntity
8
0
100
AcDbLine
10
-122.66666709880033
20
-50
30
0
11
-96.666669959823309
21
-50
31
0
0
LINE
5
434
100
AcDbEntity
8
0
100
AcDbLine
10
-95.666669959823295
20
-50
30
0
11
-94.666666666666671
21
-50.000000000000007
31
0
0
LINE
5
435
100
AcDbEntity
8
0
100
AcDbLine
10
-93.333333333333343
20
-50.000000000000007
30
0
11
-92.333333765467017
21
-50.000000000000007
31
0
0
LINE
5
436
100
AcDbEntity
8
0
100
AcDbLine
10
-91.333333765467003
20
-50
30
0
11
-65.333336626489981
21
-50.000000000000007
31
0
0
LINE
5
437
100
AcDbEntity
8
0
100
AcDbLine
10
-64.333336626489967
20
-50.000000000000007
30
0
11
-63.333333333333343
21
-50.000000000000007
31
0
0
LINE
5
438
100
AcDbEntity
8
0
100
AcDbLine
10
-61.999999999999993
20
-50.000000000000007
30
0
11
-61.000000908970833
21
-50
31
0
0
LINE
5
439
100
AcDbEntity
8
0
100
AcDbLine
10
-60.000000894069672
20
-50.00000074505806
30
0
11
-34.000000506639481
21
-50.00000074505806
31
0
0
LINE
5
440
100
AcDbEntity
8
0
100
AcDbLine
10
-33.000000491738319
20
-50.00000074505806
30
0
11
-31.999999999999993
21
-50.000000000000007
31
0
0
LINE
5
441
100
AcDbEntity
8
0
100
AcDbLine
10
-30.666666666666664
20
-50.000000000000007
30
0
11
-29.666667098800339
21
-50
31
0
0
LINE
5
442
100
AcDbEntity
8
0
100
AcDbLine
10
-28.666667098800325
20
-50.000000000000007
30
0
11
-2.6666699598233023
21
-50.000000000000007
31
0
0
LINE
5
443
100
AcDbEntity
8
0
100
AcDbLine
10
-1.6666699598232881
20
-50.000000000000007
30
0
11
-0.6666666666666643
21
-50.000000000000007
31
0
0
LINE
5
444
100
AcDbEntity
8
0
100
AcDbLine
10
249.99999643667883
20
50.000008098457052
30
0
11
248.9999968688125
21
50.000008811121297
31
0
0
LINE
5
445
100
AcDbEntity
8
0
100
AcDbLine
10
247.9999968688125
20
50.000008778727469
30
0
11
221.99999972983548
21
50.000007936488025
31
0
0
LINE
5
446
100
AcDbEntity
8
0
100
AcDbLine
10
220.99999972983545
20
50.000007904094197
30
0
11
219.99999643667883
21
50.000007126642203
31
0
0
LINE
5
447
100
AcDbEntity
8
0
100
AcDbLine
10
218.66666310334551
20
50.000007083450427
30
0
11
217.66666353547919
21
50.00000779611468
31
0
0
LINE
5
448
100
AcDbEntity
8
0
100
AcDbLine
10
216.6666548928057
20
50.000007763720561
30
0
11
190.66666639650214
21
50.0000069214814
31
0
0
LINE
5
449
100
AcDbEntity
8
0
100
AcDbLine
10
188.66666310334551
20
50.000006111635578
30
0
11
189.66666639650214
21
50.000006889087572
31
0
0
LINE
5
450
100
AcDbEntity
8
0
100
AcDbLine
10
187.3333297700122
20
50.00000606844381
30
0
11
186.33333020214587
21
50.000006781108048
31
0
0
LINE
5
451
100
AcDbEntity
8
0
100
AcDbLine
10
185.33333020214585
20
50.00000674871422
30
0
11
159.33333306316882
21
50.000005906474776
31
0
0
LINE
5
452
100
AcDbEntity
8
0
100
AcDbLine
10
157.33332977001223
20
50.000005096628954
30
0
11
158.33333306316882
21
50.000005874080948
31
0
0
LINE
5
453
100
AcDbEntity
8
0
100
AcDbLine
10
155.99999643667888
20
50.000005053437178
30
0
11
154.9999968688125
21
50.000005766101424
31
0
0
LINE
5
454
100
AcDbEntity
8
0
100
AcDbLine
10
153.9999968688125
20
50.000005733707596
30
0
11
127.99999972983548
21
50.000004891468151
31
0
0
LINE
5
455
100
AcDbEntity
8
0
100
AcDbLine
10
125.99999643667887
20
50.000004081622329
30
0
11
126.99999972983547
21
50.000004859074323
31
0
0
LINE
5
456
100
AcDbEntity
8
0
100
AcDbLine
10
124.66666310334554
20
50.000004038430561
30
0
11
123.66666353547919
21
50.000004751094799
31
0
0
LINE
5
457
100
AcDbEntity
8
0
100
AcDbLine
10
122.66666353547917
20
50.000004718700978
30
0
11
96.666666396502151
21
50.000003876461527
31
0
0
LINE
5
458
100
AcDbEntity
8
0
100
AcDbLine
10
94.666663103345542
20
50.000003066615697
30
0
11
95.666666396502137
21
50.000003844067692
31
0
0
LINE
5
459
100
AcDbEntity
8
0
100
AcDbLine
10
93.333329770012213
20
50.000003023423929
30
0
11
92.333330202145859
21
50.000003736088175
31
0
0
LINE
5
460
100
AcDbEntity
8
0
100
AcDbLine
10
91.333330202145845
20
50.000003703694347
30
0
11
65.333333063168823
21
50.000002861454902
31
0
0
LINE
5
461
100
AcDbEntity
8
0
100
AcDbLine
10
63.333329770012213
20
50.00000205160908
30
0
11
64.333333063168809
21
50.000002829061074
31
0
0
LINE
5
462
100
AcDbEntity
8
0
100
AcDbLine
10
61.99999643667887
20
50.000002008417312
30
0
11
60.999996868812509
21
50.000002721081557
31
0
0
LINE
5
463
100
AcDbEntity
8
0
100
AcDbLine
10
59.999996868812495
20
50.000002688687729
30
0
11
33.999999729835473
21
50.000001846448271
31
0
0
LINE
5
464
100
AcDbEntity
8
0
100
AcDbLine
10
31.999996436678863
20
50.000001036602448
30
0
11
32.999999729835459
21
50.000001814054443
31
0
0
LINE
5
465
100
AcDbEntity
8
0
100
AcDbLine
10
30.666663103345535
20
50.00000099341068
30
0
11
29.666663535479181
21
50.000001706074926
31
0
0
LINE
5
466
100
AcDbEntity
8
0
100
AcDbLine
10
28.666663535479167
20
50.000001673681098
30
0
11
2.6666663965021487
21
50.000000831441653
31
0
0
LINE
5
467
100
AcDbEntity
8
0
100
AcDbLine
10
0.6666631033455348
20
50.000000021595824
30
0
11
1.6666663965021344
21
50.000000799047825
31
0
0
LINE
5
468
100
AcDbEntity
8
0
100
AcDbLine
10
1.6666680032360497
20
0.40000005398978189
30
0
11
0.66666471007942596
21
0.40000002159584547
31
0
0
LINE
5
469
100
AcDbEntity
8
0
100
AcDbLine
10
1.6666680291511127
20
-0.39999994601020994
30
0
11
0.66666473599448861
21
-0.39999997840414636
31
0
0
LINE
5
470
100
AcDbEntity
8
0
100
AcDbLine
10
28.666665142213084
20
0.40000092862305436
30
0
11
2.6666680032360635
21
0.40000008638361173
31
0
0
LINE
5
471
100
AcDbEntity
8
0
100
AcDbLine
10
28.666665168128151
20
-0.39999907137693747
30
0
11
2.6666680291511269
21
-0.3999999136163801
31
0
0
LINE
5
472
100
AcDbEntity
8
0
100
AcDbLine
10
30.666664710079424
20
0.40000099341069628
30
0
11
29.666665142213098
21
0.4000009610168842
31
0
0
LINE
5
473
100
AcDbEntity
8
0
100
AcDbLine
10
30.666664735994491
20
-0.39999900658929555
30
0
11
29.666665168128166
21
-0.39999903898310762
31
0
0
LINE
5
474
100
AcDbEntity
8
0
100
AcDbLine
10
33.000001336569376
20
0.40000106899640286
30
0
11
31.999998043412752
21
0.40000103660246644
31
0
0
LINE
5
475
100
AcDbEntity
8
0
100
AcDbLine
10
33.00000136248444
20
-0.39999893100358896
30
0
11
31.99999806932782
21
-0.39999896339752539
31
0
0
LINE
5
476
100
AcDbEntity
8
0
100
AcDbLine
10
59.999998501461477
20
-0.39999805637030761
30
0
11
33.999998575967311
21
-0.39999889860984794
31
0
0
LINE
5
477
100
AcDbEntity
8
0
100
AcDbLine
10
59.99999847554642
20
0.40000194362968422
30
0
11
33.99999855005224
21
0.40000110139014389
31
0
0
LINE
5
478
100
AcDbEntity
8
0
100
AcDbLine
10
61.999998043412759
20
0.40000200841732614
30
0
11
60.999998952383606
21
0.40000197602352294
31
0
0
LINE
5
479
100
AcDbEntity
8
0
100
AcDbLine
10
61.999998069327816
20
-0.39999799158266569
30
0
11
60.999998978298663
21
-0.39999802397646889
31
0
0
LINE
5
480
100
AcDbEntity
8
0
100
AcDbLine
10
64.333334695817797
20
-0.39999791599695911
30
0
11
63.333331402661166
21
-0.39999794839089553
31
0
0
LINE
5
481
100
AcDbEntity
8
0
100
AcDbLine
10
64.33333466990274
20
0.40000208400303272
30
0
11
63.333331376746109
21
0.4000020516090963
31
0
0
LINE
5
482
100
AcDbEntity
8
0
100
AcDbLine
10
91.333331808879748
20
0.40000295863630519
30
0
11
65.33333466990274
21
0.40000211639686256
31
0
0
LINE
5
483
100
AcDbEntity
8
0
100
AcDbLine
10
65.333334695817797
20
-0.39999788360312927
30
0
11
91.333331834794805
21
-0.39999704136368663
31
0
0
LINE
5
484
100
AcDbEntity
8
0
100
AcDbLine
10
93.333331376746088
20
0.40000302342394711
30
0
11
92.333331808879763
21
0.40000299103013504
31
0
0
LINE
5
485
100
AcDbEntity
8
0
100
AcDbLine
10
92.333331834794819
20
-0.39999700896985679
30
0
11
93.333331402661145
21
-0.39999697657604472
31
0
0
LINE
5
486
100
AcDbEntity
8
0
100
AcDbLine
10
95.66666800323604
20
0.4000030990096537
30
0
11
94.666664710079417
21
0.40000306661571727
31
0
0
LINE
5
487
100
AcDbEntity
8
0
100
AcDbLine
10
122.66666514221308
20
0.40000397364292617
30
0
11
96.666668003236055
21
0.40000313140348354
31
0
0
LINE
5
488
100
AcDbEntity
8
0
100
AcDbLine
10
96.666668029151111
20
-0.39999686859650829
30
0
11
122.66666516812813
21
-0.39999602635705678
31
0
0
LINE
5
489
100
AcDbEntity
8
0
100
AcDbLine
10
124.66666471007942
20
0.40000403843057697
30
0
11
123.66666514221309
21
0.40000400603675601
31
0
0
LINE
5
490
100
AcDbEntity
8
0
100
AcDbLine
10
123.66666516812815
20
-0.39999599396323582
30
0
11
124.66666473599447
21
-0.39999596156941486
31
0
0
LINE
5
491
100
AcDbEntity
8
0
100
AcDbLine
10
127.00000136248443
20
-0.39999588598370828
30
0
11
125.9999980693278
21
-0.3999959183776447
31
0
0
LINE
5
492
100
AcDbEntity
8
0
100
AcDbLine
10
125.99999804341275
20
0.40000408162234713
30
0
11
126.99999993586022
21
0.40000411401623026
31
0
0
LINE
5
493
100
AcDbEntity
8
0
100
AcDbLine
10
153.99999847554642
20
0.40000498864955603
30
0
11
127.99999995076138
21
0.4000041464100601
31
0
0
LINE
5
494
100
AcDbEntity
8
0
100
AcDbLine
10
153.99999850146148
20
-0.3999950113504358
30
0
11
127.99999997667643
21
-0.39999585358993173
31
0
0
LINE
5
495
100
AcDbEntity
8
0
100
AcDbLine
10
155.99999804341275
20
0.40000505343719794
30
0
11
155.00000035309273
21
0.40000502104344804
31
0
0
LINE
5
496
100
AcDbEntity
8
0
100
AcDbLine
10
155.9999980693278
20
-0.39999494656279388
30
0
11
155.00000037900779
21
-0.39999497895654379
31
0
0
LINE
5
497
100
AcDbEntity
8
0
100
AcDbLine
10
157.33333140266114
20
-0.39999490337102372
30
0
11
158.33333469581777
21
-0.3999948709770873
31
0
0
LINE
5
498
100
AcDbEntity
8
0
100
AcDbLine
10
158.33333466990271
20
0.40000512902290453
30
0
11
157.33333137674609
21
0.4000050966289681
31
0
0
LINE
5
499
100
AcDbEntity
8
0
100
AcDbLine
10
185.33333180887979
20
0.400006003656177
30
0
11
159.33333466990274
21
0.40000516141673437
31
0
0
LINE
5
500
100
AcDbEntity
8
0
100
AcDbLine
10
185.33333183479485
20
-0.39999399634381483
30
0
11
159.3333346958178
21
-0.39999483858325746
31
0
0
LINE
5
501
100
AcDbEntity
8
0
100
AcDbLine
10
186.33333180887979
20
0.40000603605000684
30
0
11
187.33333137674612
21
0.40000606844381892
31
0
0
LINE
5
502
100
AcDbEntity
8
0
100
AcDbLine
10
186.33333183479488
20
-0.39999396394998499
30
0
11
187.3333314026612
21
-0.39999393155616403
31
0
0
LINE
5
503
100
AcDbEntity
8
0
100
AcDbLine
10
188.66666473599452
20
-0.39999388836439387
30
0
11
189.66666802915114
21
-0.39999385597046633
31
0
0
LINE
5
504
100
AcDbEntity
8
0
100
AcDbLine
10
189.66666800323608
20
0.4000061440295255
30
0
11
188.66666471007946
21
0.40000611163559796
31
0
0
LINE
5
505
100
AcDbEntity
8
0
100
AcDbLine
10
216.66665649953961
20
0.40000701866252264
30
0
11
190.66666800323611
21
0.40000617642335534
31
0
0
LINE
5
506
100
AcDbEntity
8
0
100
AcDbLine
10
216.6666565254547
20
-0.39999298133746919
30
0
11
190.66666802915114
21
-0.39999382357663649
31
0
0
LINE
5
507
100
AcDbEntity
8
0
100
AcDbLine
10
218.66666471007946
20
0.40000708345044877
30
0
11
217.66666514221313
21
0.4000070510566367
31
0
0
LINE
5
508
100
AcDbEntity
8
0
100
AcDbLine
10
217.66666516812819
20
-0.39999294894335513
30
0
11
218.66666473599452
21
-0.39999291654954305
31
0
0
LINE
5
509
100
AcDbEntity
8
0
100
AcDbLine
10
221.00000136248445
20
-0.39999284096383647
30
0
11
219.99999806932783
21
-0.39999287335777289
31
0
0
LINE
5
510
100
AcDbEntity
8
0
100
AcDbLine
10
219.9999980434128
20
0.40000712664221894
30
0
11
221.00000133656943
21
0.40000715903615536
31
0
0
LINE
5
511
100
AcDbEntity
8
0
100
AcDbLine
10
247.99999847554645
20
0.40000803366942783
30
0
11
222.00000135147059
21
0.4000071914299852
31
0
0
LINE
5
512
100
AcDbEntity
8
0
100
AcDbLine
10
247.9999985014615
20
-0.399991966330564
30
0
11
222.00000137738562
21
-0.39999280857000663
31
0
0
LINE
5
513
100
AcDbEntity
8
0
100
AcDbLine
10
249.99999806932783
20
-0.39999190154292208
30
0
11
249.00000177971697
21
-0.39999193393662758
31
0
0
LINE
5
514
100
AcDbEntity
8
0
100
AcDbLine
10
248.99999847554648
20
0.40000806606325767
30
0
11
249.9999980434128
21
0.40000809845706975
31
0
0
LINE
5
515
100
AcDbEntity
8
0
100
AcDbLine
10
249.99999967606172
20
-49.999991901542899
30
0
11
249.00000338645086
21
-49.999991933936613
31
0
0
LINE
5
516
100
AcDbEntity
8
0
100
AcDbLine
10
249.00000023777073
20
-53.999992738599403
30
0
11
248.00000023777073
21
-53.999992770993245
31
0
0
LINE
5
517
100
AcDbEntity
8
0
100
AcDbLine
10
248.0000033715497
20
-49.999992711388487
30
0
11
222.00000296921837
21
-49.999993553628045
31
0
0
LINE
5
518
100
AcDbEntity
8
0
100
AcDbLine
10
222.00000309879371
20
-53.999993613232689
30
0
11
221.00000309879368
21
-53.999993645626517
31
0
0
LINE
5
519
100
AcDbEntity
8
0
100
AcDbLine
10
219.99999967606172
20
-49.999992873357755
30
0
11
221.00000296921834
21
-49.999992840963813
31
0
0
LINE
5
520
100
AcDbEntity
8
0
100
AcDbLine
10
218.66666634272838
20
-49.999992916549516
30
0
11
217.66666677486205
21
-49.999992948943337
31
0
0
LINE
5
521
100
AcDbEntity
8
0
100
AcDbLine
10
217.66666690443742
20
-53.999993753606041
30
0
11
216.66665826176393
21
-53.999993786000147
31
0
0
LINE
5
522
100
AcDbEntity
8
0
100
AcDbLine
10
216.66665813218856
20
-49.999992981337442
30
0
11
190.66666963588503
21
-49.999993823576609
31
0
0
LINE
5
523
100
AcDbEntity
8
0
100
AcDbLine
10
190.66666976546037
20
-53.999994628239314
30
0
11
189.66666976546037
21
-53.999994660633135
31
0
0
LINE
5
524
100
AcDbEntity
8
0
100
AcDbLine
10
189.666669635885
20
-49.99999385597043
30
0
11
188.66666634272838
21
-49.999993888364372
31
0
0
LINE
5
525
100
AcDbEntity
8
0
100
AcDbLine
10
187.33333300939506
20
-49.999993931556133
30
0
11
186.33333344152874
21
-49.999993963949962
31
0
0
LINE
5
526
100
AcDbEntity
8
0
100
AcDbLine
10
186.33333357110411
20
-53.999994768612666
30
0
11
185.33333357110408
21
-53.99999480100648
31
0
0
LINE
5
527
100
AcDbEntity
8
0
100
AcDbLine
10
185.33333344152874
20
-49.999993996343775
30
0
11
159.33333630255169
21
-49.999994838583234
31
0
0
LINE
5
528
100
AcDbEntity
8
0
100
AcDbLine
10
159.33333643212703
20
-53.999995643245938
30
0
11
158.333336432127
21
-53.999995675639752
31
0
0
LINE
5
529
100
AcDbEntity
8
0
100
AcDbLine
10
158.33333630255169
20
-49.999994870977069
30
0
11
157.33333300939506
21
-49.999994903370997
31
0
0
LINE
5
530
100
AcDbEntity
8
0
100
AcDbLine
10
155.99999967606172
20
-49.999994946562758
30
0
11
155.0000019857417
21
-49.999994978956522
31
0
0
LINE
5
531
100
AcDbEntity
8
0
100
AcDbLine
10
155.00000023777071
20
-53.999995783619283
30
0
11
154.00000023777071
21
-53.999995816013104
31
0
0
LINE
5
532
100
AcDbEntity
8
0
100
AcDbLine
10
154.00000197084057
20
-49.99999575640841
30
0
11
128.00000158341038
21
-49.999996598647968
31
0
0
LINE
5
533
100
AcDbEntity
8
0
100
AcDbLine
10
128.00000309879368
20
-53.999996658252556
30
0
11
127.00000309879366
21
-53.999996690646398
31
0
0
LINE
5
534
100
AcDbEntity
8
0
100
AcDbLine
10
127.00000156850922
20
-49.999996631041782
30
0
11
125.99999967606172
21
-49.999995918377621
31
0
0
LINE
5
535
100
AcDbEntity
8
0
100
AcDbLine
10
124.66666634272839
20
-49.999995961569397
30
0
11
123.66666677486207
21
-49.999995993963196
31
0
0
LINE
5
536
100
AcDbEntity
8
0
100
AcDbLine
10
123.66666690443738
20
-53.999996798625901
30
0
11
122.66666690443736
21
-53.999996831019743
31
0
0
LINE
5
537
100
AcDbEntity
8
0
100
AcDbLine
10
122.66666677486205
20
-49.999996026357039
30
0
11
96.666669635885029
21
-49.99999686859649
31
0
0
LINE
5
538
100
AcDbEntity
8
0
100
AcDbLine
10
96.666669765460341
20
-53.999997673259173
30
0
11
95.666669765460327
21
-53.999997705653016
31
0
0
LINE
5
539
100
AcDbEntity
8
0
100
AcDbLine
10
95.666669635885015
20
-49.999996900990311
30
0
11
94.666666342728391
21
-49.999996933384239
31
0
0
LINE
5
540
100
AcDbEntity
8
0
100
AcDbLine
10
93.333333009395062
20
-49.999996976576014
30
0
11
92.333333441528737
21
-49.999997008969842
31
0
0
LINE
5
541
100
AcDbEntity
8
0
100
AcDbLine
10
92.333333571104049
20
-53.999997813632525
30
0
11
91.333333571104035
21
-53.999997846026361
31
0
0
LINE
5
542
100
AcDbEntity
8
0
100
AcDbLine
10
91.333333441528723
20
-49.999997041363656
30
0
11
65.3333363025517
21
-49.999997883603115
31
0
0
LINE
5
543
100
AcDbEntity
8
0
100
AcDbLine
10
65.333336432127027
20
-53.999998688265819
30
0
11
64.333336432127027
21
-53.999998720659633
31
0
0
LINE
5
544
100
AcDbEntity
8
0
100
AcDbLine
10
64.333336302551686
20
-49.999997915996929
30
0
11
63.333333009395062
21
-49.999997948390877
31
0
0
LINE
5
545
100
AcDbEntity
8
0
100
AcDbLine
10
61.999999676061712
20
-49.999997991582639
30
0
11
61.000000585032552
21
-49.999998023976445
31
0
0
LINE
5
546
100
AcDbEntity
8
0
100
AcDbLine
10
61.00000023777072
20
-53.999998828639164
30
0
11
60.000000237770706
21
-53.999998861032985
31
0
0
LINE
5
547
100
AcDbEntity
8
0
100
AcDbLine
10
60.000000570131405
20
-49.999998801428319
30
0
11
34.000000182701214
21
-49.999999643667877
31
0
0
LINE
5
548
100
AcDbEntity
8
0
100
AcDbLine
10
34.000003098793684
20
-53.999999703272437
30
0
11
33.00000309879367
21
-53.999999735666258
31
0
0
LINE
5
549
100
AcDbEntity
8
0
100
AcDbLine
10
33.000000167800053
20
-49.999999676061705
30
0
11
31.999999676061712
21
-49.999998963397502
31
0
0
LINE
5
550
100
AcDbEntity
8
0
100
AcDbLine
10
30.666666342728384
20
-49.999999006589263
30
0
11
29.666666774862058
21
-49.999999038983077
31
0
0
LINE
5
551
100
AcDbEntity
8
0
100
AcDbLine
10
29.666666904437395
20
-53.999999843645782
30
0
11
28.666666904437381
21
-53.99999987603961
31
0
0
LINE
5
552
100
AcDbEntity
8
0
100
AcDbLine
10
28.666666774862044
20
-49.999999071376905
30
0
11
2.6666696358850182
21
-49.99999991361635
31
0
0
LINE
5
553
100
AcDbEntity
8
0
100
AcDbLine
10
2.6666697654603579
20
-54.000000718279054
30
0
11
1.6666697654603435
21
-54.000000750672882
31
0
0
LINE
5
554
100
AcDbEntity
8
0
100
AcDbLine
10
1.6666696358850035
20
-49.999999946010192
30
0
11
0.66666634272837977
21
-49.999999978404119
31
0
0
CIRCLE
5
555
100
AcDbEntity
8
0
100
AcDbCircle
10
-262.00000390410423
20
-52.000000774860382
30
0
40
2.0000000298023224
210
0
220
0
230
1
0
CIRCLE
5
556
100
AcDbEntity
8
0
100
AcDbCircle
10
-262.00000390410423
20
-10.000000149011612
30
0
40
2.0000000298023224
210
0
220
0
230
1
0
CIRCLE
5
557
100
AcDbEntity
8
0
100
AcDbCircle
10
-262.00000390410423
20
-31.000000461935997
30
0
40
2.0000000298023224
210
0
220
0
230
1
0
CIRCLE
5
558
100
AcDbEntity
8
0
100
AcDbCircle
10
-141.00000210106373
20
-55.000000819563866
30
0
40
2.0000000298023224
210
0
220
0
230
1
0
CIRCLE
5
559
100
AcDbEntity
8
0
100
AcDbCircle
10
-15.666668529311814
20
-55.000000819563866
30
0
40
1.9999999999999996
210
0
220
0
230
1
0
CIRCLE
5
560
100
AcDbEntity
8
0
100
AcDbCircle
10
15.666668529311814
20
-55.000000819563866
30
0
40
1.9999999999999996
210
0
220
0
230
1
0
CIRCLE
5
561
100
AcDbEntity
8
0
100
AcDbCircle
10
141.00000210106373
20
-55.000000819563866
30
0
40
2.0000000298023224
210
0
220
0
230
1
0
CIRCLE
5
562
100
AcDbEntity
8
0
100
AcDbCircle
10
262.00000390410423
20
-52.000000774860382
30
0
40
2.0000000298023224
210
0
220
0
230
1
0
CIRCLE
5
563
100
AcDbEntity
8
0
100
AcDbCircle
10
262.00000390410423
20
-31.000000461935997
30
0
40
2.0000000298023224
210
0
220
0
230
1
0
CIRCLE
5
564
100
AcDbEntity
8
0
100
AcDbCircle
10
262.00000390410423
20
-10.000000149011612
30
0
40
2.0000000298023224
210
0
220
0
230
1
0
LINE
5
565
100
AcDbEntity
8
0
100
AcDbLine
10
94.666666666666686
20
-0.40000000000000036
30
0
11
95.666666234533011
21
-0.40000000000000036
31
0
0
ENDSEC
0
SECTION
2
OBJECTS
0
DICTIONARY
5
C
100
AcDbDictionary
3
ACAD_GROUP
350
D
3
ACAD_MLINESTYLE
350
17
0
DICTIONARY
5
D
100
AcDbDictionary
0
DICTIONARY
5
1A
330
C
100
AcDbDictionary
0
DICTIONARY
5
17
100
AcDbDictionary
0
ENDSEC
0
EOF
